<?xml version="1.0" encoding="UTF-8"?>
<svg xmlns="http://www.w3.org/2000/svg" viewBox="0 0 571.91 571.96">
  <defs>
    <style>
      .cls-1 {
        fill: red;
        stroke-width: 0px;
      }

      .cls-2 {
        fill: none;
        stroke: #000;
        stroke-linecap: round;
        stroke-linejoin: round;
      }
    </style>
  </defs>
  <g id="Make2D::可见线::曲线">
    <line class="cls-2" x1="421.5" y1="417.6" x2="420.95" y2="418.19"/>
    <line class="cls-2" x1="420.95" y1="418.19" x2="420.25" y2="418.54"/>
    <line class="cls-2" x1="420.25" y1="418.54" x2="419.96" y2="418.47"/>
    <line class="cls-2" x1="419.86" y1="418.45" x2="419.55" y2="418.47"/>
    <line class="cls-2" x1="418.8" y1="418.19" x2="418.31" y2="417.67"/>
    <line class="cls-2" x1="418.8" y1="418.19" x2="418.21" y2="417.64"/>
    <line class="cls-2" x1="418.31" y1="417.67" x2="417.96" y2="416.97"/>
    <line class="cls-2" x1="417.96" y1="416.97" x2="417.93" y2="416.66"/>
    <line class="cls-2" x1="417.93" y1="416.66" x2="417.93" y2="416.24"/>
    <line class="cls-2" x1="417.93" y1="416.24" x2="418.21" y2="415.49"/>
    <line class="cls-2" x1="418.21" y1="415.49" x2="418.74" y2="415"/>
    <line class="cls-2" x1="418.74" y1="415" x2="419.43" y2="414.65"/>
    <line class="cls-2" x1="420.91" y1="414.9" x2="421.5" y2="415.45"/>
    <line class="cls-2" x1="420.91" y1="414.9" x2="421.5" y2="415.45"/>
    <line class="cls-2" x1="421.5" y1="415.45" x2="421.82" y2="416.25"/>
    <line class="cls-2" x1="421.72" y1="416.22" x2="421.82" y2="416.25"/>
    <line class="cls-2" x1="421.76" y1="416.95" x2="421.5" y2="417.6"/>
    <line class="cls-2" x1="421.82" y1="416.25" x2="421.75" y2="416.54"/>
    <line class="cls-2" x1="421.75" y1="416.54" x2="421.76" y2="416.95"/>
    <line class="cls-2" x1="420.25" y1="418.54" x2="419.96" y2="418.47"/>
    <line class="cls-2" x1="419.96" y1="418.47" x2="419.55" y2="418.47"/>
    <line class="cls-2" x1="419.43" y1="414.65" x2="419.84" y2="414.65"/>
    <line class="cls-2" x1="40.58" y1="416.05" x2="40.7" y2="415.97"/>
    <line class="cls-2" x1="87.87" y1="470.6" x2="87.9" y2="470.5"/>
    <line class="cls-2" x1="43.5" y1="419.3" x2="42.13" y2="417.74"/>
    <line class="cls-2" x1="42.03" y1="409.53" x2="47.82" y2="404.55"/>
    <path class="cls-2" d="M124.96,107.03c-.05-1.96-1.37-3.71-3.22-4.14"/>
    <path class="cls-2" d="M151.96,104.21c-.05-1.96-1.4-3.61-3.34-4.07"/>
    <line class="cls-2" x1="558.03" y1="199.63" x2="490.61" y2="87.03"/>
    <line class="cls-2" x1="490.53" y1="86.91" x2="490.63" y2="86.94"/>
    <path class="cls-2" d="M464.54,508.64c11.23-8.91,21.63-18.63,31.32-29.24,9.76-10.49,18.57-21.72,26.6-33.54,8.05-11.92,15.08-24.29,21.24-37.27,6.23-12.86,11.34-26.2,15.52-39.96,4.16-13.66,7.16-27.6,9.29-41.74,2.05-14.26,2.97-28.49,2.89-42.85-.1-14.26-1.24-28.46-3.51-42.63-2.18-14.14-5.54-28.05-9.86-41.78"/>
    <path class="cls-2" d="M464.44,508.62c44.92-36.06,77.91-84.88,94.68-140.01,16.67-55.15,16.3-114.04-1.19-169"/>
    <line class="cls-2" x1="490.61" y1="87.03" x2="490.61" y2="87.03"/>
    <line class="cls-2" x1="558.03" y1="199.63" x2="558.03" y2="199.63"/>
    <path class="cls-2" d="M115.67,148.77c-.05-1.96-1.4-3.61-3.24-4.05"/>
    <line class="cls-2" x1="419.84" y1="414.65" x2="420.25" y2="414.64"/>
    <line class="cls-2" x1="275.19" y1="92.57" x2="274.05" y2="92.61"/>
    <path class="cls-2" d="M274.85,92.7q.29.07.36.19"/>
    <line class="cls-2" x1="274.52" y1="92.82" x2="274.5" y2="93.74"/>
    <polyline class="cls-2" points="274.5 93.74 274.48 93.84 274.36 93.91"/>
    <line class="cls-2" x1="274.36" y1="93.91" x2="274.36" y2="93.91"/>
    <line class="cls-2" x1="274.82" y1="93.71" x2="274.82" y2="93.71"/>
    <line class="cls-2" x1="274.83" y1="92.8" x2="274.83" y2="92.8"/>
    <line class="cls-2" x1="275.22" y1="92.89" x2="275.31" y2="92.91"/>
    <line class="cls-2" x1="275.31" y1="92.91" x2="275.19" y2="92.57"/>
    <line class="cls-2" x1="274.05" y1="92.61" x2="273.98" y2="92.9"/>
    <line class="cls-2" x1="273.98" y1="92.9" x2="273.98" y2="92.9"/>
    <path class="cls-2" d="M274.44,92.7h0q-.02.1.07.12"/>
    <line class="cls-2" x1="274.36" y1="93.91" x2="274.96" y2="93.95"/>
    <path class="cls-2" d="M274.83,92.8h0l.02-.1"/>
    <line class="cls-2" x1="268.3" y1="92.68" x2="267.79" y2="92.66"/>
    <line class="cls-2" x1="269.08" y1="92.86" x2="269.08" y2="92.86"/>
    <line class="cls-2" x1="269.22" y1="92.69" x2="269.24" y2="92.6"/>
    <line class="cls-2" x1="269.24" y1="92.6" x2="268.81" y2="92.7"/>
    <line class="cls-2" x1="268.81" y1="92.7" x2="268.81" y2="92.7"/>
    <line class="cls-2" x1="268.98" y1="92.84" x2="268.92" y2="93.54"/>
    <path class="cls-2" d="M268.92,93.54c.05.22-.07.29-.38.32"/>
    <line class="cls-2" x1="268.19" y1="93.58" x2="268.16" y2="92.85"/>
    <line class="cls-2" x1="268.3" y1="92.68" x2="268.3" y2="92.68"/>
    <path class="cls-2" d="M267.79,92.66l-.02.1"/>
    <path class="cls-2" d="M267.77,92.76c.12-.07.1.02.17.14"/>
    <line class="cls-2" x1="267.94" y1="92.9" x2="267.88" y2="93.6"/>
    <path class="cls-2" d="M267.88,93.6l.22.36.39.09"/>
    <line class="cls-2" x1="269.11" y1="93.59" x2="269.08" y2="92.86"/>
    <path class="cls-2" d="M268.53,93.86c-.22.05-.29-.07-.34-.29"/>
    <path class="cls-2" d="M273.98,92.9c.02-.1.14-.17.14-.17q.1.02.31-.03"/>
    <path class="cls-2" d="M274.99,93.86l-.19-.05.02-.1"/>
    <path class="cls-2" d="M268.49,94.06c.19.05.31-.03.43-.1s.17-.27.19-.36"/>
    <line class="cls-2" x1="268.16" y1="92.85" x2="268.16" y2="92.85"/>
    <path class="cls-2" d="M269.08,92.86l.02-.1c.02-.1.12-.07.12-.07"/>
    <path class="cls-2" d="M268.81,92.7l.1.02s-.02.1.07.12"/>
    <path class="cls-2" d="M268.16,92.85c.02-.1.05-.19.14-.17"/>
    <path class="cls-2" d="M258.58,92.63c-.19-.05-.29-.07-.27-.17"/>
    <line class="cls-2" x1="262.51" y1="92.02" x2="263.65" y2="91.99"/>
    <line class="cls-2" x1="262.87" y1="91.39" x2="262.87" y2="91.39"/>
    <line class="cls-2" x1="262.87" y1="91.39" x2="263.28" y2="91.39"/>
    <line class="cls-2" x1="263.47" y1="91.43" x2="263.47" y2="91.43"/>
    <line class="cls-2" x1="263.47" y1="91.43" x2="263.45" y2="91.12"/>
    <line class="cls-2" x1="263.45" y1="91.12" x2="263.45" y2="91.12"/>
    <path class="cls-2" d="M263.45,91.12l-.02.1-.19-.05"/>
    <line class="cls-2" x1="262.92" y1="91.2" x2="262.89" y2="90.88"/>
    <line class="cls-2" x1="263.59" y1="90.95" x2="263.69" y2="90.97"/>
    <line class="cls-2" x1="262.43" y1="90.67" x2="262.43" y2="90.67"/>
    <line class="cls-2" x1="262.6" y1="90.82" x2="262.6" y2="90.82"/>
    <path class="cls-2" d="M262.56,91.83c.1.02.07.12.07.12q-.1-.02-.12.07"/>
    <line class="cls-2" x1="262.51" y1="92.02" x2="262.51" y2="92.02"/>
    <line class="cls-2" x1="263.65" y1="91.99" x2="263.72" y2="91.7"/>
    <line class="cls-2" x1="262.87" y1="91.39" x2="262.87" y2="91.39"/>
    <line class="cls-2" x1="262.56" y1="91.83" x2="262.56" y2="91.83"/>
    <line class="cls-2" x1="263.72" y1="91.7" x2="263.72" y2="91.7"/>
    <path class="cls-2" d="M263.72,91.7c-.02.1-.12.07-.14.17l-.19-.05"/>
    <line class="cls-2" x1="263.38" y1="91.82" x2="263.07" y2="91.85"/>
    <path class="cls-2" d="M263.07,91.85l-.1-.02q-.1-.02-.07-.12"/>
    <line class="cls-2" x1="262.9" y1="91.71" x2="262.87" y2="91.39"/>
    <polyline class="cls-2" points="263.28 91.39 263.38 91.41 263.47 91.43"/>
    <line class="cls-2" x1="263.23" y1="91.17" x2="262.92" y2="91.2"/>
    <line class="cls-2" x1="263.01" y1="90.81" x2="263.22" y2="90.76"/>
    <line class="cls-2" x1="263.69" y1="90.97" x2="263.56" y2="90.63"/>
    <line class="cls-2" x1="263.56" y1="90.63" x2="262.43" y2="90.67"/>
    <path class="cls-2" d="M262.89,90.88l.02-.1.1.02"/>
    <path class="cls-2" d="M263.22,90.76l.19.05c.1.02.19.05.17.14"/>
    <path class="cls-2" d="M262.43,90.67l.19.05-.02.1"/>
    <line class="cls-2" x1="262.6" y1="90.82" x2="262.56" y2="91.83"/>
    <line class="cls-2" x1="88.46" y1="153.79" x2="95.84" y2="159.84"/>
    <line class="cls-2" x1="267.79" y1="92.66" x2="267.77" y2="92.76"/>
    <line class="cls-2" x1="221.8" y1="55.53" x2="221.85" y2="57.89"/>
    <line class="cls-2" x1="269.37" y1="49.3" x2="267.01" y2="49.35"/>
    <line class="cls-2" x1="264.56" y1="49.28" x2="262.19" y2="49.33"/>
    <line class="cls-2" x1="259.83" y1="49.39" x2="257.46" y2="49.44"/>
    <path class="cls-2" d="M278.97,49.42c-.15-.24-.34-.29-.66-.26"/>
    <line class="cls-2" x1="321.48" y1="471.73" x2="323.41" y2="471.78"/>
    <line class="cls-2" x1="323.41" y1="471.78" x2="323.41" y2="471.78"/>
    <line class="cls-2" x1="321.58" y1="471.75" x2="321.48" y2="471.73"/>
    <line class="cls-2" x1="323.51" y1="471.8" x2="321.67" y2="471.77"/>
    <line class="cls-2" x1="321.67" y1="471.77" x2="321.58" y2="471.75"/>
    <line class="cls-2" x1="323.51" y1="471.8" x2="323.51" y2="471.8"/>
    <line class="cls-2" x1="267.89" y1="472.64" x2="267.89" y2="472.64"/>
    <line class="cls-2" x1="268.6" y1="517.57" x2="268.5" y2="511.51"/>
    <line class="cls-2" x1="270.42" y1="514.22" x2="270.51" y2="519.05"/>
    <path class="cls-2" d="M268.57,519l.02-.1s.02-.1-.03-.31c.07-.29.04-.6.04-1.02"/>
    <line class="cls-2" x1="268.67" y1="519.02" x2="268.57" y2="519"/>
    <line class="cls-2" x1="268.56" y1="514.29" x2="268.67" y2="519.02"/>
    <line class="cls-2" x1="268.67" y1="519.02" x2="270.51" y2="519.05"/>
    <line class="cls-2" x1="269.95" y1="472.61" x2="269.95" y2="472.61"/>
    <line class="cls-2" x1="321.58" y1="471.75" x2="321.58" y2="471.75"/>
    <line class="cls-2" x1="323.51" y1="471.8" x2="321.58" y2="471.75"/>
    <line class="cls-2" x1="274.96" y1="93.95" x2="274.99" y2="93.86"/>
    <path class="cls-2" d="M91.3,146.16c-.17-.14-.29-.07-.41,0"/>
    <line class="cls-2" x1="264.75" y1="90.81" x2="264.49" y2="91.06"/>
    <line class="cls-2" x1="292.56" y1="517.21" x2="292.38" y2="511.03"/>
    <path class="cls-2" d="M294.32,511.08c-.01.92.07,1.86.06,2.78"/>
    <line class="cls-2" x1="263.88" y1="92.76" x2="263.88" y2="92.76"/>
    <line class="cls-2" x1="263.37" y1="92.74" x2="263.37" y2="92.74"/>
    <line class="cls-2" x1="263.88" y1="92.76" x2="263.37" y2="92.74"/>
    <line class="cls-2" x1="263.5" y1="93.49" x2="263.5" y2="93.49"/>
    <line class="cls-2" x1="262.45" y1="92.73" x2="262.43" y2="92.82"/>
    <path class="cls-2" d="M262.59,93.89l-.05.19-.1-.02"/>
    <line class="cls-2" x1="262.42" y1="94.15" x2="262.83" y2="94.15"/>
    <line class="cls-2" x1="262.83" y1="94.15" x2="262.85" y2="94.05"/>
    <path class="cls-2" d="M263.73,92.93c-.07-.12.02-.1.14-.17"/>
    <line class="cls-2" x1="263.37" y1="92.74" x2="263.37" y2="92.74"/>
    <line class="cls-2" x1="262.42" y1="94.15" x2="262.42" y2="94.15"/>
    <line class="cls-2" x1="263.37" y1="92.74" x2="263.37" y2="92.74"/>
    <line class="cls-2" x1="263.52" y1="92.98" x2="263.5" y2="93.49"/>
    <line class="cls-2" x1="262.45" y1="92.73" x2="262.45" y2="92.73"/>
    <polyline class="cls-2" points="262.43 92.82 262.52 92.85 262.5 92.94"/>
    <polyline class="cls-2" points="262.85 94.05 262.76 94.03 262.78 93.93"/>
    <line class="cls-2" x1="262.78" y1="93.93" x2="262.75" y2="93.21"/>
    <path class="cls-2" d="M271.43,93.73c-.02.1-.05.19-.17.27"/>
    <line class="cls-2" x1="271.27" y1="94" x2="271.27" y2="94"/>
    <line class="cls-2" x1="271.27" y1="94" x2="272.4" y2="93.96"/>
    <line class="cls-2" x1="272.4" y1="93.96" x2="272.47" y2="93.67"/>
    <line class="cls-2" x1="272.13" y1="93.79" x2="271.82" y2="93.82"/>
    <path class="cls-2" d="M271.27,92.67s.1.02.07.12"/>
    <line class="cls-2" x1="272.23" y1="93.41" x2="272.23" y2="93.41"/>
    <line class="cls-2" x1="272.23" y1="93.41" x2="272.29" y2="93.12"/>
    <line class="cls-2" x1="272.29" y1="93.12" x2="272.2" y2="93.09"/>
    <path class="cls-2" d="M272.2,93.09s-.02.1-.12.07"/>
    <line class="cls-2" x1="272.08" y1="93.17" x2="271.67" y2="93.17"/>
    <line class="cls-2" x1="271.67" y1="93.17" x2="271.64" y2="92.86"/>
    <line class="cls-2" x1="272.34" y1="92.92" x2="272.46" y2="92.85"/>
    <line class="cls-2" x1="271.3" y1="92.57" x2="271.27" y2="92.67"/>
    <line class="cls-2" x1="271.35" y1="92.79" x2="271.43" y2="93.73"/>
    <line class="cls-2" x1="271.72" y1="93.39" x2="271.72" y2="93.39"/>
    <line class="cls-2" x1="272.47" y1="93.67" x2="272.47" y2="93.67"/>
    <path class="cls-2" d="M271.82,93.82l-.1-.02.02-.1"/>
    <line class="cls-2" x1="271.75" y1="93.7" x2="271.72" y2="93.39"/>
    <line class="cls-2" x1="271.72" y1="93.39" x2="272.03" y2="93.36"/>
    <path class="cls-2" d="M272.03,93.36l.1.02.1.02"/>
    <path class="cls-2" d="M271.64,92.86l.02-.1.1.02"/>
    <line class="cls-2" x1="271.76" y1="92.78" x2="272.07" y2="92.76"/>
    <path class="cls-2" d="M272.07,92.76c.1.02.29.07.27.17"/>
    <line class="cls-2" x1="272.46" y1="92.85" x2="272.31" y2="92.61"/>
    <line class="cls-2" x1="272.31" y1="92.61" x2="271.3" y2="92.57"/>
    <line class="cls-2" x1="262.5" y1="92.94" x2="262.59" y2="93.89"/>
    <line class="cls-2" x1="262.44" y1="94.06" x2="262.44" y2="94.06"/>
    <path class="cls-2" d="M272.47,93.67c-.02.1-.12.07-.12.07q-.12.07-.22.05"/>
    <line class="cls-2" x1="222.26" y1="79.91" x2="222.21" y2="77.54"/>
    <line class="cls-2" x1="221.9" y1="60.26" x2="221.9" y2="60.26"/>
    <line class="cls-2" x1="326.41" y1="471.67" x2="320.63" y2="471.84"/>
    <line class="cls-2" x1="327.04" y1="505.73" x2="326.87" y2="491.34"/>
    <line class="cls-2" x1="327.02" y1="510.54" x2="326.94" y2="505.7"/>
    <line class="cls-2" x1="305.63" y1="510.89" x2="305" y2="472.12"/>
    <line class="cls-2" x1="257.18" y1="472.87" x2="257.82" y2="511.64"/>
    <line class="cls-2" x1="263.75" y1="94.16" x2="263.73" y2="92.93"/>
    <line class="cls-2" x1="262.75" y1="93.21" x2="263.65" y2="94.14"/>
    <line class="cls-2" x1="97.79" y1="161.53" x2="97.79" y2="161.53"/>
    <path class="cls-2" d="M102.82,155.45c.07.12.12.34,0,.41"/>
    <path class="cls-2" d="M97.79,161.53c.17.14.39.09.41,0"/>
    <line class="cls-2" x1="97.79" y1="161.53" x2="97.79" y2="161.53"/>
    <line class="cls-2" x1="312.2" y1="471.99" x2="321.77" y2="471.8"/>
    <line class="cls-2" x1="241.25" y1="473.08" x2="235.5" y2="473.15"/>
    <line class="cls-2" x1="102.82" y1="155.86" x2="98.2" y2="161.53"/>
    <line class="cls-2" x1="321.77" y1="471.8" x2="321.67" y2="471.77"/>
    <line class="cls-2" x1="95.81" y1="159.94" x2="97.79" y2="161.53"/>
    <path class="cls-2" d="M100.75,153.83l-.1-.02"/>
    <line class="cls-2" x1="100.75" y1="153.83" x2="102.82" y2="155.45"/>
    <line class="cls-2" x1="100.75" y1="153.83" x2="100.75" y2="153.83"/>
    <line class="cls-2" x1="95.81" y1="159.94" x2="95.81" y2="159.94"/>
    <line class="cls-2" x1="235.62" y1="480.86" x2="235.49" y2="474.07"/>
    <line class="cls-2" x1="235.77" y1="497.08" x2="235.51" y2="481.76"/>
    <line class="cls-2" x1="258.84" y1="89.82" x2="258.89" y2="90.04"/>
    <line class="cls-2" x1="258.89" y1="90.04" x2="259.08" y2="90.08"/>
    <line class="cls-2" x1="259.08" y1="90.08" x2="259.2" y2="90.01"/>
    <path class="cls-2" d="M259.2,90.01l.05-.19"/>
    <line class="cls-2" x1="259.25" y1="89.82" x2="259.27" y2="89.72"/>
    <line class="cls-2" x1="259.08" y1="89.67" x2="258.86" y2="89.72"/>
    <line class="cls-2" x1="259.27" y1="89.72" x2="259.08" y2="89.67"/>
    <line class="cls-2" x1="258.86" y1="89.72" x2="258.84" y2="89.82"/>
    <line class="cls-2" x1="263.65" y1="94.14" x2="263.75" y2="94.16"/>
    <line class="cls-2" x1="263.5" y1="93.49" x2="262.86" y2="92.72"/>
    <line class="cls-2" x1="281.89" y1="472.37" x2="281.86" y2="472.47"/>
    <line class="cls-2" x1="280.52" y1="517.43" x2="280.44" y2="511.27"/>
    <line class="cls-2" x1="282.46" y1="514" x2="282.54" y2="518.83"/>
    <path class="cls-2" d="M280.58,518.88s.02-.1-.07-.12l.07-.29c-.03-.31-.06-.63-.06-1.04"/>
    <line class="cls-2" x1="280.58" y1="518.88" x2="280.58" y2="518.88"/>
    <line class="cls-2" x1="280.52" y1="517.43" x2="280.52" y2="517.43"/>
    <line class="cls-2" x1="304.47" y1="517.07" x2="304.4" y2="510.91"/>
    <line class="cls-2" x1="306.41" y1="513.64" x2="306.4" y2="518.45"/>
    <path class="cls-2" d="M304.54,518.52l-.07-.12c.02-.1.05-.19-.03-.31.07-.29.06-.7.04-1.02"/>
    <line class="cls-2" x1="304.54" y1="518.52" x2="304.54" y2="518.52"/>
    <line class="cls-2" x1="304.47" y1="517.07" x2="304.47" y2="517.07"/>
    <line class="cls-2" x1="304.54" y1="518.52" x2="306.4" y2="518.45"/>
    <line class="cls-2" x1="280.58" y1="518.88" x2="282.54" y2="518.83"/>
    <line class="cls-2" x1="279.93" y1="472.42" x2="281.79" y2="472.35"/>
    <line class="cls-2" x1="267.99" y1="472.66" x2="267.99" y2="472.66"/>
    <line class="cls-2" x1="262.86" y1="92.72" x2="262.45" y2="92.73"/>
    <line class="cls-2" x1="279.93" y1="472.42" x2="280" y2="472.54"/>
    <line class="cls-2" x1="342.14" y1="271.54" x2="342.11" y2="271.64"/>
    <line class="cls-2" x1="343.59" y1="358.66" x2="342.23" y2="271.57"/>
    <line class="cls-2" x1="343.59" y1="358.66" x2="343.5" y2="358.63"/>
    <line class="cls-2" x1="255.12" y1="273.02" x2="342.14" y2="271.54"/>
    <line class="cls-2" x1="255.12" y1="273.02" x2="255.12" y2="273.02"/>
    <line class="cls-2" x1="256.5" y1="360.02" x2="343.59" y2="358.66"/>
    <line class="cls-2" x1="256.5" y1="360.02" x2="256.5" y2="360.02"/>
    <line class="cls-2" x1="256.5" y1="360.02" x2="255.12" y2="273.02"/>
    <line class="cls-2" x1="342.23" y1="271.57" x2="342.14" y2="271.54"/>
    <line class="cls-2" x1="256.91" y1="359.6" x2="343.08" y2="358.23"/>
    <line class="cls-2" x1="341.8" y1="272.08" x2="343.08" y2="358.23"/>
    <line class="cls-2" x1="341.71" y1="272.06" x2="341.71" y2="272.06"/>
    <path class="cls-2" d="M143.33,104.31c.03,2.47,1.94,4.35,4.31,4.3,2.47-.03,4.38-2.04,4.32-4.4"/>
    <path class="cls-2" d="M137.09,92.18c-.05-2.37-2.06-4.28-4.4-4.32-2.37.05-4.28,2.06-4.23,4.43"/>
    <path class="cls-2" d="M128.46,92.28c.05,2.37,1.96,4.26,4.33,4.2,2.37-.05,4.26-1.96,4.3-4.31"/>
    <path class="cls-2" d="M116.33,107.13c.05,2.37,2.06,4.28,4.43,4.23,2.37-.05,4.26-1.96,4.2-4.33"/>
    <path class="cls-2" d="M139.83,119.06c-.05-2.37-1.96-4.26-4.33-4.2-2.47.03-4.35,1.94-4.3,4.31"/>
    <path class="cls-2" d="M131.2,119.16c.03,2.47,2.04,4.38,4.4,4.32,2.37-.05,4.28-2.06,4.23-4.43"/>
    <path class="cls-2" d="M127.8,133.92c-.05-2.37-2.06-4.28-4.43-4.23s-4.26,1.96-4.23,4.43"/>
    <path class="cls-2" d="M119.15,134.12c.05,2.37,1.96,4.26,4.33,4.2,2.47-.03,4.38-2.04,4.32-4.4"/>
    <path class="cls-2" d="M107.02,148.97c.05,2.37,2.06,4.28,4.43,4.23,2.37-.05,4.28-2.06,4.23-4.43"/>
    <path class="cls-2" d="M112.93,121.89c-.05-2.37-2.06-4.28-4.43-4.23-2.35-.04-4.26,1.96-4.2,4.33"/>
    <path class="cls-2" d="M104.3,122c.05,2.37,1.96,4.26,4.33,4.2s4.26-1.96,4.3-4.31"/>
    <path class="cls-2" d="M100.81,136.74c-.05-2.37-1.96-4.26-4.33-4.2-2.44-.07-4.35,1.94-4.3,4.31"/>
    <path class="cls-2" d="M92.18,136.84c.05,2.37,2.06,4.28,4.43,4.23,2.35.04,4.26-1.96,4.2-4.33"/>
    <line class="cls-2" x1="235.52" y1="480.84" x2="235.51" y2="481.76"/>
    <line class="cls-2" x1="235.52" y1="480.84" x2="235.62" y2="480.86"/>
    <line class="cls-2" x1="235.86" y1="492.8" x2="235.96" y2="492.82"/>
    <line class="cls-2" x1="236.03" y1="507.18" x2="236.13" y2="507.21"/>
    <line class="cls-2" x1="241.81" y1="507.02" x2="241.81" y2="507.02"/>
    <line class="cls-2" x1="241.84" y1="509.48" x2="241.93" y2="509.51"/>
    <line class="cls-2" x1="241.84" y1="509.48" x2="241.79" y2="507.11"/>
    <line class="cls-2" x1="242.94" y1="510.46" x2="241.93" y2="509.51"/>
    <line class="cls-2" x1="321.43" y1="508.19" x2="320.48" y2="509.19"/>
    <line class="cls-2" x1="309.23" y1="472" x2="309.23" y2="472"/>
    <line class="cls-2" x1="309.23" y1="472" x2="309.13" y2="471.97"/>
    <line class="cls-2" x1="244.13" y1="473.05" x2="243.94" y2="473"/>
    <line class="cls-2" x1="252.76" y1="472.94" x2="249.88" y2="472.98"/>
    <line class="cls-2" x1="252.66" y1="472.92" x2="252.76" y2="472.94"/>
    <line class="cls-2" x1="252.66" y1="472.92" x2="254.62" y2="472.87"/>
    <line class="cls-2" x1="240.34" y1="473.07" x2="240.34" y2="473.07"/>
    <line class="cls-2" x1="321.77" y1="471.8" x2="321.67" y2="471.77"/>
    <line class="cls-2" x1="235.5" y1="473.15" x2="235.49" y2="474.07"/>
    <line class="cls-2" x1="241.06" y1="473.03" x2="241.25" y2="473.08"/>
    <line class="cls-2" x1="320.63" y1="471.84" x2="320.54" y2="471.81"/>
    <line class="cls-2" x1="320.54" y1="471.81" x2="319.11" y2="471.78"/>
    <line class="cls-2" x1="242.51" y1="472.97" x2="241.06" y2="473.03"/>
    <line class="cls-2" x1="235.67" y1="497.06" x2="235.77" y2="497.08"/>
    <line class="cls-2" x1="254.62" y1="472.87" x2="254.72" y2="472.89"/>
    <line class="cls-2" x1="249.98" y1="473" x2="249.88" y2="472.98"/>
    <line class="cls-2" x1="250.52" y1="511.75" x2="245.78" y2="511.85"/>
    <line class="cls-2" x1="312.1" y1="471.96" x2="312.2" y2="471.99"/>
    <line class="cls-2" x1="235.94" y1="507.16" x2="236.04" y2="511.9"/>
    <line class="cls-2" x1="235.6" y1="473.17" x2="235.5" y2="473.15"/>
    <line class="cls-2" x1="236.14" y1="511.92" x2="236.04" y2="511.9"/>
    <line class="cls-2" x1="235.94" y1="507.16" x2="235.84" y2="507.14"/>
    <line class="cls-2" x1="235.67" y1="497.06" x2="235.82" y2="505.91"/>
    <line class="cls-2" x1="244.26" y1="511.8" x2="236.14" y2="511.92"/>
    <line class="cls-2" x1="244.36" y1="511.82" x2="244.26" y2="511.8"/>
    <line class="cls-2" x1="326.94" y1="505.7" x2="327.04" y2="505.73"/>
    <line class="cls-2" x1="326.87" y1="491.34" x2="326.87" y2="491.34"/>
    <line class="cls-2" x1="326.88" y1="490.42" x2="326.87" y2="491.34"/>
    <line class="cls-2" x1="326.88" y1="490.42" x2="326.6" y2="471.72"/>
    <line class="cls-2" x1="326.6" y1="471.72" x2="326.41" y2="471.67"/>
    <line class="cls-2" x1="240.48" y1="492.77" x2="240.48" y2="492.77"/>
    <line class="cls-2" x1="235.54" y1="480.74" x2="235.52" y2="480.84"/>
    <line class="cls-2" x1="236.15" y1="507.11" x2="236.03" y2="507.18"/>
    <line class="cls-2" x1="312.1" y1="471.96" x2="309.23" y2="472"/>
    <line class="cls-2" x1="317.66" y1="471.85" x2="317.66" y2="471.85"/>
    <line class="cls-2" x1="240.34" y1="473.07" x2="240.34" y2="473.07"/>
    <line class="cls-2" x1="240.34" y1="473.07" x2="240.34" y2="473.07"/>
    <line class="cls-2" x1="235.77" y1="497.08" x2="235.67" y2="497.06"/>
    <line class="cls-2" x1="307.36" y1="472.07" x2="307.36" y2="472.07"/>
    <line class="cls-2" x1="254.72" y1="472.89" x2="254.72" y2="472.89"/>
    <line class="cls-2" x1="249.98" y1="473" x2="249.98" y2="473"/>
    <line class="cls-2" x1="312.1" y1="471.96" x2="312.1" y2="471.96"/>
    <line class="cls-2" x1="236.04" y1="511.9" x2="236.04" y2="511.9"/>
    <line class="cls-2" x1="319.12" y1="510.61" x2="327.02" y2="510.54"/>
    <line class="cls-2" x1="321.11" y1="491.41" x2="326.87" y2="491.34"/>
    <line class="cls-2" x1="243.94" y1="473" x2="242.51" y2="472.97"/>
    <line class="cls-2" x1="241.81" y1="507.02" x2="241.61" y2="492.73"/>
    <line class="cls-2" x1="241.93" y1="509.51" x2="241.61" y2="492.73"/>
    <line class="cls-2" x1="242.66" y1="491.75" x2="242.94" y2="510.46"/>
    <line class="cls-2" x1="241.61" y1="492.73" x2="242.66" y2="491.75"/>
    <line class="cls-2" x1="235.87" y1="491.88" x2="242.66" y2="491.75"/>
    <line class="cls-2" x1="320.48" y1="509.19" x2="320.18" y2="490.58"/>
    <line class="cls-2" x1="235.6" y1="473.17" x2="235.87" y2="491.88"/>
    <line class="cls-2" x1="244.26" y1="511.8" x2="241.84" y2="509.48"/>
    <line class="cls-2" x1="242.94" y1="510.46" x2="244.36" y2="511.82"/>
    <line class="cls-2" x1="320.18" y1="490.58" x2="326.88" y2="490.42"/>
    <line class="cls-2" x1="241.61" y1="492.73" x2="241.61" y2="492.73"/>
    <line class="cls-2" x1="317.66" y1="471.85" x2="317.86" y2="471.89"/>
    <line class="cls-2" x1="317.66" y1="471.85" x2="317.66" y2="471.85"/>
    <line class="cls-2" x1="319.11" y1="471.78" x2="317.66" y2="471.85"/>
    <line class="cls-2" x1="317.86" y1="471.89" x2="317.66" y2="471.85"/>
    <line class="cls-2" x1="307.27" y1="472.04" x2="309.13" y2="471.97"/>
    <line class="cls-2" x1="306.76" y1="472.03" x2="306.76" y2="472.03"/>
    <line class="cls-2" x1="256.91" y1="359.6" x2="343.08" y2="358.23"/>
    <line class="cls-2" x1="243.94" y1="473" x2="255.97" y2="472.78"/>
    <line class="cls-2" x1="235.82" y1="505.91" x2="235.84" y2="507.14"/>
    <line class="cls-2" x1="111.97" y1="152.29" x2="111.69" y2="149.57"/>
    <line class="cls-2" x1="111.97" y1="152.29" x2="108.18" y2="149.25"/>
    <line class="cls-2" x1="108.18" y1="149.25" x2="110.91" y2="148.97"/>
    <line class="cls-2" x1="111.69" y1="149.57" x2="110.91" y2="148.97"/>
    <line class="cls-2" x1="112.27" y1="148.88" x2="111.69" y2="149.57"/>
    <line class="cls-2" x1="111.49" y1="148.29" x2="110.91" y2="148.97"/>
    <line class="cls-2" x1="112.27" y1="148.88" x2="111.49" y2="148.29"/>
    <line class="cls-2" x1="114.9" y1="148.58" x2="111.97" y2="152.29"/>
    <line class="cls-2" x1="114.9" y1="148.58" x2="112.27" y2="148.88"/>
    <line class="cls-2" x1="111.21" y1="145.56" x2="108.18" y2="149.25"/>
    <line class="cls-2" x1="111.21" y1="145.56" x2="111.49" y2="148.29"/>
    <line class="cls-2" x1="114.9" y1="148.58" x2="111.21" y2="145.56"/>
    <line class="cls-2" x1="256.55" y1="514.41" x2="256.63" y2="519.24"/>
    <line class="cls-2" x1="257.91" y1="472.83" x2="257.91" y2="472.83"/>
    <line class="cls-2" x1="255.97" y1="472.78" x2="255.95" y2="472.88"/>
    <line class="cls-2" x1="257.81" y1="472.81" x2="257.91" y2="472.83"/>
    <line class="cls-2" x1="255.95" y1="472.88" x2="255.97" y2="472.78"/>
    <line class="cls-2" x1="257.81" y1="472.81" x2="257.81" y2="472.81"/>
    <line class="cls-2" x1="45.75" y1="421.88" x2="46.07" y2="422.27"/>
    <line class="cls-2" x1="91.99" y1="475.26" x2="38.13" y2="413.01"/>
    <line class="cls-2" x1="55.28" y1="398.12" x2="38.13" y2="413.01"/>
    <line class="cls-2" x1="39.92" y1="411.48" x2="38.13" y2="413.01"/>
    <line class="cls-2" x1="38.13" y1="413.01" x2="40.68" y2="416.07"/>
    <line class="cls-2" x1="91.99" y1="475.26" x2="91.99" y2="475.26"/>
    <line class="cls-2" x1="84.03" y1="466.1" x2="46.07" y2="422.27"/>
    <line class="cls-2" x1="84.03" y1="466.1" x2="84.03" y2="466.1"/>
    <line class="cls-2" x1="84.34" y1="466.48" x2="86.53" y2="468.95"/>
    <line class="cls-2" x1="86.53" y1="468.95" x2="87.87" y2="470.6"/>
    <line class="cls-2" x1="86.53" y1="468.95" x2="86.53" y2="468.95"/>
    <line class="cls-2" x1="80.64" y1="462.22" x2="80.67" y2="462.13"/>
    <line class="cls-2" x1="75.66" y1="456.43" x2="75.66" y2="456.43"/>
    <line class="cls-2" x1="74.39" y1="454.9" x2="74.37" y2="455"/>
    <line class="cls-2" x1="74.37" y1="455" x2="70.59" y2="450.62"/>
    <line class="cls-2" x1="70.59" y1="450.62" x2="70.69" y2="450.64"/>
    <line class="cls-2" x1="69.41" y1="449.11" x2="69.39" y2="449.21"/>
    <line class="cls-2" x1="65.61" y1="444.83" x2="65.61" y2="444.83"/>
    <line class="cls-2" x1="65.61" y1="444.83" x2="64.31" y2="443.39"/>
    <line class="cls-2" x1="64.41" y1="443.42" x2="64.31" y2="443.39"/>
    <line class="cls-2" x1="60.64" y1="439.04" x2="60.64" y2="439.04"/>
    <line class="cls-2" x1="55.56" y1="433.22" x2="55.66" y2="433.25"/>
    <line class="cls-2" x1="54.36" y1="431.81" x2="54.36" y2="431.81"/>
    <line class="cls-2" x1="54.26" y1="431.79" x2="50.56" y2="427.53"/>
    <line class="cls-2" x1="50.56" y1="427.53" x2="50.58" y2="427.43"/>
    <line class="cls-2" x1="50.56" y1="427.53" x2="49.28" y2="426"/>
    <line class="cls-2" x1="49.28" y1="426" x2="49.38" y2="426.02"/>
    <line class="cls-2" x1="43.5" y1="419.3" x2="43.5" y2="419.3"/>
    <line class="cls-2" x1="42.13" y1="417.74" x2="43.5" y2="419.3"/>
    <line class="cls-2" x1="43.5" y1="419.3" x2="43.5" y2="419.3"/>
    <line class="cls-2" x1="69.14" y1="408.38" x2="64.43" y2="409.21"/>
    <line class="cls-2" x1="64.43" y1="409.21" x2="66.02" y2="404.67"/>
    <line class="cls-2" x1="59.38" y1="402.89" x2="55.28" y2="398.12"/>
    <line class="cls-2" x1="39.83" y1="411.46" x2="39.92" y2="411.48"/>
    <line class="cls-2" x1="124" y1="137.43" x2="123.72" y2="134.7"/>
    <line class="cls-2" x1="124" y1="137.43" x2="120.31" y2="134.4"/>
    <line class="cls-2" x1="120.31" y1="134.4" x2="123.04" y2="134.13"/>
    <line class="cls-2" x1="123.72" y1="134.7" x2="123.04" y2="134.13"/>
    <line class="cls-2" x1="124.3" y1="134.01" x2="123.72" y2="134.7"/>
    <line class="cls-2" x1="123.64" y1="133.34" x2="123.04" y2="134.13"/>
    <line class="cls-2" x1="124.3" y1="134.01" x2="123.64" y2="133.34"/>
    <line class="cls-2" x1="127.02" y1="133.74" x2="124" y2="137.43"/>
    <line class="cls-2" x1="127.02" y1="133.74" x2="124.3" y2="134.01"/>
    <line class="cls-2" x1="123.34" y1="130.71" x2="120.31" y2="134.4"/>
    <line class="cls-2" x1="123.34" y1="130.71" x2="123.64" y2="133.34"/>
    <line class="cls-2" x1="127.02" y1="133.74" x2="123.34" y2="130.71"/>
    <line class="cls-2" x1="109.13" y1="125.4" x2="108.86" y2="122.67"/>
    <line class="cls-2" x1="109.13" y1="125.4" x2="105.44" y2="122.37"/>
    <line class="cls-2" x1="105.44" y1="122.37" x2="108.08" y2="122.07"/>
    <line class="cls-2" x1="108.86" y1="122.67" x2="108.08" y2="122.07"/>
    <line class="cls-2" x1="109.45" y1="121.89" x2="108.86" y2="122.67"/>
    <line class="cls-2" x1="108.77" y1="121.31" x2="108.08" y2="122.07"/>
    <line class="cls-2" x1="109.45" y1="121.89" x2="108.77" y2="121.31"/>
    <line class="cls-2" x1="112.18" y1="121.61" x2="109.13" y2="125.4"/>
    <line class="cls-2" x1="112.18" y1="121.61" x2="109.45" y2="121.89"/>
    <line class="cls-2" x1="108.49" y1="118.59" x2="105.44" y2="122.37"/>
    <line class="cls-2" x1="108.49" y1="118.59" x2="108.77" y2="121.31"/>
    <line class="cls-2" x1="112.18" y1="121.61" x2="108.49" y2="118.59"/>
    <path class="cls-2" d="M266.5,93.79l-.05.19-.02.1"/>
    <path class="cls-2" d="M267.66,94.07c.1.02.22-.05.22-.05"/>
    <path class="cls-2" d="M267.32,93.37c.1.02.22-.05.22-.05.12-.07.14-.17.17-.27"/>
    <line class="cls-2" x1="266.37" y1="92.63" x2="266.37" y2="92.63"/>
    <line class="cls-2" x1="266.51" y1="92.87" x2="266.51" y2="92.87"/>
    <line class="cls-2" x1="266.43" y1="94.08" x2="266.43" y2="94.08"/>
    <line class="cls-2" x1="266.92" y1="92.87" x2="267.04" y2="92.79"/>
    <path class="cls-2" d="M266.8,92.94q.02-.1.12-.07"/>
    <line class="cls-2" x1="266.43" y1="94.08" x2="266.94" y2="94.1"/>
    <line class="cls-2" x1="266.94" y1="94.1" x2="266.96" y2="94"/>
    <path class="cls-2" d="M266.96,94l-.1-.02s.02-.1-.07-.12"/>
    <line class="cls-2" x1="266.79" y1="93.86" x2="266.79" y2="93.45"/>
    <line class="cls-2" x1="266.79" y1="93.45" x2="266.98" y2="93.49"/>
    <path class="cls-2" d="M267.88,94.02s-.1-.02-.07-.12c-.1-.02-.07-.12-.17-.14-.15-.24-.22-.36-.32-.38"/>
    <path class="cls-2" d="M267.7,93.05c-.07-.12-.05-.22-.22-.36-.1-.02-.19-.05-.31.03"/>
    <line class="cls-2" x1="267.16" y1="92.72" x2="266.37" y2="92.63"/>
    <line class="cls-2" x1="258.84" y1="90.23" x2="258.61" y2="91.2"/>
    <line class="cls-2" x1="258.5" y1="92.1" x2="258.5" y2="92.1"/>
    <line class="cls-2" x1="259.04" y1="90.28" x2="258.84" y2="90.23"/>
    <line class="cls-2" x1="266.34" y1="92.73" x2="266.34" y2="92.73"/>
    <line class="cls-2" x1="266.51" y1="92.87" x2="266.5" y2="93.79"/>
    <line class="cls-2" x1="266.43" y1="94.08" x2="266.43" y2="94.08"/>
    <path class="cls-2" d="M266.98,93.49c.12-.07.1.02.19.05l.15.24c-.02.1.07.12.15.24l.19.05"/>
    <line class="cls-2" x1="267.88" y1="94.02" x2="267.88" y2="94.02"/>
    <line class="cls-2" x1="266.83" y1="93.25" x2="266.83" y2="93.25"/>
    <line class="cls-2" x1="266.83" y1="93.25" x2="266.8" y2="92.94"/>
    <path class="cls-2" d="M258.61,91.2l-.09.39c-.02.1-.05.19.05.22-.02.1-.14.17-.07.29"/>
    <path class="cls-2" d="M266.34,92.73l.1.02c.1.02.07.12.07.12"/>
    <line class="cls-2" x1="267.03" y1="93.3" x2="266.83" y2="93.25"/>
    <path class="cls-2" d="M259.25,90.23s-.12.07-.22.05"/>
    <path class="cls-2" d="M258.5,92.1s.1.02.22-.05"/>
    <path class="cls-2" d="M258.72,92.05l.1.02.1.02"/>
    <path class="cls-2" d="M258.91,92.09c.05-.19-.03-.31.02-.51l.09-.39.12-.48.05-.19.07-.29"/>
    <line class="cls-2" x1="291.85" y1="472.28" x2="291.85" y2="472.28"/>
    <line class="cls-2" x1="293.8" y1="472.23" x2="293.9" y2="472.25"/>
    <line class="cls-2" x1="294.38" y1="513.86" x2="294.48" y2="518.59"/>
    <path class="cls-2" d="M292.52,518.64l.02-.1c.02-.1-.05-.22-.03-.31-.03-.31.04-.6.04-1.02"/>
    <line class="cls-2" x1="292.52" y1="518.64" x2="292.52" y2="518.64"/>
    <line class="cls-2" x1="292.56" y1="517.21" x2="292.56" y2="517.21"/>
    <line class="cls-2" x1="291.94" y1="472.3" x2="291.94" y2="472.3"/>
    <line class="cls-2" x1="240.14" y1="473.02" x2="238.18" y2="473.07"/>
    <line class="cls-2" x1="240.14" y1="473.02" x2="240.14" y2="473.02"/>
    <line class="cls-2" x1="238.28" y1="473.09" x2="238.18" y2="473.07"/>
    <line class="cls-2" x1="238.38" y1="473.12" x2="238.28" y2="473.09"/>
    <line class="cls-2" x1="240.24" y1="473.04" x2="240.24" y2="473.04"/>
    <line class="cls-2" x1="292.52" y1="518.64" x2="294.48" y2="518.59"/>
    <line class="cls-2" x1="272.93" y1="93.88" x2="272.93" y2="93.88"/>
    <line class="cls-2" x1="272.83" y1="93.04" x2="273.83" y2="93.99"/>
    <line class="cls-2" x1="273.55" y1="92.59" x2="273.55" y2="92.59"/>
    <line class="cls-2" x1="272.94" y1="92.55" x2="272.53" y2="92.56"/>
    <path class="cls-2" d="M272.51,92.65l.1.02c.1.02.07.12.07.12"/>
    <path class="cls-2" d="M272.66,93.72l-.05.19-.1-.02"/>
    <line class="cls-2" x1="272.86" y1="93.76" x2="272.86" y2="93.76"/>
    <line class="cls-2" x1="273.6" y1="92.81" x2="273.6" y2="92.81"/>
    <line class="cls-2" x1="272.53" y1="92.56" x2="272.53" y2="92.56"/>
    <line class="cls-2" x1="273.01" y1="94" x2="273.03" y2="93.9"/>
    <path class="cls-2" d="M273.03,93.9l-.1-.02c-.1-.02-.07-.12-.07-.12"/>
    <line class="cls-2" x1="273.83" y1="93.99" x2="273.83" y2="93.99"/>
    <line class="cls-2" x1="273.83" y1="93.99" x2="273.81" y2="92.76"/>
    <path class="cls-2" d="M273.81,92.76l.02-.1.12-.07"/>
    <line class="cls-2" x1="273.96" y1="92.59" x2="273.96" y2="92.59"/>
    <line class="cls-2" x1="273.96" y1="92.59" x2="273.55" y2="92.59"/>
    <line class="cls-2" x1="273.6" y1="92.81" x2="273.68" y2="93.34"/>
    <line class="cls-2" x1="273.68" y1="93.34" x2="272.94" y2="92.55"/>
    <line class="cls-2" x1="272.68" y1="92.8" x2="272.66" y2="93.72"/>
    <line class="cls-2" x1="272.5" y1="93.98" x2="273.01" y2="94"/>
    <line class="cls-2" x1="269.33" y1="93.95" x2="269.33" y2="93.95"/>
    <path class="cls-2" d="M269.47,93.78l-.05.19-.1-.02"/>
    <line class="cls-2" x1="269.31" y1="94.05" x2="269.72" y2="94.04"/>
    <line class="cls-2" x1="269.74" y1="93.94" x2="269.74" y2="93.94"/>
    <line class="cls-2" x1="269.72" y1="94.04" x2="269.74" y2="93.94"/>
    <path class="cls-2" d="M269.32,92.72s.1.02.07.12"/>
    <path class="cls-2" d="M270.71,93.76l-.05.19-.1-.02"/>
    <line class="cls-2" x1="270.56" y1="93.93" x2="270.54" y2="94.03"/>
    <line class="cls-2" x1="271.07" y1="93.95" x2="271.07" y2="93.95"/>
    <line class="cls-2" x1="271.07" y1="93.95" x2="271.07" y2="93.95"/>
    <path class="cls-2" d="M270.94,92.79l.02-.1s.1.02.12-.07"/>
    <line class="cls-2" x1="271.08" y1="92.62" x2="271.08" y2="92.62"/>
    <line class="cls-2" x1="271.08" y1="92.62" x2="271.08" y2="92.62"/>
    <line class="cls-2" x1="269.39" y1="92.84" x2="269.47" y2="93.78"/>
    <line class="cls-2" x1="269.31" y1="94.05" x2="269.31" y2="94.05"/>
    <line class="cls-2" x1="270.65" y1="93.14" x2="270.65" y2="93.14"/>
    <line class="cls-2" x1="269.34" y1="92.62" x2="269.34" y2="92.62"/>
    <path class="cls-2" d="M269.74,93.94l-.1-.02s.02-.1-.07-.12"/>
    <line class="cls-2" x1="269.57" y1="93.8" x2="269.64" y2="93.1"/>
    <line class="cls-2" x1="270.13" y1="94.04" x2="270.13" y2="94.04"/>
    <line class="cls-2" x1="270.13" y1="94.04" x2="270.65" y2="93.14"/>
    <path class="cls-2" d="M271.07,93.95l-.1-.02.05-.19"/>
    <line class="cls-2" x1="271.02" y1="93.74" x2="270.94" y2="92.79"/>
    <line class="cls-2" x1="272.52" y1="93.89" x2="272.5" y2="93.98"/>
    <line class="cls-2" x1="272.86" y1="93.76" x2="272.83" y2="93.04"/>
    <path class="cls-2" d="M273.55,92.59l.07.12-.02.1"/>
    <line class="cls-2" x1="272.53" y1="92.56" x2="272.51" y2="92.65"/>
    <line class="cls-2" x1="270.54" y1="94.03" x2="271.07" y2="93.95"/>
    <line class="cls-2" x1="271.08" y1="92.62" x2="270.67" y2="92.63"/>
    <line class="cls-2" x1="269.75" y1="92.61" x2="269.34" y2="92.62"/>
    <line class="cls-2" x1="269.64" y1="93.1" x2="270.13" y2="94.04"/>
    <line class="cls-2" x1="269.34" y1="92.62" x2="269.32" y2="92.72"/>
    <path class="cls-2" d="M267.04,92.79l.29.07q-.02.1.05.22"/>
    <line class="cls-2" x1="238.28" y1="473.09" x2="238.28" y2="473.09"/>
    <line class="cls-2" x1="270.65" y1="93.14" x2="270.65" y2="93.14"/>
    <line class="cls-2" x1="266.37" y1="92.63" x2="266.34" y2="92.73"/>
    <line class="cls-2" x1="266.43" y1="94.08" x2="266.43" y2="94.08"/>
    <line class="cls-2" x1="270.25" y1="93.55" x2="270.25" y2="93.55"/>
    <line class="cls-2" x1="270.67" y1="92.63" x2="270.25" y2="93.55"/>
    <line class="cls-2" x1="264.01" y1="91.77" x2="264.01" y2="91.77"/>
    <line class="cls-2" x1="263.75" y1="92.01" x2="263.75" y2="92.01"/>
    <line class="cls-2" x1="264.26" y1="92.03" x2="264.28" y2="91.93"/>
    <line class="cls-2" x1="265.94" y1="91.4" x2="265.53" y2="91.41"/>
    <line class="cls-2" x1="264.59" y1="91.9" x2="264.57" y2="92"/>
    <line class="cls-2" x1="266.11" y1="91.55" x2="266.16" y2="91.76"/>
    <line class="cls-2" x1="266.62" y1="91.98" x2="266.65" y2="91.88"/>
    <line class="cls-2" x1="265.93" y1="90.58" x2="265.93" y2="90.58"/>
    <line class="cls-2" x1="265.21" y1="90.61" x2="265.21" y2="90.61"/>
    <line class="cls-2" x1="264.7" y1="90.6" x2="264.67" y2="90.69"/>
    <path class="cls-2" d="M264.67,90.69c.12-.07.1.02.07.12"/>
    <line class="cls-2" x1="263.68" y1="90.56" x2="263.68" y2="90.56"/>
    <line class="cls-2" x1="265.76" y1="90.85" x2="265.94" y2="91.4"/>
    <line class="cls-2" x1="263.76" y1="90.68" x2="263.76" y2="90.68"/>
    <line class="cls-2" x1="263.93" y1="90.82" x2="263.93" y2="90.82"/>
    <line class="cls-2" x1="264.18" y1="91.91" x2="264.18" y2="91.91"/>
    <line class="cls-2" x1="264.2" y1="91.81" x2="264.2" y2="91.81"/>
    <path class="cls-2" d="M265.51,91.92q-.1-.02-.07-.12"/>
    <line class="cls-2" x1="266.12" y1="91.96" x2="266.02" y2="91.93"/>
    <line class="cls-2" x1="264.97" y1="90.76" x2="264.97" y2="90.76"/>
    <line class="cls-2" x1="263.68" y1="90.56" x2="263.76" y2="90.68"/>
    <path class="cls-2" d="M263.76,90.68l.1.02.07.12"/>
    <line class="cls-2" x1="264.49" y1="91.47" x2="264.62" y2="91.81"/>
    <line class="cls-2" x1="264.59" y1="91.9" x2="264.59" y2="91.9"/>
    <line class="cls-2" x1="265.49" y1="92.01" x2="265.51" y2="91.92"/>
    <line class="cls-2" x1="265.44" y1="91.8" x2="265.48" y2="91.6"/>
    <line class="cls-2" x1="265.48" y1="91.6" x2="266.11" y2="91.55"/>
    <line class="cls-2" x1="266.12" y1="91.96" x2="266.62" y2="91.98"/>
    <path class="cls-2" d="M266.65,91.88q-.1-.02-.17-.14"/>
    <line class="cls-2" x1="266.48" y1="91.74" x2="265.93" y2="90.58"/>
    <path class="cls-2" d="M265.27,91.65c-.02.1-.05.19-.17.27"/>
    <line class="cls-2" x1="265.21" y1="90.61" x2="264.7" y2="90.6"/>
    <line class="cls-2" x1="265.53" y1="91.41" x2="265.76" y2="90.85"/>
    <line class="cls-2" x1="261.62" y1="92.33" x2="261.62" y2="92.33"/>
    <line class="cls-2" x1="261.72" y1="94.09" x2="261.72" y2="94.09"/>
    <line class="cls-2" x1="262.17" y1="93.89" x2="262.17" y2="93.89"/>
    <line class="cls-2" x1="261.62" y1="92.33" x2="261.62" y2="92.33"/>
    <line class="cls-2" x1="262.25" y1="92.27" x2="261.62" y2="92.33"/>
    <path class="cls-2" d="M261.62,92.33c.1.02.19.05.15.24"/>
    <line class="cls-2" x1="261.86" y1="93.92" x2="261.86" y2="93.92"/>
    <line class="cls-2" x1="261.69" y1="94.19" x2="261.69" y2="94.19"/>
    <line class="cls-2" x1="261.69" y1="94.19" x2="262.32" y2="94.13"/>
    <line class="cls-2" x1="262.32" y1="94.13" x2="262.32" y2="94.13"/>
    <path class="cls-2" d="M262.18,92.56q-.07-.12.05-.19h0"/>
    <line class="cls-2" x1="262.23" y1="92.37" x2="262.25" y2="92.27"/>
    <line class="cls-2" x1="263.75" y1="92.01" x2="263.75" y2="92.01"/>
    <line class="cls-2" x1="265.1" y1="91.92" x2="265.03" y2="91.8"/>
    <path class="cls-2" d="M264.34,90.82c-.1-.02-.07-.12-.07-.12,0,0,.02-.1.12-.07"/>
    <line class="cls-2" x1="264.38" y1="90.62" x2="264.38" y2="90.62"/>
    <line class="cls-2" x1="264.38" y1="90.62" x2="263.68" y2="90.56"/>
    <line class="cls-2" x1="261.77" y1="92.57" x2="261.86" y2="93.92"/>
    <path class="cls-2" d="M261.86,93.92l-.02.1c-.02.1-.12.07-.12.07"/>
    <path class="cls-2" d="M262.32,94.13q-.1-.02-.07-.12t-.07-.12"/>
    <line class="cls-2" x1="262.17" y1="93.89" x2="262.18" y2="92.56"/>
    <line class="cls-2" x1="136.03" y1="122.56" x2="135.85" y2="119.85"/>
    <line class="cls-2" x1="136.03" y1="122.56" x2="132.34" y2="119.53"/>
    <line class="cls-2" x1="132.34" y1="119.53" x2="135.07" y2="119.26"/>
    <line class="cls-2" x1="135.85" y1="119.85" x2="135.07" y2="119.26"/>
    <line class="cls-2" x1="136.42" y1="119.17" x2="135.85" y2="119.85"/>
    <line class="cls-2" x1="135.67" y1="118.48" x2="135.07" y2="119.26"/>
    <line class="cls-2" x1="136.42" y1="119.17" x2="135.67" y2="118.48"/>
    <line class="cls-2" x1="139.05" y1="118.87" x2="136.03" y2="122.56"/>
    <line class="cls-2" x1="139.05" y1="118.87" x2="136.42" y2="119.17"/>
    <line class="cls-2" x1="135.37" y1="115.85" x2="132.34" y2="119.53"/>
    <line class="cls-2" x1="135.37" y1="115.85" x2="135.67" y2="118.48"/>
    <line class="cls-2" x1="139.05" y1="118.87" x2="135.37" y2="115.85"/>
    <path class="cls-2" d="M86.36,151.85c-.12.07-.07.29,0,.41"/>
    <line class="cls-2" x1="90.98" y1="146.19" x2="90.98" y2="146.19"/>
    <line class="cls-2" x1="91.3" y1="146.16" x2="91.3" y2="146.16"/>
    <line class="cls-2" x1="90.98" y1="146.19" x2="90.89" y2="146.17"/>
    <path class="cls-2" d="M86.37,152.26c-.17-.14-.12-.34-.1-.43"/>
    <line class="cls-2" x1="86.37" y1="152.26" x2="86.37" y2="152.26"/>
    <line class="cls-2" x1="86.26" y1="151.83" x2="86.36" y2="151.85"/>
    <line class="cls-2" x1="88.44" y1="153.88" x2="86.37" y2="152.26"/>
    <line class="cls-2" x1="91.3" y1="146.16" x2="93.37" y2="147.78"/>
    <line class="cls-2" x1="90.89" y1="146.17" x2="86.26" y2="151.83"/>
    <line class="cls-2" x1="265.71" y1="90.63" x2="265.27" y2="91.65"/>
    <line class="cls-2" x1="264.57" y1="92" x2="265.49" y2="92.01"/>
    <line class="cls-2" x1="264.49" y1="91.06" x2="264.34" y2="90.82"/>
    <path class="cls-2" d="M265.5,92.84l.1.02-.02.1"/>
    <line class="cls-2" x1="265.11" y1="92.74" x2="265.04" y2="93.03"/>
    <line class="cls-2" x1="265.57" y1="92.96" x2="265.56" y2="93.87"/>
    <line class="cls-2" x1="266.02" y1="94.09" x2="266.04" y2="93.99"/>
    <path class="cls-2" d="M266.04,93.99l-.1-.02s-.1-.02-.07-.12"/>
    <line class="cls-2" x1="266.37" y1="93.04" x2="266.37" y2="93.04"/>
    <line class="cls-2" x1="266.25" y1="92.71" x2="266.25" y2="92.71"/>
    <line class="cls-2" x1="265.87" y1="93.85" x2="265.89" y2="92.93"/>
    <path class="cls-2" d="M266.01,92.85l.19.05s.1.02.17.14"/>
    <path class="cls-2" d="M265.56,93.87l-.02.1s-.02.1-.12.07"/>
    <line class="cls-2" x1="265.42" y1="94.04" x2="265.42" y2="94.04"/>
    <line class="cls-2" x1="265.42" y1="94.04" x2="266.02" y2="94.09"/>
    <line class="cls-2" x1="266.37" y1="93.04" x2="266.25" y2="92.71"/>
    <path class="cls-2" d="M275.63,92.88c.02-.1.14-.17.26-.24"/>
    <path class="cls-2" d="M275.77,92.71h0c-.1-.02-.12.07-.14.17"/>
    <line class="cls-2" x1="263.93" y1="90.82" x2="264.32" y2="91.33"/>
    <line class="cls-2" x1="264.66" y1="91.2" x2="264.97" y2="90.76"/>
    <line class="cls-2" x1="265.04" y1="93.03" x2="265.04" y2="93.03"/>
    <path class="cls-2" d="M259.23,92.06l.1.02h0"/>
    <line class="cls-2" x1="259.33" y1="90.76" x2="259.33" y2="90.76"/>
    <polyline class="cls-2" points="259.33 90.76 259.33 90.76 259.33 90.76"/>
    <path class="cls-2" d="M256.98,92.45l.19.05s.12-.07.14-.17"/>
    <path class="cls-2" d="M92.27,152.43c.02-.1.12-.07.22-.05h0"/>
    <line class="cls-2" x1="93.25" y1="147.85" x2="100.72" y2="153.93"/>
    <line class="cls-2" x1="262.76" y1="90.55" x2="262.64" y2="90.21"/>
    <line class="cls-2" x1="226.52" y1="49.88" x2="224.15" y2="49.94"/>
    <line class="cls-2" x1="236.07" y1="49.79" x2="233.7" y2="49.85"/>
    <line class="cls-2" x1="148.16" y1="107.71" x2="147.88" y2="104.98"/>
    <line class="cls-2" x1="148.16" y1="107.71" x2="144.47" y2="104.69"/>
    <line class="cls-2" x1="144.47" y1="104.69" x2="147.1" y2="104.39"/>
    <line class="cls-2" x1="147.88" y1="104.98" x2="147.1" y2="104.39"/>
    <line class="cls-2" x1="148.45" y1="104.3" x2="147.88" y2="104.98"/>
    <line class="cls-2" x1="147.79" y1="103.63" x2="147.1" y2="104.39"/>
    <line class="cls-2" x1="148.45" y1="104.3" x2="147.79" y2="103.63"/>
    <line class="cls-2" x1="151.18" y1="104.03" x2="148.16" y2="107.71"/>
    <line class="cls-2" x1="151.18" y1="104.03" x2="148.45" y2="104.3"/>
    <line class="cls-2" x1="147.5" y1="101" x2="144.47" y2="104.69"/>
    <line class="cls-2" x1="147.5" y1="101" x2="147.79" y2="103.63"/>
    <line class="cls-2" x1="151.18" y1="104.03" x2="147.5" y2="101"/>
    <line class="cls-2" x1="133.31" y1="95.59" x2="133.01" y2="92.95"/>
    <line class="cls-2" x1="133.31" y1="95.59" x2="129.62" y2="92.56"/>
    <line class="cls-2" x1="129.62" y1="92.56" x2="132.23" y2="92.36"/>
    <line class="cls-2" x1="133.01" y1="92.95" x2="132.23" y2="92.36"/>
    <line class="cls-2" x1="133.61" y1="92.17" x2="133.01" y2="92.95"/>
    <line class="cls-2" x1="132.92" y1="91.6" x2="132.23" y2="92.36"/>
    <line class="cls-2" x1="133.61" y1="92.17" x2="132.92" y2="91.6"/>
    <line class="cls-2" x1="136.34" y1="91.9" x2="133.31" y2="95.59"/>
    <line class="cls-2" x1="136.34" y1="91.9" x2="133.61" y2="92.17"/>
    <line class="cls-2" x1="132.65" y1="88.87" x2="129.62" y2="92.56"/>
    <line class="cls-2" x1="132.65" y1="88.87" x2="132.92" y2="91.6"/>
    <line class="cls-2" x1="136.34" y1="91.9" x2="132.65" y2="88.87"/>
    <line class="cls-2" x1="121.18" y1="110.43" x2="120.98" y2="107.82"/>
    <line class="cls-2" x1="121.18" y1="110.43" x2="117.47" y2="107.5"/>
    <line class="cls-2" x1="117.47" y1="107.5" x2="120.2" y2="107.23"/>
    <line class="cls-2" x1="120.98" y1="107.82" x2="120.2" y2="107.23"/>
    <line class="cls-2" x1="121.58" y1="107.04" x2="120.98" y2="107.82"/>
    <line class="cls-2" x1="120.8" y1="106.45" x2="120.2" y2="107.23"/>
    <line class="cls-2" x1="121.58" y1="107.04" x2="120.8" y2="106.45"/>
    <line class="cls-2" x1="124.21" y1="106.74" x2="121.18" y2="110.43"/>
    <line class="cls-2" x1="124.21" y1="106.74" x2="121.58" y2="107.04"/>
    <line class="cls-2" x1="120.52" y1="103.72" x2="117.47" y2="107.5"/>
    <line class="cls-2" x1="120.52" y1="103.72" x2="120.8" y2="106.45"/>
    <line class="cls-2" x1="124.21" y1="106.74" x2="120.52" y2="103.72"/>
    <line class="cls-2" x1="240.9" y1="49.71" x2="238.53" y2="49.76"/>
    <line class="cls-2" x1="274.21" y1="49.21" x2="271.74" y2="49.24"/>
    <line class="cls-2" x1="254.99" y1="49.47" x2="252.62" y2="49.52"/>
    <line class="cls-2" x1="412.53" y1="421.72" x2="411.82" y2="372.9"/>
    <line class="cls-2" x1="411.82" y1="372.9" x2="460.55" y2="372.17"/>
    <line class="cls-2" x1="97" y1="140.24" x2="96.83" y2="137.54"/>
    <line class="cls-2" x1="97" y1="140.24" x2="93.32" y2="137.22"/>
    <line class="cls-2" x1="93.32" y1="137.22" x2="96.05" y2="136.94"/>
    <line class="cls-2" x1="96.83" y1="137.54" x2="96.05" y2="136.94"/>
    <line class="cls-2" x1="97.42" y1="136.75" x2="96.83" y2="137.54"/>
    <line class="cls-2" x1="96.64" y1="136.16" x2="96.05" y2="136.94"/>
    <line class="cls-2" x1="97.42" y1="136.75" x2="96.64" y2="136.16"/>
    <line class="cls-2" x1="100.05" y1="136.46" x2="97" y2="140.24"/>
    <line class="cls-2" x1="100.05" y1="136.46" x2="97.42" y2="136.75"/>
    <line class="cls-2" x1="96.37" y1="133.43" x2="93.32" y2="137.22"/>
    <line class="cls-2" x1="96.37" y1="133.43" x2="96.64" y2="136.16"/>
    <line class="cls-2" x1="100.05" y1="136.46" x2="96.37" y2="133.43"/>
    <line class="cls-2" x1="263.75" y1="92.01" x2="264.26" y2="92.03"/>
    <path class="cls-2" d="M266.16,91.76c-.02.1-.05.19-.14.17"/>
    <line class="cls-2" x1="266.02" y1="91.93" x2="266.12" y2="91.96"/>
    <path class="cls-2" d="M264.97,90.76c.02-.1.12-.07.24-.15"/>
    <path class="cls-2" d="M265.04,93.03l.24-.15s.1.02.22-.05"/>
    <path class="cls-2" d="M265.89,92.93h0q.02-.1.12-.07"/>
    <line class="cls-2" x1="317.86" y1="471.89" x2="317.86" y2="471.89"/>
    <line class="cls-2" x1="293.8" y1="472.23" x2="303.79" y2="472.04"/>
    <line class="cls-2" x1="249.88" y1="472.98" x2="249.88" y2="472.98"/>
    <line class="cls-2" x1="291.85" y1="472.28" x2="291.85" y2="472.28"/>
    <line class="cls-2" x1="341.71" y1="272.06" x2="341.8" y2="272.08"/>
    <line class="cls-2" x1="291.85" y1="472.28" x2="291.85" y2="472.28"/>
    <line class="cls-2" x1="291.85" y1="472.28" x2="293.8" y2="472.23"/>
    <line class="cls-2" x1="240.24" y1="473.04" x2="238.28" y2="473.09"/>
    <line class="cls-2" x1="270.25" y1="93.55" x2="269.75" y2="92.61"/>
    <line class="cls-2" x1="264.32" y1="91.33" x2="264.01" y2="91.77"/>
    <path class="cls-2" d="M264.01,91.77c-.12.07-.14.17-.26.24"/>
    <line class="cls-2" x1="264.2" y1="91.81" x2="264.49" y2="91.47"/>
    <line class="cls-2" x1="265.93" y1="90.58" x2="265.71" y2="90.63"/>
    <line class="cls-2" x1="266.25" y1="92.71" x2="265.11" y2="92.74"/>
    <line class="cls-2" x1="323.51" y1="471.8" x2="323.51" y2="471.8"/>
    <path class="cls-2" d="M268.53,511.41c-.04,1.02-.05,1.93.03,2.88"/>
    <path class="cls-2" d="M270.46,511.46c-.01.92-.03,1.84-.04,2.76"/>
    <path class="cls-2" d="M280.44,511.27c-.01.92.07,1.86.06,2.78"/>
    <path class="cls-2" d="M282.4,511.22c-.01.92-.03,1.84.06,2.78"/>
    <path class="cls-2" d="M304.4,510.91c-.01.92.07,1.86.06,2.78"/>
    <line class="cls-2" x1="281.79" y1="472.35" x2="291.85" y2="472.28"/>
    <line class="cls-2" x1="269.85" y1="472.59" x2="279.93" y2="472.42"/>
    <line class="cls-2" x1="305.74" y1="471.99" x2="317.66" y2="471.85"/>
    <line class="cls-2" x1="303.79" y1="472.04" x2="305.74" y2="471.99"/>
    <path class="cls-2" d="M292.48,511.05c-.04,1.02-.05,1.93.03,2.88"/>
    <line class="cls-2" x1="269.85" y1="472.59" x2="269.85" y2="472.59"/>
    <line class="cls-2" x1="270.65" y1="93.14" x2="270.71" y2="93.76"/>
    <line class="cls-2" x1="222.38" y1="91.93" x2="222.38" y2="91.93"/>
    <line class="cls-2" x1="222.07" y1="70.34" x2="222.07" y2="70.34"/>
    <line class="cls-2" x1="222.02" y1="67.97" x2="222.07" y2="70.34"/>
    <line class="cls-2" x1="222.07" y1="70.34" x2="222.02" y2="67.97"/>
    <line class="cls-2" x1="222.3" y1="87.09" x2="222.35" y2="89.46"/>
    <line class="cls-2" x1="222.43" y1="94.3" x2="222.38" y2="91.93"/>
    <line class="cls-2" x1="222.43" y1="94.3" x2="222.43" y2="94.3"/>
    <line class="cls-2" x1="222.38" y1="91.93" x2="222.43" y2="94.3"/>
    <path class="cls-2" d="M224.6,69.2c-.05.19.1.43.27.58s.34.29.66.26c.19.05.43-.1.58-.27.24-.15.29-.34.26-.66"/>
    <path class="cls-2" d="M226.36,69.11c.05-.19-.1-.43-.27-.58-.15-.24-.34-.29-.66-.26-.19-.05-.43.1-.58.27-.24.15-.29.34-.26.66"/>
    <line class="cls-2" x1="411.72" y1="372.87" x2="411.82" y2="372.9"/>
    <line class="cls-2" x1="460.55" y1="372.17" x2="460.55" y2="372.17"/>
    <line class="cls-2" x1="411.72" y1="372.87" x2="460.55" y2="372.17"/>
    <line class="cls-2" x1="460.55" y1="372.17" x2="460.55" y2="372.17"/>
    <line class="cls-2" x1="412.43" y1="421.7" x2="411.72" y2="372.87"/>
    <line class="cls-2" x1="412.43" y1="421.7" x2="412.53" y2="421.72"/>
    <line class="cls-2" x1="460.55" y1="372.17" x2="461.38" y2="420.92"/>
    <line class="cls-2" x1="461.38" y1="420.92" x2="412.53" y2="421.72"/>
    <path class="cls-2" d="M279.32,50.12c-.03-.31-.08-.53-.35-.7"/>
    <line class="cls-2" x1="228.86" y1="49.93" x2="228.96" y2="49.95"/>
    <line class="cls-2" x1="228.86" y1="49.93" x2="226.52" y2="49.88"/>
    <line class="cls-2" x1="233.7" y1="49.85" x2="231.33" y2="49.9"/>
    <line class="cls-2" x1="238.53" y1="49.76" x2="238.53" y2="49.76"/>
    <line class="cls-2" x1="238.53" y1="49.76" x2="236.07" y2="49.79"/>
    <line class="cls-2" x1="278.22" y1="49.14" x2="274.21" y2="49.21"/>
    <line class="cls-2" x1="278.22" y1="49.14" x2="278.32" y2="49.16"/>
    <path class="cls-2" d="M279.74,96.73c.24-.15.31-.44.26-.66"/>
    <line class="cls-2" x1="271.74" y1="49.24" x2="271.74" y2="49.24"/>
    <line class="cls-2" x1="271.74" y1="49.24" x2="271.74" y2="49.24"/>
    <line class="cls-2" x1="267.01" y1="49.35" x2="267.01" y2="49.35"/>
    <line class="cls-2" x1="267.01" y1="49.35" x2="267.01" y2="49.35"/>
    <line class="cls-2" x1="262.19" y1="49.33" x2="262.19" y2="49.33"/>
    <line class="cls-2" x1="262.19" y1="49.33" x2="262.17" y2="49.43"/>
    <line class="cls-2" x1="257.46" y1="49.44" x2="257.46" y2="49.44"/>
    <line class="cls-2" x1="257.46" y1="49.44" x2="257.46" y2="49.44"/>
    <line class="cls-2" x1="252.62" y1="49.52" x2="252.62" y2="49.52"/>
    <line class="cls-2" x1="238.53" y1="49.76" x2="238.53" y2="49.76"/>
    <line class="cls-2" x1="238.53" y1="49.76" x2="238.53" y2="49.76"/>
    <line class="cls-2" x1="233.7" y1="49.85" x2="233.7" y2="49.85"/>
    <line class="cls-2" x1="233.7" y1="49.85" x2="233.7" y2="49.85"/>
    <line class="cls-2" x1="228.96" y1="49.95" x2="228.86" y2="49.93"/>
    <line class="cls-2" x1="224.15" y1="49.94" x2="224.15" y2="49.94"/>
    <line class="cls-2" x1="224.15" y1="49.94" x2="224.12" y2="50.03"/>
    <line class="cls-2" x1="262.19" y1="49.33" x2="259.83" y2="49.39"/>
    <line class="cls-2" x1="252.62" y1="49.52" x2="240.9" y2="49.71"/>
    <line class="cls-2" x1="224.15" y1="49.94" x2="222.7" y2="50"/>
    <line class="cls-2" x1="222.8" y1="50.03" x2="222.7" y2="50"/>
    <path class="cls-2" d="M222.61,97c-.05.19.1.43.27.58"/>
    <path class="cls-2" d="M222.7,50c-.31.03-.43.1-.67.25"/>
    <path class="cls-2" d="M222.12,50.27c-.17.27-.31.44-.26.66"/>
    <line class="cls-2" x1="223.52" y1="97.93" x2="279.06" y2="96.98"/>
    <line class="cls-2" x1="279.06" y1="96.98" x2="278.97" y2="96.95"/>
    <line class="cls-2" x1="222.3" y1="87.09" x2="222.3" y2="87.09"/>
    <line class="cls-2" x1="222.25" y1="84.72" x2="222.25" y2="84.72"/>
    <line class="cls-2" x1="222.29" y1="82.38" x2="222.25" y2="84.72"/>
    <line class="cls-2" x1="222.19" y1="82.36" x2="222.29" y2="82.38"/>
    <line class="cls-2" x1="222.21" y1="77.54" x2="222.26" y2="79.91"/>
    <line class="cls-2" x1="222.21" y1="77.54" x2="222.21" y2="77.54"/>
    <line class="cls-2" x1="222.15" y1="75.18" x2="222.15" y2="75.18"/>
    <line class="cls-2" x1="222.13" y1="72.71" x2="222.15" y2="75.18"/>
    <line class="cls-2" x1="222.13" y1="72.71" x2="222.13" y2="72.71"/>
    <line class="cls-2" x1="249.77" y1="97.4" x2="252.21" y2="97.47"/>
    <line class="cls-2" x1="264.66" y1="97.25" x2="267.03" y2="97.19"/>
    <line class="cls-2" x1="221.9" y1="60.26" x2="222.02" y2="67.97"/>
    <line class="cls-2" x1="222.07" y1="70.34" x2="222.13" y2="72.71"/>
    <line class="cls-2" x1="222.15" y1="75.18" x2="222.21" y2="77.54"/>
    <line class="cls-2" x1="221.8" y1="55.53" x2="221.8" y2="55.53"/>
    <line class="cls-2" x1="221.74" y1="53.16" x2="221.8" y2="55.53"/>
    <line class="cls-2" x1="221.74" y1="53.16" x2="221.74" y2="53.16"/>
    <line class="cls-2" x1="221.74" y1="51" x2="221.74" y2="53.16"/>
    <path class="cls-2" d="M222.02,50.25c-.17.27-.31.44-.28.75"/>
    <line class="cls-2" x1="221.74" y1="51" x2="221.84" y2="51.03"/>
    <line class="cls-2" x1="222.61" y1="97" x2="222.61" y2="97"/>
    <line class="cls-2" x1="222.61" y1="97" x2="222.51" y2="96.98"/>
    <line class="cls-2" x1="222.51" y1="96.98" x2="222.43" y2="94.3"/>
    <line class="cls-2" x1="222.88" y1="97.58" x2="222.79" y2="97.56"/>
    <path class="cls-2" d="M222.51,96.98c-.05.19.1.43.27.58"/>
    <path class="cls-2" d="M278.53,49.11c-.1-.02-.22.05-.31.03"/>
    <path class="cls-2" d="M279.16,97c.31-.03.43-.1.58-.27"/>
    <line class="cls-2" x1="259.83" y1="49.39" x2="259.83" y2="49.39"/>
    <line class="cls-2" x1="236.07" y1="49.79" x2="236.07" y2="49.79"/>
    <line class="cls-2" x1="279.99" y1="96.07" x2="279.32" y2="50.12"/>
    <line class="cls-2" x1="221.85" y1="57.89" x2="221.9" y2="60.26"/>
    <path class="cls-2" d="M262.22,91.96s-.1-.02-.07-.12"/>
    <line class="cls-2" x1="262.64" y1="90.21" x2="262.64" y2="90.21"/>
    <line class="cls-2" x1="261.12" y1="90.57" x2="261.12" y2="90.57"/>
    <path class="cls-2" d="M261.67,90.39l.1.02-.02.1"/>
    <path class="cls-2" d="M261.74,91.84c.1.02.07.12-.02.1l-.02.1"/>
    <line class="cls-2" x1="261.69" y1="92.03" x2="261.69" y2="92.03"/>
    <line class="cls-2" x1="262.2" y1="92.05" x2="262.22" y2="91.96"/>
    <line class="cls-2" x1="262.15" y1="91.84" x2="262.16" y2="90.51"/>
    <line class="cls-2" x1="261.69" y1="92.03" x2="261.69" y2="92.03"/>
    <line class="cls-2" x1="262.76" y1="90.55" x2="262.76" y2="90.55"/>
    <line class="cls-2" x1="261.21" y1="90.18" x2="261.21" y2="90.18"/>
    <line class="cls-2" x1="261.21" y1="90.18" x2="261.12" y2="90.57"/>
    <line class="cls-2" x1="261.75" y1="90.51" x2="261.74" y2="91.84"/>
    <line class="cls-2" x1="261.69" y1="92.03" x2="262.2" y2="92.05"/>
    <path class="cls-2" d="M262.16,90.51c-.1-.02.02-.1.02-.1h0"/>
    <path class="cls-2" d="M261.12,90.57c.02-.1.12-.07.24-.15,0,0,.1.02.31-.03"/>
    <line class="cls-2" x1="254.99" y1="49.47" x2="254.99" y2="49.47"/>
    <line class="cls-2" x1="267.01" y1="49.35" x2="264.56" y2="49.28"/>
    <path class="cls-2" d="M222.7,50c-.22.05-.43.1-.58.27"/>
    <path class="cls-2" d="M262.18,90.41c.19.05.31-.03.41,0,0,0,.1.02.17.14"/>
    <line class="cls-2" x1="222.02" y1="67.97" x2="222.02" y2="67.97"/>
    <line class="cls-2" x1="222.35" y1="89.46" x2="222.35" y2="89.46"/>
    <line class="cls-2" x1="236.07" y1="49.79" x2="236.07" y2="49.79"/>
    <line class="cls-2" x1="269.37" y1="49.3" x2="269.37" y2="49.3"/>
    <line class="cls-2" x1="257.46" y1="49.44" x2="254.99" y2="49.47"/>
    <line class="cls-2" x1="231.33" y1="49.9" x2="228.96" y2="49.95"/>
    <line class="cls-2" x1="222.38" y1="91.93" x2="222.35" y2="89.46"/>
    <path class="cls-2" d="M93.61,153.26l-.02.1-.1-.02-.02.1-.02.1h0l-.02.1-.02.1h0l-.02.1h0l-.02.1h0q-.02.1.07.12h0"/>
    <path class="cls-2" d="M93.42,154.04l.1.02-.02.1.1.02h0l.12-.07h0"/>
    <path class="cls-2" d="M96.72,154.82l-.07-.12h0l-.1-.02h0c-.1-.02-.12.07-.12.07h0l-.1-.02h0q-.02.1-.12.07h0l-.02.1-.1-.02-.02.1s-.02.1-.12.07l-.02.1"/>
    <path class="cls-2" d="M95.93,155.15l-.02.1-.1-.02-.02.1-.02.1h0q-.02.1-.12.07l-.02.1h0l-.02.1.1.02-.02.1h0l-.02.1.1.02h0"/>
    <path class="cls-2" d="M95.74,155.92l.1.02-.02.1.1.02h0l.02-.1.1.02h0"/>
    <path class="cls-2" d="M96.54,155.6c.14-.17.17-.27.29-.34.05-.19,0-.41-.1-.43"/>
    <path class="cls-2" d="M94.99,153.9l-.02.1h0l-.02.1-.1-.02h0l-.02.1.1.02h0l-.02.1h0l-.02.1.1.02h0l.07.12"/>
    <path class="cls-2" d="M95.05,154.53h0l.1.02h0l.1.02h0l.1.02h0"/>
    <path class="cls-2" d="M95.52,153.82h0l-.1-.02h0l-.1-.02h0l-.1-.02h0q-.1-.02-.12.07h0l-.1-.02-.02.1h0"/>
    <path class="cls-2" d="M95.58,154.45c.05-.19.17-.27.09-.39"/>
    <line class="cls-2" x1="95.93" y1="159.86" x2="95.84" y2="159.84"/>
    <path class="cls-2" d="M94.54,152.77c.07.12.17.14.15.24.07.12.05.22.03.31-.05.19-.09.39-.24.56"/>
    <path class="cls-2" d="M93.28,154.21c-.1-.02-.07-.12-.15-.24.02-.1-.05-.22-.03-.31.05-.19.19-.36.33-.54"/>
    <path class="cls-2" d="M94.48,153.88c-.26.24-.38.32-.53.49-.22.05-.41,0-.68-.16"/>
    <path class="cls-2" d="M96.86,154.65c.07.12.17.14.15.24.07.12.05.22.03.31-.05.19-.09.39-.33.54"/>
    <path class="cls-2" d="M95.6,156.09c-.1-.02-.17-.14-.15-.24-.07-.12-.05-.22-.03-.31.05-.19.19-.36.33-.54"/>
    <path class="cls-2" d="M95.94,154.23c-.05.19-.19.36-.33.54"/>
    <path class="cls-2" d="M95.18,153.54c.22-.05.29.07.48.12"/>
    <path class="cls-2" d="M94.82,153.76c.02-.1.12-.07.14-.17.1.02.12-.07.22-.05"/>
    <path class="cls-2" d="M94.83,154.58l-.22-.36c.02-.1.07-.29.21-.46"/>
    <path class="cls-2" d="M94.52,155.02c.19.05.29.07.51.02.12-.07.14-.17.29-.34"/>
    <path class="cls-2" d="M94.52,154.61q-.12.07-.05.19t.05.22"/>
    <path class="cls-2" d="M94.38,155.19c-.07-.12-.15-.24-.12-.34"/>
    <path class="cls-2" d="M93.26,152.57c.14-.17.17-.27.17-.27.02-.1-.05-.22-.12-.34"/>
    <path class="cls-2" d="M93.57,152.13c.17.14.12.34-.04.6"/>
    <path class="cls-2" d="M93.42,151.89c.1.02.17.14.15.24"/>
    <path class="cls-2" d="M92.48,152.38h0c-.1-.02-.07-.12-.07-.12"/>
    <path class="cls-2" d="M92.03,152.58c.02-.1.14-.17.14-.17l.1.02"/>
    <path class="cls-2" d="M92.16,153.33c-.17-.14-.24-.26-.22-.36-.07-.12-.03-.31.09-.39"/>
    <path class="cls-2" d="M93,153.22l-.36.22"/>
    <path class="cls-2" d="M92.3,153.16l.29.07h0"/>
    <path class="cls-2" d="M92.2,152.73l-.05.19"/>
    <path class="cls-2" d="M92.73,152.65l-.19-.05c-.1-.02-.22.05-.34.12"/>
    <path class="cls-2" d="M93.71,154.11q.1.02.22-.05c.02-.1.14-.17.29-.34"/>
    <path class="cls-2" d="M96.03,155.99q.1.02.22-.05c.02-.1.14-.17.29-.34"/>
    <path class="cls-2" d="M95.67,154.06h0l.02-.1-.1-.02h0l.02-.1h0l-.1-.02"/>
    <path class="cls-2" d="M95.34,154.6l.24-.15"/>
    <path class="cls-2" d="M94.25,154.85l-.1-.02.02-.1h0l.02-.1h0l.02-.1h0l.02-.1.1.02"/>
    <path class="cls-2" d="M92.41,152.26l-.07-.12c.02-.1.05-.19.17-.27"/>
    <line class="cls-2" x1="92.41" y1="152.26" x2="92.41" y2="152.26"/>
    <path class="cls-2" d="M92.64,153.45h0c-.22.05-.31.03-.48-.12"/>
    <path class="cls-2" d="M92.15,152.92h0l.15.24"/>
    <path class="cls-2" d="M95.67,153.65c.07.12.15.24.24.26-.02.1-.05.19.03.31"/>
    <path class="cls-2" d="M92.76,151.63l.19.05c.12-.07.29.07.46.21"/>
    <path class="cls-2" d="M92.5,151.88c.12-.07.14-.17.26-.24"/>
    <path class="cls-2" d="M94.4,152.94l.02-.1-.1-.02h0l-.1-.02h0l-.12.07h0l-.1-.02h0l-.02.1-.1-.02-.02.1s-.1-.02-.12.07h0s-.02.1-.12.07l-.02.1"/>
    <path class="cls-2" d="M95.61,154.76c-.17.27-.41.42-.53.49-.22.05-.43.1-.7-.06"/>
    <path class="cls-2" d="M258.63,90.28l-.19-.05"/>
    <line class="cls-2" x1="257.32" y1="92.33" x2="257.32" y2="92.33"/>
    <line class="cls-2" x1="260.55" y1="91.66" x2="260.55" y2="91.25"/>
    <line class="cls-2" x1="260.55" y1="91.25" x2="260.45" y2="91.23"/>
    <line class="cls-2" x1="259.43" y1="90.78" x2="259.62" y2="90.83"/>
    <line class="cls-2" x1="259.62" y1="90.83" x2="259.58" y2="91.02"/>
    <line class="cls-2" x1="259.51" y1="91.31" x2="259.19" y2="91.34"/>
    <line class="cls-2" x1="259.19" y1="91.34" x2="259.12" y2="91.63"/>
    <line class="cls-2" x1="259.13" y1="92.04" x2="259.13" y2="92.04"/>
    <line class="cls-2" x1="258.43" y1="90.24" x2="258.31" y2="90.31"/>
    <line class="cls-2" x1="258.3" y1="89.49" x2="258.3" y2="89.49"/>
    <line class="cls-2" x1="259.24" y1="93.3" x2="259.24" y2="93.3"/>
    <line class="cls-2" x1="259.35" y1="90.25" x2="259.35" y2="90.25"/>
    <line class="cls-2" x1="259.12" y1="91.63" x2="259.12" y2="91.63"/>
    <line class="cls-2" x1="259.35" y1="92.4" x2="259.35" y2="92.4"/>
    <line class="cls-2" x1="258.31" y1="90.31" x2="258.3" y2="89.49"/>
    <line class="cls-2" x1="257.29" y1="89.45" x2="257.31" y2="91.1"/>
    <line class="cls-2" x1="257.31" y1="91.1" x2="256.07" y2="91.11"/>
    <line class="cls-2" x1="256.07" y1="91.11" x2="256.15" y2="91.23"/>
    <path class="cls-2" d="M256.15,91.23c-.02.1.05.22.05.22"/>
    <path class="cls-2" d="M256.2,91.45c.07.12.17.14.24.26"/>
    <path class="cls-2" d="M256.44,91.71c.1.02.07.12.17.14l.15.24"/>
    <path class="cls-2" d="M257.56,92.18c.1.02.19.05.27.17l.15.24"/>
    <path class="cls-2" d="M258.47,93.52c.19.05.36.19.56.24"/>
    <path class="cls-2" d="M259.33,92.91c.19-.36.55-.59,1.2-.74"/>
    <path class="cls-2" d="M260.53,92.17c.02-.1-.05-.22.02-.51"/>
    <path class="cls-2" d="M260.45,91.23q-.07-.12-.17-.14"/>
    <path class="cls-2" d="M260.28,91.08c-.05-.22-.03-.31.02-.51"/>
    <line class="cls-2" x1="260.3" y1="90.58" x2="260.27" y2="90.26"/>
    <line class="cls-2" x1="260.27" y1="90.26" x2="259.35" y2="90.25"/>
    <polyline class="cls-2" points="259.13 92.04 259.13 92.04 259.23 92.06"/>
    <line class="cls-2" x1="259.35" y1="92.4" x2="259.31" y2="92.6"/>
    <line class="cls-2" x1="259.31" y1="92.6" x2="258.99" y2="92.62"/>
    <path class="cls-2" d="M258.99,92.62c-.19-.05-.31.03-.41,0"/>
    <line class="cls-2" x1="258.37" y1="91.35" x2="258.28" y2="91.33"/>
    <path class="cls-2" d="M258.28,91.33l-.19-.05"/>
    <path class="cls-2" d="M258.08,91.28l.05-.19"/>
    <line class="cls-2" x1="258.2" y1="90.8" x2="258.39" y2="90.84"/>
    <line class="cls-2" x1="258.39" y1="90.84" x2="258.51" y2="90.77"/>
    <path class="cls-2" d="M258.51,90.77l.05-.19"/>
    <line class="cls-2" x1="258.3" y1="89.49" x2="257.29" y2="89.45"/>
    <path class="cls-2" d="M256.76,92.09c-.02.1.05.22.05.22q.07.12.17.14"/>
    <polyline class="cls-2" points="257.18 92.5 257.18 92.5 257.18 92.5"/>
    <path class="cls-2" d="M259.24,93.3l.09-.39"/>
    <line class="cls-2" x1="259.35" y1="90.25" x2="259.4" y2="90.47"/>
    <path class="cls-2" d="M259.4,90.47l-.07.29"/>
    <line class="cls-2" x1="259.58" y1="91.02" x2="259.51" y2="91.31"/>
    <line class="cls-2" x1="258.35" y1="91.86" x2="258.37" y2="91.35"/>
    <path class="cls-2" d="M258.56,90.57l.07-.29"/>
    <path class="cls-2" d="M96.71,155.74c-.17.27-.29.34-.43.51-.22.05-.41,0-.68-.16"/>
    <path class="cls-2" d="M95.32,154.69c-.02.1-.12.07-.22.05s-.19-.05-.27-.17"/>
    <path class="cls-2" d="M258.13,91.09l.07-.29"/>
    <path class="cls-2" d="M264.06,94.13l.02-.1"/>
    <path class="cls-2" d="M264.47,94.13c.22-.05.31-.03.43-.1s.24-.15.19-.36"/>
    <line class="cls-2" x1="263.96" y1="93.7" x2="263.86" y2="93.68"/>
    <line class="cls-2" x1="263.86" y1="93.68" x2="263.86" y2="93.68"/>
    <path class="cls-2" d="M264.18,94.06l.29.07"/>
    <path class="cls-2" d="M264.52,93.93c-.31.03-.48-.12-.56-.24"/>
    <line class="cls-2" x1="264.94" y1="93.01" x2="264.94" y2="93.01"/>
    <line class="cls-2" x1="264.94" y1="93.01" x2="264.92" y2="92.7"/>
    <path class="cls-2" d="M264.8,92.77l-.1-.02-.19-.05"/>
    <line class="cls-2" x1="275.47" y1="93.97" x2="275.5" y2="93.88"/>
    <path class="cls-2" d="M275.89,92.64c.19.05.39.09.46.21"/>
    <line class="cls-2" x1="276.35" y1="92.85" x2="276.35" y2="92.85"/>
    <line class="cls-2" x1="276.35" y1="92.85" x2="276.33" y2="92.54"/>
    <path class="cls-2" d="M276.33,92.54l-.1-.02"/>
    <line class="cls-2" x1="276.23" y1="92.51" x2="276.23" y2="92.51"/>
    <line class="cls-2" x1="275.37" y1="93.54" x2="275.27" y2="93.52"/>
    <line class="cls-2" x1="275.27" y1="93.52" x2="275.47" y2="93.97"/>
    <path class="cls-2" d="M275.5,93.88c.19.05.29.07.41,0"/>
    <path class="cls-2" d="M275.93,93.77c-.22.05-.48-.12-.56-.24"/>
    <path class="cls-2" d="M264.22,93.04c.02-.1.14-.17.34-.12"/>
    <line class="cls-2" x1="264.92" y1="92.7" x2="264.82" y2="92.67"/>
    <path class="cls-2" d="M264.51,92.7c-.1-.02-.31.03-.34.12-.12.07-.24.15-.17.27"/>
    <line class="cls-2" x1="275.5" y1="93.88" x2="275.5" y2="93.88"/>
    <path class="cls-2" d="M276.23,92.51s-.12.07-.1-.02c-.1-.02-.12.07-.22.05"/>
    <path class="cls-2" d="M275.91,92.54c-.19-.05-.31.03-.43.1s-.14.17-.17.27"/>
    <path class="cls-2" d="M275.31,92.91c.07.12.05.22.12.34l.29.07.19.05.1.02c.1.02.17.14.17.14"/>
    <path class="cls-2" d="M266.84,91.92l.39.09"/>
    <path class="cls-2" d="M267.23,92.02c.22-.05.34-.12.46-.2s.14-.17.17-.27"/>
    <line class="cls-2" x1="266.97" y1="90.93" x2="266.97" y2="90.93"/>
    <line class="cls-2" x1="267.7" y1="90.9" x2="267.57" y2="90.56"/>
    <line class="cls-2" x1="267.57" y1="90.56" x2="267.57" y2="90.56"/>
    <path class="cls-2" d="M267.57,90.56h0l-.02.1"/>
    <path class="cls-2" d="M267.55,90.66c-.07-.12-.17-.14-.39-.09"/>
    <line class="cls-2" x1="266.62" y1="91.56" x2="266.62" y2="91.56"/>
    <path class="cls-2" d="M267.85,91.55c-.07-.12-.05-.22-.12-.34l-.29-.07-.29-.07q-.1-.02-.17-.14h0"/>
    <path class="cls-2" d="M267.24,90.69c.19.05.39.09.46.21"/>
    <line class="cls-2" x1="267.7" y1="90.9" x2="267.7" y2="90.9"/>
    <path class="cls-2" d="M267.16,90.57c-.1-.02-.22.05-.34.12s-.14.17-.17.27"/>
    <path class="cls-2" d="M266.66,90.96c.07.12.05.22.15.24.07.12.17.14.27.17l.19.05.1.02c.1.02.17.14.17.14"/>
    <path class="cls-2" d="M267.18,91.8c-.19-.05-.39-.09-.56-.24"/>
    <line class="cls-2" x1="266.97" y1="90.93" x2="266.97" y2="90.93"/>
    <path class="cls-2" d="M266.97,90.93c.02-.1.05-.19.26-.24"/>
    <path class="cls-2" d="M276.17,93.63l.02-.1"/>
    <path class="cls-2" d="M264.09,94.04h0l.1.02"/>
    <path class="cls-2" d="M265.1,93.66c.02-.1-.05-.22-.15-.24.02-.1-.17-.14-.27-.17l-.29-.07c-.1-.02-.19-.05-.17-.14"/>
    <path class="cls-2" d="M264.56,92.92c.12-.07.31-.03.39.09"/>
    <path class="cls-2" d="M276.19,93.53c-.05.19-.17.27-.26.24"/>
    <path class="cls-2" d="M267.54,91.58c-.05.19-.14.17-.36.22"/>
    <path class="cls-2" d="M92.59,153.23c.1.02.22-.05.24-.15"/>
    <line class="cls-2" x1="264.76" y1="93.79" x2="264.76" y2="93.79"/>
    <path class="cls-2" d="M94.22,153.72c.14-.17.26-.24.29-.34.05-.19,0-.41-.1-.43"/>
    <path class="cls-2" d="M93.3,151.96l-.29-.07c-.1-.02-.22.05-.34.12"/>
    <path class="cls-2" d="M92.67,152.02h0l-.02.1h0l-.02.1h0l-.02.1h0l.1.02h0l-.02.1h0l.1.02h0c-.02.1.07.12.07.12"/>
    <path class="cls-2" d="M257.32,92.33l.24-.15"/>
    <path class="cls-2" d="M257.98,92.59c.12.34.2.46.27.58s.15.24.22.36"/>
    <path class="cls-2" d="M258.31,92.46q-.1-.02-.07-.12l.02-.1.09-.39"/>
    <path class="cls-2" d="M264.76,93.79c-.02.1-.05.19-.24.15"/>
    <path class="cls-2" d="M90.98,146.19c.12-.07.24-.15.31-.03"/>
    <path class="cls-2" d="M93.37,147.78l-.12.07-.05.19"/>
    <line class="cls-2" x1="88.61" y1="153.62" x2="93.21" y2="148.05"/>
    <path class="cls-2" d="M88.61,153.62c-.02.1-.14.17-.14.17l-.02.1"/>
    <line class="cls-2" x1="261.72" y1="94.09" x2="261.69" y2="94.19"/>
    <line class="cls-2" x1="265.03" y1="91.8" x2="264.66" y2="91.2"/>
    <line class="cls-2" x1="264.66" y1="91.2" x2="264.66" y2="91.2"/>
    <path class="cls-2" d="M264.62,91.81q.1.02.07.12l-.1-.02"/>
    <path class="cls-2" d="M264.59,91.9l.1.02.02-.1"/>
    <path class="cls-2" d="M264.28,91.93l-.1-.02.02-.1"/>
    <line class="cls-2" x1="269.33" y1="93.95" x2="269.31" y2="94.05"/>
    <line class="cls-2" x1="292.52" y1="513.93" x2="292.52" y2="518.64"/>
    <line class="cls-2" x1="293.8" y1="472.23" x2="293.9" y2="472.25"/>
    <line class="cls-2" x1="291.85" y1="472.28" x2="291.85" y2="472.28"/>
    <line class="cls-2" x1="293.8" y1="472.23" x2="293.8" y2="472.23"/>
    <path class="cls-2" d="M267.15,93.23l.1.02q.12-.07.14-.17"/>
    <path class="cls-2" d="M267.39,93.08q-.02.1-.14.17c-.1-.02-.12.07-.22.05"/>
    <path class="cls-2" d="M94.06,152.65c.12-.07.31-.03.48.12"/>
    <path class="cls-2" d="M93.44,153.12l.02-.1.12-.07.02-.1c.1.02.12-.07.12-.07l.1.02.02-.1s.1.02.12-.07h0l.1.02"/>
    <path class="cls-2" d="M259.12,91.63c-.05.19-.09.39,0,.41"/>
    <line class="cls-2" x1="263.86" y1="93.68" x2="264.06" y2="94.13"/>
    <line class="cls-2" x1="266.72" y1="92" x2="266.84" y2="91.92"/>
    <line class="cls-2" x1="266.62" y1="91.56" x2="266.72" y2="92"/>
    <line class="cls-2" x1="326.6" y1="471.72" x2="305" y2="472.12"/>
    <line class="cls-2" x1="305.63" y1="510.89" x2="319" y2="510.68"/>
    <line class="cls-2" x1="326.87" y1="491.34" x2="321.09" y2="491.51"/>
    <line class="cls-2" x1="321.38" y1="505.82" x2="327.04" y2="505.73"/>
    <line class="cls-2" x1="319" y1="510.68" x2="320.48" y2="509.19"/>
    <line class="cls-2" x1="257.82" y1="511.64" x2="305.63" y2="510.89"/>
    <path class="cls-2" d="M335.32,276.07c-.7-.06-1.28.21-1.8.7-.45.61-.69,1.17-.65,1.89-.06.7.21,1.28.7,1.8.59.55,1.15.78,1.87.75"/>
    <path class="cls-2" d="M335.43,281.22c.72-.03,1.3-.31,1.83-.8.53-.49.78-1.15.75-1.87-.03-.72-.31-1.3-.8-1.83-.51-.43-1.17-.69-1.89-.65"/>
    <line class="cls-2" x1="305" y1="472.12" x2="257.18" y2="472.87"/>
    <line class="cls-2" x1="244.36" y1="511.82" x2="257.82" y2="511.64"/>
    <line class="cls-2" x1="257.18" y1="472.87" x2="235.6" y2="473.17"/>
    <line class="cls-2" x1="236.14" y1="511.92" x2="236.03" y2="507.18"/>
    <line class="cls-2" x1="321.67" y1="471.77" x2="312.1" y2="471.96"/>
    <line class="cls-2" x1="240.34" y1="473.07" x2="249.88" y2="472.98"/>
    <line class="cls-2" x1="249.88" y1="472.98" x2="240.34" y2="473.07"/>
    <line class="cls-2" x1="305" y1="472.12" x2="307.36" y2="472.07"/>
    <line class="cls-2" x1="305.63" y1="510.89" x2="308" y2="510.84"/>
    <line class="cls-2" x1="307.36" y1="472.07" x2="307.27" y2="472.04"/>
    <line class="cls-2" x1="61.1" y1="401.25" x2="62.13" y2="400.36"/>
    <line class="cls-2" x1="61.1" y1="401.25" x2="61" y2="401.22"/>
    <line class="cls-2" x1="39.83" y1="411.46" x2="39.92" y2="411.48"/>
    <line class="cls-2" x1="39.83" y1="411.46" x2="42.03" y2="409.53"/>
    <line class="cls-2" x1="47.72" y1="404.52" x2="47.82" y2="404.55"/>
    <line class="cls-2" x1="47.72" y1="404.52" x2="47.82" y2="404.55"/>
    <line class="cls-2" x1="55.28" y1="398.12" x2="55.19" y2="398.1"/>
    <line class="cls-2" x1="62.23" y1="400.39" x2="62.13" y2="400.36"/>
    <line class="cls-2" x1="66.02" y1="404.67" x2="62.23" y2="400.39"/>
    <line class="cls-2" x1="107.97" y1="453.24" x2="69.14" y2="408.38"/>
    <line class="cls-2" x1="105.13" y1="455.74" x2="107.97" y2="453.24"/>
    <line class="cls-2" x1="105.13" y1="455.74" x2="109.15" y2="460.38"/>
    <line class="cls-2" x1="43.6" y1="419.32" x2="43.5" y2="419.3"/>
    <line class="cls-2" x1="42.13" y1="417.74" x2="42.15" y2="417.65"/>
    <line class="cls-2" x1="42.13" y1="417.74" x2="42.13" y2="417.74"/>
    <line class="cls-2" x1="49.28" y1="426" x2="49.28" y2="426"/>
    <line class="cls-2" x1="50.56" y1="427.53" x2="50.56" y2="427.53"/>
    <line class="cls-2" x1="54.36" y1="431.81" x2="54.26" y2="431.79"/>
    <line class="cls-2" x1="59.34" y1="437.6" x2="59.34" y2="437.6"/>
    <line class="cls-2" x1="64.31" y1="443.39" x2="64.31" y2="443.39"/>
    <line class="cls-2" x1="69.39" y1="449.21" x2="69.39" y2="449.21"/>
    <line class="cls-2" x1="74.37" y1="455" x2="74.37" y2="455"/>
    <line class="cls-2" x1="79.34" y1="460.79" x2="79.34" y2="460.79"/>
    <line class="cls-2" x1="80.64" y1="462.22" x2="80.64" y2="462.22"/>
    <line class="cls-2" x1="86.43" y1="468.92" x2="86.53" y2="468.95"/>
    <line class="cls-2" x1="86.43" y1="468.92" x2="86.53" y2="468.95"/>
    <line class="cls-2" x1="87.87" y1="470.6" x2="86.53" y2="468.95"/>
    <line class="cls-2" x1="87.87" y1="470.6" x2="87.87" y2="470.6"/>
    <line class="cls-2" x1="86.53" y1="468.95" x2="86.53" y2="468.95"/>
    <line class="cls-2" x1="84.34" y1="466.48" x2="84.03" y2="466.1"/>
    <line class="cls-2" x1="109.15" y1="460.38" x2="91.99" y2="475.26"/>
    <line class="cls-2" x1="91.99" y1="475.26" x2="91.99" y2="475.26"/>
    <line class="cls-2" x1="91.99" y1="475.26" x2="89.34" y2="472.18"/>
    <line class="cls-2" x1="89.34" y1="472.18" x2="89.25" y2="472.15"/>
    <line class="cls-2" x1="55.19" y1="398.1" x2="47.72" y2="404.52"/>
    <line class="cls-2" x1="40.68" y1="416.07" x2="40.58" y2="416.05"/>
    <line class="cls-2" x1="38.13" y1="413.01" x2="38.13" y2="413.01"/>
    <line class="cls-2" x1="45.75" y1="421.88" x2="43.6" y2="419.32"/>
    <line class="cls-2" x1="39.92" y1="411.48" x2="39.92" y2="411.48"/>
    <line class="cls-2" x1="55.54" y1="433.32" x2="54.26" y2="431.79"/>
    <line class="cls-2" x1="65.61" y1="444.83" x2="64.31" y2="443.39"/>
    <line class="cls-2" x1="75.66" y1="456.43" x2="74.37" y2="455"/>
    <line class="cls-2" x1="40.68" y1="416.07" x2="40.68" y2="416.07"/>
    <line class="cls-2" x1="59.38" y1="402.89" x2="62.23" y2="400.39"/>
    <line class="cls-2" x1="79.34" y1="460.79" x2="75.66" y2="456.43"/>
    <line class="cls-2" x1="241.16" y1="473.06" x2="241.25" y2="473.08"/>
    <line class="cls-2" x1="307.27" y1="472.04" x2="307.27" y2="472.04"/>
    <line class="cls-2" x1="59.34" y1="437.6" x2="59.34" y2="437.6"/>
    <line class="cls-2" x1="254.62" y1="472.87" x2="307.27" y2="472.04"/>
    <line class="cls-2" x1="244.13" y1="473.05" x2="244.13" y2="473.05"/>
    <line class="cls-2" x1="321.09" y1="491.51" x2="320.18" y2="490.58"/>
    <line class="cls-2" x1="321.09" y1="491.51" x2="321.43" y2="508.19"/>
    <line class="cls-2" x1="79.46" y1="460.72" x2="79.34" y2="460.79"/>
    <line class="cls-2" x1="46.07" y1="422.27" x2="46.1" y2="422.17"/>
    <line class="cls-2" x1="59.34" y1="437.6" x2="59.34" y2="437.6"/>
    <line class="cls-2" x1="75.66" y1="456.43" x2="74.37" y2="455"/>
    <line class="cls-2" x1="80.64" y1="462.22" x2="86.43" y2="468.92"/>
    <line class="cls-2" x1="235.96" y1="492.82" x2="235.87" y2="491.88"/>
    <line class="cls-2" x1="255.97" y1="472.78" x2="255.97" y2="472.78"/>
    <line class="cls-2" x1="256.07" y1="472.81" x2="256.05" y2="472.9"/>
    <line class="cls-2" x1="256.56" y1="517.79" x2="256.49" y2="511.63"/>
    <line class="cls-2" x1="258.48" y1="514.46" x2="258.59" y2="519.19"/>
    <path class="cls-2" d="M256.63,519.24l.02-.1c-.07-.12-.05-.22-.03-.31-.03-.31-.06-.63-.06-1.04"/>
    <line class="cls-2" x1="256.66" y1="517.82" x2="256.56" y2="517.79"/>
    <line class="cls-2" x1="241.81" y1="507.02" x2="236.13" y2="507.21"/>
    <line class="cls-2" x1="43.5" y1="419.3" x2="43.5" y2="419.3"/>
    <line class="cls-2" x1="49.28" y1="426" x2="43.5" y2="419.3"/>
    <line class="cls-2" x1="55.56" y1="433.22" x2="54.36" y2="431.81"/>
    <line class="cls-2" x1="60.64" y1="439.04" x2="59.34" y2="437.6"/>
    <line class="cls-2" x1="60.64" y1="439.04" x2="60.54" y2="439.02"/>
    <line class="cls-2" x1="64.31" y1="443.39" x2="60.64" y2="439.04"/>
    <line class="cls-2" x1="69.39" y1="449.21" x2="65.61" y2="444.83"/>
    <line class="cls-2" x1="89.25" y1="472.15" x2="86.43" y2="468.92"/>
    <line class="cls-2" x1="70.59" y1="450.62" x2="69.39" y2="449.21"/>
    <line class="cls-2" x1="256.63" y1="519.24" x2="258.59" y2="519.19"/>
    <line class="cls-2" x1="256.63" y1="519.24" x2="256.63" y2="519.24"/>
    <line class="cls-2" x1="50.56" y1="427.53" x2="49.28" y2="426"/>
    <line class="cls-2" x1="236.13" y1="507.21" x2="235.86" y2="492.8"/>
    <line class="cls-2" x1="241.61" y1="492.73" x2="235.86" y2="492.8"/>
    <line class="cls-2" x1="255.97" y1="472.78" x2="257.81" y2="472.81"/>
    <line class="cls-2" x1="257.91" y1="472.83" x2="257.91" y2="472.83"/>
    <line class="cls-2" x1="256.07" y1="472.81" x2="256.05" y2="472.9"/>
    <path class="cls-2" d="M96.38,154.54c.12-.07.31-.03.48.12"/>
    <path class="cls-2" d="M95.75,155l.02-.1c.02-.1.12-.07.12-.07l.02-.1c.1.02.12-.07.12-.07l.12-.07h0l.12-.07h0l.1.02"/>
    <path class="cls-2" d="M259.25,93.71c.1.02.12-.07.12-.07"/>
    <path class="cls-2" d="M259.03,93.76s.12-.07.22-.05l.12-.07"/>
    <polyline class="cls-2" points="259.33 90.76 259.33 90.76 259.33 90.76 259.43 90.78"/>
    <line class="cls-2" x1="259.32" y1="92.09" x2="259.32" y2="92.09"/>
    <path class="cls-2" d="M259.32,92.09c-.02.1.05.22.03.31"/>
    <path class="cls-2" d="M264.82,92.67l-.02.1"/>
    <path class="cls-2" d="M264,93.09c-.02.1-.05.19.03.31l.29.07.19.05.1.02c.1.02.17.14.15.24"/>
    <path class="cls-2" d="M275.91,93.87c.19.05.31-.03.41,0,.12-.07.17-.27.19-.36"/>
    <path class="cls-2" d="M276.51,93.5c.02-.1-.05-.22-.15-.24-.07-.12-.17-.14-.27-.17l-.29-.07c-.1-.02-.17-.14-.17-.14"/>
    <line class="cls-2" x1="241.61" y1="492.73" x2="235.96" y2="492.82"/>
    <line class="cls-2" x1="69.14" y1="408.38" x2="66.02" y2="404.67"/>
    <line class="cls-2" x1="70.59" y1="450.62" x2="69.39" y2="449.21"/>
    <line class="cls-2" x1="80.64" y1="462.22" x2="79.34" y2="460.79"/>
    <line class="cls-2" x1="222.35" y1="89.46" x2="222.3" y2="87.09"/>
    <line class="cls-2" x1="271.74" y1="49.24" x2="269.37" y2="49.3"/>
    <line class="cls-2" x1="222.3" y1="87.09" x2="222.25" y2="84.72"/>
    <path class="cls-2" d="M222.88,97.58c.15.24.34.29.63.36"/>
    <line class="cls-2" x1="262.64" y1="90.21" x2="261.21" y2="90.18"/>
    <path class="cls-2" d="M259.37,93.63c-.07-.12-.15-.24-.12-.34"/>
    <line class="cls-2" x1="258.31" y1="92.46" x2="258.31" y2="92.46"/>
    <line class="cls-2" x1="266.84" y1="91.92" x2="266.84" y2="91.92"/>
    <line class="cls-2" x1="59.3" y1="402.77" x2="61" y2="401.22"/>
    <line class="cls-2" x1="59.34" y1="437.6" x2="55.54" y2="433.32"/>
    <line class="cls-2" x1="79.34" y1="460.79" x2="80.64" y2="462.22"/>
    <line class="cls-2" x1="60.54" y1="439.02" x2="59.34" y2="437.6"/>
    <line class="cls-2" x1="43.5" y1="419.3" x2="40.58" y2="416.05"/>
    <path class="cls-2" d="M95.84,159.84h0l-.02.1"/>
    <line class="cls-2" x1="257.84" y1="472.71" x2="267.89" y2="472.64"/>
    <line class="cls-2" x1="222.26" y1="79.91" x2="222.19" y2="82.36"/>
    <line class="cls-2" x1="264.56" y1="49.28" x2="264.56" y2="49.28"/>
    <path class="cls-2" d="M256.59,511.65c-.01.92-.03,1.84-.04,2.76"/>
    <path class="cls-2" d="M258.45,511.58c-.01.92.07,1.86.03,2.88"/>
    <line class="cls-2" x1="54.36" y1="431.81" x2="54.36" y2="431.81"/>
    <line class="cls-2" x1="226.49" y1="49.98" x2="226.52" y2="49.88"/>
    <line class="cls-2" x1="240.9" y1="49.71" x2="240.9" y2="49.71"/>
    <line class="cls-2" x1="419.55" y1="418.47" x2="418.8" y2="418.19"/>
    <line class="cls-2" x1="420.25" y1="414.64" x2="420.91" y2="414.9"/>
    <path class="cls-2" d="M107.37,63.31C48.3,110.66,10.44,179.53,2.23,254.72c-8.33,75.26,13.61,150.74,60.96,209.82,47.35,59.07,116.24,96.83,191.51,105.16,75.29,8.23,150.67-13.73,209.74-61.08"/>
    <path class="cls-2" d="M25.99,376.94c.07,6.16,5.09,10.94,11.15,10.84,6.07-.1,10.94-5.09,10.84-11.15"/>
    <path class="cls-2" d="M26.09,376.96c.07,6.16,5.09,10.94,11.15,10.84,6.07-.1,10.94-5.09,10.84-11.15"/>
    <path class="cls-2" d="M48.09,376.65c-.1-6.07-5.09-10.94-11.15-10.84-6.16.07-10.94,5.09-10.84,11.15"/>
    <path class="cls-2" d="M47.99,376.62c-.1-6.07-5.09-10.94-11.25-10.86-6.07.1-10.84,5.11-10.74,11.18"/>
    <path class="cls-2" d="M92.27,136.87c.05,2.37,2.06,4.28,4.43,4.23,2.35.04,4.26-1.96,4.2-4.33"/>
    <path class="cls-2" d="M100.9,136.76c-.05-2.37-1.96-4.26-4.33-4.2-2.35-.04-4.26,1.96-4.3,4.31"/>
    <path class="cls-2" d="M104.4,122.02c.05,2.37,1.96,4.26,4.43,4.23,2.37-.05,4.26-1.96,4.2-4.33"/>
    <path class="cls-2" d="M113.03,121.92c-.05-2.37-2.06-4.28-4.43-4.23-2.35-.04-4.26,1.96-4.2,4.33"/>
    <path class="cls-2" d="M107.21,149.02c-.04,2.35,1.96,4.26,4.33,4.2,2.37-.05,4.28-2.06,4.23-4.43"/>
    <path class="cls-2" d="M115.77,148.79c-.05-2.37-1.96-4.26-4.33-4.2-2.37.05-4.26,1.96-4.23,4.43"/>
    <path class="cls-2" d="M119.24,134.15c.05,2.37,1.96,4.26,4.43,4.23,2.37-.05,4.28-2.06,4.23-4.43"/>
    <path class="cls-2" d="M127.9,133.95c-.05-2.37-2.06-4.28-4.43-4.23s-4.26,1.96-4.23,4.43"/>
    <path class="cls-2" d="M131.4,119.21c-.07,2.44,1.94,4.35,4.31,4.3,2.37-.05,4.28-2.06,4.23-4.43"/>
    <path class="cls-2" d="M139.93,119.08c-.05-2.37-1.96-4.26-4.33-4.2-2.37.05-4.26,1.96-4.2,4.33"/>
    <path class="cls-2" d="M116.43,107.15c.05,2.37,2.06,4.28,4.43,4.23,2.37-.05,4.26-1.96,4.2-4.33"/>
    <path class="cls-2" d="M125.06,107.05c-.05-2.37-1.96-4.26-4.31-4.3-2.37.05-4.28,2.06-4.32,4.4"/>
    <path class="cls-2" d="M128.56,92.31c.05,2.37,1.96,4.26,4.33,4.2,2.47-.03,4.35-1.94,4.3-4.31"/>
    <path class="cls-2" d="M137.19,92.2c-.05-2.37-2.06-4.28-4.4-4.32-2.37.05-4.28,2.06-4.23,4.43"/>
    <path class="cls-2" d="M143.43,104.34c.03,2.47,1.94,4.35,4.4,4.32,2.37-.05,4.28-2.06,4.23-4.43"/>
    <path class="cls-2" d="M152.05,104.23c-.05-2.37-2.06-4.28-4.43-4.23-2.37.05-4.26,1.96-4.2,4.33"/>
    <path class="cls-2" d="M161.43,55.24c.02,3.38,2.85,6.11,6.34,6.11,3.41-.11,6.13-2.95,6.11-6.34"/>
    <path class="cls-2" d="M161.52,55.26c.11,3.41,2.95,6.13,6.34,6.11,3.41-.11,6.23-2.93,6.11-6.34"/>
    <path class="cls-2" d="M173.97,55.04c-.02-3.38-2.83-6.2-6.34-6.11-3.38.02-6.11,2.85-6.11,6.34"/>
    <path class="cls-2" d="M173.87,55.01c-.11-3.41-2.83-6.2-6.34-6.11-3.38.02-6.2,2.83-6.11,6.34"/>
    <path class="cls-2" d="M217.88,29.29c.11,3.41,2.95,6.13,6.34,6.11,3.5-.09,6.23-2.93,6.11-6.34"/>
    <path class="cls-2" d="M218.07,29.34c.02,3.38,2.85,6.11,6.34,6.11,3.41-.11,6.13-2.95,6.11-6.34"/>
    <path class="cls-2" d="M230.52,29.12c-.09-3.5-2.93-6.23-6.34-6.11-3.48,0-6.2,2.83-6.11,6.34"/>
    <path class="cls-2" d="M230.33,29.07c0-3.48-2.83-6.2-6.24-6.09-3.48,0-6.2,2.83-6.21,6.31"/>
    <path class="cls-2" d="M324.89,23.44c.1,6.07,5.18,10.96,11.25,10.86,6.07-.1,10.94-5.09,10.86-11.25"/>
    <path class="cls-2" d="M325.08,23.48c.1,6.07,5.09,10.94,11.15,10.84,6.07-.1,10.94-5.09,10.86-11.25"/>
    <path class="cls-2" d="M347.1,23.07c-.1-6.07-5.11-10.84-11.27-10.77-6.07.1-10.84,5.11-10.74,11.18"/>
    <path class="cls-2" d="M347,23.05c-.1-6.07-5.21-10.87-11.27-10.77-6.07.1-10.94,5.09-10.84,11.15"/>
    <path class="cls-2" d="M473.72,468.2c.1,6.07,5.09,10.94,11.25,10.86,6.07-.1,10.94-5.09,10.84-11.15"/>
    <path class="cls-2" d="M473.92,468.25c.1,6.07,5.09,10.94,11.15,10.84,6.07-.1,10.94-5.09,10.84-11.15"/>
    <path class="cls-2" d="M495.91,467.94c-.07-6.16-5.09-10.94-11.25-10.86-6.07.1-10.94,5.09-10.74,11.18"/>
    <path class="cls-2" d="M495.82,467.91c-.17-6.19-5.18-10.96-11.25-10.86-6.07.1-10.94,5.09-10.84,11.15"/>
    <path class="cls-2" d="M490.61,87.03l.02-.1"/>
    <path class="cls-2" d="M490.53,86.91c-12.29-12.54-25.65-24.01-39.96-34.07-14.39-10.17-29.63-18.91-45.6-26.29-15.97-7.37-32.53-13.15-49.55-17.39-17.1-4.36-34.39-7.03-51.96-8.13-17.57-1.09-35.01-.52-52.54,1.67-17.41,2.12-34.57,5.83-51.31,11.18-16.74,5.35-32.9,12.17-48.37,20.38-15.59,8.29-30.2,18.04-43.87,29.03"/>
    <path class="cls-2" d="M490.63,86.94c-12.29-12.54-25.65-24.01-39.96-34.07-14.39-10.17-29.63-18.91-45.6-26.29-15.97-7.37-32.43-13.12-49.55-17.39-17-4.34-34.39-7.03-51.96-8.13-17.47-1.07-35.01-.52-52.54,1.67-17.41,2.12-34.48,5.85-51.31,11.18-16.74,5.35-32.9,12.17-48.37,20.38-15.49,8.31-30.2,18.04-43.87,29.03"/>
    <line class="cls-2" x1="558.03" y1="199.63" x2="558.03" y2="199.63"/>
    <path class="cls-2" d="M107.47,63.33c-14.66,11.68-27.99,24.71-40,39.07-12.11,14.34-22.63,29.77-31.65,46.17-9.01,16.4-16.37,33.61-21.94,51.45-5.68,17.91-9.5,36.16-11.57,54.83-2.05,18.57-2.28,37.26-.66,55.88,1.6,18.72,5.04,37.05,10.31,55,5.25,18.04,12.2,35.37,20.76,51.95,8.66,16.6,18.88,32.24,30.57,46.9,11.8,14.58,24.83,27.91,39.16,40.02,14.36,12.01,29.69,22.51,46.17,31.65,16.4,9.01,33.53,16.25,51.45,21.94,17.81,5.66,36.06,9.48,54.73,11.55,18.66,2.07,37.26,2.28,55.98.68,18.64-1.72,36.95-5.06,55-10.31,17.95-5.27,35.27-12.22,51.87-20.88,16.7-8.64,32.32-18.76,46.9-30.57"/>
    <line class="cls-2" x1="274.82" y1="93.71" x2="274.83" y2="92.8"/>
    <line class="cls-2" x1="255.53" y1="273.43" x2="341.8" y2="272.08"/>
    <line class="cls-2" x1="267.89" y1="472.64" x2="269.85" y2="472.59"/>
    <line class="cls-2" x1="269.85" y1="472.59" x2="269.83" y2="472.69"/>
    <line class="cls-2" x1="267.89" y1="472.64" x2="267.89" y2="472.64"/>
    <line class="cls-2" x1="255.53" y1="273.43" x2="256.91" y2="359.6"/>
    <line class="cls-2" x1="256.91" y1="359.6" x2="256.91" y2="359.6"/>
    <path class="cls-2" d="M263.37,92.74q.1.02.07.12t.07.12"/>
    <line class="cls-2" x1="262.44" y1="94.06" x2="262.42" y2="94.15"/>
    <line class="cls-2" x1="222.26" y1="79.91" x2="222.26" y2="79.91"/>
    <line class="cls-2" x1="221.85" y1="57.89" x2="221.85" y2="57.89"/>
    <line class="cls-2" x1="221.9" y1="60.26" x2="221.85" y2="57.89"/>
    <path class="cls-2" d="M100.6,154l.12-.07.02-.1"/>
    <path class="cls-2" d="M95.81,159.94l.12-.07.05-.19"/>
    <line class="cls-2" x1="100.6" y1="154" x2="95.98" y2="159.67"/>
    <line class="cls-2" x1="281.79" y1="472.35" x2="281.77" y2="472.45"/>
    <line class="cls-2" x1="279.93" y1="472.42" x2="279.91" y2="472.52"/>
    <line class="cls-2" x1="280.5" y1="514.05" x2="280.58" y2="518.88"/>
    <line class="cls-2" x1="305.74" y1="471.99" x2="305.72" y2="472.09"/>
    <line class="cls-2" x1="303.79" y1="472.04" x2="303.76" y2="472.14"/>
    <line class="cls-2" x1="305.82" y1="472.11" x2="305.82" y2="472.11"/>
    <line class="cls-2" x1="305.84" y1="472.01" x2="305.82" y2="472.11"/>
    <line class="cls-2" x1="303.88" y1="472.06" x2="303.88" y2="472.06"/>
    <path class="cls-2" d="M306.36,510.86c-.01.92-.03,1.84.06,2.78"/>
    <line class="cls-2" x1="304.46" y1="513.69" x2="304.54" y2="518.52"/>
    <line class="cls-2" x1="342.23" y1="271.57" x2="255.12" y2="273.02"/>
    <line class="cls-2" x1="255.12" y1="273.02" x2="256.5" y2="360.02"/>
    <line class="cls-2" x1="343.5" y1="358.63" x2="256.5" y2="360.02"/>
  </g>
  <g id="Make2D::可见线::正切线">
    <line class="cls-2" x1="97.79" y1="161.53" x2="95.81" y2="159.94"/>
    <path class="cls-2" d="M223.52,97.93c-.41,0-.68-.57-.69-.98"/>
    <line class="cls-2" x1="256.55" y1="514.41" x2="258.48" y2="514.46"/>
    <line class="cls-2" x1="92.85" y1="152.57" x2="92.95" y2="152.6"/>
    <line class="cls-2" x1="93.53" y1="152.73" x2="93.26" y2="152.57"/>
    <line class="cls-2" x1="92.83" y1="153.08" x2="93" y2="153.22"/>
    <line class="cls-2" x1="92.8" y1="152.77" x2="92.73" y2="152.65"/>
    <line class="cls-2" x1="92.95" y1="152.6" x2="92.8" y2="152.77"/>
    <line class="cls-2" x1="94.35" y1="154.46" x2="94.52" y2="154.61"/>
    <line class="cls-2" x1="221.84" y1="51.03" x2="222.61" y2="97"/>
    <line class="cls-2" x1="222.83" y1="96.95" x2="222.15" y2="51"/>
    <line class="cls-2" x1="223.55" y1="96.92" x2="222.78" y2="50.94"/>
    <line class="cls-2" x1="279.11" y1="96.78" x2="223.59" y2="97.64"/>
    <path class="cls-2" d="M279.06,96.98c.1.02,0,0,0,0h0l.02-.1.02-.1"/>
    <line class="cls-2" x1="279.08" y1="96.06" x2="223.55" y2="96.92"/>
    <line class="cls-2" x1="278.3" y1="50.08" x2="279.08" y2="96.06"/>
    <line class="cls-2" x1="279.03" y1="50.05" x2="279.8" y2="96.02"/>
    <line class="cls-2" x1="222.78" y1="50.94" x2="278.3" y2="50.08"/>
    <line class="cls-2" x1="222.82" y1="50.34" x2="278.37" y2="49.38"/>
    <path class="cls-2" d="M279.32,50.12l-.1-.02-.1-.02-.1-.02"/>
    <path class="cls-2" d="M221.86,50.93l-.02.1"/>
    <path class="cls-2" d="M222.61,97l.02-.1.1.02.1.02"/>
    <polyline class="cls-2" points="223.59 97.64 223.56 97.74 223.54 97.84 223.54 97.84 223.52 97.93"/>
    <path class="cls-2" d="M222.83,96.95c.1.02.19.05.31-.03h0c.1.02.19.05.31-.03l.1.02"/>
    <path class="cls-2" d="M222.15,51l-.19-.05s-.02.1-.12.07"/>
    <path class="cls-2" d="M223.55,96.92l-.05.19h0q.07.12.05.22h0l-.05.19.07.12"/>
    <line class="cls-2" x1="223.55" y1="96.92" x2="223.55" y2="96.92"/>
    <path class="cls-2" d="M279.11,96.78c-.03-.31.02-.51-.03-.72"/>
    <path class="cls-2" d="M222.78,50.94c-.22.05-.41,0-.63.06"/>
    <path class="cls-2" d="M222.8,50.03l-.02.1h0q-.02.1.07.12l-.02.1"/>
    <line class="cls-2" x1="222.8" y1="50.03" x2="222.8" y2="50.03"/>
    <path class="cls-2" d="M279.8,96.02l.1.02h0l.1.02"/>
    <path class="cls-2" d="M279.08,96.06l.1.02c.1.02.22-.05.31-.03h0c.1.02.19.05.31-.03"/>
    <path class="cls-2" d="M222.82,50.34l-.02.1-.02.1h0l-.02.1c.1.02.07.12.07.12l-.02.1-.02.1h0"/>
    <path class="cls-2" d="M279.03,50.05c-.22.05-.43.1-.72.03"/>
    <path class="cls-2" d="M278.3,50.08c.05-.19,0-.41.06-.7"/>
    <path class="cls-2" d="M278.37,49.38l-.07-.12.02-.1h0"/>
    <path class="cls-2" d="M279.03,50.05c-.03-.31-.2-.87-.71-.89"/>
    <line class="cls-2" x1="278.32" y1="49.16" x2="222.8" y2="50.03"/>
    <path class="cls-2" d="M222.15,51c0-.41.13-.99.64-.97"/>
    <path class="cls-2" d="M279.06,96.98c.51.02.74-.54.74-.95"/>
    <line class="cls-2" x1="95.93" y1="159.86" x2="88.46" y2="153.79"/>
    <line class="cls-2" x1="100.58" y1="154.1" x2="93.09" y2="148.12"/>
    <line class="cls-2" x1="88.61" y1="153.62" x2="96.1" y2="159.59"/>
    <line class="cls-2" x1="93.21" y1="148.05" x2="91.15" y2="146.33"/>
    <line class="cls-2" x1="86.63" y1="152.02" x2="88.61" y2="153.62"/>
    <line class="cls-2" x1="86.36" y1="151.85" x2="90.98" y2="146.19"/>
    <line class="cls-2" x1="91.15" y1="146.33" x2="86.63" y2="152.02"/>
    <path class="cls-2" d="M91.15,146.33s.1.02.12-.07l.02-.1h0s.1.02,0,0"/>
    <path class="cls-2" d="M90.98,146.19h0c-.02.1.07.12.07.12l.1.02"/>
    <path class="cls-2" d="M86.36,151.85l.1.02-.02.1.19.05"/>
    <path class="cls-2" d="M86.37,152.26l.12-.07.02-.1.12-.07"/>
    <line class="cls-2" x1="292.52" y1="513.93" x2="294.38" y2="513.86"/>
    <line class="cls-2" x1="304.46" y1="513.69" x2="306.41" y2="513.64"/>
    <line class="cls-2" x1="280.5" y1="514.05" x2="282.46" y2="514"/>
    <path class="cls-2" d="M98.05,161.29c-.02.1.07.12.07.12l.1.02s.07.12-.02.1"/>
    <line class="cls-2" x1="95.98" y1="159.67" x2="98.05" y2="161.29"/>
    <line class="cls-2" x1="98.05" y1="161.29" x2="102.56" y2="155.7"/>
    <line class="cls-2" x1="102.56" y1="155.7" x2="100.6" y2="154"/>
    <path class="cls-2" d="M98.05,161.29c-.02.1-.12.07-.14.17h0s-.02.1-.12.07"/>
    <path class="cls-2" d="M102.56,155.7c.19.05.27.17.27.17"/>
    <path class="cls-2" d="M102.82,155.45h0c-.02.1-.12.07-.12.07h0q-.02.1-.14.17"/>
    <line class="cls-2" x1="268.56" y1="514.29" x2="270.42" y2="514.22"/>
  </g>
  <g id="_图层_3" data-name="图层 3">
    <path class="cls-1" d="M271.86,498.87l4.78-.58c.15,1.22.56,2.15,1.23,2.79s1.48.97,2.43.97c1.02,0,1.88-.39,2.58-1.16s1.05-1.82,1.05-3.13c0-1.24-.33-2.23-1-2.95s-1.48-1.09-2.44-1.09c-.63,0-1.39.12-2.27.37l.54-4.03c1.34.04,2.36-.25,3.06-.87s1.05-1.43,1.05-2.45c0-.87-.26-1.56-.77-2.07s-1.2-.77-2.06-.77-1.56.29-2.16.88-.96,1.44-1.09,2.57l-4.55-.77c.32-1.56.79-2.8,1.43-3.74s1.53-1.66,2.67-2.2,2.42-.8,3.84-.8c2.43,0,4.37.77,5.84,2.32,1.21,1.27,1.81,2.7,1.81,4.29,0,2.26-1.24,4.07-3.71,5.41,1.48.32,2.66,1.03,3.54,2.13s1.33,2.43,1.33,3.99c0,2.26-.83,4.19-2.48,5.78s-3.71,2.39-6.17,2.39c-2.33,0-4.27-.67-5.8-2.01s-2.43-3.1-2.67-5.26Z"/>
    <path class="cls-1" d="M176.86,87.31v4.59h-17.31c.19-1.73.75-3.38,1.69-4.93s2.79-3.61,5.55-6.18c2.23-2.07,3.59-3.48,4.1-4.22.68-1.02,1.02-2.03,1.02-3.02,0-1.1-.3-1.95-.89-2.54s-1.41-.89-2.45-.89-1.85.31-2.46.93-.96,1.65-1.05,3.09l-4.92-.49c.29-2.72,1.21-4.67,2.76-5.85s3.48-1.78,5.8-1.78c2.54,0,4.54.69,5.99,2.06s2.18,3.08,2.18,5.12c0,1.16-.21,2.26-.62,3.31s-1.08,2.15-1.98,3.3c-.6.76-1.68,1.86-3.23,3.29s-2.55,2.38-2.96,2.85-.75.93-1.01,1.37h9.81Z"/>
    <path class="cls-1" d="M246.64,35.45h-4.94v-18.62c-1.8,1.69-3.93,2.94-6.38,3.74v-4.48c1.29-.42,2.69-1.22,4.2-2.4s2.55-2.55,3.11-4.12h4.01v25.88Z"/>
  </g>
</svg>