<?xml version="1.0" encoding="UTF-8"?>
<svg xmlns="http://www.w3.org/2000/svg" viewBox="0 0 589.76 310.46">
  <defs>
    <style>
      .cls-1, .cls-2, .cls-3, .cls-4, .cls-5, .cls-6, .cls-7 {
        fill: none;
      }

      .cls-1, .cls-2, .cls-3, .cls-5, .cls-6, .cls-7 {
        stroke-miterlimit: 10;
        stroke-width: 2px;
      }

      .cls-1, .cls-4 {
        stroke: #000;
      }

      .cls-2 {
        stroke: #00ed00;
      }

      .cls-8 {
        fill: red;
      }

      .cls-8, .cls-9 {
        stroke-width: 0px;
      }

      .cls-3 {
        stroke: #ff6d00;
      }

      .cls-4 {
        stroke-linecap: round;
        stroke-linejoin: round;
      }

      .cls-9 {
        fill: #bfbfbf;
      }

      .cls-5 {
        stroke: #ff0;
      }

      .cls-6 {
        stroke: #00d80f;
      }

      .cls-7 {
        stroke: red;
      }
    </style>
  </defs>
  <g id="_图层_3" data-name="图层 3">
    <polygon class="cls-9" points="198.61 160.92 196.34 160.98 192.7 162.88 190.05 166.11 188.55 169.45 187.96 173.13 187.61 176.74 188.62 180.98 190.88 184.54 193.31 186.11 197.76 186.97 278.82 201.08 287.16 201.84 296.35 201.51 315.41 199.6 336.48 197.37 589.26 170.51 589.26 141.11 318.65 171.99 296.35 174.35 288.99 174.83 270.44 172.57 218.39 164.11 198.61 160.92"/>
  </g>
  <g id="Make2D::可见线::曲线">
    <path class="cls-4" d="M55.85,53.72c-7.09,9.81-11.9,21.01-13.13,33.2"/>
    <path class="cls-4" d="M268.05,14.73C243.46,5.38,216.47.78,190.27.51"/>
    <path class="cls-4" d="M190.27.51c-13.69-.14-27.51.9-41.01,3.2-13.47,2.3-26.91,5.9-39.62,10.98"/>
    <path class="cls-4" d="M347.26,132.11c-.02-.41-.26-.92-.52-1.23"/>
    <path class="cls-4" d="M358.26,129.06c.98,1.31,2.06,3.64,2.46,5.22"/>
    <path class="cls-4" d="M362.3,142.26c-.41-2.69-.92-5.34-1.58-7.98"/>
    <path class="cls-4" d="M363.46,149.76s-.11-.11-.17-.08"/>
    <path class="cls-4" d="M363.37,152.67c.07,1.16.35,2.47.69,3.57.32,1.06.83,2.39,1.46,3.33"/>
    <path class="cls-4" d="M367.33,240.85c7.75-12.28,12.17-26.08,11.75-40.79"/>
    <path class="cls-4" d="M282.94,280.08c-.77-.75-1.34-1.74-1.29-2.88"/>
    <line class="cls-4" x1="310.04" y1="266.94" x2="316.41" y2="269.98"/>
    <path class="cls-4" d="M301.27,285.81c5.36-2.35,10.58-4.92,15.68-7.78"/>
    <path class="cls-4" d="M301.27,285.81c-2.22.97-4.91,1.27-7.28,1.06-1.25-.11-2.44-.35-3.63-.77-1.13-.4-2.31-1.01-3.18-1.87"/>
    <line class="cls-4" x1="149.09" y1="104.85" x2="147.05" y2="99.03"/>
    <path class="cls-4" d="M149.09,104.85c.18.52.27,1.03.26,1.58"/>
    <path class="cls-4" d="M125.94,115.97c5.36-1.38,10.76-2.55,16.2-3.52"/>
    <path class="cls-4" d="M125.94,115.97c-2.29.59-4.81.61-7.12.16-2.24-.44-4.68-1.41-6.38-3.07"/>
    <path class="cls-4" d="M107.14,107.86c-1.17-1.14-2.03-2.69-1.81-4.43"/>
    <path class="cls-4" d="M87.82,122.34c1.07,1.03,1.92,2.41,1.86,3.99"/>
    <path class="cls-4" d="M91.4,278.63c-.94.75-2.14,1.26-3.28,1.56-1.19.32-2.38.47-3.62.49-2.36.04-4.96-.43-7.1-1.5"/>
    <path class="cls-4" d="M19.36,229.29c6.56,11.15,15.56,20.85,25.45,29.01,9.94,8.21,21.1,15.15,32.59,20.89"/>
    <path class="cls-4" d="M19.36,229.29c-.44-.74-.67-1.59-.53-2.46"/>
    <line class="cls-4" x1="34.8" y1="221.51" x2="26.33" y2="222.2"/>
    <path class="cls-4" d="M257.69,108.58c.44.48,1.09.78,1.69.94.63.17,1.3.22,1.95.15.64-.06,1.3-.25,1.86-.59.54-.33,1.04-.86,1.05-1.56"/>
    <path class="cls-4" d="M284.7,286.09c1.63,1.59,1.74,3.57.13,5.23-1.35,1.39-3.49,2.14-5.29,2.48-1.91.35-3.98.35-5.89,0-1.82-.33-3.92-1.07-5.32-2.42"/>
    <line class="cls-4" x1="226.94" y1="294" x2="228.48" y2="298.52"/>
    <line class="cls-4" x1="259.96" y1="287.54" x2="264.25" y2="291.65"/>
    <path class="cls-4" d="M259.74,299.19c-6.43,1.43-12.89,2.61-19.4,3.57"/>
    <path class="cls-4" d="M240.34,302.76c-2.16.32-4.54.19-6.65-.4-1.06-.3-2.13-.73-3.06-1.34-.9-.59-1.78-1.42-2.15-2.5"/>
    <path class="cls-4" d="M109.63,14.7c-10.37,4.15-20.47,9.37-29.65,15.79-9.14,6.4-17.56,14.13-24.14,23.23"/>
    <path class="cls-4" d="M159.67,300.73c.88-.29,1.78-.72,2.51-1.32.72-.59,1.32-1.41,1.37-2.4"/>
    <path class="cls-4" d="M222.52,102.7c1.6,1.69,4.09,2.59,6.28,2.92,2.27.34,4.77.16,6.95-.64"/>
    <path class="cls-4" d="M269.98,289.29c.97.94,2.39,1.51,3.65,1.81,1.32.31,2.74.41,4.1.29,1.33-.11,2.75-.44,3.96-1.07.6-.31,1.18-.72,1.64-1.23.45-.52.77-1.15.77-1.86"/>
    <path class="cls-4" d="M235.76,104.98c1.12-.41,2.24-1.02,3.11-1.87.87-.85,1.51-1.94,1.54-3.21"/>
    <path class="cls-4" d="M147.95,298.96c1.5,1.33,3.74,2.01,5.64,2.26,1.98.26,4.17.14,6.09-.49"/>
    <line class="cls-4" x1="102.74" y1="108.98" x2="99.13" y2="105.46"/>
    <path class="cls-4" d="M301.54,151.32c-.07-.05-.13-.1-.2-.15"/>
    <path class="cls-4" d="M346.26,100.36c-.17-10.37-2.95-20.31-7.64-29.48-4.67-9.14-11.12-17.3-18.45-24.38-14.66-14.18-33.32-24.62-52.12-31.77"/>
    <path class="cls-4" d="M264.24,107.53c0-.45-.2-.85-.49-1.16"/>
    <path class="cls-4" d="M30.25,178.11c.15-1.49-.72-2.79-1.73-3.7"/>
    <path class="cls-4" d="M163.54,297.01c.06-1.11-.59-2.07-1.36-2.75"/>
    <path class="cls-4" d="M221.1,99.33c-.04,1.3.57,2.46,1.42,3.36"/>
    <path class="cls-4" d="M345.15,230.98c.01.95.47,1.78,1.09,2.44"/>
    <path class="cls-4" d="M284.09,287.22c0-.86-.45-1.6-1.03-2.17"/>
    <line class="cls-4" x1="55.8" y1="67.55" x2="55.47" y2="71"/>
    <path class="cls-4" d="M83.51,107.39c-.11,1.35.59,2.55,1.5,3.42"/>
    <path class="cls-4" d="M104.2,112.33c.1-1.32-.58-2.48-1.47-3.35"/>
    <line class="cls-4" x1="86.19" y1="103.78" x2="87.35" y2="103.37"/>
    <line class="cls-4" x1="92.67" y1="171.59" x2="92.79" y2="170.07"/>
    <path class="cls-4" d="M92.67,171.59c-.14,1.78,1.07,3.25,2.35,4.21,1.33.99,2.99,1.63,4.58,1.99"/>
    <path class="cls-4" d="M5.12,160.8c.53-2.13,1.16-4.23,1.88-6.31.72-2.07,1.53-4.11,2.43-6.11.9-2.01,1.87-3.97,2.93-5.89,1.06-1.93,2.18-3.8,3.38-5.65,4.79-7.36,10.65-14.01,17.11-19.93"/>
    <path class="cls-4" d="M155.43,70.07c-.6.05-1.24.4-1.71.74"/>
    <path class="cls-4" d="M306.75,96.58c.55.28,1.03.72,1.4,1.2"/>
    <path class="cls-4" d="M89.68,126.33c-.04,1.01-.46,1.94-1.09,2.71-.63.76-1.46,1.36-2.33,1.81"/>
    <path class="cls-4" d="M149.35,106.44c-.03,1.79-1.17,3.22-2.52,4.18-1.36.97-3.06,1.55-4.68,1.84"/>
    <path class="cls-4" d="M319.81,273.98c.05.91-.3,1.72-.85,2.41-.54.68-1.27,1.23-2.01,1.64"/>
    <path class="cls-4" d="M97.65,272.06c-.04,1.18-.75,2.15-1.61,2.85"/>
    <path class="cls-4" d="M364.14,150.1c.11-.04.18-.14.23-.24.07-.17.09-.34.11-.52.02-.3,0-.58-.03-.88-.07-.59-.19-1.15-.35-1.72-.3-1.06-.77-2.29-1.34-3.24"/>
    <path class="cls-4" d="M345.41,115.2c.24-.08.55.09.72.21.22.14.41.31.59.49"/>
    <path class="cls-4" d="M.93,184.34c.9-7.95,2.25-15.77,4.2-23.54"/>
    <path class="cls-4" d="M.93,184.34c-1,8.83-.23,17.6,2.14,26.15,2.66,9.6,7.2,18.49,12.93,26.57,5.15,7.25,11.24,13.83,17.86,19.74,7.29,6.52,15.3,12.3,23.64,17.38,15.91,9.7,33.49,17.15,51.23,22.64,17.81,5.51,36.36,9.22,54.88,11.25,18.54,2.04,37.41,2.44,56.02,1.16,18.57-1.27,37.28-4.25,55.26-9.17,9.35-2.56,18.59-5.66,27.54-9.38,8.3-3.44,16.41-7.44,24.13-12.04,8.62-5.15,16.85-11.11,24.2-17.99,6.29-5.89,11.96-12.48,16.57-19.79"/>
    <path class="cls-4" d="M257.2,107.41c0,.45.2.85.49,1.17"/>
    <path class="cls-4" d="M11.8,176.18c-.17,1.51.73,2.83,1.77,3.75"/>
    <path class="cls-4" d="M146.56,296.17c-.06,1.13.6,2.1,1.38,2.79"/>
    <path class="cls-4" d="M362.89,230.66c-.02-.93-.46-1.74-1.07-2.39"/>
    <path class="cls-4" d="M268.93,287.08c-.01.88.45,1.63,1.05,2.2"/>
    <line class="cls-4" x1="236.28" y1="94.69" x2="236.87" y2="94.97"/>
    <line class="cls-4" x1="224.91" y1="94.61" x2="225.52" y2="94.37"/>
    <path class="cls-4" d="M236.87,94.97c1.11.51,2.2,1.22,3.04,2.13"/>
    <line class="cls-4" x1="27.5" y1="173.63" x2="28.14" y2="174.05"/>
    <line class="cls-4" x1="14.72" y1="172.64" x2="15.43" y2="172.37"/>
    <line class="cls-4" x1="161.48" y1="293.71" x2="162.16" y2="294.17"/>
    <line class="cls-4" x1="148.24" y1="293.48" x2="148.96" y2="293.09"/>
    <path class="cls-4" d="M162.16,294.17c.27.19.53.39.78.61"/>
    <line class="cls-4" x1="360.05" y1="226.95" x2="360.74" y2="227.32"/>
    <line class="cls-4" x1="347.18" y1="227.56" x2="347.85" y2="227.17"/>
    <path class="cls-4" d="M346.24,105.48c-.02-.35-.03-.7-.05-1.04"/>
    <line class="cls-4" x1="275.94" y1="200.47" x2="194.35" y2="186.39"/>
    <line class="cls-4" x1="589.04" y1="170.69" x2="300.84" y2="201.13"/>
    <path class="cls-4" d="M168.19,69.73c6.32-.29,12.63-.39,18.95-.29"/>
    <path class="cls-4" d="M240.14,97.35c-.2-.03-.4-.06-.6-.09"/>
    <line class="cls-4" x1="297.9" y1="174.35" x2="589.26" y2="141.11"/>
    <path class="cls-4" d="M173.73,152.92c-1.89.21-3.52,1.15-4.85,2.44-1.32,1.29-2.32,2.9-3.07,4.56-1.5,3.32-2.12,7.18-2.16,10.77-.04,3.65.51,7.42,1.63,10.89,1.09,3.37,2.89,6.94,5.51,9.47"/>
    <path class="cls-4" d="M35.42,221.47c1.67,1.83,3.39,3.61,5.17,5.34,1.78,1.73,3.61,3.4,5.48,5.02,1.87,1.62,3.79,3.19,5.74,4.72,1.96,1.53,3.95,3,5.97,4.43"/>
    <path class="cls-4" d="M175.73,193.92c1.35-.61,2.49-1.57,3.42-2.69"/>
    <path class="cls-4" d="M22.01,171.91c.03-.06.06-.12.1-.19"/>
    <path class="cls-4" d="M177.92,208.43c-3.56.01-7.06-.24-10.58-.78-3.51-.54-6.92-1.36-10.29-2.49-3.38-1.14-6.58-2.55-9.69-4.31-1.55-.88-3.04-1.82-4.49-2.85-1.44-1.02-2.82-2.11-4.15-3.27-1.33-1.17-2.6-2.39-3.8-3.69-1.21-1.3-2.34-2.65-3.4-4.07-2.14-2.85-3.95-5.84-5.5-9.06-3.09-6.4-4.94-13.3-5.67-20.34"/>
    <path class="cls-4" d="M85.27,140.91c1.24,10.2,6.08,19.34,12.57,26.99"/>
    <path class="cls-4" d="M183.59,176.42c0-3.55-.55-7.2-1.66-10.58-1.07-3.28-2.82-6.72-5.33-9.22"/>
    <path class="cls-4" d="M271.01,284.18c-1,.59-2.07,1.58-2.08,2.9"/>
    <path class="cls-4" d="M269.62,285c3.77-2.21,10.11-2.16,13.83.13"/>
    <path class="cls-4" d="M347.85,227.17c-.7.4-1.37.92-1.87,1.56-.51.64-.84,1.41-.83,2.25"/>
    <path class="cls-4" d="M347.18,227.56c3.76-2.18,9.72-2.28,13.56-.24"/>
    <path class="cls-4" d="M15.43,172.37c-.85.33-1.69.79-2.36,1.42-.67.63-1.18,1.44-1.28,2.39"/>
    <path class="cls-4" d="M362.37,142.58c-.07-.09-.14-.18-.2-.27"/>
    <line class="cls-4" x1="284.1" y1="285.58" x2="284.1" y2="285.71"/>
    <path class="cls-4" d="M281.83,276.27s-.1.05-.15.08"/>
    <path class="cls-4" d="M92.82,170.84c.13.95.63,1.8,1.26,2.49.63.69,1.43,1.26,2.25,1.7"/>
    <path class="cls-4" d="M93.85,102.95c-.07.09-.13.17-.2.26"/>
    <path class="cls-4" d="M94.8,103.16c-.06.08-.12.15-.19.23"/>
    <path class="cls-4" d="M230.36,73.19c-2.12-.53-4.24-1.02-6.38-1.47"/>
    <path class="cls-4" d="M84,141.72c1.71,8.7,5.95,16.58,11.46,23.35"/>
    <path class="cls-4" d="M84.4,141.47c.81,3.58,2.05,7.03,3.64,10.33"/>
    <line class="cls-4" x1="346.51" y1="136.7" x2="309.9" y2="149.58"/>
    <path class="cls-4" d="M265.56,294.26c.05,1.46-.97,2.61-2.04,3.36-1.11.77-2.48,1.27-3.77,1.56"/>
    <path class="cls-4" d="M281.65,277.19c.01-.28.03-.57.04-.85"/>
    <line class="cls-4" x1="364.14" y1="150.1" x2="363.22" y2="150.42"/>
    <path class="cls-4" d="M155.43,70.07c25.68-2.27,52.08-1.24,77.51,3.01,25.27,4.23,50.83,11.87,73.81,23.5"/>
    <path class="cls-4" d="M49.48,83.92c1.78-2.45,3.27-4.88,4.37-7.72,1.09-2.82,1.66-5.66,1.95-8.65"/>
    <path class="cls-4" d="M32.86,116.91c1.29-6.08,3.11-12.09,5.98-17.65,1.47-2.84,3.08-5.33,4.97-7.9,1.85-2.51,3.83-4.91,5.66-7.43"/>
    <line class="cls-4" x1="96.11" y1="165.06" x2="95.99" y2="166.58"/>
    <path class="cls-4" d="M87.48,103.33c-.93.32-1.85.8-2.59,1.47-.74.67-1.29,1.55-1.38,2.58"/>
    <path class="cls-4" d="M322.36,152.79c-.01-.81-.08-1.62-.17-2.42"/>
    <path class="cls-4" d="M99.13,105.46c-.53-.52-1.12-.93-1.77-1.29"/>
    <path class="cls-4" d="M346.72,115.9c4.18,4.12,8.03,8.46,11.54,13.16"/>
    <path class="cls-4" d="M363.46,149.76c.14.14.43.43.68.34"/>
    <path class="cls-4" d="M82.8,100.94c-18.77,7.18-37.5,17.32-52.57,31-7.55,6.85-14.3,14.72-19.47,23.57-5.19,8.88-8.67,18.55-9.83,28.83"/>
    <path class="cls-4" d="M346.75,130.88c-.74-.88-1.37-2.04-1.75-3.11-.19-.54-.36-1.17-.41-1.74-.03-.3-.03-.59.03-.89.06-.28.19-.59.49-.7"/>
    <path class="cls-4" d="M73.87,245.95c4.5,3.95,9.34,7.53,14.38,10.76,5.66,3.63,11.53,6.8,17.62,9.64,11.48,5.35,23.66,9.44,35.96,12.42,24.46,5.92,50.63,7.73,75.67,5.45,6.36-.58,12.66-1.42,18.95-2.55,6.22-1.12,12.36-2.51,18.44-4.21,12.14-3.4,24.2-8.09,35.21-14.32,5.76-3.26,11.31-6.99,16.42-11.23,4.65-3.86,8.97-8.18,12.69-12.97,4.1-5.27,7.45-11.08,9.69-17.4,2.02-5.71,3.05-11.65,2.99-17.72"/>
    <line class="cls-4" x1="282.94" y1="280.08" x2="287.18" y2="284.23"/>
    <line class="cls-4" x1="112.45" y1="113.06" x2="107.14" y2="107.86"/>
    <path class="cls-4" d="M74.19,137.89c-1.99,1.31-4.61,1.81-6.91,1.82-2.37.01-4.87-.48-7.02-1.51"/>
    <line class="cls-4" x1="60.26" y1="138.2" x2="52.72" y2="134.58"/>
    <path class="cls-4" d="M52.72,134.58c-1.22-.59-2.43-1.4-3.32-2.46-.89-1.05-1.49-2.39-1.27-3.83"/>
    <line class="cls-4" x1="91.4" y1="278.63" x2="96.04" y2="274.91"/>
    <line class="cls-4" x1="100.77" y1="106.44" x2="104.38" y2="109.96"/>
    <line class="cls-4" x1="86.75" y1="116.63" x2="83.12" y2="113.13"/>
    <path class="cls-4" d="M83.12,113.13c-.73-.7-1.36-1.57-1.68-2.55-.32-1-.3-2.04.11-3.01.8-1.95,2.83-3.16,4.64-3.79"/>
    <path class="cls-4" d="M268.33,291.38c-.94-.91-1.57-2.13-1.21-3.5.34-1.29,1.44-2.25,2.5-2.87"/>
    <path class="cls-4" d="M29.27,174.91c.8.71,1.5,1.62,1.8,2.69.31,1.1.13,2.18-.49,3.13-.59.93-1.51,1.62-2.46,2.11-.97.5-2.03.84-3.09,1.04-2.12.41-4.41.35-6.51-.1-2.05-.43-4.26-1.31-5.87-2.74"/>
    <path class="cls-4" d="M12.65,181.05c-.67-.6-1.28-1.32-1.64-2.16-.37-.85-.46-1.77-.19-2.67.55-1.81,2.32-2.96,3.9-3.57"/>
    <path class="cls-4" d="M162.94,294.78c.71.64,1.33,1.48,1.48,2.47.15,1.03-.25,1.95-.91,2.69-1.28,1.44-3.46,2.17-5.22,2.48-1.91.33-3.96.3-5.85-.06-1.82-.35-3.88-1.08-5.32-2.36"/>
    <path class="cls-4" d="M147.11,300c-.99-.88-1.79-2.13-1.47-3.57.3-1.37,1.49-2.35,2.6-2.95"/>
    <path class="cls-4" d="M362.71,228.78c1.63,1.75,1.55,3.85-.08,5.57-1.41,1.49-3.6,2.33-5.51,2.72-2.01.41-4.18.44-6.2.07-1.91-.35-4.13-1.15-5.54-2.64"/>
    <path class="cls-4" d="M345.39,234.51c-1-1.06-1.52-2.42-1.03-3.89.46-1.36,1.65-2.38,2.81-3.06"/>
    <path class="cls-4" d="M226.94,294c-.14-.4-.19-.78-.17-1.2"/>
    <path class="cls-4" d="M13.56,179.93c1.19,1.06,2.76,1.78,4.26,2.21,1.54.44,3.18.64,4.78.58,1.57-.06,3.24-.38,4.68-1.07,1.37-.66,2.8-1.84,2.97-3.55"/>
    <path class="cls-4" d="M346.24,233.42c1.12,1.18,2.81,1.88,4.33,2.24,1.59.37,3.29.46,4.91.28,1.59-.17,3.28-.62,4.69-1.44.7-.41,1.38-.92,1.89-1.57.51-.65.85-1.42.83-2.27"/>
    <line class="cls-4" x1="85.02" y1="110.81" x2="88.65" y2="114.32"/>
    <path class="cls-4" d="M94.88,168.25c.56-.38,1.05-.95,1.11-1.68"/>
    <path class="cls-4" d="M156.17,70.22c-.22-.14-.49-.17-.74-.15"/>
    <path class="cls-4" d="M305.57,96.33c.41-.06.83.07,1.18.25"/>
    <path class="cls-4" d="M379.08,200.06c-.07-2.39-.26-4.76-.58-7.14"/>
    <path class="cls-4" d="M98.55,104.82c.81.45,1.55.96,2.22,1.61"/>
    <path class="cls-4" d="M331.88,203.83c-.02-1.99-.16-3.96-.41-5.93"/>
    <path class="cls-4" d="M48.13,128.3c.22-1.49,1.22-2.64,2.38-3.45"/>
    <path class="cls-4" d="M345.11,124.43c.37-.13.82.12,1.09.31"/>
    <path class="cls-4" d="M28.14,174.05c.4.26.78.55,1.13.86"/>
    <path class="cls-4" d="M360.74,227.32c.72.38,1.41.87,1.98,1.47"/>
    <line class="cls-4" x1="282.07" y1="284.28" x2="283.45" y2="285.13"/>
    <line class="cls-4" x1="269.62" y1="285" x2="271.01" y2="284.18"/>
    <path class="cls-4" d="M48.5,192.08c-1,10.5,1.36,20.62,6.11,29.89,4.71,9.2,11.59,17.22,19.27,23.97"/>
    <path class="cls-4" d="M110.51,179.79c8.82,6.7,18.95,11.92,29.25,15.81"/>
    <path class="cls-4" d="M105.64,178.64c1.58-.17,3.55.15,4.87,1.16"/>
    <path class="cls-4" d="M97.84,167.91c.36.43.61.96.57,1.55"/>
    <path class="cls-4" d="M166.72,145.43c-.24-.24-.57-.43-.93-.39"/>
    <path class="cls-4" d="M181.34,156.09c-1.97-1.96-4.63-3.51-7.61-3.17"/>
    <path class="cls-4" d="M169.18,196.36c-.23-.22-.54-.39-.88-.36"/>
    <path class="cls-4" d="M167.91,200.58c.23.22.54.39.88.36"/>
    <path class="cls-4" d="M172.34,170.97c-2.76.99-5.74,1.65-8.64,2.01"/>
    <path class="cls-4" d="M172.34,170.97c-2.77.99-5.73,1.65-8.64,2.02"/>
    <path class="cls-4" d="M182.43,184.84c.52-1.73.84-3.47,1.01-5.26"/>
    <path class="cls-4" d="M165.6,121.76c-.45,1.68-.88,4.05-1.06,5.78"/>
    <line class="cls-4" x1="96.01" y1="173.46" x2="96.3" y2="169.65"/>
    <path class="cls-4" d="M98.4,169.45c-.05.65-.44,1.17-.92,1.54"/>
    <path class="cls-4" d="M186.43,205.42c11.07.71,22.31.37,33.31-1.09,10.96-1.45,21.97-4.05,32.33-7.99"/>
    <path class="cls-4" d="M97.46,167.46c-.62.57-1.09,1.32-1.16,2.2"/>
    <path class="cls-4" d="M190.1,201.84h-.1"/>
    <path class="cls-4" d="M165.44,149.58c.24.24.56.42.92.38"/>
    <path class="cls-4" d="M179.15,191.24c.7-.83,1.28-1.72,1.78-2.68"/>
    <path class="cls-4" d="M96.01,173.46c.08-1.03.71-1.86,1.47-2.46"/>
    <line class="cls-4" x1="178.15" y1="194.08" x2="176.55" y2="194.24"/>
    <path class="cls-4" d="M180.93,188.55c.63-1.19,1.11-2.43,1.49-3.72"/>
    <path class="cls-4" d="M166.36,149.97c.46-.05.77-.45.94-.83.18-.4.25-.85.26-1.28,0-.8-.24-1.82-.85-2.42"/>
    <path class="cls-4" d="M356.85,146.37c-.11.18-.13.46-.13.66"/>
    <line class="cls-4" x1="357.77" y1="155.24" x2="359.5" y2="157.23"/>
    <line class="cls-4" x1="360.63" y1="149.11" x2="360.65" y2="150.59"/>
    <line class="cls-4" x1="354.33" y1="126.11" x2="348.9" y2="119.77"/>
    <path class="cls-4" d="M348.9,119.77c-.42-.5-.93-1-1.48-1.37-.52-.35-1.23-.67-1.9-.45"/>
    <path class="cls-4" d="M345.81,141.49c.13.15.42.44.68.35"/>
    <line class="cls-4" x1="310.37" y1="151.3" x2="310.38" y2="149.41"/>
    <path class="cls-4" d="M307.89,151.19c-.42-.47-.73-1.21-.88-1.8"/>
    <line class="cls-4" x1="307.89" y1="151.19" x2="310.35" y2="153.93"/>
    <path class="cls-4" d="M321.54,159.3c0-.2.03-.48.15-.66"/>
    <line class="cls-4" x1="321.52" y1="164.74" x2="321.54" y2="159.3"/>
    <path class="cls-4" d="M322.52,167.47c-.58-.64-1-1.88-1-2.73"/>
    <line class="cls-4" x1="309.7" y1="150.56" x2="310.37" y2="151.3"/>
    <line class="cls-4" x1="327.72" y1="169.04" x2="327.73" y2="168.77"/>
    <path class="cls-4" d="M326.72,169.54c.14.15.42.42.67.33"/>
    <path class="cls-4" d="M347.57,123.81c-.42.15-.73.44-.97.8"/>
    <path class="cls-4" d="M346.49,141.84c.15-.05.23-.22.26-.36.04-.15.05-.3.05-.46"/>
    <path class="cls-4" d="M311.05,154.27c-.27.09-.56-.19-.7-.34"/>
    <path class="cls-4" d="M359.59,150.22c.13-.04.27.1.33.17"/>
    <line class="cls-4" x1="327.4" y1="169.87" x2="325.6" y2="170.49"/>
    <path class="cls-4" d="M327.4,169.87c.16-.05.23-.22.27-.36.04-.15.06-.31.06-.46"/>
    <path class="cls-4" d="M325.6,170.49c-.26.09-.54-.18-.68-.33"/>
    <line class="cls-4" x1="326.07" y1="168.81" x2="326.72" y2="169.54"/>
    <path class="cls-4" d="M194.35,186.39c-1.35-.23-2.52-.91-3.48-1.85"/>
    <path class="cls-4" d="M290.81,161.68c.24-.08.46-.19.66-.34"/>
    <path class="cls-4" d="M288.39,161.67c.75.27,1.67.27,2.42,0"/>
    <line class="cls-4" x1="290.81" y1="161.68" x2="289.6" y2="162.11"/>
    <line class="cls-4" x1="289.6" y1="162.11" x2="288.39" y2="161.67"/>
    <line class="cls-4" x1="288.39" y1="161.67" x2="287.55" y2="161.38"/>
    <line class="cls-4" x1="289.59" y1="164.1" x2="289.6" y2="162.11"/>
    <line class="cls-4" x1="289.59" y1="164.1" x2="292.01" y2="163.25"/>
    <line class="cls-4" x1="292.01" y1="163.25" x2="292.02" y2="161.53"/>
    <line class="cls-4" x1="287.16" y1="161.52" x2="287.16" y2="163.23"/>
    <line class="cls-4" x1="287.16" y1="163.23" x2="289.59" y2="164.1"/>
    <path class="cls-4" d="M294.23,156.16c.42.45.71,1.01.71,1.64"/>
    <path class="cls-4" d="M294.93,161.83c0,1.06-.67,1.91-1.48,2.47-.82.56-1.83.88-2.8,1-.98.13-2.02.07-2.98-.17-.94-.24-1.91-.69-2.6-1.41"/>
    <line class="cls-4" x1="294.94" y1="157.8" x2="294.93" y2="161.83"/>
    <path class="cls-4" d="M285.07,163.71c-.5-.53-.83-1.19-.82-1.94"/>
    <line class="cls-4" x1="284.25" y1="161.77" x2="284.28" y2="157.75"/>
    <path class="cls-4" d="M287.72,161.32c.21.16.43.27.67.35"/>
    <line class="cls-4" x1="287.17" y1="161.51" x2="287.16" y2="163.23"/>
    <line class="cls-4" x1="291.63" y1="161.39" x2="290.81" y2="161.68"/>
    <path class="cls-4" d="M188.03,171.37c-.37-2.78-1.07-5.58-2.15-8.18-1.05-2.55-2.55-5.12-4.54-7.1"/>
    <path class="cls-4" d="M322.41,156.6c-.02-1.27-.04-2.54-.06-3.81"/>
    <path class="cls-4" d="M286.39,174.74c6.7-6.56,12.15-14.52,14.76-23.72"/>
    <path class="cls-4" d="M296.35,160.66c1.84-3.14,3.35-6.45,4.44-9.93"/>
    <line class="cls-4" x1="322.47" y1="152.75" x2="322.36" y2="152.79"/>
    <path class="cls-4" d="M378.75,192.9c.15,2.38.26,4.77.33,7.16"/>
    <path class="cls-4" d="M369.5,166.18c-1.24-2.26-2.57-4.46-3.99-6.61"/>
    <path class="cls-4" d="M165.77,69.33c.82-.11,1.63-.22,2.45-.31"/>
    <path class="cls-4" d="M86.63,121.46c.02-.07.04-.14.06-.21"/>
    <line class="cls-4" x1="360.22" y1="150.74" x2="359.92" y2="150.4"/>
    <path class="cls-4" d="M309.05,149.45c.15.38.38.8.65,1.11"/>
    <line class="cls-4" x1="344.04" y1="137.57" x2="344.04" y2="139.46"/>
    <path class="cls-4" d="M344.52,135.97c-17.17-14.98-38.28-26.16-59.37-34.06-21.38-8-44.18-13.19-66.8-15.85-22.69-2.67-45.97-2.88-68.71-.54-22.6,2.33-45.54,7.28-66.84,15.43"/>
    <path class="cls-4" d="M347.26,132.11c.04.84.08,1.69.11,2.53"/>
    <path class="cls-4" d="M86.26,130.85c-4.15,2.15-8.17,4.48-12.08,7.04"/>
    <path class="cls-4" d="M104.38,109.96c.81.79,1.49,1.78,1.74,2.93.26,1.17.02,2.3-.61,3.3-.62.98-1.55,1.73-2.54,2.28-1,.56-2.12.94-3.23,1.18-2.22.48-4.64.45-6.86-.03-2.16-.46-4.48-1.42-6.12-3"/>
    <path class="cls-4" d="M221.59,103.86c-1.42-1.5-2.08-3.49-1.16-5.49.85-1.85,2.73-3.07,4.49-3.76"/>
    <path class="cls-4" d="M156.51,70.5c1.71-.15,3.43-.28,5.14-.4"/>
    <path class="cls-4" d="M88.65,114.32c1.09,1.05,2.56,1.76,3.98,2.17,1.45.42,3.02.59,4.53.5,1.49-.09,3.06-.44,4.39-1.17,1.29-.7,2.53-1.88,2.65-3.5"/>
    <line class="cls-4" x1="97.35" y1="104.17" x2="98.55" y2="104.82"/>
    <path class="cls-4" d="M32.86,116.91s0,0,0,0c0,0,.01,0,.02,0,0,0,.02,0,.02.01.01,0,.03.02.05.03.03.02.06.03.09.05"/>
    <path class="cls-4" d="M176.61,156.62c-1.42-1.41-3.19-2.6-5.21-3.04"/>
    <path class="cls-4" d="M178.15,194.08c1.62-.16,3.06-.86,4.29-1.87,1.22-1.01,2.21-2.3,2.98-3.67,1.54-2.73,2.37-5.98,2.71-9.05"/>
    <path class="cls-4" d="M168.79,200.94c.47-.05.79-.45.97-.83.19-.4.27-.86.28-1.29.02-.8-.22-1.86-.85-2.46"/>
    <path class="cls-4" d="M356.85,146.37c.26-.41.41-.85.53-1.31.16-.63.23-1.26.25-1.9.05-1.12-.04-2.22-.19-3.33-.31-2.17-.92-4.41-1.69-6.46-.76-2.03-1.78-4.16-3.01-5.95-.61-.9-1.34-1.81-2.17-2.53-.48-.42-1.04-.82-1.66-1.03-.43-.15-.9-.19-1.34-.03"/>
    <line class="cls-4" x1="356.77" y1="152.49" x2="356.72" y2="147.03"/>
    <path class="cls-4" d="M356.77,152.49c0,.85.44,2.1,1.01,2.75"/>
    <line class="cls-4" x1="344.04" y1="139.46" x2="345.81" y2="141.49"/>
    <line class="cls-4" x1="346.78" y1="136.55" x2="346.8" y2="141.02"/>
    <line class="cls-4" x1="344.04" y1="139.46" x2="310.37" y2="151.3"/>
    <path class="cls-4" d="M284.28,157.75c0-1.05.81-1.85,1.62-2.33.84-.5,1.85-.77,2.81-.87.97-.1,2-.03,2.95.21.92.24,1.9.68,2.57,1.4"/>
    <line class="cls-4" x1="289.59" y1="160.66" x2="287.16" y2="161.52"/>
    <line class="cls-4" x1="292.02" y1="161.53" x2="289.59" y2="160.66"/>
    <path class="cls-4" d="M300.84,201.13c-8.27.87-16.69.75-24.91-.67"/>
    <line class="cls-4" x1="198.61" y1="160.92" x2="280.34" y2="174.1"/>
    <path class="cls-4" d="M280.34,174.1c5.79.93,11.76.92,17.56.26"/>
    <path class="cls-4" d="M190.88,184.54c-1.81-1.78-2.75-4.37-3.09-6.77-.36-2.48-.15-5.1.52-7.5.66-2.38,1.85-4.77,3.57-6.6.86-.91,1.88-1.7,3.04-2.22,1.16-.52,2.42-.74,3.69-.53"/>
    <line class="cls-4" x1="346.49" y1="141.84" x2="311.05" y2="154.27"/>
    <path class="cls-4" d="M346.46,124.82c-.73,1.28-.77,3.26-.7,4.62"/>
    <line class="cls-4" x1="322.52" y1="167.47" x2="324.93" y2="170.16"/>
    <path class="cls-4" d="M321.69,158.64c.73-1.11.88-2.83.88-4.06,0-1.38-.19-2.83-.46-4.18"/>
    <line class="cls-4" x1="326.07" y1="168.81" x2="359.5" y2="157.23"/>
    <path class="cls-4" d="M359.32,139.76c-.03-2.36-.67-5.02-1.46-7.2-.78-2.16-2-4.67-3.52-6.45"/>
    <line class="cls-4" x1="359.36" y1="144.23" x2="359.32" y2="139.76"/>
    <line class="cls-4" x1="360.63" y1="149.11" x2="359.36" y2="144.23"/>
    <path class="cls-4" d="M359.43,150.63c0-.11,0-.36.15-.41"/>
    <line class="cls-4" x1="359.5" y1="157.23" x2="359.43" y2="150.63"/>
    <path class="cls-4" d="M168.3,196c-.47.05-.79.45-.97.83-.19.4-.27.86-.28,1.29-.02.8.22,1.86.85,2.46"/>
    <path class="cls-4" d="M165.79,145.04c-.46.05-.77.46-.94.83-.18.4-.25.85-.26,1.28,0,.8.24,1.82.85,2.42"/>
    <path class="cls-4" d="M163.7,169.24c3.07-.36,6.25-1.05,9.17-2.1"/>
    <line class="cls-4" x1="172.88" y1="167.13" x2="181.31" y2="164.11"/>
    <line class="cls-4" x1="176" y1="193.79" x2="183.05" y2="170.31"/>
    <path class="cls-4" d="M344.52,135.97c.28.25.57.46.92.61.32.15.72.24,1.07.12"/>
    <path class="cls-4" d="M346.21,124.74c.06.05.18.11.27.08"/>
    <path class="cls-4" d="M345.22,116.63c.59,2.58,1.04,5.18,1.37,7.8"/>
    <path class="cls-4" d="M345.22,116.63c-.06-.25-.1-.5-.1-.77,0-.21.03-.57.29-.66"/>
    <path class="cls-4" d="M362.3,142.26c.06.38.25.9.45,1.24"/>
    <path class="cls-4" d="M363.37,152.67c-.05-.86-.11-1.72-.18-2.58"/>
    <path class="cls-4" d="M301.35,151.17c-4.57-3.57-9.36-6.76-14.36-9.69-5.57-3.25-11.3-6.11-17.21-8.66-11.19-4.83-22.96-8.51-34.83-11.19-23.62-5.32-48.73-6.86-72.83-4.61-12.1,1.13-24.24,3.24-35.98,6.46-11.7,3.21-23.31,7.61-34.01,13.42-5.62,3.05-11.05,6.52-16.1,10.46-4.57,3.56-8.86,7.53-12.65,11.92-4.23,4.9-7.84,10.33-10.49,16.27-2.34,5.26-3.85,10.78-4.4,16.52"/>
    <path class="cls-4" d="M285.3,273.09c4.05-1.8,8.02-3.75,11.9-5.89"/>
    <path class="cls-4" d="M297.2,267.2c1.9-1.05,4.26-1.5,6.39-1.54,2.14-.04,4.49.34,6.45,1.28"/>
    <path class="cls-4" d="M316.41,269.98c.81.39,1.62.91,2.25,1.56.63.66,1.11,1.48,1.15,2.43"/>
    <path class="cls-4" d="M111.34,98.15c7.22-1.88,14.48-3.42,21.83-4.67"/>
    <path class="cls-4" d="M133.17,93.48c2.59-.44,5.42-.23,7.91.61,1.25.42,2.48,1.02,3.54,1.82,1.04.79,1.98,1.84,2.43,3.11"/>
    <line class="cls-4" x1="87.82" y1="122.34" x2="82.46" y2="117.2"/>
    <path class="cls-4" d="M66.45,115.22c-5.51,2.91-10.81,6.08-15.94,9.62"/>
    <path class="cls-4" d="M66.45,115.22c2.47-1.31,5.6-1.61,8.3-1.29,1.41.16,2.8.5,4.12,1.03,1.29.52,2.58,1.26,3.6,2.23"/>
    <path class="cls-4" d="M34.8,221.51c2.15-.17,4.43.08,6.48.75,1.02.33,2.06.79,2.96,1.38.89.58,1.76,1.35,2.3,2.29"/>
    <path class="cls-4" d="M94.13,267.58c-9.45-4.84-18.62-10.65-26.77-17.51-8.11-6.82-15.46-14.89-20.81-24.14"/>
    <path class="cls-4" d="M94.13,267.58c.87.44,1.74,1.04,2.4,1.78.66.74,1.15,1.66,1.12,2.71"/>
    <path class="cls-4" d="M263.75,106.37c-.44-.48-1.09-.78-1.69-.95-.63-.17-1.3-.22-1.95-.16-.64.06-1.3.25-1.86.59-.54.33-1.04.86-1.06,1.56"/>
    <path class="cls-4" d="M239.91,97.09c1.72,1.84,2.13,4.21.6,6.34-1.36,1.89-3.76,2.97-5.89,3.45-2.24.51-4.67.52-6.92.06-2.17-.44-4.54-1.42-6.12-3.09"/>
    <path class="cls-4" d="M248.13,285.21c-4.86,1.1-9.75,2.03-14.68,2.8"/>
    <path class="cls-4" d="M248.13,285.21c2-.45,4.19-.49,6.2-.16,1.91.32,4.16,1.07,5.63,2.48"/>
    <path class="cls-4" d="M264.25,291.65c.71.68,1.28,1.57,1.31,2.62"/>
    <path class="cls-4" d="M162.19,294.26c-.22-.2-.46-.38-.7-.55"/>
    <path class="cls-4" d="M361.82,228.27c-.5-.54-1.13-.98-1.78-1.32"/>
    <path class="cls-4" d="M183.44,179.57c.1-1.05.15-2.1.15-3.15"/>
    <path class="cls-4" d="M232,73.46c18.95,3.13,37.91,8.16,55.78,15.28"/>
    <path class="cls-4" d="M224.59,94.79s-.05,0-.08-.01"/>
    <path class="cls-4" d="M197.09,186.11c-.33,1.13-.66,2.25-1,3.38-.43,1.46-.7,2.4-1.25,3.82-.94,2.48-2.16,4.94-3.69,7.12-1.52,2.18-3.41,4.18-5.66,5.64-2.27,1.48-4.83,2.34-7.57,2.35"/>
    <path class="cls-4" d="M322.63,171.53c-.02-1.36-.04-2.72-.06-4.08"/>
    <path class="cls-4" d="M94.88,168.25c-1.11.76-2.09,1.89-2.21,3.34"/>
    <path class="cls-4" d="M170.79,191.05c1.93,1.86,4.49,3.32,7.36,3.03"/>
    <path class="cls-4" d="M55.85,53.72c.23,2.62.4,5.24.41,7.87,0,1.31-.02,2.63-.1,3.94-.08,1.31-.21,2.62-.41,3.92-.41,2.63-1.08,5.12-2.15,7.56-1.07,2.44-2.44,4.63-4,6.78"/>
    <path class="cls-4" d="M150.46,291.6c3.23.51,6.47.97,9.71,1.37"/>
    <path class="cls-4" d="M105.64,178.64c-1.97.22-4.13-.05-5.96-.82-.91-.38-1.83-.92-2.53-1.64-.7-.71-1.22-1.66-1.14-2.72"/>
    <line class="cls-4" x1="308.36" y1="148.92" x2="301.54" y2="151.32"/>
    <path class="cls-4" d="M328.72,170.84c-.48-.78-.87-1.68-1.16-2.54"/>
    <path class="cls-4" d="M28.52,174.41c-.32-.29-.66-.54-1.02-.78"/>
    <path class="cls-4" d="M239.01,96.6c-.76-.82-1.74-1.45-2.74-1.91"/>
    <path class="cls-4" d="M283.07,285.05c-.3-.3-.64-.54-1-.77"/>
    <line class="cls-4" x1="42" y1="93.98" x2="42.71" y2="86.92"/>
    <path class="cls-4" d="M346.26,100.36c.02,1.11.07,2.23.16,3.34.05.56.11,1.11.19,1.66.06.43.19,1.22.31,1.64"/>
    <path class="cls-4" d="M346.92,107s0,0,0,0c0,0,0,0,0-.01,0-.01,0-.03-.01-.04-.02-.05-.03-.1-.05-.15-.03-.07-.05-.13-.08-.2-.06-.13-.11-.27-.17-.4-.12-.26-.25-.52-.39-.77"/>
    <path class="cls-4" d="M346.2,105.42s0,0,0,0c0,0,0,0,0,0,0,.01.01.02.02.04.03.06.07.12.11.17.2.31.4.61.6.91.49.73.98,1.45,1.48,2.18.82,1.21,1.65,2.42,2.47,3.63,1.56,2.32,3.08,4.66,4.55,7.04,2.95,4.76,5.67,9.62,8.12,14.66,4.94,10.12,8.66,20.55,11.23,31.52"/>
    <path class="cls-4" d="M86.19,103.78c3.84-1.33,8.79-.91,12.36,1.05"/>
    <path class="cls-4" d="M243.79,75.65c-1.33-.47-2.66-.91-4-1.34"/>
    <path class="cls-4" d="M187.2,68.05c-8.54.05-17.12.72-25.55,2.06"/>
    <path class="cls-4" d="M96.11,165.06c-.02.31-.12.58-.28.84"/>
    <path class="cls-4" d="M95.99,166.58c.04-.57-.19-1.09-.53-1.51"/>
    <path class="cls-4" d="M105.33,103.43c.19-1.46,1.09-2.64,2.2-3.49,1.11-.86,2.48-1.44,3.81-1.78"/>
    <path class="cls-4" d="M226.77,292.8c.05-.75.38-1.43.84-1.99.46-.56,1.07-1.03,1.69-1.39,1.24-.73,2.74-1.17,4.15-1.39"/>
    <path class="cls-4" d="M281.65,277.2c.05-.99.58-1.86,1.25-2.53.68-.67,1.54-1.19,2.4-1.57"/>
    <path class="cls-4" d="M18.83,226.83c.25-1.64,1.63-2.78,2.96-3.45,1.39-.7,3.01-1.06,4.54-1.18"/>
    <path class="cls-4" d="M346.5,136.7c.4-.14.62-.51.74-.88.12-.37.14-.79.13-1.18"/>
    <path class="cls-4" d="M309.9,149.58c-.57.2-1.21-.33-1.54-.66"/>
    <line class="cls-4" x1="359.44" y1="151.01" x2="363.27" y2="149.68"/>
    <path class="cls-4" d="M363.29,149.68c-.07.02-.09.14-.09.19,0,.08,0,.15,0,.22"/>
    <line class="cls-4" x1="346.48" y1="124.82" x2="344.58" y2="125.49"/>
    <path class="cls-4" d="M346.48,124.82c.07-.03.1-.11.11-.17.01-.07,0-.14,0-.21"/>
    <path class="cls-4" d="M240.4,99.9c.03-1.27-.56-2.41-1.39-3.3"/>
    <path class="cls-4" d="M224.91,94.61c3.66-1.44,8.39-1.3,11.96.36"/>
    <path class="cls-4" d="M225.52,94.37c-1.07.42-2.13,1.03-2.95,1.86-.83.83-1.42,1.89-1.46,3.1"/>
    <path class="cls-4" d="M14.72,172.64c4.06-1.58,9.77-.99,13.41,1.4"/>
    <path class="cls-4" d="M148.24,293.48c2.08-1.13,4.76-1.48,7.04-1.36,2.29.11,4.92.72,6.88,2.05"/>
    <path class="cls-4" d="M148.96,293.09c-1.11.6-2.32,1.64-2.4,3.08"/>
    <path class="cls-4" d="M283.45,285.13c.45.28.87.59,1.25.96"/>
    <path class="cls-4" d="M286.39,174.74c6.54-6.86,11.62-15.15,13.58-24.62"/>
  </g>
  <g id="Make2D::可见线::正切线">
    <path class="cls-4" d="M164.32,128.59c-1.5,4.84-2.99,9.68-4.49,14.52-.74,2.38-1.47,4.76-2.21,7.15-.37,1.2-.76,2.4-1.08,3.62-.33,1.27-.61,2.56-.84,3.85-.88,4.98-1.04,10.12-.63,15.14.21,2.56.56,5.08,1.08,7.59.5,2.46,1.15,4.88,1.96,7.26.86,2.52,1.88,4.94,3.14,7.29,1.13,2.11,2.47,4.17,4.02,6.01,1.76,2.09,3.83,3.94,6.27,5.24,2.07,1.1,4.32,1.75,6.69,1.74,2.43,0,4.74-.69,6.82-1.9,2.32-1.35,4.28-3.28,5.85-5.41,1.43-1.93,2.59-4.08,3.52-6.28.51-1.21.95-2.44,1.34-3.69.2-.65.39-1.3.58-1.95l.57-1.93"/>
    <path class="cls-4" d="M49.6,83.78c-1.84,2.54-3.83,4.95-5.69,7.48-1.9,2.59-3.51,5.09-4.97,7.96-2.85,5.6-4.64,11.69-5.89,17.79"/>
    <line class="cls-4" x1="183.29" y1="171.8" x2="176.83" y2="193.32"/>
    <line class="cls-4" x1="359.35" y1="143.29" x2="362.3" y2="142.26"/>
    <line class="cls-4" x1="283.07" y1="285.05" x2="284.7" y2="286.09"/>
    <path class="cls-4" d="M172.49,167.92c.01-.25.08-.68.39-.79"/>
    <line class="cls-4" x1="168.21" y1="69.21" x2="169.81" y2="38.99"/>
    <path class="cls-4" d="M308.15,97.78c-23.38-11.99-49.53-19.83-75.31-24.13-25.95-4.32-52.93-5.3-79.13-2.85"/>
    <line class="cls-4" x1="190.27" y1=".51" x2="187.16" y2="68.93"/>
    <line class="cls-4" x1="357.77" y1="155.24" x2="322.52" y2="167.47"/>
    <line class="cls-4" x1="310.35" y1="153.93" x2="345.81" y2="141.49"/>
    <line class="cls-4" x1="321.69" y1="158.64" x2="356.85" y2="146.37"/>
    <line class="cls-4" x1="356.72" y1="147.03" x2="321.54" y2="159.3"/>
    <line class="cls-4" x1="321.52" y1="164.74" x2="356.77" y2="152.49"/>
    <path class="cls-4" d="M177.92,208.43c-1.83,0-3.59-.37-5.27-1.06-1.88-.77-3.6-1.89-5.13-3.22-1.38-1.2-2.58-2.54-3.69-3.99-1.23-1.62-2.28-3.31-3.23-5.1-1.78-3.37-3.14-7.03-4.14-10.7-1.01-3.72-1.65-7.46-1.97-11.3-.16-1.93-.24-3.86-.22-5.8.01-1.9.11-3.79.31-5.68.2-1.96.5-3.9.92-5.83.2-.93.43-1.85.69-2.77.25-.88.53-1.75.8-2.62,1.13-3.66,2.26-7.32,3.4-10.98,1.13-3.66,2.26-7.32,3.4-10.98"/>
    <path class="cls-4" d="M178.96,191.47c.83-2.16,2.31-4.65,3.47-6.63"/>
    <path class="cls-4" d="M256.92,78.14c0-2.44-.1-4.88-.33-7.31-.23-2.49-.58-4.95-1.06-7.41-.46-2.39-1.03-4.74-1.73-7.06-.72-2.41-1.56-4.77-2.56-7.08-.96-2.22-2.03-4.37-3.28-6.44-1.3-2.18-2.75-4.22-4.43-6.13-1.6-1.82-3.4-3.5-5.39-4.9-2.05-1.44-4.31-2.57-6.73-3.24-2.5-.69-5.07-.85-7.63-.44-2.36.37-4.59,1.2-6.65,2.37-2.19,1.24-4.17,2.83-5.92,4.63-1.71,1.75-3.17,3.64-4.49,5.7-1.35,2.1-2.49,4.28-3.48,6.57-.98,2.26-1.79,4.57-2.46,6.94-.67,2.37-1.19,4.77-1.57,7.21-.38,2.45-.62,4.91-.72,7.39"/>
    <line class="cls-4" x1="363.19" y1="150.09" x2="359.44" y2="151.4"/>
    <line class="cls-4" x1="301.35" y1="151.17" x2="344.52" y2="135.97"/>
    <path class="cls-4" d="M195.68,68.55c.11-2.61.38-5.18.81-7.75.43-2.56,1.02-5.07,1.78-7.56.76-2.47,1.67-4.86,2.78-7.19,1.13-2.38,2.42-4.63,3.94-6.78,2.97-4.19,6.82-7.94,11.51-10.24,2.23-1.1,4.61-1.84,7.09-2.15,2.72-.33,5.42-.13,8.06.59,2.57.69,4.98,1.84,7.19,3.3,2.12,1.4,4.06,3.08,5.8,4.93,1.84,1.95,3.45,4.05,4.9,6.31,1.37,2.13,2.57,4.34,3.64,6.63,1.12,2.41,2.07,4.86,2.89,7.39.78,2.42,1.43,4.88,1.96,7.37.54,2.58.94,5.17,1.21,7.79.26,2.55.39,5.1.38,7.67"/>
    <path class="cls-4" d="M297.21,201.45c-15.9,10.88-34.89,17.94-53.48,22-4.66,1.02-9.34,1.86-14.06,2.55-4.88.71-9.77,1.24-14.69,1.61-9.66.72-19.4.79-29.07.25-19.22-1.09-38.73-4.68-56.97-10.99-17.94-6.21-36.01-15.56-50.22-28.57"/>
    <line class="cls-4" x1="356.6" y1="129.64" x2="358.26" y2="129.06"/>
    <line class="cls-4" x1="359.47" y1="154.02" x2="363.37" y2="152.67"/>
    <path class="cls-4" d="M308.6,173.13c5.15-6.49,9.14-13.84,11.22-21.94"/>
    <path class="cls-4" d="M108.21,99.46c-.36,2.8-.71,5.6-1.07,8.4"/>
    <path class="cls-4" d="M284.25,161.77c0-1.06.82-1.85,1.62-2.33.84-.5,1.86-.77,2.82-.87.97-.1,2-.03,2.95.21.92.24,1.91.68,2.58,1.4"/>
    <path class="cls-4" d="M285.6,163.78c-.76-.8-.85-1.81-.14-2.68.62-.76,1.66-1.19,2.56-1.39.96-.21,1.99-.21,2.95-.03.91.18,1.95.58,2.62,1.3"/>
    <line class="cls-4" x1="197.76" y1="160.84" x2="164.54" y2="127.54"/>
    <path class="cls-4" d="M285.07,163.71c.14.15.36.13.53.08"/>
    <line class="cls-4" x1="294.23" y1="156.16" x2="294.22" y2="160.18"/>
    <path class="cls-4" d="M293.59,160.98c.75.8.84,1.81.13,2.68-.62.76-1.66,1.19-2.56,1.38-.96.21-1.98.22-2.94.03-.91-.18-1.94-.58-2.61-1.29"/>
    <path class="cls-4" d="M294.22,160.18c.42.45.71,1.01.71,1.64"/>
    <path class="cls-4" d="M294.22,160.18c0,.35-.32.69-.63.8"/>
    <line class="cls-4" x1="324.93" y1="170.16" x2="326.72" y2="169.54"/>
    <line class="cls-4" x1="309.7" y1="150.56" x2="307.89" y2="151.19"/>
    <line class="cls-4" x1="359.92" y1="150.4" x2="359.43" y2="150.56"/>
    <path class="cls-4" d="M136.05,138.62c.09-1.7-.84-3.98-2.1-5.12"/>
    <path class="cls-4" d="M136.05,138.62c-4.05,1.48-8.15,3.73-11.18,6.92-1.52,1.6-2.8,3.45-3.62,5.51-.82,2.08-1.14,4.28-.9,6.5"/>
    <path class="cls-4" d="M163.79,128.42c-4.43,1.63-8.86,3.27-13.28,4.9-2.21.82-4.43,1.63-6.64,2.45-1.11.41-2.22.82-3.32,1.23-.3.11-3.02,1.12-3.32,1.22"/>
    <path class="cls-4" d="M121.63,165.32c-2.26-2.56-4.06-5.61-4.74-9.03-.34-1.69-.39-3.42-.15-5.13.24-1.72.78-3.35,1.55-4.9,1.54-3.09,3.97-5.69,6.67-7.76,2.72-2.08,5.83-3.73,8.99-5"/>
    <path class="cls-4" d="M183.58,177.48c-.16.08-.33.12-.51.14"/>
    <line class="cls-4" x1="164.97" y1="145.63" x2="166.72" y2="145.43"/>
    <line class="cls-4" x1="167.51" y1="196.52" x2="169.18" y2="196.36"/>
    <line class="cls-4" x1="181.53" y1="164.68" x2="172.49" y2="167.92"/>
    <path class="cls-4" d="M182.39,167.37c-3.35,1.2-6.7,2.4-10.05,3.6"/>
    <path class="cls-4" d="M177.93,208.43h0"/>
    <path class="cls-4" d="M164.01,127.45c.15-.01.39.01.53.09"/>
    <path class="cls-4" d="M163.79,128.42c.17-.02.41.05.53.18"/>
    <path class="cls-4" d="M163.79,128.42c.11-.32.18-.64.22-.97"/>
    <path class="cls-4" d="M164.01,127.45c.25-1.74.89-4.07,1.59-5.69"/>
    <line class="cls-4" x1="176.61" y1="156.62" x2="181.34" y2="156.09"/>
    <path class="cls-4" d="M172.49,167.92c-2.82,1.01-5.86,1.68-8.83,2.04"/>
    <line class="cls-4" x1="172.34" y1="170.97" x2="172.49" y2="167.92"/>
    <path class="cls-4" d="M137.22,138.21c-.2.07-.39.13-.59.2-.2.07-.39.14-.59.21"/>
    <line class="cls-4" x1="165.6" y1="121.76" x2="205.61" y2="162.04"/>
    <path class="cls-4" d="M133.95,133.5c.65-.26,1.31-.51,1.97-.75.66-.24,1.32-.49,1.98-.73,1.32-.49,2.64-.98,3.96-1.46,2.64-.98,5.28-1.95,7.92-2.93,5.28-1.95,10.55-3.91,15.83-5.86"/>
    <line class="cls-4" x1="183.07" y1="177.61" x2="183.59" y2="175.86"/>
    <path class="cls-4" d="M182.43,184.84c-.02-2.34-.06-4.91.64-7.22"/>
    <path class="cls-4" d="M164.54,127.54c-.04.36-.11.71-.22,1.05"/>
    <line class="cls-4" x1="97.48" y1="171" x2="97.73" y2="167.78"/>
    <path class="cls-4" d="M55.8,67.55c.22-2.3.3-4.6.3-6.91,0-2.31-.1-4.61-.25-6.92"/>
    <path class="cls-4" d="M78.71,188.29c-7.61-6.96-14.32-15.19-18.88-24.56"/>
    <path class="cls-4" d="M283.22,274.37c-.09,1.9-.19,3.8-.28,5.71"/>
    <path class="cls-4" d="M112.45,113.06c.43-5.17.86-10.35,1.29-15.52"/>
    <path class="cls-4" d="M60.26,138.2c.58-6.85,1.15-13.69,1.73-20.54"/>
    <path class="cls-4" d="M54.52,122.18c-.6,4.14-1.2,8.27-1.8,12.41"/>
    <path class="cls-4" d="M33.04,117.01c-12.91,11.69-23.57,26.41-27.92,43.79"/>
    <line class="cls-4" x1="360.72" y1="134.28" x2="358.62" y2="135.02"/>
    <path class="cls-4" d="M92.21,266.58c-.27,4.02-.54,8.03-.82,12.05"/>
    <path class="cls-4" d="M87.23,177.82c11.95,11.07,26.88,19.3,41.9,25.04,15.22,5.82,31.51,9.48,47.68,11.19,16.2,1.71,32.84,1.51,48.99-.71,16.04-2.21,32.3-6.52,47.05-13.41"/>
    <path class="cls-4" d="M69.12,153.3c4.15,9.4,10.66,17.63,18.11,24.53"/>
    <line class="cls-4" x1="88.65" y1="114.32" x2="86.75" y2="116.63"/>
    <line class="cls-4" x1="89.57" y1="103.07" x2="88.65" y2="114.32"/>
    <path class="cls-4" d="M190.27.51c-1.4,3.36-2.87,6.68-4.43,9.97-1.56,3.29-3.2,6.53-4.94,9.72-.87,1.6-1.76,3.18-2.67,4.76-.91,1.57-1.84,3.14-2.78,4.69-.94,1.55-1.9,3.1-2.85,4.65-.95,1.55-1.9,3.1-2.78,4.69"/>
    <path class="cls-4" d="M287.95,60.06c-2.31-3.76-4.19-6.82-6.3-10.71-.99-1.82-1.94-3.66-2.85-5.52-.91-1.86-1.78-3.74-2.6-5.64-1.66-3.8-3.14-7.66-4.5-11.58-1.35-3.92-2.56-7.88-3.65-11.88"/>
    <path class="cls-4" d="M305.51,95.96c-.26-1.67-.58-3.32-.95-4.97-.38-1.65-.82-3.27-1.33-4.88-1.03-3.24-2.32-6.32-3.92-9.32-1.62-3.03-3.42-5.76-5.42-8.54-1.97-2.74-4.02-5.42-5.95-8.19"/>
    <line class="cls-4" x1="287.95" y1="60.06" x2="287.78" y2="88.08"/>
    <path class="cls-4" d="M169.81,38.99c-1.54,2.4-3.23,4.71-4.79,7.1-1.61,2.45-2.95,4.8-4.15,7.48-2.34,5.22-3.73,10.84-4.66,16.43"/>
    <line class="cls-4" x1="236.03" y1="94.61" x2="235.76" y2="104.98"/>
    <line class="cls-4" x1="365.51" y1="159.57" x2="334.97" y2="170.12"/>
    <path class="cls-4" d="M167.79,37.77c.99-1.52,2.04-3,3.09-4.48,1.05-1.48,2.11-2.96,3.15-4.45s2.06-2.99,3.06-4.51c1-1.52,1.98-3.05,2.93-4.6,1.9-3.1,3.7-6.25,5.41-9.46.85-1.6,1.68-3.22,2.49-4.85.73-1.47,1.67-3.43,2.35-4.92"/>
    <path class="cls-4" d="M153.72,70.8c.46-3,1.02-5.97,1.77-8.91.75-2.95,1.67-5.81,2.87-8.61,1.22-2.87,2.61-5.38,4.31-7.99,1.65-2.54,3.46-4.97,5.12-7.51"/>
    <path class="cls-4" d="M290.1,59.6c2.04,2.93,4.24,5.75,6.31,8.66,1.04,1.45,2.04,2.93,2.99,4.44.95,1.52,1.84,3.06,2.65,4.66.81,1.59,1.55,3.22,2.2,4.88.66,1.66,1.23,3.35,1.73,5.07.5,1.72.92,3.45,1.28,5.2.36,1.75.65,3.51.89,5.28"/>
    <path class="cls-4" d="M268.05,14.73c.3,1,.62,2,.94,3,.32.99.65,1.99.99,2.98.68,1.98,1.39,3.95,2.14,5.9,1.51,3.91,3.16,7.75,5,11.52,1.84,3.77,3.84,7.43,6.03,11.01,2.32,3.79,4.41,6.82,6.95,10.46"/>
    <line class="cls-4" x1="267.11" y1="80.96" x2="268.05" y2="14.73"/>
    <line class="cls-4" x1="53.6" y1="76.83" x2="55.85" y2="53.72"/>
    <path class="cls-4" d="M49.48,83.92s.07-.09.12-.14"/>
    <path class="cls-4" d="M200.86,69.45c-.79-.17-1.57-.35-2.36-.53"/>
    <line class="cls-4" x1="363.19" y1="149.85" x2="363.46" y2="149.76"/>
    <line class="cls-4" x1="344.59" y1="125.31" x2="346.21" y2="124.74"/>
    <path class="cls-4" d="M301.5,265.83c-.08,6.66-.15,13.32-.23,19.98"/>
    <path class="cls-4" d="M241.11,286.68c-.26,5.36-.51,10.72-.77,16.07"/>
    <path class="cls-4" d="M227.09,291.62c-.05.79-.1,1.59-.15,2.39"/>
    <path class="cls-4" d="M127.58,94.49c-.55,7.16-1.09,14.32-1.64,21.48"/>
    <path class="cls-4" d="M76.05,114.13c-.62,7.92-1.24,15.84-1.86,23.76"/>
    <path class="cls-4" d="M20.07,224.57c-.24,1.57-.47,3.14-.71,4.71"/>
    <line class="cls-4" x1="85.57" y1="104.27" x2="85.02" y2="110.81"/>
    <line class="cls-4" x1="270.03" y1="284.9" x2="269.98" y2="289.29"/>
    <line class="cls-4" x1="346.16" y1="228.51" x2="346.24" y2="233.42"/>
    <line class="cls-4" x1="160.06" y1="293.09" x2="159.67" y2="300.73"/>
    <line class="cls-4" x1="14.33" y1="172.89" x2="13.56" y2="179.93"/>
    <line class="cls-4" x1="195.65" y1="69.18" x2="195.68" y2="68.55"/>
    <path class="cls-4" d="M195.68,68.55c.96.04,1.89.16,2.83.37"/>
    <line class="cls-4" x1="198.5" y1="68.92" x2="198.48" y2="69.32"/>
    <line class="cls-4" x1="362.75" y1="143.49" x2="359.47" y2="144.64"/>
    <path class="cls-4" d="M316.95,278.03c-.14-2.67-.29-5.33-.43-8"/>
    <path class="cls-4" d="M287.18,284.23c.06-4.02.12-8.04.18-12.07"/>
    <path class="cls-4" d="M259.74,299.19c-.13-4.05-.26-8.11-.39-12.16"/>
    <path class="cls-4" d="M228.48,298.52c.15-2.96.3-5.91.45-8.87"/>
    <path class="cls-4" d="M142.15,112.46c.14-5.92.28-11.85.42-17.77"/>
    <path class="cls-4" d="M287.95,60.06c.56-.45,1.42-.75,2.15-.46"/>
    <path class="cls-4" d="M169.81,38.99c-.4-.72-1.2-1.21-2.02-1.22"/>
    <line class="cls-4" x1="346.72" y1="115.9" x2="345.18" y2="116.45"/>
    <path class="cls-4" d="M77.4,279.19c.24-3.42.48-6.84.73-10.27.24-3.42.48-6.84.73-10.26"/>
    <path class="cls-4" d="M96.04,274.91c.06-1.95.13-3.91.19-5.86"/>
    <line class="cls-4" x1="95.46" y1="165.07" x2="95.47" y2="164.95"/>
    <line class="cls-4" x1="269.98" y1="289.29" x2="268.33" y2="291.38"/>
    <line class="cls-4" x1="104.38" y1="109.96" x2="102.74" y2="108.98"/>
    <line class="cls-4" x1="100.77" y1="106.44" x2="99.13" y2="105.46"/>
    <line class="cls-4" x1="85.02" y1="110.81" x2="83.12" y2="113.13"/>
    <line class="cls-4" x1="346.24" y1="233.42" x2="345.39" y2="234.51"/>
    <line class="cls-4" x1="361.82" y1="228.27" x2="362.71" y2="228.78"/>
    <line class="cls-4" x1="147.95" y1="298.96" x2="147.11" y2="300"/>
    <line class="cls-4" x1="162.19" y1="294.26" x2="162.94" y2="294.78"/>
    <line class="cls-4" x1="13.56" y1="179.93" x2="12.65" y2="181.05"/>
    <line class="cls-4" x1="222.52" y1="102.7" x2="221.59" y2="103.86"/>
    <line class="cls-4" x1="239.01" y1="96.6" x2="239.91" y2="97.09"/>
    <line class="cls-4" x1="257.69" y1="108.58" x2="257.73" y2="106.26"/>
    <path class="cls-4" d="M86.26,130.85c.13-3.21.25-6.42.38-9.64"/>
  </g>
  <g id="_图层_6" data-name="图层 6">
    <path class="cls-1" d="M188.55,169.45c-5.5.86-11.92,2.4-16.06-1.52-5.18-4.91-3.69-12.19-3.61-12.56"/>
    <path class="cls-7" d="M189.78,166.59c-1.75-.32-4.48-.72-7.84-.75-8.03-.07-12.3,2.01-14.74-.32-.81-.77-1.69-2.29-1.38-5.6"/>
    <path class="cls-6" d="M187.65,174.07c-2.49-.16-4.47.08-5.82.32-4.19.76-6.1,2.3-8.06,1.2-1.06-.6-1-1.33-2.71-2.32-.72-.41-1.76-1.02-3.11-1.03-2.22-.01-3.77,1.61-4.16,2.04"/>
    <path class="cls-5" d="M187.65,174.99c-2.49-.16-4.47.08-5.82.32-4.19.76-6.1,2.3-8.06,1.2-1.06-.6-1-1.33-2.71-2.32-.72-.41-1.76-1.02-3.11-1.03-2.22-.01-3.77,1.61-4.16,2.04"/>
    <path class="cls-7" d="M191.17,164.4c-1.75-.32-4.48-.72-7.84-.75-8.03-.07-12.3,2.01-14.74-.32-.81-.77-1.69-2.29-1.38-5.6"/>
    <path class="cls-1" d="M189.78,166.93c-5.13.83-11.12,2.3-14.98-1.46-4.83-4.71-3.44-11.69-3.37-12.05"/>
    <path class="cls-3" d="M187.79,177.31c-2.86.95-7.48,2.08-13.2,1.73-4.36-.26-7.9-1.3-10.37-2.23"/>
    <path class="cls-2" d="M188.34,179.46c-2.86.95-7.48,2.08-13.2,1.73-4.36-.26-7.9-1.3-10.37-2.23"/>
    <path class="cls-2" d="M188.88,182.15c-2.86.95-7.48,2.08-13.2,1.73-4.36-.26-7.9-1.3-10.37-2.23"/>
    <path class="cls-5" d="M188.8,183.03c-2.86.95-7.48,2.08-13.2,1.73-4.36-.26-7.9-1.3-10.37-2.23"/>
  </g>
  <g id="_拆" data-name="拆">
    <g>
      <polygon class="cls-8" points="176.17 200.48 187.32 221.62 247.39 224.71 231.57 202.83 176.17 200.48"/>
      <path class="cls-8" d="M220.39,188.56c1.52.46,16.34,43.69,16.34,43.69l27.1-15.91-43.44-27.78Z"/>
    </g>
  </g>
</svg>