<?xml version="1.0" encoding="UTF-8"?>
<svg xmlns="http://www.w3.org/2000/svg" viewBox="0 0 558.95 593.29">
  <defs>
    <style>
      .cls-1, .cls-2, .cls-3 {
        stroke: red;
        stroke-width: 4px;
      }

      .cls-1, .cls-2, .cls-3, .cls-4 {
        fill: none;
      }

      .cls-2 {
        stroke-dasharray: 0 0 11.4 11.4;
      }

      .cls-3 {
        stroke-dasharray: 0 0 11.7 11.7;
      }

      .cls-5 {
        fill: red;
      }

      .cls-5, .cls-6 {
        stroke-width: 0px;
      }

      .cls-4 {
        stroke: #000;
        stroke-linecap: round;
        stroke-linejoin: round;
      }

      .cls-6 {
        fill: #c1c1c1;
      }
    </style>
  </defs>
  <g id="_图层_3" data-name="图层 3">
    <polygon class="cls-6" points="462.7 396.79 462.22 398.85 462.6 402.32 508.27 402.64 508.99 404.33 509.42 405.09 512.32 405.11 513.64 402.96 514.11 399.68 513.52 396.43 512.28 394.57 509.53 394.48 508.76 396.33 508.56 396.94 462.7 396.79"/>
    <polygon class="cls-6" points="29.16 406.13 26.17 406.24 25.04 407.48 24.29 410.58 24.31 412.84 25.42 415.95 26.62 417.4 29.98 417.04 30.94 415.83 31.55 414.33 73.84 411.03 74.89 410 74.87 407.84 74 405.18 31.66 408.44 30.8 407.78 29.16 406.13"/>
  </g>
  <g id="Make2D::可见线::曲线">
    <path class="cls-4" d="M139.21,47.23c0-.33.16-.62.42-.81"/>
    <path class="cls-4" d="M373.53,4.76c.32.12.56.4.62.74"/>
    <path class="cls-4" d="M161.61,37.18s0,0,0,0h.06s.04,0,.06,0c.04,0,.09,0,.13,0"/>
    <path class="cls-4" d="M161.71,37.2s-.06-.01-.09-.01"/>
    <path class="cls-4" d="M330.45,7.51c3.42-.66,6.83-1.32,10.24-2.01,1.71-.34,3.41-.69,5.12-1.04.85-.18,1.7-.36,2.55-.55.6-.13,1.19-.27,1.78-.42.18-.04.35-.09.52-.14.05-.02.1-.03.15-.05.02,0,.03-.01.05-.02h.01s0,0,0,0"/>
    <path class="cls-4" d="M162.27,37.13c-.01-.07,0-.13.05-.18.05-.05.1-.07.17-.09.12-.05.25-.08.37-.11"/>
    <path class="cls-4" d="M348.74,3.4c.27-.03.54-.06.81-.08.14-.01.27-.02.41-.02.07,0,.13,0,.2.03s.11.08.12.15"/>
    <path class="cls-4" d="M346.01,4.15c-.33.1-.72.31-1.01.48"/>
    <path class="cls-4" d="M269.8,18.52c3.18-.57,6.36-1.14,9.54-1.72,3.18-.58,6.36-1.15,9.54-1.73,6.36-1.16,12.72-2.32,19.07-3.5,6.36-1.18,12.71-2.36,19.06-3.58,3.17-.61,6.34-1.22,9.51-1.85,2.23-.44,4.46-.89,6.69-1.37.65-.14,1.3-.28,1.95-.43.2-.05.39-.09.59-.15.06-.01.12-.03.18-.05.02,0,.04,0,.05-.02,0,0,0,0,.01,0,0,0,0,0,0,0"/>
    <path class="cls-4" d="M447.28,67.12c-1.51-1.61-3.55-3.16-5.98-3.16"/>
    <path class="cls-4" d="M440.42,359.88c2.4-.03,4.42-1.56,5.92-3.16"/>
    <line class="cls-4" x1="286.22" y1="556.17" x2="331.51" y2="613.57"/>
    <path class="cls-4" d="M558.89,157.26c-9.59,20.55-14.95,43.05-15.43,66.01"/>
    <path class="cls-4" d="M524.04,251.19c-1.24,18.81-3.46,39.22-7.07,57.76-1.79,9.19-4.2,19.31-7.34,28.16-.89,2.5-1.85,4.97-2.94,7.38-.91,2.01-1.9,3.98-3.04,5.87-.83,1.37-1.71,2.69-2.73,3.92-.83,1.01-1.71,1.93-2.73,2.74-.82.65-1.72,1.22-2.7,1.61-.84.34-1.72.53-2.64.54"/>
    <path class="cls-4" d="M131.93,378.51c2.14.49,4.29.92,6.44,1.32,2.53.47,5.07.89,7.61,1.27,6.15.93,12.31,1.67,18.49,2.31,5.23.54,10.46,1,15.7,1.41,5.71.44,11.42.82,17.14,1.15,21.55,1.22,44.28,1.76,65.86,1.73,21.53-.02,44.36-.61,65.85-1.93,5.77-.35,11.53-.77,17.29-1.26,5.19-.44,10.37-.94,15.55-1.54,3.46-.4,6.9-.83,10.35-1.33,2.97-.43,5.94-.9,8.9-1.43,2.46-.45,4.91-.94,7.35-1.51,1.94-.46,3.86-.96,5.76-1.56"/>
    <path class="cls-4" d="M114.11,425.75c.34.53.8.99,1.27,1.39.65.55,1.35,1,2.09,1.41.96.54,1.95,1,2.96,1.43,1.27.53,2.56,1,3.87,1.43,1.59.52,3.19.98,4.8,1.41,1.9.51,3.82.96,5.74,1.38,4.72,1.04,9.46,1.88,14.23,2.62,5.71.89,11.44,1.62,17.19,2.27,6.58.74,13.18,1.35,19.78,1.87,24.16,1.91,50.17,2.75,74.4,2.78,24.2.03,50.24-.75,74.38-2.63,6.61-.51,13.21-1.12,19.8-1.86,5.75-.64,11.48-1.38,17.19-2.28,2.72-.43,5.42-.89,8.12-1.41,2.36-.45,4.7-.94,7.04-1.49,1.98-.46,3.95-.97,5.9-1.54,1.6-.47,3.19-.98,4.75-1.58,1.23-.47,2.44-.98,3.6-1.59.86-.45,1.73-.97,2.5-1.59.55-.44,1.08-.96,1.45-1.57.28-.46.47-.98.48-1.53"/>
    <path class="cls-4" d="M543.47,223.27c-.52,24.91,4.74,49.65,15.65,71.97"/>
    <path class="cls-4" d="M496.27,186.35c-1.4,1.12-2.15,2.83-2.12,4.6.03,1.77.84,3.46,2.2,4.59"/>
    <path class="cls-4" d="M496.35,195.53c1.83,1.52,4.39,1.79,6.47.58"/>
    <path class="cls-4" d="M494.41,63.94c1.36,0,2.64.4,3.81,1.06,1.47.83,2.75,2.02,3.84,3.28,1.46,1.69,2.7,3.63,3.78,5.57,1.38,2.5,2.58,5.17,3.62,7.83,1.38,3.5,2.54,7.06,3.59,10.68,1.22,4.22,2.27,8.48,3.21,12.78,3.38,15.46,5.58,32.62,6.94,48.36,2.74,31.58,2.93,66.09.85,97.7"/>
    <path class="cls-4" d="M28.93,406.03c.43-.03.79.22,1.06.5.28.29.51.64.69,1,.36.7.61,1.52.77,2.29.31,1.5.37,3.3.05,4.81"/>
    <line class="cls-4" x1="25.32" y1="412.91" x2="26.52" y2="412.82"/>
    <path class="cls-4" d="M25.71,412.04c.27.3.56.58.88.84"/>
    <path class="cls-4" d="M159.1,52.55c.36-.92.98-2.57,1-3.61"/>
    <path class="cls-4" d="M404.38,58.53c0,.24-.04.46-.12.68-.1.28-.24.52-.4.77-.2.31-.42.59-.66.87-.29.34-.6.67-.92.98-.83.82-1.72,1.58-2.63,2.31-1.19.96-2.41,1.87-3.65,2.76-1.53,1.09-3.08,2.15-4.64,3.19-1.84,1.22-3.71,2.41-5.59,3.58-4.54,2.84-9.15,5.56-13.79,8.23-2.63,1.51-5.27,3.01-7.92,4.49-1.4.79-2.81,1.56-4.22,2.34-1.46.8-2.92,1.6-4.38,2.4-6.29,3.43-12.62,6.79-18.98,10.11-2.86,1.49-5.72,2.97-8.59,4.45-1.47.76-2.94,1.51-4.41,2.26-1.49.76-2.99,1.52-4.48,2.28-3.05,1.54-6.1,3.08-9.16,4.61-3.12,1.56-6.25,3.11-9.38,4.66-2.98,1.47-5.97,2.93-8.95,4.38-3.02,1.47-6.05,2.93-9.08,4.39-3.06,1.47-6.11,2.93-9.18,4.38-3.08,1.46-6.15,2.91-9.24,4.36-6.14,2.88-12.29,5.73-18.45,8.56-1.53.7-3.07,1.4-4.6,2.1-1.53.7-3.05,1.39-4.58,2.08-3.03,1.37-6.07,2.74-9.11,4.1-1.6.71-3.2,1.42-4.8,2.13-1.59.7-3.17,1.41-4.76,2.1-3.13,1.38-6.26,2.74-9.4,4.1-1.54.67-3.08,1.33-4.62,1.99-1.52.65-3.04,1.31-4.56,1.95-2.97,1.27-5.95,2.53-8.94,3.78-6.6,2.77-13.22,5.48-19.88,8.13-5.86,2.34-11.75,4.62-17.67,6.82-2.61.97-5.23,1.92-7.86,2.85-2.36.83-4.72,1.65-7.09,2.44-2.08.69-4.17,1.37-6.27,2.01-1.79.55-3.59,1.07-5.4,1.55-1.48.4-2.97.77-4.47,1.08-1.16.25-2.33.46-3.51.6-.82.1-1.7.17-2.53.12-.31-.02-.61-.05-.91-.13-.24-.06-.46-.14-.67-.27"/>
    <path class="cls-4" d="M113.93,195.13c-.37-.23-.58-.56-.57-1"/>
    <path class="cls-4" d="M139.3,47.16c.4-.02.79-.06,1.19-.09.65-.07,1.29-.15,1.94-.23,2.02-.26,4.04-.55,6.06-.85,2.96-.44,5.91-.89,8.86-1.36,3.82-.6,7.64-1.22,11.46-1.84,4.58-.75,9.17-1.51,13.74-2.27,2.54-.42,5.09-.85,7.63-1.28,1.33-.22,2.66-.45,3.99-.67,1.36-.23,2.73-.46,4.09-.69,2.34-.4,4.69-.8,7.03-1.2,2.42-.42,4.84-.83,7.27-1.25,2.49-.43,4.98-.86,7.47-1.29,2.55-.44,5.09-.88,7.64-1.33,2.42-.42,4.83-.84,7.25-1.27,2.45-.43,4.89-.86,7.33-1.29,4.94-.87,9.87-1.74,14.81-2.62,4.94-.88,9.88-1.76,14.81-2.64,2.44-.44,4.89-.88,7.33-1.32,2.41-.43,4.82-.87,7.23-1.31,2.55-.46,5.09-.92,7.64-1.39,2.49-.45,4.98-.91,7.46-1.36,2.42-.44,4.83-.89,7.25-1.33,2.34-.43,4.67-.86,7.01-1.29,9.78-1.81,19.56-3.65,29.33-5.53,2.14-.41,4.27-.83,6.41-1.24,1.9-.37,3.79-.74,5.69-1.12,3.03-.61,6.05-1.22,9.07-1.85,1.93-.41,3.86-.82,5.79-1.28.53-.13,1.07-.26,1.59-.41.15-.05.31-.09.46-.14.05-.02.09-.03.13-.05.01,0,.03-.01.04-.02,0,0,0,0,.01,0,0,0,0,0,0,0"/>
    <path class="cls-4" d="M430.82,63.98c1.3.11,2.47.64,3.51,1.38,1.33.94,2.47,2.23,3.42,3.52.79,1.08,1.49,2.21,2.14,3.39.77,1.38,1.45,2.81,2.08,4.25,2.26,5.16,4.08,11.16,5.48,16.59,2.82,10.94,4.88,23.2,6.35,34.38"/>
    <path class="cls-4" d="M443.44,341.89c-1.28,3.59-2.91,7.53-4.88,10.83-.99,1.65-2.19,3.37-3.59,4.72-1.38,1.34-3.15,2.51-5.21,2.58"/>
    <path class="cls-4" d="M419.28,63.42c-2.58-.28-5.24-.7-7.76-1.34-2.48-.63-5.09-1.53-7.31-2.87"/>
    <path class="cls-4" d="M429.76,360.02c-2.43.08-4.55.38-6.89,1.07-2.26.67-4.37,1.58-6.44,2.71-4.06,2.22-7.81,5.25-10.88,8.69"/>
    <path class="cls-4" d="M113.69,371.71c.34.47.79.87,1.25,1.2.64.47,1.33.85,2.04,1.2.92.45,1.86.83,2.82,1.18,1.19.43,2.38.81,3.59,1.16,1.44.42,2.9.79,4.36,1.14,1.69.4,3.39.76,5.1,1.1,4.1.81,8.22,1.48,12.35,2.07,5.09.73,10.18,1.34,15.29,1.88,5.9.62,11.8,1.15,17.71,1.61,21.54,1.67,44.73,2.53,66.32,2.82,11.07.15,22.14.15,33.22.02,5.61-.07,11.22-.18,16.83-.32,2.75-.07,5.49-.15,8.24-.25,2.7-.09,5.4-.19,8.1-.3,11.06-.45,22.1-1.06,33.13-1.92,5.95-.46,11.88-1,17.81-1.64,5.07-.55,10.14-1.17,15.19-1.93"/>
    <path class="cls-4" d="M436.34,67.25c.82.89,1.54,1.84,2.2,2.85.79,1.21,1.49,2.46,2.14,3.74,1.18,2.34,2.2,4.83,3.1,7.29,1.77,4.86,3.25,10.18,4.45,15.2.62,2.57,1.18,5.15,1.71,7.73.53,2.59,1.01,5.18,1.47,7.78.91,5.21,1.69,10.43,2.38,15.67"/>
    <line class="cls-4" x1="267.18" y1="578.17" x2="268.31" y2="579.69"/>
    <path class="cls-4" d="M265.31,577.79c-.8-1.09-.99-2.52-.48-3.77.51-1.26,1.63-2.16,2.96-2.39"/>
    <path class="cls-4" d="M346.78,509.66c.68,9.88,1.31,17.46,1.85,27.35.12,2.28.24,4.56.34,6.84.1,2.28.19,4.57.26,6.85.07,2.28.14,4.57.19,6.85.05,2.28.09,4.57.12,6.85"/>
    <path class="cls-4" d="M346.55,501.8c-.02,2.62.05,5.24.23,7.86"/>
    <path class="cls-4" d="M272.45,556.42c7.58-.08,15.16-.25,22.74-.5"/>
    <path class="cls-4" d="M268.61,560.39c.02,3.42.01,6.85,0,10.27"/>
    <path class="cls-4" d="M267.79,571.62c.47-.08.81-.49.81-.96"/>
    <path class="cls-4" d="M263.51,588.12c1.28,0,2.52-.49,3.45-1.38.93-.89,1.47-2.1,1.49-3.39"/>
    <line class="cls-4" x1="288.91" y1="556.24" x2="281.56" y2="556.28"/>
    <path class="cls-4" d="M491.92,304.74c.04.15-.03.29-.14.39"/>
    <line class="cls-4" x1="494.05" y1="304.52" x2="493.68" y2="303.17"/>
    <path class="cls-4" d="M493.32,303.6c-.19.22-.56.3-.81.13"/>
    <path class="cls-4" d="M491.32,302.89c-.25.25-.51.51-.77.76"/>
    <path class="cls-4" d="M558.96,151.1c-6.2,12.05-10.92,24.88-14,38.19-1.96,8.45-3.24,17.04-3.83,25.69-.61,8.99-.47,18.02.44,26.99,1.78,17.63,6.52,34.86,14.14,50.87,1.02,2.15,2.1,4.27,3.22,6.36"/>
    <path class="cls-4" d="M509.42,405.09c-.11,0-.18-.11-.23-.19-.1-.17-.16-.39-.21-.57-.08-.3-.13-.6-.17-.9-.09-.61-.13-1.22-.16-1.83-.06-1.23-.05-2.45.04-3.68"/>
    <line class="cls-4" x1="513.74" y1="400.7" x2="514.02" y2="400.7"/>
    <path class="cls-4" d="M508.69,397.91c.04-.6.1-1.2.2-1.8.05-.3.11-.59.19-.89.04-.15.09-.29.15-.43.04-.09.08-.17.15-.24.04-.04.09-.08.15-.08"/>
    <path class="cls-4" d="M513.34,402.06c.17-.45.3-.91.4-1.39"/>
    <path class="cls-4" d="M513.26,398.35c0,.36-.03.71-.08,1.06"/>
    <path class="cls-4" d="M404.06,437.61c.73-.7,1.43-1.64,1.44-2.76"/>
    <path class="cls-4" d="M113.65,434.27c0,.61.21,1.17.52,1.67"/>
    <path class="cls-4" d="M495.9,187.04c.11-.08.22-.15.34-.22"/>
    <line class="cls-4" x1="499.35" y1="192.53" x2="500.05" y2="192.05"/>
    <path class="cls-4" d="M338.2,5.02c2.49-.42,4.97-.83,7.47-1.21"/>
    <path class="cls-4" d="M162.04,36.93c.28-.07.55-.13.83-.19"/>
    <path class="cls-4" d="M161.88,37.17c.45-.03.9-.09,1.35-.14.77-.1,1.54-.2,2.31-.31,2.45-.35,4.91-.74,7.35-1.13,3.66-.58,7.32-1.18,10.98-1.79,3.66-.61,7.33-1.23,10.99-1.85,1.78-.3,3.56-.61,5.33-.91,1.88-.32,3.76-.64,5.63-.97,3.66-.63,7.32-1.26,10.97-1.9,1.81-.31,3.61-.63,5.42-.95,1.85-.32,3.7-.65,5.55-.97,1.81-.32,3.63-.64,5.44-.96,1.84-.32,3.68-.65,5.52-.98,3.65-.65,7.31-1.3,10.96-1.95"/>
    <path class="cls-4" d="M186.29,33.31c-1.65.3-3.31.6-4.96.91"/>
    <path class="cls-4" d="M338.28,5.99c-.61.1-1.22.2-1.84.31"/>
    <path class="cls-4" d="M184.88,32.25c6.09-1.2,12.19-2.35,18.28-3.5,6.1-1.14,12.2-2.27,18.3-3.39,6.1-1.12,12.21-2.23,18.32-3.34,6.11-1.1,12.21-2.2,18.32-3.29,3.07-.55,6.14-1.09,9.21-1.64,3.04-.54,6.08-1.08,9.12-1.61,6.11-1.07,12.22-2.14,18.34-3.2,6.12-1.06,12.24-2.11,18.36-3.15,6.11-1.04,12.23-2.06,18.35-3.06"/>
    <path class="cls-4" d="M331.56,6.08c3.28-.53,6.56-1.07,9.85-1.6"/>
    <path class="cls-4" d="M162.28,37.14s0,0,0,0"/>
    <path class="cls-4" d="M447.64,67.49c.94,1.01,1.74,2.1,2.49,3.26.94,1.46,1.75,2.98,2.5,4.55.93,1.93,1.74,3.91,2.49,5.91.9,2.41,1.69,4.85,2.42,7.31,1.03,3.46,1.93,6.96,2.74,10.47.95,4.1,1.77,8.21,2.52,12.35,2.71,15.02,4.49,31.3,5.62,46.5,2.26,30.38,2.42,63.31.65,93.71"/>
    <path class="cls-4" d="M430.87,63.99c.2-.02.4-.03.6-.03"/>
    <path class="cls-4" d="M446.34,356.72c5.36-5.69,9.13-17.58,11.07-24.55,2.37-8.51,4.23-17.83,5.66-26.53,2.87-17.46,4.67-36.33,5.69-53.98"/>
    <path class="cls-4" d="M430.72,360.01c-.17,0-.35,0-.52-.02"/>
    <path class="cls-4" d="M468.76,251.67c1.77-30.48,1.61-63.47-.65-93.93-1.13-15.24-2.92-31.58-5.64-46.65-.75-4.15-1.58-8.27-2.52-12.38-.81-3.53-1.71-7.03-2.74-10.5-.73-2.47-1.53-4.92-2.43-7.34-.75-2.01-1.56-3.99-2.49-5.93-.75-1.57-1.57-3.1-2.51-4.56-.75-1.16-1.55-2.25-2.49-3.26"/>
    <path class="cls-4" d="M469.07,251.56c-1.02,17.6-2.82,36.42-5.68,53.84-1.43,8.69-3.29,17.98-5.65,26.48-1.93,6.95-5.7,18.8-11.04,24.48"/>
    <line class="cls-4" x1="310.14" y1="631.49" x2="273.32" y2="581"/>
    <path class="cls-4" d="M558.89,159.51c-9,20.01-14.02,41.79-14.49,64"/>
    <line class="cls-4" x1="544.4" y1="223.51" x2="543.47" y2="223.27"/>
    <path class="cls-4" d="M498.5,302.63c-.25-.82-.82-1.47-1.52-1.92-.71-.45-1.53-.7-2.35-.8-1.65-.19-3.39.25-4.78,1.12"/>
    <path class="cls-4" d="M497.93,301.53c0,.13-.02.26-.05.39"/>
    <path class="cls-4" d="M489.84,301.04c-.8.5-1.54,1.17-2.04,1.99-.5.8-.79,1.78-.56,2.74"/>
    <path class="cls-4" d="M487.38,304.81c-.07-.09-.14-.18-.2-.27"/>
    <path class="cls-4" d="M469.15,251.66c-1.09,18.67-3.05,38.92-6.28,57.37-1.6,9.15-3.75,19.23-6.56,28.11-.79,2.51-1.66,4.99-2.64,7.43-.82,2.03-1.71,4.02-2.73,5.95-.77,1.45-1.6,2.84-2.56,4.17-.76,1.04-1.61,2.05-2.57,2.91-.76.68-1.6,1.29-2.54,1.7-.79.35-1.62.56-2.48.57"/>
    <path class="cls-4" d="M132.55,400.37c-.19-.5-.42-.97-.73-1.42-.15-.22-.32-.43-.52-.61-.16-.15-.44-.36-.7-.35"/>
    <path class="cls-4" d="M401.87,396.12c-.28,1.48-.41,3.14-.4,4.64,0,.78.04,1.55.13,2.33.05.39.11.77.19,1.15.06.27.13.53.23.79.03.08.06.15.1.23.01.02.02.04.03.06,0,0,0,0,.01.01,0,0,0,0,0,0"/>
    <path class="cls-4" d="M131.42,409.42c.14-.01.27-.08.38-.16.21-.16.38-.38.52-.6.22-.35.38-.72.51-1.11.25-.76.38-1.6.43-2.39.09-1.57-.14-3.31-.71-4.79"/>
    <path class="cls-4" d="M402.64,393.74s0,0,0,0c0,0,0,0-.01.01-.01.02-.02.03-.03.05-.04.06-.07.13-.11.2-.05.09-.09.19-.12.29-.07.19-.14.39-.2.59-.12.4-.21.81-.29,1.22"/>
    <line class="cls-4" x1="131.82" y1="409.32" x2="131.02" y2="409.39"/>
    <path class="cls-4" d="M113.74,372.7c.35.47.81.86,1.28,1.2.67.48,1.38.87,2.12,1.22.98.47,1.98.87,3,1.23,1.29.46,2.6.86,3.92,1.23,1.61.45,3.24.85,4.87,1.22,1.93.44,3.88.83,5.82,1.2,4.79.9,9.6,1.62,14.43,2.26,5.73.76,11.46,1.38,17.21,1.93,6.58.63,13.17,1.15,19.77,1.6,24.15,1.63,50.11,2.34,74.31,2.37,24.17.03,50.16-.63,74.28-2.23,6.6-.44,13.19-.95,19.77-1.57,5.75-.54,11.49-1.17,17.22-1.93,2.77-.37,5.53-.77,8.29-1.21,2.4-.39,4.79-.81,7.18-1.29,2.02-.4,4.02-.84,6.02-1.33,1.63-.41,3.25-.85,4.84-1.37,1.25-.4,2.48-.85,3.68-1.38.87-.39,1.76-.84,2.55-1.38.54-.37,1.09-.82,1.48-1.36.28-.39.48-.83.48-1.33"/>
    <path class="cls-4" d="M544.4,223.51c-.5,24.04,4.37,47.93,14.5,69.64"/>
    <path class="cls-4" d="M441.68,63.96c1.29,0,2.48.43,3.55,1.1.65.41,1.24.88,1.79,1.41.65.62,1.24,1.29,1.79,2,1.38,1.78,2.53,3.8,3.53,5.8,1.3,2.62,2.41,5.39,3.38,8.14,1.25,3.54,2.31,7.13,3.26,10.75,1.11,4.24,2.06,8.51,2.92,12.8,3.08,15.47,5.08,32.59,6.34,48.29,2.52,31.5,2.75,65.87.92,97.41"/>
    <path class="cls-4" d="M500.32,196.87s.03,0,.04,0"/>
    <path class="cls-4" d="M25.17,413.17c-.03.42-.03.83.01,1.25"/>
    <path class="cls-4" d="M26.15,409.92c-.22.42-.4.85-.56,1.3"/>
    <line class="cls-4" x1="26.46" y1="412.83" x2="26.5" y2="412.8"/>
    <path class="cls-4" d="M26.37,413.86c.06-.33.13-.65.21-.98"/>
    <path class="cls-4" d="M25.71,412.04c-.18-.2-.2-.58-.12-.82"/>
    <path class="cls-4" d="M336.2,24.13c0,.67.09,1.32.22,1.98"/>
    <path class="cls-4" d="M374.67,5.24l1,.44c.17.07.33.15.5.22.08.04.17.07.25.11.04.02.08.04.12.05.04.02.08.04.12.06.65.35,1.3.7,1.95,1.04.16.09.33.17.49.26.04.02.08.04.12.06.04.02.08.05.11.07.07.05.15.09.22.14.3.19.6.38.9.57.3.19.6.38.9.57.13.08.26.16.39.25.07.05.14.1.21.15l2.07,1.55c.09.06.17.13.26.19.04.03.09.06.13.1.04.03.08.07.12.11.17.14.33.29.49.43.33.28.66.57.99.86.16.14.33.28.49.43.04.04.08.07.12.11.04.03.08.07.12.11.08.08.16.15.23.23l.94.93c.24.24.47.47.71.71.12.12.24.24.36.35.05.05.29.33.34.38.44.5.89,1.01,1.34,1.51.11.12.22.25.33.38.06.06.11.13.17.19.03.03.05.07.08.1s.05.07.08.1c.21.27.42.53.62.8l.62.8c.1.13.21.27.31.4.04.05.27.35.31.4.54.79,1.07,1.58,1.61,2.37.06.1.13.19.2.29.04.06.07.12.11.18.08.12.15.24.22.36.15.24.29.48.44.72.58.97,1.13,1.95,1.65,2.95,1.25,2.4,2.3,4.86,3.19,7.42.89,2.55,1.59,5.14,2.13,7.79.54,2.65.91,5.3,1.15,7.99.25,2.68.37,5.37.48,8.06"/>
    <path class="cls-4" d="M113.36,194.13c.12-7.18.2-12,.24-19.18.03-6.4,0-12.79-.02-19.19-.05-12.56-.11-25.81.49-38.37.31-6.39.79-12.76,1.59-19.11.4-3.17.88-6.33,1.47-9.48.59-3.15,1.28-6.26,2.11-9.35,1.66-6.12,3.9-12.24,7.05-17.79,1.59-2.8,3.37-5.42,5.45-7.88,1.04-1.23,2.13-2.4,3.29-3.51,1.15-1.1,2.35-2.14,3.62-3.11"/>
    <path class="cls-4" d="M336.42,26.11c.44,2.26,1.46,4.85,2.41,6.92.98,2.14,2.23,4.47,3.54,6.43.65.98,1.43,2.04,2.24,2.9.44.46.95.94,1.49,1.29.45.29,1.02.56,1.6.5,1.25-.13,1.88-1.82,2.14-2.74.33-1.15.47-2.44.5-3.63"/>
    <path class="cls-4" d="M138.99,47.16s.26,0,.31,0"/>
    <path class="cls-4" d="M139.13,47.24s-.09-.07-.13-.08"/>
    <path class="cls-4" d="M138.65,47.16c.15-.11.46-.21.62-.26"/>
    <path class="cls-4" d="M159.12,52.69c.37-.98.96-2.65.98-3.75"/>
    <path class="cls-4" d="M336.27,25.23c.03.27.07.54.12.82"/>
    <line class="cls-4" x1="350.23" y1="39.39" x2="350.31" y2="36.07"/>
    <path class="cls-4" d="M113.35,194.56c0-.08,0-.15.02-.23"/>
    <path class="cls-4" d="M430.83,63.98c.09.02.15.1.15.19"/>
    <path class="cls-4" d="M453.8,127.49c.28,2.13.55,4.27.8,6.41.26,2.21.5,4.41.73,6.62.24,2.27.46,4.54.66,6.82.21,2.33.41,4.67.59,7,.17,2.19.33,4.38.48,6.57.15,2.23.29,4.46.42,6.69.13,2.26.25,4.53.36,6.8.11,2.29.21,4.59.3,6.88.09,2.23.16,4.46.22,6.68.06,2.25.12,4.49.16,6.74.09,4.52.14,9.05.15,13.57,0,4.51-.02,9.03-.09,13.54-.03,2.25-.08,4.5-.13,6.74-.06,2.24-.12,4.47-.19,6.71-.15,4.55-.35,9.1-.59,13.65-.12,2.24-.25,4.47-.38,6.7-.14,2.2-.29,4.4-.45,6.6-.17,2.32-.35,4.65-.54,6.97-.19,2.27-.39,4.54-.61,6.81-.42,4.37-.88,8.73-1.41,13.09-.29,2.38-.59,4.75-.92,7.13-.31,2.28-.64,4.56-.99,6.84-.34,2.18-.69,4.35-1.06,6.52-.36,2.07-.73,4.13-1.13,6.19-.48,2.51-1,5-1.55,7.49-.51,2.3-1.06,4.59-1.65,6.87-1.02,3.94-2.18,7.91-3.55,11.75"/>
    <path class="cls-4" d="M404.08,58.01c2.27,1.62,4.83,3.01,7.47,3.93.67.23,1.34.43,2.03.59.69.16,1.38.28,2.08.4,1.39.23,2.79.41,4.2.55"/>
    <path class="cls-4" d="M113.21,370.38c0,.49.2.94.48,1.33"/>
    <path class="cls-4" d="M377.03,380.74c4.8-.72,10.01-1.62,14.74-2.73,2.36-.55,4.92-1.23,7.21-2.02,1.87-.64,5.12-1.88,6.56-3.5"/>
    <path class="cls-4" d="M255.24,140.45c-.16.36-.32.73-.47,1.09"/>
    <path class="cls-4" d="M443.44,341.82c-.86,2.4-1.79,4.76-2.89,7.07-1.06,2.23-2.37,4.6-3.89,6.56"/>
    <path class="cls-4" d="M453.8,127.52c.28,2.14.55,4.28.8,6.42.26,2.21.5,4.41.73,6.62.48,4.59.89,9.19,1.26,13.8.17,2.19.34,4.39.48,6.58.15,2.24.29,4.48.42,6.72.13,2.26.25,4.52.36,6.78.11,2.28.21,4.56.29,6.84.09,2.22.16,4.45.22,6.67.06,2.24.12,4.48.16,6.72.04,2.26.08,4.51.1,6.77.03,2.27.04,4.54.05,6.82,0,4.53-.02,9.06-.09,13.59-.07,4.47-.18,8.93-.33,13.4-.15,4.54-.34,9.07-.58,13.61-.12,2.24-.25,4.47-.38,6.7-.14,2.21-.29,4.42-.45,6.63-.17,2.34-.35,4.68-.55,7.01-.19,2.27-.39,4.55-.61,6.82-.41,4.35-.88,8.69-1.4,13.03-.29,2.36-.59,4.73-.91,7.09-.31,2.28-.64,4.55-.99,6.82-.34,2.18-.69,4.37-1.06,6.54-.36,2.08-.73,4.15-1.13,6.22-.48,2.51-1,5-1.55,7.49-.51,2.29-1.05,4.57-1.64,6.85-1.02,3.94-2.18,7.92-3.55,11.76"/>
    <path class="cls-4" d="M495.33,63.94c4.33,0,7.72,4.07,9.72,7.07,2.25,3.37,4.1,7.44,5.55,11.18,2.91,7.51,5.16,16.18,6.85,24.02"/>
    <path class="cls-4" d="M558.37,358.25c-21.54.34-43.08.63-64.62.92"/>
    <path class="cls-4" d="M525.99,219.68c-.14.52-.17,1.24-.16,1.77,0,.3.03.59.08.89.02.15.05.29.1.43.03.09.06.18.11.26.03.04.06.09.12.11"/>
    <path class="cls-4" d="M517.44,106.21c1.96,9.15,3.48,18.71,4.66,27.99,1.2,9.39,2.09,18.8,2.75,28.24.67,9.45,1.1,18.9,1.34,28.36.24,9.46.27,18.92.11,28.38"/>
    <path class="cls-4" d="M529.22,221.27c.04-.72-.39-1.29-.98-1.63-.58-.33-1.29-.43-1.93-.45"/>
    <path class="cls-4" d="M513.2,328.86c-1.68,5.82-3.86,12.23-6.56,17.68-1.34,2.72-3.03,5.64-5.01,7.97-1.89,2.23-4.59,4.61-7.88,4.66"/>
    <path class="cls-4" d="M174.09,562.05c0,.18.14.31.26.41.23.18.53.3.8.39.44.16.89.27,1.35.36.92.19,1.84.3,2.76.39,1.81.17,3.77.22,5.58.18"/>
    <path class="cls-4" d="M113.66,435.19c0-.6.19-1.16.5-1.67"/>
    <path class="cls-4" d="M268.31,579.69c-.15-.2-.36-.33-.6-.38"/>
    <line class="cls-4" x1="299.68" y1="570.55" x2="298.33" y2="568.89"/>
    <path class="cls-4" d="M169.51,559.47c-.72.7-3.34,1.05-4.16,1.15-1.45.18-2.9.27-4.35.3"/>
    <path class="cls-4" d="M397.94,554.53c-.66.63-2.99.93-3.75,1.02-1.3.16-2.61.23-3.92.26"/>
    <path class="cls-4" d="M184.14,562.79c-.61.01-1.23,0-1.84-.06-.31-.03-.61-.07-.91-.13-.15-.03-.3-.07-.45-.12-.09-.03-.18-.07-.26-.13-.04-.03-.09-.08-.09-.13"/>
    <path class="cls-4" d="M160.99,560.92c-1.78.04-3.55,0-5.32-.16-.89-.08-1.77-.18-2.64-.35-.59-.11-1.99-.4-2.49-.87"/>
    <path class="cls-4" d="M184.85,563.78c1.51-.03,3.02-.12,4.52-.32.75-.1,1.49-.22,2.23-.4.37-.09.73-.2,1.08-.34.21-.09.44-.2.62-.36.1-.09.19-.21.19-.35"/>
    <path class="cls-4" d="M390.28,555.82c-1.85.04-3.84-.02-5.68-.18-.95-.09-1.88-.2-2.82-.38-.61-.11-2.15-.43-2.66-.93"/>
    <path class="cls-4" d="M295.19,555.91c1.17-.04,2.27.47,3.01,1.36"/>
    <path class="cls-4" d="M267.71,579.31c-.96-.19-1.82-.73-2.4-1.52"/>
    <path class="cls-4" d="M396.72,442.53c-6.28,2.35-14.67,4.1-21.21,5.25-7.06,1.25-14.55,2.26-21.67,3.07"/>
    <path class="cls-4" d="M200.24,453.55c-18.3-1.15-40.74-3.19-58.81-6.62"/>
    <path class="cls-4" d="M296.27,559.65c-1.82-2.2-4.52-3.42-7.36-3.41"/>
    <line class="cls-4" x1="293.23" y1="555.98" x2="296.19" y2="559.56"/>
    <path class="cls-4" d="M267.07,578.17c.3,0,.59.14.77.38"/>
    <line class="cls-4" x1="265.63" y1="578.17" x2="267.07" y2="578.17"/>
    <line class="cls-4" x1="265.67" y1="575.6" x2="268.13" y2="571.49"/>
    <line class="cls-4" x1="298.28" y1="571.24" x2="298.4" y2="565.84"/>
    <line class="cls-4" x1="298.69" y1="571.99" x2="298.28" y2="571.24"/>
    <path class="cls-4" d="M292.92,564.82c-1.71-2.49-4.35-4.16-7.31-4.7-2.96-.53-6.02.11-8.54,1.74-1.25.81-2.35,1.84-3.22,3.05-.88,1.21-1.52,2.57-1.89,4.01-.75,2.91-.36,6.01,1.17,8.62"/>
    <path class="cls-4" d="M113.58,424.12c0,.59.21,1.14.52,1.62"/>
    <path class="cls-4" d="M497.98,302.14c.39,1.43-.28,2.83-1.26,3.8"/>
    <line class="cls-4" x1="497.77" y1="301.38" x2="497.98" y2="302.14"/>
    <line class="cls-4" x1="491.44" y1="302.98" x2="491.92" y2="304.74"/>
    <path class="cls-4" d="M497.45,301.07c.25.33.42.67.53,1.07"/>
    <path class="cls-4" d="M496.72,305.94c-1.41,1.4-3.57,2.1-5.53,1.89-.98-.11-1.98-.46-2.74-1.14-.77-.69-1.19-1.64-1.11-2.69"/>
    <path class="cls-4" d="M493.32,303.6c.33-.38.65-.78.95-1.19"/>
    <path class="cls-4" d="M491.32,302.89c.38.29.77.58,1.18.84"/>
    <path class="cls-4" d="M494.52,305.94c-.37-.13-.72-.28-1.07-.45"/>
    <line class="cls-4" x1="491.89" y1="305" x2="491.59" y2="306.42"/>
    <path class="cls-4" d="M494.52,305.94c.27-.24.53-.49.77-.76"/>
    <line class="cls-4" x1="494.52" y1="305.94" x2="493.05" y2="303.78"/>
    <path class="cls-4" d="M558.37,293.83c-7.65-16.07-12.4-33.36-14.2-51.05-.91-9-1.06-18.05-.45-27.07.59-8.68,1.87-17.3,3.83-25.78,2.62-11.35,6.44-22.36,11.33-32.83"/>
    <path class="cls-4" d="M512.63,394.65c.98,1.53,1.49,3.31,1.48,5.12"/>
    <path class="cls-4" d="M513.89,398.54c-.03-.47-.09-.93-.2-1.39"/>
    <path class="cls-4" d="M513.7,399.94c-.15-.2-.33-.37-.52-.53"/>
    <path class="cls-4" d="M513.7,399.94c.06.08.08.27.08.36,0,.12,0,.25-.03.37"/>
    <path class="cls-4" d="M513.91,401.07c.01-.06.03-.13.04-.19,0-.03.02-.06.03-.09,0-.01.01-.03.02-.04,0,0,.01-.04.02-.04"/>
    <line class="cls-4" x1="513.99" y1="400.74" x2="514" y2="400.74"/>
    <path class="cls-4" d="M514,400.74c.01-.18.02-.36.02-.54"/>
    <path class="cls-4" d="M403.12,438.51c-.52.5-1.09.92-1.7,1.31-.77.5-1.58.93-2.41,1.32-1.03.49-2.08.92-3.15,1.32-1.29.48-2.6.92-3.92,1.32-3.34,1.01-6.78,1.84-10.18,2.56-4.39.93-8.8,1.7-13.24,2.38-5.61.86-11.23,1.57-16.86,2.2-6.44.71-12.88,1.3-19.33,1.8-23.66,1.83-49.07,2.58-72.79,2.53-23.71-.05-49.12-.9-72.77-2.82-6.45-.52-12.89-1.14-19.32-1.87-5.64-.64-11.25-1.38-16.86-2.26-4.43-.7-8.85-1.48-13.23-2.43-3.41-.74-6.84-1.57-10.18-2.6-1.32-.41-2.63-.84-3.92-1.33-1.07-.4-2.12-.84-3.15-1.34-.83-.4-1.63-.83-2.4-1.33-.6-.39-1.17-.81-1.69-1.32"/>
    <path class="cls-4" d="M115.08,437.03c.52.51,1.09.93,1.7,1.32.78.5,1.58.94,2.42,1.34,1.04.5,2.09.94,3.17,1.34,1.3.49,2.61.93,3.94,1.34,3.36,1.03,6.82,1.88,10.24,2.61,4.42.95,8.86,1.74,13.32,2.45,5.64.89,11.3,1.62,16.97,2.27,6.47.74,12.96,1.35,19.45,1.88,23.8,1.93,49.38,2.78,73.25,2.83,23.87.05,49.45-.71,73.26-2.54,6.5-.5,12.98-1.09,19.46-1.8,5.67-.62,11.33-1.34,16.98-2.21,4.47-.68,8.91-1.46,13.33-2.39,3.43-.73,6.9-1.55,10.26-2.57,1.33-.4,2.65-.84,3.95-1.32,1.08-.4,2.14-.84,3.17-1.33.83-.4,1.64-.83,2.42-1.33.61-.39,1.18-.81,1.71-1.32"/>
    <path class="cls-4" d="M405.63,425.06c0,.56-.19,1.07-.48,1.53-.37.61-.9,1.13-1.45,1.57-.76.62-1.63,1.14-2.5,1.59-1.17.61-2.37,1.13-3.6,1.6-1.56.59-3.14,1.11-4.75,1.58-1.95.58-3.92,1.08-5.9,1.54-2.33.55-4.68,1.04-7.04,1.49-2.7.52-5.41.98-8.12,1.41-5.71.9-11.44,1.64-17.19,2.28-6.59.74-13.18,1.34-19.79,1.86-24.14,1.88-50.18,2.66-74.38,2.63-24.22-.03-50.22-.86-74.38-2.78-6.61-.52-13.2-1.14-19.79-1.88-5.75-.64-11.48-1.38-17.2-2.27-4.77-.74-9.51-1.58-14.23-2.62-1.92-.42-3.84-.88-5.74-1.39-1.61-.43-3.22-.89-4.8-1.42-1.31-.43-2.6-.9-3.87-1.43-1.01-.43-2-.89-2.96-1.43-.74-.42-1.44-.87-2.09-1.41-.48-.4-.93-.86-1.27-1.39"/>
    <path class="cls-4" d="M127.12,432.15c1.95.57,3.92,1.07,5.9,1.54,2.34.55,4.69,1.04,7.05,1.5,5.75,1.1,11.58,2,17.38,2.76,4.86.64,9.73,1.2,14.6,1.69,5.38.55,10.76,1.02,16.15,1.43,20.19,1.54,41.52,2.34,61.76,2.55,20.34.22,41.49-.13,61.81-1.12,19.3-.95,42.41-2.71,61.52-5.84"/>
    <path class="cls-4" d="M496.56,186.58c2.16-1.5,5.04-1.15,6.88.69,1.82,1.83,2.19,4.71.8,6.91"/>
    <path class="cls-4" d="M502.71,195.75c-2.17,1.46-5.03,1.08-6.84-.76-1.8-1.83-2.16-4.7-.77-6.88"/>
    <line class="cls-4" x1="500" y1="189.76" x2="499.29" y2="190.24"/>
    <path class="cls-4" d="M500.05,192.05c.19-.13.44-.13.64,0"/>
    <path class="cls-4" d="M494.9,187.95c.3-.35.63-.65,1.01-.91"/>
    <path class="cls-4" d="M495.1,188.1c.38-.6.87-1.12,1.46-1.52"/>
    <path class="cls-4" d="M504.24,194.18c-.4.62-.91,1.16-1.53,1.57"/>
    <path class="cls-4" d="M498.73,190.75c-.44-.28-.89-.54-1.35-.8"/>
    <path class="cls-4" d="M498.03,192.89c.3-.44.59-.88.88-1.33"/>
    <path class="cls-4" d="M240.1,148.06c-2.57,1.17-5.15,2.33-7.72,3.49-2.56,1.15-5.12,2.3-7.69,3.44-1.3.58-2.61,1.16-3.92,1.74-1.29.57-2.59,1.14-3.88,1.71-2.55,1.12-5.11,2.24-7.66,3.35-2.61,1.13-5.23,2.26-7.84,3.38-2.56,1.1-5.12,2.18-7.68,3.26-2.64,1.11-5.27,2.22-7.92,3.31-2.56,1.06-5.12,2.11-7.68,3.16-10.12,4.12-21.23,8.48-31.52,12.17-2.86,1.03-5.73,2.03-8.61,2.99-2.46.82-4.93,1.62-7.41,2.36-2.07.62-4.15,1.21-6.25,1.74-1.61.4-3.22.77-4.86,1.04-.62.1-1.25.19-1.88.25-.5.05-1.01.08-1.52.08-.39,0-.77-.03-1.16-.1-.27-.05-.55-.13-.79-.28"/>
    <line class="cls-4" x1="362.17" y1="382.63" x2="362.17" y2="382.95"/>
    <line class="cls-4" x1="114.65" y1="372.69" x2="113.74" y2="372.7"/>
    <line class="cls-4" x1="364.26" y1="382.4" x2="364.26" y2="382.7"/>
    <path class="cls-4" d="M336.39,26.04s.02.09.03.14"/>
    <path class="cls-4" d="M519.19,120.67c2.75,16.2,4.45,33.62,5.4,50,.97,16.62,1.26,33.66.93,50.3"/>
    <path class="cls-4" d="M494.87,63.96c.15,0,.31-.01.46-.01"/>
    <path class="cls-4" d="M302.68,577.03c1.06-1.43,1.08-3.44-.06-4.84"/>
    <line class="cls-4" x1="273.32" y1="581" x2="273.24" y2="585.06"/>
    <line class="cls-4" x1="141.9" y1="380.45" x2="141.9" y2="380.27"/>
    <path class="cls-4" d="M405.62,424.87c0,.06,0,.12,0,.18"/>
    <path class="cls-4" d="M161.63,37.18s0,0,0,0c0,0,0,0,0,0"/>
    <path class="cls-4" d="M352.95,2.79c3.52-.41,6.87-.61,10.42-.32,1.74.14,3.45.4,5.16.78,1.71.38,3.36.88,5,1.5"/>
    <path class="cls-4" d="M174.39,34.76c-.09,0-.18,0-.27,0"/>
    <line class="cls-4" x1="25.76" y1="410.75" x2="24.93" y2="410.81"/>
    <path class="cls-4" d="M373.71,5.62s-.01,0-.02,0"/>
    <path class="cls-4" d="M374.03,5.17c.17,0,.49-.02.66.05"/>
    <path class="cls-4" d="M403.92,59.82c-.3.51-.7,1-1.1,1.43-.58.63-1.21,1.21-1.85,1.78-1.1.96-2.25,1.86-3.42,2.73-2.27,1.7-4.83,3.43-7.21,4.99-4.74,3.1-10.05,6.31-14.94,9.17"/>
    <path class="cls-4" d="M174.12,34.75c.14-.01.28-.03.42-.04.25-.03.49-.06.73-.09.72-.09,1.45-.19,2.17-.3,2.37-.34,4.73-.71,7.09-1.09,3.47-.55,6.93-1.12,10.4-1.69,6.93-1.15,13.85-2.33,20.76-3.51,6.92-1.19,13.84-2.39,20.75-3.6,1.72-.3,3.43-.6,5.15-.9,1.74-.31,3.48-.61,5.22-.92,3.46-.61,6.91-1.22,10.37-1.84"/>
    <path class="cls-4" d="M139.64,46.42c1.66-1.21,3.38-2.29,5.18-3.26s3.64-1.84,5.54-2.6c3.81-1.54,7.7-2.67,11.69-3.62"/>
    <path class="cls-4" d="M345.67,3.81c2.42-.37,4.84-.73,7.28-1.01"/>
    <path class="cls-4" d="M350.89,3.28s-.04.02-.06.03"/>
    <path class="cls-4" d="M163.54,36.58c3.32-.76,7.32-1.57,10.65-2.23,3.56-.71,7.12-1.4,10.68-2.1"/>
    <path class="cls-4" d="M162.85,36.93h.05"/>
    <path class="cls-4" d="M341.54,4.45s-.09.01-.13.02"/>
    <line class="cls-4" x1="447.28" y1="67.12" x2="447.64" y2="67.49"/>
    <path class="cls-4" d="M431.47,63.96c1.28,0,2.45.44,3.5,1.11.64.41,1.22.89,1.77,1.42.64.63,1.22,1.3,1.76,2.02.64.84,1.21,1.72,1.75,2.62.62,1.05,1.19,2.12,1.73,3.22,1.28,2.64,2.37,5.43,3.33,8.2,1.23,3.54,2.26,7.14,3.19,10.77,1.09,4.24,2.02,8.51,2.86,12.8,3.02,15.47,4.99,32.58,6.23,48.27,2.48,31.48,2.72,65.83.93,97.35"/>
    <line class="cls-4" x1="157.25" y1="382.61" x2="157.25" y2="382.29"/>
    <line class="cls-4" x1="469.07" y1="251.56" x2="469.15" y2="251.66"/>
    <path class="cls-4" d="M441.49,63.96c.06,0,.12,0,.19,0"/>
    <path class="cls-4" d="M25.32,412.91c.07,0,.14.05.18.1"/>
    <path class="cls-4" d="M458.52,251.75c-1.06,18.64-2.97,38.86-6.12,57.3-1.56,9.14-3.66,19.22-6.41,28.1-.78,2.51-1.62,4.99-2.58,7.44-.8,2.03-1.67,4.03-2.67,5.97-.76,1.46-1.57,2.87-2.53,4.21-.74,1.05-1.58,2.07-2.53,2.94-.74.68-1.58,1.3-2.51,1.72-.77.35-1.59.56-2.45.58"/>
    <line class="cls-4" x1="431.47" y1="63.96" x2="441.31" y2="63.96"/>
    <line class="cls-4" x1="446.69" y1="356.35" x2="446.34" y2="356.72"/>
    <line class="cls-4" x1="440.42" y1="359.88" x2="430.72" y2="360.01"/>
    <path class="cls-4" d="M558.91,224.99c-4.83-.5-9.67-.99-14.5-1.47"/>
    <path class="cls-4" d="M440.79,359.88c-.06,0-.12,0-.18,0"/>
    <line class="cls-4" x1="492.84" y1="359.19" x2="440.79" y2="359.88"/>
    <path class="cls-4" d="M133.08,402.3c-.03.27-.05.54-.05.81"/>
    <line class="cls-4" x1="375.18" y1="381.22" x2="374.92" y2="381.05"/>
    <line class="cls-4" x1="372.09" y1="381.67" x2="371.78" y2="381.48"/>
    <line class="cls-4" x1="156.41" y1="382.51" x2="156.12" y2="382.17"/>
    <line class="cls-4" x1="152.15" y1="381.97" x2="151.89" y2="381.66"/>
    <line class="cls-4" x1="150.2" y1="381.71" x2="150.2" y2="381.44"/>
    <path class="cls-4" d="M131.42,409.42c.14-.01.27-.05.4-.1"/>
    <path class="cls-4" d="M406.27,371.79s0-.06,0-.09"/>
    <line class="cls-4" x1="406.27" y1="371.79" x2="405.63" y2="424.69"/>
    <path class="cls-4" d="M133.04,403.11c0,.6.08,1.18.24,1.76"/>
    <path class="cls-4" d="M131.02,409.39c.14.03.27.04.41.03"/>
    <line class="cls-4" x1="113.74" y1="372.7" x2="114.11" y2="425.75"/>
    <path class="cls-4" d="M494.71,188.32s-.01.02-.02.03"/>
    <line class="cls-4" x1="495.51" y1="186.95" x2="496.26" y2="186.35"/>
    <line class="cls-4" x1="502.82" y1="196.12" x2="501.99" y2="196.6"/>
    <line class="cls-4" x1="441.68" y1="63.96" x2="494.41" y2="63.94"/>
    <line class="cls-4" x1="469.15" y1="251.66" x2="524.04" y2="251.19"/>
    <path class="cls-4" d="M26.17,406.24c.43-.03.79.22,1.06.5.28.29.5.64.68.99.36.7.61,1.53.76,2.29.31,1.5.37,3.3.05,4.82"/>
    <path class="cls-4" d="M28.72,414.84c-.1.49-.27,1.02-.51,1.46-.22.41-.61.91-1.15.95"/>
    <path class="cls-4" d="M25.14,410.55c.15-.45.34-.88.56-1.3"/>
    <path class="cls-4" d="M26.37,413.86c-.31-.26-.6-.54-.87-.84"/>
    <line class="cls-4" x1="31.07" y1="408.44" x2="73.57" y2="405.18"/>
    <line class="cls-4" x1="25.63" y1="411.1" x2="24.29" y2="410.8"/>
    <line class="cls-4" x1="26.17" y1="406.24" x2="28.93" y2="406.03"/>
    <path class="cls-4" d="M74.04,411.03c.29-.02.5-.28.63-.5.14-.25.22-.51.29-.78"/>
    <line class="cls-4" x1="74.04" y1="411.03" x2="31.55" y2="414.33"/>
    <path class="cls-4" d="M27.07,417.26c-.39.03-.73-.18-.99-.42-.28-.26-.48-.55-.66-.88"/>
    <line class="cls-4" x1="29.83" y1="417.04" x2="27.07" y2="417.26"/>
    <path class="cls-4" d="M24.75,407.78c.13-.35.28-.67.51-.97.22-.28.52-.54.9-.57"/>
    <path class="cls-4" d="M25.42,415.95c-1.4-2.5-1.65-5.48-.67-8.17"/>
    <path class="cls-4" d="M74.96,409.74c.18-.81.15-1.77-.02-2.57-.09-.41-.22-.85-.42-1.22-.17-.31-.5-.81-.95-.78"/>
    <path class="cls-4" d="M31.49,414.63c-.11.49-.27,1.02-.51,1.46-.22.41-.61.9-1.15.95"/>
    <path class="cls-4" d="M26.15,409.92c-.16-.22-.31-.44-.45-.66"/>
    <path class="cls-4" d="M24.73,413.76c.13.24.28.45.45.66"/>
    <path class="cls-4" d="M25.17,413.17c0-.06.01-.11.04-.16.02-.05.06-.1.12-.1"/>
    <path class="cls-4" d="M144.25,75.14c.02.81.07,1.61.21,2.41.06.36.14.72.26,1.07.09.26.21.57.4.79.15.16.28.21.49.14.15-.05.27-.14.4-.24.15-.13.29-.27.43-.42.57-.64,1.14-1.58,1.56-2.32,1.25-2.19,2.84-5.64,3.89-7.92.61-1.34,1.23-2.67,1.84-4.01l1.84-4.01c.61-1.34,1.22-2.67,1.83-4.02.31-.69.62-1.38.92-2.08.28-.65.56-1.31.82-1.97"/>
    <line class="cls-4" x1="336.22" y1="25.94" x2="336.2" y2="24.19"/>
    <path class="cls-4" d="M374.31,5.33s-.08.09-.1.15"/>
    <line class="cls-4" x1="336.28" y1="25.96" x2="336.27" y2="25.23"/>
    <path class="cls-4" d="M350.23,39.39c.06-.54.09-1.07.11-1.61"/>
    <line class="cls-4" x1="160.05" y1="49.46" x2="160.06" y2="48.48"/>
    <path class="cls-4" d="M113.95,195.03s-.08-.07-.11-.11"/>
    <path class="cls-4" d="M160.1,48.94c0-.15,0-.31-.03-.46"/>
    <path class="cls-4" d="M350.34,37.78c0-.4,0-.8,0-1.2"/>
    <line class="cls-4" x1="374.32" y1="5.33" x2="374.32" y2="5.33"/>
    <path class="cls-4" d="M132.8,68.28c-.49,1.93-.87,4.02-1.06,6"/>
    <path class="cls-4" d="M144.31,76.37c.06.73.26,2.92,1.06,3.47"/>
    <path class="cls-4" d="M144.15,56.23c.66-1.28,1.33-2.55,1.97-3.84.22-.44.44-.89.64-1.34.18-.39.34-.77.48-1.17.1-.29.2-.61.23-.92.02-.18.01-.42-.13-.58-.14-.15-.34-.17-.52-.15-.3.03-.61.14-.88.26-.4.18-.76.39-1.13.62-.43.28-.85.58-1.26.9-1.11.88-2.17,1.92-3.1,2.99-1.89,2.16-3.46,4.62-4.72,7.19-1.26,2.57-2.24,5.32-2.94,8.09"/>
    <path class="cls-4" d="M350.33,36.58c0-.17-.01-.34-.02-.5"/>
    <path class="cls-4" d="M179.92,452c0-.06-.02-.11-.02-.17"/>
    <path class="cls-4" d="M113.27,370.84c-.04.15-.06.31-.05.46"/>
    <line class="cls-4" x1="525.83" y1="220.97" x2="525.52" y2="220.97"/>
    <line class="cls-4" x1="513.23" y1="398.91" x2="513.22" y2="398.91"/>
    <path class="cls-4" d="M495.4,63.94c20.96,0,41.92-.01,62.89.02"/>
    <path class="cls-4" d="M380.21,380.24l.09.13"/>
    <line class="cls-4" x1="155.45" y1="382.09" x2="155.45" y2="382.09"/>
    <path class="cls-4" d="M113.21,370.38c-.2-29.3-.41-58.61-.44-87.91-.02-14.65.01-29.3.1-43.95.09-14.65.25-29.31.48-43.96"/>
    <path class="cls-4" d="M425.05,63.84c-1.74-.08-3.47-.19-5.2-.37"/>
    <path class="cls-4" d="M425.42,63.88c-.12-.01-.24-.02-.36-.03"/>
    <path class="cls-4" d="M425.42,63.88c1.8.08,3.59.11,5.39.1"/>
    <path class="cls-4" d="M526.46,223.15c.65,0,1.36-.12,1.93-.51"/>
    <line class="cls-4" x1="526.46" y1="223.15" x2="526.46" y2="223.15"/>
    <path class="cls-4" d="M547.9,177.75c0,.16.01.31.02.47"/>
    <path class="cls-4" d="M526.29,219.19c-.1,0-.17.14-.2.21-.04.09-.07.19-.1.29"/>
    <line class="cls-4" x1="526.29" y1="219.19" x2="526.31" y2="219.19"/>
    <path class="cls-4" d="M493.76,359.17c-.15,0-.31,0-.46,0"/>
    <path class="cls-4" d="M525.52,220.97c-.27,13.7-.97,27.66-2.15,41.32-1.17,13.52-2.9,27.66-5.35,41.02"/>
    <path class="cls-4" d="M526.31,219.19s-.02,0-.02,0"/>
    <path class="cls-4" d="M526.23,223.14c-.2,8.9-.58,17.78-1.14,26.67-.28,4.44-.61,8.88-1,13.31-.38,4.43-.82,8.86-1.31,13.28-.98,8.85-2.19,17.66-3.74,26.43-1.51,8.58-3.43,17.65-5.85,26.03"/>
    <path class="cls-4" d="M526.23,223.14c.08,0,.15,0,.23,0"/>
    <path class="cls-4" d="M528.39,222.64c.46-.32.79-.8.83-1.37"/>
    <path class="cls-4" d="M141.43,446.92c-4.68-.89-9.79-2.02-14.36-3.38-2.29-.68-4.76-1.52-6.95-2.49-1.84-.82-4.78-2.3-5.95-4.21"/>
    <line class="cls-4" x1="265.67" y1="575.6" x2="265.61" y2="578.15"/>
    <line class="cls-4" x1="266.93" y1="578.17" x2="267.8" y2="579.33"/>
    <path class="cls-4" d="M298.3,571.29c.34-.49.56-1.05.64-1.64"/>
    <path class="cls-4" d="M405.46,435.31c.02.15.03.31.03.46"/>
    <line class="cls-4" x1="267.89" y1="585.51" x2="267.86" y2="587.02"/>
    <path class="cls-4" d="M277.18,556.35c-4.07.46-7.5,3.39-8.56,7.36"/>
    <path class="cls-4" d="M397.09,554.98c-.31-.52-1.93-.84-2.37-.93-.85-.17-1.71-.28-2.57-.36-1.68-.16-3.5-.21-5.18-.17"/>
    <path class="cls-4" d="M376.52,447.6c-.02-.07-.05-.14-.07-.21"/>
    <path class="cls-4" d="M141.98,552.57c-2.59-.63-5.89-.96-8.54-1.13-2.88-.18-5.74-.23-8.62-.17"/>
    <line class="cls-4" x1="106.85" y1="551.66" x2="124.81" y2="551.27"/>
    <path class="cls-4" d="M386.8,552.41c1.96-.04,4.09.02,6.04.22,1.01.1,2,.23,2.99.45.48.11.99.24,1.45.43.17.07.34.15.49.25.11.07.21.15.28.26.12.19.05.37-.1.51"/>
    <path class="cls-4" d="M392.73,548.24c-.43.17-.86.28-1.31.37"/>
    <path class="cls-4" d="M391.42,548.62c-10.35,2.18-20.95,4.73-31.11,7.68"/>
    <line class="cls-4" x1="409.72" y1="545.06" x2="427.2" y2="544.68"/>
    <path class="cls-4" d="M346.76,509.76c.67,9.81,1.3,17.39,1.84,27.22.12,2.27.24,4.54.34,6.81.1,2.27.19,4.54.26,6.82.08,2.27.14,4.54.19,6.81.05,2.27.09,4.55.12,6.82"/>
    <path class="cls-4" d="M299.46,569.96c-.09-3.42-.21-6.83-.34-10.25"/>
    <path class="cls-4" d="M353.84,450.85c-24.46,2.78-52.16,4.07-76.74,4.42-25.12.37-51.78-.15-76.86-1.73"/>
    <path class="cls-4" d="M193.48,562.1c-.05-.17-.21-.29-.34-.38-.24-.16-.52-.27-.79-.36-.44-.15-.89-.25-1.34-.35-.91-.18-1.82-.3-2.74-.38-1.79-.17-3.73-.22-5.53-.18"/>
    <line class="cls-4" x1="346.49" y1="509.4" x2="346.55" y2="501.81"/>
    <line class="cls-4" x1="293.58" y1="555.96" x2="293.58" y2="555.97"/>
    <path class="cls-4" d="M168.66,559.93c-.3-.5-1.79-.8-2.22-.89-.8-.15-1.6-.25-2.41-.33-1.62-.15-3.24-.19-4.87-.15"/>
    <line class="cls-4" x1="174.09" y1="562.24" x2="174.09" y2="562.05"/>
    <path class="cls-4" d="M150.54,559.55c-.4-.38-.01-.7.36-.89.34-.18.74-.31,1.11-.41.77-.21,1.54-.34,2.33-.45,1.52-.21,3.19-.31,4.73-.35"/>
    <path class="cls-4" d="M379.13,554.32c-.35-.35-.05-.64.29-.83.31-.17.67-.29,1-.38.69-.19,1.39-.31,2.1-.4,1.38-.18,2.89-.28,4.28-.31"/>
    <path class="cls-4" d="M180.59,562.22s.03-.09.06-.12c.06-.06.13-.09.2-.12.12-.05.24-.08.36-.11.24-.06.49-.1.74-.13.5-.06.99-.09,1.49-.11"/>
    <path class="cls-4" d="M432.76,557.38c-.04,2.63-1.91,4.8-3.69,6.33-1.86,1.59-4.18,2.96-6.35,4.05-4.34,2.19-9.47,3.99-14.1,5.39"/>
    <path class="cls-4" d="M405.49,435.77c-.02,1.96-2.18,3.5-3.52,4.31-1.59.97-3.51,1.79-5.25,2.44"/>
    <path class="cls-4" d="M405.49,435.77c-.03,2.64,0,5.27.08,7.91.09,2.61.24,5.22.47,7.82.23,2.63.54,5.25.94,7.86.4,2.58.88,5.14,1.47,7.69.59,2.56,1.28,5.09,2.06,7.6.78,2.5,1.66,4.97,2.62,7.41,1.97,5.01,4.1,9.53,6.36,14.41,2.25,4.87,4.29,9.44,6.14,14.49.9,2.47,1.73,4.96,2.46,7.48.73,2.52,1.37,5.06,1.92,7.63,1.1,5.15,1.82,10.32,2.25,15.57.21,2.62.36,5.24.44,7.86.08,2.63.09,5.25.06,7.88"/>
    <path class="cls-4" d="M85.86,556.47c-.02-2.62,0-5.24.1-7.86.09-2.62.25-5.23.48-7.84.46-5.24,1.2-10.4,2.32-15.53,1.13-5.18,2.59-10.1,4.44-15.07,1.87-5.03,3.94-9.58,6.2-14.44,2.27-4.87,4.42-9.37,6.41-14.36.97-2.43,1.86-4.89,2.65-7.38.8-2.5,1.49-5.02,2.09-7.58.6-2.54,1.09-5.09,1.5-7.66.41-2.6.74-5.21.98-7.84.24-2.6.41-5.2.51-7.81.1-2.63.14-5.27.12-7.9"/>
    <path class="cls-4" d="M298.2,557.28c.57.68.89,1.54.93,2.43"/>
    <path class="cls-4" d="M299.68,570.55c.15.18.36.3.59.33"/>
    <path class="cls-4" d="M302.62,572.19c-.59-.72-1.43-1.19-2.35-1.31"/>
    <path class="cls-4" d="M349.54,564.41c0,.32-.19.74-.34.99-.17.31-.37.6-.59.88"/>
    <path class="cls-4" d="M193.49,562c0-.18-.14-.32-.26-.41-.23-.18-.53-.3-.8-.39-.44-.16-.89-.27-1.35-.36-.92-.19-1.84-.3-2.76-.39-1.81-.17-3.77-.22-5.58-.18"/>
    <line class="cls-4" x1="193.49" y1="562" x2="193.49" y2="562.19"/>
    <path class="cls-4" d="M186.99,562.2s-.03.09-.06.12c-.06.05-.13.09-.2.12-.12.05-.24.08-.36.11-.24.06-.49.1-.74.13-.5.06-.99.09-1.49.11"/>
    <path class="cls-4" d="M214.08,567.29c.09.31.48.83.66,1.06.26.33.53.64.82.95"/>
    <path class="cls-4" d="M106.31,551.74c-.77.21-1.61.76-2.06,1.44"/>
    <path class="cls-4" d="M427.73,544.73c.67.16,1.42.63,1.66,1.34"/>
    <path class="cls-4" d="M349.51,564.23c.02.06.03.11.03.17"/>
    <path class="cls-4" d="M182.74,560.46c-1.5.03-2.99.12-4.48.32-.74.1-1.48.21-2.21.39-.37.09-.72.19-1.07.33-.22.09-.43.18-.62.32-.11.08-.22.19-.26.32"/>
    <path class="cls-4" d="M159.06,557.45c1.84-.04,3.85.01,5.69.19.95.09,1.88.21,2.82.42.45.1.93.23,1.36.41.42.18,1.05.54.58.99"/>
    <path class="cls-4" d="M182.74,560.27c-1.52.03-3.02.12-4.53.32-.75.1-1.5.22-2.23.4-.37.09-.73.2-1.08.34-.21.09-.44.2-.62.36-.1.09-.19.21-.19.35"/>
    <path class="cls-4" d="M193.35,560.33c-.72-.07-1.44-.15-2.15-.27"/>
    <path class="cls-4" d="M191.2,560.06c-14.18-2.35-28.4-4.36-42.67-6.11"/>
    <path class="cls-4" d="M148.53,553.95c-.63-.08-1.26-.17-1.89-.31"/>
    <path class="cls-4" d="M211.81,563.75c-.77-1.18-4.44-1.88-5.5-2.08-1.91-.35-4-.58-5.93-.74"/>
    <line class="cls-4" x1="211.81" y1="563.75" x2="214.01" y2="567.12"/>
    <path class="cls-4" d="M214.01,567.12c.03.05.05.11.07.17"/>
    <path class="cls-4" d="M106.31,551.74c.18-.05.36-.07.54-.08"/>
    <path class="cls-4" d="M360.31,556.3c-.54.16-1.08.26-1.63.35"/>
    <path class="cls-4" d="M352.9,557.53c-1.17.17-2.32.37-3.47.67"/>
    <path class="cls-4" d="M409.72,545.06c-2.4.05-4.8.18-7.19.45-1.9.21-5.21.67-7.02,1.52"/>
    <path class="cls-4" d="M427.2,544.68c.18,0,.35.01.53.05"/>
    <path class="cls-4" d="M386.97,553.52c-1.2.03-2.4.1-3.6.24-.55.07-2.98.38-3.4,1.02"/>
    <path class="cls-4" d="M159.16,558.57c-1.34.03-2.67.11-4,.28-.67.08-1.32.19-1.98.34-.38.09-1.54.38-1.79.81"/>
    <path class="cls-4" d="M114.17,436.84c-.31-.5-.51-1.05-.51-1.65"/>
    <path class="cls-4" d="M183.44,561.63c.62-.01,1.23,0,1.84.06.31.03.61.07.91.13.15.03.3.07.44.12.09.03.18.07.26.13.04.03.09.07.09.13"/>
    <path class="cls-4" d="M86.33,558.73c-.3-.72-.46-1.47-.47-2.26"/>
    <path class="cls-4" d="M408.61,573.15c-14.85,4.49-33.39,7.5-48.69,9.43-16.22,2.04-33.17,3.42-49.48,4.28"/>
    <path class="cls-4" d="M299.46,569.96c0,.21.08.42.21.59"/>
    <path class="cls-4" d="M268.61,560.39c0-1.03.38-2.03,1.1-2.78.72-.75,1.7-1.18,2.74-1.19"/>
    <path class="cls-4" d="M268.5,580.27c0-.21-.06-.42-.19-.59"/>
    <path class="cls-4" d="M268.5,580.27c-.01,1.03-.03,2.05-.05,3.08"/>
    <path class="cls-4" d="M263.51,588.12c-29.71.06-61.65-1.28-91.22-4.44-14.69-1.57-30.68-3.81-45.15-6.91-4.05-.87-8.07-1.82-12.06-2.91-3.36-.92-6.69-1.92-9.97-3.08-2.54-.9-5.04-1.87-7.48-3.02-1.9-.89-3.8-1.89-5.56-3.05-1.32-.87-2.63-1.87-3.72-3.03-.81-.86-1.54-1.85-2-2.96"/>
    <path class="cls-4" d="M352.9,557.53c1.93-.28,3.85-.57,5.77-.88"/>
    <path class="cls-4" d="M392.73,548.24c.94-.38,1.87-.79,2.78-1.22"/>
    <path class="cls-4" d="M141.98,552.57c1.55.37,3.11.73,4.67,1.07"/>
    <path class="cls-4" d="M193.35,560.33c2.34.21,4.68.41,7.03.6"/>
    <path class="cls-4" d="M492.21,303.54s0,0-.01,0"/>
    <path class="cls-4" d="M499.56,192.44c-.08.02-.15.04-.21.09"/>
    <line class="cls-4" x1="265.67" y1="575.6" x2="264.72" y2="574.32"/>
    <path class="cls-4" d="M267.84,578.54c.12.17.19.37.18.58"/>
    <line class="cls-4" x1="288.91" y1="556.24" x2="288.8" y2="556.11"/>
    <line class="cls-4" x1="267.86" y1="587.02" x2="267.35" y2="586.32"/>
    <path class="cls-4" d="M271.26,587c1.07,0,1.96-.87,1.98-1.94"/>
    <line class="cls-4" x1="267.86" y1="587.02" x2="271.26" y2="587"/>
    <line class="cls-4" x1="268.02" y1="579.12" x2="268.02" y2="579.3"/>
    <path class="cls-4" d="M298.4,565.84c.05-2.26-.69-4.45-2.13-6.2"/>
    <path class="cls-4" d="M113.21,371.31c0,.52.22.99.52,1.4"/>
    <line class="cls-4" x1="113.58" y1="424.12" x2="113.21" y2="371.31"/>
    <path class="cls-4" d="M494.05,304.52c-.04-.15.03-.31.13-.42"/>
    <path class="cls-4" d="M491.73,304.49c-.4-.27-.79-.55-1.17-.84"/>
    <path class="cls-4" d="M495.12,302.91c-.3.41-.61.81-.95,1.19"/>
    <path class="cls-4" d="M490.73,305.92c.37-.25.71-.51,1.05-.8"/>
    <path class="cls-4" d="M492.64,305.62c-.34.29-.68.55-1.05.8"/>
    <path class="cls-4" d="M494.22,304.73c.35.17.7.32,1.07.45"/>
    <path class="cls-4" d="M495.12,302.91c-.29-.17-.57-.33-.86-.5"/>
    <line class="cls-4" x1="495.12" y1="302.91" x2="494.2" y2="302.49"/>
    <path class="cls-4" d="M491.73,304.49c.09.06.16.14.19.24"/>
    <line class="cls-4" x1="492.14" y1="303.77" x2="491.93" y2="304.79"/>
    <path class="cls-4" d="M490.73,305.92c.28.18.56.35.86.5"/>
    <path class="cls-4" d="M492.64,305.62c.2-.17.56-.25.81-.13"/>
    <path class="cls-4" d="M492.14,303.77c.02-.08.04-.15.06-.23"/>
    <path class="cls-4" d="M494.22,304.73c-.09-.04-.15-.11-.18-.21"/>
    <path class="cls-4" d="M491.32,303.03s0-.02.01-.02"/>
    <line class="cls-4" x1="492.2" y1="303.54" x2="491.48" y2="303.13"/>
    <line class="cls-4" x1="508.72" y1="402.63" x2="462.73" y2="402.42"/>
    <path class="cls-4" d="M502.37,195.96c-.11.08-.21.16-.32.24"/>
    <path class="cls-4" d="M403.55,438.06c-.14.16-.28.31-.43.45"/>
    <path class="cls-4" d="M512.32,405.11c-.11,0-.18-.11-.22-.19-.1-.17-.16-.39-.21-.58-.08-.3-.13-.6-.17-.9-.09-.61-.13-1.22-.16-1.83-.06-1.23-.05-2.45.04-3.68"/>
    <path class="cls-4" d="M513.26,398.35c.19.16.37.33.52.53"/>
    <path class="cls-4" d="M513.91,401.07c-.09.47-.23.93-.4,1.39"/>
    <line class="cls-4" x1="513.77" y1="400.15" x2="514.02" y2="400.2"/>
    <path class="cls-4" d="M462.78,396.76s-.06.02-.08.04c-.04.03-.06.08-.09.12-.04.07-.06.15-.09.23-.05.15-.08.31-.11.47-.06.32-.09.64-.12.97"/>
    <line class="cls-4" x1="462.78" y1="396.76" x2="508.78" y2="396.94"/>
    <path class="cls-4" d="M512.43,394.49c.09,0,.16.09.2.16"/>
    <line class="cls-4" x1="509.53" y1="394.48" x2="512.43" y2="394.49"/>
    <line class="cls-4" x1="512.32" y1="405.11" x2="509.42" y2="405.09"/>
    <path class="cls-4" d="M512.53,404.95c-.04.06-.12.16-.21.15"/>
    <path class="cls-4" d="M514.02,400.98c.01-.08.01-.16,0-.24"/>
    <path class="cls-4" d="M514.11,399.77c0,.15-.03.29-.08.43"/>
    <path class="cls-4" d="M514.02,400.98c-.19,1.42-.71,2.78-1.5,3.97"/>
    <path class="cls-4" d="M513.82,398.91s-.04-.02-.05-.04"/>
    <line class="cls-4" x1="513.82" y1="398.91" x2="513.23" y2="398.91"/>
    <path class="cls-4" d="M514.02,400.7s0,0,0,0,0,0,0,.01c0,0,0,.01,0,.02"/>
    <path class="cls-4" d="M462.29,398.58c-.05.66-.06,1.31-.02,1.97.02.33.05.65.1.98.03.16.06.32.1.48.03.1.06.2.12.3.03.04.07.1.13.1"/>
    <path class="cls-4" d="M511.59,397.92c.04-.6.1-1.2.2-1.8.05-.3.11-.59.19-.89.04-.15.09-.29.15-.43.04-.09.08-.17.15-.24.04-.04.09-.08.14-.08"/>
    <path class="cls-4" d="M513.95,401.26c.04-.09.06-.18.08-.28"/>
    <path class="cls-4" d="M514.11,399.68s0,.06,0,.09"/>
    <path class="cls-4" d="M513.86,397.56c.11.46.17.92.2,1.39"/>
    <path class="cls-4" d="M513.86,397.56c-.03-.14-.09-.28-.17-.4"/>
    <line class="cls-4" x1="513.86" y1="397.56" x2="513.78" y2="397.6"/>
    <path class="cls-4" d="M513.89,398.54c0,.07,0,.13,0,.2,0,.03,0,.07-.02.1,0,.02-.02.07-.05.07"/>
    <path class="cls-4" d="M513.34,402.06c.07.13.13.26.17.4"/>
    <path class="cls-4" d="M513.95,401.26c.02-.17.04-.35.05-.52"/>
    <path class="cls-4" d="M514.11,399.68c-.02-.24-.03-.49-.05-.73"/>
    <path class="cls-4" d="M116.01,437.93c-.15-.15-.29-.3-.43-.45"/>
    <line class="cls-4" x1="404.06" y1="437.61" x2="403.12" y2="438.51"/>
    <line class="cls-4" x1="116.01" y1="437.93" x2="115.08" y2="437.03"/>
    <line class="cls-4" x1="405.63" y1="425.06" x2="405.51" y2="434.85"/>
    <path class="cls-4" d="M113.59,424.49c0-.06,0-.12,0-.18"/>
    <line class="cls-4" x1="113.65" y1="434.27" x2="113.59" y2="424.49"/>
    <path class="cls-4" d="M114.18,435.94c.25.41.56.76.9,1.09"/>
    <path class="cls-4" d="M114.11,426.12c-.31-.49-.52-1.03-.52-1.62"/>
    <path class="cls-4" d="M500,189.76c-.19.13-.45.13-.65,0"/>
    <path class="cls-4" d="M499.89,192.21c-.29.45-.58.89-.88,1.33"/>
    <path class="cls-4" d="M499.89,192.21c.05-.07.1-.12.17-.17"/>
    <line class="cls-4" x1="499.37" y1="190.19" x2="500.37" y2="190.85"/>
    <line class="cls-4" x1="498.56" y1="190.64" x2="498.77" y2="190.31"/>
    <line class="cls-4" x1="495.9" y1="187.04" x2="496.56" y2="186.58"/>
    <path class="cls-4" d="M502.05,196.2c-.39.26-.8.46-1.24.61"/>
    <line class="cls-4" x1="502.71" y1="195.75" x2="502.05" y2="196.2"/>
    <path class="cls-4" d="M499.29,190.24s.05-.04.07-.06"/>
    <path class="cls-4" d="M499.35,192.53s-.05.04-.07.06"/>
    <path class="cls-4" d="M500.15,189.6c.25-.41.5-.82.74-1.23"/>
    <path class="cls-4" d="M498.01,188.96c.45.26.9.53,1.35.8"/>
    <path class="cls-4" d="M501.9,192.94c-.4-.31-.8-.61-1.21-.9"/>
    <path class="cls-4" d="M501.31,191.07c.41.29.81.59,1.21.89"/>
    <path class="cls-4" d="M501.87,189.02c-.24.41-.49.83-.74,1.23"/>
    <path class="cls-4" d="M501.87,189.02c-.32-.23-.64-.45-.98-.65"/>
    <line class="cls-4" x1="501.87" y1="189.02" x2="500.48" y2="190.69"/>
    <path class="cls-4" d="M500.15,189.6c-.04.07-.09.12-.15.16"/>
    <path class="cls-4" d="M498.7,190.21s.04.07.07.1"/>
    <path class="cls-4" d="M498.01,188.96c-.21.32-.42.65-.62.98"/>
    <line class="cls-4" x1="498.01" y1="188.96" x2="498.7" y2="190.21"/>
    <path class="cls-4" d="M498.73,190.75c.28.18.36.54.18.82"/>
    <line class="cls-4" x1="499.24" y1="192.66" x2="499.01" y2="193.54"/>
    <path class="cls-4" d="M498.03,192.89c.32.22.65.44.98.65"/>
    <path class="cls-4" d="M499.24,192.66s.02-.05.03-.07"/>
    <line class="cls-4" x1="500.66" y1="191.51" x2="502.52" y2="191.96"/>
    <path class="cls-4" d="M501.9,192.94c.22-.32.43-.65.62-.98"/>
    <path class="cls-4" d="M501.31,191.07c-.25-.18-.34-.55-.18-.82"/>
    <path class="cls-4" d="M500.66,191.51c-.05-.01-.11-.03-.16-.05"/>
    <path class="cls-4" d="M500.37,190.85c.03-.06.07-.11.11-.16"/>
    <path class="cls-4" d="M500.37,190.85c-.07.21-.02.44.13.6"/>
    <path class="cls-4" d="M498.77,190.31c.17.06.37.04.52-.06"/>
    <line class="cls-4" x1="499.27" y1="192.59" x2="498.55" y2="192.11"/>
    <line class="cls-4" x1="500.5" y1="191.46" x2="500.17" y2="191.99"/>
  </g>
  <g id="Make2D::可见线::正切线">
    <line class="cls-4" x1="500.48" y1="190.69" x2="501.13" y2="190.25"/>
    <line class="cls-4" x1="501.31" y1="191.07" x2="500.66" y2="191.51"/>
    <line class="cls-4" x1="498.7" y1="190.21" x2="499.35" y2="189.76"/>
    <line class="cls-4" x1="495.1" y1="188.1" x2="494.67" y2="188.41"/>
    <line class="cls-4" x1="514.11" y1="399.68" x2="513.47" y2="399.68"/>
    <line class="cls-4" x1="513.91" y1="401.07" x2="513.65" y2="401.07"/>
    <line class="cls-4" x1="513.23" y1="398.94" x2="514.06" y2="398.94"/>
    <line class="cls-4" x1="513.23" y1="398.87" x2="513.77" y2="398.87"/>
    <line class="cls-4" x1="492.64" y1="305.62" x2="492.14" y2="303.77"/>
    <line class="cls-4" x1="493" y1="303.8" x2="493.45" y2="305.49"/>
    <line class="cls-4" x1="493.86" y1="302.94" x2="494.17" y2="304.1"/>
    <line class="cls-4" x1="268.02" y1="579.12" x2="267.34" y2="578.2"/>
    <line class="cls-4" x1="193.31" y1="536.23" x2="193.35" y2="560.33"/>
    <path class="cls-4" d="M345.84,509.27c-.32-4.94-.26-9.85.11-14.78.37-4.93,1.01-9.81,1.81-14.68.8-4.87,1.76-9.7,2.79-14.53.52-2.41,1.05-4.82,1.6-7.22.28-1.2.55-2.4.83-3.59.28-1.2.57-2.4.86-3.61"/>
    <path class="cls-4" d="M200.24,453.55c.33,1.2.67,2.4,1.01,3.61.34,1.2.67,2.4,1.01,3.61.67,2.4,1.34,4.81,2,7.22.66,2.41,1.32,4.82,1.96,7.23s1.27,4.83,1.87,7.25c.6,2.42,1.19,4.85,1.73,7.29.54,2.44,1.05,4.88,1.5,7.34.9,4.92,1.57,9.85,1.87,14.85"/>
    <path class="cls-4" d="M122.81,500.3c1.03-2.13,2.06-4.26,3.08-6.39,1.01-2.14,2.01-4.28,2.98-6.44.96-2.16,1.89-4.33,2.78-6.53.89-2.19,1.73-4.4,2.52-6.63,1.59-4.46,2.98-8.97,4.19-13.55.6-2.29,1.16-4.59,1.67-6.9.26-1.15.5-2.31.73-3.46.24-1.16.46-2.32.67-3.49"/>
    <line class="cls-4" x1="386.97" y1="553.52" x2="386.94" y2="555.79"/>
    <path class="cls-4" d="M427.73,544.73c-.5-4.35-1.23-8.64-2.26-12.91-.52-2.12-1.1-4.23-1.76-6.31-.66-2.08-1.39-4.14-2.18-6.18s-1.65-4.05-2.55-6.04c-.9-1.99-1.84-3.96-2.81-5.92-1.93-3.92-3.94-7.8-5.83-11.74"/>
    <path class="cls-4" d="M410.34,495.62c-.91-2.11-1.81-4.22-2.67-6.35s-1.69-4.27-2.47-6.43c-1.56-4.33-2.91-8.7-4.04-13.16-.57-2.22-1.08-4.46-1.54-6.71-.46-2.25-.87-4.51-1.23-6.77-.73-4.54-1.27-9.09-1.66-13.67"/>
    <path class="cls-4" d="M353.84,450.85c-.45,2.1-.89,4.2-1.33,6.31s-.86,4.21-1.27,6.32c-.82,4.22-1.59,8.44-2.27,12.69-.68,4.25-1.26,8.5-1.69,12.78-.21,2.14-.39,4.28-.52,6.42s-.2,4.29-.22,6.44"/>
    <path class="cls-4" d="M211.78,512.48c-.25-5.02-.84-9.98-1.63-14.94-.4-2.47-.85-4.94-1.33-7.4s-1-4.91-1.54-7.36c-.54-2.45-1.1-4.89-1.67-7.33-.57-2.44-1.16-4.87-1.75-7.31-1.19-4.87-2.4-9.73-3.62-14.59"/>
    <path class="cls-4" d="M141.43,446.92c-1.53,9.43-3.63,18.64-6.52,27.75-.72,2.27-1.48,4.52-2.29,6.76-.81,2.24-1.66,4.46-2.54,6.67-.88,2.21-1.8,4.4-2.74,6.59s-1.89,4.36-2.84,6.54"/>
    <line class="cls-4" x1="386.97" y1="553.52" x2="386.8" y2="552.41"/>
    <line class="cls-4" x1="159.16" y1="558.57" x2="159.06" y2="557.45"/>
    <line class="cls-4" x1="182.74" y1="560.46" x2="182.74" y2="560.27"/>
    <path class="cls-4" d="M411.67,494.65c1.97,4.12,4.08,8.17,6.09,12.27,1.01,2.05,1.98,4.11,2.91,6.2s1.8,4.19,2.61,6.33c.81,2.14,1.54,4.3,2.2,6.48.66,2.19,1.24,4.39,1.75,6.62,1.01,4.47,1.71,8.96,2.16,13.52"/>
    <path class="cls-4" d="M410.34,495.62c.25-.12.49-.26.72-.42.17-.11.51-.36.61-.55"/>
    <path class="cls-4" d="M124.5,501.23c-.47-.21-1.27-.62-1.69-.92"/>
    <path class="cls-4" d="M211.78,512.48c.08-.2.49-.34.65-.39.25-.07.5-.12.76-.15"/>
    <line class="cls-4" x1="267.71" y1="579.31" x2="266.86" y2="578.17"/>
    <line class="cls-4" x1="191.2" y1="560.06" x2="191.15" y2="535.98"/>
    <path class="cls-4" d="M146.53,529.85c.63.13,1.26.22,1.89.29"/>
    <path class="cls-4" d="M193.31,536.23c-.72-.06-1.44-.14-2.16-.26"/>
    <path class="cls-4" d="M358.89,532.72c.55-.09,1.1-.19,1.64-.34"/>
    <path class="cls-4" d="M393,524.71c-.43.16-.87.27-1.32.36"/>
    <path class="cls-4" d="M346.55,501.81c-.02,2.59.04,5.18.2,7.77"/>
    <line class="cls-4" x1="183.45" y1="562.79" x2="183.44" y2="561.63"/>
    <path class="cls-4" d="M146.53,529.85c-.01-2.66.04-5.32.17-7.98.13-2.61.33-5.21.61-7.82.29-2.65.66-5.28,1.13-7.9.47-2.57,1.04-5.12,1.75-7.64.73-2.57,1.62-5.18,2.72-7.62,1.04-2.31,2.33-4.63,3.94-6.62,1.6-1.99,3.62-3.77,6.09-4.68,2.64-.97,5.31-.76,7.85.29,2.37.98,4.47,2.62,6.25,4.41,1.9,1.91,3.56,4.14,4.98,6.4,1.41,2.24,2.62,4.57,3.7,6.99,1.08,2.41,2.01,4.87,2.83,7.38.82,2.53,1.52,5.08,2.12,7.67.59,2.56,1.07,5.13,1.46,7.73.39,2.61.68,5.23.87,7.87.2,2.63.3,5.26.3,7.9"/>
    <line class="cls-4" x1="200.38" y1="560.93" x2="200.24" y2="453.55"/>
    <line class="cls-4" x1="141.43" y1="446.92" x2="141.98" y2="552.57"/>
    <line class="cls-4" x1="146.64" y1="553.64" x2="146.53" y2="529.85"/>
    <path class="cls-4" d="M358.89,532.72c.05-4.97.36-9.89.96-14.82.3-2.45.66-4.88,1.1-7.31.44-2.45.96-4.88,1.56-7.3.6-2.42,1.28-4.81,2.07-7.17.78-2.34,1.64-4.64,2.64-6.9,1.04-2.35,2.26-4.73,3.67-6.89,1.23-1.9,2.77-3.88,4.56-5.33,1.02-.83,2.21-1.56,3.53-1.87,1.13-.27,2.24-.19,3.32.26,1.08.46,1.99,1.24,2.73,2.11.85.99,1.55,2.16,2.13,3.32,1.03,2.08,1.82,4.44,2.42,6.67.68,2.5,1.18,5.03,1.59,7.59.39,2.42.69,4.84.94,7.27.25,2.5.44,4.99.58,7.5s.23,4.89.28,7.34c.05,2.5.06,5,.03,7.51"/>
    <line class="cls-4" x1="393" y1="524.71" x2="392.73" y2="548.24"/>
    <line class="cls-4" x1="353.84" y1="450.85" x2="352.9" y2="557.53"/>
    <line class="cls-4" x1="358.67" y1="556.65" x2="358.89" y2="532.72"/>
    <path class="cls-4" d="M408.09,555.97c-17.82,5.21-41.14,8.42-59.47,10.31"/>
    <path class="cls-4" d="M348.62,566.28c-.05-4.76-.15-9.52-.29-14.27-.07-2.38-.16-4.75-.26-7.13-.1-2.38-.22-4.75-.34-7.13-.56-10.38-1.2-18.11-1.88-28.48"/>
    <path class="cls-4" d="M213.19,511.94c.61,10.51,1.11,18.14,1.57,28.67.1,2.39.2,4.78.28,7.17.08,2.39.16,4.78.22,7.17.13,4.78.23,9.57.29,14.35"/>
    <path class="cls-4" d="M215.56,569.3c-18.47-.89-37.83-2.39-56.18-4.71-9.21-1.16-18.74-2.6-27.86-4.37-8.77-1.7-18.82-4.03-27.27-7.05"/>
    <path class="cls-4" d="M104.25,553.17c.25-2.34.56-4.67.95-6.99.39-2.32.85-4.63,1.38-6.92.54-2.29,1.15-4.56,1.85-6.81.69-2.25,1.47-4.47,2.31-6.66s1.76-4.36,2.72-6.51c.96-2.15,1.98-4.26,3.02-6.37,2.08-4.22,4.27-8.38,6.31-12.62"/>
    <path class="cls-4" d="M86.33,558.73c-.09-10.52.68-21.06,3.03-31.37,1.18-5.2,2.71-10.11,4.63-15.08,1.93-5.02,4.05-9.6,6.3-14.47,2.25-4.87,4.36-9.46,6.28-14.49,1.9-4.97,3.41-9.9,4.58-15.1,2.32-10.31,3.1-20.86,3.02-31.37"/>
    <line class="cls-4" x1="410.34" y1="495.62" x2="409.72" y2="545.06"/>
    <path class="cls-4" d="M349.54,564.05c13.04-1.37,27.08-3.28,39.95-5.87,6.44-1.3,13.32-2.91,19.6-4.87,5.4-1.69,13.64-4.65,18.11-8.63"/>
    <path class="cls-4" d="M124.5,501.23c-1.95,4.06-4.03,8.06-6.04,12.09-1,2.02-1.98,4.04-2.91,6.09-.94,2.05-1.83,4.11-2.66,6.21-.83,2.09-1.59,4.21-2.29,6.35-.69,2.15-1.31,4.31-1.86,6.49-1.1,4.38-1.89,8.8-2.43,13.28"/>
    <line class="cls-4" x1="124.81" y1="551.27" x2="124.5" y2="501.23"/>
    <line class="cls-4" x1="211.78" y1="512.48" x2="211.81" y2="563.75"/>
    <path class="cls-4" d="M214.08,567.29c-.03-2.29-.08-4.57-.13-6.86-.05-2.29-.11-4.57-.18-6.86-.07-2.28-.14-4.57-.23-6.85-.09-2.29-.18-4.57-.28-6.86-.45-9.89-.94-17.51-1.48-27.39"/>
    <path class="cls-4" d="M106.85,551.66c15.54,5.36,36.95,8.82,53.07,10.86,17.68,2.24,36.29,3.71,54.08,4.6"/>
    <path class="cls-4" d="M429.39,546.07c-4.93,4.73-15.23,8.13-21.31,9.91"/>
    <path class="cls-4" d="M391.69,525.07c.03-2.42.02-4.83-.02-7.25-.04-2.37-.12-4.73-.24-7.1-.12-2.42-.29-4.83-.51-7.25-.21-2.36-.48-4.7-.83-7.04-.36-2.47-.81-4.92-1.4-7.35-.53-2.17-1.22-4.47-2.12-6.52-.52-1.19-1.16-2.4-1.94-3.45-.67-.89-1.5-1.74-2.52-2.27-.98-.5-2.01-.64-3.09-.41-1.25.27-2.37.98-3.31,1.78-1.68,1.43-3.1,3.38-4.23,5.23-1.3,2.14-2.43,4.49-3.39,6.8-.91,2.2-1.7,4.44-2.4,6.71-.71,2.3-1.33,4.63-1.88,6.98-.54,2.34-1.01,4.69-1.41,7.06-.4,2.35-.73,4.71-1,7.08-.54,4.77-.83,9.53-.87,14.32"/>
    <path class="cls-4" d="M391.69,525.07c-10.35,2.08-20.97,4.51-31.16,7.32"/>
    <line class="cls-4" x1="360.53" y1="532.39" x2="360.31" y2="556.3"/>
    <line class="cls-4" x1="391.42" y1="548.62" x2="391.69" y2="525.07"/>
    <path class="cls-4" d="M191.15,535.98c0-5.09-.35-10.13-1.05-15.18-.35-2.5-.78-4.99-1.3-7.46-.53-2.5-1.16-4.97-1.9-7.41-1.44-4.77-3.38-9.67-5.89-14-1.3-2.24-2.85-4.48-4.61-6.39-1.62-1.75-3.58-3.4-5.82-4.37-2.42-1.05-4.93-1.2-7.4-.12-2.35,1.02-4.22,2.94-5.64,4.95-1.42,1.99-2.56,4.28-3.47,6.53-.49,1.2-.92,2.41-1.31,3.64-.4,1.25-.77,2.52-1.09,3.79-1.24,4.85-2.05,10.03-2.54,14.99-.25,2.51-.43,5.01-.54,7.53-.12,2.56-.16,5.12-.15,7.68"/>
    <path class="cls-4" d="M191.15,535.98c-14.21-2.24-28.45-4.16-42.73-5.83"/>
    <line class="cls-4" x1="148.42" y1="530.15" x2="148.53" y2="553.95"/>
    <line class="cls-4" x1="298.34" y1="568.58" x2="299.46" y2="569.96"/>
    <line class="cls-4" x1="299.13" y1="559.71" x2="296.03" y2="555.98"/>
    <path class="cls-4" d="M540.65,222.56s.05,0,.07,0,.05,0,.07,0"/>
    <path class="cls-4" d="M540.65,222.56c-1.78-.45-3.87-.72-5.68-.9-1.91-.19-3.83-.31-5.74-.39"/>
    <path class="cls-4" d="M316.98,111.25c.18-.09.36-.18.53-.27"/>
    <path class="cls-4" d="M113.83,195.39c-.31-.19-.49-.46-.48-.84"/>
    <path class="cls-4" d="M113.83,195.39c0-.07.04-.14.11-.17"/>
    <path class="cls-4" d="M453.8,127.49s0,.02,0,.03"/>
    <path class="cls-4" d="M558.65,299c-1.52-2.84-2.94-5.73-4.27-8.66-1.6-3.53-3.07-7.11-4.39-10.76-1.33-3.65-2.51-7.33-3.56-11.06-2.09-7.46-3.62-15.08-4.59-22.76-.48-3.85-.82-7.7-1.02-11.58-.1-1.93-.16-3.86-.19-5.79-.03-1.94-.02-3.89.02-5.83"/>
    <path class="cls-4" d="M317.67,111.16c-.18.09-.36.18-.54.27"/>
    <path class="cls-4" d="M517.44,106.21c.7-2.9,1.53-5.74,2.56-8.53.95-2.57,2.05-5.04,3.37-7.44,1.41-2.55,3.02-4.92,4.93-7.13,1.84-2.14,3.86-4.02,6.12-5.72,4.6-3.46,9.82-5.82,15.25-7.53,2.81-.88,5.7-1.6,8.61-2.19"/>
    <path class="cls-4" d="M443.44,341.89s0-.04,0-.07"/>
    <line class="cls-4" x1="528.29" y1="219.67" x2="525.99" y2="219.68"/>
    <path class="cls-4" d="M317.51,110.98c2.36-1.19,4.71-2.39,7.06-3.59,2.35-1.2,4.7-2.41,7.04-3.62,2.34-1.21,4.69-2.43,7.02-3.66s4.67-2.46,7-3.7c9.12-4.85,18.77-10.13,27.71-15.31"/>
    <path class="cls-4" d="M144.25,74.66c0,.16,0,.32,0,.48"/>
    <path class="cls-4" d="M144.37,71.77c-.08.96-.12,1.92-.12,2.89"/>
    <path class="cls-4" d="M160.06,48.48c-.1-.57-.43-.88-1.02-.92-.35-.02-.71.05-1.04.15-.45.13-.86.32-1.27.54-1.14.6-2.24,1.44-3.18,2.3-1.93,1.77-3.54,3.93-4.81,6.2-1.28,2.29-2.26,4.76-2.97,7.28-.71,2.5-1.19,5.15-1.4,7.74"/>
    <path class="cls-4" d="M144.37,71.77c-.05-.1-.24-.15-.33-.16-.11-.02-.27-.01-.37.04"/>
    <path class="cls-4" d="M143.54,74.55c0-.97.04-1.93.13-2.9"/>
    <path class="cls-4" d="M350.33,36.58c.02-.11.18-.17.27-.19.11-.02.24-.02.34.01"/>
    <path class="cls-4" d="M336.42,26.18s0-.05,0-.07"/>
    <path class="cls-4" d="M139.08,47.24c-5.1,3.95-9.07,8.81-12.24,14.38-3.13,5.51-5.37,11.53-7.03,17.61-3.26,11.95-4.61,25.33-5.23,37.59-.63,12.45-.59,25.56-.54,38.01.03,6.34.06,12.67.04,19.01-.01,3.22-.03,6.44-.07,9.66-.04,3.11-.09,6.22-.14,9.34"/>
    <path class="cls-4" d="M336.04,24.98c-.14-1.12-.16-2.49.43-3.56.27-.5.66-.89,1.16-1.16.59-.32,1.26-.43,1.91-.43,1.21.02,2.43.44,3.46,1.01,1.07.59,2.02,1.35,2.86,2.23,1.68,1.75,2.91,3.95,3.72,6.21s1.28,4.73,1.36,7.13"/>
    <path class="cls-4" d="M336.19,25.94c-.06-.32-.11-.64-.15-.96"/>
    <path class="cls-4" d="M350.31,36.07c-.11-2.21-.53-4.48-1.24-6.57-.71-2.09-1.76-4.15-3.21-5.85-.72-.85-1.56-1.62-2.49-2.24-.92-.6-1.98-1.09-3.08-1.25-.6-.09-1.23-.09-1.82.08-.5.14-.94.38-1.3.76-.81.83-.99,2.06-.98,3.12"/>
    <path class="cls-4" d="M336.2,24.19c0,.35.03.69.07,1.04"/>
    <path class="cls-4" d="M143.67,71.65c.13-1.52.36-3.03.67-4.52.31-1.5.7-2.97,1.19-4.41.97-2.88,2.3-5.67,4.06-8.17.89-1.25,1.86-2.41,2.96-3.48,1.07-1.04,2.32-2.04,3.62-2.79.47-.27.95-.51,1.46-.7.39-.14.83-.27,1.24-.3.6-.04,1.13.12,1.32.77.08.27.08.57.06.84-.03.36-.1.71-.18,1.05-.21.84-.53,1.72-.85,2.52"/>
    <line class="cls-4" x1="24.6" y1="411.69" x2="25.55" y2="411.61"/>
    <line class="cls-4" x1="25.14" y1="410.55" x2="25.87" y2="410.5"/>
    <line class="cls-4" x1="26.57" y1="412.93" x2="25.5" y2="413.01"/>
    <path class="cls-4" d="M503.47,186.45c.18-.15.67-.76.81-.94"/>
    <path class="cls-4" d="M505.69,190.95c-.05-1.75-.86-3.39-2.22-4.5"/>
    <path class="cls-4" d="M503.47,186.45c-2.08-1.69-5.07-1.8-7.2-.11"/>
    <path class="cls-4" d="M496.27,186.34h0"/>
    <path class="cls-4" d="M495.91,186.66c.77-.51,1.65-.82,2.57-.9"/>
    <path class="cls-4" d="M495.93,196.19c-1.38-1.16-2.28-2.81-2.5-4.6-.22-1.79.23-3.61,1.32-5.05,1.1-1.45,2.73-2.37,4.54-2.55,1.8-.18,3.6.39,4.99,1.52"/>
    <path class="cls-4" d="M504.28,185.51c1.4,1.14,2.31,2.79,2.54,4.59.23,1.79-.25,3.62-1.35,5.06-1.1,1.44-2.73,2.38-4.55,2.57-1.81.2-3.6-.38-4.99-1.54"/>
    <line class="cls-4" x1="26.06" y1="412.4" x2="24.72" y2="412.51"/>
    <path class="cls-4" d="M502.82,196.12c1.84-1.07,2.92-3.06,2.87-5.17"/>
    <path class="cls-4" d="M132.1,402.89c0,1.35.27,2.93.88,4.17"/>
    <path class="cls-4" d="M129.04,406.85c.17.51.41,1.06.71,1.51.29.43.71.9,1.27,1.03"/>
    <path class="cls-4" d="M132.1,402.89c-.12-.03-.38-.03-.51-.02"/>
    <path class="cls-4" d="M131.59,402.87c0-1.09.14-2.35.56-3.38"/>
    <path class="cls-4" d="M401.87,396.12s0-.09,0-.14"/>
    <path class="cls-4" d="M132.55,400.37c-.04-.1,0-.21.06-.28"/>
    <path class="cls-4" d="M402.04,405.07c.45-.43.67-1.98.74-2.49"/>
    <path class="cls-4" d="M132.76,407.77c-.83-1.39-1.16-3.33-1.17-4.89"/>
    <path class="cls-4" d="M132.61,400.09c.89,2.3,1.1,5.43.31,7.82-.21.62-.5,1.25-.93,1.75-.43.5-1.02.89-1.74.75-.3-.06-.57-.2-.8-.38-.3-.23-.53-.5-.74-.81-.37-.54-.65-1.18-.86-1.79"/>
    <path class="cls-4" d="M129.04,406.85c-.08,0-.25.03-.33.05-.11.03-.22.07-.32.11-.1.05-.2.1-.29.17-.05.03-.09.07-.13.11-.04.04-.07.09-.11.13"/>
    <path class="cls-4" d="M495.91,307.7c1.26-.73,2.41-1.92,2.68-3.45"/>
    <path class="cls-4" d="M495.91,307.7c.09.38.41.92.67,1.2"/>
    <path class="cls-4" d="M498.59,304.25c.09-.54.07-1.09-.09-1.61"/>
    <path class="cls-4" d="M498.5,302.63c-.12-.41-.31-.76-.56-1.1"/>
    <path class="cls-4" d="M487.18,304.54c-.05.42-.03.81.06,1.23"/>
    <line class="cls-4" x1="489.85" y1="301.03" x2="489.84" y2="301.04"/>
    <path class="cls-4" d="M487.24,305.77c.2.85.73,1.54,1.43,2.03.7.49,1.52.76,2.35.88,1.65.23,3.45-.14,4.89-.98"/>
    <line class="cls-4" x1="469.07" y1="251.56" x2="468.76" y2="251.67"/>
    <path class="cls-4" d="M132.47,400.17c-.27.86-.37,1.83-.37,2.73"/>
    <path class="cls-4" d="M348.73,3.4c-1.02.17-2.04.35-3.05.54"/>
    <path class="cls-4" d="M184.88,32.25c6.09-1.2,12.19-2.35,18.28-3.49,6.1-1.14,12.2-2.27,18.3-3.39,6.1-1.12,12.21-2.23,18.32-3.33,6.11-1.1,12.21-2.2,18.32-3.29,6.11-1.09,12.22-2.17,18.33-3.25,6.11-1.07,12.22-2.14,18.34-3.2,6.12-1.06,12.24-2.11,18.36-3.15,6.11-1.04,12.23-2.06,18.35-3.06"/>
    <path class="cls-4" d="M331.49,6.09s.05,0,.07-.01"/>
    <path class="cls-4" d="M168.9,35.68c-1.13.21-2.25.43-3.38.67"/>
    <path class="cls-4" d="M174.38,34.74c-.09,0-.17,0-.26.01"/>
    <path class="cls-4" d="M345.68,3.94c-.67.12-1.25.36-1.82.72"/>
    <path class="cls-4" d="M174.12,34.75s-.03,0-.04,0"/>
    <path class="cls-4" d="M139.64,46.42c-.1.08.1.08.17.08.09,0,.17,0,.26,0"/>
    <path class="cls-4" d="M352.95,2.79c-1.03.12-2.06.26-3.08.42"/>
    <path class="cls-4" d="M352.95,2.79s0,0,0,0"/>
    <path class="cls-4" d="M345.67,3.81c1.21-.18,2.98-.45,4.2-.59"/>
    <path class="cls-4" d="M349.57,3.32c.09-.05.19-.08.29-.1"/>
    <path class="cls-4" d="M173.64,34.82c-.13,0-.27.02-.4.01-.02,0-.05,0-.06-.02-.01-.01.02-.03.03-.03.04-.02.07-.04.11-.05.07-.03.14-.05.2-.07.22-.07.45-.12.68-.18.5-.12,1.01-.24,1.52-.35,1.01-.22,2.03-.44,3.05-.65,2.04-.42,4.08-.83,6.12-1.23"/>
    <path class="cls-4" d="M162.86,36.75c-.08.02-.15.04-.23.06-.04.01-.08.02-.11.04-.03,0-.05.02-.07.03,0,0-.03.01-.03.03,0,.01.02.02.02.02.03,0,.06,0,.09,0,.04,0,.08,0,.12,0,.08,0,.16,0,.24-.01"/>
    <path class="cls-4" d="M144.25,75.14c0,.41.03.83.06,1.24"/>
    <path class="cls-4" d="M402.78,402.59c.18-1.35.25-2.95.25-4.31,0-.74-.04-3.52-.56-4.25"/>
    <path class="cls-4" d="M163.54,36.58c-.22.05-.45.1-.67.16"/>
    <path class="cls-4" d="M140.06,46.5c.4-.02.8-.06,1.19-.1.64-.07,1.28-.15,1.92-.23,2.02-.26,4.03-.55,6.04-.85,2.92-.44,5.84-.89,8.76-1.35,3.81-.6,7.61-1.22,11.42-1.84,4.54-.74,9.07-1.5,13.6-2.26,5.22-.88,10.43-1.76,15.65-2.65,2.33-.4,4.66-.8,6.99-1.2,2.4-.41,4.8-.83,7.2-1.24,2.47-.43,4.94-.86,7.41-1.29,2.54-.44,5.08-.89,7.62-1.33,2.42-.42,4.84-.85,7.26-1.27,2.43-.43,4.86-.86,7.29-1.29,4.89-.86,9.77-1.73,14.66-2.6,2.45-.44,4.9-.87,7.35-1.31,2.45-.44,4.91-.88,7.36-1.32,2.44-.44,4.87-.88,7.31-1.32,2.39-.43,4.78-.86,7.18-1.3,2.52-.46,5.05-.92,7.57-1.38,2.47-.45,4.95-.9,7.42-1.36,2.41-.44,4.82-.89,7.24-1.33,2.32-.43,4.63-.86,6.95-1.29,1.35-.25,2.7-.5,4.05-.75,1.31-.24,2.62-.49,3.93-.73,2.51-.47,5.02-.94,7.54-1.41,2.36-.45,4.72-.89,7.08-1.34,2.18-.42,4.37-.83,6.55-1.25,4.23-.81,8.45-1.64,12.68-2.48,3.1-.62,6.19-1.24,9.28-1.9,1.07-.23,2.14-.46,3.21-.7.75-.17,1.5-.34,2.24-.53.25-.06.51-.13.76-.2.17-.05.34-.1.51-.16.08-.03.18-.06.25-.11.03-.02.05-.05,0-.07"/>
    <path class="cls-4" d="M139.68,47.14c.04-.26.18-.49.38-.64"/>
    <line class="cls-4" x1="114.26" y1="425.97" x2="114.11" y2="426.12"/>
    <path class="cls-4" d="M400.6,63.36c1.02-.87,2.87-2.52,3.49-3.82"/>
    <path class="cls-4" d="M113.52,194.73c.08.21.24.37.43.49"/>
    <path class="cls-4" d="M504.18,194.27c-.42.83-1.03,1.54-1.79,2.07"/>
    <line class="cls-4" x1="505.08" y1="191.33" x2="505.69" y2="190.95"/>
    <line class="cls-4" x1="498.04" y1="302.42" x2="498.59" y2="304.25"/>
    <line class="cls-4" x1="457.53" y1="251.54" x2="458.52" y2="251.75"/>
    <line class="cls-4" x1="499.89" y1="192.21" x2="499.24" y2="192.66"/>
    <line class="cls-4" x1="114.18" y1="435.94" x2="114.11" y2="426.12"/>
    <line class="cls-4" x1="491.73" y1="304.49" x2="491.3" y2="302.91"/>
    <line class="cls-4" x1="395.51" y1="547.02" x2="396.72" y2="442.53"/>
    <path class="cls-4" d="M396.72,442.53c.43,4.47,1.06,9.09,1.87,13.51.41,2.24.86,4.46,1.38,6.68.51,2.21,1.08,4.41,1.7,6.6,1.26,4.38,2.74,8.66,4.44,12.89.85,2.11,1.75,4.2,2.68,6.27.93,2.07,1.9,4.13,2.88,6.18"/>
    <path class="cls-4" d="M346.78,509.66c-.01-.18-.3-.27-.42-.3-.18-.05-.35-.08-.53-.1"/>
    <path class="cls-4" d="M540.65,222.56c.04-1.99.12-3.98.24-5.97.12-1.98.27-3.96.45-5.94.19-1.98.41-3.96.67-5.93.26-1.97.55-3.93.88-5.89.66-3.92,1.47-7.81,2.41-11.68.47-1.93.98-3.85,1.52-5.76.54-1.92,1.12-3.82,1.74-5.72,1.23-3.79,2.58-7.52,4.08-11.21.75-1.84,1.53-3.67,2.34-5.49.81-1.81,1.66-3.61,2.54-5.39.41-.83.83-1.66,1.25-2.49"/>
    <path class="cls-4" d="M558.37,357.89c-1.03-.04-2.04-.09-3.05-.15-6.03-.36-12.54-1.09-18.39-2.8-6.02-1.75-11.53-4.57-15.79-9.41-4.19-4.75-6.51-10.68-7.94-16.67"/>
    <path class="cls-4" d="M113.94,195.22c.33.2.76.29,1.13.33.58.07,1.2.06,1.79.02.81-.05,1.62-.16,2.42-.3,1.02-.17,2.04-.38,3.05-.61,1.23-.28,2.45-.59,3.67-.91,1.44-.39,2.87-.8,4.3-1.23,3.44-1.03,6.85-2.15,10.25-3.32,4.03-1.38,8.04-2.83,12.03-4.32,4.62-1.72,9.22-3.49,13.8-5.29,16.66-6.56,34.47-14.11,50.85-21.32,4.16-1.83,8.3-3.67,12.45-5.53,4.24-1.9,8.48-3.82,12.71-5.75,8.36-3.81,16.7-7.68,25.01-11.6,4.17-1.96,8.33-3.94,12.48-5.93,2.07-.99,4.14-1.99,6.2-2.98,2.06-1,4.12-2,6.18-3,2.1-1.02,4.2-2.05,6.3-3.08,2.08-1.02,4.15-2.05,6.23-3.07,4.06-2.02,8.12-4.05,12.17-6.09"/>
    <path class="cls-4" d="M443.32,341.99c1.37-3.85,2.53-7.83,3.54-11.77.59-2.28,1.13-4.56,1.64-6.86.55-2.49,1.07-5,1.55-7.5.4-2.07.77-4.15,1.13-6.23.37-2.18.73-4.37,1.06-6.55.35-2.27.67-4.55.98-6.83.32-2.36.62-4.73.91-7.1.52-4.34.99-8.69,1.4-13.04.22-2.28.42-4.55.61-6.83.19-2.34.38-4.68.55-7.02.16-2.21.31-4.42.45-6.64.14-2.24.27-4.47.38-6.71.24-4.54.43-9.08.58-13.62.15-4.47.26-8.94.33-13.42.07-4.54.1-9.07.09-13.61,0-2.27-.02-4.55-.04-6.82-.02-2.26-.06-4.52-.1-6.78-.04-2.24-.1-4.49-.16-6.73-.06-2.23-.14-4.45-.22-6.68-.09-2.29-.18-4.57-.29-6.85-.11-2.27-.23-4.53-.36-6.8-.13-2.24-.27-4.49-.42-6.73-.15-2.2-.31-4.4-.48-6.59-.36-4.61-.78-9.21-1.25-13.81-.23-2.21-.47-4.42-.73-6.63-.25-2.15-.52-4.29-.8-6.43"/>
    <path class="cls-4" d="M317.14,111.43c-4.05,2.04-8.12,4.07-12.19,6.09-2.08,1.03-4.16,2.05-6.24,3.08-2.1,1.03-4.2,2.06-6.31,3.08-2.06,1-4.12,2-6.19,3-2.07,1-4.14,1.99-6.21,2.99-4.16,1.99-8.32,3.97-12.5,5.93-8.32,3.92-16.67,7.79-25.05,11.6-4.24,1.93-8.48,3.85-12.73,5.75-4.15,1.86-8.3,3.7-12.46,5.52-16.41,7.21-34.24,14.76-50.92,21.32-4.59,1.8-9.19,3.57-13.82,5.29-4,1.49-8.01,2.93-12.05,4.31-3.4,1.17-6.82,2.29-10.26,3.32-1.43.43-2.87.84-4.31,1.23-1.22.33-2.45.64-3.68.91-1.01.23-2.03.44-3.05.6-.81.13-1.61.24-2.43.3-.58.04-1.21.05-1.79-.02-.37-.04-.8-.13-1.13-.33"/>
    <path class="cls-4" d="M453.66,127.4c-1.46-11.16-3.51-23.39-6.32-34.31-1.4-5.42-3.21-11.4-5.46-16.55-.63-1.44-1.31-2.86-2.06-4.24-.65-1.18-1.34-2.31-2.13-3.4-.95-1.31-2.08-2.6-3.42-3.56-1.02-.73-2.17-1.26-3.46-1.37"/>
    <path class="cls-4" d="M443.32,341.99c.05-.01.1-.05.12-.1"/>
    <path class="cls-4" d="M453.66,127.4s.13.02.14.09"/>
    <path class="cls-4" d="M316.98,111.25s.08.05.1.07c.03.03.05.07.06.11"/>
    <path class="cls-4" d="M317.51,110.98s.08.05.1.07c.03.03.05.07.06.11"/>
    <path class="cls-4" d="M429.76,360.02c2.04-.07,3.8-1.25,5.16-2.58,1.38-1.35,2.58-3.06,3.56-4.7,1.96-3.28,3.57-7.18,4.84-10.76"/>
    <path class="cls-4" d="M113.35,194.56c0-.07,0-.15.02-.22"/>
    <path class="cls-4" d="M404.38,58.33c.1.18.12.38.09.58-.03.27-.13.5-.25.74-.16.32-.37.61-.59.89-.29.37-.6.71-.92,1.04-.87.9-1.85,1.74-2.82,2.53-1.34,1.09-2.72,2.11-4.13,3.11-1.61,1.14-3.24,2.25-4.88,3.33-1.92,1.26-3.86,2.5-5.82,3.71-7.02,4.36-14.9,8.9-22.11,12.93-1.83,1.02-3.66,2.04-5.5,3.05-1.9,1.04-3.81,2.08-5.72,3.12-1.85,1-3.7,2-5.56,2.99-1.91,1.02-3.82,2.04-5.74,3.05-3.78,1.99-7.56,3.97-11.36,5.92-1.88.97-3.75,1.93-5.63,2.89-1.92.98-3.85,1.96-5.78,2.94"/>
    <path class="cls-4" d="M139.08,47.24c-.09,0-.17,0-.26,0-.04,0-.09,0-.13-.01-.02,0-.04,0-.06-.02-.02-.02,0-.04.02-.05"/>
    <path class="cls-4" d="M159.21,52.46c-.27.7-.56,1.39-.86,2.08-.31.73-.64,1.45-.96,2.17-.63,1.41-1.28,2.81-1.92,4.22-.62,1.36-3.22,7.06-3.85,8.42-1.05,2.28-2.82,6.12-4.17,8.26-.25.4-.52.8-.82,1.17-.25.31-.56.66-.9.89-.71.46-1.2.12-1.53-.57-.3-.62-.45-1.47-.53-2.13-.1-.8-.13-1.61-.14-2.42"/>
    <path class="cls-4" d="M113.84,194.96c.2.12.4.19.63.24.29.07.58.1.88.12.82.05,1.69-.02,2.5-.12,1.18-.14,2.34-.36,3.5-.6,1.51-.32,3.01-.69,4.5-1.09,1.81-.49,3.62-1.01,5.41-1.56,2.1-.64,4.18-1.31,6.27-2.01,5.04-1.68,10.04-3.47,15.02-5.32,5.9-2.19,11.77-4.47,17.62-6.8,3.24-1.29,6.47-2.59,9.69-3.91,1.69-.69,3.38-1.38,5.06-2.08,1.72-.71,3.44-1.43,5.16-2.15,2.99-1.25,5.97-2.51,8.94-3.78,3.06-1.3,6.11-2.61,9.17-3.94,1.56-.67,3.11-1.35,4.66-2.03,1.57-.69,3.15-1.38,4.72-2.07,1.59-.7,3.18-1.4,4.77-2.1,1.61-.71,3.21-1.43,4.82-2.14,1.53-.68,3.05-1.36,4.58-2.05,1.53-.69,3.06-1.38,4.59-2.07,3.07-1.38,6.13-2.78,9.19-4.18,6.14-2.81,12.27-5.65,18.39-8.52,6.14-2.88,12.27-5.79,18.39-8.72,1.53-.73,3.05-1.47,4.57-2.2,1.51-.73,3.02-1.46,4.53-2.2,1.5-.73,3-1.46,4.49-2.19,1.48-.72,2.96-1.45,4.44-2.18,1.57-.77,3.14-1.55,4.71-2.32,1.55-.77,3.1-1.54,4.65-2.31,3.05-1.52,6.1-3.05,9.14-4.59,2.97-1.5,5.94-3.01,8.9-4.54,1.46-.75,2.91-1.5,4.36-2.25,1.43-.74,2.86-1.48,4.29-2.23,6.36-3.32,12.7-6.68,19.01-10.11,5.53-3.01,11.03-6.07,16.49-9.2,4.68-2.69,9.33-5.43,13.91-8.29,1.87-1.17,3.74-2.36,5.58-3.57,1.56-1.03,3.12-2.09,4.64-3.18,1.25-.89,2.48-1.81,3.68-2.78.91-.73,1.8-1.49,2.63-2.31.32-.31.62-.63.91-.97.23-.27.45-.55.64-.85.15-.23.28-.47.38-.73.07-.2.12-.39.11-.6"/>
    <path class="cls-4" d="M113.84,194.96c0,.07.03.13.09.17"/>
    <path class="cls-4" d="M139.3,47.16c-.08,0-.15.03-.21.08"/>
    <path class="cls-4" d="M374.71,5.26s-.03.03-.05.04c-.03.02-.07.04-.11.05-.13.06-.26.1-.4.14-.49.15-.98.28-1.48.4-.79.2-1.59.38-2.38.56-1.09.25-2.18.48-3.28.71-3.06.65-6.13,1.27-9.2,1.89-4.11.82-8.22,1.62-12.34,2.42-9.8,1.89-19.61,3.73-29.42,5.55-2.34.43-4.69.87-7.04,1.3-2.43.45-4.87.89-7.3,1.34-2.49.46-4.98.91-7.47,1.36-2.54.46-5.09.92-7.63,1.38-2.42.44-4.83.87-7.25,1.31-2.46.44-4.92.88-7.37,1.32-4.94.89-9.89,1.77-14.84,2.64-2.49.44-4.99.88-7.48,1.32-2.47.44-4.94.87-7.41,1.31-2.44.43-4.89.86-7.33,1.29-2.42.42-4.84.84-7.25,1.26-2.55.44-5.11.89-7.66,1.33-2.51.43-5.02.87-7.53,1.3-2.43.42-4.85.83-7.28,1.25-2.34.4-4.68.8-7.02,1.2l-4.08.69c-1.33.22-2.66.45-3.98.67-2.55.43-5.11.86-7.66,1.29-4.6.77-9.2,1.53-13.8,2.28-3.82.62-7.64,1.24-11.47,1.84-2.97.47-5.94.93-8.91,1.37-2.02.3-4.03.59-6.06.85-.65.08-1.3.16-1.96.23-.4.04-.8.08-1.2.09"/>
    <path class="cls-4" d="M159.1,52.55s.06-.08.11-.09"/>
    <path class="cls-4" d="M336.42,26.11c-.02-.11-.14-.15-.23-.17"/>
    <path class="cls-4" d="M113.36,194.13c0,.37.17.64.48.83"/>
    <path class="cls-4" d="M496.27,186.35c-.12.1-.25.2-.36.31"/>
    <path class="cls-4" d="M494.69,188.34c-.39.83-.58,1.75-.56,2.67"/>
    <path class="cls-4" d="M496.35,195.53s-.02.08-.03.09c-.01.03-.03.06-.05.09-.03.06-.07.11-.11.16-.08.11-.15.21-.24.32"/>
    <path class="cls-4" d="M127.86,407.43c-.77-2.28-.94-5.46-.27-7.8.18-.61.44-1.27.84-1.78.43-.53,1.01-.88,1.72-.7.3.08.54.22.78.41.29.23.53.49.75.79.4.54.68,1.12.93,1.74"/>
    <path class="cls-4" d="M403.83,403.12c-.08.58-.18,1.14-.33,1.71-.06.21-.12.42-.21.63-.06.15-.13.3-.22.43-.1.15-.27.32-.49.24-.09-.03-.15-.09-.21-.16-.08-.09-.14-.2-.2-.31-.16-.32-.27-.7-.36-1.04-.13-.57-.22-1.14-.28-1.72-.22-2.17-.09-4.79.32-6.93"/>
    <path class="cls-4" d="M401.86,395.98c.11-.57.24-1.13.42-1.68.07-.21.15-.41.24-.61.07-.15.15-.3.24-.43.07-.09.14-.18.24-.24.07-.04.15-.07.23-.05.09.02.14.07.2.14.08.09.13.2.18.31.14.34.22.73.28,1.09.1.57.15,1.14.18,1.72.13,2.08.05,4.84-.24,6.9"/>
    <path class="cls-4" d="M402.78,402.59c.21,0,.41.04.61.13.16.07.4.21.44.41"/>
    <path class="cls-4" d="M130.61,398c-.43.02-.77.27-1.03.58-.26.31-.45.69-.59,1.06-.28.74-.43,1.6-.48,2.38-.12,1.54.05,3.34.54,4.82"/>
    <path class="cls-4" d="M489.5,300.79c1.33-.84,2.93-1.31,4.51-1.32,1.55,0,3.2.45,4.38,1.55,1.22,1.14,1.68,2.73,1.2,4.34-.46,1.54-1.68,2.76-3,3.54"/>
    <path class="cls-4" d="M496.57,308.9c-1.35.79-2.94,1.22-4.5,1.23-1.52,0-3.19-.4-4.38-1.46-1.25-1.13-1.63-2.72-1.13-4.31.47-1.52,1.65-2.76,2.94-3.57"/>
    <path class="cls-4" d="M489.84,301.04s-.08,0-.1-.02c-.03-.02-.06-.04-.09-.06-.06-.05-.1-.1-.15-.16"/>
    <line class="cls-4" x1="458.52" y1="251.75" x2="468.76" y2="251.67"/>
    <path class="cls-4" d="M162.9,36.92c.35-.03.69-.06,1.03-.11.53-.06,1.06-.13,1.59-.21,1.62-.22,3.23-.47,4.84-.72,2.34-.36,4.68-.73,7.01-1.11,2.99-.48,5.98-.98,8.97-1.48,7.8-1.3,15.6-2.63,23.39-3.98,1.87-.32,3.73-.65,5.6-.97,1.93-.34,3.87-.67,5.8-1.01,1.98-.34,3.95-.69,5.93-1.04,2.02-.35,4.03-.71,6.04-1.06,1.91-.34,3.82-.67,5.73-1.01,1.94-.34,3.88-.69,5.83-1.03,1.97-.35,3.94-.7,5.91-1.05,1.97-.35,3.93-.7,5.9-1.05,3.91-.7,7.83-1.41,11.74-2.11,3.87-.7,7.74-1.4,11.61-2.1,4.01-.73,8.02-1.46,12.03-2.2,1.91-.35,3.83-.7,5.74-1.06,1.85-.34,3.71-.68,5.56-1.03,7.78-1.44,15.56-2.89,23.33-4.38,3.03-.58,6.06-1.16,9.09-1.76,2.32-.45,4.64-.91,6.96-1.39,1.59-.32,3.18-.65,4.76-1.01.5-.11,1.01-.23,1.51-.35.31-.08.62-.15.92-.24"/>
    <path class="cls-4" d="M348.73,3.4c-1.89.22-5.32.76-7.19,1.05"/>
    <path class="cls-4" d="M162.74,37.09c0-.08.07-.15.15-.17"/>
    <path class="cls-4" d="M331.56,6.08c3.04-.49,11.06-1.79,14.12-2.14"/>
    <path class="cls-4" d="M341.3,4.49c-1.77.28-3.55.58-5.32.87"/>
    <path class="cls-4" d="M161.73,37.19c-7.74,1.85-15.11,4.51-21.67,9.31"/>
    <path class="cls-4" d="M161.73,37.19c-.11,0-.22.01-.33.01-.04,0-.08,0-.12,0-.01,0-.03,0-.02-.03.01-.02.03-.02.05-.03.03-.02.07-.03.1-.04.21-.07.42-.12.63-.17"/>
    <path class="cls-4" d="M349.86,3.22c.24-.03.48-.05.72-.07.15-.01.3-.03.45-.03.04,0,.08,0,.12,0,.01,0,.04,0,.05.02,0,.01,0,.03-.01.03-.03.02-.05.03-.08.04-.12.05-.25.09-.37.12-.22.06-.43.12-.65.17-.71.18-1.43.34-2.14.49-2.49.55-5,1.05-7.5,1.55-3.86.77-7.73,1.52-11.6,2.27-3.69.71-7.37,1.41-11.06,2.1-2.07.39-4.14.78-6.21,1.17-2.19.41-4.37.82-6.56,1.22-3.85.71-7.69,1.43-11.54,2.13-2.03.37-4.07.75-6.1,1.12-2.07.38-4.14.76-6.22,1.13-1.95.36-3.9.71-5.85,1.06-1.97.36-3.95.72-5.92,1.07-2,.36-4,.72-6,1.08-2.02.37-4.04.73-6.07,1.09-2.02.36-4.04.72-6.06,1.08-2,.36-4,.71-6,1.07-3.94.7-7.87,1.4-11.81,2.09-2.07.37-4.14.73-6.21,1.09-2.03.36-4.07.71-6.1,1.07-3.86.67-7.71,1.35-11.57,2.01-2.18.38-4.35.75-6.53,1.13-2.07.36-4.14.71-6.22,1.06-1.94.33-3.88.66-5.82.99-1.78.3-3.56.6-5.34.9-1.61.27-3.22.54-4.83.8-1.45.24-2.91.48-4.37.71-2.39.39-4.78.77-7.17,1.14-1.64.25-3.28.5-4.93.73-.54.07-1.08.15-1.62.21-.34.04-.68.08-1.03.1"/>
    <path class="cls-4" d="M161.73,37.19s.1-.02.15-.02"/>
    <path class="cls-4" d="M350.95,36.4c.04,1.3-.03,2.69-.28,3.98-.21,1.12-.67,2.74-1.65,3.55-1.22,1.01-2.61.23-3.59-.58-.97-.81-1.9-1.98-2.62-2.99-1.47-2.07-2.88-4.63-3.95-6.92-1.05-2.23-2.19-5.05-2.67-7.5"/>
  </g>
  <g id="_图层_4" data-name="图层 4">
    <g>
      <line class="cls-1" x1="7.35" y1="412.91" x2="13.34" y2="412.45"/>
      <line class="cls-2" x1="24.7" y1="411.56" x2="109.93" y2="404.92"/>
      <line class="cls-1" x1="115.61" y1="404.47" x2="121.59" y2="404.01"/>
      <polygon class="cls-5" points="119.88 412.14 133.04 403.11 118.64 396.23 119.88 412.14"/>
    </g>
    <g>
      <line class="cls-1" x1="531.48" y1="399.25" x2="525.48" y2="399.23"/>
      <line class="cls-3" x1="513.78" y1="399.2" x2="425.99" y2="398.96"/>
      <line class="cls-1" x1="420.14" y1="398.95" x2="414.14" y2="398.93"/>
      <polygon class="cls-5" points="416.5 390.96 402.66 398.9 416.45 406.92 416.5 390.96"/>
    </g>
  </g>
</svg>