<?xml version="1.0" encoding="UTF-8"?>
<svg xmlns="http://www.w3.org/2000/svg" viewBox="0 0 588.02 568.56">
  <defs>
    <style>
      .cls-1 {
        stroke-dasharray: 0 0 12.24 12.24;
      }

      .cls-1, .cls-2 {
        stroke: red;
        stroke-miterlimit: 10;
        stroke-width: 4px;
      }

      .cls-1, .cls-2, .cls-3 {
        fill: none;
      }

      .cls-4 {
        fill: red;
      }

      .cls-4, .cls-5 {
        stroke-width: 0px;
      }

      .cls-3 {
        stroke: #000;
        stroke-linecap: round;
        stroke-linejoin: round;
      }

      .cls-5 {
        fill: #bfbfbf;
      }
    </style>
  </defs>
  <g id="_图层_3" data-name="图层 3">
    <path class="cls-5" d="M189.01,184.53l-1.32-1.28-2.75-.74-3.02-.16-3.1,1.14-1.35,1.21v1.25l.12,2.69,1.69,1.23,1.09.67,1.42,34.41s.58.71.61.81,1.89.51,1.89.51l2.29-.28,1.21-.76.16-.49-1.37-34.51,1.85-.94.69-.94-.11-3.81Z"/>
  </g>
  <g id="Make2D::可见线::正切线">
    <path class="cls-3" d="M376.4,35.97c-.35-.24-.78-.51-1.19-.64-.5-.17-.98-.14-.97.49"/>
    <path class="cls-3" d="M177.61,84.88c.08-.15.16-.31.24-.46"/>
    <path class="cls-3" d="M173.63,69.91c-.22.31-.42.62-.62.94"/>
    <path class="cls-3" d="M383.5,51.23c.25.39.49.79.74,1.18"/>
    <path class="cls-3" d="M378.23,37.56c-.55-.55-1.19-1.13-1.83-1.58"/>
    <path class="cls-3" d="M378.23,37.56c.07-.08.17-.23.13-.35"/>
    <path class="cls-3" d="M177.61,84.88s-.04-.02-.07-.03"/>
    <path class="cls-3" d="M173.01,70.85c-.13-.08-.26-.16-.38-.26"/>
    <path class="cls-3" d="M378.36,37.21s.07.07.11.1"/>
    <path class="cls-3" d="M172.63,70.59c.21-.32.43-.64.66-.95"/>
    <path class="cls-3" d="M378.33,37.66s-.07-.07-.1-.1"/>
    <path class="cls-3" d="M177.84,84.42c.54-1.07,1.04-2.15,1.51-3.25"/>
    <path class="cls-3" d="M351.48,10.29s0,0,.01,0"/>
    <path class="cls-3" d="M143.4,137.33c-.1.02-.15.13-.12.22"/>
    <path class="cls-3" d="M177.37,84.85s.02.06.03.08c.02.02.04.04.06.06"/>
    <path class="cls-3" d="M143.11,137.36c-.1.02-.15.13-.12.22"/>
    <path class="cls-3" d="M143.27,137.55c-.09.01-.19.02-.28.03"/>
    <path class="cls-3" d="M387.25,55.73c0-.36-.06-.76-.13-1.11-.09-.47-.21-.93-.34-1.39-.23-.82-.49-1.63-.78-2.43-.58-1.61-1.24-3.17-1.99-4.7-1.43-2.91-3.39-6.09-5.68-8.44"/>
    <path class="cls-3" d="M182.31,69.84c-.02-.98-.19-2.19-.87-3.01-.74-.91-1.85-1.06-2.9-.8-1.03.25-1.99.86-2.77,1.52-.81.68-1.52,1.5-2.13,2.36"/>
    <path class="cls-3" d="M387.25,55.74h0"/>
    <line class="cls-3" x1="376.46" y1="40.17" x2="376.4" y2="35.97"/>
    <path class="cls-3" d="M390.66,97.13c1.07-.27,2.14-.56,3.21-.88.53-.16,1.06-.32,1.58-.51.21-.08,1.33-.47,1.44-.77"/>
    <path class="cls-3" d="M295.07,55.13s0,.01,0,.02"/>
    <line class="cls-3" x1="253.35" y1="523.95" x2="251.47" y2="524.35"/>
    <path class="cls-3" d="M374.63,37.15c.5,1.1,1.44,2.59,2.09,3.59.75,1.17,1.52,2.32,2.28,3.48,1.76,2.68,2.79,4.28,4.5,7"/>
    <line class="cls-3" x1="234.93" y1="527.04" x2="233.09" y2="527.43"/>
    <path class="cls-3" d="M347.01,18.76c.09,1.26-.27,2.45-.87,3.53-.77,1.4-1.92,2.62-3.11,3.65-.98.85-2.03,1.61-3.12,2.32-1.29.84-2.63,1.6-3.99,2.31-4.87,2.53-10.58,4.63-15.79,6.27-5.35,1.69-10.97,3.14-16.44,4.36-5.54,1.24-11.1,2.29-16.71,3.2"/>
    <path class="cls-3" d="M229.68,48.85c-11.05-.06-23.11-.7-34.06-2.4-5.42-.84-11.41-2.07-16.62-3.87-1.46-.5-2.89-1.06-4.29-1.7-1.19-.55-2.35-1.15-3.45-1.86-1.32-.85-2.63-1.87-3.6-3.14-.77-.99-1.32-2.13-1.44-3.4"/>
    <path class="cls-3" d="M190.69,42.69c-1.31-.73-2.63-1.64-3.64-2.79-.75-.86-1.33-1.87-1.48-3.04-.15-1.19.18-2.31.76-3.32.35-.62.77-1.17,1.24-1.69.55-.62,1.16-1.17,1.8-1.7,3.85-3.14,9.73-5.63,14.27-7.26,9.68-3.47,21.14-5.92,31.24-7.51"/>
    <line class="cls-3" x1="227.74" y1="257.62" x2="227.35" y2="257.33"/>
    <path class="cls-3" d="M234.88,15.36c8.83-1.4,17.97-2.36,26.89-2.9,2.27-.14,4.54-.25,6.8-.33,2.24-.08,4.48-.14,6.72-.16,2.29-.03,4.58-.02,6.88.01,2.22.03,4.43.1,6.65.2,8.52.38,18.46,1.33,26.79,3.43,2.47.62,4.98,1.38,7.33,2.37.97.41,1.91.85,2.83,1.37.78.44,1.53.92,2.24,1.47.9.7,1.74,1.55,2.3,2.57.47.85.7,1.78.62,2.76-.09,1.06-.52,2.02-1.1,2.88-.75,1.12-1.76,2.1-2.8,2.94"/>
    <path class="cls-3" d="M231.03,7.91c3.64-.57,7.28-1.07,10.93-1.52,3.73-.45,7.47-.84,11.21-1.16,3.73-.32,7.46-.58,11.19-.78,3.69-.2,7.38-.33,11.08-.4,7.39-.14,14.91-.01,22.29.46,3.94.25,7.86.6,11.78,1.09,3.47.43,6.91.97,10.33,1.67,2.38.49,4.73,1.05,7.06,1.74,1.97.58,3.9,1.24,5.79,2.06,1.51.65,3.02,1.42,4.39,2.34,1.06.72,2.1,1.57,2.9,2.58,2,2.53,1.81,5.15.02,7.69-.52.74-1.12,1.4-1.77,2.02-.78.74-1.61,1.4-2.48,2.03-2.16,1.55-4.58,2.86-6.98,4-3.05,1.45-6.25,2.69-9.44,3.79-3.83,1.32-7.7,2.45-11.62,3.46-7.16,1.85-14.54,3.33-21.84,4.51"/>
    <path class="cls-3" d="M286.91,44.17c2.09-.34,4.17-.7,6.25-1.08,2.01-.37,4.01-.75,6.01-1.17,3.78-.77,7.53-1.63,11.27-2.58,2.2-.56,4.39-1.16,6.57-1.8,2.01-.59,4-1.22,5.99-1.89,3.42-1.16,6.88-2.48,10.16-4,1.42-.66,2.82-1.36,4.18-2.13,1.18-.66,2.32-1.36,3.42-2.14.94-.66,1.84-1.36,2.68-2.15.71-.66,1.36-1.37,1.93-2.16,1.96-2.75,2.05-5.54-.16-8.2-.89-1.07-2.02-1.97-3.17-2.72-1.49-.98-3.13-1.79-4.76-2.48-2.05-.87-4.13-1.57-6.26-2.2-2.5-.73-5.03-1.34-7.58-1.86-3.7-.76-7.42-1.35-11.17-1.83-4.2-.54-8.41-.93-12.64-1.22-1.93-.13-3.85-.24-5.78-.33-1.98-.09-3.97-.16-5.96-.21-2.02-.05-4.05-.08-6.07-.09-2.06-.01-4.13,0-6.19.03-1.98.03-3.95.07-5.93.13-2.01.06-4.02.15-6.03.24-4.01.2-8.02.46-12.03.8-4.03.34-8.06.74-12.07,1.22-3.93.47-7.86,1.01-11.77,1.62"/>
    <path class="cls-3" d="M285.88,43.49c-7.46,1.21-14.94,2.13-22.46,2.8-7.52.67-15.05,1.09-22.6,1.25-7.5.15-15.14.04-22.64-.42-2.06-.13-4.11-.28-6.17-.47-1.94-.18-3.88-.38-5.82-.62-3.51-.44-6.99-.97-10.45-1.68-2.45-.5-4.88-1.08-7.28-1.8-2-.6-3.97-1.28-5.88-2.13-1.51-.67-3.02-1.46-4.38-2.41-1.04-.73-2.04-1.6-2.8-2.64-1.94-2.66-1.43-5.34.46-7.79.57-.74,1.21-1.4,1.9-2.02.81-.73,1.68-1.39,2.58-2.01,2.21-1.52,4.66-2.81,7.08-3.94,3.13-1.45,6.41-2.69,9.67-3.79,3.87-1.31,7.79-2.43,11.76-3.43,7.27-1.84,14.78-3.31,22.18-4.47"/>
    <path class="cls-3" d="M227.79,5.95c-2.12.33-4.23.68-6.34,1.06-2.04.36-4.07.75-6.1,1.16-1.96.39-3.92.81-5.87,1.25-1.89.42-3.76.87-5.64,1.35-2.22.56-4.43,1.15-6.63,1.79-2.04.59-4.06,1.22-6.07,1.89-1.85.62-3.69,1.28-5.5,1.99-1.67.65-3.31,1.34-4.93,2.09-2.62,1.21-5.27,2.59-7.66,4.23-.98.67-1.91,1.37-2.79,2.16-.76.67-1.45,1.38-2.07,2.18-2.04,2.63-2.62,5.51-.53,8.38.81,1.12,1.89,2.05,3.01,2.84,1.47,1.03,3.11,1.88,4.74,2.6,2.07.91,4.19,1.65,6.36,2.29,2.59.77,5.22,1.4,7.87,1.93,3.75.76,7.51,1.34,11.31,1.81,4.3.53,8.6.9,12.92,1.17,1.96.12,3.92.22,5.88.29,2.01.08,4.02.13,6.04.17,2.06.04,4.12.05,6.18.05,2.11,0,4.21-.03,6.31-.07,2.02-.04,4.03-.1,6.04-.18,2.05-.08,4.09-.18,6.13-.29,4.08-.23,8.15-.52,12.21-.89,4.11-.37,8.21-.81,12.3-1.32,3.99-.5,7.97-1.06,11.94-1.71"/>
    <path class="cls-3" d="M231.03,7.91c-1.06-.69-2.11-1.38-3.24-1.96"/>
    <path class="cls-3" d="M525.61,277.03c-1.17-1.39-2.4-2.73-3.69-4.01-1.26-1.25-2.58-2.44-3.95-3.57-2.72-2.24-5.58-4.18-8.68-5.86-1.54-.84-3.11-1.6-4.73-2.29-1.62-.7-3.27-1.31-4.95-1.85-1.69-.54-3.39-1.01-5.13-1.39-1.76-.39-3.52-.71-5.3-.95-1.61-.22-3.22-.37-4.83-.47-1.65-.1-3.31-.14-4.97-.12-3.46.04-6.89.32-10.32.81-1.78.26-3.54.57-5.29.93-1.8.37-3.58.8-5.35,1.27-1.82.49-3.62,1.03-5.41,1.61-1.84.6-3.66,1.25-5.46,1.95-3.09,1.19-6.12,2.51-9.11,3.95-1.55.75-3.09,1.52-4.61,2.32-1.56.82-3.11,1.68-4.64,2.56-1.56.9-3.1,1.82-4.63,2.77-1.55.97-3.09,1.96-4.6,2.97-1.54,1.04-3.07,2.09-4.58,3.18-1.54,1.1-3.06,2.23-4.56,3.38-11.23,8.6-21.58,18.53-30.9,29.15-2.28,2.59-4.5,5.24-6.67,7.92-2.2,2.73-4.35,5.5-6.44,8.32-1.06,1.43-2.1,2.86-3.13,4.31-1.04,1.46-2.06,2.93-3.07,4.41-2.04,3-4.02,6.04-5.95,9.12-.94,1.51-1.87,3.03-2.78,4.55-.91,1.53-1.81,3.07-2.69,4.61-1.76,3.08-3.45,6.2-5.09,9.35-3.26,6.29-6.27,12.68-9.02,19.2-1.39,3.31-2.72,6.64-3.97,10.01-.63,1.68-1.24,3.37-1.83,5.07-.59,1.69-1.16,3.39-1.71,5.1-1.09,3.37-2.1,6.75-3.04,10.17-.46,1.68-.9,3.36-1.32,5.04-.42,1.67-.81,3.34-1.19,5.02-.81,3.6-1.53,7.22-2.14,10.85-.61,3.56-1.11,7.13-1.51,10.72-.39,3.49-.68,6.99-.86,10.5-.08,1.69-.14,3.39-.18,5.09-.03,1.67-.04,3.33-.01,5"/>
    <path class="cls-3" d="M317.38,467.61s-.04.03-.04.07"/>
    <path class="cls-3" d="M415.78,360.55c.41,1.37.63,2.82.53,4.26-.1,1.42-.52,2.86-1.4,4.02-.9,1.18-2.14,1.94-3.6,2.18-1.44.24-2.9-.04-4.22-.59-2.64-1.1-4.88-3.29-6.53-5.5-1.69-2.27-3.07-4.95-3.93-7.64"/>
    <path class="cls-3" d="M413.99,566.32c-1.05.6-3,.65-4.1.63-1.4-.03-2.78-.19-4.16-.4"/>
    <path class="cls-3" d="M317.36,467.72c.04,2.64.15,5.27.33,7.89.19,2.63.45,5.25.79,7.86.35,2.62.78,5.21,1.31,7.8.52,2.58,1.14,5.14,1.86,7.67,2.87,10.08,7.41,19.83,14.17,28"/>
    <path class="cls-3" d="M396.63,357.28c-.43-1.34-.76-2.79-.89-4.2-.12-1.35-.08-2.93.48-4.23.62-1.44,1.75-2.24,3.3-2.39,1.4-.13,2.92.3,4.17.83,2.57,1.08,5.04,2.98,6.96,4.95,1.96,2.02,3.68,4.47,4.71,7.12"/>
    <path class="cls-3" d="M569.25,353.72c.07-2.04.2-4.07.32-6.1.13-2.26.2-3.84.24-6.11.01-.58.02-1.17.04-1.75,0-.24.02-.48.04-.72.01-.19.03-.39.07-.58.02-.11.06-.25.12-.35.07-.09.15-.11.25-.06.08.04.15.1.21.16.11.12.21.24.3.38.31.44.59.95.83,1.42.89,1.7,1.77,3.81,2.42,5.61"/>
    <path class="cls-3" d="M395.97,483.56c.01-5.19.53-10.4,1.45-15.5.48-2.68,1.08-5.33,1.78-7.96.72-2.7,1.54-5.37,2.46-8,1.75-5.01,3.84-9.84,6.24-14.57,2.47-4.86,5.23-9.51,8.3-14.01,3.03-4.45,6.31-8.68,9.86-12.74,3.54-4.04,7.28-7.83,11.29-11.4,7.96-7.11,16.9-13.3,26.51-18.01,4.96-2.43,10.14-4.48,15.45-6.02,4.97-1.44,10.08-2.45,15.24-2.91,2.83-.25,5.64-.33,8.48-.22,2.73.1,5.42.38,8.1.85,5.11.89,10.05,2.47,14.69,4.81,4.78,2.42,9.07,5.57,12.8,9.43,1.86,1.93,3.54,3.98,5.06,6.19,1.55,2.25,2.9,4.6,4.08,7.06,2.24,4.68,3.8,9.65,4.76,14.73,1.04,5.44,1.39,11.02,1.19,16.55"/>
    <path class="cls-3" d="M395.56,564.49c1.47.16,3.64.04,5.1-.06,1.7-.11,3.39-.26,5.09-.36,1.63-.09,3.47-.15,5.1,0,.47.05.94.11,1.4.2.37.08.74.17,1.09.3.29.11.6.25.84.45.15.12.29.27.34.47.09.37-.21.65-.48.81"/>
    <path class="cls-3" d="M184.76,276.14c.1-.02.19-.04.29-.06"/>
    <line class="cls-3" x1="184.76" y1="276.14" x2="184.54" y2="271.45"/>
    <path class="cls-3" d="M185.19,271.1c-.22.11-.43.23-.64.35"/>
    <path class="cls-3" d="M183.42,277.11c-.32.13-.63.28-.93.46"/>
    <path class="cls-3" d="M185.19,271.1c-.13-.33-.42-.96-.61-1.26"/>
    <path class="cls-3" d="M183.16,276.62c.01.17.11.41.27.5"/>
    <path class="cls-3" d="M183.16,276.62c.52-.21,1.06-.36,1.61-.48"/>
    <path class="cls-3" d="M553.72,431.83c-.18,5.1-.83,10.2-1.86,15.2-.54,2.6-1.18,5.18-1.92,7.74-.76,2.61-1.61,5.19-2.55,7.74-1.81,4.88-3.93,9.59-6.35,14.2-2.48,4.71-5.23,9.22-8.27,13.59-5.98,8.6-13.03,16.55-20.89,23.48-2.01,1.78-4.07,3.49-6.19,5.13-2.09,1.62-4.23,3.18-6.43,4.66-4.29,2.9-8.72,5.49-13.38,7.77-9.36,4.58-19.57,7.85-30.03,8.87-5.38.52-10.82.44-16.18-.39-2.55-.4-5.05-.96-7.53-1.7-2.42-.73-4.75-1.62-7.03-2.7-4.73-2.23-9.02-5.17-12.79-8.8-1.9-1.82-3.61-3.78-5.18-5.88-1.61-2.15-3.02-4.4-4.27-6.78-2.36-4.48-4.06-9.27-5.18-14.19-.6-2.61-1.03-5.23-1.31-7.89-.3-2.77-.43-5.53-.43-8.31"/>
    <path class="cls-3" d="M188.52,276.57s.03.02.04.03c.01.01.02.03.03.04.02.03.03.05.05.08"/>
    <path class="cls-3" d="M403.21,477.32c.02-4.51.47-9.03,1.28-13.46.86-4.73,2.1-9.32,3.69-13.85,1.52-4.35,3.34-8.54,5.43-12.65,2.15-4.22,4.55-8.25,7.21-12.16,5.23-7.67,11.44-14.77,18.37-20.95,6.92-6.17,14.68-11.54,23.03-15.61,8.3-4.05,17.37-6.92,26.66-7.73,2.45-.21,4.89-.28,7.35-.19,2.37.09,4.7.33,7.03.74,4.43.77,8.73,2.14,12.76,4.18,4.15,2.1,7.88,4.83,11.12,8.16,1.62,1.67,3.08,3.45,4.41,5.37,1.35,1.95,2.53,3.98,3.56,6.12,1.96,4.05,3.32,8.36,4.17,12.77.91,4.72,1.23,9.56,1.08,14.36"/>
    <path class="cls-3" d="M540.35,432.44c-.15,4.44-.7,8.89-1.59,13.24-.46,2.27-1.02,4.51-1.66,6.74-.65,2.28-1.39,4.52-2.21,6.75-.78,2.1-1.62,4.18-2.53,6.22-.93,2.08-1.92,4.13-2.98,6.14-2.15,4.1-4.54,8.03-7.19,11.84-5.2,7.48-11.34,14.4-18.16,20.43-1.75,1.55-3.55,3.04-5.4,4.47-1.82,1.41-3.69,2.76-5.6,4.05-3.74,2.52-7.6,4.78-11.65,6.76-8.15,3.98-17.04,6.82-26.15,7.68-4.68.45-9.42.37-14.08-.37-2.22-.35-4.39-.84-6.55-1.5-2.1-.64-4.13-1.42-6.11-2.36-4.11-1.95-7.84-4.52-11.12-7.69-1.64-1.59-3.13-3.29-4.5-5.13-1.4-1.88-2.62-3.84-3.7-5.91-2.05-3.9-3.52-8.08-4.49-12.37-1.05-4.63-1.51-9.36-1.49-14.1"/>
    <path class="cls-3" d="M189.23,276.43c-.2.1-.4.2-.6.29"/>
    <line class="cls-3" x1="184.35" y1="183.14" x2="184.37" y2="183.7"/>
    <path class="cls-3" d="M203.33,241.61c2.04-.47,4.08-.35,6.07.19,2.4.65,4.65,1.86,6.66,3.27.82.58,1.61,1.19,2.38,1.83.83.7,1.63,1.42,2.41,2.18,1.76,1.71,3.39,3.53,4.94,5.43,5.56,6.82,10.5,15.19,14.51,22.96,4.12,7.97,7.85,16.47,11.15,24.81,1.67,4.22,3.25,8.46,4.77,12.74.75,2.11,1.48,4.23,2.19,6.35.73,2.18,1.45,4.36,2.14,6.55"/>
    <path class="cls-3" d="M203.04,241.68c.09-.02.18-.05.27-.07"/>
    <line class="cls-3" x1="184" y1="184.02" x2="184.04" y2="185.04"/>
    <path class="cls-3" d="M287.6,543.29c-7.17.58-14.33,1.23-21.49,1.93"/>
    <path class="cls-3" d="M317.35,467.62c-.06.02-.11.02-.17.01"/>
    <path class="cls-3" d="M405.51,288.48c-.02-.09-.11-.2-.19-.23"/>
    <path class="cls-3" d="M260.56,327.91c.9,2.83,1.78,5.66,2.63,8.5.86,2.88,1.69,5.77,2.5,8.66.8,2.86,1.57,5.72,2.32,8.59.76,2.91,1.5,5.82,2.21,8.74.7,2.88,1.38,5.77,2.04,8.67.67,2.93,1.31,5.86,1.93,8.8.62,2.93,1.21,5.87,1.79,8.82.57,2.92,1.11,5.84,1.64,8.77.53,2.95,1.03,5.91,1.51,8.87.48,2.94.93,5.88,1.36,8.82.43,2.97.84,5.94,1.22,8.91.19,1.48.37,2.96.55,4.44.18,1.47.35,2.94.51,4.41.66,5.94,1.21,11.89,1.63,17.85.43,5.96.73,11.92.89,17.89"/>
    <path class="cls-3" d="M317.18,467.63c-.07-4.11.07-8.45.34-12.55.29-4.36.74-8.7,1.34-13.02.29-2.09.62-4.17.97-6.25.36-2.1.76-4.2,1.19-6.29.43-2.1.89-4.2,1.39-6.29.5-2.11,1.03-4.21,1.58-6.3,1.09-4.1,2.3-8.15,3.61-12.18,1.34-4.1,2.78-8.17,4.33-12.2.77-2,1.56-3.98,2.38-5.96.82-1.98,1.67-3.96,2.53-5.92.86-1.96,1.75-3.9,2.67-5.83.91-1.93,1.84-3.84,2.79-5.75,1.92-3.84,3.93-7.62,6.04-11.36,1.04-1.86,2.11-3.7,3.2-5.54,1.09-1.84,2.2-3.66,3.33-5.47,1.14-1.82,2.3-3.63,3.49-5.42,1.18-1.79,2.38-3.57,3.61-5.33,1.22-1.76,2.46-3.5,3.73-5.23,1.25-1.71,2.52-3.4,3.81-5.08,1.33-1.73,2.68-3.44,4.06-5.14,1.36-1.67,2.73-3.33,4.14-4.97,2.74-3.21,5.56-6.34,8.47-9.4,1.5-1.58,3.02-3.14,4.57-4.67,1.53-1.52,3.08-3.01,4.65-4.49,3.08-2.89,6.24-5.68,9.5-8.37"/>
    <path class="cls-3" d="M405.31,288.25c4.32-3.56,8.77-6.92,13.4-10.07,2.36-1.61,4.75-3.15,7.19-4.63,2.34-1.42,4.72-2.78,7.14-4.07,2.52-1.34,5.06-2.61,7.66-3.79,2.5-1.14,5.02-2.19,7.59-3.16,1.34-.5,2.7-.98,4.06-1.44,1.34-.45,2.68-.86,4.04-1.25,2.65-.76,5.31-1.42,8.01-1.95,2.81-.55,5.63-.98,8.48-1.25,2.73-.26,5.45-.37,8.19-.33,2.84.04,5.64.25,8.46.66,2.74.39,5.43.95,8.1,1.72,2.71.78,5.34,1.73,7.91,2.91,2.54,1.16,4.96,2.49,7.3,4.01,2.32,1.51,4.49,3.18,6.56,5.01,2.13,1.89,4.1,3.92,5.93,6.09"/>
    <path class="cls-3" d="M244.19,211.4c3.94-3,8.03-5.71,12.34-8.15,4.28-2.43,8.68-4.54,13.26-6.35,4.62-1.84,9.31-3.34,14.13-4.53,4.75-1.17,9.53-2.02,14.4-2.56,19.59-2.18,39.61.77,57.91,7.84,9.12,3.53,17.99,8.16,25.98,13.82,4.19,2.96,8.21,6.27,11.86,9.88,3.32,3.28,6.4,6.88,9.02,10.76,1.42,2.1,2.7,4.27,3.83,6.55,1.09,2.2,2.02,4.44,2.79,6.78,1.52,4.66,2.28,9.41,2.31,14.31.03,4.61-.58,9.15-1.64,13.62-1.21,5.1-3,10.09-5.07,14.89"/>
    <path class="cls-3" d="M260.35,328.04c-.66-2.06-1.33-4.11-2.01-6.15-.67-2-1.35-3.99-2.05-5.97-1.42-4.02-2.9-8.02-4.45-11.99-3.07-7.86-6.51-15.85-10.28-23.4-.98-1.97-1.99-3.92-3.03-5.85-.98-1.82-1.99-3.63-3.03-5.41-2.13-3.65-4.46-7.31-6.96-10.72-1.34-1.84-2.73-3.63-4.22-5.35-1.3-1.51-2.66-2.96-4.12-4.34-1.68-1.59-3.51-3.09-5.48-4.33-1.62-1.02-3.38-1.89-5.23-2.42"/>
    <path class="cls-3" d="M285.01,468.6c-.16-5.96-.46-11.92-.88-17.87-.42-5.95-.97-11.89-1.62-17.82-.33-2.95-.68-5.9-1.05-8.84-.38-2.97-.78-5.94-1.21-8.9-.43-2.94-.88-5.88-1.35-8.81-.48-2.96-.98-5.91-1.5-8.86-.52-2.93-1.06-5.84-1.63-8.76-.57-2.94-1.17-5.88-1.78-8.81-.62-2.93-1.26-5.86-1.92-8.78-.66-2.89-1.34-5.78-2.04-8.66-.71-2.92-1.45-5.83-2.21-8.73-.75-2.87-1.52-5.73-2.32-8.58-.81-2.89-1.64-5.77-2.5-8.65-.85-2.84-1.72-5.67-2.63-8.49"/>
    <path class="cls-3" d="M181.77,277.37c.43-.33.89-.56,1.38-.76"/>
    <path class="cls-3" d="M193.18,271.73c-.02-.86-.52-1.45-1.29-1.76-.7-.28-1.56-.31-2.29-.24-1.5.14-3.09.69-4.42,1.37"/>
    <path class="cls-3" d="M184.54,271.45c-.91.52-1.82,1.18-2.56,1.93-.66.67-1.46,1.73-1.39,2.8"/>
    <path class="cls-3" d="M188.69,276.49c-1.68-.19-3.67-.02-5.27.62"/>
    <path class="cls-3" d="M185.05,276.08c1.43-.26,3.02-.28,4.46-.03"/>
    <path class="cls-3" d="M184.58,269.84c1.35-.62,2.88-1.1,4.36-1.28,1.27-.16,3.26-.16,4.32.91.57.59.7,1.35.54,2.12-.16.74-.57,1.43-1.02,2.02-.92,1.18-2.24,2.14-3.55,2.82"/>
    <path class="cls-3" d="M188.63,276.72c-1.4.65-2.98,1.09-4.53,1.18-.77.05-1.58.01-2.34-.17-.73-.17-1.52-.5-2.03-1.11-.55-.66-.6-1.44-.33-2.22.25-.74.76-1.4,1.29-1.95,1.07-1.09,2.51-1.99,3.88-2.62"/>
    <line class="cls-3" x1="183.74" y1="185.07" x2="183.65" y2="182.92"/>
    <path class="cls-3" d="M231.01,504.4c2.93,1.57,6.13,2.1,9.2.3,2.77-1.63,4.67-4.72,5.94-7.45,2.57-5.55,3.93-12.73,4.67-18.68"/>
    <line class="cls-3" x1="181.92" y1="183.94" x2="181.89" y2="183.36"/>
    <path class="cls-3" d="M160.93,285.43c-.05-.08-.15-.08-.23-.05"/>
    <line class="cls-3" x1="180.4" y1="190.22" x2="181.82" y2="225.11"/>
    <path class="cls-3" d="M192.59,542.98c1.75.15,3.41-.19,4.96-1.02,1.83-.97,3.29-2.47,4.48-4.1.76-1.04,1.4-2.13,1.99-3.27.68-1.33,1.27-2.69,1.79-4.09,1.27-3.4,2.19-7.01,2.89-10.56.91-4.57,1.5-9.29,1.91-13.93.48-5.47.69-10.94.75-16.43.19-19.78-1.81-41.3-4.67-60.82-2.92-19.91-7.09-40.33-12.23-59.79-5.02-19.03-11.66-39.68-19.68-57.72"/>
    <path class="cls-3" d="M231.61,504.27c5.02-1.05,7.84-7,9.27-10.93,1.65-4.54,2.65-9.8,3.28-14.55"/>
    <path class="cls-3" d="M250.4,478.58c-.74,5.85-2.07,12.85-4.57,18.32-1.23,2.69-3.07,5.72-5.72,7.4-2.95,1.87-6.07,1.55-9.02.09"/>
    <path class="cls-3" d="M174.79,311.27c-3.82-8.6-8.65-18.13-14.09-25.88"/>
    <path class="cls-3" d="M160.7,285.38c-2.63-3.76-5.93-7.84-9.56-10.76-3.57-2.87-8.46-5.43-13.27-2.98"/>
    <path class="cls-3" d="M252.29,495.52c-1.33,4.57-3.96,11.57-8.78,14.23-2.7,1.49-5.52,1.32-8.24.16-2.58-1.1-4.97-3.03-6.92-4.96"/>
    <line class="cls-3" x1="262.57" y1="485.84" x2="260.66" y2="486.24"/>
    <path class="cls-3" d="M255.33,478.41c-.31,3.22-.72,6.41-1.3,9.59"/>
    <path class="cls-3" d="M287.2,44.41s.06,0,.09.03"/>
    <path class="cls-3" d="M158.77,23.98c-2.17,1.19-4.33,2.52-6.3,4.03-1.54,1.18-3.06,2.53-4.28,4.07-.95,1.19-1.76,2.55-2.18,4.04-.36,1.32-.38,2.64,0,3.96.35,1.25,1.02,2.36,1.83,3.35,1.02,1.23,2.27,2.28,3.57,3.18,1.64,1.13,3.45,2.1,5.26,2.93,2.24,1.03,4.54,1.87,6.88,2.63,3.25,1.05,6.54,1.89,9.86,2.62,3.86.84,7.73,1.52,11.64,2.09,1.71.25,3.42.48,5.14.68,1.8.22,3.6.41,5.41.59,1.86.18,3.73.35,5.59.49,1.93.15,3.85.28,5.78.39,3.58.21,7.16.36,10.74.46,1.86.05,3.72.09,5.58.11,1.91.02,3.81.03,5.72.03,1.82,0,3.64-.02,5.45-.05,1.83-.03,3.66-.07,5.49-.13,3.7-.11,7.39-.27,11.08-.47,3.66-.2,7.31-.45,10.97-.75,1.84-.15,3.69-.31,5.53-.48,1.82-.17,3.65-.35,5.47-.55,1.87-.2,3.73-.41,5.6-.63,1.84-.22,3.67-.45,5.5-.7,1.81-.24,3.61-.5,5.42-.77,1.77-.26,3.55-.54,5.32-.83"/>
    <path class="cls-3" d="M294.84,54.26c.11.22.17.51.2.75"/>
    <path class="cls-3" d="M148.46,45.32c-1.55-1.52-2.85-3.42-3.07-5.7"/>
    <path class="cls-3" d="M295.06,55.15c-2.46.4-4.93.78-7.4,1.13s-4.95.68-7.42.99c-2.48.31-4.96.59-7.44.85-2.48.26-4.97.5-7.46.72-2.49.22-4.98.42-7.47.59-2.49.18-4.98.33-7.47.47-4.99.27-9.98.45-14.97.54"/>
    <path class="cls-3" d="M287.29,44.43c-2,.33-4.01.63-6.02.92-2.03.29-4.06.56-6.1.82-2.06.26-4.11.49-6.17.71-2.08.22-4.16.43-6.25.62-2.07.19-4.15.35-6.23.51-2.07.15-4.15.28-6.23.4-2.05.11-4.1.21-6.16.29-2.03.08-4.05.14-6.08.18-2.13.05-4.26.07-6.39.08-2.1,0-4.2-.01-6.3-.05-4.01-.07-8.02-.22-12.03-.46-4.37-.27-8.73-.65-13.08-1.18-3.84-.47-7.65-1.05-11.45-1.82-2.68-.54-5.33-1.17-7.95-1.95-2.2-.65-4.36-1.4-6.47-2.33-1.64-.72-3.29-1.58-4.77-2.61-1.14-.8-2.24-1.75-3.07-2.88-2.12-2.91-1.52-5.83.54-8.49.63-.8,1.33-1.52,2.08-2.19.89-.8,1.83-1.51,2.82-2.18,2.43-1.66,5.12-3.08,7.78-4.3,3.41-1.57,6.99-2.92,10.54-4.12,2.06-.69,4.12-1.33,6.2-1.94,2.21-.64,4.44-1.24,6.67-1.81,1.89-.48,3.79-.93,5.69-1.36,1.99-.45,3.98-.87,5.97-1.27,2.07-.42,4.14-.81,6.21-1.18,2.12-.38,4.24-.73,6.37-1.07"/>
    <path class="cls-3" d="M294.84,54.26c4.27-.69,8.51-1.47,12.75-2.33,2.15-.44,4.29-.9,6.43-1.39,2.07-.47,4.14-.97,6.2-1.5,8.1-2.06,16.89-4.76,24.59-8.08,2.14-.92,4.25-1.91,6.31-3,1.76-.93,3.47-1.93,5.13-3.05,2.02-1.36,4.03-2.93,5.67-4.76,1.21-1.36,2.3-2.92,2.85-4.7.61-1.94.48-3.85-.4-5.69-.47-.98-1.12-1.87-1.84-2.67-.88-.96-1.85-1.77-2.9-2.52-1.59-1.13-3.34-2.1-5.1-2.93-2.14-1.01-4.33-1.86-6.58-2.61"/>
    <path class="cls-3" d="M227.44,5.78c3.97-.62,7.95-1.17,11.95-1.64,2.02-.24,4.04-.46,6.07-.67,2.04-.21,4.09-.39,6.13-.56,2.04-.17,4.09-.32,6.14-.46,2.04-.13,4.08-.25,6.12-.35,2.01-.1,4.03-.18,6.05-.24,1.99-.06,3.99-.11,5.98-.13,2.09-.03,4.19-.04,6.28-.02,2.07.01,4.13.04,6.2.1,3.94.1,7.88.28,11.81.55,2.19.15,4.38.33,6.57.54,2.1.2,4.18.44,6.27.71,3.78.49,7.54,1.09,11.28,1.86,2.58.53,5.14,1.15,7.68,1.89,2.15.63,4.27,1.35,6.34,2.23,1.65.7,3.3,1.52,4.8,2.5,1.17.77,2.33,1.68,3.24,2.77,2.25,2.69,2.16,5.52.17,8.3-.57.8-1.22,1.5-1.94,2.17-.85.8-1.76,1.51-2.72,2.18-1.13.79-2.3,1.51-3.51,2.18-1.38.77-2.79,1.47-4.23,2.14-3.33,1.54-6.83,2.86-10.3,4.03-2.02.68-4.06,1.32-6.11,1.92-2.19.64-4.39,1.24-6.61,1.8-3.79.96-7.6,1.83-11.42,2.61-4.12.84-8.25,1.59-12.4,2.26"/>
    <path class="cls-3" d="M122.74,138.25c0,.32,1.28.36,1.45.37.6.03,1.2.02,1.81.01.85-.02,1.69-.06,2.53-.11,2.41-.14,4.82-.35,7.23-.57,3.33-.31,6.65-.67,9.97-1.05,7.68-.87,15.34-1.84,23.01-2.85,14.92-1.96,31.03-4.26,45.91-6.47,1.86-.28,3.72-.55,5.58-.83,1.89-.28,3.79-.57,5.68-.85,3.89-.59,7.77-1.18,11.66-1.78,3.81-.59,7.61-1.18,11.42-1.77,3.83-.6,7.65-1.2,11.48-1.81,7.63-1.21,15.26-2.44,22.89-3.69,1.94-.32,3.89-.64,5.83-.96,1.93-.32,3.85-.64,5.78-.96,1.89-.32,3.78-.63,5.67-.95,1.86-.31,3.73-.63,5.59-.94"/>
    <path class="cls-3" d="M306.2,113.17s.03-.04.03-.06c0-.02,0-.04,0-.07"/>
    <path class="cls-3" d="M351.49,10.29c2.18.83,4.36,1.79,6.4,2.93,1.65.92,3.26,1.99,4.66,3.27.89.81,1.66,1.67,2.31,2.69.55.86.97,1.8,1.19,2.8.46,2.1-.03,4.08-1.02,5.9-.88,1.61-2.15,3.06-3.48,4.3-1.74,1.63-3.73,3.05-5.74,4.3-1.69,1.06-3.43,2.01-5.2,2.9-2.02,1.02-4.08,1.95-6.16,2.82-7.63,3.18-16.24,5.79-24.24,7.81-4.12,1.04-8.26,1.97-12.42,2.81-2.05.42-4.11.81-6.16,1.19-2.12.39-4.24.75-6.37,1.1"/>
    <path class="cls-3" d="M155.87,25.64c1.32-.79,2.66-1.52,4.02-2.22"/>
    <path class="cls-3" d="M384.24,52.41c.47.74.94,1.49,1.43,2.22.25.36.5.73.78,1.06.08.1.16.19.25.28.07.07.14.13.22.17.28.15.32-.17.33-.4"/>
    <path class="cls-3" d="M173.29,69.64c.73-.98,1.59-1.9,2.57-2.63.94-.7,2.14-1.33,3.37-1.39,1.37-.06,2.37.62,2.86,1.89.44,1.12.43,2.5.31,3.65-.24,2.33-1.06,4.97-1.87,7.13-.84,2.24-1.92,4.61-3.07,6.71"/>
    <path class="cls-3" d="M378.47,37.31c1.54,1.49,2.94,3.33,4.09,5.13,1.19,1.85,2.21,3.78,3.1,5.79.79,1.79,1.74,4.28,2.14,6.21.05.22.08.44.11.67.02.18.04.36.03.54,0,.13-.02.45-.22.45-.08,0-.16-.04-.22-.08-.1-.06-.18-.14-.26-.22-.22-.22-.41-.46-.61-.7-.32-.4-.61-.82-.9-1.25-.33-.48-.66-.96-.98-1.44"/>
    <path class="cls-3" d="M306.23,113.05c14.81-2.51,30.8-5.31,45.57-8.06,7.58-1.41,15.16-2.86,22.72-4.41,3.78-.77,7.55-1.57,11.31-2.43,1.48-.34,2.96-.69,4.44-1.06,1.12-.28,2.23-.57,3.34-.89.74-.22,1.48-.44,2.2-.71.23-.09.46-.18.69-.29.15-.07.29-.15.42-.25"/>
    <path class="cls-3" d="M295.24,55.1c-1.77.29-3.53.56-5.3.83-1.8.27-3.59.52-5.39.77-1.83.25-3.66.48-5.49.7-1.86.22-3.71.44-5.57.64-1.83.2-3.66.38-5.49.55-1.83.17-3.66.34-5.5.49-3.63.3-7.25.55-10.88.76-3.68.21-7.35.37-11.03.49-3.63.11-7.27.18-10.9.2-3.75.02-7.49-.01-11.24-.1-1.81-.04-3.61-.1-5.42-.17-1.76-.07-3.52-.15-5.28-.25-1.92-.1-3.83-.23-5.74-.37-1.86-.14-3.71-.29-5.57-.47-1.8-.17-3.59-.35-5.39-.56-1.72-.2-3.44-.41-5.15-.65-2-.28-4-.58-5.99-.92-1.86-.32-3.72-.67-5.58-1.05-3.34-.69-6.64-1.49-9.91-2.48-2.28-.68-4.52-1.45-6.72-2.36-1.84-.76-3.63-1.61-5.35-2.62-1.4-.82-2.76-1.76-3.96-2.85-.97-.88-1.86-1.89-2.52-3.04-1.62-2.84-1.32-5.67.28-8.38.97-1.64,2.33-3.09,3.73-4.33,1.83-1.62,3.9-3.03,5.99-4.28"/>
    <path class="cls-3" d="M384.75,52.41c-1.6-2.39-1.91-2.88-3.53-5.26-1.19-1.74-2.4-3.47-3.59-5.21-.6-.87-1.19-1.75-1.76-2.64-.31-.48-.61-.97-.89-1.47-.24-.42-.46-.85-.63-1.3-.11-.29-.23-.64-.23-.96,0-.19.04-.41.22-.53.18-.12.42-.1.62-.07.3.06.61.19.88.33.44.22.83.49,1.22.79.46.35.89.72,1.3,1.11"/>
    <path class="cls-3" d="M384.24,52.41c.07-.06.15-.11.24-.13.08-.02.2-.02.25.06"/>
    <path class="cls-3" d="M295.24,55.1s-.05-.12-.1-.11"/>
    <path class="cls-3" d="M156.5,135.78c-4.57.57-9.14,1.12-13.72,1.62-4.13.45-9.61,1.01-13.76,1.27"/>
    <path class="cls-3" d="M396.91,94.95s-.04.08-.08.12c-.05.05-.11.09-.17.13-.2.13-.41.22-.62.31-.33.14-.66.26-1,.37-.46.15-.92.3-1.38.43-1.14.34-2.29.64-3.45.93-2.31.58-4.63,1.11-6.96,1.62-4.65,1.03-9.32,1.98-13.99,2.91"/>
    <path class="cls-3" d="M187.11,244.68c1.07-3.63,2.27-7.2,3.62-10.73,1.34-3.53,2.82-7,4.43-10.42,1.61-3.42,3.33-6.77,5.18-10.06.92-1.65,1.88-3.28,2.86-4.89.98-1.61,1.99-3.21,3.03-4.79"/>
    <path class="cls-3" d="M397.01,94.93s.09.06.1.11"/>
    <path class="cls-3" d="M122.89,138.42c0,.11.14.18.22.2"/>
    <path class="cls-3" d="M227.78,5.95s0,0,.01,0"/>
    <path class="cls-3" d="M156.5,135.78c12.1-1.51,25.45-3.34,37.51-5.05,6.24-.89,12.49-1.8,18.72-2.72,3.07-.45,6.13-.91,9.2-1.37,3.17-.48,6.35-.96,9.52-1.44,1.55-.24,3.1-.47,4.64-.71,1.55-.24,3.11-.48,4.66-.72,3.13-.48,6.26-.97,9.39-1.46,3.11-.49,6.21-.98,9.31-1.47,3.13-.5,6.26-1,9.39-1.5,3.13-.5,6.25-1.01,9.38-1.52,3.1-.51,6.2-1.01,9.31-1.53,3.14-.52,6.27-1.04,9.41-1.56,3.09-.52,6.17-1.04,9.25-1.56"/>
    <path class="cls-3" d="M266.11,545.22c-.63.22-1.27.38-1.93.48"/>
    <path class="cls-3" d="M206.1,530.15c5.67,1.21,11.36,2.22,17.1,3.04"/>
    <path class="cls-3" d="M349.79,9.67c.56.2,1.13.4,1.68.62"/>
    <path class="cls-3" d="M290.94,469.3c4.23-.77,8.79-1.46,13.07-1.84,2.2-.2,4.39-.32,6.59-.32,2.21,0,4.39.11,6.58.49"/>
    <path class="cls-3" d="M265.96,545.17s.09.05.15.05"/>
    <path class="cls-3" d="M285.34,472.13c.2,12.7-.29,26.68-2.29,39.27-.51,3.24-1.13,6.46-1.92,9.65-.78,3.17-1.72,6.36-2.91,9.4-.64,1.64-1.35,3.24-2.17,4.79-.71,1.36-1.5,2.65-2.4,3.89-1.03,1.41-2.21,2.73-3.57,3.84-1.19.96-2.51,1.74-3.97,2.25"/>
    <path class="cls-3" d="M338.12,529.68c-1.92-2.05-3.67-4.2-5.29-6.48-1.62-2.28-3.08-4.64-4.42-7.1s-2.52-4.97-3.59-7.56c-1.07-2.58-1.99-5.21-2.81-7.88-.82-2.67-1.51-5.37-2.1-8.1-.59-2.73-1.08-5.47-1.47-8.24-.19-1.37-.36-2.74-.51-4.11-.15-1.4-.28-2.81-.38-4.21-.2-2.66-.34-5.7-.37-8.36"/>
    <path class="cls-3" d="M260.56,327.91c-.05.01-.19.06-.21.12"/>
    <path class="cls-3" d="M405.04,288.76c-.03-.06-.09-.13-.16-.15"/>
    <path class="cls-3" d="M574.99,348.36c.76,2.56,1.35,5.33,1.53,8.01.05.7.06,1.39.05,2.09-.02.67-.06,1.33-.15,1.99-.18,1.28-.54,2.73-1.26,3.85-.36.56-.86,1.11-1.52,1.36-.68.26-1.33.12-1.9-.3-.47-.34-.84-.85-1.12-1.35-.37-.66-.63-1.43-.81-2.16-.63-2.5-.63-5.61-.55-8.13"/>
    <path class="cls-3" d="M572.72,344.15c-.38-.93-.79-1.85-1.23-2.75-.32-.66-1.02-2.04-1.5-2.61"/>
    <path class="cls-3" d="M399.6,143.9c-1.51-.87-3.04-1.7-4.59-2.5-1.57-.81-3.15-1.57-4.76-2.3-3.2-1.45-6.45-2.73-9.77-3.87-1.65-.57-3.32-1.09-4.99-1.59-1.68-.49-3.38-.95-5.08-1.36-1.7-.41-3.4-.79-5.11-1.13-1.73-.34-3.46-.65-5.2-.92-3.47-.53-6.94-.92-10.44-1.17-1.74-.12-3.48-.21-5.23-.26-1.76-.05-3.52-.07-5.27-.05-3.51.03-7,.2-10.49.5-3.5.3-6.97.73-10.44,1.28"/>
    <path class="cls-3" d="M397.1,95.05c.02.09-.08.18-.14.22-.15.12-.32.2-.49.27-.27.12-.55.23-.83.33-.39.14-.79.26-1.18.38-1.14.34-2.29.65-3.44.94-1.64.41-3.28.8-4.92,1.17-3.77.85-7.55,1.65-11.34,2.41-7.58,1.54-15.18,2.99-22.79,4.4-1.85.34-3.71.68-5.56,1.02-1.95.36-3.9.71-5.85,1.06-3.81.69-7.61,1.37-11.42,2.04-3.81.67-7.62,1.34-11.43,2-1.88.33-3.76.65-5.65.98-1.93.33-3.86.67-5.78,1"/>
    <path class="cls-3" d="M269.24,543.31c1.19-.86,2.2-1.85,3.15-2.97,1.09-1.29,2.01-2.67,2.84-4.13,1.54-2.7,2.76-5.64,3.75-8.57,1.96-5.78,3.26-12.22,4.12-18.23,1.74-12.05,2.18-25.23,1.98-37.36"/>
    <path class="cls-3" d="M318.16,130.27c4.84-.77,9.68-1.3,14.57-1.57,2.45-.14,4.9-.21,7.36-.21,2.44,0,4.87.06,7.3.19,2.46.13,4.92.33,7.37.6,2.41.27,4.81.6,7.19,1.01,2.43.41,4.84.9,7.23,1.46,2.37.55,4.71,1.18,7.04,1.88,2.35.7,4.67,1.48,6.97,2.34,2.29.85,4.54,1.77,6.77,2.78,2.25,1.01,4.46,2.09,6.63,3.25,2.14,1.14,4.24,2.36,6.3,3.65,2.08,1.3,4.11,2.68,6.09,4.12,1.97,1.44,3.88,2.95,5.74,4.52,1.86,1.58,3.66,3.22,5.41,4.94,1.75,1.72,3.43,3.49,5.04,5.33"/>
    <path class="cls-3" d="M206.22,203.79c3.08-4.68,6.38-9.17,9.91-13.52,3.54-4.35,7.27-8.49,11.21-12.47,1.96-1.98,3.97-3.91,6.03-5.79,2.07-1.9,4.18-3.74,6.34-5.53,2.16-1.79,4.37-3.53,6.61-5.21,2.23-1.67,4.5-3.29,6.8-4.85,4.64-3.14,9.4-6.04,14.33-8.71,2.46-1.33,4.95-2.6,7.47-3.81,2.52-1.21,5.07-2.35,7.66-3.43,2.59-1.08,5.21-2.1,7.86-3.05,2.62-.94,5.26-1.81,7.92-2.61,2.69-.81,5.39-1.54,8.12-2.2,2.71-.66,5.43-1.24,8.18-1.74"/>
    <path class="cls-3" d="M206.42,203.94c-1.03,1.57-2.03,3.15-3.01,4.76-.98,1.6-1.92,3.22-2.84,4.86-1.84,3.28-3.56,6.61-5.15,10.01-.8,1.7-1.57,3.41-2.3,5.14-.74,1.73-1.44,3.46-2.11,5.22-1.34,3.51-2.54,7.06-3.61,10.67"/>
    <path class="cls-3" d="M314.72,131.12c-2.74.5-5.46,1.09-8.17,1.74-2.72.66-5.43,1.39-8.11,2.2-2.66.8-5.3,1.67-7.91,2.6-1.32.47-2.63.96-3.94,1.47-1.31.51-2.61,1.03-3.91,1.58-2.58,1.08-5.13,2.22-7.65,3.42-2.52,1.21-5,2.47-7.46,3.8-4.92,2.67-9.68,5.56-14.31,8.69-2.3,1.56-4.57,3.17-6.8,4.84-2.24,1.68-4.44,3.42-6.6,5.21-2.16,1.79-4.27,3.63-6.34,5.52-2.05,1.88-4.06,3.8-6.02,5.78-3.94,3.97-7.66,8.11-11.2,12.45s-6.82,8.83-9.9,13.51"/>
    <path class="cls-3" d="M142.99,137.58c-3.38.37-6.77.72-10.16,1-1.7.14-3.39.27-5.09.35-.85.04-1.7.07-2.55.07-.35,0-.71,0-1.06-.03-.26-.01-.51-.03-.76-.07-.16-.03-.31-.05-.46-.12-.06-.03-.16-.08-.16-.17"/>
    <line class="cls-3" x1="216.43" y1="259.5" x2="216.61" y2="259.3"/>
    <path class="cls-3" d="M409.11,133.79c1.21,2.67,2.46,5.31,3.75,7.94s2.63,5.23,4,7.82c2.74,5.18,5.62,10.28,8.61,15.32"/>
    <path class="cls-3" d="M295.06,55.13v.02"/>
    <path class="cls-3" d="M206.22,203.79c.05.05.14.12.2.15"/>
    <path class="cls-3" d="M306.26,113.27c-3.35.57-6.71,1.13-10.07,1.68-3.42.57-6.83,1.13-10.25,1.69-3.39.55-6.77,1.11-10.16,1.66-1.7.28-3.4.55-5.1.83-1.69.27-3.39.54-5.08.82-1.71.27-3.42.55-5.12.82l-5.1.81c-3.37.53-6.75,1.06-10.12,1.59-1.71.27-3.42.53-5.13.8-1.7.26-3.41.53-5.11.79-3.37.52-6.75,1.03-10.12,1.54-3.47.53-6.94,1.05-10.41,1.56-1.68.25-3.36.5-5.04.75-1.64.24-3.29.48-4.93.73-1.77.26-3.53.52-5.3.77-1.72.25-3.44.5-5.16.74-1.68.24-3.36.48-5.03.72-1.63.23-3.27.46-4.9.69-1.82.25-3.64.51-5.46.76-1.75.24-3.49.48-5.24.72-3.24.44-6.47.87-9.71,1.3-6.81.89-13.62,1.75-20.45,2.51"/>
    <path class="cls-3" d="M173.01,70.85c-1.33,2.15-2.23,4.65-2.78,7.09-.55,2.42-.82,5.11-.67,7.59"/>
    <line class="cls-3" x1="174.52" y1="89.15" x2="173.63" y2="69.91"/>
    <path class="cls-3" d="M349.79,9.67h0"/>
    <path class="cls-3" d="M177.46,84.99c-.89,1.63-2.92,5.1-4.84,6.03-1.51.73-2.43-.35-2.95-1.65-.46-1.15-.67-2.6-.74-3.83-.16-2.54.14-5.3.73-7.76.6-2.5,1.57-5.02,2.97-7.2"/>
    <path class="cls-3" d="M384.72,52.33s.02.05.02.08"/>
    <path class="cls-3" d="M227.44,5.78c-1.18-.57-2.6-1.07-3.98-.85"/>
    <path class="cls-3" d="M227.44,5.78c.07.03.13.14.16.2"/>
    <path class="cls-3" d="M314.49,128.25c-3.53-4.47-6.52-9.47-8.23-14.98"/>
    <path class="cls-3" d="M404.88,288.61c.15-.12.29-.24.44-.36"/>
    <path class="cls-3" d="M525.43,276.82h0"/>
    <path class="cls-3" d="M224.13,535.6c-5.14-.71-10.25-1.57-15.33-2.58"/>
    <path class="cls-3" d="M19.12,333.12c2.13,3.53,4.04,7.24,5.8,10.96,2.25,4.76,4.27,9.6,6.16,14.5,1.62,4.18,3.13,8.4,4.57,12.65,1.57,4.66,3.06,9.34,4.46,14.05,5.29,17.72,9.74,36.63,13.11,54.8,3.34,17.98,6.07,37.59,7.17,55.87.3,5.02.49,10.03.52,15.06.02,4.37-.08,8.73-.39,13.09-.25,3.52-.64,7.1-1.28,10.57-.26,1.42-.57,2.84-.95,4.24-.32,1.19-.69,2.36-1.14,3.5-.37.96-.8,1.88-1.31,2.77-.42.73-.89,1.42-1.46,2.05-.87.97-1.94,1.75-3.27,2.03"/>
    <path class="cls-3" d="M4.17,320.05c3.48-.65,6.92,2.55,8.85,4.65,2.27,2.47,4.37,5.57,6.1,8.42"/>
    <path class="cls-3" d="M208.8,533.02c-1.19-.24-2.37-.48-3.55-.74"/>
    <path class="cls-3" d="M209,546.61c-.17-4.53-.24-9.05-.2-13.59"/>
    <line class="cls-3" x1="213.38" y1="521.48" x2="214.17" y2="520.58"/>
    <path class="cls-3" d="M286.98,44.39c-4.73.77-9.48,1.42-14.25,1.99-4.76.56-9.53,1.03-14.32,1.4-2.39.19-4.78.35-7.18.49-2.39.14-4.79.25-7.18.34s-4.79.16-7.19.2c-2.4.04-4.79.06-7.19.04"/>
    <line class="cls-3" x1="229.68" y1="48.85" x2="229.68" y2="48.91"/>
    <path class="cls-3" d="M168.43,26.8c.35-.41.72-.79,1.1-1.17"/>
    <path class="cls-3" d="M227.77,5.95s0,0,0,0"/>
    <path class="cls-3" d="M286.91,44.17c.05.03.07.18.08.22"/>
    <path class="cls-3" d="M227.75,6.09s0-.11.02-.13"/>
    <line class="cls-3" x1="214.46" y1="40.9" x2="214.44" y2="40.73"/>
    <path class="cls-3" d="M306.2,113.17s.04.03.04.04c.01.02.02.04.02.06"/>
    <line class="cls-3" x1="214.55" y1="37.92" x2="214.53" y2="37.74"/>
    <path class="cls-3" d="M285.88,43.49c-.13-.08-.27-.13-.42-.11"/>
    <path class="cls-3" d="M286.91,44.17c-.34-.23-.68-.45-1.03-.68"/>
    <path class="cls-3" d="M397.13,357.32c-.03-.09-.17-.1-.23-.09-.09,0-.18.02-.26.05"/>
    <path class="cls-3" d="M573.37,345.82c-.21-.56-.43-1.11-.65-1.66"/>
    <path class="cls-3" d="M574.28,348.47c-.28-.9-.59-1.78-.91-2.66"/>
    <path class="cls-3" d="M415.01,359.6c-.84-2.12-2.14-4.12-3.63-5.84"/>
    <path class="cls-3" d="M415.41,360.74c-.12-.38-.25-.76-.4-1.14"/>
    <path class="cls-3" d="M413.68,566c.21-.11.51-.31.51-.6"/>
    <path class="cls-3" d="M413.68,566c.05.16.19.28.36.29"/>
    <path class="cls-3" d="M574.28,348.47c.08-.1.22-.16.34-.19.1-.02.3-.04.37.07"/>
    <path class="cls-3" d="M574.09,345.62c.33.9.63,1.81.9,2.73"/>
    <path class="cls-3" d="M415.01,359.6c.05-.1.28-.2.37-.24"/>
    <path class="cls-3" d="M414.04,566.29s-.04.02-.05.03"/>
    <path class="cls-3" d="M415.38,359.36c.15.39.29.78.41,1.18"/>
    <path class="cls-3" d="M395.66,564.5s-.04,0-.05,0"/>
    <path class="cls-3" d="M399.45,564.51c2.33.58,4.66,1.17,7.04,1.56,1.19.19,2.38.34,3.58.39.97.04,2.61.02,3.55-.43"/>
    <path class="cls-3" d="M395.2,564.38s-.09,0-.14,0c-.01,0-.02,0-.04,0,0,0-.01,0-.02,0,0,0,0,0,.01.01.02.01.04.02.07.02"/>
    <line class="cls-3" x1="405.06" y1="348.57" x2="415.41" y2="360.74"/>
    <line class="cls-3" x1="569.87" y1="341.14" x2="572.72" y2="344.15"/>
    <path class="cls-3" d="M571.12,364.58c.3.36.67.67,1.14.81.38.12.75.1,1.12-.04.81-.31,1.35-1.13,1.69-1.84.71-1.49.92-3.4.94-4.99.02-1.69-.18-3.43-.48-5.09-.31-1.68-.73-3.33-1.24-4.96"/>
    <path class="cls-3" d="M401.04,364.9c1.21,1.61,2.7,3.15,4.41,4.27,1.66,1.09,3.74,1.91,5.83,1.56,2.18-.36,3.69-1.89,4.34-3.92.63-1.98.39-4.17-.2-6.07"/>
    <path class="cls-3" d="M317.34,467.67s0,.03.02.04"/>
    <path class="cls-3" d="M335.82,526.94s0,0,0,0"/>
    <path class="cls-3" d="M395.09,564.41c.16.04.32.06.47.07"/>
    <path class="cls-3" d="M569.29,353.81s-.02-.06-.04-.09"/>
    <path class="cls-3" d="M395.61,564.49s-.03,0-.05,0"/>
    <path class="cls-3" d="M564.08,481.71s.04-.09.05-.13c.04-.11.07-.22.11-.33.15-.46.32-.91.5-1.36.24-.6.51-1.19.79-1.78.56-1.17,1.19-2.3,1.85-3.42.66-1.11,1.37-2.2,2.07-3.29.63-.98,1.47-2.29,1.98-3.34"/>
    <path class="cls-3" d="M397.29,357.9c.87,2.46,2.17,4.91,3.75,7"/>
    <path class="cls-3" d="M413.62,566.03s.04-.02.05-.03"/>
    <line class="cls-3" x1="485.71" y1="498.88" x2="485.82" y2="498.97"/>
    <line class="cls-3" x1="477.19" y1="504.39" x2="477.3" y2="504.48"/>
    <line class="cls-3" x1="478.78" y1="501.04" x2="478.89" y2="501.13"/>
  </g>
  <g id="Make2D::可见线::曲线">
    <line class="cls-3" x1="458.48" y1="444.04" x2="458.59" y2="444.13"/>
    <line class="cls-3" x1="458.24" y1="454.7" x2="458.35" y2="454.79"/>
    <line class="cls-3" x1="471.07" y1="450.63" x2="458.35" y2="454.79"/>
    <line class="cls-3" x1="458.12" y1="462.07" x2="458.23" y2="462.16"/>
    <line class="cls-3" x1="458.23" y1="462.16" x2="486.97" y2="452.74"/>
    <line class="cls-3" x1="481.44" y1="466.59" x2="486.7" y2="463.02"/>
    <line class="cls-3" x1="486.75" y1="455.64" x2="486.86" y2="455.73"/>
    <line class="cls-3" x1="486.7" y1="463.02" x2="486.86" y2="455.73"/>
    <line class="cls-3" x1="457.89" y1="475.15" x2="458" y2="475.24"/>
    <line class="cls-3" x1="457.75" y1="484.43" x2="457.86" y2="484.52"/>
    <line class="cls-3" x1="486.27" y1="477.71" x2="486.38" y2="477.8"/>
    <line class="cls-3" x1="475" y1="476.24" x2="475.11" y2="476.33"/>
    <line class="cls-3" x1="475.11" y1="476.33" x2="481.24" y2="476.48"/>
    <line class="cls-3" x1="481.24" y1="476.48" x2="481.44" y2="466.59"/>
    <line class="cls-3" x1="476.77" y1="491.27" x2="476.88" y2="491.36"/>
    <line class="cls-3" x1="474.82" y1="491.9" x2="474.93" y2="491.99"/>
    <path class="cls-3" d="M476.88,491.36c-.41.09-1.56.49-1.95.63"/>
    <line class="cls-3" x1="457.51" y1="497.68" x2="457.62" y2="497.77"/>
    <line class="cls-3" x1="474.93" y1="491.99" x2="457.62" y2="497.77"/>
    <line class="cls-3" x1="457.4" y1="504.86" x2="457.51" y2="504.95"/>
    <path class="cls-3" d="M475.61,498.88c.56-.19,1.19-.27,1.78-.09"/>
    <line class="cls-3" x1="472.94" y1="442.5" x2="458.73" y2="435.05"/>
    <line class="cls-3" x1="458.62" y1="434.96" x2="458.73" y2="435.05"/>
    <path class="cls-3" d="M478.89,501.13c-.03,1.26-.72,2.51-1.59,3.35"/>
    <line class="cls-3" x1="475" y1="505.73" x2="475.11" y2="505.83"/>
    <path class="cls-3" d="M477.3,504.48c-.63.62-1.4,1.01-2.19,1.34"/>
    <line class="cls-3" x1="474.86" y1="512.81" x2="474.97" y2="512.9"/>
    <line class="cls-3" x1="472.83" y1="442.41" x2="472.94" y2="442.5"/>
    <path class="cls-3" d="M474.97,512.9c2.96-.95,5.57-3,7.45-5.4,1.87-2.38,3.28-5.42,3.39-8.53"/>
    <path class="cls-3" d="M485.82,498.97c.05-1.17-.09-2.33-.49-3.44-.4-1.11-1.05-2.09-1.96-2.85"/>
    <line class="cls-3" x1="487.35" y1="434.79" x2="487.54" y2="425.74"/>
    <line class="cls-3" x1="487.43" y1="425.65" x2="487.54" y2="425.74"/>
    <line class="cls-3" x1="486.97" y1="452.74" x2="487.12" y2="445.39"/>
    <line class="cls-3" x1="487.01" y1="445.3" x2="487.12" y2="445.39"/>
    <line class="cls-3" x1="488.06" y1="400.02" x2="488.22" y2="392.45"/>
    <line class="cls-3" x1="488.11" y1="392.36" x2="488.22" y2="392.45"/>
    <line class="cls-3" x1="476.29" y1="414.77" x2="466.45" y2="414.45"/>
    <line class="cls-3" x1="476.4" y1="409.11" x2="476.29" y2="414.77"/>
    <path class="cls-3" d="M478.11,499.18c.59.49.8,1.23.78,1.95"/>
    <line class="cls-3" x1="476.18" y1="414.68" x2="476.29" y2="414.77"/>
    <path class="cls-3" d="M395.61,564.49c-.18-.02-.35-.04-.52-.08"/>
    <line class="cls-3" x1="476.29" y1="409.02" x2="476.4" y2="409.11"/>
    <path class="cls-3" d="M397.13,357.32c.44,1.37.98,2.68,1.64,3.95.66,1.28,1.4,2.48,2.27,3.63"/>
    <line class="cls-3" x1="475.11" y1="470.89" x2="475" y2="476.24"/>
    <line class="cls-3" x1="470.92" y1="450.56" x2="458.24" y2="454.7"/>
    <line class="cls-3" x1="482.59" y1="404.76" x2="482.7" y2="404.85"/>
    <line class="cls-3" x1="487.57" y1="422.61" x2="487.73" y2="415.19"/>
    <path class="cls-3" d="M564.15,481.17c0,.06-.02.11-.05.16"/>
    <path class="cls-3" d="M587.4,406.87c-.22,5.32-.75,10.58-1.57,15.84-.82,5.26-1.92,10.43-3.28,15.57-1.37,5.14-2.98,10.18-4.85,15.16-1.86,4.98-3.95,9.84-6.27,14.63"/>
    <line class="cls-3" x1="487.62" y1="415.1" x2="487.73" y2="415.19"/>
    <line class="cls-3" x1="458.83" y1="421.66" x2="487.57" y2="422.61"/>
    <line class="cls-3" x1="458.72" y1="421.57" x2="458.83" y2="421.66"/>
    <line class="cls-3" x1="458.87" y1="412.04" x2="458.98" y2="412.13"/>
    <line class="cls-3" x1="458.98" y1="412.13" x2="458.83" y2="421.66"/>
    <line class="cls-3" x1="487.73" y1="415.19" x2="482.5" y2="415"/>
    <line class="cls-3" x1="482.7" y1="404.85" x2="476.4" y2="409.11"/>
    <line class="cls-3" x1="488.22" y1="392.45" x2="458.98" y2="412.13"/>
    <line class="cls-3" x1="487.12" y1="445.39" x2="474.54" y2="449.5"/>
    <line class="cls-3" x1="487.54" y1="425.74" x2="472.94" y2="442.5"/>
    <line class="cls-3" x1="458.73" y1="435.05" x2="458.59" y2="444.13"/>
    <line class="cls-3" x1="458.35" y1="454.79" x2="458.23" y2="462.16"/>
    <line class="cls-3" x1="486.86" y1="455.73" x2="458" y2="475.24"/>
    <line class="cls-3" x1="458" y1="475.24" x2="457.86" y2="484.52"/>
    <line class="cls-3" x1="486.38" y1="477.8" x2="465.37" y2="477.45"/>
    <line class="cls-3" x1="475.22" y1="470.81" x2="475.11" y2="476.33"/>
    <line class="cls-3" x1="457.62" y1="497.77" x2="457.51" y2="504.95"/>
    <path class="cls-3" d="M477.38,498.79c.27.08.51.21.73.39"/>
    <path class="cls-3" d="M564.15,481.17s-.03.29-.03.32"/>
    <line class="cls-3" x1="487.62" y1="415.1" x2="482.5" y2="414.92"/>
    <line class="cls-3" x1="478" y1="499.09" x2="478.11" y2="499.18"/>
    <path class="cls-3" d="M569.29,353.81c-.06,1.8-.06,3.75.13,5.55.17,1.57.58,3.89,1.69,5.22"/>
    <line class="cls-3" x1="482.59" y1="404.76" x2="476.29" y2="409.02"/>
    <path class="cls-3" d="M200.26,40.1c.84.63,2.45.93,3.42,1.06,1.2.17,2.39.24,3.6.26,2.36.03,4.86-.15,7.19-.51"/>
    <path class="cls-3" d="M214.55,37.92c.07.05.13.09.17.17"/>
    <line class="cls-3" x1="208.44" y1="33.74" x2="214.55" y2="37.92"/>
    <line class="cls-3" x1="247.1" y1="34.21" x2="250.76" y2="35.12"/>
    <line class="cls-3" x1="237.2" y1="35.79" x2="247.1" y2="34.21"/>
    <line class="cls-3" x1="236.03" y1="31.44" x2="242.34" y2="33.03"/>
    <line class="cls-3" x1="235.94" y1="37.49" x2="236.03" y2="31.44"/>
    <line class="cls-3" x1="228.57" y1="38.68" x2="235.94" y2="37.49"/>
    <line class="cls-3" x1="250.76" y1="35.12" x2="258.02" y2="33.95"/>
    <line class="cls-3" x1="261" y1="33.49" x2="268.27" y2="32.32"/>
    <line class="cls-3" x1="251.02" y1="26.97" x2="261" y2="33.49"/>
    <line class="cls-3" x1="278.7" y1="30.65" x2="287.55" y2="29.23"/>
    <line class="cls-3" x1="312.43" y1="25.23" x2="319.68" y2="24.07"/>
    <line class="cls-3" x1="297.51" y1="21.63" x2="312.43" y2="25.23"/>
    <line class="cls-3" x1="297.74" y1="26.1" x2="307.51" y2="24.53"/>
    <line class="cls-3" x1="297.81" y1="27.57" x2="297.74" y2="26.1"/>
    <line class="cls-3" x1="290.6" y1="28.73" x2="297.81" y2="27.57"/>
    <line class="cls-3" x1="476.29" y1="409.02" x2="476.18" y2="414.68"/>
    <line class="cls-3" x1="476.18" y1="414.68" x2="466.57" y2="414.37"/>
    <line class="cls-3" x1="299.36" y1="19.07" x2="290.27" y2="20.52"/>
    <line class="cls-3" x1="290.6" y1="28.73" x2="290.59" y2="28.55"/>
    <line class="cls-3" x1="290.27" y1="20.52" x2="290.59" y2="28.55"/>
    <line class="cls-3" x1="297.81" y1="27.57" x2="297.79" y2="27.4"/>
    <line class="cls-3" x1="297.74" y1="26.1" x2="297.72" y2="25.92"/>
    <line class="cls-3" x1="297.79" y1="27.4" x2="297.72" y2="25.92"/>
    <line class="cls-3" x1="307.51" y1="24.53" x2="307.5" y2="24.36"/>
    <line class="cls-3" x1="307.5" y1="24.36" x2="303.1" y2="23.31"/>
    <line class="cls-3" x1="297.51" y1="21.63" x2="297.5" y2="21.45"/>
    <line class="cls-3" x1="297.66" y1="24.18" x2="297.5" y2="21.45"/>
    <line class="cls-3" x1="312.43" y1="25.23" x2="312.42" y2="25.05"/>
    <line class="cls-3" x1="297.5" y1="21.45" x2="312.42" y2="25.05"/>
    <line class="cls-3" x1="319.68" y1="24.07" x2="319.67" y2="23.89"/>
    <line class="cls-3" x1="319.67" y1="23.89" x2="299.36" y2="19.07"/>
    <line class="cls-3" x1="261" y1="33.49" x2="260.98" y2="33.31"/>
    <line class="cls-3" x1="268.27" y1="32.32" x2="268.25" y2="32.15"/>
    <line class="cls-3" x1="278.7" y1="30.65" x2="278.68" y2="30.47"/>
    <line class="cls-3" x1="263.84" y1="29.28" x2="278.68" y2="30.47"/>
    <line class="cls-3" x1="287.55" y1="29.23" x2="287.54" y2="29.05"/>
    <line class="cls-3" x1="277.42" y1="22.78" x2="277.4" y2="22.61"/>
    <line class="cls-3" x1="277.4" y1="22.61" x2="268.61" y2="24.01"/>
    <line class="cls-3" x1="268.61" y1="24.01" x2="262.63" y2="28.5"/>
    <line class="cls-3" x1="262.63" y1="28.5" x2="258.23" y2="25.64"/>
    <line class="cls-3" x1="251.02" y1="26.97" x2="251.01" y2="26.79"/>
    <line class="cls-3" x1="258.23" y1="25.64" x2="251.01" y2="26.79"/>
    <line class="cls-3" x1="247.1" y1="34.21" x2="247.09" y2="34.03"/>
    <line class="cls-3" x1="250.76" y1="35.12" x2="250.74" y2="34.94"/>
    <line class="cls-3" x1="247.09" y1="34.03" x2="250.74" y2="34.94"/>
    <line class="cls-3" x1="258.02" y1="33.95" x2="258.01" y2="33.77"/>
    <line class="cls-3" x1="258.01" y1="33.77" x2="238.11" y2="28.84"/>
    <line class="cls-3" x1="238.11" y1="28.84" x2="228.9" y2="30.31"/>
    <line class="cls-3" x1="228.57" y1="38.68" x2="228.55" y2="38.5"/>
    <line class="cls-3" x1="228.9" y1="30.31" x2="228.55" y2="38.5"/>
    <line class="cls-3" x1="235.94" y1="37.49" x2="235.92" y2="37.32"/>
    <line class="cls-3" x1="236.03" y1="31.44" x2="236.01" y2="31.27"/>
    <line class="cls-3" x1="235.92" y1="37.32" x2="236.01" y2="31.27"/>
    <line class="cls-3" x1="236.01" y1="31.27" x2="242.76" y2="32.96"/>
    <line class="cls-3" x1="237.2" y1="35.79" x2="237.19" y2="35.61"/>
    <line class="cls-3" x1="237.25" y1="33.84" x2="237.19" y2="35.61"/>
    <path class="cls-3" d="M222.15,36.85c-.1-.11-.52-.38-.65-.45"/>
    <line class="cls-3" x1="221.51" y1="36.39" x2="215.65" y2="32.41"/>
    <line class="cls-3" x1="208.44" y1="33.74" x2="208.42" y2="33.56"/>
    <line class="cls-3" x1="488.11" y1="392.36" x2="458.87" y2="412.04"/>
    <path class="cls-3" d="M214.53,37.74c.08.06.18.15.19.26"/>
    <path class="cls-3" d="M214.62,38.24c-.24.27-.82.46-1.13.56-.41.12-.82.21-1.24.27"/>
    <path class="cls-3" d="M212.24,39.07c-1.05.17-2.36.24-3.42.1"/>
    <line class="cls-3" x1="458.87" y1="412.04" x2="458.72" y2="421.57"/>
    <line class="cls-3" x1="200.26" y1="40.1" x2="200.24" y2="39.92"/>
    <line class="cls-3" x1="207.47" y1="38.77" x2="200.24" y2="39.92"/>
    <line class="cls-3" x1="487.01" y1="445.3" x2="474.7" y2="449.32"/>
    <line class="cls-3" x1="487.43" y1="425.65" x2="472.83" y2="442.41"/>
    <line class="cls-3" x1="472.83" y1="442.41" x2="458.62" y2="434.96"/>
    <line class="cls-3" x1="222.37" y1="37.33" x2="222.39" y2="37.51"/>
    <path class="cls-3" d="M222.37,37.33c-.02-.18-.1-.35-.22-.48"/>
    <line class="cls-3" x1="270.87" y1="27.72" x2="277.42" y2="22.78"/>
    <line class="cls-3" x1="264.15" y1="29.48" x2="278.7" y2="30.65"/>
    <line class="cls-3" x1="297.66" y1="24.18" x2="297.51" y2="21.63"/>
    <line class="cls-3" x1="458.62" y1="434.96" x2="458.48" y2="444.04"/>
    <line class="cls-3" x1="458.24" y1="454.7" x2="458.12" y2="462.07"/>
    <line class="cls-3" x1="347.01" y1="18.76" x2="347.07" y2="19.58"/>
    <line class="cls-3" x1="290.59" y1="28.55" x2="297.79" y2="27.4"/>
    <line class="cls-3" x1="297.72" y1="25.92" x2="307.5" y2="24.36"/>
    <line class="cls-3" x1="312.42" y1="25.05" x2="319.67" y2="23.89"/>
    <line class="cls-3" x1="260.98" y1="33.31" x2="268.25" y2="32.15"/>
    <line class="cls-3" x1="278.68" y1="30.47" x2="287.54" y2="29.05"/>
    <line class="cls-3" x1="270.65" y1="27.7" x2="277.4" y2="22.61"/>
    <line class="cls-3" x1="251.01" y1="26.79" x2="260.98" y2="33.31"/>
    <line class="cls-3" x1="250.74" y1="34.94" x2="258.01" y2="33.77"/>
    <line class="cls-3" x1="228.55" y1="38.5" x2="235.92" y2="37.32"/>
    <line class="cls-3" x1="237.19" y1="35.61" x2="247.09" y2="34.03"/>
    <line class="cls-3" x1="208.42" y1="33.56" x2="214.53" y2="37.74"/>
    <path class="cls-3" d="M200.24,39.92c.84.63,2.45.92,3.42,1.06,1.2.17,2.39.24,3.6.26,2.36.03,4.86-.15,7.19-.51"/>
    <line class="cls-3" x1="486.75" y1="455.64" x2="457.89" y2="475.15"/>
    <line class="cls-3" x1="457.89" y1="475.15" x2="457.75" y2="484.43"/>
    <line class="cls-3" x1="486.27" y1="477.71" x2="465.5" y2="477.36"/>
    <path class="cls-3" d="M273.07,374.89h.04"/>
    <line class="cls-3" x1="212.71" y1="525.09" x2="212.06" y2="525.53"/>
    <path class="cls-3" d="M213.74,523.38l-.29-.08"/>
    <line class="cls-3" x1="474.82" y1="491.9" x2="457.51" y2="497.68"/>
    <line class="cls-3" x1="457.51" y1="497.68" x2="457.4" y2="504.86"/>
    <path class="cls-3" d="M213.38,521.48c-.46-.71-1.21-1.24-1.93-1.6-.75-.38-1.58-.63-2.4-.8"/>
    <path class="cls-3" d="M214.17,520.58c.5.78.62,1.66.26,2.53-.34.82-1.02,1.49-1.72,1.97"/>
    <path class="cls-3" d="M157.61,540.93c-35.76-1.13-71.33.94-106.5,8.33"/>
    <line class="cls-3" x1=".5" y1="320.73" x2="4.17" y2="320.05"/>
    <path class="cls-3" d="M477.27,498.7c.27.08.51.21.73.39"/>
    <path class="cls-3" d="M4.17,320.05c35.49-6.59,69.26-18.28,102.01-33.06"/>
    <path class="cls-3" d="M106.18,286.99c4.39-1.98,8.83.77,11.85,3.4,3.17,2.76,6.07,6.51,8.4,9.95"/>
    <path class="cls-3" d="M478.78,501.04c-.03,1.26-.72,2.51-1.59,3.35"/>
    <path class="cls-3" d="M477.19,504.39c-.63.62-1.4,1.01-2.19,1.34"/>
    <line class="cls-3" x1="475" y1="505.73" x2="474.86" y2="512.81"/>
    <path class="cls-3" d="M485.71,498.88c.04-1.14-.08-2.29-.47-3.38-.38-1.09-1-2.06-1.88-2.82"/>
    <line class="cls-3" x1="51.11" y1="549.26" x2=".88" y2="559.82"/>
    <path class="cls-3" d="M476.77,491.27c-.41.09-1.56.49-1.95.63"/>
    <path class="cls-3" d="M443.46,184.72c-.86-.99-1.73-1.98-2.62-2.94-.11-.12-.21-.23-.32-.34-.06-.06-.12-.13-.19-.18-.01-.01-.05-.05-.04-.01.02.06.07.11.1.16.19.27.39.53.59.79.4.52.8,1.04,1.2,1.56"/>
    <line class="cls-3" x1="428.16" y1="167.82" x2="448.33" y2="189.92"/>
    <path class="cls-3" d="M444.61,186.06c-.38-.45-.76-.89-1.15-1.34"/>
    <path class="cls-3" d="M225.15,525.36c.25.61.56,1.19.92,1.74.36.55.75,1.08,1.17,1.58"/>
    <path class="cls-3" d="M227.96,536.87c-.48.18-1.27.5-1.72.75"/>
    <path class="cls-3" d="M225.84,538.1c-.09-.11-.18-.22-.27-.33"/>
    <line class="cls-3" x1="225.57" y1="537.77" x2="224.97" y2="537.01"/>
    <path class="cls-3" d="M225.57,537.77c-.14-.17-.27-.35-.4-.53"/>
    <line class="cls-3" x1="222.1" y1="523.54" x2="222.26" y2="522.92"/>
    <path class="cls-3" d="M222.26,522.92c.04-.16.3-.32.41-.38"/>
    <line class="cls-3" x1="234.66" y1="537.35" x2="232.82" y2="537.74"/>
    <path class="cls-3" d="M222.27,523.06v-.03"/>
    <path class="cls-3" d="M224.38,521.76c.07,1.26.28,2.43.77,3.6"/>
    <path class="cls-3" d="M225.15,525.36c-.26-.62-.54-1.23-.91-1.8-.18-.28-.38-.55-.63-.78-.23-.21-.57-.44-.91-.26"/>
    <path class="cls-3" d="M242.56,522.42c.09.7.35,1.28.82,1.81"/>
    <path class="cls-3" d="M243.38,524.23c.57.64,1.42,1.15,2.16,1.53"/>
    <path class="cls-3" d="M245.93,530.37c.37,1.54.97,2.94,1.73,4.32"/>
    <path class="cls-3" d="M246.79,540.23c-.75-.39-1.59-.89-2.16-1.54"/>
    <path class="cls-3" d="M242.09,532.57c-.28-1.18-.49-2.37-.62-3.59-.12-1.12-.18-2.51,0-3.63"/>
    <path class="cls-3" d="M241.57,524.84c-.04.17-.07.34-.1.51"/>
    <path class="cls-3" d="M241.58,524.79c.21-.82.58-1.64.99-2.37"/>
    <line class="cls-3" x1="254.42" y1="538.9" x2="252.55" y2="539.3"/>
    <path class="cls-3" d="M252.55,539.3c-.24.05-.47-.04-.67-.16"/>
    <line class="cls-3" x1="248.61" y1="520.84" x2="250.48" y2="520.45"/>
    <path class="cls-3" d="M250.48,520.45c.4-.09.8.21,1.05.46.29.28.52.6.74.93.42.65.79,1.41,1.08,2.12"/>
    <path class="cls-3" d="M248.05,521.26c.13-.19.31-.37.55-.42"/>
    <path class="cls-3" d="M245.54,525.76c-.06,1.56.02,3.07.39,4.61"/>
    <line class="cls-3" x1="253.57" y1="533.43" x2="251.45" y2="524.51"/>
    <path class="cls-3" d="M244.63,538.69c-.05-.06-.1-.12-.15-.18"/>
    <path class="cls-3" d="M243.38,524.23c.67.75,1.23,2.03,1.58,2.93.4,1.05.71,2.11.97,3.2"/>
    <path class="cls-3" d="M414.18,565.4c0-.12-.05-.23-.12-.32"/>
    <path class="cls-3" d="M226.94,532.92c.12,1.39.49,2.67,1.02,3.95"/>
    <path class="cls-3" d="M226.94,532.92c.07.82.11,1.63.06,2.45-.03.51-.15,1.91-.75,2.25"/>
    <path class="cls-3" d="M247.66,534.69c-.49.89-.95,1.9-1.11,2.92"/>
    <path class="cls-3" d="M246.56,537.61c-.14.91-.05,1.76.23,2.63"/>
    <path class="cls-3" d="M246.56,537.61c-.07.43-.22,1.13-.57,1.47-.22.21-.47.24-.74.12-.24-.11-.45-.31-.62-.5"/>
    <path class="cls-3" d="M245.93,530.37c.28,1.19.49,2.38.62,3.6.12,1.12.18,2.52,0,3.64"/>
    <path class="cls-3" d="M314.72,131.12c.01.09.03.18.06.26"/>
    <path class="cls-3" d="M256.57,504.32c-.29.17-.59.07-.83-.09-.24-.16-.46-.4-.63-.62"/>
    <path class="cls-3" d="M312.74,128.58c.59-.11,1.17-.22,1.76-.32"/>
    <line class="cls-3" x1="174.55" y1="310.29" x2="174.56" y2="310.28"/>
    <path class="cls-3" d="M287.2,44.41c10.76-1.74,22.38-4.18,32.81-7.41,5.17-1.6,10.82-3.64,15.68-6.07,1.36-.68,2.69-1.41,3.99-2.22,1.09-.68,2.15-1.4,3.15-2.21.71-.57,1.38-1.18,1.99-1.86.51-.56.97-1.14,1.35-1.79.59-.99.97-2.08.89-3.27"/>
    <path class="cls-3" d="M318.16,130.27c-.66-.76-1.29-1.54-1.92-2.32"/>
    <path class="cls-3" d="M314.49,128.25c.58-.1,1.17-.2,1.75-.3"/>
    <path class="cls-3" d="M349.81,9.68c3.32,1.21,6.92,2.82,9.85,4.87,2.83,1.99,5.76,4.91,6.02,8.78"/>
    <path class="cls-3" d="M318.22,130.52c0-.07,0-.19-.06-.25"/>
    <path class="cls-3" d="M314.64,130.88c.05.05.07.18.08.24"/>
    <path class="cls-3" d="M241.13,544.2c1.7,1.19,3.57,2.24,5.55,2.91,1.75.59,3.57.88,5.42.7,1.83-.18,3.51-.79,5.05-1.76,1.82-1.14,3.33-2.69,4.61-4.38,4.48-5.93,7-14.89,8.43-21.84,3.01-14.69,3.57-32.13,3.23-46.98"/>
    <path class="cls-3" d="M211.11,469.85s0-.02-.01-.03"/>
    <path class="cls-3" d="M409.11,133.79c3.15,6.97,6.71,13.7,10.58,20.3.97,1.65,1.95,3.28,2.95,4.91,1,1.62,2.02,3.24,3.05,4.84,2.07,3.21,4.2,6.38,6.38,9.51"/>
    <path class="cls-3" d="M313.96,130.07c1.19.18,2.38-.92,2.29-2.12"/>
    <path class="cls-3" d="M203.5,408.3h0"/>
    <path class="cls-3" d="M285.01,471.93s.05.09.07.13"/>
    <path class="cls-3" d="M184.86,277.83c.01-.07.02-.14.03-.21"/>
    <path class="cls-3" d="M210.94,467.02s0-.02-.01-.03"/>
    <path class="cls-3" d="M397.1,95.05c.27,1.67.57,3.34.9,5s.7,3.32,1.09,4.97c.79,3.3,1.69,6.56,2.71,9.8,2.04,6.49,4.49,12.78,7.3,18.98"/>
    <path class="cls-3" d="M183.53,332.71s0,.02,0,.03"/>
    <path class="cls-3" d="M318.17,130.79c.02-.09.04-.18.05-.27"/>
    <line class="cls-3" x1="263.8" y1="545.76" x2="263.79" y2="545.76"/>
    <path class="cls-3" d="M336.9,381.05s0,0,0,0"/>
    <path class="cls-3" d="M338.05,378.47h-.02"/>
    <path class="cls-3" d="M290.22,467.67c-.09.52,0,1.25.11,1.74.1.47.32,1.22.64,1.62"/>
    <path class="cls-3" d="M285.27,468.65c-.07.01-.21.01-.26-.05"/>
    <path class="cls-3" d="M525.61,277.03c2.04,2.42,4.06,4.86,6.1,7.28,1.94,2.29,3.89,4.57,5.85,6.85,4.02,4.68,8.04,9.36,11.93,14.15,7.83,9.66,14.94,19.53,20.95,30.47,1.48,2.7,2.88,5.44,4.2,8.22,1.32,2.8,2.55,5.63,3.69,8.51,1.14,2.89,2.18,5.81,3.11,8.77.93,2.93,1.75,5.88,2.47,8.87,1.45,6.03,2.45,12.08,3.03,18.25.58,6.16.73,12.29.47,18.48"/>
    <line class="cls-3" x1="387.25" y1="55.74" x2="387.25" y2="55.81"/>
    <path class="cls-3" d="M232.71,537.76c1.33,1.27,2.72,2.45,4.24,3.51"/>
    <path class="cls-3" d="M189.15,187.53c.01.06.02.13.03.19"/>
    <path class="cls-3" d="M183.99,182.44c1.02.03,2.15.19,3.12.56"/>
    <path class="cls-3" d="M285.08,472.06c.05.08.19.09.26.07"/>
    <path class="cls-3" d="M290.94,469.3c.01.58.03,1.16.04,1.74"/>
    <path class="cls-3" d="M525.61,277.03c1.63,1.96,3.13,4,4.52,6.13,1.39,2.13,2.65,4.33,3.81,6.6"/>
    <path class="cls-3" d="M285.34,472.13c1.87-.38,3.75-.75,5.63-1.09"/>
    <path class="cls-3" d="M290.89,467.55c.02.58.03,1.17.04,1.75"/>
    <path class="cls-3" d="M166.26,32.86c0,.13.01.25.02.38"/>
    <path class="cls-3" d="M158.77,23.98s0,0,0,0"/>
    <path class="cls-3" d="M322.25,424.69c-.67,2.92-1.28,5.85-1.82,8.8"/>
    <line class="cls-3" x1="166.29" y1="33.24" x2="166.22" y2="32.48"/>
    <path class="cls-3" d="M204.26,412.45s0,0,0,0"/>
    <path class="cls-3" d="M201.85,399.78s0,0,0,0"/>
    <path class="cls-3" d="M252.78,307.27c.09,0,.18-.01.26-.02"/>
    <path class="cls-3" d="M256.37,487.38c.07.38.14.76.21,1.14"/>
    <path class="cls-3" d="M254.23,478.12c.03.11.06.22.09.32"/>
    <path class="cls-3" d="M209.26,517.9c.92.18,1.87.46,2.72.88.82.41,1.67,1,2.19,1.8"/>
    <path class="cls-3" d="M448.6,190.22c-.09-.1-.18-.2-.27-.3"/>
    <path class="cls-3" d="M216.97,516.13c-2.37-.59-4.75-1.16-7.14-1.72"/>
    <path class="cls-3" d="M244.19,211.4c-6.66,7.31-12.67,15.13-17.98,23.48"/>
    <path class="cls-3" d="M285.01,468.6s-.05-.05-.07-.07"/>
    <path class="cls-3" d="M172.06,304.95c0,.13,0,.26,0,.39"/>
    <path class="cls-3" d="M397.03,94.89s.06.09.07.16"/>
    <path class="cls-3" d="M128.11,276.58c-.58-11.49-1.14-22.98-1.67-34.48-.53-11.49-1.03-22.98-1.49-34.47-.92-23-1.68-46-2.2-69.02"/>
    <path class="cls-3" d="M185.6,277.51c0,.07-.01.13-.02.2"/>
    <path class="cls-3" d="M172.06,304.92s0,.02,0,.03"/>
    <path class="cls-3" d="M337.14,542.37c-40.43,11.08-87.09,12.49-128.14,4.24"/>
    <path class="cls-3" d="M260.66,486.24c.97,1.05,1.78,3,2.22,4.29.54,1.54.94,3.1,1.24,4.69.29,1.55.5,3.25.53,4.83.01.79-.02,1.64-.15,2.42-.05.28-.11.56-.19.83-.07.21-.15.42-.26.62-.15.25-.35.5-.67.57"/>
    <path class="cls-3" d="M205.08,417.21s0,0,0,0"/>
    <path class="cls-3" d="M252.83,488.59c.35-.22.71-.03.98.18.26.22.51.52.7.8.38.57.72,1.26.99,1.89"/>
    <line class="cls-3" x1="264.43" y1="502.23" x2="263.71" y2="493.65"/>
    <path class="cls-3" d="M228.71,258.93l-.17.03"/>
    <line class="cls-3" x1="263.71" y1="493.65" x2="260.68" y2="486.48"/>
    <line class="cls-3" x1="183.44" y1="182.51" x2="183.69" y2="185.07"/>
    <line class="cls-3" x1="237.37" y1="541.56" x2="236.95" y2="541.27"/>
    <path class="cls-3" d="M137.84,271.66s.03-.01.04-.02"/>
    <line class="cls-3" x1="186.58" y1="190.02" x2="187.95" y2="224.73"/>
    <path class="cls-3" d="M138.52,271.34c4.8-2.01,9.6.65,13.03,3.47,3.55,2.91,6.78,6.91,9.38,10.62"/>
    <path class="cls-3" d="M211.11,469.9s0,.1,0,.14"/>
    <path class="cls-3" d="M184.67,335.95s0,.02,0,.04"/>
    <path class="cls-3" d="M259.42,485.62c.49-.1.96.32,1.24.62"/>
    <path class="cls-3" d="M252.83,488.59c-.36.22-.55.79-.64,1.14"/>
    <path class="cls-3" d="M255.49,491.46c.98,2.34,1.66,5.37,1.87,7.88"/>
    <line class="cls-3" x1="262.11" y1="503.6" x2="264.43" y2="502.23"/>
    <path class="cls-3" d="M295.14,54.99c3.32-.54,6.64-1.13,9.94-1.77,3.31-.64,6.6-1.34,9.88-2.09,6.57-1.51,13.06-3.25,19.46-5.38,6.17-2.05,12.87-4.66,18.58-7.85,1.6-.89,3.14-1.84,4.64-2.89,1.27-.89,2.47-1.84,3.6-2.91,1.36-1.28,2.64-2.77,3.49-4.46.67-1.32,1.05-2.74.95-4.24"/>
    <path class="cls-3" d="M349.79,9.67c.56.2,1.13.4,1.69.62"/>
    <path class="cls-3" d="M374.23,35.82c.02.78.96,2.35,1.32,2.93.56.92,1.17,1.82,1.77,2.71,1.22,1.79,2.45,3.55,3.67,5.34"/>
    <path class="cls-3" d="M155.87,25.64c.47-.28.94-.55,1.41-.82"/>
    <path class="cls-3" d="M145.4,39.72c.11,1.16.52,2.24,1.12,3.22.72,1.19,1.7,2.22,2.76,3.11,1.34,1.14,2.86,2.11,4.4,2.95,1.94,1.05,3.94,1.93,6,2.7,2.8,1.06,5.65,1.92,8.55,2.68,3.41.89,6.84,1.62,10.31,2.24,12.43,2.24,26.24,3.28,38.83,3.62,1.59.04,3.18.08,4.77.1,1.62.02,3.23.04,4.85.04,1.64,0,3.28,0,4.92-.02,1.66-.02,3.31-.04,4.97-.08,6.51-.15,13-.44,19.49-.88,1.63-.11,3.25-.23,4.88-.36s3.25-.26,4.87-.41c3.23-.29,6.46-.62,9.68-.98,1.64-.19,3.28-.38,4.92-.59,1.62-.2,3.25-.41,4.87-.64,3.19-.44,6.37-.92,9.54-1.43"/>
    <path class="cls-3" d="M257.69,494.91c-.3,1.48-.45,2.92-.33,4.44"/>
    <path class="cls-3" d="M169.56,85.53c.07,1.15.26,2.5.67,3.59.2.52.51,1.17.98,1.52.57.42,1.17.26,1.71-.06,1.73-1.02,3.58-4.15,4.45-5.73"/>
    <path class="cls-3" d="M254.66,487.73c.08,1.3.32,2.52.83,3.73"/>
    <path class="cls-3" d="M397.07,94.72c0,.07-.02.13-.05.19"/>
    <path class="cls-3" d="M258.45,486.94c.12-.44.4-1.21.97-1.33"/>
    <path class="cls-3" d="M256.53,504.34c-.1.06-.2.13-.29.21-.08.07-.18.19-.14.31"/>
    <path class="cls-3" d="M384.73,52.35c.41.61.82,1.23,1.25,1.83.21.3.43.6.66.89.11.15.23.29.36.42.08.09.17.19.27.27.03.03.06.05.1.08.01,0,.02.01.03.02,0,0,0,0,0,0,0,0,0,0,0,0"/>
    <path class="cls-3" d="M261.33,485.22c.49-.1.96.32,1.24.62"/>
    <line class="cls-3" x1="259.42" y1="485.62" x2="261.33" y2="485.22"/>
    <path class="cls-3" d="M263.38,504.48c-.49.1-.98-.33-1.26-.63"/>
    <line class="cls-3" x1="265.3" y1="504.08" x2="263.38" y2="504.48"/>
    <path class="cls-3" d="M252.37,489.04c.05-.19.33-.37.46-.45"/>
    <path class="cls-3" d="M252.2,489.73c-.28,1.14-.24,2.7-.15,3.84"/>
    <line class="cls-3" x1="252.2" y1="489.73" x2="252.37" y2="489.04"/>
    <path class="cls-3" d="M255.12,503.61c-.48-.62-.9-1.47-1.2-2.19"/>
    <path class="cls-3" d="M145.39,39.62c-.34-3.5,1.68-6.56,3.9-8.83,2.26-2.32,5.2-4.33,7.97-5.95"/>
    <path class="cls-3" d="M365.68,23.33c.07,1.08-.09,2.13-.45,3.15-.41,1.17-1.04,2.25-1.78,3.23-1.37,1.83-3.15,3.41-4.97,4.77-3.58,2.68-7.96,4.96-12.02,6.77-8.14,3.64-17.59,6.54-26.2,8.72"/>
    <line class="cls-3" x1="255.63" y1="504.28" x2="255.12" y2="503.61"/>
    <path class="cls-3" d="M227.35,257.33c-3.05-4.07-6.8-8.36-10.91-11.47"/>
    <path class="cls-3" d="M212.77,508.22c2.65,5.28,5.61,10.64,8.83,15.6"/>
    <path class="cls-3" d="M262.13,503.85c-.06-.07-.12-.14-.18-.21"/>
    <path class="cls-3" d="M257.37,499.34c.07.86.1,1.72.04,2.59-.04.56-.19,2-.83,2.38"/>
    <path class="cls-3" d="M258.41,503.49c-.52.21-1.35.54-1.84.83"/>
    <path class="cls-3" d="M239,542.58c.69.57,1.4,1.11,2.13,1.63"/>
    <path class="cls-3" d="M257.37,499.34c.12,1.46.5,2.8,1.05,4.14"/>
    <path class="cls-3" d="M216.61,259.3c1.57,2.11,3.05,4.28,4.46,6.49,1.62,2.53,3.14,5.1,4.6,7.72,3.45,6.17,6.56,12.6,9.41,19.06,2.45,5.56,4.72,11.18,6.86,16.86,2.34,6.23,4.52,12.51,6.57,18.84,7.69,23.83,13.81,49.42,18.1,74.07,4.24,24.37,7.23,51.05,7.42,75.84.05,6.82-.1,13.63-.57,20.44-.4,5.85-1.03,11.78-2.02,17.56-.76,4.41-1.75,8.87-3.11,13.14-.57,1.79-1.21,3.55-1.95,5.28-.64,1.51-1.35,2.97-2.18,4.39-.71,1.23-1.48,2.4-2.37,3.51-.77.96-1.6,1.84-2.54,2.64-1.59,1.34-3.4,2.34-5.46,2.78"/>
    <path class="cls-3" d="M255.49,491.46c.54,1.27,1.32,2.4,2.2,3.45"/>
    <path class="cls-3" d="M256.11,504.86c-.16-.19-.32-.39-.47-.59"/>
    <path class="cls-3" d="M268.73,473.63c.23,12.48-.21,26.3-2.16,38.68-.97,6.16-2.46,12.93-4.81,18.76-2.09,5.19-5.97,12.41-12.52,13.81"/>
    <path class="cls-3" d="M192.79,243.52c5.13-.93,10.06,1.9,13.69,4.82,3.8,3.05,7.26,7.09,10.14,10.96"/>
    <path class="cls-3" d="M262.57,485.84c.98,1.04,1.78,3,2.23,4.28.54,1.54.94,3.1,1.24,4.69.29,1.55.5,3.25.53,4.83.01.79-.02,1.64-.15,2.42-.05.28-.11.56-.2.83-.07.21-.15.42-.26.62-.15.25-.35.5-.67.57"/>
    <path class="cls-3" d="M182.43,183.06c0,.1-.16.18-.23.21-.1.04-.2.07-.31.09"/>
    <path class="cls-3" d="M216.86,246.18c4.1,3.1,7.84,7.38,10.88,11.44"/>
    <path class="cls-3" d="M211.08,499.27c.06.12.11.25.17.38"/>
    <path class="cls-3" d="M190.8,244.08c.65-.25,1.31-.43,1.99-.55"/>
    <line class="cls-3" x1="184.04" y1="185.04" x2="183.99" y2="183.98"/>
    <line class="cls-3" x1="185.7" y1="183.78" x2="185.97" y2="183.3"/>
    <path class="cls-3" d="M252.58,544.16c6.55-1.4,10.44-8.57,12.55-13.75,2.36-5.81,3.87-12.56,4.85-18.69,1.97-12.36,2.44-26.15,2.23-38.61"/>
    <path class="cls-3" d="M274.66,536.87c1.17-1.98,2.12-4.03,2.96-6.17,1.02-2.58,1.84-5.21,2.55-7.9.84-3.18,1.5-6.39,2.05-9.62.64-3.74,1.12-7.5,1.49-11.28.56-5.7.87-11.39,1.01-17.11.16-6.41.1-12.82-.13-19.22-.83-23.78-3.98-48.88-8.32-72.24-4.36-23.47-10.42-47.79-17.96-70.46-2-6.01-4.13-11.97-6.41-17.88-2.09-5.41-4.31-10.77-6.7-16.05-2.76-6.1-5.76-12.17-9.07-18-1.42-2.5-2.89-4.95-4.46-7.36-1.38-2.13-2.82-4.21-4.34-6.24"/>
    <path class="cls-3" d="M236.95,541.27c1.62,1.13,3.4,2.14,5.28,2.78,1.66.57,3.39.86,5.16.72,1.75-.14,3.37-.7,4.86-1.6,1.74-1.05,3.2-2.5,4.44-4.08,4.35-5.59,6.82-14.12,8.22-20.72,2.96-13.97,3.56-30.6,3.31-44.73"/>
    <path class="cls-3" d="M138.52,271.34c.06-.03.11-.06.17-.09"/>
    <path class="cls-3" d="M269.79,473.61c-19.22.39-38.42,1.06-57.61,2"/>
    <path class="cls-3" d="M269.79,473.61c-.51-20.74-2.85-42.54-6.13-63-3.31-20.65-7.87-41.72-13.46-61.88-5.48-19.76-12.61-40.97-21.21-59.64-2.38-5.16-4.9-10.23-7.68-15.19-2.37-4.24-4.96-8.45-7.78-12.41-2.08-2.92-4.35-5.79-6.83-8.39-1.96-2.06-4.14-4.04-6.51-5.65-1.84-1.25-3.86-2.31-6.02-2.9-1.78-.49-3.6-.63-5.43-.3"/>
    <path class="cls-3" d="M181.79,224.94c0,.06.01.11.03.17"/>
    <line class="cls-3" x1="181.79" y1="224.94" x2="180.37" y2="190.22"/>
    <line class="cls-3" x1="212.18" y1="475.6" x2="211.3" y2="474.28"/>
    <path class="cls-3" d="M187.1,182.99c.66.25,1.65.74,1.9,1.54"/>
    <line class="cls-3" x1="182.43" y1="183.06" x2="182.46" y2="183.91"/>
    <line class="cls-3" x1="211.49" y1="479.6" x2="257" y2="478.02"/>
    <path class="cls-3" d="M181.82,225.11c.17.56.97.85,1.42.97.56.15,1.19.2,1.77.17.58-.03,1.2-.13,1.74-.34.28-.11.54-.24.78-.43.22-.18.43-.43.42-.75"/>
    <path class="cls-3" d="M138.68,271.25c1.5-.77,3.09-1.1,4.77-.99,1.95.14,3.79.85,5.46,1.8,1.04.59,2.01,1.26,2.95,2.01,1.08.86,2.1,1.78,3.07,2.76,2.35,2.37,4.48,5.05,6.41,7.76,2.52,3.55,4.81,7.34,6.91,11.14,2.48,4.5,4.73,9.09,6.85,13.77,7.62,16.82,13.98,36.02,18.88,53.77,5.01,18.14,9.15,37.12,12.21,55.69,3.04,18.39,5.3,38.01,5.98,56.66"/>
    <path class="cls-3" d="M188.52,276.57c1.04-.48,2.07-1.12,2.92-1.9.44-.4.82-.82,1.15-1.31.29-.44.6-1.05.59-1.62"/>
    <line class="cls-3" x1="177.53" y1="185.55" x2="177.65" y2="188.42"/>
    <path class="cls-3" d="M177.53,185.55c-.17-.55.08-1.05.44-1.43.36-.37.85-.66,1.31-.86"/>
    <path class="cls-3" d="M180.59,276.17c.05.79.97,1.16,1.56,1.32.69.18,1.46.22,2.17.18,1.43-.09,2.9-.5,4.2-1.1"/>
    <path class="cls-3" d="M184.35,183.14c.54.01,1.08.06,1.62.16"/>
    <path class="cls-3" d="M186.14,183.85c-.54-.09-1.07-.14-1.62-.16"/>
    <path class="cls-3" d="M182.07,183.91c-.54.11-1.07.25-1.59.44"/>
    <path class="cls-3" d="M183.99,183.98c0-.12.11-.2.21-.24.11-.04.22-.05.33-.05"/>
    <path class="cls-3" d="M179.28,183.25c2.47-1.12,5.28-1.2,7.82-.25"/>
    <line class="cls-3" x1="189.06" y1="184.86" x2="189.18" y2="187.73"/>
    <path class="cls-3" d="M189.06,184.86c.01.25-.06.48-.18.69-.16.28-.38.51-.63.7-.43.34-.96.59-1.47.78-1.02.38-2.19.57-3.27.61-1.09.05-2.26-.04-3.31-.31-.55-.14-1.06-.32-1.55-.6-.28-.16-.53-.34-.75-.58-.17-.18-.29-.37-.37-.61"/>
    <path class="cls-3" d="M189.18,187.73c0,.25-.06.48-.18.69-.16.28-.38.51-.63.7-.43.34-.96.59-1.47.78-1.02.38-2.19.57-3.27.62-1.09.05-2.26-.04-3.31-.31-.55-.14-1.06-.32-1.55-.6-.28-.16-.53-.34-.75-.58-.17-.18-.29-.37-.37-.61"/>
    <line class="cls-3" x1="262.11" y1="503.6" x2="256.11" y2="504.86"/>
    <path class="cls-3" d="M252.88,488.56c.48-.29,1.27-.62,1.78-.82"/>
    <line class="cls-3" x1="260.68" y1="486.48" x2="254.66" y2="487.73"/>
    <line class="cls-3" x1="263.71" y1="493.65" x2="257.69" y2="494.91"/>
    <line class="cls-3" x1="264.43" y1="502.23" x2="258.41" y2="503.49"/>
    <path class="cls-3" d="M253.92,501.42c-.98-2.33-1.65-5.34-1.87-7.85"/>
    <path class="cls-3" d="M189.01,184.53c.03.11.05.21.06.32"/>
    <path class="cls-3" d="M182.42,183.03c-.06-.15-.12-.29-.21-.42"/>
    <path class="cls-3" d="M180.3,183.8c.52-.18,1.05-.33,1.59-.44"/>
    <path class="cls-3" d="M183.01,185.14c-.07-.34-.15-.68-.24-1.01"/>
    <path class="cls-3" d="M184,184.02c.09.34.17.67.24,1.01"/>
    <path class="cls-3" d="M290.89,467.55c-1.88.34-3.75.71-5.62,1.1"/>
    <path class="cls-3" d="M183.44,182.51c.09.13.16.27.22.42"/>
    <path class="cls-3" d="M183.44,182.51c-.41.01-.82.05-1.23.11"/>
    <path class="cls-3" d="M182.42,183.03s0,.02,0,.03"/>
    <path class="cls-3" d="M180.3,183.8c.05.19.11.37.17.55"/>
    <path class="cls-3" d="M448.7,190.33c12.99,14.23,25.97,28.46,38.8,42.83,12.83,14.38,25.51,28.88,37.91,43.63"/>
    <path class="cls-3" d="M287.58,543.29c-7.94.64-15.85,1.48-23.75,2.46"/>
    <line class="cls-3" x1="180.3" y1="183.8" x2="180.65" y2="184.29"/>
    <path class="cls-3" d="M184,184.02s0-.03,0-.04"/>
    <path class="cls-3" d="M186.14,183.85c-.04-.19-.1-.37-.17-.55"/>
    <path class="cls-3" d="M184.35,183.14c-.13,0-.25-.02-.38-.05-.08-.02-.29-.08-.33-.17"/>
    <path class="cls-3" d="M138.73,271.23c15.64-8.08,31.03-16.58,46.19-25.53"/>
    <line class="cls-3" x1="256.89" y1="473.91" x2="257" y2="478.02"/>
    <line class="cls-3" x1="188.74" y1="244.25" x2="192.5" y2="243.57"/>
    <line class="cls-3" x1="257" y1="478.02" x2="256.67" y2="478.36"/>
    <path class="cls-3" d="M564.12,481c.02.06.03.11.02.17"/>
    <line class="cls-3" x1="241.55" y1="544.5" x2="241.13" y2="544.2"/>
    <line class="cls-3" x1="274.92" y1="536.42" x2="274.66" y2="536.87"/>
    <line class="cls-3" x1="216.44" y1="245.86" x2="216.86" y2="246.18"/>
    <path class="cls-3" d="M183.44,332.5s.04.09.06.13"/>
    <path class="cls-3" d="M250.88,544.39c.57-.03,1.14-.1,1.7-.23"/>
    <path class="cls-3" d="M173.14,307.2v.03"/>
    <path class="cls-3" d="M211.35,497.13s0,.02.01.03"/>
    <path class="cls-3" d="M564.12,481c-.01.11-.02.22-.03.33"/>
    <path class="cls-3" d="M160.87,285.37s.06.09.09.13"/>
    <line class="cls-3" x1="211.54" y1="490.22" x2="211.55" y2="490.22"/>
    <line class="cls-3" x1="482.5" y1="415" x2="482.7" y2="404.85"/>
    <line class="cls-3" x1="466.45" y1="414.45" x2="488.06" y2="400.02"/>
    <line class="cls-3" x1="474.54" y1="449.5" x2="487.35" y2="434.79"/>
    <line class="cls-3" x1="458.59" y1="444.13" x2="471.07" y2="450.63"/>
    <line class="cls-3" x1="457.86" y1="484.52" x2="486.23" y2="485.1"/>
    <line class="cls-3" x1="486.23" y1="485.1" x2="486.38" y2="477.8"/>
    <line class="cls-3" x1="465.37" y1="477.45" x2="475.22" y2="470.81"/>
    <line class="cls-3" x1="457.51" y1="504.95" x2="475.61" y2="498.88"/>
    <line class="cls-3" x1="475.11" y1="505.83" x2="474.97" y2="512.9"/>
    <line class="cls-3" x1="408.05" y1="349.89" x2="411.38" y2="353.76"/>
    <path class="cls-3" d="M571.43,468.07c-.51,1.06-1.35,2.35-1.98,3.34-.7,1.09-1.4,2.18-2.07,3.29-.66,1.11-1.29,2.25-1.85,3.42-.28.59-.54,1.18-.79,1.78-.17.43-.33.86-.48,1.29-.04.11-.07.21-.11.32-.02.07-.05.14-.08.21"/>
    <path class="cls-3" d="M411.38,353.76c-1.39-1.62-3.06-3.12-4.84-4.3-1.65-1.1-3.89-2.24-5.97-2.39-2.65-.18-3.98,1.34-4.29,3.83-.26,2.07.23,4.47.84,6.4"/>
    <path class="cls-3" d="M564.08,481.71c-8.1,13.61-18,26.24-29.23,37.39-5.65,5.61-11.58,10.82-17.9,15.66-6.31,4.84-12.86,9.23-19.76,13.18-6.92,3.96-14.02,7.39-21.44,10.29-3.71,1.45-7.45,2.75-11.26,3.9-3.79,1.14-7.61,2.13-11.48,2.95-7.75,1.65-15.63,2.63-23.56,2.89-3.95.13-7.89.08-11.84-.16-3.99-.24-7.94-.66-11.89-1.27"/>
    <path class="cls-3" d="M211.46,478.51s0-.02-.01-.02"/>
    <path class="cls-3" d="M327.65,514.41c-1.84-3.6-3.37-7.3-4.66-11.12-.65-1.91-1.22-3.83-1.75-5.77s-.99-3.9-1.39-5.87c-1.63-7.86-2.4-15.97-2.51-23.97"/>
    <path class="cls-3" d="M317.34,467.67c-.02-1.66-.02-3.33.01-4.99.03-1.7.09-3.39.18-5.08.18-3.48.46-6.94.84-10.4.4-3.57.9-7.13,1.5-10.67.31-1.81.63-3.61.99-5.41.36-1.82.74-3.63,1.15-5.44.76-3.38,1.59-6.73,2.51-10.07.93-3.39,1.94-6.76,3.02-10.11.54-1.69,1.11-3.37,1.69-5.04.59-1.68,1.19-3.36,1.81-5.04,1.25-3.36,2.57-6.7,3.96-10,2.74-6.53,5.74-12.93,8.99-19.22,1.62-3.14,3.31-6.24,5.05-9.31,1.73-3.05,3.53-6.07,5.38-9.06.95-1.53,1.92-3.06,2.9-4.57.98-1.51,1.97-3,2.98-4.49,2-2.95,4.05-5.85,6.17-8.72,2.08-2.82,4.22-5.6,6.42-8.34,2.16-2.69,4.37-5.33,6.64-7.93,1.21-1.39,2.44-2.76,3.69-4.13,1.23-1.35,2.48-2.68,3.74-4,2.48-2.59,5.01-5.11,7.61-7.58,1.27-1.21,2.56-2.4,3.86-3.57,1.28-1.16,2.58-2.3,3.9-3.43,1.29-1.11,2.6-2.2,3.92-3.28,1.3-1.06,2.62-2.1,3.94-3.13,1.5-1.16,3.01-2.29,4.55-3.4,1.5-1.09,3.02-2.15,4.56-3.2,2.99-2.02,6.03-3.94,9.15-5.76,1.51-.88,3.03-1.73,4.57-2.55,1.51-.81,3.03-1.59,4.56-2.34,1.5-.74,3.02-1.44,4.55-2.12,1.49-.66,3-1.29,4.52-1.89,1.8-.71,3.62-1.38,5.46-2,1.78-.6,3.57-1.15,5.37-1.65,3.49-.97,6.99-1.75,10.57-2.3,6.62-1.03,13.35-1.29,20.03-.51,1.79.21,3.56.49,5.33.86,1.74.36,3.45.79,5.15,1.3,1.68.51,3.33,1.09,4.96,1.74,1.62.65,3.19,1.38,4.74,2.18,1.55.8,3.05,1.67,4.51,2.62,1.47.95,2.89,1.96,4.27,3.05,1.39,1.1,2.72,2.25,4.01,3.47,1.31,1.24,2.55,2.54,3.73,3.89"/>
    <path class="cls-3" d="M483.25,492.59c-.89-.74-1.95-1.2-3.08-1.41-1.13-.21-2.28-.15-3.4.08"/>
    <path class="cls-3" d="M483.36,492.68c-.89-.74-1.95-1.2-3.08-1.4-1.14-.21-2.28-.15-3.4.08"/>
    <line class="cls-3" x1="401.04" y1="364.9" x2="398.28" y2="361.24"/>
    <path class="cls-3" d="M405.72,566.55c-1.61-.25-3.2-.58-4.79-.94-1.13-.26-3.63-.86-4.77-1.08"/>
    <path class="cls-3" d="M180.48,324.52v-.03"/>
    <path class="cls-3" d="M174.66,310.54s0,0,.01,0"/>
    <line class="cls-3" x1="252.58" y1="544.16" x2="249.24" y2="544.88"/>
    <path class="cls-3" d="M253.83,547.92c-4.49.96-8.84-1.02-12.28-3.43"/>
    <path class="cls-3" d="M192.59,542.98c-11.65-.97-23.3-1.68-34.98-2.05"/>
    <line class="cls-3" x1="221.6" y1="523.82" x2="221.97" y2="524.06"/>
    <path class="cls-3" d="M221.6,523.82c.12.19.24.37.36.56"/>
    <path class="cls-3" d="M214.46,40.9c1.45-.22,2.99-.54,4.39-.98.72-.23,1.42-.48,2.09-.84.34-.18.65-.37.94-.62.16-.14.3-.29.4-.48.08-.15.13-.3.11-.48"/>
    <line class="cls-3" x1="268.25" y1="32.15" x2="263.84" y2="29.28"/>
    <line class="cls-3" x1="287.54" y1="29.05" x2="270.65" y2="27.7"/>
    <line class="cls-3" x1="242.76" y1="32.96" x2="237.25" y2="33.84"/>
    <line class="cls-3" x1="215.65" y1="32.41" x2="208.42" y2="33.56"/>
    <path class="cls-3" d="M214.44,40.73c1.45-.23,2.99-.54,4.39-.98.72-.23,1.42-.48,2.09-.84.34-.18.65-.37.94-.62.16-.14.3-.29.4-.48.08-.15.13-.3.11-.48"/>
    <path class="cls-3" d="M158.78,23.98c4.92-2.69,10.19-4.97,15.44-6.93,2.65-.99,5.31-1.9,8-2.75,1.33-.42,2.66-.83,4-1.23,1.37-.4,2.74-.8,4.12-1.17,10.76-2.96,22.11-5.25,33.12-6.98"/>
    <path class="cls-3" d="M183.98,40.09s0,0,0,0c0,0,0,0,.01,0,.02.01.03.02.05.03l.15.08c.11.06.23.12.35.18.32.16.63.31.96.45.89.39,1.78.74,2.7,1.06,2.58.9,5.27,1.59,7.93,2.17,4.15.9,8.44,1.54,12.65,2.02,2.06.24,4.13.43,6.2.6,2.19.18,4.39.32,6.59.43,4.27.22,8.54.32,12.82.33,2.12,0,4.23-.02,6.35-.06,2.16-.04,4.31-.11,6.47-.19,4.27-.17,8.54-.43,12.8-.76,4.26-.34,8.51-.76,12.76-1.26,4.24-.5,8.47-1.09,12.69-1.78"/>
    <path class="cls-3" d="M285.46,43.38c8.14-1.32,16.62-3.06,24.57-5.28,3.98-1.11,8.08-2.43,11.93-3.94,1.95-.77,3.87-1.6,5.75-2.54,1.18-.59,2.33-1.21,3.45-1.92.43-.27.85-.55,1.26-.84.15-.11.3-.22.44-.33.05-.04.1-.08.15-.12.02-.01.03-.02.05-.04,0,0,0,0,.01-.01,0,0,0,0,0,0"/>
    <path class="cls-3" d="M214.72,38c0,.09-.04.18-.1.24"/>
    <path class="cls-3" d="M222.39,37.51c-.02-.19-.1-.35-.22-.48"/>
    <path class="cls-3" d="M227.78,5.95c2.54-.4,5.09-.77,7.63-1.1,2.59-.34,5.19-.65,7.8-.94,5.16-.56,10.33-1,15.51-1.33,2.6-.16,5.2-.3,7.81-.41,2.58-.1,5.16-.18,7.74-.23,2.63-.05,5.25-.06,7.88-.05,2.56.02,5.12.06,7.68.15,2.66.08,5.31.2,7.96.37,2.53.16,5.05.35,7.58.58,5.14.48,10.34,1.14,15.42,2.08,2.76.51,5.49,1.09,8.2,1.81,2.31.61,4.59,1.31,6.83,2.16,1.6.61,3.16,1.3,4.66,2.12,1.21.66,2.41,1.43,3.46,2.34.84.73,1.63,1.57,2.2,2.54.49.83.81,1.74.88,2.71"/>
    <path class="cls-3" d="M363.69,18.55c1.09,1.38,1.87,2.98,1.99,4.78"/>
    <path class="cls-3" d="M209,546.61c-5.13-1.03-10.22-2.22-15.28-3.6"/>
    <path class="cls-3" d="M211.39,496.57l-.19-.05"/>
    <path class="cls-3" d="M212.71,525.09c-1.59,1.1-3.71,1.65-5.57,1.83"/>
    <path class="cls-3" d="M347.07,19.58c-.01-.14-.03-.27-.04-.41"/>
    <path class="cls-3" d="M192.51,243.57c7.92-23.14,21.6-44.18,38.78-61.4,8.62-8.64,18.16-16.38,28.4-23.02,10.23-6.64,21.18-12.2,32.62-16.47,22.77-8.5,47.72-11.95,71.99-8.17,12.09,1.88,23.83,5.54,34.75,11.13,10.91,5.59,20.7,12.96,28.98,22.03"/>
    <path class="cls-3" d="M426.15,165.67c-.6-.69-1.2-1.37-1.82-2.05"/>
    <line class="cls-3" x1="424.33" y1="163.62" x2="428.02" y2="167.67"/>
    <path class="cls-3" d="M424.33,163.62c-8.42-9.22-18.41-16.69-29.54-22.31-11.12-5.62-23.1-9.24-35.4-11.03-24.72-3.6-50.07.26-73.07,9.29-5.85,2.3-11.52,4.91-17.08,7.85-5.43,2.88-10.67,6.03-15.75,9.48-10.27,6.96-19.8,15.03-28.35,24.02-17.03,17.93-30.35,39.74-37.48,63.58"/>
    <path class="cls-3" d="M448.33,189.92c-14.89-16.32-34.44-26.84-55.76-31.65-21.3-4.8-43.54-3.76-64.5,1.58-10.53,2.68-20.77,6.46-30.56,11.16-4.9,2.36-9.67,4.94-14.33,7.74-4.65,2.8-9.15,5.81-13.53,9.03-17.45,12.85-32.63,28.97-44.18,47.35"/>
    <path class="cls-3" d="M234.93,527.04c.4,1.7.71,3.56.82,5.31.05.86.07,1.82-.03,2.69-.05.45-.12.89-.26,1.32-.08.24-.19.5-.35.7-.12.14-.26.26-.45.3"/>
    <line class="cls-3" x1="233.03" y1="527.46" x2="227.24" y2="528.69"/>
    <line class="cls-3" x1="233.03" y1="527.46" x2="230.17" y2="520.54"/>
    <path class="cls-3" d="M227.24,528.69c-.28,1.41-.42,2.79-.3,4.23"/>
    <line class="cls-3" x1="233.75" y1="535.64" x2="227.96" y2="536.87"/>
    <line class="cls-3" x1="233.75" y1="535.64" x2="233.03" y2="527.46"/>
    <path class="cls-3" d="M226.24,537.62c-.1.06-.19.12-.27.19-.07.06-.18.17-.13.28"/>
    <line class="cls-3" x1="231.61" y1="536.87" x2="233.75" y2="535.64"/>
    <path class="cls-3" d="M223.77,534.78c-.92-2.24-1.57-5.13-1.78-7.53"/>
    <path class="cls-3" d="M226.22,537.64c-.25.13-.5.03-.71-.11-.21-.15-.38-.33-.53-.52"/>
    <path class="cls-3" d="M225.15,525.36c.92,2.25,1.58,5.15,1.79,7.56"/>
    <path class="cls-3" d="M221.98,527.25c-.1-1.08-.15-2.63.12-3.71"/>
    <path class="cls-3" d="M223.46,4.93c2.57-.4,5.14-.77,7.72-1.12,2.61-.35,5.22-.67,7.83-.96,5.2-.58,10.41-1.05,15.64-1.42,5.22-.36,10.44-.62,15.67-.77,2.63-.08,5.27-.12,7.9-.15,2.6-.02,5.19-.01,7.79.03,10.34.15,21.03.76,31.31,2.02,5.2.64,10.36,1.44,15.49,2.49,5.09,1.04,10.23,2.34,15.16,3.99"/>
    <path class="cls-3" d="M233.09,527.43c.4,1.7.71,3.56.82,5.31.05.86.07,1.82-.03,2.69-.05.45-.12.89-.26,1.32-.08.24-.19.5-.35.7-.11.14-.26.26-.45.3"/>
    <path class="cls-3" d="M224.97,537.01c-.49-.62-.91-1.51-1.21-2.23"/>
    <path class="cls-3" d="M222.1,523.54c.08-.31.24-.81.56-1"/>
    <line class="cls-3" x1="228.97" y1="519.68" x2="230.81" y2="519.3"/>
    <path class="cls-3" d="M228.97,519.68c.16-.03.32,0,.46.06.21.09.38.23.54.39.28.27.5.57.7.9.41.65.74,1.33,1.03,2.04.57,1.37,1.04,2.91,1.38,4.36"/>
    <path class="cls-3" d="M230.81,519.3c.16-.03.32,0,.46.06.21.09.38.23.54.39.28.27.5.57.7.9.41.65.74,1.33,1.03,2.04.57,1.37,1.04,2.92,1.38,4.36"/>
    <path class="cls-3" d="M253.35,523.95c.96,2.29,1.65,5.1,1.99,7.54.18,1.25.3,2.63.27,3.89-.02.65-.06,1.3-.2,1.94-.08.37-.2.79-.41,1.12-.13.21-.32.4-.58.46"/>
    <line class="cls-3" x1="248.45" y1="521.18" x2="242.56" y2="522.42"/>
    <line class="cls-3" x1="251.45" y1="524.51" x2="245.54" y2="525.76"/>
    <line class="cls-3" x1="251.45" y1="524.51" x2="248.45" y2="521.18"/>
    <line class="cls-3" x1="253.57" y1="533.43" x2="247.66" y2="534.69"/>
    <line class="cls-3" x1="252.68" y1="538.97" x2="246.79" y2="540.23"/>
    <line class="cls-3" x1="252.68" y1="538.97" x2="253.57" y2="533.43"/>
    <path class="cls-3" d="M243.38,524.23c-.25-.28-.7-.7-1.15-.5-.39.18-.58.77-.67,1.11"/>
    <line class="cls-3" x1="182.31" y1="69.87" x2="182.34" y2="71.66"/>
    <path class="cls-3" d="M251.47,524.35c.96,2.29,1.65,5.1,1.99,7.54.18,1.25.3,2.63.27,3.89-.02.65-.06,1.3-.2,1.94-.08.37-.2.79-.41,1.12-.13.21-.32.4-.58.46"/>
    <path class="cls-3" d="M244.48,538.51c-.61-.78-1.13-1.95-1.47-2.86-.38-1.01-.68-2.04-.93-3.09"/>
    <path class="cls-3" d="M248.61,520.84c.4-.09.8.22,1.05.46.29.28.52.6.74.93.42.65.78,1.41,1.08,2.12"/>
    <line class="cls-3" x1="374.24" y1="36.22" x2="374.23" y2="35.83"/>
    <path class="cls-3" d="M122.74,138.25c-.11-5.14-.17-10.28-.19-15.42,0-2.55,0-5.09.02-7.64.02-2.59.06-5.19.13-7.79.06-2.54.15-5.08.27-7.62.12-2.6.28-5.2.48-7.8.39-5.13.95-10.24,1.76-15.32.81-5.05,1.89-10.14,3.36-15.05,1.47-4.92,3.36-9.74,5.84-14.25,5.21-9.49,12.24-16.18,21.41-21.69"/>
    <path class="cls-3" d="M312.74,128.58c.62.78,1.25,1.55,1.91,2.3"/>
    <path class="cls-3" d="M425.49,165s.02-.06,0-.09"/>
    <path class="cls-3" d="M351.49,10.29c8.1,3.08,15.38,7.19,21.67,13.31,3.07,2.99,5.75,6.31,8.1,9.89,1.16,1.76,2.23,3.56,3.22,5.41,1.03,1.91,1.98,3.86,2.85,5.85,3.43,7.77,5.8,16.17,7.31,24.49.38,2.12.71,4.25,1,6.39.28,2.1.51,4.19.69,6.3.38,4.26.59,8.52.74,12.79"/>
    <path class="cls-3" d="M381,46.81c1.72,2.51,2.02,3,3.72,5.53"/>
    <path class="cls-3" d="M208.83,39.18c-.5-.06-.91-.18-1.36-.41"/>
    <path class="cls-3" d="M197.02,379.06c.08.02.15.04.23.06"/>
    <path class="cls-3" d="M122.75,138.61c0-.09.03-.16.08-.23"/>
    <path class="cls-3" d="M397.02,94.91c-.08.13-.22.22-.34.3-.19.12-.4.21-.61.3-.3.12-.6.23-.9.34-.4.14-.8.26-1.21.38-1.11.33-2.23.63-3.36.91-1.54.39-3.08.75-4.62,1.11-3.77.86-7.55,1.66-11.34,2.43-7.58,1.55-15.17,3-22.77,4.41-14.8,2.75-30.83,5.56-45.68,8.07"/>
    <path class="cls-3" d="M306.2,113.17c-3.77.64-7.54,1.27-11.31,1.9-1.92.32-3.84.64-5.75.95-1.94.32-3.87.64-5.81.96-3.81.62-7.62,1.24-11.43,1.86-3.82.62-7.64,1.23-11.47,1.84-3.84.61-7.69,1.22-11.53,1.82l-5.72.89-5.67.88c-3.88.6-7.76,1.19-11.65,1.78-1.9.29-3.8.57-5.7.86-1.86.28-3.73.56-5.6.83-14.89,2.21-31.01,4.51-45.93,6.48-7.66,1.01-15.33,1.99-23.01,2.86-3.29.37-6.58.73-9.87,1.04-2.37.23-4.74.43-7.12.57-.83.05-1.67.09-2.51.11-.6.02-1.2.02-1.8,0-.21-.01-.43-.02-.64-.05-.16-.02-.32-.04-.47-.08-.19-.05-.5-.15-.5-.41"/>
    <path class="cls-3" d="M177.37,84.85c1.24-2.25,2.4-4.84,3.27-7.26.8-2.23,1.71-5.3,1.66-7.75"/>
    <path class="cls-3" d="M166.29,33.24c.08.86.4,1.65.85,2.37.59.93,1.38,1.72,2.23,2.4,1.12.91,2.4,1.67,3.67,2.33,1.64.84,3.34,1.53,5.08,2.15,2.27.81,4.58,1.46,6.92,2.03,2.75.67,5.52,1.22,8.31,1.69,10.05,1.69,21.11,2.43,31.27,2.64,2.58.05,5.17.07,7.75.06,2.65-.01,5.3-.05,7.95-.13,2.6-.07,5.21-.17,7.81-.3,2.63-.13,5.25-.29,7.88-.48,2.62-.19,5.23-.4,7.85-.64,2.6-.24,5.19-.51,7.79-.81,2.63-.3,5.25-.63,7.87-.99,2.57-.35,5.13-.74,7.69-1.15"/>
    <path class="cls-3" d="M227.74,257.62c1.52,2.02,2.95,4.1,4.33,6.23,1.56,2.4,3.03,4.86,4.45,7.35,3.3,5.81,6.3,11.87,9.05,17.95,2.38,5.27,4.59,10.61,6.68,16.01,2.28,5.89,4.4,11.83,6.39,17.83,7.53,22.61,13.56,46.87,17.91,70.28,4.33,23.3,7.47,48.33,8.3,72.05.22,6.4.28,12.79.13,19.19-.14,5.71-.45,11.4-1.01,17.08-.37,3.76-.85,7.5-1.49,11.23-.55,3.23-1.21,6.42-2.05,9.59-.71,2.67-1.53,5.29-2.54,7.87-.84,2.13-1.79,4.17-2.95,6.14"/>
    <path class="cls-3" d="M160.96,285.51c2.69,3.83,5.11,7.91,7.32,12.02,2.83,5.24,5.39,10.67,7.75,16.12,2.01,4.65,3.88,9.34,5.66,14.08,1.97,5.25,3.8,10.55,5.54,15.88,6.5,19.98,11.81,41.36,15.75,61.98,3.93,20.54,6.91,42.52,8.07,63.43.3,5.5.49,11,.51,16.51.02,5.16-.09,10.32-.4,15.47-.36,5.89-.98,11.95-2.07,17.76-.47,2.49-1.02,4.94-1.72,7.37-.6,2.09-1.29,4.14-2.16,6.15"/>
    <line class="cls-3" x1="192.79" y1="243.52" x2="203.31" y2="241.61"/>
    <line class="cls-3" x1="231.61" y1="504.27" x2="210.53" y2="508.69"/>
    <path class="cls-3" d="M216.44,245.86c-3.57-2.7-8.26-5.13-13.13-4.25"/>
    <line class="cls-3" x1="264.22" y1="545.69" x2="253.83" y2="547.92"/>
    <path class="cls-3" d="M264.22,545.69c4.8-1.03,8.17-4.99,10.44-8.82"/>
    <path class="cls-3" d="M106.18,286.99c10.69-4.83,21.23-9.96,31.65-15.33"/>
    <path class="cls-3" d="M249.24,544.88c-4.34.93-8.55-.98-11.87-3.31"/>
    <path class="cls-3" d="M160.93,285.43c2.94,4.2,5.59,8.72,7.98,13.25,2.91,5.5,5.56,11.23,7.98,16.95,2.14,5.05,4.12,10.15,5.99,15.3,2.02,5.57,3.91,11.19,5.69,16.84,1.68,5.37,3.27,10.76,4.76,16.18,1.53,5.58,2.97,11.18,4.32,16.81,2.66,11.11,4.97,22.27,6.93,33.53,3.81,21.82,6.61,45.81,6.96,68.02.1,6.18,0,12.35-.36,18.52-.31,5.19-.82,10.47-1.67,15.61-.65,3.95-1.52,7.99-2.76,11.8-.52,1.58-1.09,3.14-1.78,4.66-.59,1.32-1.25,2.58-2.03,3.8-.67,1.05-1.4,2.02-2.27,2.92-.76.78-1.56,1.46-2.5,2.03-1.71,1.04-3.58,1.5-5.59,1.33"/>
    <line class="cls-3" x1="273.65" y1="472.81" x2="269.79" y2="473.61"/>
    <path class="cls-3" d="M273.65,472.81c-.49-20.74-2.82-42.54-6.1-63-3.31-20.64-7.87-41.72-13.46-61.87-5.48-19.75-12.63-40.96-21.25-59.62-2.38-5.16-4.92-10.22-7.7-15.18-2.38-4.23-4.97-8.44-7.8-12.39-2.08-2.91-4.36-5.77-6.84-8.36-1.97-2.06-4.14-4.03-6.51-5.63-1.84-1.24-3.87-2.3-6.04-2.89-1.78-.48-3.61-.63-5.44-.29"/>
    <line class="cls-3" x1="256.67" y1="478.36" x2="211.48" y2="479.93"/>
    <path class="cls-3" d="M188.74,244.25c-1.36.25-2.63.74-3.82,1.44"/>
    <path class="cls-3" d="M183.01,185.14c.41-.05.82-.09,1.23-.11"/>
    <path class="cls-3" d="M182.07,183.91c.13-.03.26-.03.39,0,.11.02.27.09.31.22"/>
    <path class="cls-3" d="M357.08,343.67c-.92,1.43-1.83,2.86-2.73,4.31-.9,1.45-1.78,2.91-2.65,4.37-1.74,2.93-3.42,5.88-5.05,8.87-.81,1.49-1.61,2.99-2.4,4.5s-1.56,3.02-2.31,4.55c-1.51,3.05-2.97,6.13-4.37,9.24-1.4,3.11-2.73,6.24-4,9.39-.64,1.58-1.26,3.17-1.87,4.77-.6,1.58-1.19,3.18-1.76,4.77-1.14,3.21-2.22,6.43-3.23,9.68-1.01,3.25-1.95,6.52-2.81,9.82"/>
    <path class="cls-3" d="M203.05,241.68c5.25-1.35,10.83-2.88,16.01-4.47,2.65-.81,5.28-1.67,7.9-2.59,1.31-.46,2.61-.94,3.89-1.45.98-.39,1.95-.79,2.9-1.22.24-.11.47-.22.7-.33.05-.03.1-.05.16-.08.01,0,.02-.01.03-.02,0,0,0,0,.01,0,0,0,0,0,0,0"/>
    <path class="cls-3" d="M448.7,190.33c-3.23-3.54-6.67-6.8-10.36-9.84-3.74-3.08-7.65-5.85-11.79-8.37-4.07-2.48-8.25-4.65-12.61-6.57-2.21-.97-4.45-1.87-6.71-2.7-2.29-.83-4.6-1.6-6.94-2.28-2.26-.66-4.54-1.26-6.84-1.79-2.32-.53-4.65-1-7-1.4-4.8-.81-9.6-1.34-14.46-1.6-4.75-.26-9.48-.26-14.22-.02-2.41.12-4.82.3-7.22.55-2.42.24-4.84.55-7.25.92-4.71.71-9.36,1.65-13.98,2.8-4.7,1.17-9.33,2.55-13.9,4.14-4.51,1.57-8.93,3.32-13.29,5.27-4.41,1.97-8.72,4.12-12.95,6.46-8.38,4.63-16.42,9.98-23.93,15.92-7.53,5.95-14.57,12.5-21.04,19.59"/>
    <path class="cls-3" d="M352.57,543.78c-5.39-.68-10.78-1.15-16.2-1.45-5.42-.3-10.84-.44-16.27-.44-5.43,0-10.84.13-16.26.37-5.42.24-10.83.59-16.24,1.03"/>
    <path class="cls-3" d="M317.4,467.6c-.04-2.49,0-4.97.08-7.46.09-2.56.24-5.12.44-7.68.2-2.5.46-4.99.76-7.48.31-2.53.67-5.04,1.09-7.56.41-2.47.86-4.94,1.36-7.4.5-2.5,1.05-4.98,1.65-7.46.58-2.44,1.21-4.86,1.87-7.28.68-2.46,1.39-4.9,2.15-7.34.75-2.41,1.53-4.8,2.36-7.19.83-2.39,1.69-4.77,2.59-7.13,1.8-4.73,3.73-9.39,5.8-14,2.07-4.61,4.27-9.16,6.59-13.64,1.16-2.24,2.35-4.46,3.58-6.67,1.23-2.21,2.48-4.41,3.77-6.58"/>
    <line class="cls-3" x1="413.63" y1="564.69" x2="414.18" y2="565.4"/>
    <path class="cls-3" d="M474.86,512.81c2.96-.95,5.57-3,7.45-5.39,1.87-2.38,3.28-5.42,3.39-8.53"/>
    <path class="cls-3" d="M564.66,479.87c-.1.24-.2.48-.3.73-.05.12-.09.24-.15.36-.02.06-.05.12-.08.18-.02.04-.04.09-.07.13,0,.01-.03.03-.04.01"/>
    <path class="cls-3" d="M564.12,481.49c0-.07-.04-.16-.08-.21"/>
    <path class="cls-3" d="M414.06,565.09c-.06-.08-.14-.15-.22-.2-.13-.1-.28-.17-.43-.24-.47-.21-.99-.33-1.48-.42-.77-.14-1.54-.2-2.32-.23-1.56-.06-3.11.02-4.67.12-1.55.1-3.11.24-4.66.34-1.35.09-3.3.18-4.67.03"/>
    <path class="cls-3" d="M414.06,565.09c-.16-.2-.39-.34-.61-.44-.38-.18-.78-.3-1.2-.39-.66-.15-1.33-.22-2-.27-1.35-.1-2.7-.08-4.04-.03s-2.7.12-4.04.18c-1.35.06-2.69.1-4.05.05"/>
    <path class="cls-3" d="M570.05,338.54s0,0,0,0h0s-.01.04-.02.05c-.02.05-.03.1-.04.15-.03.15-.04.3-.06.45-.04.41-.05.83-.06,1.25-.02.64-.03,1.27-.04,1.91-.03,1.27-.08,2.55-.15,3.82-.13,2.55-.32,5.09-.4,7.64"/>
    <path class="cls-3" d="M395.09,564.41c-11.54-2.86-22.7-7.42-32.8-13.74-2.53-1.58-4.97-3.26-7.35-5.06s-4.67-3.68-6.88-5.68c-1.1-.99-2.18-2.01-3.24-3.05-1.07-1.05-2.11-2.12-3.13-3.21-1.08-1.15-2.12-2.32-3.15-3.51-.92-1.06-1.82-2.14-2.72-3.22"/>
    <line class="cls-3" x1="303.1" y1="23.31" x2="297.66" y2="24.18"/>
    <path class="cls-3" d="M166.22,32.48c-.13-1.33.22-2.58.82-3.73.76-1.44,1.9-2.69,3.08-3.75,1-.9,2.08-1.7,3.2-2.44,1.32-.88,2.68-1.67,4.08-2.4,4.99-2.64,10.88-4.81,16.23-6.5,1.36-.43,2.73-.84,4.1-1.23,1.43-.41,2.87-.81,4.32-1.18,2.82-.74,5.66-1.42,8.51-2.05,1.41-.31,2.82-.61,4.23-.9,1.45-.3,2.9-.58,4.35-.85,1.42-.27,2.85-.52,4.27-.77,1.45-.25,2.91-.49,4.36-.71"/>
    <line class="cls-3" x1="213.38" y1="521.48" x2="213.48" y2="524.05"/>
    <path class="cls-3" d="M212.06,525.53c.63-.44,1.25-1.03,1.55-1.77.32-.79.22-1.57-.23-2.28"/>
    <path class="cls-3" d="M126.43,300.34c1.22,1.81,2.37,3.66,3.47,5.54,1.26,2.15,2.45,4.34,3.6,6.56,2.71,5.25,5.16,10.68,7.42,16.13,1.94,4.68,3.74,9.4,5.44,14.16,1.87,5.23,3.61,10.49,5.25,15.79,6.18,19.93,11.22,41.27,14.86,61.81,3.6,20.28,6.33,42.53,6.9,63.16.16,5.69.16,11.37-.08,17.07-.2,4.87-.58,9.82-1.25,14.65-.29,2.08-.63,4.14-1.05,6.2-.37,1.81-.8,3.6-1.32,5.38-.45,1.53-.95,3.04-1.56,4.51-.52,1.25-1.09,2.46-1.78,3.63-.58.98-1.21,1.9-1.97,2.75-.64.72-1.33,1.36-2.13,1.89-1.39.93-2.93,1.42-4.62,1.36"/>
    <path class="cls-3" d="M428.16,167.82c-8.27-9.06-18.07-16.44-28.97-22.02-10.9-5.59-22.64-9.24-34.71-11.13-24.25-3.79-49.19-.35-71.94,8.13-11.43,4.26-22.38,9.81-32.61,16.44-10.24,6.63-19.78,14.36-28.41,22.99-17.18,17.2-30.88,38.2-38.82,61.32"/>
    <path class="cls-3" d="M222.67,522.54c.45-.27,1.24-.59,1.71-.77"/>
    <line class="cls-3" x1="230.17" y1="520.54" x2="224.38" y2="521.76"/>
    <line class="cls-3" x1="231.61" y1="536.87" x2="225.84" y2="538.1"/>
    <path class="cls-3" d="M228.08,520.98c.1-.41.35-1.18.89-1.3"/>
    <path class="cls-3" d="M232.82,537.74c-.55.12-1.1-.51-1.36-.84"/>
    <path class="cls-3" d="M425.49,164.92c.16.19.33.38.49.57"/>
  </g>
  <g id="_图层_4" data-name="图层 4">
    <g>
      <line class="cls-2" x1="183.01" y1="167.53" x2="183.22" y2="173.53"/>
      <line class="cls-1" x1="183.65" y1="185.76" x2="186.01" y2="253.03"/>
      <line class="cls-2" x1="186.22" y1="259.15" x2="186.43" y2="265.14"/>
      <polygon class="cls-4" points="178.38 263.09 186.83 276.62 194.32 262.53 178.38 263.09"/>
    </g>
  </g>
</svg>