<?xml version="1.0" encoding="UTF-8"?>
<svg xmlns="http://www.w3.org/2000/svg" viewBox="0 0 563.94 538.18">
  <defs>
    <style>
      .cls-1 {
        fill: red;
      }

      .cls-1, .cls-2 {
        stroke-width: 0px;
      }

      .cls-3 {
        stroke-dasharray: 0 0 11.07 11.07;
      }

      .cls-3, .cls-4, .cls-5, .cls-6 {
        fill: none;
      }

      .cls-3, .cls-4, .cls-6 {
        stroke: red;
        stroke-miterlimit: 10;
        stroke-width: 4.25px;
      }

      .cls-5 {
        stroke: #000;
        stroke-linecap: round;
        stroke-linejoin: round;
      }

      .cls-2 {
        fill: #bfbfbf;
      }

      .cls-6 {
        stroke-dasharray: 0 0 11.75 11.75;
      }
    </style>
  </defs>
  <g id="_图层_4" data-name="图层 4">
    <polygon class="cls-2" points="242.63 207.59 238.52 207.59 236.39 208.94 235.5 211.7 235.22 212.95 236.06 214.21 237.52 215.99 237.34 217.01 231.35 235.05 231.39 236.18 232.18 237.19 234.04 238.24 236.1 238.81 237.88 238.67 238.87 237.97 245.03 218.66 246.8 218.32 248.61 217.64 249.32 216.4 250.28 212.72 249.17 210.69 246.8 209.2 244.41 208.04 242.63 207.59"/>
    <polygon class="cls-2" points="233.08 488.17 229.87 489.26 229.11 490.15 234.72 512.8 232.86 513.94 232.03 514.9 231.94 515.78 232.84 519.63 233.92 520.27 237.03 520.77 241 520.11 244.41 518.84 246.49 517.24 247.21 515.42 245.88 511.52 244.13 510.85 242.17 510.88 236.58 488.43 234.72 487.72 233.08 488.17"/>
  </g>
  <g id="Make2D::可见线::正切线">
    <line class="cls-5" x1="186.34" y1="309.32" x2="186.57" y2="309.59"/>
    <path class="cls-5" d="M101.12,50.3c0-2.17.05-4.35.14-6.52.1-2.16.24-4.31.43-6.47.2-2.18.44-4.35.74-6.52.29-2.13.64-4.25,1.04-6.36.41-2.15.86-4.28,1.38-6.41.51-2.09,1.07-4.16,1.69-6.22,1.26-4.16,2.73-8.22,4.49-12.2.89-2.02,1.85-4.01,2.89-5.96,1-1.88,2.06-3.72,3.2-5.52,1.2-1.89,2.46-3.72,3.83-5.5,1.28-1.67,2.63-3.28,4.07-4.82,5.89-6.33,13.14-11.45,21.61-13.9"/>
    <line class="cls-5" x1="166.58" y1="309.29" x2="165.9" y2="309.56"/>
    <path class="cls-5" d="M477.72,232.37c-.01-.05-.04-.08-.08-.1-.06-.05-.13-.08-.2-.1-.25-.1-.51-.15-.77-.21-.38-.08-.76-.13-1.15-.19-.77-.1-1.54-.18-2.31-.26-1.54-.14-3.09-.25-4.63-.35"/>
    <line class="cls-5" x1="165.9" y1="309.56" x2="165.73" y2="309.75"/>
    <path class="cls-5" d="M468.36,230.95c.12,0,.2.11.22.22"/>
    <path class="cls-5" d="M271.82,231.12c-.09,0-.15.07-.18.14"/>
    <path class="cls-5" d="M391.67,469.42c10.92-.71,21.76-6.11,30.44-11.99,2.22-1.51,4.38-3.09,6.49-4.75,2.23-1.76,4.39-3.58,6.5-5.48,2.03-1.82,4-3.7,5.93-5.62,1.97-1.97,3.9-3.99,5.77-6.06,1.83-2.02,3.61-4.08,5.36-6.18,1.78-2.15,3.52-4.33,5.21-6.55,1.66-2.18,3.28-4.4,4.86-6.65,1.59-2.27,3.14-4.56,4.65-6.89,3.01-4.63,5.84-9.35,8.51-14.19,1.33-2.41,2.62-4.84,3.87-7.3,1.25-2.46,2.46-4.94,3.63-7.45"/>
    <path class="cls-5" d="M271.63,231.26c-2.74.14-5.47.29-8.2.5-1.37.1-2.73.22-4.09.37-.68.07-1.36.16-2.04.26-.46.07-.95.16-1.4.29-.13.04-.26.08-.38.15-.05.03-.13.08-.16.14"/>
    <path class="cls-5" d="M271.63,231.26c-2.71,6.85-8.45,10.85-14.95,13.24-6.31,2.32-13.62,3.21-20.24,3.49"/>
    <line class="cls-5" x1="163.42" y1="309.75" x2="161.02" y2="310.55"/>
    <path class="cls-5" d="M468.58,231.17c-3.5-.21-7-.37-10.5-.51-4.7-.18-9.39-.32-14.09-.44-8.21-.21-16.42-.35-24.63-.46-1.99-.03-3.98-.05-5.96-.07-2.03-.02-4.07-.04-6.1-.06-4.18-.04-8.37-.07-12.55-.09-4.06-.02-8.12-.04-12.19-.04-4.15,0-8.3,0-12.44,0-2.07,0-4.13,0-6.2.02-2.05,0-4.11.01-6.16.02-4.09.02-8.18.05-12.26.08-2.12.02-4.24.04-6.36.06-2.08.02-4.16.04-6.24.07-2.03.02-4.06.05-6.09.08-1.98.03-3.96.06-5.94.09-8.21.13-16.41.29-24.62.5-4.49.11-8.98.25-13.47.4-3.71.13-7.43.28-11.14.46"/>
    <path class="cls-5" d="M483.09,379.9c1.07-2.32,2.11-4.65,3.11-7,.98-2.31,1.93-4.64,2.83-6.98.92-2.38,1.8-4.77,2.64-7.18.83-2.38,1.61-4.76,2.36-7.17,1.5-4.84,2.82-9.72,3.94-14.67.57-2.52,1.08-5.04,1.54-7.58.44-2.45.82-4.9,1.15-7.37,1.29-9.85,1.66-20.39.22-30.29-.38-2.6-.88-5.17-1.55-7.71-.62-2.37-1.38-4.68-2.31-6.94-1.92-4.67-4.59-9.07-8.24-12.64"/>
    <path class="cls-5" d="M470.6,218.75c0,.61-.03,1.22-.08,1.83"/>
    <path class="cls-5" d="M468.91,218.36c0-1.39-.15-2.93-.5-4.29-.17-.67-.43-1.41-.78-2.01-.35-.57-.9-1.21-1.69-1.18"/>
    <path class="cls-5" d="M468.91,218.71c0-.12,0-.23,0-.35"/>
    <path class="cls-5" d="M468.91,218.71c.35,0,1.34,0,1.69.05"/>
    <path class="cls-5" d="M468.84,220.28c.04-.52.07-1.05.07-1.57"/>
    <path class="cls-5" d="M465.94,210.88h0"/>
    <path class="cls-5" d="M466.13,225.87c.6,0,1.05-.4,1.37-.83s.56-.99.73-1.49c.34-1.02.53-2.2.61-3.27"/>
    <path class="cls-5" d="M146.93-36.17c-2.06.59-4.04,1.34-5.99,2.24-2.01.93-3.92,2.01-5.77,3.22-3.63,2.38-6.92,5.25-9.88,8.42-1.45,1.55-2.81,3.17-4.1,4.85-1.35,1.76-2.61,3.59-3.8,5.46-1.13,1.79-2.19,3.62-3.18,5.49-1.04,1.96-2.01,3.96-2.91,5.99-6.96,15.76-9.93,33.7-9.93,50.73"/>
    <path class="cls-5" d="M155.04,151.37c3.95.68,7.91,1.16,11.9,1.5,3.99.34,7.98.53,11.98.61"/>
    <path class="cls-5" d="M101.38,50.26c0,5.06.26,10.08.78,15.11.26,2.51.58,5.02.96,7.52.38,2.49.83,4.97,1.34,7.43.52,2.51,1.1,5,1.75,7.47.63,2.41,1.33,4.79,2.09,7.16.78,2.43,1.63,4.84,2.56,7.23.9,2.32,1.87,4.62,2.9,6.88,4.16,9.08,9.57,17.9,16.33,25.35,6.68,7.36,15.03,13.75,24.71,16.88"/>
    <line class="cls-5" x1="466.17" y1="219.3" x2="464.98" y2="219.33"/>
    <line class="cls-5" x1="467.17" y1="219.75" x2="466.54" y2="219.76"/>
    <path class="cls-5" d="M219.26-23.08c-1.55,2.86-2.97,5.78-4.25,8.77-1.29,3.01-2.45,6.07-3.46,9.19-1.01,3.08-1.87,6.18-2.61,9.34-.76,3.21-1.37,6.44-1.85,9.71-.48,3.23-.82,6.46-1.03,9.72-.22,3.27-.3,6.53-.25,9.8.05,3.25.22,6.49.52,9.74.3,3.27.73,6.51,1.29,9.74.56,3.23,1.23,6.42,2.04,9.59.8,3.16,1.73,6.28,2.78,9.37,1.06,3.11,2.24,6.16,3.54,9.18,1.29,2.99,2.7,5.91,4.23,8.78,1.55,2.9,3.21,5.72,5,8.47,1.77,2.73,3.65,5.37,5.65,7.93,2.04,2.61,4.18,5.11,6.45,7.51,2.22,2.35,4.53,4.59,6.96,6.72"/>
    <line class="cls-5" x1="466.28" y1="216.79" x2="466.94" y2="216.77"/>
    <line class="cls-5" x1="370.83" y1="216.19" x2="371.06" y2="216.06"/>
    <line class="cls-5" x1="372.97" y1="215.06" x2="373.21" y2="214.93"/>
    <line class="cls-5" x1="374.09" y1="215.56" x2="373.86" y2="215.69"/>
    <line class="cls-5" x1="373.72" y1="217.95" x2="373.48" y2="218.08"/>
    <path class="cls-5" d="M151.53,247.03c.37,0,.73.01,1.09.08.1.02.2.04.3.08.04.02.11.05.13.1.05.12-.19.22-.25.26-.29.14-.62.22-.93.29-.41.1-.83.17-1.24.23-.55.09-1.1.15-1.66.2-1.95.19-3.9.25-5.86.25-3.92,0-7.82-.25-11.72-.57"/>
    <path class="cls-5" d="M153.02,478.36c.11,0,.24,0,.35-.04.06-.02.07-.04.02-.08-.04-.02-.07-.04-.11-.05-.06-.02-.13-.04-.2-.06-.21-.05-.43-.09-.64-.13-.48-.08-.96-.13-1.45-.18-.97-.09-1.94-.15-2.91-.18-1.95-.07-3.89-.06-5.84,0"/>
    <path class="cls-5" d="M160.26,290.76c2.76-3.31,7.1-4.47,11.09-4.6,4.08-.13,8.32.76,12.09,2.23"/>
    <path class="cls-5" d="M197.12,322.68c-.76.84-1.58,1.58-2.49,2.26"/>
    <path class="cls-5" d="M145.75,477.63c1.53.2,5.6.75,7.17.73"/>
    <path class="cls-5" d="M142.24,477.64c-4.29.12-8.56.47-12.83.83-3.77.33-9.03.83-12.82.94"/>
    <path class="cls-5" d="M174.54,326.5c-2.68-1.52-5.14-3.46-7.31-5.63-2.17-2.18-4.1-4.64-5.72-7.26-3.08-4.97-5.54-11.4-5.31-17.48.11-3.08.94-6.13,2.89-8.63,1.96-2.51,4.71-4.02,7.72-4.8,2.98-.77,6.17-.81,9.19-.44,3.05.38,6.09,1.21,8.93,2.35"/>
    <path class="cls-5" d="M184.94,284.62c2.97,1.2,5.82,2.79,8.39,4.71,2.57,1.92,4.9,4.2,6.81,6.79,1.9,2.6,3.37,5.5,4.22,8.62.84,3.12,1.03,6.37.44,9.56-.59,3.18-1.93,6.17-3.97,8.69-2.04,2.52-4.69,4.45-7.72,5.6-3.05,1.16-6.28,1.46-9.49,1.04-3.21-.42-6.27-1.55-9.07-3.13"/>
    <path class="cls-5" d="M183.45,288.38c3.34,1.3,6.53,3.13,9.29,5.43s5.12,5.11,6.72,8.35c1.6,3.24,2.37,6.83,2.04,10.47-.33,3.61-1.76,7.04-4.14,9.79"/>
    <path class="cls-5" d="M534.53,277.92c7.57,7.07,12.64,16.8,15.86,26.35"/>
    <path class="cls-5" d="M554.66,322.27c.42,2.79.74,5.58.97,8.39.24,2.88.38,5.75.43,8.63.05,2.82.02,5.63-.09,8.45-.11,2.88-.31,5.76-.58,8.63-.54,5.69-1.39,11.3-2.53,16.9-.57,2.79-1.22,5.56-1.94,8.32-.72,2.76-1.51,5.49-2.38,8.21-.88,2.75-1.83,5.46-2.87,8.15-1.01,2.63-2.1,5.23-3.26,7.8-1.2,2.64-2.47,5.23-3.83,7.78-1.32,2.48-2.73,4.91-4.22,7.29-3.02,4.82-6.41,9.45-10.2,13.7-1.97,2.21-4.04,4.31-6.24,6.29-2.05,1.84-4.18,3.55-6.44,5.12"/>
    <path class="cls-5" d="M366.91,211.54s0,0,0,0l-.02-.02s-.06-.06-.09-.08l-.12-.11c-.08-.07-.16-.15-.24-.22-.16-.14-.32-.29-.49-.43"/>
    <path class="cls-5" d="M240.82,122.92c-.26.03-.5-.06-.7-.22"/>
    <line class="cls-5" x1="243.43" y1="208.48" x2="242.62" y2="210.99"/>
    <path class="cls-5" d="M240.4,123.03c-.22.44-.05.95.14,1.34.21.43.49.78.81,1.13.62.67,1.4,1.27,2.16,1.75,1.53.97,3.36,1.74,5.1,2.2"/>
    <line class="cls-5" x1="245.53" y1="209.55" x2="245.32" y2="210.21"/>
    <path class="cls-5" d="M249.29,131.19c-2.41-.55-5.04-1.66-7.1-3.04-1.01-.68-2.13-1.59-2.86-2.6-.22-.3-.4-.61-.53-.97-.09-.26-.15-.54-.11-.82.1-.75.81-1,1.43-1.07"/>
    <path class="cls-5" d="M510.3,446.74c2.33-1.56,4.52-3.27,6.63-5.12,2.24-1.97,4.35-4.06,6.36-6.27,3.88-4.27,7.35-8.94,10.43-13.8,1.52-2.39,2.94-4.84,4.29-7.33,1.4-2.59,2.71-5.22,3.93-7.9,1.2-2.61,2.31-5.26,3.35-7.94,1.05-2.71,2.01-5.44,2.91-8.2,1.78-5.51,3.24-11.07,4.4-16.74.59-2.84,1.09-5.7,1.52-8.57.43-2.84.78-5.69,1.05-8.55.55-5.76.78-11.51.66-17.3-.12-5.79-.58-11.51-1.45-17.24"/>
    <path class="cls-5" d="M544.15,312.51c.46-1.33,1.11-2.65,1.97-3.78.82-1.08,1.97-2.15,3.34-2.56"/>
    <path class="cls-5" d="M488.65,264.18c1.73,1.64,3.22,3.44,4.56,5.41,1.42,2.09,2.6,4.29,3.62,6.6,2.31,5.25,3.68,10.93,4.45,16.57.68,4.97.9,10.03.8,15.04-.06,2.73-.2,5.44-.44,8.16-.24,2.86-.58,5.7-.99,8.54-.37,2.53-.8,5.04-1.28,7.54-.5,2.57-1.05,5.13-1.67,7.67-.63,2.61-1.31,5.21-2.05,7.8-.76,2.66-1.57,5.29-2.43,7.92-.82,2.49-1.69,4.97-2.6,7.44-.92,2.48-1.87,4.94-2.88,7.39-2.03,4.95-4.22,9.82-6.58,14.62-1.17,2.38-2.38,4.75-3.63,7.09-1.26,2.36-2.56,4.7-3.9,7.01-1.33,2.3-2.7,4.58-4.1,6.83-1.39,2.23-2.82,4.44-4.29,6.62-3.01,4.47-6.17,8.82-9.51,13.06-3.24,4.11-6.63,8.08-10.2,11.91-1.91,2.05-3.86,4.04-5.87,5.98-1.95,1.89-3.94,3.72-5.99,5.49-1.98,1.72-4.01,3.37-6.1,4.96-1.98,1.51-4,2.95-6.08,4.33-4.75,3.14-9.86,5.93-15.2,7.98-4.53,1.74-9.33,2.99-14.21,3.3"/>
    <path class="cls-5" d="M550.24,304.37c-.86-2.56-1.82-5.08-2.91-7.55-1.1-2.47-2.31-4.87-3.68-7.2-1.37-2.34-2.87-4.56-4.56-6.68-1.68-2.13-3.5-4.09-5.52-5.9"/>
    <path class="cls-5" d="M554.37,321.78c-1.65-1.6-3.63-3.21-5.4-4.66-1.64-1.34-3.88-3.17-5.27-4.8-.71-.84-1.49-1.95-1.63-3.12-.08-.68.07-1.31.42-1.89.28-.47.64-.84,1.05-1.18,1.62-1.32,4.58-2.28,6.7-1.76"/>
    <path class="cls-5" d="M549.46,306.17c.36-.1.62-.42.75-.74.13-.33.16-.73.03-1.06"/>
    <path class="cls-5" d="M549.46,306.17c-.49-.1-.98-.13-1.47-.12"/>
    <path class="cls-5" d="M234.06,459.72c.34.32.84.34,1.24.16"/>
    <path class="cls-5" d="M221.9,257.58c1.7.04,3.52.32,5.16.76,1.62.43,3.38,1.09,4.81,2,.72.46,1.43,1.02,1.95,1.73.51.7.83,1.59.38,2.44-.19.35-.47.63-.79.85-.41.28-.84.46-1.31.6-.82.24-1.74.32-2.59.31"/>
    <path class="cls-5" d="M235.3,459.88c.72.68.78,1.54.36,2.4-.39.78-1.09,1.41-1.77,1.9-1.37.99-3.14,1.71-4.73,2.19-1.63.49-3.44.83-5.14.94-1.29.09-3.88.12-5.08-.82"/>
    <path class="cls-5" d="M463.14,217.71c.04-1.64.32-3.39.92-4.93.3-.76.7-1.55,1.25-2.17.3-.34.66-.66,1.09-.84.36-.15.73-.2,1.11-.09.37.1.68.31.94.57.34.34.59.72.81,1.15.38.73.64,1.57.83,2.37.37,1.59.52,3.37.51,5"/>
    <path class="cls-5" d="M470.52,220.59c-.12,1.46-.42,3.21-1.04,4.57-.18.4-.39.77-.68,1.12-.23.28-.47.5-.8.66-.8.39-1.56.07-2.16-.46-1.12-.99-1.82-2.76-2.17-4.11-.4-1.5-.56-3.12-.52-4.66"/>
    <path class="cls-5" d="M255.66,232.72c.42-.35,2.81-.62,3.25-.68,1.11-.13,2.22-.23,3.33-.32,2.22-.18,4.45-.32,6.67-.45"/>
    <path class="cls-5" d="M101.36,50.28c-.08,0-.15,0-.23.01"/>
    <line class="cls-5" x1="242.54" y1="210.96" x2="242.93" y2="209.76"/>
    <line class="cls-5" x1="242.36" y1="209.2" x2="242.56" y2="208.55"/>
    <line class="cls-5" x1="353.95" y1="204.04" x2="353.95" y2="204.43"/>
    <line class="cls-5" x1="242.17" y1="214.17" x2="241.05" y2="217.61"/>
    <line class="cls-5" x1="241.14" y1="217.63" x2="234.42" y2="238.38"/>
    <line class="cls-5" x1="421.12" y1="204.77" x2="421.13" y2="205.41"/>
    <line class="cls-5" x1="468" y1="218.38" x2="468.91" y2="218.36"/>
    <path class="cls-5" d="M63.25,58.03c0,1.76-.38,3.42-.81,5.1-.21.83-.44,1.67-.63,2.51-.17.77-.35,1.76-.28,2.56"/>
    <path class="cls-5" d="M63.22,58.05s.02-.02.03-.02"/>
    <path class="cls-5" d="M61.51,50.69c-.04.48.34,1.42.49,1.82.23.59.45,1.18.64,1.78.39,1.23.6,2.44.6,3.73"/>
    <path class="cls-5" d="M222.16,259.35c-.11,0-.21,0-.32,0"/>
    <line class="cls-5" x1="222.23" y1="461.57" x2="223.36" y2="465.57"/>
    <path class="cls-5" d="M219.81,464.85c.87.66,2.6.73,3.55.72"/>
    <path class="cls-5" d="M222.16,259.35c.08-.31.09-.6.06-.92-.03-.26-.12-.65-.32-.85"/>
    <path class="cls-5" d="M221.84,259.35c-.72,0-1.52.06-2.22.23-.61.15-1.55.47-1.75,1.23"/>
    <path class="cls-5" d="M231.12,248.05h0"/>
    <path class="cls-5" d="M166.77,153.32h0"/>
    <path class="cls-5" d="M229.16,266.06c.15,0,.27.1.35.21"/>
    <path class="cls-5" d="M101.36,50.27s.02,0,.02,0"/>
    <path class="cls-5" d="M219.35,464.22c.07.26.25.47.46.63"/>
    <path class="cls-5" d="M218.93,466.49c-.84-.66-.65-1.55-.13-2.33.47-.71,1.18-1.33,1.85-1.83,1.36-1.01,3.03-1.85,4.61-2.43,1.61-.59,3.36-1.02,5.08-1.15.85-.06,1.76-.05,2.6.1.48.08.93.2,1.38.4.36.16.69.35.98.63"/>
    <path class="cls-5" d="M229.51,266.27c-.59,0-1.17-.05-1.75-.13"/>
    <path class="cls-5" d="M223.36,465.57c2.12-.03,4.53-.5,6.52-1.24,1-.37,2.08-.89,2.94-1.55.43-.33.85-.73,1.15-1.2.29-.47.47-1.02.29-1.59"/>
    <path class="cls-5" d="M219.81,464.85c.03.12.06.38.04.51-.02.15-.09.35-.16.48-.08.15-.19.28-.32.39-.17.15-.25.16-.44.26"/>
    <line class="cls-5" x1="467.25" y1="217.42" x2="466.32" y2="217.44"/>
    <path class="cls-5" d="M155.04,151.37c1.9.6,3.82,1.07,5.79,1.4,1.97.33,3.94.52,5.94.55"/>
    <line class="cls-5" x1="426.75" y1="204.25" x2="426.76" y2="204.44"/>
    <path class="cls-5" d="M549.46,306.17s.03,0,.04,0"/>
    <line class="cls-5" x1="547.99" y1="306.05" x2="547.99" y2="306.05"/>
    <path class="cls-5" d="M510.29,446.75s0,0,0,0"/>
    <path class="cls-5" d="M255.24,168.75h0"/>
    <path class="cls-5" d="M549.53,306.15s.01,0,.02-.01"/>
    <path class="cls-5" d="M550.24,304.37s.02.02.02.03"/>
    <path class="cls-5" d="M463.3,217.75s-.03-.02-.03-.02c-.01,0-.03,0-.04-.01-.03,0-.06-.01-.08-.02"/>
    <path class="cls-5" d="M223.53,460.79c1.9-.23,3.98-.85,5.69-1.74"/>
    <path class="cls-5" d="M379.93,216.74c.02,3.46-2.32,6.46-5.66,7.31"/>
    <line class="cls-5" x1="379.93" y1="216.74" x2="380.28" y2="216.59"/>
    <path class="cls-5" d="M378.39,221.65c1.23-1.4,1.9-3.2,1.89-5.06"/>
    <path class="cls-5" d="M374.41,224.02c1.54-.36,2.93-1.18,3.98-2.37"/>
    <path class="cls-5" d="M374.41,224.02s0,0,0,0"/>
    <path class="cls-5" d="M378.39,221.65s.05,0,.06.01c.04.01.07.03.1.05.05.03.1.06.14.1.09.07.19.14.28.21.18.14.36.3.53.45"/>
    <line class="cls-5" x1="239.17" y1="519.51" x2="238.89" y2="518.43"/>
    <path class="cls-5" d="M241.19,122.7c1.7.18,3.73,1,5.23,1.73"/>
    <line class="cls-5" x1="242.1" y1="518.58" x2="242.25" y2="519.2"/>
    <line class="cls-5" x1="240.11" y1="518.62" x2="240.51" y2="520.18"/>
    <line class="cls-5" x1="239.48" y1="520.28" x2="239" y2="518.39"/>
    <line class="cls-5" x1="246.5" y1="515.06" x2="245.54" y2="511.3"/>
    <line class="cls-5" x1="242.12" y1="510.88" x2="236.32" y2="488.23"/>
    <path class="cls-5" d="M550.4,304.27c1.25.43,2,1.3,2.43,2.51"/>
    <line class="cls-5" x1="464.96" y1="218.96" x2="467.42" y2="218.91"/>
    <line class="cls-5" x1="188.69" y1="309.79" x2="190.75" y2="311.38"/>
    <line class="cls-5" x1="79.32" y1="367.84" x2="72.96" y2="367.9"/>
    <line class="cls-5" x1="246.99" y1="126.79" x2="246.57" y2="127.62"/>
    <line class="cls-5" x1="245.67" y1="127.16" x2="246.11" y2="126.3"/>
    <line class="cls-5" x1="245.08" y1="126.16" x2="245.48" y2="125.36"/>
    <path class="cls-5" d="M549.04,306.33c-1.2.61-2.19,1.67-2.93,2.75-.76,1.11-1.34,2.37-1.76,3.64"/>
    <path class="cls-5" d="M168.23,153.31c-2.79.09-5.52-.13-8.26-.63-2.83-.52-5.54-1.31-8.21-2.38-2.55-1.01-4.96-2.23-7.31-3.64-2.49-1.5-4.83-3.18-7.08-5.02-8.67-7.13-15.57-16.54-20.77-26.31-1.3-2.44-2.5-4.92-3.63-7.44-1.16-2.62-2.23-5.27-3.22-7.96-.95-2.61-1.82-5.24-2.61-7.9-.81-2.74-1.54-5.49-2.18-8.27-1.27-5.49-2.22-11.01-2.86-16.61-.32-2.79-.56-5.58-.72-8.38-.16-2.82-.24-5.64-.25-8.46"/>
    <path class="cls-5" d="M58.73,280.98c1.93.01,3.81.35,5.64.96,2.09.7,4.03,1.74,5.82,3,3.37,2.36,6.21,5.45,8.61,8.73,4.76,6.51,8.28,14.47,10.78,22.04,5.05,15.28,7.21,32.57,7.22,48.54"/>
    <path class="cls-5" d="M49.53,445.78c1.88-.04,3.72-.4,5.49-1.02,2.02-.71,3.9-1.74,5.63-2.98,3.26-2.32,6.01-5.36,8.32-8.57,4.6-6.38,7.97-14.16,10.36-21.55,4.82-14.92,6.85-31.77,6.84-47.33"/>
    <line class="cls-5" x1="27.82" y1="317" x2="22.22" y2="317"/>
    <path class="cls-5" d="M240.12,122.69c.36-.04.71-.03,1.06,0"/>
    <path class="cls-5" d="M550.4,304.27c.21.58-.02,1.38-.56,1.71"/>
    <line class="cls-5" x1="69.98" y1="316.97" x2="64.05" y2="316.97"/>
    <path class="cls-5" d="M557.5,326.11c-.1-.68-.79-1.6-1.18-2.08-.51-.63-1.07-1.2-1.65-1.76"/>
    <line class="cls-5" x1="69.97" y1="410.52" x2="64.04" y2="410.61"/>
    <path class="cls-5" d="M51.54,280.93c4.19-2.29,8.74-3.16,13.48-2.08,2.1.48,4.08,1.3,5.93,2.37,2.18,1.25,4.17,2.83,5.97,4.57,6.52,6.33,11.21,15.44,14.36,23.68,3.29,8.61,5.55,17.92,6.99,26.99,1.45,9.14,2.15,18.55,2.16,27.8"/>
    <path class="cls-5" d="M554.43,321.75c.14.13.21.33.23.51"/>
    <path class="cls-5" d="M554.25,322.29c.06-.04.12-.06.19-.06"/>
    <path class="cls-5" d="M100.41,364.27c0,9.04-.65,18.23-2.04,27.16-1.38,8.86-3.55,17.96-6.74,26.37-3.05,8.06-7.62,16.98-14.02,23.15-1.76,1.69-3.7,3.22-5.82,4.43-1.83,1.04-3.77,1.84-5.83,2.3-2.17.49-4.37.57-6.58.25-2.33-.34-4.54-1.12-6.61-2.22"/>
    <path class="cls-5" d="M96.8,364.25c0,15.55-2.03,32.4-6.89,47.3-2.41,7.38-5.8,15.15-10.43,21.51-2.33,3.2-5.09,6.22-8.36,8.53-1.74,1.23-3.62,2.25-5.64,2.95-1.78.62-3.61.97-5.5,1.01"/>
    <line class="cls-5" x1="96.8" y1="364.25" x2="86.17" y2="364.34"/>
    <path class="cls-5" d="M86.17,364.34c0-15.97-2.15-33.27-7.15-48.56-2.48-7.57-5.97-15.56-10.7-22.09-1.29-1.78-2.67-3.46-4.21-5.03-1.35-1.38-2.78-2.63-4.35-3.74-1.79-1.27-3.73-2.32-5.81-3.03-1.82-.62-3.7-.96-5.63-.97"/>
    <path class="cls-5" d="M230.78,458.93c-2.32,1.54-5.78,2.57-8.55,2.64"/>
    <path class="cls-5" d="M10.02,362.15s-.09,0-.13,0h-.07s-.02,0-.03,0c0,0-.02,0-.02,0,0,0,0,0,0,0"/>
    <path class="cls-5" d="M82.56,364.32c0-15.3-2.03-31.82-6.73-46.49-1.28-4-2.77-7.9-4.57-11.7-1.56-3.3-3.37-6.55-5.47-9.55-1.39-1.98-2.88-3.84-4.58-5.57-1.46-1.49-3.01-2.83-4.75-4-2.82-1.89-5.97-3.19-9.42-3.45-3.5-.26-6.8.61-9.85,2.26-1.83.99-3.45,2.19-4.98,3.57-1.79,1.61-3.36,3.38-4.81,5.3-2.2,2.9-4.09,6.08-5.71,9.33-1.89,3.78-3.43,7.67-4.76,11.67-4.85,14.6-6.89,31.21-6.91,46.47"/>
    <path class="cls-5" d="M365.19,216.78c-.06,0-.13,0-.19,0"/>
    <path class="cls-5" d="M379.74,216.75s.17,0,.19-.01"/>
    <path class="cls-5" d="M220.9,262.84c-.46,0-.91-.03-1.37-.07"/>
    <path class="cls-5" d="M550.21,304.24c.06,0,.14,0,.19.04"/>
    <path class="cls-5" d="M550.02,304.32c.05-.04.11-.07.18-.08"/>
    <path class="cls-5" d="M553.56,320.72c-.59-2.71-.54-5.25-.64-7.97-.04-1.23-.12-2.76-.51-3.96-.46-1.38-1.31-2.27-2.73-2.69"/>
    <path class="cls-5" d="M554.46,322.23c.06,0,.15,0,.2.04"/>
    <path class="cls-5" d="M10.02,362.15c-.02,15.34,1.99,31.91,6.7,46.62,1.28,4.01,2.77,7.91,4.56,11.72,1.56,3.32,3.38,6.59,5.48,9.6,1.38,1.98,2.87,3.84,4.56,5.57,1.46,1.5,3.01,2.84,4.75,4.01,2.83,1.91,5.99,3.23,9.46,3.48,3.5.26,6.79-.6,9.84-2.24,1.84-.99,3.47-2.2,5.01-3.59,1.81-1.63,3.39-3.41,4.85-5.35,2.2-2.9,4.08-6.09,5.7-9.35,1.89-3.8,3.44-7.7,4.77-11.72,4.85-14.65,6.87-31.3,6.87-46.6"/>
    <line class="cls-5" x1="365.52" y1="217.79" x2="365.29" y2="217.93"/>
    <path class="cls-5" d="M174.54,326.5c.09-.25.16-.5.2-.77.03-.18.07-.61-.16-.74"/>
    <path class="cls-5" d="M228.29,266.02c-1.95-1.12-4.53-1.88-6.78-2.02"/>
    <path class="cls-5" d="M227.76,266.14c-1.57-.21-3.18-.65-4.64-1.24-1.44-.58-2.96-1.37-4.19-2.34-.61-.47-1.24-1.06-1.66-1.73-.44-.7-.64-1.53.04-2.2,1.02-1,3.41-1.08,4.59-1.05"/>
    <path class="cls-5" d="M220.78,263.29c2.84.03,6.5,1.09,8.85,2.76"/>
    <line class="cls-5" x1="220.9" y1="262.84" x2="221.84" y2="259.35"/>
    <path class="cls-5" d="M232.77,264.88c.17-.55,0-1.1-.27-1.56-.28-.46-.68-.86-1.1-1.19-.84-.66-1.87-1.17-2.86-1.55-1.94-.74-4.3-1.2-6.38-1.24"/>
    <path class="cls-5" d="M379.51,222.47c-1.58,1.78-3.82,2.84-6.19,2.98-2.37.14-4.71-.64-6.52-2.19-1.8-1.54-2.93-3.74-3.09-6.12-.17-2.38.65-4.71,2.24-6.48"/>
    <path class="cls-5" d="M365.95,210.66c1.59-1.77,3.81-2.84,6.18-2.99,2.37-.15,4.71.63,6.51,2.18,1.8,1.55,2.92,3.75,3.09,6.13.17,2.37-.63,4.71-2.21,6.49"/>
    <path class="cls-5" d="M380.28,216.59c-.02-3.13-1.92-5.93-4.83-7.09-2.9-1.16-6.23-.42-8.37,1.85"/>
    <path class="cls-5" d="M367.6,210.9c2.26-1.83,5.37-2.18,8-.94,2.62,1.24,4.32,3.88,4.34,6.78"/>
    <line class="cls-5" x1="27.73" y1="407.99" x2="22.13" y2="408.08"/>
    <path class="cls-5" d="M131.37,247.95s0,0,0,0c0,0,0-.01,0-.01"/>
    <path class="cls-5" d="M131.37,247.95c-2.95-.25-5.9-.54-8.84-.81-2.66-.25-6.18-.56-8.86-.6"/>
    <path class="cls-5" d="M141.91,477.66c.06.01.11.02.16.02"/>
    <line class="cls-5" x1="29.23" y1="362.64" x2="41.86" y2="362.54"/>
    <path class="cls-5" d="M137.5,248.34c2.28-.25,4.55-.53,6.83-.78,1.93-.21,4.9-.52,6.85-.54"/>
    <line class="cls-5" x1="29.23" y1="362.64" x2="25.77" y2="362.62"/>
    <line class="cls-5" x1="22.49" y1="405" x2="21.97" y2="404.8"/>
    <path class="cls-5" d="M142.07,477.67c.06,0,.11-.01.17-.03"/>
    <line class="cls-5" x1="144.87" y1="292.64" x2="144.85" y2="292.66"/>
    <line class="cls-5" x1="143.68" y1="290.36" x2="143.67" y2="290.38"/>
    <line class="cls-5" x1="147.98" y1="303.28" x2="147.97" y2="303.3"/>
    <line class="cls-5" x1="23.72" y1="322.65" x2="23.27" y2="323.01"/>
    <line class="cls-5" x1="64.43" y1="313.8" x2="63.89" y2="313.6"/>
    <line class="cls-5" x1="149.14" y1="307.51" x2="149.13" y2="307.53"/>
    <line class="cls-5" x1="65.63" y1="416.54" x2="65.16" y2="416.91"/>
    <line class="cls-5" x1="150.14" y1="311.5" x2="150.13" y2="311.51"/>
    <line class="cls-5" x1="72.55" y1="365.29" x2="71.83" y2="365.38"/>
    <path class="cls-5" d="M82.56,364.32c.89.03,2.72.02,3.61.02"/>
    <path class="cls-5" d="M96.8,364.25c.9,0,2.72,0,3.62.02"/>
    <line class="cls-5" x1="151.43" y1="317.3" x2="151.42" y2="317.31"/>
    <line class="cls-5" x1="150.66" y1="315.89" x2="150.65" y2="315.9"/>
    <line class="cls-5" x1="143.54" y1="315.44" x2="143.52" y2="315.45"/>
  </g>
  <g id="Make2D::可见线::曲线">
    <path class="cls-5" d="M143.54,315.44c-.03-.15-.06-.3-.1-.44"/>
    <path class="cls-5" d="M143.52,315.45c-.03-.15-.06-.3-.1-.44"/>
    <path class="cls-5" d="M143.52,315.45c.06.28.16.44.48.45"/>
    <line class="cls-5" x1="144.01" y1="315.88" x2="144" y2="315.9"/>
    <path class="cls-5" d="M143.54,315.44c.06.28.16.44.48.45"/>
    <line class="cls-5" x1="144" y1="315.9" x2="150.65" y2="315.9"/>
    <line class="cls-5" x1="143.1" y1="315" x2="143.44" y2="315"/>
    <line class="cls-5" x1="144.01" y1="315.88" x2="150.66" y2="315.89"/>
    <path class="cls-5" d="M150.65,315.9s.36,0,.41-.04"/>
    <path class="cls-5" d="M151.04,315.45c-.05-.22-.11-.43-.21-.63-.12-.23-.23-.34-.46-.47-.36-.2-.86-.37-1.24-.5"/>
    <line class="cls-5" x1="151.05" y1="313.99" x2="151.04" y2="314"/>
    <path class="cls-5" d="M149.05,313.55c.67.15,1.33.29,2,.44"/>
    <path class="cls-5" d="M152.05,318.68c-.31-1.57-.65-3.13-1-4.68"/>
    <line class="cls-5" x1="152.05" y1="318.68" x2="152.04" y2="318.69"/>
    <path class="cls-5" d="M152.04,318.69c-.61.13-1.21.27-1.82.4"/>
    <line class="cls-5" x1="143.44" y1="315" x2="143.43" y2="315.01"/>
    <path class="cls-5" d="M151.43,317.3c-.02-.1-.09-.41-.14-.51-.02-.05-.07-.05-.11-.06-.04,0-.09-.01-.13-.01-.09,0-.18,0-.26,0"/>
    <line class="cls-5" x1="150.79" y1="316.71" x2="144.19" y2="316.71"/>
    <path class="cls-5" d="M144.17,316.72c-.07,0-.14,0-.2.06"/>
    <line class="cls-5" x1="143.9" y1="317.16" x2="143.89" y2="317.17"/>
    <path class="cls-5" d="M144.19,316.71c-.08,0-.15,0-.21.07"/>
    <path class="cls-5" d="M143.99,317.61c-.03-.15-.06-.3-.09-.45"/>
    <line class="cls-5" x1="144.31" y1="311.93" x2="144.3" y2="311.94"/>
    <line class="cls-5" x1="144.3" y1="311.94" x2="149.85" y2="311.95"/>
    <line class="cls-5" x1="149.86" y1="311.93" x2="149.85" y2="311.95"/>
    <line class="cls-5" x1="144.31" y1="311.93" x2="149.86" y2="311.93"/>
    <path class="cls-5" d="M149.85,311.95s.09,0,.13-.01c.04-.01.08-.03.11-.06"/>
    <path class="cls-5" d="M72.55,365.29c.07.88.2,1.75.42,2.61"/>
    <line class="cls-5" x1="150.38" y1="311.11" x2="150.37" y2="311.12"/>
    <line class="cls-5" x1="150.04" y1="311.11" x2="150.38" y2="311.11"/>
    <path class="cls-5" d="M150.85,313.11c-.15-.67-.31-1.33-.47-2"/>
    <path class="cls-5" d="M150.51,313.11c-.03-.13-.06-.26-.09-.39"/>
    <path class="cls-5" d="M150.43,312.72c-.03-.12-.07-.22-.16-.31s-.19-.12-.32-.13"/>
    <line class="cls-5" x1="148.54" y1="308.37" x2="148.52" y2="308.38"/>
    <path class="cls-5" d="M148.52,308.38s0,0,0,0"/>
    <path class="cls-5" d="M148.54,308.37s-.02-.06-.02-.09"/>
    <line class="cls-5" x1="141.96" y1="308.7" x2="141.94" y2="308.71"/>
    <path class="cls-5" d="M142.22,308.27c-.08,0-.16,0-.22.08"/>
    <path class="cls-5" d="M142.05,309.08c-.03-.13-.06-.26-.1-.38"/>
    <line class="cls-5" x1="141.55" y1="307.12" x2="141.54" y2="307.13"/>
    <line class="cls-5" x1="141.21" y1="307.12" x2="141.55" y2="307.12"/>
    <path class="cls-5" d="M141.65,307.5l-.1-.38"/>
    <line class="cls-5" x1="141.65" y1="307.5" x2="141.64" y2="307.51"/>
    <path class="cls-5" d="M141.64,307.51c-.03-.13-.07-.25-.1-.38"/>
    <path class="cls-5" d="M141.64,307.51c.08.27.18.42.49.43"/>
    <line class="cls-5" x1="142.14" y1="307.93" x2="142.12" y2="307.94"/>
    <path class="cls-5" d="M141.65,307.5c.08.27.18.42.49.43"/>
    <line class="cls-5" x1="148.88" y1="307.94" x2="148.86" y2="307.95"/>
    <path class="cls-5" d="M148.86,307.95c.08,0,.18,0,.24-.08"/>
    <path class="cls-5" d="M64.05,316.97c0-1.05.12-2.15.37-3.17"/>
    <line class="cls-5" x1="149.4" y1="307.23" x2="149.39" y2="307.24"/>
    <line class="cls-5" x1="149.06" y1="307.23" x2="149.4" y2="307.23"/>
    <path class="cls-5" d="M149.77,308.65c-.12-.47-.24-.95-.37-1.42"/>
    <line class="cls-5" x1="149.77" y1="308.65" x2="149.76" y2="308.66"/>
    <line class="cls-5" x1="144.29" y1="311.83" x2="144.28" y2="311.84"/>
    <path class="cls-5" d="M144.3,311.94s-.02-.06-.02-.09"/>
    <path class="cls-5" d="M149.07,305.98c-.34-1.26-.69-2.51-1.06-3.76"/>
    <line class="cls-5" x1="148" y1="302.22" x2="147.99" y2="302.23"/>
    <path class="cls-5" d="M148.73,305.98c-.1-.36-.2-.72-.3-1.08"/>
    <path class="cls-5" d="M148.43,304.9c-.07-.24-.22-.41-.5-.42"/>
    <line class="cls-5" x1="140.94" y1="304.88" x2="140.93" y2="304.89"/>
    <path class="cls-5" d="M141.2,304.46s-.08,0-.12.02c-.04.01-.08.03-.1.07"/>
    <path class="cls-5" d="M141.24,305.96c-.1-.36-.2-.72-.29-1.08"/>
    <line class="cls-5" x1="140.18" y1="302.2" x2="140.17" y2="302.21"/>
    <line class="cls-5" x1="139.85" y1="302.2" x2="140.18" y2="302.2"/>
    <path class="cls-5" d="M140.49,303.26c-.1-.35-.2-.71-.31-1.06"/>
    <line class="cls-5" x1="140.49" y1="303.26" x2="140.48" y2="303.28"/>
    <path class="cls-5" d="M140.48,303.28c-.1-.36-.2-.71-.31-1.06"/>
    <path class="cls-5" d="M140.48,303.28c.08.27.2.41.5.42"/>
    <line class="cls-5" x1="140.99" y1="303.68" x2="140.98" y2="303.7"/>
    <path class="cls-5" d="M140.49,303.26c.08.27.2.41.5.42"/>
    <line class="cls-5" x1="147.72" y1="303.7" x2="147.71" y2="303.71"/>
    <path class="cls-5" d="M147.71,303.71c.08,0,.19,0,.25-.08"/>
    <path class="cls-5" d="M23.72,322.65c-.6-.74-.97-1.8-1.18-2.7-.22-.98-.32-1.95-.32-2.95"/>
    <line class="cls-5" x1="147.67" y1="302.22" x2="148" y2="302.22"/>
    <path class="cls-5" d="M138.61,298.22c-.07-.25-.11-.43-.08-.69.03-.25.11-.45.26-.65"/>
    <line class="cls-5" x1="141.97" y1="295.74" x2="141.96" y2="295.76"/>
    <path class="cls-5" d="M141.96,295.76c.55.01.92.03,1.46.13.49.09.95.22,1.4.41.46.19.87.43,1.25.76.18.16.35.34.49.54.16.23.23.39.32.65"/>
    <line class="cls-5" x1="146.89" y1="298.23" x2="146.88" y2="298.25"/>
    <path class="cls-5" d="M141.97,295.74c.55.01.92.03,1.46.13.49.09.95.22,1.4.41.46.19.87.43,1.25.76.19.16.35.34.49.54.16.23.23.39.32.65"/>
    <path class="cls-5" d="M146.88,298.25c.07.24.12.47.09.73-.02.26-.11.47-.26.68"/>
    <path class="cls-5" d="M146.89,298.23c.07.24.12.48.09.74-.03.26-.11.48-.27.69"/>
    <path class="cls-5" d="M143.32,299.89c.55,0,1.1-.02,1.65-.11.27-.05.54-.11.8-.2.25-.09.52-.21.69-.44"/>
    <line class="cls-5" x1="138.95" y1="298.22" x2="138.96" y2="298.21"/>
    <line class="cls-5" x1="143.32" y1="299.89" x2="143.33" y2="299.88"/>
    <path class="cls-5" d="M146.55,298.23c-.08-.21-.15-.35-.3-.52-.13-.16-.29-.28-.46-.39-.35-.22-.72-.37-1.11-.47-.8-.21-1.59-.26-2.41-.27"/>
    <line class="cls-5" x1="136.99" y1="291.41" x2="136.98" y2="291.43"/>
    <line class="cls-5" x1="136.76" y1="291.79" x2="136.75" y2="291.81"/>
    <path class="cls-5" d="M136.99,291.41c-.08,0-.18,0-.23.09"/>
    <path class="cls-5" d="M136.87,292.09c-.04-.1-.07-.2-.11-.3"/>
    <line class="cls-5" x1="136.1" y1="290.03" x2="136.09" y2="290.05"/>
    <line class="cls-5" x1="135.76" y1="290.03" x2="136.1" y2="290.03"/>
    <path class="cls-5" d="M136.21,290.33c-.04-.1-.08-.2-.11-.3"/>
    <line class="cls-5" x1="136.21" y1="290.33" x2="136.2" y2="290.34"/>
    <path class="cls-5" d="M136.2,290.34c-.04-.1-.07-.2-.11-.29"/>
    <path class="cls-5" d="M136.2,290.34c.1.25.24.37.52.38"/>
    <line class="cls-5" x1="136.73" y1="290.71" x2="136.72" y2="290.72"/>
    <path class="cls-5" d="M136.21,290.33c.04.11.09.21.19.29.1.08.21.09.33.1"/>
    <line class="cls-5" x1="143.45" y1="290.74" x2="143.44" y2="290.76"/>
    <path class="cls-5" d="M143.44,290.76c.08,0,.2,0,.26-.09"/>
    <path class="cls-5" d="M22.22,317c0-1.23.16-2.57.54-3.75.19-.58.45-1.2.81-1.71.34-.48.87-.99,1.54-.99"/>
    <line class="cls-5" x1="143.92" y1="290.11" x2="143.91" y2="290.13"/>
    <line class="cls-5" x1="143.59" y1="290.11" x2="143.92" y2="290.11"/>
    <path class="cls-5" d="M144.87,292.64c-.31-.85-.62-1.69-.95-2.53"/>
    <path class="cls-5" d="M22.49,405c.17-.67.42-1.39.79-1.99.34-.55.9-1.21,1.66-1.22"/>
    <path class="cls-5" d="M144.85,292.66c-.31-.85-.62-1.69-.94-2.53"/>
    <path class="cls-5" d="M144.85,292.66c.1.28.18.55.19.84.02.29-.02.58-.19.83"/>
    <line class="cls-5" x1="143.57" y1="294.92" x2="143.56" y2="294.93"/>
    <path class="cls-5" d="M144.87,292.64c.1.28.18.55.19.85.02.29-.03.59-.2.84"/>
    <path class="cls-5" d="M140.57,292.76c-.16-.45-.32-.89-.49-1.34"/>
    <line class="cls-5" x1="140.08" y1="291.43" x2="136.99" y2="291.41"/>
    <path class="cls-5" d="M143.26,294.21c.39,0,.98-.04,1.24-.44"/>
    <path class="cls-5" d="M140.8,292.53c-.13-.36-.27-.72-.4-1.09"/>
    <path class="cls-5" d="M144.24,291.84c-.09-.24-.25-.38-.52-.39"/>
    <path class="cls-5" d="M144.46,292.44c-.07-.2-.15-.41-.22-.61"/>
    <line class="cls-5" x1="143.27" y1="294.19" x2="143.26" y2="294.21"/>
    <line class="cls-5" x1="140.81" y1="292.51" x2="140.8" y2="292.53"/>
    <line class="cls-5" x1="140.41" y1="291.43" x2="140.4" y2="291.45"/>
    <path class="cls-5" d="M151.53,247.03h0"/>
    <path class="cls-5" d="M151.62,247.74s0,0,0,0c0,0,0,0,0,0-.01,0-.02.01-.04.02-.02,0-.03.02-.05.02-.03.02-.06.03-.09.05-.06.04-.11.08-.17.12"/>
    <path class="cls-5" d="M142.07,477.67c-3.94.11-7.87.41-11.8.74-3.56.3-8.22.74-11.78.92"/>
    <path class="cls-5" d="M22.13,408.08c0-1.02.11-2.08.35-3.07"/>
    <line class="cls-5" x1="57.97" y1="398.37" x2="56.28" y2="400.65"/>
    <line class="cls-5" x1="55.72" y1="325.66" x2="57.43" y2="327.91"/>
    <line class="cls-5" x1="26.56" y1="413.82" x2="26.3" y2="414.18"/>
    <line class="cls-5" x1="26.56" y1="322.57" x2="26.29" y2="322.92"/>
    <path class="cls-5" d="M26.3,311.08s-.05-.07-.08-.1"/>
    <line class="cls-5" x1="68.7" y1="322.62" x2="68.43" y2="322.98"/>
    <line class="cls-5" x1="68.43" y1="310.96" x2="68.7" y2="311.32"/>
    <line class="cls-5" x1="68.78" y1="416.45" x2="68.52" y2="416.81"/>
    <path class="cls-5" d="M68.32,404.74s-.03-.03-.04-.05"/>
    <line class="cls-5" x1="78.21" y1="370.91" x2="77.88" y2="371.37"/>
    <line class="cls-5" x1="77.76" y1="356.83" x2="78.1" y2="357.28"/>
    <line class="cls-5" x1="40.63" y1="465.1" x2="37.12" y2="460.74"/>
    <path class="cls-5" d="M40.63,465.1c3.41,4.25,7.47,8.24,12.15,11.15,4.72,2.94,10.01,4.72,15.68,4.56"/>
    <line class="cls-5" x1="35.75" y1="266.29" x2="39.18" y2="261.91"/>
    <path class="cls-5" d="M35.75,266.29c-6.91,8.82-11.91,19.97-15.39,30.43-3.57,10.75-6.02,22.18-7.54,33.38"/>
    <line class="cls-5" x1="189.75" y1="477.3" x2="153.02" y2="478.36"/>
    <line class="cls-5" x1="116.59" y1="479.41" x2="68.46" y2="480.81"/>
    <path class="cls-5" d="M68.46,480.81c2.69-.08,5.31-.59,7.85-1.48,2.88-1.01,5.56-2.47,8.05-4.22,2.2-1.55,4.19-3.29,6.08-5.21,2.14-2.18,4.07-4.5,5.87-6.97,6.62-9.07,11.48-20.16,14.93-30.7,6.96-21.28,9.87-45.33,9.85-67.55"/>
    <path class="cls-5" d="M25.12,414.72c-.69.01-1.24-.52-1.59-1.01-.37-.52-.65-1.16-.84-1.76-.39-1.22-.56-2.59-.56-3.86"/>
    <path class="cls-5" d="M67.21,417.45c-.67.01-1.21-.44-1.58-.91"/>
    <path class="cls-5" d="M25.11,323.44c-.58,0-1.06-.39-1.39-.79"/>
    <path class="cls-5" d="M151.31,318.25c.14-.12.17-.28.18-.45,0-.17-.02-.33-.06-.5"/>
    <path class="cls-5" d="M143.96,316.79c-.11.09-.1.27-.08.38"/>
    <path class="cls-5" d="M150.1,311.86c.09-.09.05-.27.03-.36"/>
    <path class="cls-5" d="M141.99,308.36c-.09.1-.07.24-.05.35"/>
    <path class="cls-5" d="M149.12,307.86c.08-.09.04-.26.02-.35"/>
    <path class="cls-5" d="M140.97,304.55s0,0,.01-.01"/>
    <path class="cls-5" d="M140.96,304.55c-.08.1-.06.23-.03.34"/>
    <path class="cls-5" d="M140.98,304.54c-.08.1-.06.23-.03.34"/>
    <path class="cls-5" d="M147.97,303.62c.07-.09.03-.25,0-.34"/>
    <path class="cls-5" d="M146.46,299.12c.1-.13.15-.27.16-.43.01-.16-.02-.31-.07-.46"/>
    <path class="cls-5" d="M139.05,297.42c-.09.12-.13.24-.15.39-.02.14,0,.28.05.41"/>
    <path class="cls-5" d="M136.75,291.52c-.06.09-.03.2,0,.29"/>
    <path class="cls-5" d="M143.71,290.65c.05-.08,0-.22-.02-.29"/>
    <path class="cls-5" d="M144.85,294.35c-.14.21-.33.36-.57.46-.24.1-.47.12-.72.12"/>
    <path class="cls-5" d="M144.51,293.76c.25-.38.07-.97-.05-1.31"/>
    <line class="cls-5" x1="76.14" y1="356.1" x2="77.05" y2="356.1"/>
    <line class="cls-5" x1="66.62" y1="245.94" x2="113.67" y2="246.54"/>
    <path class="cls-5" d="M66.62,245.94c-5.63-.07-10.85,1.77-15.51,4.75-4.61,2.95-8.59,6.97-11.93,11.23"/>
    <path class="cls-5" d="M72.96,367.9c.23.9.57,1.85,1.07,2.64.46.73,1.23,1.59,2.24,1.58"/>
    <path class="cls-5" d="M179.19,293.42c5.76,2.72,10.82,7.37,13.95,12.95,1.56,2.79,2.68,5.9,3.04,9.1.36,3.2-.04,6.48-1.51,9.41"/>
    <path class="cls-5" d="M13.25,396.89c1.68,11.24,4.28,22.69,8.01,33.45,3.63,10.47,8.81,21.62,15.86,30.4"/>
    <path class="cls-5" d="M177.8,247.51c.84-.07,1.68-.11,2.52-.11"/>
    <line class="cls-5" x1="150.05" y1="311.12" x2="150.37" y2="311.12"/>
    <path class="cls-5" d="M150.84,313.11c-.15-.66-.31-1.33-.47-1.99"/>
    <path class="cls-5" d="M142.04,309.08c-.03-.12-.06-.25-.09-.37"/>
    <line class="cls-5" x1="141.22" y1="307.13" x2="141.54" y2="307.13"/>
    <line class="cls-5" x1="149.07" y1="307.24" x2="149.39" y2="307.24"/>
    <path class="cls-5" d="M149.05,305.98c-.34-1.25-.69-2.5-1.06-3.74"/>
    <path class="cls-5" d="M141.23,305.96c-.1-.36-.19-.71-.29-1.07"/>
    <line class="cls-5" x1="139.85" y1="302.21" x2="140.17" y2="302.21"/>
    <line class="cls-5" x1="147.67" y1="302.23" x2="147.99" y2="302.23"/>
    <path class="cls-5" d="M136.85,292.09c-.03-.09-.07-.19-.1-.28"/>
    <line class="cls-5" x1="140.42" y1="291.45" x2="140.4" y2="291.45"/>
    <path class="cls-5" d="M152.06,477.95c.1.05.2.1.32.13"/>
    <line class="cls-5" x1="25.8" y1="414.71" x2="25.12" y2="414.72"/>
    <path class="cls-5" d="M368.78,210.57c2.03-1.26,4.56-1.41,6.73-.43,2.18.98,3.73,2.98,4.13,5.34"/>
    <path class="cls-5" d="M41.86,362.54c0,6.97.81,14.31,2.63,21.06.91,3.38,2.13,6.82,3.73,9.95,1.54,3.02,3.68,6.23,6.46,8.35"/>
    <path class="cls-5" d="M29.23,362.64c0,8.03,1.07,16.73,3.59,24.41,1.25,3.8,3.01,7.82,5.4,11.09,1.2,1.64,2.64,3.21,4.34,4.38,1.71,1.18,3.65,1.94,5.78,1.91"/>
    <path class="cls-5" d="M25.77,362.62c0,5.39.44,10.91,1.39,16.23.93,5.23,2.44,10.72,4.69,15.57,1.13,2.44,2.51,4.85,4.21,6.96,1.66,2.06,3.77,4.01,6.31,5.02,2.66,1.06,5.34.91,7.89-.35,2.45-1.21,4.44-3.25,6.01-5.39"/>
    <path class="cls-5" d="M26.22,310.98c-.41-.5-1.01-.95-1.74-.8-.31.06-.56.2-.8.4-.29.24-.52.53-.72.85-.69,1.09-1.04,2.58-1.19,3.82-.16,1.31-.14,2.72.07,4.02.19,1.2.61,2.74,1.42,3.73"/>
    <path class="cls-5" d="M64.43,313.8c.18-.73.46-1.51.87-2.16.37-.6,1-1.3,1.82-1.3"/>
    <path class="cls-5" d="M65.16,416.91c1.07,1.34,2.36,1.28,3.36-.1"/>
    <path class="cls-5" d="M68.28,404.69c-1.12-1.39-2.45-1.22-3.42.22-.76,1.11-1.13,2.67-1.28,3.95-.16,1.36-.13,2.82.09,4.18.21,1.26.66,2.83,1.49,3.87"/>
    <path class="cls-5" d="M64.04,410.61c0-1.24.16-2.58.55-3.77.19-.59.47-1.21.84-1.71.36-.49.89-.97,1.56-.98"/>
    <path class="cls-5" d="M65.63,416.54c-.63-.79-1.02-1.89-1.24-2.83-.24-1.02-.35-2.04-.35-3.09"/>
    <path class="cls-5" d="M71.83,365.38c.13,1.77.57,3.9,1.51,5.47.44.74,1.17,1.62,2.13,1.78,1.03.18,1.86-.54,2.4-1.27"/>
    <path class="cls-5" d="M365.52,217.79c-.48-2.85.8-5.7,3.26-7.22"/>
    <path class="cls-5" d="M365.25,217.6c-.06-.05-.13-.11-.2-.16"/>
    <path class="cls-5" d="M368.17,222.75c-.01-.08-.02-.16-.04-.24"/>
    <path class="cls-5" d="M552.83,306.79c.4,1.13.52,2.44.57,3.61.06,1.22.05,2.44.06,3.66.03,2.41.14,4.91.73,7.28"/>
    <line class="cls-5" x1="247.78" y1="127.52" x2="247.78" y2="127.51"/>
    <line class="cls-5" x1="240.41" y1="123" x2="240.47" y2="122.88"/>
    <path class="cls-5" d="M554.43,321.75c.94.91,2.85,2.85,3.07,4.35"/>
    <path class="cls-5" d="M113.76,364.66c-.01-13.7-1.17-27.71-3.61-41.2-2.4-13.3-6.25-27.2-11.98-39.53-1.55-3.33-3.24-6.57-5.15-9.71-1.68-2.78-3.49-5.43-5.52-7.97-2.26-2.84-4.79-5.52-7.59-7.83-2.51-2.07-5.27-3.86-8.26-5.16-6.63-2.87-13.46-2.9-20.1-.03-3.02,1.31-5.78,3.12-8.3,5.22-2.78,2.32-5.28,5.01-7.5,7.85"/>
    <path class="cls-5" d="M121.07,364.69c-.02-22.78-3.13-47.44-10.37-69.22-3.59-10.79-8.63-22.14-15.45-31.41-1.86-2.52-3.84-4.9-6.05-7.13-1.94-1.95-3.99-3.73-6.24-5.3-2.56-1.79-5.33-3.28-8.3-4.28-2.6-.88-5.29-1.37-8.04-1.41"/>
    <path class="cls-5" d="M534.74,278.12c4.18,3.94,7.74,8.37,10.76,13.24,1.51,2.43,2.86,4.93,4.08,7.51s2.3,5.22,3.25,7.91"/>
    <path class="cls-5" d="M557.5,326.11c1.59,11.04,1.59,22.42.33,33.48-.64,5.57-1.59,11.07-2.86,16.53-1.27,5.47-2.84,10.81-4.73,16.1-3.76,10.48-8.81,20.67-15.2,29.83-1.61,2.31-3.31,4.55-5.1,6.73-1.77,2.15-3.62,4.22-5.56,6.21-3.94,4.03-8.14,7.63-12.77,10.86"/>
    <path class="cls-5" d="M150.18,318.83c.28-.12.9-.38,1.13-.58"/>
    <line class="cls-5" x1="149.94" y1="312.28" x2="142.49" y2="312.27"/>
    <path class="cls-5" d="M142.41,311.93c2.04-1.18,4.08-2.37,6.12-3.54"/>
    <line class="cls-5" x1="148.51" y1="308.28" x2="142.22" y2="308.27"/>
    <line class="cls-5" x1="142.12" y1="307.94" x2="148.86" y2="307.95"/>
    <line class="cls-5" x1="142.14" y1="307.93" x2="148.88" y2="307.94"/>
    <line class="cls-5" x1="147.94" y1="304.47" x2="141.2" y2="304.46"/>
    <line class="cls-5" x1="140.98" y1="303.7" x2="147.71" y2="303.71"/>
    <line class="cls-5" x1="140.99" y1="303.68" x2="147.72" y2="303.7"/>
    <path class="cls-5" d="M147.72,303.7c.08,0,.19,0,.25-.08"/>
    <path class="cls-5" d="M143.57,300.74c-.49,0-.98-.04-1.47-.12-.49-.09-.96-.22-1.41-.42-.43-.19-.9-.47-1.25-.78-.19-.17-.35-.34-.49-.55-.16-.23-.23-.39-.33-.66"/>
    <path class="cls-5" d="M138.95,298.22c.08.22.15.36.3.54.13.16.29.29.46.41.35.24.73.38,1.14.48.78.19,1.67.24,2.47.24"/>
    <path class="cls-5" d="M138.96,298.21c.08.22.15.36.3.54.13.16.29.29.46.41.35.24.73.38,1.14.48.78.19,1.67.23,2.47.24"/>
    <path class="cls-5" d="M142.27,296.58c-.57,0-1.13.02-1.7.11-.5.08-1.17.25-1.5.72"/>
    <line class="cls-5" x1="136.72" y1="290.72" x2="143.44" y2="290.76"/>
    <line class="cls-5" x1="136.73" y1="290.71" x2="143.45" y2="290.74"/>
    <path class="cls-5" d="M143.57,294.92c-.17,0-.33-.01-.49-.04-.16-.02-.32-.06-.48-.11-.32-.1-.6-.25-.87-.45-.26-.2-.49-.43-.7-.69-.2-.27-.35-.55-.47-.86"/>
    <path class="cls-5" d="M140.8,292.53c.05.12.1.24.17.36s.14.23.22.33c.15.19.37.41.57.56.45.33.98.41,1.51.43"/>
    <path class="cls-5" d="M140.81,292.51c.05.12.1.25.17.36.07.12.14.23.22.33.15.19.37.42.57.56.45.33.98.41,1.51.43"/>
    <line class="cls-5" x1="143.72" y1="291.44" x2="140.41" y2="291.43"/>
    <path class="cls-5" d="M47.73,322.02c-4.24,0-7.59,3.11-9.81,6.15-2.32,3.18-4.02,7.08-5.23,10.77-2.43,7.46-3.46,15.91-3.46,23.7"/>
    <path class="cls-5" d="M55.72,325.66c-1.57-2.06-3.54-4.02-5.93-5.2-2.48-1.22-5.1-1.42-7.71-.43-2.51.95-4.58,2.81-6.22,4.81-1.67,2.04-3.03,4.38-4.14,6.76-2.21,4.73-3.68,10.08-4.59,15.18-.92,5.19-1.36,10.57-1.36,15.83"/>
    <line class="cls-5" x1="26.12" y1="402.29" x2="26.4" y2="402.64"/>
    <path class="cls-5" d="M26.12,402.29c-.77-.97-1.79-1.28-2.75-.35-.74.72-1.17,1.92-1.41,2.86"/>
    <path class="cls-5" d="M68.43,310.96c-.81-1.08-1.92-1.46-2.98-.45-.82.77-1.3,2.07-1.56,3.09"/>
    <line class="cls-5" x1="236.69" y1="488.62" x2="242.39" y2="510.86"/>
    <path class="cls-5" d="M245.08,126.16c-.31-.4-.57-.83-.81-1.27"/>
    <path class="cls-5" d="M37.12,460.74c2.22,2.76,4.69,5.37,7.43,7.63,2.48,2.04,5.2,3.82,8.15,5.11,6.48,2.84,13.18,2.97,19.74.27,2.97-1.22,5.7-2.94,8.19-4.94,2.78-2.23,5.27-4.84,7.51-7.61,2-2.48,3.79-5.08,5.44-7.79,1.88-3.08,3.54-6.25,5.06-9.52,5.63-12.08,9.36-25.74,11.68-38.78,2.35-13.25,3.45-27,3.44-40.44"/>
    <path class="cls-5" d="M67.11,323.59c-.69,0-1.24-.5-1.61-1-.38-.52-.67-1.15-.87-1.76-.4-1.22-.57-2.6-.57-3.87"/>
    <path class="cls-5" d="M151.07,315.85s.01-.17,0-.2c0-.07-.02-.13-.04-.2"/>
    <path class="cls-5" d="M138.8,296.86c.34-.49.9-.77,1.44-.92.57-.16,1.14-.19,1.73-.2"/>
    <path class="cls-5" d="M146.71,299.66c-.32.43-.96.73-1.45.87-.28.08-.55.13-.84.17-.28.03-.57.04-.86.05"/>
    <line class="cls-5" x1="247.76" y1="127.52" x2="247.8" y2="127.44"/>
    <line class="cls-5" x1="151.54" y1="247.03" x2="187.26" y2="247.49"/>
    <path class="cls-5" d="M158.32,303.25c.43-1.24,1.06-2.38,1.91-3.39"/>
    <path class="cls-5" d="M185.12,326.42c-1.12.57-2.26.94-3.49,1.16"/>
    <path class="cls-5" d="M245.32,125.06c-.35-.04-.7-.1-1.05-.18"/>
    <line class="cls-5" x1="374.27" y1="224.05" x2="374.11" y2="224.09"/>
    <line class="cls-5" x1="245.61" y1="125.57" x2="245.6" y2="125.58"/>
    <path class="cls-5" d="M54.09,324.45c-2.65,2.09-4.69,5.18-6.17,8.12-1.53,3.03-2.69,6.35-3.56,9.62-1.73,6.53-2.5,13.62-2.5,20.35"/>
    <path class="cls-5" d="M138.8,296.86c.35-.48.9-.76,1.44-.91.57-.16,1.14-.19,1.72-.2"/>
    <path class="cls-5" d="M241.53,123.66c-.15-.22-.3-.49-.35-.76"/>
    <path class="cls-5" d="M158.41,303.65c.41-1.53,1.13-2.96,2.15-4.18"/>
    <path class="cls-5" d="M188.74,323.47c-2.09,2.42-5.06,3.64-8.15,3.89"/>
    <path class="cls-5" d="M245.18,126.42s-.08.05-.12.05c-.05,0-.09-.01-.13-.03"/>
    <path class="cls-5" d="M467.17,219.75c0-.15.02-.3.06-.45.02-.09.09-.35.2-.4"/>
    <path class="cls-5" d="M549.5,306.16c-1.38.41-2.53,1.51-3.34,2.6-.85,1.14-1.5,2.48-1.95,3.82"/>
    <path class="cls-5" d="M242.27,124.52c-.27-.27-.52-.54-.74-.86"/>
    <path class="cls-5" d="M554.35,321.69s.05.04.08.06"/>
    <path class="cls-5" d="M63.89,313.6c-.54,2.13-.53,4.72.02,6.84.26,1,.75,2.28,1.57,3.03.43.39.97.64,1.58.51.58-.13,1.03-.56,1.37-1"/>
    <path class="cls-5" d="M245.67,127.16c-.43-.14-.82-.32-1.21-.55"/>
    <path class="cls-5" d="M247.7,128.25c-.4-.17-.78-.38-1.13-.63"/>
    <path class="cls-5" d="M247.7,128.25c.16.04.32.08.48.1"/>
    <line class="cls-5" x1="247.7" y1="128.25" x2="247.74" y2="127.88"/>
    <path class="cls-5" d="M247.62,127.8s-.07-.05-.09-.08c-.02-.03-.05-.07-.03-.12"/>
    <path class="cls-5" d="M245.08,126.16s.13.18.1.26"/>
    <path class="cls-5" d="M243.72,125.88c.23.27.48.51.75.73"/>
    <path class="cls-5" d="M245.67,127.16c.27.09.67.29.9.45"/>
    <path class="cls-5" d="M232.86,519.39c-.07-.26,0-.51.12-.74.18-.34.47-.63.75-.88.5-.42,1.04-.75,1.61-1.05,1.11-.58,2.39-1.04,3.59-1.38,1.24-.34,2.49-.58,3.78-.69,1.05-.09,2.77-.12,3.79.39"/>
    <line class="cls-5" x1="563.74" y1="163.8" x2="477.09" y2="161.19"/>
    <path class="cls-5" d="M241.83,519.58c-.02-.08.13-.19.17-.23.08-.06.16-.11.25-.16"/>
    <path class="cls-5" d="M243.96,518.1c-.54.41-1.11.77-1.71,1.09"/>
    <path class="cls-5" d="M239.17,519.51c-.35-.25-.67-.53-.97-.82"/>
    <line class="cls-5" x1="241.28" y1="520.22" x2="240.74" y2="519.04"/>
    <path class="cls-5" d="M241.89,519.64s-.06-.01-.07-.05"/>
    <line class="cls-5" x1="237.68" y1="520.18" x2="237.57" y2="520.6"/>
    <path class="cls-5" d="M236.9,520.27c.21.14.43.25.67.33"/>
    <line class="cls-5" x1="234.72" y1="512.8" x2="229.05" y2="490.55"/>
    <path class="cls-5" d="M236.69,488.62c-.05-.19-.21-.32-.37-.4"/>
    <path class="cls-5" d="M247.19,515.78c.15.57-.36,1.14-.7,1.46"/>
    <line class="cls-5" x1="246.22" y1="512.02" x2="247.19" y2="515.78"/>
    <line class="cls-5" x1="232.86" y1="519.39" x2="231.91" y2="515.63"/>
    <path class="cls-5" d="M234.18,520.35c-.21-.06-.42-.13-.62-.22"/>
    <path class="cls-5" d="M246.49,517.24c-3.3,3.1-7.95,4.26-12.31,3.1"/>
    <line class="cls-5" x1="241.83" y1="519.58" x2="241.64" y2="518.84"/>
    <path class="cls-5" d="M239.25,519.61c.03.11-.09.19-.16.23-.09.05-.18.08-.28.11"/>
    <path class="cls-5" d="M236.32,488.23c-.55-.28-1.46-.27-2.02-.23-.69.05-1.36.18-2.02.37-.67.19-1.3.42-1.92.74-.31.16-.59.34-.86.57-.16.14-.29.28-.39.47-.06.12-.09.26-.06.4"/>
    <line class="cls-5" x1="25.79" y1="323.44" x2="25.11" y2="323.44"/>
    <path class="cls-5" d="M245.54,511.3c.29.15.59.38.68.72"/>
    <line class="cls-5" x1="243.2" y1="118.96" x2="243.09" y2="119.17"/>
    <path class="cls-5" d="M247.03,126.79c.16,0,.32,0,.49,0"/>
    <line class="cls-5" x1="247.5" y1="127.6" x2="247.7" y2="127.2"/>
    <path class="cls-5" d="M150.66,315.89c.05,0,.36,0,.41-.04"/>
    <line class="cls-5" x1="151.07" y1="315.85" x2="151.06" y2="315.85"/>
    <path class="cls-5" d="M246.5,515.06c.29.14.59.37.68.72"/>
    <path class="cls-5" d="M233.56,520.12c-.29-.15-.61-.38-.7-.73"/>
    <path class="cls-5" d="M241.89,519.64c.26.06.51.09.77.05"/>
    <path class="cls-5" d="M239.48,520.28c-.63.16-1.26.27-1.9.32"/>
    <path class="cls-5" d="M241.28,520.22c-.27.04-.51.02-.77-.05"/>
    <path class="cls-5" d="M241.28,520.22c.47-.15.94-.33,1.39-.54"/>
    <path class="cls-5" d="M243.96,518.1c-.23-.1-.45-.22-.67-.33"/>
    <path class="cls-5" d="M239.48,520.28c.22-.06.79-.17,1.03-.1"/>
    <path class="cls-5" d="M240.39,123.04s.02-.02.03-.04"/>
    <line class="cls-5" x1="217.87" y1="260.8" x2="217.87" y2="260.8"/>
    <line class="cls-5" x1="464.98" y1="219.32" x2="466.22" y2="219.3"/>
    <path class="cls-5" d="M466.17,219.3s.03,0,.05,0"/>
    <path class="cls-5" d="M464.91,218.08c0,.12,0,.24.01.36"/>
    <path class="cls-5" d="M510.29,446.75c-4.24,2.84-8.65,5.26-13.31,7.35-4.65,2.08-9.41,3.76-14.3,5.17-4.89,1.41-9.83,2.52-14.83,3.45-5,.92-10.01,1.65-15.05,2.25-2.55.31-5.11.58-7.66.83-2.5.25-5,.47-7.5.67-2.55.21-5.11.4-7.67.58-2.5.18-5,.34-7.51.5-5.06.32-10.13.62-15.19.93-5.07.31-10.13.64-15.2.96"/>
    <path class="cls-5" d="M308.98,204.57l-2.03-.04"/>
    <path class="cls-5" d="M392.07,469.45c-.65.04-1.29.07-1.94.07"/>
    <path class="cls-5" d="M554.4,321.82s-.01-.03-.03-.04"/>
    <path class="cls-5" d="M477.48,207.52c0,.12-.14.22-.23.26-.11.06-.22.11-.33.15-.23.09-.46.15-.7.21"/>
    <path class="cls-5" d="M472.62,459.81c1.15.08,3.46-.4,4.54-.65,1.5-.34,2.97-.75,4.44-1.21,2.88-.91,5.82-2.07,8.5-3.48"/>
    <path class="cls-5" d="M304.95,204.73c0-.08,0-.16,0-.25"/>
    <path class="cls-5" d="M304.95,204.92v-.19"/>
    <line class="cls-5" x1="234.2" y1="459.83" x2="234.26" y2="460.01"/>
    <path class="cls-5" d="M255.33,208.35c-.03-13.2-.07-26.4-.09-39.61"/>
    <line class="cls-5" x1="372.85" y1="212.99" x2="372.85" y2="212.99"/>
    <path class="cls-5" d="M154.81,151.29s-.02,0-.03,0"/>
    <path class="cls-5" d="M219.35,464.22s0,0,0-.01"/>
    <path class="cls-5" d="M154.77,151.29s-.02,0-.03-.01"/>
    <path class="cls-5" d="M222.21,461.49s.01.05.02.08"/>
    <path class="cls-5" d="M166.77,153.32c-2-.03-3.97-.22-5.95-.55-1.97-.33-3.9-.8-5.8-1.41"/>
    <path class="cls-5" d="M234.26,460c-.04-.12-.11-.2-.2-.28"/>
    <path class="cls-5" d="M155.01,151.36s-.02,0-.03-.01"/>
    <path class="cls-5" d="M259.24,208.34c0,.06.02.09.06.14"/>
    <path class="cls-5" d="M214.54,247.88c.43-.02.85-.03,1.28-.03"/>
    <path class="cls-5" d="M209.26,247.77c.1,0,.21,0,.31,0"/>
    <path class="cls-5" d="M482.9,380.32c.06-.14.13-.28.19-.41"/>
    <path class="cls-5" d="M482.93,380.38c-1.26,2.7-2.57,5.37-3.93,8.03-1.36,2.65-2.77,5.27-4.23,7.87-2.92,5.2-6.03,10.28-9.34,15.24-1.65,2.48-3.36,4.93-5.11,7.34-1.75,2.41-3.55,4.78-5.41,7.11-1.86,2.33-3.76,4.62-5.72,6.87-1.96,2.24-3.97,4.44-6.04,6.58"/>
    <line class="cls-5" x1="210.73" y1="476.69" x2="193.25" y2="476.98"/>
    <path class="cls-5" d="M483.17,379.97s0,0,0,0c0,0,0,0-.01,0,0,0-.02,0-.02,0"/>
    <path class="cls-5" d="M236.44,247.99c2.17-.09,4.52-.28,6.66-.62.71-.11,1.41-.24,2.11-.41.39-.09.78-.2,1.16-.32.21-.07.43-.15.63-.24.08-.04.16-.08.24-.13.2-.13.39-.27.57-.42.44-.36.83-.76,1.21-1.18,1.45-1.6,2.74-3.64,3.74-5.53,1.05-1.99,1.9-4.03,2.61-6.16"/>
    <path class="cls-5" d="M215.82,247.9s0-.03,0-.04"/>
    <path class="cls-5" d="M231.13,248.05c1.77.02,3.54,0,5.32-.07"/>
    <path class="cls-5" d="M488.77,264.37c7.34,7.19,10.73,17.71,12.14,27.3.36,2.44.61,4.88.76,7.34.16,2.6.22,5.2.18,7.81-.07,5.08-.46,10.11-1.12,15.14-.32,2.48-.71,4.94-1.15,7.4-.45,2.53-.97,5.06-1.53,7.57-.55,2.44-1.15,4.87-1.8,7.3-.66,2.47-1.37,4.93-2.13,7.38-.74,2.41-1.53,4.8-2.36,7.18-.84,2.41-1.72,4.81-2.64,7.19-.91,2.35-1.86,4.69-2.85,7.01-1,2.34-2.03,4.67-3.1,6.98"/>
    <path class="cls-5" d="M61.51,50.69c.91-10.9,3.54-21.67,8.01-31.69C74.01,8.96,80.24-.11,88.18-7.76c3.97-3.83,8.23-7.17,12.87-10.15,4.63-2.98,9.44-5.49,14.49-7.68,5.04-2.19,10.19-4,15.41-5.67,2.52-.81,5.04-1.59,7.57-2.37,2.7-.84,5.4-1.68,8.11-2.46"/>
    <path class="cls-5" d="M222.23,461.57s-.1,0-.15,0"/>
    <path class="cls-5" d="M208,476.6c.91.07,1.82.1,2.73.08"/>
    <path class="cls-5" d="M63.22,58.05c0-1.33-.24-2.48-.66-3.72-.2-.6-.44-1.19-.66-1.78-.19-.54-.43-1.24-.38-1.85"/>
    <path class="cls-5" d="M371.69,215.18c-.12-.65-.24-1.3-.36-1.95"/>
    <line class="cls-5" x1="372.85" y1="212.99" x2="372.97" y2="215.06"/>
    <line class="cls-5" x1="467.28" y1="217.42" x2="466.32" y2="217.44"/>
    <line class="cls-5" x1="375.86" y1="222.99" x2="375.71" y2="223.07"/>
    <path class="cls-5" d="M168.24,153.31h0"/>
    <path class="cls-5" d="M220.89,91.13s0,0,0,.01"/>
    <path class="cls-5" d="M465.13,211.45c.77.25,1.33,1.13,1.63,1.77"/>
    <path class="cls-5" d="M193.71,34.07c-.05-19.74,4.69-39.66,14.67-56.88,2.49-4.31,5.27-8.37,8.39-12.24,3.13-3.88,6.51-7.44,10.23-10.75,1.87-1.66,3.79-3.23,5.8-4.71,1.98-1.47,4.02-2.84,6.12-4.12,2.13-1.3,4.3-2.49,6.54-3.58,2.22-1.08,4.48-2.06,6.79-2.92"/>
    <path class="cls-5" d="M220.86,91.07s0,0,0,.01"/>
    <path class="cls-5" d="M250.28,213.44c-.24.73-1.02,1.11-1.66,1.29-.69.2-1.46.25-2.17.24-1.43-.03-2.94-.35-4.29-.8"/>
    <path class="cls-5" d="M348.3,229.59c.05-.06.1-.12.14-.18"/>
    <path class="cls-5" d="M242.17,214.17c-1.28-.43-2.62-1.06-3.73-1.86-.55-.39-1.11-.88-1.52-1.43-.39-.52-.75-1.24-.53-1.94"/>
    <path class="cls-5" d="M209.18,3.15s0-.02-.01-.03"/>
    <path class="cls-5" d="M61.52,68.19c-.07-.83.07-1.76.23-2.56.17-.84.4-1.67.61-2.51.43-1.67.85-3.31.85-5.08"/>
    <path class="cls-5" d="M366.07,229.5c.06-.06.11-.12.17-.18"/>
    <path class="cls-5" d="M252.16-61.01c-9.32,3.6-17.78,8.94-25.17,15.63-7.39,6.68-13.56,14.58-18.46,23.22-9.85,17.35-14.44,37.38-14.22,57.16.21,19.83,5.24,39.68,14.76,57.13,9.47,17.36,23.5,32.47,41.2,41.89"/>
    <path class="cls-5" d="M245.53,209.55c-.13-.06-.26-.13-.38-.22-.06-.04-.11-.09-.16-.15-.04-.04-.1-.13-.08-.2"/>
    <line class="cls-5" x1="443.9" y1="204.91" x2="443.9" y2="205.49"/>
    <path class="cls-5" d="M245.12,208.51c-.48-.2-.98-.36-1.48-.5"/>
    <path class="cls-5" d="M248.22,128.44c-2.73-.75-5.1-2.44-6.68-4.78"/>
    <line class="cls-5" x1="288.46" y1="206.08" x2="288.46" y2="205.51"/>
    <path class="cls-5" d="M485.39,257.84c2.18.28,4.35.59,6.51.96,2.17.37,4.32.79,6.46,1.27,4.3.96,8.5,2.16,12.64,3.69,8.31,3.07,15.92,7.33,22.56,13.28"/>
    <line class="cls-5" x1="245.11" y1="218.4" x2="238.76" y2="237.97"/>
    <path class="cls-5" d="M482.93,380.33c.06-.14.13-.28.19-.41"/>
    <path class="cls-5" d="M242.93,119.02c.09-.02.18-.04.27-.06"/>
    <line class="cls-5" x1="246.8" y1="211" x2="247.35" y2="210.56"/>
    <path class="cls-5" d="M254.79,157.58c-6.34.03-12.67-.09-19-.33-3.17-.12-6.33-.27-9.49-.45-3.16-.18-6.32-.39-9.48-.61-3.16-.23-6.32-.48-9.47-.73-3.16-.26-6.31-.52-9.47-.77-3.16-.25-6.31-.5-9.47-.71-2.01-.13-4.01-.26-6.02-.36-1.16-.06-2.31-.11-3.47-.13"/>
    <path class="cls-5" d="M463.53,214.53c.01.24.02.49.04.73"/>
    <path class="cls-5" d="M209.26,247.78h0"/>
    <line class="cls-5" x1="242.63" y1="210.99" x2="243.64" y2="208.01"/>
    <path class="cls-5" d="M256.57,208.96c-.23-.06-.46-.12-.69-.2-.11-.04-.22-.09-.33-.15-.08-.05-.22-.14-.22-.26"/>
    <path class="cls-5" d="M473.45,207.68s.06-.08.06-.14"/>
    <line class="cls-5" x1="250.28" y1="213.44" x2="249.17" y2="216.87"/>
    <path class="cls-5" d="M250.41,134.48c-4.5-2.34-8.73-5.02-12.78-8.06-4.05-3.04-7.81-6.36-11.35-9.98-3.54-3.62-6.77-7.45-9.76-11.53-2.99-4.08-5.67-8.33-8.1-12.77-2.42-4.44-4.53-9-6.36-13.72-1.83-4.71-3.36-9.5-4.59-14.4-2.47-9.78-3.74-19.86-3.76-29.95"/>
    <path class="cls-5" d="M231.35,235.56c-.12.38.06.76.27,1.05.23.31.5.55.8.77.59.43,1.31.77,2,1"/>
    <line class="cls-5" x1="231.35" y1="235.56" x2="237.67" y2="215.99"/>
    <path class="cls-5" d="M463.76,214.41c-.01-.2-.03-.39-.05-.59"/>
    <path class="cls-5" d="M377.37,229.3c.05.06.1.13.15.19"/>
    <line class="cls-5" x1="463.91" y1="222.51" x2="463.91" y2="223.19"/>
    <line class="cls-5" x1="463.84" y1="213.41" x2="463.84" y2="214.1"/>
    <path class="cls-5" d="M209.19,3.05s0,.02.01.03"/>
    <path class="cls-5" d="M166.58,309.29c1.41,4.92,6.24,9.08,11.31,9.77,2.57.35,5.37-.21,7.19-2.3,1.82-2.09,1.98-4.95,1.26-7.44"/>
    <path class="cls-5" d="M160.56,299.47c2.14-2.55,5.24-3.8,8.46-4.02,3.21-.22,6.46.58,9.33,1.92,2.89,1.36,5.53,3.35,7.67,5.72,2.13,2.36,3.84,5.21,4.73,8.29"/>
    <path class="cls-5" d="M236.39,208.94c.18-.57.69-.92,1.19-1.13.51-.22,1.1-.32,1.65-.37"/>
    <line class="cls-5" x1="235.28" y1="212.37" x2="236.39" y2="208.94"/>
    <path class="cls-5" d="M464.92,218.44c0,.16,0,.31,0,.46"/>
    <line class="cls-5" x1="477.49" y1="208.76" x2="477.43" y2="232.2"/>
    <path class="cls-5" d="M477.43,232.2c0-.06-.05-.1-.09-.13-.09-.06-.19-.1-.29-.13-.16-.06-.32-.1-.49-.13-.23-.05-.46-.09-.69-.13-.56-.09-1.12-.17-1.69-.23-1.13-.13-2.26-.23-3.39-.31-2.27-.17-4.53-.3-6.81-.42"/>
    <path class="cls-5" d="M465.94,210.88c-.1,0-.19.05-.27.1-.2.11-.35.26-.5.43-.21.24-.39.51-.55.79-.32.56-.55,1.15-.73,1.77-.36,1.2-.55,2.53-.58,3.78"/>
    <path class="cls-5" d="M463.3,217.75c-.04,1.47.13,3.03.51,4.44.2.73.45,1.42.8,2.09.18.33.37.65.61.94.17.2.36.4.59.54.06.04.12.07.19.09.04.01.07.02.11.02"/>
    <line class="cls-5" x1="467.87" y1="218.65" x2="464.95" y2="218.89"/>
    <path class="cls-5" d="M467.87,218.65c0-.5-.04-.99-.11-1.49"/>
    <path class="cls-5" d="M466.33,221.9c.12-.65.19-1.29.22-1.95"/>
    <path class="cls-5" d="M464.88,218.08c.4-.08.79-.17,1.18-.27"/>
    <path class="cls-5" d="M466.32,216.97c-.13-.66-.3-1.3-.51-1.94"/>
    <path class="cls-5" d="M467.87,218.65c-.13.11-.29.18-.45.25"/>
    <path class="cls-5" d="M466.22,219.3c.15,0,.23.15.27.26.05.13.06.26.05.39"/>
    <path class="cls-5" d="M467.28,217.42c-.12,0-.2-.21-.24-.28-.05-.12-.08-.24-.1-.37"/>
    <path class="cls-5" d="M466.77,213.22c1.56,3.23,1.65,6.98.24,10.28"/>
    <line class="cls-5" x1="373.66" y1="215.71" x2="373.92" y2="217.26"/>
    <path class="cls-5" d="M371.32,217.56c.42-.07.82.21.88.63"/>
    <path class="cls-5" d="M371.69,215.18c.06.31-.09.62-.37.78"/>
    <path class="cls-5" d="M373.72,217.95c-.05-.32.1-.63.38-.79"/>
    <path class="cls-5" d="M371.32,217.56c-.67.11-1.33.22-2,.34"/>
    <path class="cls-5" d="M372.85,212.98c.12.65.24,1.3.36,1.95"/>
    <path class="cls-5" d="M376.3,216.76c-.65.1-1.3.2-1.95.31"/>
    <path class="cls-5" d="M379.64,215.48c.51,3.03-.97,6.04-3.69,7.47"/>
    <path class="cls-5" d="M365.29,217.93c-.48-2.84.8-5.69,3.26-7.21"/>
    <path class="cls-5" d="M371.32,215.96c-.08.05-.17.08-.26.09"/>
    <path class="cls-5" d="M375.95,222.95c-2.04,1.07-4.47,1.09-6.53.08-2.06-1.02-3.52-2.96-3.9-5.23"/>
    <path class="cls-5" d="M375.71,223.07c-2.03,1.07-4.46,1.09-6.52.08-2.06-1.02-3.51-2.96-3.9-5.22"/>
    <path class="cls-5" d="M242.31,209.19c-.68-.15-1.36-.25-2.05-.3"/>
    <line class="cls-5" x1="244.55" y1="210.12" x2="244.91" y2="208.99"/>
    <line class="cls-5" x1="206.39" y1="247.81" x2="188.97" y2="247.8"/>
    <path class="cls-5" d="M248.87,210.56c.42.36.83.79,1.12,1.27.28.46.49,1.05.3,1.61"/>
    <path class="cls-5" d="M239.22,207.44c3.5-.3,6.98.83,9.64,3.12"/>
    <path class="cls-5" d="M211.21,468.12c3.36-2.86,6.34-6.16,8.98-9.67,3.09-4.1,5.78-8.56,8.11-13.12,4.33-8.46,7.62-17.64,10.09-26.78,4.93-18.23,7.01-37.96,6.79-56.77-.22-18.81-2.76-38.48-8.1-56.59-2.68-9.09-6.18-18.19-10.7-26.55-2.44-4.51-5.23-8.9-8.41-12.94-2.72-3.45-5.77-6.69-9.19-9.47"/>
    <path class="cls-5" d="M244.91,208.99s0,0,0,0"/>
    <path class="cls-5" d="M229.16,266.06c.67,0,1.31-.04,1.96-.19.32-.08.63-.17.93-.33.24-.12.61-.35.71-.66"/>
    <path class="cls-5" d="M217.87,260.8s0,.04,0,.06c.01.09.05.18.09.26.08.16.18.31.29.44.16.2.33.38.51.56.39.38.82.7,1.27,1.01.9.61,1.85,1.1,2.85,1.52,1.9.8,4.19,1.4,6.28,1.41"/>
    <path class="cls-5" d="M242.93,209.75s0,0,0,0"/>
    <path class="cls-5" d="M387.02,469.41c3.59-.23,7.18-.46,10.77-.68,3.59-.22,7.18-.44,10.77-.65,7.18-.43,14.36-.87,21.54-1.43,7.07-.55,14.44-1.26,21.46-2.27,6.93-1,14.38-2.41,21.07-4.56"/>
    <path class="cls-5" d="M234.42,238.38c.72.24,1.53.41,2.3.42.4,0,.78-.02,1.16-.14.35-.1.75-.31.88-.7"/>
    <path class="cls-5" d="M245.53,209.55c.63.29,1.24.63,1.82,1.01"/>
    <path class="cls-5" d="M554.37,321.78c-.02-.18-.09-.37-.23-.51"/>
    <path class="cls-5" d="M245.12,208.51c-.08.16-.14.32-.21.48"/>
    <path class="cls-5" d="M243.43,208.48c.07-.16.13-.32.21-.48"/>
    <path class="cls-5" d="M240.52,208.26c.69.05,1.37.15,2.05.3"/>
    <path class="cls-5" d="M550.27,304.41c.11.33.08.71-.05,1.03-.13.31-.37.62-.72.72"/>
    <path class="cls-5" d="M554.4,321.82c1.72,11.29,1.87,23.01.8,34.36-.27,2.85-.61,5.69-1.04,8.53-.43,2.85-.92,5.68-1.5,8.5-.58,2.82-1.23,5.63-1.96,8.41-.72,2.77-1.52,5.52-2.39,8.24-.88,2.76-1.84,5.49-2.89,8.2-1.02,2.66-2.12,5.28-3.3,7.88-1.21,2.66-2.49,5.27-3.87,7.84-1.34,2.49-2.75,4.93-4.25,7.33-1.57,2.49-3.22,4.92-4.98,7.28-1.68,2.25-3.45,4.42-5.32,6.51-3.82,4.26-8.09,8.19-12.81,11.45"/>
    <path class="cls-5" d="M242.49,210.95c.14-.4.29-.79.44-1.19"/>
    <path class="cls-5" d="M534.05,277.47c7.79,7.19,12.96,17.15,16.22,26.92"/>
    <path class="cls-5" d="M244.41,210.26c-.15.39-.29.79-.44,1.19"/>
    <path class="cls-5" d="M247.1,211.2c.09-.21.18-.42.25-.64"/>
    <path class="cls-5" d="M242.93,119.02c.31.28.61.56.92.83"/>
    <path class="cls-5" d="M243.43,208.48c-.03.07-.13.09-.19.1-.07.02-.15.02-.23.02-.15,0-.3-.02-.45-.05"/>
    <path class="cls-5" d="M240.82,122.92c-.08,0-.15.02-.23.04-.04,0-.07.02-.11.03-.02,0-.03.01-.05.02-.01,0-.03.01-.04.02,0,0,0,0,0,0,0,0,0,0,0,0"/>
    <path class="cls-5" d="M240.52,208.26c-.1.21-.18.42-.25.64"/>
    <path class="cls-5" d="M246.47,124.54c-.89-.43-1.79-.82-2.74-1.13-.8-.26-2.03-.59-2.9-.49"/>
    <line class="cls-5" x1="307.17" y1="229.98" x2="307.17" y2="230.14"/>
    <path class="cls-5" d="M334.18,229.55c-6.56.08-13.12.17-19.68.29-3.28.06-6.56.13-9.84.2s-6.56.15-9.84.24c-6.56.18-13.11.39-19.67.68-3.28.15-6.55.31-9.83.54-1.43.1-2.87.2-4.3.34-1.01.09-2.02.2-3.03.34-.35.05-.69.1-1.04.17-.24.05-.49.1-.73.17-.15.04-.29.09-.43.17-.05.03-.14.08-.14.16"/>
    <line class="cls-5" x1="255.66" y1="232.84" x2="255.33" y2="209.58"/>
    <line class="cls-5" x1="240.52" y1="208.26" x2="240.69" y2="208.93"/>
    <line class="cls-5" x1="366.87" y1="211.58" x2="366.97" y2="211.46"/>
    <path class="cls-5" d="M239.17,519.51s.07.06.08.1"/>
    <path class="cls-5" d="M241.59,518.86c-.16.09-.33.14-.51.17-.15.02-.38.03-.52-.07"/>
    <path class="cls-5" d="M236.9,520.27c.65-.05,1.28-.16,1.91-.32"/>
    <path class="cls-5" d="M239.58,518.15c.31.3.62.57.97.82"/>
    <line class="cls-5" x1="238.94" y1="518.41" x2="239.25" y2="519.61"/>
    <line class="cls-5" x1="244.74" y1="126.37" x2="244.46" y2="126.61"/>
    <path class="cls-5" d="M247.03,126.79c-.31,0-.71-.21-.9-.45"/>
    <path class="cls-5" d="M247.5,127.6c.04-.08.22-.08.28-.08"/>
    <line class="cls-5" x1="368.55" y1="210.72" x2="368.78" y2="210.57"/>
    <path class="cls-5" d="M374.09,215.56c.65-.1,1.3-.21,1.95-.31"/>
    <path class="cls-5" d="M511.48,445.93c-.2.14-.4.28-.6.41"/>
    <path class="cls-5" d="M534.04,277.47c.16.15.33.3.49.45"/>
    <line class="cls-5" x1="373.86" y1="215.69" x2="376.04" y2="215.25"/>
    <path class="cls-5" d="M372.85,212.98c-.51.07-1.01.15-1.51.25"/>
    <line class="cls-5" x1="371.29" y1="215.98" x2="371.07" y2="216.11"/>
    <path class="cls-5" d="M376.17,216.78h0"/>
    <path class="cls-5" d="M373.98,217.24s-.04.01-.06.02"/>
    <path class="cls-5" d="M79.58,363.65c0-1.01-.02-2.01-.05-3.02"/>
    <path class="cls-5" d="M21.97,404.8c-.52,2.08-.5,4.62.02,6.69.25.99.7,2.24,1.46,3.01.99,1.01,2.05.74,2.85-.33"/>
    <path class="cls-5" d="M23.27,323.01c.96,1.18,2.11,1.1,3.02-.09"/>
    <path class="cls-5" d="M69.58,320.35c.39-1.53.48-3.25.33-4.82-.14-1.45-.56-3.34-1.48-4.57"/>
    <path class="cls-5" d="M79.64,362.84c-.14-1.9-.66-4.41-1.88-6.01"/>
    <line class="cls-5" x1="371.69" y1="215.46" x2="373" y2="215.25"/>
    <line class="cls-5" x1="143.09" y1="315.01" x2="143.43" y2="315.01"/>
    <path class="cls-5" d="M149.12,313.85c-.02-.1-.04-.2-.07-.29"/>
    <path class="cls-5" d="M149.04,313.56l2,.44"/>
    <path class="cls-5" d="M152.04,318.69c-.31-1.57-.65-3.13-1-4.68"/>
    <path class="cls-5" d="M152.05,318.68c-.61.13-1.21.27-1.82.4"/>
    <path class="cls-5" d="M150.23,319.08c-.02-.08-.03-.17-.05-.25"/>
    <path class="cls-5" d="M150.16,318.84c.3-.13.75-.32,1.02-.5"/>
    <path class="cls-5" d="M143.98,317.62c-.03-.15-.06-.3-.09-.45"/>
    <line class="cls-5" x1="143.99" y1="317.61" x2="143.66" y2="317.61"/>
    <path class="cls-5" d="M143.66,317.61c-.18-.87-.36-1.74-.55-2.61"/>
    <path class="cls-5" d="M149.86,311.93s.09,0,.13-.01c.04-.01.08-.03.11-.06"/>
    <path class="cls-5" d="M150.14,311.5c-.03-.13-.06-.26-.09-.39"/>
    <line class="cls-5" x1="150.85" y1="313.11" x2="150.51" y2="313.11"/>
    <path class="cls-5" d="M142.49,312.27c-.03-.12-.05-.23-.08-.35"/>
    <path class="cls-5" d="M142.41,311.93c2.04-1.19,4.08-2.37,6.13-3.55"/>
    <line class="cls-5" x1="142.05" y1="309.08" x2="141.72" y2="309.08"/>
    <path class="cls-5" d="M148.88,307.94c.08,0,.18,0,.24-.08"/>
    <path class="cls-5" d="M149.14,307.51c-.02-.09-.05-.19-.08-.28"/>
    <path class="cls-5" d="M149.76,308.66c-.12-.47-.24-.95-.37-1.42"/>
    <path class="cls-5" d="M149.77,308.65c-1.83,1.06-3.65,2.12-5.48,3.18"/>
    <path class="cls-5" d="M144.31,311.93s-.01-.06-.02-.1"/>
    <line class="cls-5" x1="149.07" y1="305.98" x2="148.73" y2="305.98"/>
    <line class="cls-5" x1="141.24" y1="305.96" x2="140.9" y2="305.96"/>
    <path class="cls-5" d="M140.9,305.96c-.34-1.26-.69-2.51-1.06-3.76"/>
    <path class="cls-5" d="M147.98,303.28c-.1-.35-.2-.71-.31-1.06"/>
    <path class="cls-5" d="M138.62,298.2c-.07-.25-.11-.43-.08-.7.03-.25.11-.45.26-.65"/>
    <path class="cls-5" d="M143.33,299.88c.55,0,1.1-.02,1.65-.12.27-.05.54-.11.8-.2.25-.09.52-.21.68-.44"/>
    <line class="cls-5" x1="136.87" y1="292.09" x2="136.53" y2="292.09"/>
    <line class="cls-5" x1="135.75" y1="290.05" x2="136.09" y2="290.05"/>
    <path class="cls-5" d="M143.45,290.74c.08,0,.2,0,.26-.09"/>
    <path class="cls-5" d="M143.68,290.36c-.03-.08-.06-.17-.1-.25"/>
    <line class="cls-5" x1="143.58" y1="290.13" x2="143.91" y2="290.13"/>
    <path class="cls-5" d="M143.27,294.19c.39,0,.98-.04,1.24-.44"/>
    <path class="cls-5" d="M140.81,292.51c-.13-.36-.26-.72-.4-1.09"/>
    <path class="cls-5" d="M137.15,248.35c2.39-.26,4.79-.55,7.18-.81,2.01-.22,5.16-.54,7.2-.52"/>
    <path class="cls-5" d="M113.67,246.54c2.68.03,6.2.34,8.86.58,2.95.27,5.9.56,8.85.8"/>
    <path class="cls-5" d="M174.58,325c3.6,1.99,7.73,3.19,11.93,2.84,2.07-.17,4.09-.71,5.96-1.64,1.87-.93,3.52-2.21,4.88-3.78"/>
    <line class="cls-5" x1="371.23" y1="217.58" x2="370.99" y2="216.15"/>
    <path class="cls-5" d="M160.26,290.76c-2.28,2.73-2.72,6.38-2.4,9.68.33,3.36,1.48,6.76,2.97,9.75,2.95,5.94,7.84,11.54,13.74,14.8"/>
    <path class="cls-5" d="M374.1,217.16c.08-.05.16-.07.25-.09"/>
    <path class="cls-5" d="M153.02,478.36c-1.68.05-6.06-.54-7.7-.76"/>
    <path class="cls-5" d="M373.84,217.3c-.22.13-.37.35-.39.61"/>
    <path class="cls-5" d="M158.63,293.57c3.02-2.05,6.65-2.84,10.21-2.75,3.58.09,7.14,1.07,10.35,2.59"/>
    <path class="cls-5" d="M79.48,367.84c.07-1.4.1-2.79.1-4.19"/>
    <path class="cls-5" d="M76.28,372.12c.83,0,1.5-.61,1.94-1.21"/>
    <path class="cls-5" d="M56.28,400.65c3.69-5.01,5.98-11.79,7.3-17.7,1.38-6.21,2.01-12.79,2.01-19.14"/>
    <path class="cls-5" d="M26.56,413.82c-.33.44-.82.89-1.44.9"/>
    <path class="cls-5" d="M26.3,414.18c.52-.7.86-1.63,1.06-2.45"/>
    <path class="cls-5" d="M26.56,322.57c-.34.44-.83.88-1.45.88"/>
    <path class="cls-5" d="M26.29,322.92c.61-.79.98-1.89,1.2-2.84.23-1.02.33-2.03.33-3.08s-.09-2.06-.32-3.08c-.21-.94-.58-2.05-1.19-2.84"/>
    <path class="cls-5" d="M68.7,322.62c-.37.49-.91.97-1.59.97"/>
    <path class="cls-5" d="M68.43,322.98c.57-.75.93-1.74,1.16-2.63"/>
    <line class="cls-5" x1="68.36" y1="404.8" x2="68.6" y2="405.1"/>
    <path class="cls-5" d="M68.78,416.45c-.36.49-.89.99-1.58,1"/>
    <path class="cls-5" d="M77.88,371.37c.85-1.15,1.32-2.75,1.56-4.11.25-1.44.32-2.96.2-4.41"/>
    <path class="cls-5" d="M77.76,356.83c-.34-.45-.78-.88-1.32-1.1-.57-.24-1.14-.2-1.68.08-1.01.53-1.67,1.76-2.05,2.72-.82,2.08-1.04,4.66-.87,6.85"/>
    <path class="cls-5" d="M78.1,357.28c-.45-.59-1.12-1.19-1.96-1.18"/>
    <line class="cls-5" x1="59.99" y1="445.55" x2="49.53" y2="445.78"/>
    <line class="cls-5" x1="48.31" y1="280.91" x2="58.73" y2="280.98"/>
    <path class="cls-5" d="M143.97,316.77c-.11.09-.1.27-.07.38"/>
    <path class="cls-5" d="M142,308.34c-.09.1-.07.24-.04.35"/>
    <path class="cls-5" d="M139.07,297.41c-.09.12-.13.24-.15.39-.02.14,0,.28.05.41"/>
    <path class="cls-5" d="M136.76,291.51c-.06.09-.03.2,0,.29"/>
    <path class="cls-5" d="M144.86,294.34c-.14.21-.34.36-.57.46-.24.1-.48.12-.72.12"/>
    <path class="cls-5" d="M371.07,216.11s.08-.05.12-.08"/>
    <path class="cls-5" d="M24.94,401.79c.62,0,1.12.42,1.47.86"/>
    <path class="cls-5" d="M66.99,404.15c.66,0,1.2.44,1.57.9"/>
    <path class="cls-5" d="M67.11,310.35c.68,0,1.22.49,1.59.97"/>
    <path class="cls-5" d="M25.12,310.56c.57,0,1.05.38,1.38.78"/>
    <path class="cls-5" d="M373.72,217.95c.11.66.21,1.32.31,1.98"/>
    <path class="cls-5" d="M369.07,216.39c.66-.11,1.33-.23,2-.34"/>
    <path class="cls-5" d="M372.51,220.18c-.1-.66-.2-1.32-.31-1.98"/>
    <line class="cls-5" x1="373.48" y1="218.08" x2="374.03" y2="219.93"/>
    <path class="cls-5" d="M372.51,220.18c.51-.07,1.01-.15,1.51-.25"/>
    <path class="cls-5" d="M373.48,218.08c-.02-.06-.02-.11-.03-.17"/>
    <path class="cls-5" d="M376.3,216.76c-.07-.51-.15-1.01-.26-1.51"/>
    <line class="cls-5" x1="376.3" y1="216.76" x2="376.17" y2="216.78"/>
    <path class="cls-5" d="M374.09,215.56c-.42.07-.81-.22-.88-.63"/>
    <path class="cls-5" d="M373.86,215.69c-.07.01-.13.02-.2.02"/>
    <path class="cls-5" d="M372.97,215.06c0,.06.01.12.03.18"/>
    <path class="cls-5" d="M370.83,216.19c.05,0,.1-.02.15-.04"/>
    <path class="cls-5" d="M369.07,216.39c.07.51.16,1.01.26,1.51"/>
    <line class="cls-5" x1="369.07" y1="216.39" x2="370.83" y2="216.19"/>
    <line class="cls-5" x1="373.46" y1="217.91" x2="372.19" y2="218.12"/>
    <path class="cls-5" d="M373.92,217.26s-.03.02-.05.02"/>
    <path class="cls-5" d="M373,215.25c.11.27.37.44.65.46"/>
    <path class="cls-5" d="M370.99,216.15s.06-.03.09-.04"/>
    <path class="cls-5" d="M467.77,217.29c0,.06,0,.12.02.18"/>
    <line class="cls-5" x1="466.41" y1="221.39" x2="466.95" y2="221.7"/>
    <path class="cls-5" d="M467.01,223.5c-.28.67-.83,1.64-1.65,1.87"/>
    <path class="cls-5" d="M467.17,219.75c-.02.66-.09,1.3-.22,1.95"/>
    <path class="cls-5" d="M429.06,204.3c8.12.18,16.24.4,24.35.75,4.06.17,8.11.38,12.16.66,2.03.14,4.05.3,6.07.52.85.09,1.7.19,2.55.31.61.09,1.22.19,1.83.32.36.08.76.17,1.1.33.1.04.19.09.28.17.05.04.09.1.09.17"/>
    <path class="cls-5" d="M426.76,204.44c-26.54-.57-57.39-.6-83.93-.28-13.63.17-28.32.45-41.94.89-6.99.23-13.97.5-20.96.88-3.03.17-6.06.35-9.08.58-2.18.17-4.35.35-6.52.61-.75.09-1.5.19-2.25.31-.53.09-1.06.18-1.58.31-.31.08-.65.17-.93.31-.08.04-.16.08-.23.15-.04.04-.08.08-.08.15"/>
    <path class="cls-5" d="M467.31,217.42c.16-.07.31-.14.45-.25"/>
    <path class="cls-5" d="M466.43,214.84c.22.63.39,1.28.51,1.94"/>
    <path class="cls-5" d="M466.17,219.3c-.39.1-.78.19-1.18.27"/>
    <path class="cls-5" d="M466.33,221.9c.22-.05.42-.11.62-.2"/>
    <path class="cls-5" d="M467.31,217.42s-.02,0-.03,0"/>
    <path class="cls-5" d="M255.33,208.35c0-.07.04-.12.08-.16.08-.07.16-.12.25-.16.32-.15.69-.24,1.02-.32.56-.13,1.13-.24,1.7-.33.79-.13,1.59-.23,2.38-.32,2.24-.27,4.49-.46,6.74-.63,3.08-.24,6.17-.43,9.26-.59,7.24-.39,14.49-.68,21.75-.91,14.13-.46,29.37-.75,43.5-.92,3.6-.04,7.21-.08,10.81-.11,3.65-.03,7.3-.05,10.95-.07,7.26-.03,14.51-.04,21.77-.02,3.68,0,7.36.03,11.04.05,3.57.02,7.14.06,10.72.09,7.25.08,14.5.19,21.75.35"/>
    <path class="cls-5" d="M466.43,214.84c-.21.06-.42.13-.62.2"/>
    <line class="cls-5" x1="466.43" y1="214.84" x2="465.87" y2="215.22"/>
    <line class="cls-5" x1="185.29" y1="317.34" x2="185.11" y2="317.53"/>
    <path class="cls-5" d="M244.24,120.46c-2.44-2.14-4.76-4.38-6.98-6.75-2.26-2.4-4.39-4.89-6.42-7.48-2-2.56-3.88-5.19-5.65-7.92-1.79-2.76-3.46-5.58-5.01-8.48-1.53-2.87-2.94-5.79-4.24-8.78-1.31-3.01-2.48-6.07-3.54-9.17-1.05-3.09-1.98-6.21-2.78-9.37-.81-3.17-1.49-6.36-2.04-9.58-.56-3.22-.98-6.46-1.29-9.71-.3-3.25-.48-6.5-.52-9.76-.05-3.28.04-6.55.25-9.82.21-3.25.56-6.48,1.03-9.7.48-3.25,1.09-6.47,1.84-9.67.74-3.16,1.61-6.28,2.62-9.37,1.02-3.13,2.18-6.2,3.48-9.22,1.28-2.98,2.69-5.89,4.24-8.74"/>
    <path class="cls-5" d="M473.51,207.55c0-.07-.04-.11-.09-.16-.08-.07-.17-.11-.26-.16-.32-.15-.7-.24-1.04-.31-.58-.13-1.17-.23-1.76-.31-.83-.12-1.66-.22-2.49-.31-1.95-.21-3.9-.36-5.86-.5-3.91-.27-7.83-.47-11.74-.64-7.83-.34-15.67-.55-23.51-.72"/>
    <path class="cls-5" d="M167.16,301.89c-1.83,2.18-1.99,5.1-1.26,7.66"/>
    <line class="cls-5" x1="166.99" y1="302.1" x2="167.16" y2="301.89"/>
    <path class="cls-5" d="M165.9,309.56c1.13,3.95,4.31,7.31,7.94,9.04,1.84.88,3.92,1.4,5.99,1.27,2.06-.12,4.07-.91,5.46-2.53"/>
    <path class="cls-5" d="M154.81,151.29l.23.07"/>
    <path class="cls-5" d="M101.4,50.28c0-2.35.05-4.69.17-7.03.11-2.3.27-4.59.5-6.89.23-2.33.51-4.66.85-6.97.34-2.28.74-4.55,1.2-6.81.93-4.57,2.1-9.04,3.56-13.47,1.46-4.43,3.18-8.72,5.23-12.91,1.05-2.15,2.19-4.24,3.42-6.3,1.16-1.94,2.4-3.83,3.73-5.66,1.4-1.93,2.89-3.78,4.48-5.55,1.52-1.69,3.12-3.28,4.82-4.79,1.8-1.58,3.67-3.03,5.67-4.35,1.9-1.25,3.86-2.35,5.92-3.31,2.15-.99,4.34-1.79,6.63-2.4,2.23-.59,4.47-.98,6.77-1.17"/>
    <path class="cls-5" d="M155.04,151.37s-.02,0-.03,0"/>
    <path class="cls-5" d="M178.77,153.47c-2-.04-4-.07-6-.09-2-.02-4-.03-6-.06"/>
    <path class="cls-5" d="M463.9,213.23c.04.1.09.2.13.3"/>
    <line class="cls-5" x1="188.74" y1="323.47" x2="188.4" y2="323.86"/>
    <path class="cls-5" d="M154.77,151.29c-9.69-3.14-18.03-9.52-24.71-16.88-6.75-7.45-12.17-16.27-16.32-25.35-1.04-2.26-2-4.55-2.9-6.87-.92-2.39-1.78-4.8-2.56-7.23-.77-2.38-1.46-4.78-2.1-7.19-.65-2.47-1.23-4.94-1.74-7.44-.51-2.46-.95-4.93-1.34-7.41-.39-2.5-.71-5.02-.97-7.54-.26-2.51-.45-5.03-.58-7.55-.13-2.52-.2-5.04-.2-7.56"/>
    <path class="cls-5" d="M101.36,50.27c0-2.01.04-4.02.12-6.03.08-1.99.2-3.98.37-5.97.17-2.01.38-4.01.63-6.01.25-1.98.54-3.94.88-5.91.34-2,.73-3.98,1.17-5.96.43-1.93.9-3.86,1.43-5.77.54-1.96,1.13-3.91,1.77-5.84.62-1.87,1.29-3.73,2.02-5.57,2.92-7.39,6.77-14.61,11.66-20.93,1.26-1.62,2.58-3.19,3.99-4.68,1.34-1.43,2.74-2.79,4.22-4.08,3.02-2.63,6.33-4.93,9.9-6.75"/>
    <path class="cls-5" d="M208.6,476.53c2.39-.07,4.78-.14,7.17-.21"/>
    <path class="cls-5" d="M214.54,247.88c4.99.06,9.98.13,14.97.19"/>
    <line class="cls-5" x1="160.23" y1="299.87" x2="160.56" y2="299.47"/>
    <path class="cls-5" d="M188.69,309.79c.47,1.6.65,3.31.41,4.98-.24,1.67-.9,3.24-2.02,4.53s-2.59,2.16-4.21,2.64c-1.62.47-3.33.54-4.98.31-6.48-.88-12.67-6.2-14.47-12.5"/>
    <path class="cls-5" d="M163.42,309.75c-.46-1.6-.63-3.3-.39-4.97.25-1.67.91-3.23,2.03-4.51,1.12-1.28,2.59-2.15,4.2-2.62,1.61-.47,3.32-.53,4.97-.31,6.46.88,12.63,6.17,14.45,12.44"/>
    <path class="cls-5" d="M186.34,309.32c-1.42-4.91-6.24-9.05-11.3-9.73-2.56-.35-5.35.21-7.17,2.29-1.82,2.08-1.99,4.93-1.28,7.41"/>
    <path class="cls-5" d="M185.11,317.53c-1.39,1.62-3.4,2.41-5.46,2.53-2.06.12-4.15-.4-5.99-1.27-3.62-1.72-6.81-5.09-7.93-9.04"/>
    <path class="cls-5" d="M501.77,307.41c-.11,6.26-.73,12.59-1.7,18.76-.49,3.11-1.07,6.19-1.74,9.27-.66,3.07-1.41,6.12-2.23,9.16-.82,3.04-1.71,6.05-2.67,9.05-.96,3-1.98,5.96-3.07,8.91-1.09,2.95-2.24,5.87-3.44,8.77-1.21,2.9-2.47,5.78-3.8,8.63"/>
    <path class="cls-5" d="M421.12,204.77c8.98.19,29.9.73,38.86,1.85"/>
    <path class="cls-5" d="M483.09,379.9s.03.02.04.03c0,0,.04.02.03.03"/>
    <path class="cls-5" d="M463.89,223.12c0-1.05,0-2.09-.01-3.14"/>
    <path class="cls-5" d="M463.67,219.72c0,.89,0,1.77,0,2.66"/>
    <path class="cls-5" d="M209.57,247.77c7.18.09,14.36.18,21.55.28"/>
    <path class="cls-5" d="M391.63,469.43c-14.94.95-29.88,1.76-44.83,2.48-14.95.72-29.89,1.34-44.85,1.89-29.92,1.12-59.84,1.98-89.76,2.85"/>
    <path class="cls-5" d="M209.57,247.77c5.37.07,10.44,1.62,15.1,4.18,5.49,3.02,10.22,7.31,14.23,12.02,3.49,4.1,6.53,8.63,9.18,13.3,3.01,5.31,5.59,10.94,7.77,16.64,4.11,10.7,7.01,22.06,8.94,33.33.96,5.64,1.69,11.29,2.2,16.99.52,5.79.81,11.58.88,17.4.07,5.82-.08,11.62-.46,17.43-.37,5.7-.96,11.37-1.79,17.03-.43,2.97-.94,5.93-1.51,8.88-.56,2.88-1.18,5.74-1.87,8.59-1.32,5.44-2.89,10.78-4.77,16.06-1.06,2.97-2.22,5.89-3.48,8.78-1.2,2.73-2.49,5.4-3.9,8.02-2.54,4.72-5.49,9.33-8.88,13.5-3.91,4.79-8.55,9.19-13.98,12.3-4.62,2.65-9.66,4.29-15.04,4.45"/>
    <path class="cls-5" d="M185.29,317.34c.9-1.05,1.43-2.34,1.62-3.7.19-1.36.04-2.75-.34-4.05"/>
    <path class="cls-5" d="M212.19,476.65c-1.2.03-2.39,0-3.59-.12"/>
    <path class="cls-5" d="M268.83,208.34c0-.06.03-.1.07-.13.06-.06.13-.1.21-.14.26-.13.57-.21.84-.28.48-.12.96-.2,1.44-.28.68-.11,1.36-.2,2.05-.28,1.97-.24,3.95-.41,5.93-.56,2.75-.21,5.51-.38,8.26-.53,6.35-.35,12.7-.59,19.06-.8,12.71-.41,25.42-.66,38.14-.81,24.13-.29,52.16-.27,76.3.25"/>
    <path class="cls-5" d="M190.75,311.38c.59,2.04.83,4.2.53,6.32-.3,2.13-1.13,4.12-2.54,5.76"/>
    <path class="cls-5" d="M271.82,231.12c3.68-.19,7.37-.34,11.05-.47,4.5-.16,9-.3,13.49-.42,8.19-.22,16.38-.38,24.57-.51,4.02-.06,8.04-.12,12.06-.17,2.07-.02,4.14-.05,6.22-.07,2.1-.02,4.21-.04,6.31-.06,2.03-.02,4.06-.03,6.1-.05,2.04-.01,4.09-.03,6.13-.04,4.12-.02,8.23-.04,12.35-.04,4.13,0,8.26,0,12.39,0,2.04,0,4.08,0,6.12.01,2.02,0,4.04.01,6.07.02,4.19.02,8.38.05,12.58.08,2.03.02,4.06.04,6.08.06,1.97.02,3.94.04,5.91.07,8.19.1,16.38.24,24.57.45,4.69.12,9.37.26,14.06.44,3.5.14,7,.29,10.5.52"/>
    <path class="cls-5" d="M186.4,309.79c.12.41.21.81.28,1.23"/>
    <path class="cls-5" d="M165.73,309.75c-.73-2.56-.57-5.49,1.26-7.66"/>
    <path class="cls-5" d="M482.98,380.38s0,0-.01,0,0,0-.01,0h-.02"/>
    <path class="cls-5" d="M106.25,12.82c.11-.04.21-.09.32-.13"/>
    <path class="cls-5" d="M119.17,119.18c-.15-.02-.31-.05-.46-.07"/>
    <path class="cls-5" d="M186.57,309.59c-1.14-3.94-4.34-7.3-7.97-9.02-1.84-.87-3.93-1.38-6-1.25-2.07.14-4.07.93-5.45,2.57"/>
    <path class="cls-5" d="M168.23,153.31c-1.68.05-3.35.08-5.03.09-1.33.01-2.66.02-3.99.03-3.41.01-6.82,0-10.22-.13-6.44-.23-12.78-.84-19.11-2.14-6.32-1.3-12.41-3.23-18.27-5.94-2.94-1.36-5.77-2.88-8.52-4.59-2.72-1.69-5.31-3.53-7.8-5.53-5.01-4.03-9.51-8.64-13.47-13.69-1.97-2.52-3.8-5.13-5.5-7.85-1.71-2.74-3.27-5.55-4.7-8.45-2.83-5.76-5.09-11.8-6.78-17.99s-2.8-12.54-3.34-18.93"/>
    <path class="cls-5" d="M76.14,356.1c-.94,0-1.66.77-2.11,1.45-.48.73-.81,1.61-1.04,2.45-.46,1.68-.58,3.57-.45,5.29"/>
    <path class="cls-5" d="M477.49,208.76c0-.07-.04-.12-.09-.16-.08-.07-.17-.12-.26-.16-.33-.15-.72-.24-1.07-.32-.61-.14-1.21-.23-1.83-.32-.86-.13-1.73-.23-2.59-.32-2.02-.21-4.04-.37-6.07-.51-4.05-.28-8.11-.48-12.16-.65-8.11-.35-16.23-.57-24.35-.74"/>
    <path class="cls-5" d="M464.88,218.08c.06.5.09.99.11,1.49"/>
    <path class="cls-5" d="M466.32,216.97c.03.16.04.31,0,.47-.03.13-.1.33-.26.37"/>
    <path class="cls-5" d="M467.79,217.47c.03.4.05.81.05,1.21"/>
    <line class="cls-5" x1="373.84" y1="217.3" x2="374.1" y2="217.16"/>
    <path class="cls-5" d="M244.41,210.26c.06-.16.27-.19.41-.19.17,0,.31.05.46.12"/>
    <path class="cls-5" d="M242.49,210.95c.5.15.99.31,1.48.5"/>
    <path class="cls-5" d="M242.31,209.19c.15.03.29.08.42.18.11.08.25.22.2.38"/>
    <path class="cls-5" d="M247.1,211.2c-.58-.38-1.19-.71-1.82-1.01"/>
    <path class="cls-5" d="M241.05,217.61c-1.28-.43-2.62-1.06-3.73-1.86-.55-.39-1.11-.88-1.52-1.43-.39-.52-.75-1.24-.52-1.94"/>
    <path class="cls-5" d="M249.17,216.87c-.24.73-1.01,1.11-1.66,1.29-.69.2-1.46.25-2.17.24-1.43-.03-2.94-.35-4.29-.8"/>
    <line class="cls-5" x1="187.03" y1="476.95" x2="208" y2="476.6"/>
    <line class="cls-5" x1="187.25" y1="247.74" x2="208.13" y2="247.76"/>
    <path class="cls-5" d="M210.73,476.69c5.2-.09,10.09-1.56,14.62-4.02,2.67-1.45,5.09-3.17,7.4-5.15,2.63-2.24,4.97-4.7,7.16-7.37,3.42-4.16,6.37-8.74,8.92-13.46,2.92-5.4,5.38-11.11,7.45-16.88,3.88-10.82,6.54-22.31,8.21-33.66,1.67-11.38,2.4-23.03,2.26-34.52-.14-11.49-1.15-23.11-3.09-34.45-1.93-11.29-4.86-22.71-8.98-33.43-2.2-5.72-4.8-11.38-7.84-16.71-2.66-4.67-5.71-9.19-9.22-13.27-2.25-2.62-4.65-5.03-7.32-7.23-2.35-1.93-4.8-3.6-7.5-5.01-4.56-2.38-9.48-3.77-14.67-3.77"/>
    <path class="cls-5" d="M234.06,459.72c-.2-.19-.43-.3-.69-.4-.4-.16-.8-.25-1.22-.31-.69-.09-1.37-.1-2.06-.05-1.36.09-2.74.4-4.04.82-1.28.41-2.6.99-3.76,1.68-.59.35-1.16.73-1.69,1.18-.22.19-.44.38-.63.6-.15.16-.29.33-.41.52-.07.11-.14.23-.18.36-.01.03-.02.06-.02.09,0,0,0,.02,0,.02,0,0,0,0,0,0"/>
    <path class="cls-5" d="M549.2,306.12c-1.29.53-2.36,1.6-3.14,2.69-.81,1.13-1.43,2.42-1.87,3.73"/>
    <path class="cls-5" d="M554.35,321.9s.05-.04.05-.08"/>
    <path class="cls-5" d="M547.99,306.05c-.97.02-2.01.3-2.89.68-.81.35-1.85.96-2.36,1.76-.19.3-.3.6-.3.96,0,.29.06.54.16.81.13.36.32.68.53,1,.54.79,1.29,1.58,1.98,2.23,1.32,1.26,3.13,2.72,4.54,3.87,1.54,1.26,3.06,2.53,4.49,3.92"/>
    <path class="cls-5" d="M221.4-26.52c-9.32,15.54-14.32,33.43-15.32,51.39-.25,4.52-.25,9.01,0,13.53.25,4.52.73,8.98,1.46,13.45,1.46,8.9,3.89,17.65,7.25,26.03"/>
    <path class="cls-5" d="M429.07,205.57c-27.52-.59-59.52-.62-87.05-.29-14.14.17-29.37.46-43.5.91-7.25.23-14.49.51-21.73.9-3.15.17-6.3.36-9.44.6-2.26.17-4.52.36-6.77.63-.78.09-1.56.2-2.34.32-.55.09-1.1.19-1.64.32-.31.08-.66.17-.96.31-.09.04-.17.09-.23.16-.04.04-.08.08-.08.15"/>
    <line class="cls-5" x1="429.1" y1="229.69" x2="429.07" y2="205.57"/>
    <path class="cls-5" d="M367.08,211.35c-.06.06-.11.12-.17.19"/>
    <path class="cls-5" d="M366.91,211.54c-2.21,2.49-2.54,6.12-.81,8.97,1.72,2.83,5.08,4.26,8.31,3.51"/>
    <path class="cls-5" d="M239.58,518.15c-.46.2-.92.38-1.39.54"/>
    <path class="cls-5" d="M241.59,518.86c.6-.32,1.17-.69,1.71-1.09"/>
    <path class="cls-5" d="M231.91,515.63c-.07-.26,0-.51.12-.74.17-.34.46-.63.75-.88.49-.42,1.04-.75,1.61-1.05,1.11-.58,2.39-1.04,3.59-1.38,1.24-.34,2.49-.58,3.78-.69,1.05-.09,2.77-.12,3.79.4"/>
    <line class="cls-5" x1="247.81" y1="127.46" x2="247.78" y2="127.52"/>
    <path class="cls-5" d="M243.72,125.88c.39.23.78.41,1.21.55"/>
    <path class="cls-5" d="M245.32,125.06c.24.45.5.87.81,1.27"/>
    <path class="cls-5" d="M247.84,127.52s-.04,0-.06,0"/>
    <path class="cls-5" d="M247.62,127.8c.15.1.3.2.45.29"/>
    <line class="cls-5" x1="245.61" y1="125.56" x2="245.18" y2="126.42"/>
    <path class="cls-5" d="M244.99,363.66c-.04-11.63-.96-23.41-2.81-34.9-1.84-11.42-4.67-23-8.69-33.88-3.94-10.66-9.42-21.71-16.75-30.6-1.98-2.4-4.08-4.64-6.39-6.71-2.06-1.84-4.21-3.5-6.57-4.96-2.63-1.63-5.43-2.95-8.4-3.84-2.65-.8-5.36-1.24-8.13-1.28"/>
    <path class="cls-5" d="M65.59,363.81c0-6.58-.67-13.42-2.14-19.85-1.39-6.1-3.82-13.16-7.73-18.3"/>
    <path class="cls-5" d="M27.36,411.72c.39-1.54.46-3.28.3-4.85-.15-1.44-.58-3.37-1.53-4.58"/>
    <path class="cls-5" d="M141.72,309.08c-.17-.65-.33-1.31-.5-1.96"/>
    <path class="cls-5" d="M149.76,308.66c-1.83,1.06-3.65,2.12-5.48,3.18"/>
    <path class="cls-5" d="M136.53,292.09c-.25-.69-.51-1.38-.77-2.06"/>
    <path class="cls-5" d="M131.38,247.93c3.27.27,6.86.5,10.15.54,1.69.02,3.38,0,5.08-.09.85-.04,1.69-.11,2.53-.2.59-.07,1.18-.15,1.76-.26.18-.03.35-.07.53-.12.05-.02.1-.03.15-.05.02,0,.03,0,.04-.01,0,0,0,0,.01,0,0,0,0,0,0,0"/>
    <path class="cls-5" d="M152.38,478.08s0,0,0,0c0,0-.01,0-.02,0-.03,0-.05-.01-.08-.02-.09-.02-.18-.03-.27-.05-.3-.05-.59-.09-.89-.12-.43-.05-.86-.08-1.29-.12-.86-.06-1.72-.1-2.58-.12-1.72-.04-3.44-.03-5.16.02"/>
    <path class="cls-5" d="M48.34,404.44c4.15-.06,7.43-3.09,9.63-6.07"/>
    <path class="cls-5" d="M57.43,327.91c-2.24-2.94-5.56-5.9-9.7-5.9"/>
    <line class="cls-5" x1="26.3" y1="311.08" x2="26.57" y2="311.44"/>
    <path class="cls-5" d="M68.52,416.81c.6-.83.97-1.94,1.17-2.91.22-1.04.3-2.08.29-3.15-.02-1.06-.13-2.1-.39-3.13-.24-.97-.64-2.07-1.27-2.88"/>
    <path class="cls-5" d="M49.53,445.78c-4.29.1-8.29-1.25-11.85-3.49-3.54-2.23-6.56-5.27-9.1-8.53-5.04-6.49-8.74-14.57-11.35-22.23-5.27-15.49-7.49-33.17-7.47-49.39"/>
    <path class="cls-5" d="M9.76,362.13c.02-15.73,2.15-32.88,7.25-47.9,2.52-7.44,6.1-15.27,11-21.56,2.47-3.17,5.4-6.11,8.83-8.28,3.46-2.18,7.32-3.51,11.48-3.48"/>
    <path class="cls-5" d="M189.75,477.3c5.82-.17,11.19-2.1,16.05-5.15,4.83-3.03,8.99-7.07,12.54-11.45,7.07-8.71,12.31-19.51,16.05-29.93,3.82-10.64,6.46-21.95,8.15-33.09,1.69-11.2,2.49-22.68,2.45-34.01"/>
    <path class="cls-5" d="M255.24,168.54c-.03-8.66-.79-17.43-2.65-25.91-.94-4.27-2.13-8.42-3.7-12.5-.78-2.04-1.64-4.03-2.61-5.98-.69-1.38-1.43-2.74-2.26-4.04-.25-.39-.5-.77-.76-1.15-.07-.1-.15-.2-.22-.31-.02-.03-.04-.05-.06-.08,0,0,0-.01-.02-.02,0,0,0,0,0,0"/>
    <path class="cls-5" d="M473.39-19.22c1.44,37.78,2.31,75.56,2.9,113.35.59,37.79.89,75.59,1.2,113.39"/>
    <path class="cls-5" d="M482.9,380.32s.03.02.04.03c0,0,.04.02.04.03"/>
    <path class="cls-5" d="M477.72,232.37c.59,2.82,1.24,5.62,1.96,8.41.72,2.79,1.52,5.55,2.42,8.29s1.88,5.44,3,8.09c.56,1.33,1.16,2.63,1.81,3.92.49.98,1.01,1.93,1.59,2.86.14.22.28.45.43.67l.11.15s.02.02.03.04c0,0,0,0,0,0,0,0,0,0,0,0"/>
    <path class="cls-5" d="M489.06,264.78c-.24-.3-.65-.73-.92-1-.32-.32-.66-.62-1.01-.91"/>
    <path class="cls-5" d="M255.37,232.97c.08-.25.43-.36.63-.42.42-.13.84-.21,1.27-.28.69-.11,1.38-.2,2.07-.28,1.38-.15,2.77-.27,4.16-.37,2.77-.21,5.55-.37,8.33-.5"/>
    <path class="cls-5" d="M468.38,230.95c1.6.1,3.19.22,4.78.37.8.08,1.59.16,2.38.28.39.06.79.12,1.18.21.22.05.43.1.64.2.15.07.32.17.36.36"/>
    <path class="cls-5" d="M482.98,380.38c-4.65,9.96-10.05,19.72-16.04,28.93-1.51,2.33-3.07,4.62-4.67,6.89-1.58,2.24-3.2,4.46-4.87,6.64-3.35,4.39-6.87,8.63-10.58,12.73-1.89,2.07-3.82,4.1-5.8,6.08-1.93,1.92-3.9,3.79-5.92,5.6-2.11,1.88-4.26,3.7-6.49,5.45-2.12,1.67-4.29,3.26-6.52,4.77-2.37,1.6-4.79,3.1-7.29,4.48-2.34,1.29-4.72,2.45-7.19,3.48-5.05,2.11-10.47,3.65-15.98,4"/>
  </g>
  <g id="_图层_3" data-name="图层 3">
    <g>
      <line class="cls-4" x1="228.89" y1="253.02" x2="230.87" y2="247.35"/>
      <line class="cls-6" x1="234.73" y1="236.25" x2="248.26" y2="197.4"/>
      <line class="cls-4" x1="250.19" y1="191.85" x2="252.16" y2="186.18"/>
      <polygon class="cls-1" points="237.72 253.46 224.88 264.54 221.7 247.89 237.72 253.46"/>
    </g>
    <g>
      <line class="cls-4" x1="228.99" y1="471.69" x2="230.43" y2="477.51"/>
      <line class="cls-3" x1="233.1" y1="488.26" x2="242.43" y2="525.88"/>
      <line class="cls-4" x1="243.76" y1="531.26" x2="245.21" y2="537.08"/>
      <polygon class="cls-1" points="221.36 476.14 226.05 459.84 237.82 472.06 221.36 476.14"/>
    </g>
  </g>
</svg>