<?xml version="1.0" encoding="UTF-8"?>
<svg xmlns="http://www.w3.org/2000/svg" viewBox="0 0 564.23 421.58">
  <defs>
    <style>
      .cls-1 {
        fill: red;
      }

      .cls-1, .cls-2, .cls-3 {
        stroke-width: 0px;
      }

      .cls-4 {
        fill: none;
        stroke: #000;
        stroke-linecap: round;
        stroke-linejoin: round;
      }

      .cls-2 {
        fill: #bfbfbf;
      }

      .cls-3 {
        fill: #fff;
      }
    </style>
  </defs>
  <g id="_图层_3" data-name="图层 3">
    <path class="cls-2" d="M297.97,268.82c-.02,5.93-.25,11.84-.7,17.75-.44,5.73-1.08,11.42-1.95,17.1-1.64,10.7-4.09,21.34-7.47,31.63-3.69,11.24-8.51,22.18-14.64,32.33-1.43,2.37-2.92,4.68-4.49,6.95-1.53,2.22-3.13,4.38-4.79,6.49-3.22,4.08-6.65,7.92-10.38,11.53-2.15,2.09-4.38,4.08-6.7,5.98-2.26,1.85-4.58,3.61-6.98,5.26-4.68,3.22-9.54,6-14.7,8.37-5.03,2.31-10.16,4.16-15.51,5.58-5.28,1.4-10.6,2.33-16.04,2.83-10.99,1.01-21.88.23-32.64-2.09-5.58-1.2-11-2.78-16.37-4.71-5.54-1.99-10.9-4.31-16.15-6.96-9.71-4.89-18.9-10.81-27.51-17.44-2.25-1.73-4.45-3.51-6.63-5.33-2.21-1.85-4.37-3.75-6.49-5.7-2.16-1.98-4.28-3.99-6.36-6.06-2.11-2.09-4.18-4.23-6.21-6.4-15.3-16.4-28.35-35.15-38.98-54.84-2.63-4.87-5.12-9.81-7.47-14.82-2.39-5.09-4.62-10.23-6.72-15.44-2.12-5.25-4.08-10.55-5.9-15.91-.92-2.7-1.79-5.41-2.63-8.13-.84-2.72-1.64-5.45-2.4-8.2-1.52-5.48-2.88-10.98-4.09-16.53-1.2-5.53-2.25-11.08-3.13-16.67-1.75-11.06-2.85-22.12-3.25-33.31M297.97,268.82c.02-5.72-.15-11.43-.5-17.14-.36-5.81-.9-11.6-1.62-17.38-.73-5.85-1.64-11.66-2.73-17.45-.55-2.91-1.14-5.82-1.77-8.71-.63-2.9-1.31-5.78-2.03-8.66-2.87-11.46-6.38-22.65-10.56-33.7-1.04-2.74-2.11-5.46-3.23-8.16-1.11-2.69-2.25-5.35-3.43-8.01-2.34-5.24-4.83-10.41-7.46-15.51-10.68-20.64-23.98-40.31-39.69-57.52-8.23-9.02-17.19-17.42-26.85-24.9-8.78-6.81-18.17-12.88-28.1-17.88-10.94-5.51-22.51-9.7-34.56-12.08-10.96-2.16-22.04-2.75-33.16-1.43-11.55,1.37-22.59,4.71-32.93,10.04-5.2,2.68-10.07,5.77-14.73,9.32-4.79,3.65-9.19,7.65-13.32,12.04-3.76,3.99-7.18,8.2-10.37,12.66-1.64,2.29-3.2,4.64-4.69,7.03-1.52,2.44-2.96,4.93-4.33,7.46-2.84,5.26-5.34,10.65-7.56,16.2-2.32,5.81-4.3,11.7-5.99,17.72-1.51,5.37-2.78,10.79-3.83,16.27-1.09,5.67-1.93,11.35-2.57,17.09-.32,2.93-.59,5.87-.8,8.81-.22,2.98-.37,5.96-.48,8.95-.21,6.08-.2,12.15.02,18.24"/>
  </g>
  <g id="_图层_5" data-name="图层 5">
    <path class="cls-3" d="M5.2,181.95c-.21-5.92-.22-11.83-.01-17.76.1-2.91.26-5.81.47-8.71.21-2.86.47-5.72.78-8.57.61-5.57,1.43-11.1,2.48-16.61,1.02-5.32,2.24-10.58,3.7-15.79,1.65-5.88,3.57-11.65,5.83-17.32,2.15-5.41,4.58-10.66,7.34-15.79,5.12-9.5,11.33-18.42,18.74-26.29,2.03-2.15,4.13-4.22,6.33-6.2,2.15-1.94,4.38-3.78,6.69-5.53,2.27-1.72,4.6-3.33,7.02-4.83,2.39-1.49,4.83-2.87,7.35-4.14,5.01-2.54,10.14-4.57,15.53-6.14,2.69-.79,5.4-1.45,8.14-1.98,2.77-.54,5.56-.96,8.37-1.25,10.78-1.12,21.48-.37,32.04,1.89,11.73,2.51,22.96,6.8,33.56,12.35,4.67,2.44,9.18,5.11,13.58,8,4.64,3.04,9.1,6.29,13.44,9.74,9.31,7.41,17.95,15.7,25.88,24.56,15.1,16.87,27.87,36.07,38.14,56.18,5.13,10.05,9.64,20.31,13.59,30.87,4.02,10.75,7.4,21.65,10.17,32.79.69,2.8,1.35,5.61,1.96,8.43.61,2.82,1.18,5.64,1.71,8.48,1.05,5.63,1.93,11.28,2.64,16.97.7,5.62,1.22,11.24,1.57,16.89.34,5.55.51,11.09.49,16.64-.02,5.77-.24,11.52-.67,17.28-.42,5.57-1.03,11.11-1.87,16.63-1.57,10.38-3.93,20.71-7.17,30.71-.94,2.88-1.94,5.73-3.03,8.55-1.06,2.75-2.19,5.46-3.4,8.15-2.31,5.13-4.89,10.1-7.79,14.93-2.73,4.55-5.71,8.89-9,13.06-3.11,3.94-6.43,7.64-10.03,11.14-2.1,2.03-4.27,3.97-6.54,5.82-2.2,1.8-4.47,3.49-6.82,5.09-4.56,3.11-9.29,5.77-14.32,8.02-4.9,2.2-9.89,3.93-15.1,5.24-5.16,1.29-10.33,2.12-15.63,2.52-10.64.81-21.16-.14-31.52-2.55-5.42-1.26-10.69-2.88-15.89-4.85-5.4-2.04-10.61-4.4-15.71-7.07-9.36-4.89-18.2-10.75-26.48-17.28-8.88-7-17.15-14.81-24.78-23.14-3.56-3.89-6.97-7.88-10.27-12-3.38-4.23-6.62-8.56-9.74-12.99-3.18-4.54-6.21-9.17-9.11-13.89-1.47-2.4-2.91-4.82-4.3-7.27-1.41-2.46-2.78-4.95-4.12-7.45-2.53-4.75-4.92-9.56-7.18-14.44-2.3-4.95-4.45-9.95-6.47-15.02-2.04-5.11-3.93-10.26-5.67-15.48-1.76-5.25-3.37-10.54-4.84-15.88-1.46-5.33-2.78-10.69-3.95-16.1-.58-2.69-1.12-5.39-1.63-8.1-.5-2.7-.97-5.41-1.39-8.12-1.68-10.75-2.74-21.51-3.13-32.39Z"/>
  </g>
  <g id="Make2D::可见线::正切线">
    <path class="cls-4" d="M225.97,265.25c5.55-.49,11.1-.98,16.66-1.48,5.55-.49,11.1-.99,16.66-1.48,11.1-.99,22.2-1.98,33.3-2.98"/>
    <path class="cls-4" d="M354.11,230.3c-3.52.2-7.03.57-10.53.98"/>
    <path class="cls-4" d="M293.51,269.36c.02-5.62-.15-11.22-.49-16.83-.35-5.71-.88-11.4-1.59-17.09-.72-5.79-1.62-11.55-2.69-17.29-1.08-5.77-2.33-11.5-3.74-17.19-2.81-11.29-6.25-22.32-10.35-33.22-4.04-10.73-8.64-21.15-13.87-31.35-10.47-20.39-23.49-39.84-38.89-56.89-2.09-2.31-4.22-4.58-6.4-6.81-2.13-2.18-4.31-4.31-6.53-6.39-2.18-2.04-4.39-4.04-6.66-5.99-2.22-1.91-4.48-3.77-6.78-5.58-2.25-1.77-4.53-3.48-6.86-5.15-2.26-1.61-4.55-3.18-6.88-4.68-4.48-2.9-9.07-5.57-13.82-8.01-10.77-5.54-22.17-9.79-34.07-12.25-10.76-2.22-21.65-2.9-32.61-1.69-23.65,2.62-44.09,13.6-60.23,30.76-3.69,3.92-7.05,8.05-10.17,12.43-1.6,2.25-3.12,4.54-4.58,6.88-1.49,2.4-2.91,4.84-4.25,7.33-2.82,5.22-5.28,10.56-7.48,16.06-1.14,2.85-2.19,5.73-3.17,8.64-1,2.96-1.91,5.94-2.75,8.94-.73,2.6-1.4,5.21-2.01,7.84-.63,2.68-1.2,5.36-1.72,8.06-.53,2.75-1,5.52-1.42,8.29-.43,2.84-.79,5.68-1.11,8.53-.65,5.86-1.07,11.73-1.28,17.62-.21,6.04-.2,12.06.01,18.1"/>
    <path class="cls-4" d="M1.13,182.43c.4,11.04,1.48,21.94,3.19,32.85.87,5.51,1.89,10.99,3.08,16.44,1.19,5.49,2.53,10.94,4.03,16.35,2.98,10.8,6.54,21.35,10.7,31.76,2.06,5.15,4.26,10.24,6.6,15.27,2.31,4.95,4.74,9.83,7.32,14.64,2.7,5.05,5.55,10,8.56,14.88,2.95,4.79,6.04,9.48,9.28,14.08,6.24,8.85,13.05,17.35,20.4,25.31,1.99,2.15,4.01,4.27,6.09,6.34,2.04,2.05,4.12,4.05,6.24,6.01,4.17,3.86,8.47,7.53,12.94,11.02,8.43,6.58,17.43,12.47,26.95,17.37,10.14,5.22,20.93,9.32,32.08,11.83,10.56,2.37,21.26,3.25,32.07,2.34,2.68-.22,5.35-.56,8-1.01,2.66-.45,5.28-1,7.89-1.68,5.25-1.36,10.29-3.14,15.23-5.38,10.47-4.75,19.83-11.32,28.06-19.31,1.8-1.75,3.54-3.56,5.23-5.43,1.72-1.91,3.37-3.87,4.96-5.89,1.63-2.07,3.19-4.19,4.69-6.35,1.54-2.23,3.01-4.51,4.41-6.83,6.07-10.08,10.85-20.96,14.49-32.12,3.29-10.11,5.69-20.54,7.29-31.04,1.74-11.41,2.57-23,2.61-34.53"/>
    <path class="cls-4" d="M343.29,263.91c-.32-1.5-.47-3.14-.44-4.67.01-.79.07-1.56.21-2.34.12-.69.36-1.6.79-2.2"/>
    <path class="cls-4" d="M318.21.96c3.52-.11,7.02-.06,10.54.13,1.78.1,3.56.23,5.34.4,1.8.17,3.6.38,5.39.62,1.82.25,3.63.53,5.43.85,1.83.33,3.66.69,5.48,1.09,3.7.81,7.35,1.76,10.97,2.85,3.37,1.01,6.69,2.14,9.98,3.38,3.36,1.27,6.67,2.64,9.95,4.13,3.36,1.52,6.66,3.15,9.91,4.89,1.66.89,3.31,1.8,4.94,2.73,1.66.95,3.3,1.93,4.93,2.93,3.01,1.85,5.97,3.79,8.87,5.81,2.98,2.07,5.89,4.21,8.75,6.43,2.91,2.26,5.75,4.59,8.53,6.99,2.84,2.45,5.6,4.97,8.31,7.55,2.56,2.44,5.05,4.94,7.49,7.5,2.49,2.61,4.91,5.27,7.28,7.99,1.2,1.38,2.39,2.77,3.56,4.18,1.18,1.42,2.35,2.86,3.51,4.31,2.34,2.95,4.62,5.95,6.83,8.99,2.12,2.92,4.17,5.88,6.17,8.89,2.01,3.03,3.95,6.09,5.83,9.2,1.9,3.13,3.73,6.29,5.49,9.49,1.78,3.23,3.5,6.49,5.15,9.79,3.23,6.47,6.2,13.03,8.92,19.73,1.38,3.4,2.69,6.83,3.94,10.29.63,1.74,1.23,3.48,1.83,5.23s1.17,3.5,1.72,5.26c1.11,3.5,2.14,7.02,3.1,10.56.96,3.52,1.85,7.07,2.66,10.63,1.63,7.09,2.97,14.22,4.01,21.42.53,3.66.98,7.32,1.36,11,.37,3.68.67,7.35.87,11.04.21,3.61.33,7.22.38,10.84.04,3.57.01,7.14-.11,10.72"/>
    <path class="cls-4" d="M406.08,400.54c-2.85.49-5.7.86-8.58,1.14-2.89.28-5.79.45-8.69.52-5.81.14-11.56-.12-17.34-.76-5.77-.64-11.45-1.65-17.09-3-2.79-.67-5.56-1.42-8.32-2.26-2.79-.85-5.55-1.77-8.29-2.77-2.71-.99-5.39-2.05-8.04-3.19-2.67-1.14-5.31-2.35-7.92-3.63-2.59-1.27-5.14-2.6-7.66-3.99-2.55-1.4-5.06-2.87-7.54-4.4-4.94-3.04-9.71-6.28-14.37-9.75-2.3-1.71-4.57-3.47-6.8-5.28-2.27-1.84-4.5-3.72-6.69-5.65"/>
    <line class="cls-4" x1="396.37" y1="387.38" x2="379.6" y2="389.52"/>
    <path class="cls-4" d="M505.58,56.55c2.03,1.81,3.86,3.77,5.62,5.84.87,1.03,1.72,2.08,2.54,3.16.39.51.78,1.03,1.14,1.57.12.18.25.37.36.57.08.13.15.26.21.41.04.1.11.32-.04.37-.08.02-.14,0-.22,0-.12-.03-.22-.06-.33-.11-.23-.09-.45-.2-.67-.31-.28-.14-.56-.29-.84-.44-.69-.38-1.38-.78-2.07-1.17-1.17-.67-2.34-1.35-3.51-2.02-2.34-1.35-4.69-2.68-7.04-4.03"/>
    <path class="cls-4" d="M219.47,239.88c11.78-1.44,23.56-2.88,35.34-4.31,5.89-.72,11.78-1.43,17.67-2.14,5.89-.71,11.78-1.43,17.67-2.14"/>
    <path class="cls-4" d="M335.1,225.88c-.47-2.9-.9-5.81-1.3-8.72-.4-2.91-.77-5.82-1.1-8.74-.34-2.92-.64-5.84-.91-8.77-.28-2.92-.52-5.85-.74-8.78-.43-5.86-.76-11.73-.97-17.6-.1-2.94-.18-5.87-.22-8.81-.04-2.94-.06-5.87-.03-8.81"/>
    <path class="cls-4" d="M515.54,248.8c-.14,4.28-.4,8.55-.78,12.82-.19,2.09-.4,4.18-.65,6.27-.24,2.06-.51,4.12-.82,6.17-.62,4.23-1.37,8.43-2.26,12.62-.87,4.1-1.86,8.16-2.98,12.19-1.16,4.14-2.45,8.22-3.89,12.27-1.4,3.93-2.93,7.79-4.61,11.61-.87,1.98-1.78,3.95-2.73,5.9-.93,1.91-1.91,3.81-2.92,5.69-1.98,3.67-4.09,7.25-6.36,10.74-1.18,1.81-2.39,3.59-3.64,5.34-1.24,1.73-2.52,3.44-3.84,5.11-2.58,3.28-5.3,6.43-8.18,9.46-2.96,3.12-6.06,6.07-9.32,8.87-3.17,2.72-6.45,5.26-9.89,7.64-3.51,2.43-7.12,4.66-10.88,6.7-3.7,2.01-7.48,3.8-11.37,5.39-3.94,1.61-7.94,2.99-12.04,4.16-4.06,1.15-8.15,2.08-12.31,2.79"/>
    <path class="cls-4" d="M224.21,68.93c10.19-.72,20.38-1.44,30.57-2.15,10.19-.72,20.38-1.43,30.57-2.14,20.38-1.42,40.76-2.83,61.14-4.23"/>
    <path class="cls-4" d="M346.5,60.41c1.27-3.03,2.64-6.01,4.13-8.94,1.49-2.93,3.1-5.79,4.85-8.57s3.63-5.46,5.67-8.04,4.21-5.03,6.56-7.34"/>
    <path class="cls-4" d="M500.74,60.37c-2.33-1.34-5.22-3.02-7.46-4.5-1.14-.76-2.47-1.69-3.48-2.61-.42-.38-.81-.77-1.15-1.23-.23-.31-.46-.68-.53-1.07-.11-.55.12-.95.59-1.22.55-.31,1.3-.39,1.9-.4.81-.01,1.59.09,2.38.25,1.41.28,2.82.77,4.14,1.35,2.66,1.17,5.12,2.81,7.34,4.65"/>
    <path class="cls-4" d="M344.03,388.72c18.59,6.1,38.25,8.58,57.82,6.09,19.63-2.5,37.9-9.84,53.79-21.62"/>
    <path class="cls-4" d="M515.23,248.79c.16-4.87.16-9.73.02-14.59-.07-2.46-.18-4.92-.32-7.38-.15-2.51-.33-5.01-.56-7.51-.22-2.5-.48-4.99-.78-7.48-.3-2.49-.63-4.98-1-7.46-.74-4.98-1.62-9.93-2.64-14.86-1.01-4.85-2.14-9.67-3.41-14.46-1.28-4.83-2.69-9.6-4.22-14.35-.77-2.39-1.58-4.76-2.42-7.12-.83-2.36-1.7-4.7-2.6-7.03-.89-2.31-1.81-4.61-2.76-6.89-.95-2.27-1.92-4.53-2.93-6.78-2.07-4.62-4.26-9.17-6.58-13.66-2.29-4.44-4.7-8.81-7.23-13.11-2.51-4.26-5.13-8.45-7.86-12.56-1.36-2.04-2.74-4.06-4.16-6.06-1.41-1.99-2.85-3.97-4.31-5.92-3.12-4.15-6.36-8.2-9.73-12.15-1.65-1.93-3.32-3.83-5.02-5.7-1.68-1.85-3.39-3.67-5.13-5.46-1.71-1.77-3.46-3.51-5.23-5.22-1.75-1.69-3.52-3.35-5.32-4.98-1.78-1.61-3.58-3.2-5.42-4.75-1.81-1.54-3.65-3.04-5.51-4.52-2.07-1.64-4.17-3.24-6.31-4.8-2.1-1.54-4.24-3.04-6.4-4.49-4.21-2.83-8.51-5.49-12.94-7.97-2.14-1.2-4.3-2.36-6.49-3.47-2.15-1.09-4.32-2.14-6.51-3.14-4.29-1.96-8.63-3.73-13.07-5.31-4.91-1.75-9.89-3.24-14.95-4.48-2.48-.6-4.98-1.14-7.49-1.61-2.46-.46-4.94-.85-7.42-1.18-2.44-.32-4.88-.57-7.33-.75-2.41-.18-4.82-.29-7.24-.33-4.76-.08-9.49.1-14.22.57-2.5.25-4.99.57-7.48.97-2.48.4-4.93.88-7.38,1.44-2.44.56-4.85,1.19-7.25,1.91-2.38.71-4.73,1.49-7.05,2.35-4.64,1.71-9.12,3.7-13.5,5.99-4.41,2.3-8.63,4.87-12.72,7.71-1.98,1.37-3.9,2.8-5.79,4.29-1.9,1.5-3.76,3.05-5.57,4.66-3.67,3.26-7.11,6.7-10.39,10.35-1.66,1.85-3.26,3.74-4.81,5.68-1.57,1.96-3.09,3.97-4.56,6.01-1.49,2.08-2.93,4.2-4.31,6.36-1.41,2.2-2.76,4.44-4.05,6.71"/>
    <path class="cls-4" d="M278.75,357.53c2.75,2.41,5.56,4.76,8.43,7.03,2.81,2.23,5.68,4.37,8.6,6.45,2.87,2.04,5.79,3.99,8.77,5.87,2.93,1.85,5.91,3.62,8.94,5.3,3.17,1.76,6.38,3.42,9.65,4.98,3.24,1.55,6.53,2.99,9.86,4.33,3.29,1.32,6.61,2.52,9.99,3.62,3.31,1.07,6.64,2.03,10.01,2.87,3.49.87,6.99,1.61,10.54,2.21,3.51.59,7.03,1.05,10.57,1.36,3.53.32,7.06.49,10.61.51,3.54.02,7.07-.11,10.61-.39,7.05-.56,14.03-1.75,20.87-3.56,3.44-.91,6.82-1.98,10.16-3.21,1.68-.62,3.35-1.28,5.01-1.98,1.67-.7,3.32-1.45,4.95-2.23,3.14-1.5,6.19-3.14,9.18-4.92,3.02-1.8,5.95-3.72,8.8-5.78,2.9-2.09,5.7-4.31,8.41-6.66,1.37-1.19,2.72-2.41,4.05-3.66,1.34-1.27,2.65-2.57,3.94-3.89,2.39-2.46,4.67-5.01,6.86-7.65,2.25-2.71,4.39-5.5,6.42-8.37,2.08-2.94,4.04-5.94,5.9-9.02,1.91-3.16,3.69-6.37,5.37-9.66,1.55-3.05,3.01-6.13,4.37-9.27.69-1.6,1.36-3.22,2.01-4.84.65-1.65,1.28-3.3,1.89-4.97,1.23-3.4,2.36-6.83,3.4-10.3,1.05-3.53,1.99-7.08,2.83-10.66.79-3.36,1.5-6.74,2.11-10.14.63-3.46,1.17-6.93,1.62-10.42.46-3.56.84-7.13,1.13-10.7.15-1.82.27-3.64.37-5.46.1-1.84.18-3.68.25-5.52"/>
    <line class="cls-4" x1="496.37" y1="246.98" x2="497.17" y2="247.16"/>
    <path class="cls-4" d="M362.44,72.34c-2.57-.49-5.16-.83-7.76-1.1-2.6-.26-5.21-.43-7.82-.55"/>
    <path class="cls-4" d="M274.8,353.97c-1.76-1.62-3.49-3.27-5.2-4.95s-3.39-3.38-5.04-5.11c-3.31-3.46-6.51-7.02-9.61-10.67-3.1-3.65-6.09-7.39-8.97-11.21-1.44-1.91-2.86-3.84-4.24-5.79-1.39-1.95-2.75-3.92-4.08-5.91"/>
    <path class="cls-4" d="M215.76,64.65c1.33-2.29,2.73-4.55,4.19-6.77,1.43-2.18,2.91-4.31,4.45-6.41,1.57-2.13,3.2-4.22,4.89-6.26,1.66-2.01,3.38-3.97,5.17-5.88,1.8-1.93,3.65-3.8,5.57-5.62,1.9-1.8,3.85-3.55,5.86-5.23,2.03-1.7,4.11-3.33,6.25-4.9,2.11-1.55,4.26-3.02,6.46-4.42,4.45-2.83,9.04-5.34,13.83-7.55,2.39-1.1,4.8-2.11,7.25-3.05,2.46-.94,4.95-1.79,7.48-2.55,2.51-.76,5.05-1.44,7.61-2.03,2.57-.59,5.15-1.1,7.75-1.52,5.21-.84,10.42-1.33,15.69-1.49"/>
    <path class="cls-4" d="M455.97,352.92c-2.27-.41-4.51-.96-6.71-1.63-2.29-.7-4.52-1.52-6.72-2.46-2.26-.97-4.46-2.05-6.61-3.23-2.23-1.23-4.39-2.55-6.5-3.98-8.02-5.41-15.22-12.14-21.55-19.39-1.53-1.75-3.01-3.54-4.46-5.36-1.48-1.87-2.92-3.77-4.32-5.71-2.92-4.04-5.65-8.2-8.23-12.47-1.23-2.04-2.41-4.09-3.57-6.17-1.17-2.1-2.3-4.22-3.4-6.36-1.11-2.17-2.18-4.36-3.22-6.56-1.05-2.24-2.07-4.49-3.06-6.76-.95-2.18-1.86-4.37-2.74-6.57-.89-2.24-1.76-4.49-2.59-6.76-1.69-4.6-3.25-9.25-4.68-13.94-1.41-4.61-2.69-9.25-3.87-13.93-1.18-4.73-2.24-9.48-3.18-14.26-.47-2.39-.91-4.78-1.32-7.17-.41-2.4-.79-4.81-1.14-7.22-.35-2.4-.67-4.79-.95-7.2-.29-2.39-.54-4.78-.77-7.18-.91-9.66-1.33-19.31-1.22-29.02"/>
    <path class="cls-4" d="M212.3,70.9c-1.34,2.55-2.61,5.14-3.81,7.76-1.2,2.62-2.33,5.27-3.4,7.95s-2.06,5.38-3,8.11c-.93,2.73-1.8,5.48-2.6,8.25"/>
    <path class="cls-4" d="M292.74,268.61c-11.22,1.04-22.45,2.08-33.68,3.11-5.62.52-11.23,1.03-16.84,1.55-5.61.51-11.23,1.03-16.84,1.54"/>
    <path class="cls-4" d="M508.44,245.97c.21-.02.42-.03.63-.02"/>
    <path class="cls-4" d="M347.87,8.66c-.01.54-.14,1.09-.39,1.58s-.65.89-1.17,1.11c-.52.22-1.08.21-1.6.01-.52-.19-.96-.54-1.3-.96"/>
    <path class="cls-4" d="M344.03,388.72c0,.31-.08.63-.23.9-.14.26-.36.53-.66.64"/>
    <line class="cls-4" x1="343.14" y1="390.25" x2="341.05" y2="390.52"/>
    <path class="cls-4" d="M413.67,370.28c-2.38-1.26-4.69-2.64-6.95-4.12-2.32-1.52-4.55-3.13-6.73-4.84-2.11-1.65-4.15-3.38-6.14-5.19-2.06-1.87-4.04-3.81-5.97-5.81-1.87-1.95-3.68-3.95-5.43-6.01-1.79-2.1-3.5-4.26-5.16-6.47-1.61-2.16-3.16-4.36-4.66-6.6-1.54-2.3-3.01-4.63-4.43-7-1.39-2.31-2.72-4.65-4-7.01-1.32-2.43-2.59-4.89-3.81-7.37-2.41-4.9-4.65-9.87-6.71-14.93-1.02-2.51-2-5.03-2.94-7.57-.95-2.58-1.86-5.17-2.73-7.78-.85-2.57-1.67-5.15-2.45-7.74-.79-2.64-1.55-5.28-2.27-7.94"/>
    <path class="cls-4" d="M342.68,388.63c0-.21-.04-.4-.11-.6"/>
    <line class="cls-4" x1="340.02" y1="388.97" x2="342.68" y2="388.63"/>
    <line class="cls-4" x1="346.45" y1="8.58" x2="343.66" y2="8.75"/>
    <path class="cls-4" d="M375.24,157.84c-.06,4.5,0,9,.15,13.49.16,4.55.44,9.09.82,13.63.19,2.23.4,4.46.64,6.68.24,2.25.51,4.48.8,6.72.6,4.52,1.3,9.02,2.1,13.5.4,2.24.83,4.48,1.29,6.72.46,2.22.94,4.44,1.44,6.65.5,2.2,1.04,4.39,1.59,6.58.56,2.18,1.14,4.35,1.75,6.51.62,2.2,1.26,4.39,1.94,6.57s1.37,4.35,2.11,6.51c.72,2.14,1.47,4.27,2.25,6.39.77,2.09,1.57,4.16,2.39,6.23,1.71,4.26,3.53,8.47,5.49,12.62.96,2.03,1.95,4.05,2.97,6.05,1.01,1.97,2.05,3.93,3.12,5.87,2.25,4.06,4.64,8.04,7.2,11.92,1.23,1.87,2.5,3.7,3.8,5.52,1.27,1.76,2.58,3.5,3.92,5.21,2.88,3.66,5.92,7.15,9.17,10.48,1.57,1.6,3.18,3.16,4.84,4.66,1.61,1.46,3.25,2.87,4.95,4.22,1.86,1.48,3.76,2.89,5.72,4.22,1.9,1.29,3.84,2.49,5.84,3.62,3.85,2.16,7.8,3.97,12,5.37"/>
    <path class="cls-4" d="M365.21,65c-.39-.71-1.16-1.22-1.91-1.46"/>
    <path class="cls-4" d="M363.3,63.55c2.6-5.17,5.5-10.11,8.82-14.86,1.66-2.37,3.4-4.65,5.26-6.86s3.81-4.32,5.87-6.34"/>
    <path class="cls-4" d="M361.13,259.55c.56-.19,1.4-.56,1.85-.98"/>
    <path class="cls-4" d="M362.99,258.57c.93,2.64,1.91,5.27,2.92,7.88,1,2.57,2.03,5.12,3.11,7.65,1.09,2.58,2.22,5.13,3.4,7.67,1.16,2.5,2.36,4.98,3.59,7.45,1.26,2.5,2.56,4.97,3.9,7.42,1.33,2.42,2.7,4.81,4.12,7.18,1.45,2.41,2.94,4.8,4.49,7.15,1.5,2.29,3.05,4.55,4.65,6.77,1.64,2.28,3.33,4.53,5.08,6.73,1.71,2.15,3.46,4.25,5.27,6.31,1.86,2.12,3.78,4.18,5.76,6.18,1.92,1.95,3.9,3.83,5.94,5.66,4.16,3.72,8.5,7.12,13.18,10.17,2.36,1.55,4.78,2.98,7.27,4.31,2.42,1.29,4.89,2.45,7.42,3.49"/>
    <path class="cls-4" d="M354.27,93.36c-.47-.57-1.29-.93-1.97-1.08"/>
    <path class="cls-4" d="M351.03,224.03c-.62-2.81-1.2-5.63-1.74-8.45-.54-2.82-1.04-5.66-1.51-8.49-.93-5.68-1.69-11.37-2.3-17.1-.31-2.86-.57-5.72-.8-8.59-.22-2.87-.41-5.74-.55-8.61s-.24-5.74-.3-8.62c-.06-2.88-.07-5.75-.04-8.63"/>
    <path class="cls-4" d="M345.8,155.84c-.03,2.84-.01,5.68.04,8.52.06,2.84.16,5.68.3,8.52.14,2.84.32,5.67.55,8.5.22,2.83.49,5.66.79,8.49.6,5.65,1.37,11.28,2.28,16.89.46,2.8.96,5.6,1.49,8.39s1.11,5.57,1.72,8.34"/>
    <path class="cls-4" d="M351.03,224.03c.54-.12,1.42-.34,1.94-.54"/>
    <path class="cls-4" d="M365.26,71.06c-.34.34-.9.63-1.33.82-.49.21-.97.36-1.49.46"/>
    <path class="cls-4" d="M357.5,91.66c-.64-.36-1.39-.48-2.05-.06-.62.38-.98,1.11-1.17,1.76"/>
    <path class="cls-4" d="M352.3,92.29c.14-.61.35-1.29.65-1.84"/>
    <path class="cls-4" d="M357.5,91.66c.04-.51-.07-1.04-.39-1.46"/>
    <path class="cls-4" d="M354.11,230.3c-.99-.46-1.75-1.95-2.11-2.82-.46-1.08-.78-2.29-.97-3.45"/>
    <path class="cls-4" d="M352.97,223.49c.19.86.53,1.73,1.03,2.47.47.71,1.18,1.42,2.05,1.66"/>
    <path class="cls-4" d="M354.11,230.3c.61-.1,1.12-.49,1.45-.98.34-.5.51-1.11.49-1.7"/>
    <path class="cls-4" d="M363.13,252.93c-.81,1.68-.75,3.95-.15,5.65"/>
    <path class="cls-4" d="M348.14,60.54c2.56.31,5.11.69,7.64,1.19,2.54.49,5.04,1.08,7.52,1.83"/>
    <path class="cls-4" d="M344.9,263.6c.71,2.62,1.45,5.23,2.23,7.83.76,2.55,1.56,5.1,2.4,7.63.85,2.57,1.74,5.13,2.67,7.68.92,2.51,1.88,4.99,2.88,7.47,1.02,2.51,2.08,5,3.18,7.47,1.09,2.44,2.22,4.86,3.4,7.26,1.2,2.45,2.44,4.87,3.73,7.27,1.26,2.34,2.57,4.65,3.93,6.93,1.4,2.34,2.84,4.65,4.35,6.92,1.47,2.22,2.99,4.39,4.57,6.53,1.62,2.18,3.3,4.31,5.05,6.39,1.71,2.04,3.48,4.02,5.32,5.95,7.35,7.73,15.83,14.74,25.24,19.91"/>
    <path class="cls-4" d="M361.13,259.56c-5.19,1.78-10.86,3.06-16.23,4.04"/>
    <path class="cls-4" d="M352.3,92.29c-1.9-.19-3.8-.39-5.7-.58-1.9-.19-3.8-.39-5.7-.57"/>
    <path class="cls-4" d="M336.79,225.65c2.36-.34,4.73-.65,7.1-.93,2.37-.28,4.75-.51,7.13-.68"/>
    <path class="cls-4" d="M331.63,155.57c-.02,2.93-.01,5.86.03,8.79.04,2.93.11,5.86.22,8.79.2,5.86.52,11.71.94,17.56.21,2.92.45,5.84.72,8.76.27,2.92.57,5.84.89,8.75.33,2.91.69,5.82,1.08,8.72.39,2.9.82,5.8,1.28,8.7"/>
    <path class="cls-4" d="M336.79,225.65c.16,1.07.34,2.13.56,3.19.09.43.57,2.7.95,3.08"/>
    <path class="cls-4" d="M336.79,225.65c-.57.09-1.13.16-1.69.24"/>
    <path class="cls-4" d="M343.85,254.7c-.16,1.09.12,3.42.26,4.47.2,1.49.46,2.96.78,4.43"/>
    <path class="cls-4" d="M348.14,60.54c-.54-.09-1.09-.14-1.64-.13"/>
    <path class="cls-4" d="M344.9,263.6c-.53.12-1.07.23-1.6.31"/>
    <path class="cls-4" d="M504.32,56.11c-2.08-1.62-4.35-3.04-6.78-4.1-1.22-.53-2.46-.96-3.76-1.28-1.21-.29-2.67-.51-3.94-.4"/>
    <path class="cls-4" d="M505.44,57.02c-.37-.31-.74-.62-1.12-.91"/>
    <path class="cls-4" d="M504.32,56.11c.06-.08.11-.16.14-.25.03-.08.05-.2,0-.28"/>
    <path class="cls-4" d="M504.45,55.58c.38.32.76.64,1.13.97"/>
    <path class="cls-4" d="M515.23,248.79c.11.03.21.03.32.02"/>
    <path class="cls-4" d="M346.45,8.58c.4-.02.8-.01,1.2.04"/>
    <path class="cls-4" d="M347.65,8.62c.07.01.15.02.22.04"/>
    <path class="cls-4" d="M347.65,8.62c-.08-.17-.18-.33-.31-.48"/>
    <path class="cls-4" d="M342.68,388.63c0,.29.03.57.1.85.05.22.17.6.36.77"/>
    <path class="cls-4" d="M342.68,388.63c.41-.06.95-.04,1.35.09"/>
    <path class="cls-4" d="M510.73,245.39c.17-.6.53-1.14,1.07-1.48"/>
    <line class="cls-4" x1="224.49" y1="86.5" x2="221.96" y2="86.69"/>
    <path class="cls-4" d="M222.31,96.38c-1.26.06-2.51.12-3.77.18"/>
    <line class="cls-4" x1="225.32" y1="254.22" x2="222.96" y2="254.45"/>
    <path class="cls-4" d="M295.36,230.66c13.24-1.6,26.49-3.19,39.74-4.78"/>
    <path class="cls-4" d="M297.81,258.84c15.35-1.38,30.69-2.76,46.04-4.15"/>
    <path class="cls-4" d="M.67,182.11c0,.1.12.17.19.21.09.05.18.08.28.11"/>
    <path class="cls-4" d="M293.51,269.36c-.16-.05-.32-.1-.46-.19-.12-.07-.31-.19-.31-.37"/>
    <path class="cls-4" d="M399.48,389.97c8.16-1.05,16.16-2.96,23.9-5.76,7.74-2.8,15.11-6.44,22.04-10.87,13.95-8.91,25.61-20.68,34.91-34.27,9.3-13.59,16.09-28.77,20.65-44.53,4.57-15.77,6.94-32.19,7.46-48.57"/>
    <path class="cls-4" d="M344.64,10.31c.96-.06,1.79-.72,1.82-1.73"/>
    <path class="cls-4" d="M402.64,48.48c-2.12,1.4-4.14,2.93-6.08,4.58-2.01,1.71-3.91,3.53-5.72,5.45-1.74,1.84-3.37,3.76-4.93,5.76-1.63,2.09-3.16,4.25-4.61,6.47-5.62,8.64-9.96,18.27-13.23,27.99-.82,2.43-1.57,4.87-2.27,7.34-.71,2.51-1.36,5.04-1.96,7.59-.58,2.49-1.12,5-1.6,7.52-.49,2.57-.93,5.14-1.32,7.73-.38,2.53-.72,5.07-1,7.61-.29,2.6-.54,5.2-.75,7.81-.4,5.16-.62,10.32-.68,15.5"/>
    <path class="cls-4" d="M357.97,90.16c1.83-.11,3.16-1.44,4-2.87.86-1.46,1.34-3.2,1.57-4.85.46-3.3.04-6.98-1.09-10.1"/>
    <path class="cls-4" d="M404.74,168.51h0"/>
    <path class="cls-4" d="M200.12,101.07c.78-2.6,1.62-5.18,2.51-7.74.9-2.56,1.85-5.1,2.87-7.62,1.01-2.52,2.09-5.01,3.22-7.48,1.14-2.47,2.33-4.9,3.58-7.31"/>
    <path class="cls-4" d="M489.84,50.34c-.51.05-1.17.17-1.62.47"/>
    <path class="cls-4" d="M500.68,60.29s.05.04.06.08"/>
    <path class="cls-4" d="M348.14,60.54c-.9,2.78-1.42,7.25-1.27,10.16"/>
    <path class="cls-4" d="M338.48,91.27c-.6,2.63-1.14,5.28-1.65,7.93-.5,2.65-.96,5.31-1.37,7.98-.42,2.67-.8,5.34-1.14,8.02-.34,2.68-.65,5.36-.92,8.05-.28,2.69-.52,5.37-.73,8.07-.21,2.69-.39,5.38-.54,8.08-.15,2.7-.26,5.39-.35,8.09-.08,2.7-.14,5.4-.16,8.1"/>
    <path class="cls-4" d="M356.05,227.62c2.28.62,4.08,2.85,5.17,4.68,1.21,2.02,2.07,4.35,2.61,6.62.55,2.29.83,4.72.76,7.08-.06,2.27-.45,4.84-1.46,6.93"/>
    <path class="cls-4" d="M365.26,71.06c1.4,4.11,1.85,9.06,1.01,13.35-.4,2.08-1.22,4.47-2.69,6.12-1.67,1.87-3.85,2.38-6.09,1.12"/>
    <path class="cls-4" d="M360.4,251.43c1.03-.02,2.21.58,2.74,1.5"/>
    <path class="cls-4" d="M361.13,259.55c-.45-1.28-.75-2.67-.89-4.02-.14-1.29-.15-2.83.16-4.11"/>
    <path class="cls-4" d="M362.44,72.34c-.24-1.45-.3-3-.19-4.46.11-1.4.41-3.04,1.04-4.33"/>
    <path class="cls-4" d="M365.21,65c-.45.89-.56,2.06-.52,3.02.04,1.02.25,2.07.57,3.03"/>
    <path class="cls-4" d="M343.79,155.54c.03-2.67.09-5.33.19-8,.1-2.67.24-5.33.42-7.99.18-2.66.4-5.32.66-7.98.26-2.65.56-5.3.91-7.95.34-2.64.73-5.28,1.16-7.92s.91-5.26,1.43-7.87c1.05-5.24,2.29-10.42,3.74-15.55"/>
    <path class="cls-4" d="M429.43,73.03c-.56.03-1.12.06-1.68.09"/>
    <path class="cls-4" d="M354.27,93.36c-1.45,5.08-2.68,10.19-3.72,15.36-.52,2.58-1,5.17-1.43,7.77s-.82,5.21-1.16,7.82c-.34,2.61-.64,5.23-.9,7.85-.26,2.62-.48,5.25-.66,7.88-.18,2.63-.32,5.26-.42,7.89-.1,2.64-.16,5.27-.19,7.91"/>
    <path class="cls-4" d="M355.16,159.6c.06-5.26.28-10.51.69-15.76.2-2.65.45-5.3.75-7.94.29-2.58.63-5.16,1.01-7.73.39-2.63.84-5.24,1.33-7.85.49-2.56,1.02-5.1,1.62-7.64.6-2.59,1.26-5.16,1.98-7.71.71-2.51,1.47-4.99,2.29-7.46,3.3-9.89,7.7-19.68,13.38-28.47,1.46-2.26,3.01-4.46,4.66-6.59,1.58-2.03,3.23-3.99,4.99-5.86,1.83-1.96,3.76-3.81,5.8-5.56,1.96-1.68,4.01-3.24,6.16-4.67"/>
    <path class="cls-4" d="M358.5,159.83c-.11,9.58.3,19.11,1.2,28.65.22,2.36.47,4.73.76,7.08.28,2.37.6,4.74.94,7.1.35,2.38.72,4.75,1.13,7.12.4,2.37.84,4.73,1.3,7.08.93,4.72,1.98,9.41,3.15,14.08,1.16,4.62,2.44,9.2,3.83,13.75,1.42,4.63,2.97,9.21,4.64,13.75.82,2.23,1.68,4.45,2.57,6.66.87,2.18,1.78,4.34,2.72,6.48.98,2.24,1.98,4.46,3.03,6.67,1.03,2.18,2.09,4.33,3.2,6.47,1.09,2.11,2.21,4.2,3.37,6.27,1.15,2.05,2.33,4.07,3.54,6.08,1.29,2.13,2.63,4.23,4.01,6.31,1.34,2.02,2.72,4.01,4.15,5.96,2.74,3.76,5.63,7.39,8.71,10.88,1.66,1.88,3.37,3.71,5.14,5.49,1.72,1.73,3.49,3.41,5.32,5.04,1.76,1.56,3.57,3.07,5.43,4.51,1.79,1.38,3.62,2.7,5.51,3.95,2.09,1.39,4.24,2.68,6.45,3.87,2.14,1.15,4.32,2.19,6.56,3.12,2.18.9,4.39,1.69,6.66,2.35,2.19.64,4.4,1.15,6.65,1.53"/>
    <path class="cls-4" d="M372.71,157.81c.03-2.36.1-4.72.21-7.08.1-2.35.24-4.69.42-7.04.18-2.37.4-4.73.67-7.09.26-2.32.55-4.64.89-6.95.68-4.67,1.52-9.29,2.55-13.9.52-2.33,1.08-4.64,1.7-6.94.6-2.25,1.25-4.49,1.94-6.71.71-2.27,1.47-4.52,2.29-6.75.8-2.19,1.66-4.36,2.57-6.51.93-2.21,1.93-4.38,2.98-6.53,1.02-2.08,2.1-4.13,3.24-6.15,2.33-4.12,4.89-8.04,7.77-11.8,1.46-1.91,3-3.75,4.61-5.53,1.55-1.71,3.17-3.35,4.87-4.92"/>
    <path class="cls-4" d="M411.23,55.43c-6.77,6.33-12.37,13.95-16.88,21.98-1.12,1.99-2.18,4.01-3.18,6.06-1.04,2.12-2.01,4.26-2.92,6.44-.89,2.12-1.73,4.25-2.52,6.41-.8,2.2-1.55,4.42-2.25,6.66-1.38,4.43-2.56,8.91-3.57,13.44-1.01,4.53-1.84,9.09-2.51,13.68-.33,2.28-.62,4.56-.88,6.85-.26,2.32-.47,4.65-.65,6.98-.36,4.63-.56,9.26-.62,13.9"/>
    <line class="cls-4" x1="357.96" y1="90.16" x2="357.97" y2="90.16"/>
    <path class="cls-4" d="M437.03,81.69c-3.09,2.29-5.89,4.94-8.42,7.82-1.24,1.42-2.42,2.88-3.53,4.4-1.16,1.58-2.25,3.2-3.28,4.86-2.03,3.27-3.81,6.66-5.4,10.16-1.59,3.5-2.97,7.07-4.18,10.72-4.8,14.44-7,30.18-7.38,45.29"/>
    <path class="cls-4" d="M240.62,38.93c20-19.76,45.33-31.48,73.47-33.46"/>
    <path class="cls-4" d="M340.24,7.44c-30.05-3.92-59.59,2.66-84.42,20.57"/>
    <path class="cls-4" d="M364.23,12.76c-5.38-1.69-10.81-3.06-16.35-4.11"/>
    <path class="cls-4" d="M336.93,388.05c-7.43-2.81-14.56-6.13-21.52-9.96"/>
    <path class="cls-4" d="M344.02,388.4c.01.11.01.21.01.32"/>
    <path class="cls-4" d="M417.31,240.29c1.44,3.89,3,7.72,4.7,11.5,1.7,3.78,3.54,7.49,5.52,11.13,3.95,7.23,8.55,14.26,13.82,20.61,2.65,3.2,5.46,6.22,8.5,9.06,1.53,1.43,3.11,2.8,4.74,4.1,1.61,1.28,3.26,2.5,4.97,3.63,6.86,4.56,14.66,7.9,23.02,8.67"/>
    <path class="cls-4" d="M385.54,36.84c-2.11,2.01-4.1,4.12-6,6.33-1.9,2.21-3.68,4.51-5.36,6.88-3.39,4.77-6.33,9.74-8.97,14.95"/>
    <path class="cls-4" d="M438.17,361.29c-2.43-1.15-4.78-2.41-7.09-3.78-2.39-1.41-4.7-2.92-6.95-4.53-2.18-1.55-4.29-3.17-6.35-4.87-2.15-1.77-4.22-3.61-6.24-5.51-1.96-1.85-3.86-3.75-5.7-5.71-1.89-2.01-3.73-4.06-5.51-6.16-1.74-2.05-3.43-4.14-5.06-6.28-1.68-2.19-3.31-4.41-4.89-6.67-1.54-2.2-3.03-4.44-4.48-6.7-1.49-2.33-2.93-4.68-4.33-7.06-1.37-2.34-2.7-4.7-3.98-7.08-1.3-2.41-2.56-4.84-3.77-7.29-1.2-2.42-2.37-4.87-3.49-7.32-1.14-2.49-2.24-5.01-3.3-7.53-1.04-2.49-2.05-5-3.02-7.52-.99-2.56-1.94-5.14-2.85-7.73"/>
    <line class="cls-4" x1="419.34" y1="373.41" x2="416.15" y2="373.81"/>
    <line class="cls-4" x1="496.29" y1="57.71" x2="505.44" y2="57.02"/>
    <path class="cls-4" d="M406.74,170.42c-.06,3.44-.02,6.88.12,10.32.15,3.48.39,6.96.74,10.43.35,3.45.79,6.88,1.33,10.31.54,3.42,1.17,6.82,1.9,10.21,2.89,13.42,7.37,26.89,13.53,39.2,1.58,3.17,3.28,6.27,5.12,9.31,1.75,2.9,3.62,5.71,5.62,8.45,4.07,5.55,8.77,10.81,14.08,15.23,1.42,1.18,2.88,2.29,4.4,3.34,1.45,1.01,2.94,1.94,4.49,2.81,2.88,1.61,5.95,2.96,9.13,3.9,3.36,1,6.85,1.55,10.36,1.54,3.45,0,6.82-.55,10.1-1.62"/>
    <path class="cls-4" d="M444.75,91.5c-7.52,2.54-13.58,7.44-18.5,13.44-4.9,5.99-8.6,12.93-11.37,20.08-2.76,7.11-4.75,14.83-6.04,22.33-1.32,7.66-1.96,15.3-2.1,23.06"/>
    <path class="cls-4" d="M346.53,7.97c-.05.2-.07.4-.07.61"/>
    <path class="cls-4" d="M343.22,231.33c-1.59.19-3.18.39-4.76.6"/>
    <path class="cls-4" d="M509.84,249.32c-.82,17.62-3.8,35.26-9.36,52.05-5.55,16.76-13.71,32.73-24.81,46.59-5.53,6.91-11.75,13.23-18.63,18.81-3.47,2.81-7.07,5.4-10.85,7.79-3.71,2.35-7.53,4.47-11.5,6.37-16.13,7.73-33.59,11.29-51.41,10.97"/>
    <path class="cls-4" d="M295.79,13.69c14.6-3.62,29.61-4.23,44.47-2.27,14.85,1.96,29.23,6.45,42.76,12.77,27.1,12.66,50.66,32.59,69.43,55.45,4.7,5.73,9.12,11.65,13.28,17.78,4.24,6.24,8.17,12.65,11.84,19.24,7.25,13.04,13.39,26.74,18.31,40.82,9.8,28.04,14.97,58.18,14.1,87.98"/>
    <path class="cls-4" d="M347.84,8.24c.03.14.04.27.04.42"/>
    <path class="cls-4" d="M400.57,396.52c-19.45,2.36-38.97-.18-57.43-6.28"/>
    <path class="cls-4" d="M235.98,307.96c1.38,2.1,2.79,4.18,4.23,6.24,1.44,2.06,2.91,4.11,4.41,6.12,1.5,2.02,3.03,4.01,4.59,5.99,1.56,1.97,3.15,3.93,4.77,5.85,3.24,3.85,6.58,7.6,10.06,11.24,1.74,1.82,3.5,3.61,5.29,5.38,1.79,1.76,3.61,3.5,5.46,5.2"/>
    <path class="cls-4" d="M462.32,345.34c-2.08-.68-4.12-1.46-6.12-2.34-2.06-.9-4.06-1.9-6.03-2.99-4.15-2.3-8.02-4.92-11.73-7.86-7.18-5.67-13.56-12.34-19.23-19.48-2.77-3.49-5.37-7.1-7.84-10.81-1.28-1.93-2.52-3.89-3.72-5.87-1.23-2.03-2.43-4.08-3.58-6.16-1.09-1.96-2.15-3.93-3.17-5.92-1.04-2.02-2.04-4.05-3.01-6.1-1.99-4.19-3.84-8.44-5.57-12.75-.84-2.08-1.65-4.18-2.43-6.29-.79-2.14-1.55-4.29-2.29-6.45-.74-2.18-1.45-4.37-2.14-6.58-.69-2.21-1.34-4.42-1.97-6.64-.62-2.19-1.21-4.38-1.77-6.58-.57-2.21-1.11-4.42-1.62-6.64-.52-2.23-1-4.47-1.47-6.72-.46-2.26-.9-4.52-1.31-6.78-.82-4.53-1.53-9.07-2.14-13.64-.3-2.26-.57-4.52-.82-6.79-.24-2.25-.46-4.5-.65-6.75-.39-4.58-.67-9.17-.83-13.77-.17-4.55-.22-9.09-.16-13.63"/>
    <path class="cls-4" d="M337.96,231.95c-.54-.14-.99-.73-1.25-1.15-.31-.5-.54-1.02-.75-1.56-.4-1.06-.68-2.25-.85-3.36"/>
    <path class="cls-4" d="M346.87,70.69c-19.85,1.49-39.69,3-59.53,4.51-9.92.76-19.83,1.52-29.75,2.28-9.93.76-19.85,1.53-29.78,2.3"/>
    <path class="cls-4" d="M368.9,28.05c-2.3,2.29-4.42,4.71-6.42,7.26-2,2.55-3.84,5.2-5.55,7.95-1.72,2.75-3.29,5.56-4.75,8.46-1.46,2.89-2.8,5.83-4.05,8.81"/>
    <path class="cls-4" d="M346.87,70.69c-.55-1.58-.83-3.46-.9-5.12-.07-1.6.03-3.61.53-5.17"/>
    <path class="cls-4" d="M329.83,155.66c.02-2.7.07-5.4.16-8.09.09-2.7.2-5.4.35-8.1.15-2.69.33-5.38.54-8.07.21-2.69.46-5.38.74-8.07.28-2.68.58-5.36.93-8.04.35-2.68.73-5.35,1.15-8.02s.88-5.33,1.38-7.98c.5-2.65,1.05-5.3,1.65-7.93"/>
    <path class="cls-4" d="M508.44,245.97c.88-27.99-3.62-56.27-12.3-82.8-4.36-13.31-9.8-26.3-16.25-38.74-3.25-6.27-6.74-12.38-10.5-18.36-3.71-5.9-7.64-11.62-11.83-17.19-16.74-22.22-37.66-42-61.9-56.09-12.12-7.04-25.08-12.67-38.64-16.32-13.55-3.65-27.56-5.3-41.61-4.42"/>
    <path class="cls-4" d="M421.64,372.07c5.03-.71,10.05-1.42,15.08-2.14"/>
    <path class="cls-4" d="M343.29,263.91c-7.55.71-15.11,1.41-22.66,2.12-7.56.7-15.11,1.41-22.66,2.11"/>
    <path class="cls-4" d="M514.91,68.27c.23-.02.19-.23.13-.39-.06-.18-.15-.33-.24-.49-.14-.24-.3-.47-.46-.7-.36-.51-.74-1.01-1.13-1.5-.78-.99-1.58-1.95-2.42-2.88-1.67-1.89-3.43-3.66-5.36-5.28"/>
    <path class="cls-4" d="M338.46,231.93c-.13.02-.25.03-.38.05"/>
    <path class="cls-4" d="M343.85,254.7c5.33-.77,11.34-1.81,16.55-3.27"/>
    <path class="cls-4" d="M360.4,251.43c.89-1.76,1.24-3.91,1.29-5.84.05-1.99-.21-4.05-.71-5.97-.5-1.91-1.27-3.86-2.35-5.53-1-1.54-2.57-3.3-4.51-3.79"/>
  </g>
  <g id="Make2D::可见线::曲线">
    <path class="cls-4" d="M428.53,375.15h-.01"/>
    <path class="cls-4" d="M219.47,239.88c.8,5.85,1.69,11.69,2.68,17.51.98,5.83,2.06,11.63,3.23,17.42"/>
    <path class="cls-4" d="M225.38,274.81c-.32-1.56-.49-3.28-.47-4.87,0-.82.06-1.63.2-2.44.11-.64.35-1.74.87-2.26"/>
    <line class="cls-4" x1="514.89" y1="68.27" x2="514.71" y2="68.28"/>
    <path class="cls-4" d="M424.37,377.44s0-.02-.01-.03"/>
    <path class="cls-4" d="M421.64,372.07c-.36-1.55-.9-3.2-1.63-4.62-.36-.7-.82-1.44-1.37-2.03-.51-.54-1.28-1.14-2.13-1.01"/>
    <path class="cls-4" d="M496.37,246.98c.14-4.51.13-9.02,0-13.54-.14-4.58-.42-9.15-.83-13.72-.42-4.63-.97-9.24-1.65-13.83-.69-4.65-1.51-9.26-2.46-13.86-.93-4.49-1.98-8.95-3.15-13.39-1.17-4.46-2.47-8.88-3.88-13.27-2.83-8.82-6.12-17.42-9.87-25.89-3.77-8.51-7.97-16.77-12.64-24.82-2.3-3.98-4.71-7.89-7.23-11.74-2.49-3.81-5.08-7.54-7.78-11.2-2.81-3.81-5.72-7.53-8.75-11.17-1.5-1.8-3.02-3.57-4.57-5.32-1.54-1.74-3.1-3.45-4.69-5.13-3.14-3.33-6.37-6.55-9.7-9.68-3.27-3.07-6.63-6.02-10.09-8.86-1.87-1.54-3.76-3.04-5.68-4.5-1.9-1.45-3.82-2.86-5.76-4.23-1.92-1.36-3.87-2.68-5.84-3.96-1.95-1.27-3.91-2.5-5.91-3.69-3.91-2.33-7.89-4.51-11.97-6.53-1.99-.98-4.01-1.93-6.04-2.83-2-.89-4.02-1.74-6.06-2.54-2.26-.89-4.54-1.73-6.84-2.51-2.27-.77-4.55-1.48-6.85-2.14-4.5-1.29-9.03-2.34-13.64-3.16-2.25-.4-4.5-.74-6.77-1.02-2.23-.28-4.47-.49-6.71-.65-4.41-.31-8.81-.38-13.22-.2-2.37.1-4.73.26-7.08.51-2.33.24-4.65.55-6.96.93-2.29.38-4.56.83-6.82,1.35-2.24.52-4.47,1.11-6.67,1.76-8.75,2.61-17.09,6.3-24.92,11.01-7.82,4.7-14.99,10.33-21.48,16.74-6.65,6.57-12.5,13.89-17.57,21.73"/>
    <path class="cls-4" d="M376.75,389.64c-4.38.12-8.72,0-13.09-.36-4.36-.36-8.68-.94-12.98-1.74-4.3-.8-8.53-1.81-12.74-3.02-4.2-1.21-8.32-2.61-12.4-4.19-16.28-6.31-31.5-15.45-45.11-26.27"/>
    <path class="cls-4" d="M339.31,387.15s0,.04,0,.06"/>
    <path class="cls-4" d="M318.21.96c4.08-.12,8.16-.22,12.25-.3,2.02-.04,4.03-.07,6.05-.1,2.02-.03,4.04-.04,6.06-.06,8.22-.05,16.43.02,24.64.31,8.14.28,16.26.77,24.37,1.58,8.17.81,16.26,1.94,24.31,3.53,8.2,1.61,16.22,3.67,24.15,6.34,3.85,1.3,7.64,2.73,11.39,4.31,3.64,1.54,7.21,3.21,10.71,5.03,1.86.96,3.69,1.97,5.51,3.01,1.79,1.03,3.56,2.09,5.31,3.2,3.45,2.18,6.8,4.5,10.06,6.96,6.5,4.9,12.5,10.25,18.16,16.1,22.68,23.43,38.61,53.67,48.62,84.16,2.54,7.73,4.72,15.53,6.57,23.45.93,4,1.78,8.01,2.54,12.04.76,4.04,1.43,8.1,2.02,12.17,1.17,8.15,1.98,16.31,2.43,24.53.44,8.12.51,16.21.2,24.34"/>
    <path class="cls-4" d="M416.15,373.81c-.02,1.11.14,2.34.46,3.41.17.56.37,1.08.66,1.59.23.39.71,1.08,1.3,1"/>
    <line class="cls-4" x1="488.1" y1="50.49" x2="489.84" y2="50.34"/>
    <path class="cls-4" d="M356.63,89.79c.39.22.86.39,1.33.37"/>
    <path class="cls-4" d="M494.17,56.4c.08.07.15.13.23.2"/>
    <path class="cls-4" d="M455.7,373.18s-.04,0-.06,0"/>
    <path class="cls-4" d="M364.23,12.76s.06,0,.08,0"/>
    <path class="cls-4" d="M456.08,74.09c-.12.03-.25.06-.37.09"/>
    <path class="cls-4" d="M505.72,305.55c.13-.06.26-.11.39-.17"/>
    <path class="cls-4" d="M338.9,387.03s0-.06,0-.1"/>
    <path class="cls-4" d="M288,361.76c14.5,11.22,30.62,20.59,47.89,26.96"/>
    <path class="cls-4" d="M422.37,65.7c.1.74.29,1.53.58,2.22.15.36.32.69.57,1,.22.27.56.57.97.54"/>
    <path class="cls-4" d="M414.56,39.78c-.08-.11-.16-.23-.24-.35"/>
    <path class="cls-4" d="M384.85,36.43h0"/>
    <path class="cls-4" d="M413.88,39.27c.06.08.12.16.18.25"/>
    <path class="cls-4" d="M444.82,380.31c.29-.04.59-.09.88-.13"/>
    <path class="cls-4" d="M459.56,370.15c-.06,0-.11.01-.17.02"/>
    <path class="cls-4" d="M419.58,62.99c-.01,2.46.3,5.12.99,7.49.34,1.17.82,2.43,1.46,3.48.55.9,1.59,2.23,2.9,2.16"/>
    <path class="cls-4" d="M434.85,79.12s0,0,0,.01"/>
    <path class="cls-4" d="M500.68,60.29c2.36,1.36,4.72,2.7,7.08,4.06,1.18.68,2.36,1.36,3.54,2.04.38.22,3.13,1.83,3.61,1.88"/>
    <path class="cls-4" d="M418.57,379.81c.59-.07.88-.88,1-1.31.15-.57.21-1.14.22-1.72"/>
    <path class="cls-4" d="M424.49,69.47c.42-.03.72-.4.9-.71"/>
    <path class="cls-4" d="M223.61,91.79c.32-.02.52-.42.62-.64.12-.29.2-.59.25-.9.11-.62.15-1.24.15-1.87"/>
    <path class="cls-4" d="M224.69,259.75c.28-.03.46-.37.54-.57.11-.26.17-.52.22-.79.1-.55.13-1.09.12-1.64"/>
    <path class="cls-4" d="M344.55,7.61c.07,0,.15,0,.22.01"/>
    <path class="cls-4" d="M427.14,375.85s0,.06,0,.09"/>
    <path class="cls-4" d="M563.53,231.57c-.41,10.6-1.51,21.2-3.38,31.65-.95,5.29-2.09,10.53-3.46,15.74-1.33,5.09-2.86,10.1-4.61,15.06-1.79,5.05-3.78,10-6.03,14.86-2.21,4.79-4.64,9.45-7.32,13.99-5.41,9.18-11.73,17.69-19.03,25.46-14.79,15.75-32.5,27.27-52.23,35.63-4.89,2.07-9.84,3.93-14.88,5.6-5.06,1.68-10.16,3.18-15.32,4.51-10.54,2.73-20.47,4.62-31.19,6.45"/>
    <line class="cls-4" x1="417.37" y1="370.78" x2="417.57" y2="370.75"/>
    <path class="cls-4" d="M222.27,246.05c-.6.07-1.09-.67-1.32-1.06-.3-.52-.52-1.07-.71-1.63-.37-1.1-.62-2.33-.78-3.47"/>
    <path class="cls-4" d="M338.41,231.96s-.09.01-.14.02"/>
    <line class="cls-4" x1="305.68" y1="12.65" x2="315.4" y2="12.05"/>
    <path class="cls-4" d="M424.35,377.41c-.79-.55-1.39-1.63-1.76-2.45-.42-.93-.72-1.89-.95-2.89"/>
    <path class="cls-4" d="M409.81,130.43s0,0,0,0c0,0,0,0,0,0,0,0,0,.01,0,.02,0,.03-.01.05-.02.07-.02.07-.04.15-.06.23-.05.21-.11.42-.16.63-.09.36-.18.72-.26,1.08-.17.7-.33,1.4-.49,2.11-.31,1.39-.59,2.79-.86,4.19-.53,2.81-.97,5.62-1.35,8.45-.37,2.83-.67,5.67-.89,8.52-.22,2.84-.38,5.69-.47,8.55"/>
    <path class="cls-4" d="M224.06,97.79c.23-.01.44-.11.62-.25.25-.19.42-.43.58-.69.28-.46.46-.95.61-1.46.29-.98.46-2.1.56-3.11.19-2.05.13-4.29-.11-6.33"/>
    <path class="cls-4" d="M315.4,12.05c-1.62.1-3.24.23-4.85.4"/>
    <line class="cls-4" x1="313.01" y1="5.53" x2="315.23" y2="5.39"/>
    <path class="cls-4" d="M342.32,10.45c-.57.03-1.07-.31-1.39-.73-.33-.43-.51-.98-.51-1.52"/>
    <path class="cls-4" d="M220.14,93.5c.44-.02.82.39,1.03.68.26.35.44.73.61,1.12"/>
    <path class="cls-4" d="M338.26,231.97c-14.03,1.69-28.06,3.38-42.09,5.08"/>
    <path class="cls-4" d="M417.37,370.78c-.59.07-.88.88-1,1.31-.16.57-.21,1.14-.22,1.72"/>
    <line class="cls-4" x1="399.48" y1="389.97" x2="389.38" y2="391.27"/>
    <line class="cls-4" x1="401.54" y1="396.4" x2="399.61" y2="396.65"/>
    <path class="cls-4" d="M394.39,390.51c1.7-.14,3.4-.32,5.09-.54"/>
    <path class="cls-4" d="M514.91,68.27s-.01,0-.02,0"/>
    <path class="cls-4" d="M312.94,5.53c-19.31,1.17-37.72,6.93-54.16,17.2-8.14,5.08-15.58,11.14-22.29,17.99-3.35,3.43-6.49,7.02-9.45,10.8s-5.7,7.68-8.25,11.74"/>
    <path class="cls-4" d="M315.23,5.39c.21-.01.42-.02.63-.04"/>
    <path class="cls-4" d="M222.98,83.28c-.32.02-.52.42-.62.65-.12.29-.19.59-.25.9-.12.62-.15,1.24-.15,1.87"/>
    <path class="cls-4" d="M191.99,136.85c-.65,4.96-1.11,9.93-1.4,14.92-.29,4.99-.41,9.98-.36,14.98"/>
    <path class="cls-4" d="M307.43,15.24c.55-.03,1.11-.05,1.66-.07"/>
    <path class="cls-4" d="M424.93,76.12c.76-.04,1.37-.55,1.8-1.1.44-.56.78-1.25,1.02-1.91"/>
    <path class="cls-4" d="M221.47,80.44c-1.14,5.34-2.1,10.71-2.93,16.11"/>
    <path class="cls-4" d="M223.92,75.48c-.21-1.97-.23-4.59.29-6.55"/>
    <path class="cls-4" d="M223.85,251.44c-.28.03-.46.37-.54.57-.11.26-.17.52-.22.79-.1.55-.13,1.09-.12,1.65"/>
    <path class="cls-4" d="M223.25,245.58c-.23.03-.4.12-.57.27"/>
    <line class="cls-4" x1="223.25" y1="245.58" x2="290.95" y2="237.54"/>
    <line class="cls-4" x1="384.85" y1="36.43" x2="384.85" y2="36.43"/>
    <line class="cls-4" x1="335.89" y1="388.72" x2="336.64" y2="388.62"/>
    <path class="cls-4" d="M336.94,387.89c.01-.48.2-1.02.69-1.23"/>
    <path class="cls-4" d="M217.22,68.54c4.95-7.63,10.65-14.74,17.11-21.15,3.23-3.21,6.62-6.2,10.2-9.01,3.59-2.81,7.31-5.38,11.22-7.73,7.81-4.7,16.12-8.36,24.86-10.96,4.37-1.3,8.78-2.31,13.27-3.05,4.49-.74,8.99-1.21,13.55-1.4"/>
    <path class="cls-4" d="M276.33,350.7c-4.86-4.08-9.5-8.35-13.97-12.85-4.55-4.58-8.88-9.33-13.01-14.28-8.2-9.8-15.58-20.27-22.13-31.23-6.55-10.96-12.27-22.44-17.12-34.24-4.84-11.8-8.83-24.02-11.86-36.41-1.53-6.24-2.82-12.52-3.86-18.86-1.03-6.27-1.82-12.56-2.35-18.9-.27-3.22-.48-6.45-.61-9.68-.13-3.21-.2-6.43-.2-9.64,0-6.33.28-12.64.85-18.94.29-3.24.66-6.47,1.1-9.7.44-3.19.96-6.37,1.56-9.53,1.18-6.2,2.65-12.31,4.47-18.35,1.87-6.22,4.06-12.29,6.65-18.25,1.26-2.9,2.61-5.76,4.05-8.59,1.42-2.79,2.93-5.53,4.54-8.22"/>
    <path class="cls-4" d="M341.05,390.52c-.62-.2-1.03-.94-1.03-1.55"/>
    <path class="cls-4" d="M341.05,390.52c18.83,6.2,38.74,8.71,58.56,6.14"/>
    <path class="cls-4" d="M510.41,249.59c.71.2,1.19.98,1.16,1.7"/>
    <line class="cls-4" x1="235.29" y1="97.15" x2="224.06" y2="97.79"/>
    <path class="cls-4" d="M343.66,8.75c0-.26.08-.53.23-.75.15-.22.39-.37.66-.39"/>
    <path class="cls-4" d="M214.77,66.14c1.33-2.34,2.72-4.64,4.17-6.9,1.43-2.23,2.91-4.42,4.46-6.56,3.13-4.34,6.47-8.47,10.08-12.42,1.81-1.98,3.68-3.9,5.61-5.76,1.91-1.84,3.87-3.62,5.89-5.35,2.04-1.73,4.13-3.4,6.28-5,2.14-1.59,4.31-3.1,6.55-4.54,4.5-2.9,9.14-5.48,13.99-7.74,4.85-2.26,9.8-4.17,14.92-5.74,2.54-.78,5.11-1.47,7.7-2.08,2.61-.61,5.23-1.13,7.87-1.56,5.28-.86,10.57-1.36,15.92-1.52"/>
    <path class="cls-4" d="M279.92,355.15c2.6,2.07,5.24,4.08,7.95,6.02,2.67,1.91,5.38,3.76,8.15,5.53,2.73,1.75,5.51,3.43,8.33,5.02,2.79,1.58,5.62,3.08,8.49,4.5,2.99,1.47,6.01,2.86,9.09,4.14,3.03,1.27,6.1,2.44,9.21,3.51,3.07,1.06,6.16,2.01,9.29,2.86,3.09.84,6.2,1.57,9.34,2.19,3.25.64,6.52,1.16,9.81,1.55,3.26.39,6.52.65,9.79.78,3.25.13,6.48.13,9.73-.01,3.22-.14,6.43-.4,9.63-.81,6.5-.83,12.81-2.19,19.07-4.15,3.12-.98,6.17-2.09,9.19-3.34,3.03-1.26,5.99-2.65,8.9-4.17,5.73-3.01,11.08-6.46,16.2-10.42,2.6-2.01,5.11-4.12,7.53-6.34,2.47-2.26,4.83-4.62,7.09-7.07,2.15-2.33,4.2-4.73,6.17-7.21,2.01-2.53,3.91-5.13,5.73-7.8,1.85-2.73,3.6-5.51,5.26-8.37,1.69-2.91,3.28-5.88,4.77-8.9,5.77-11.72,10.01-24.16,12.9-36.87.71-3.11,1.33-6.23,1.89-9.37.56-3.19,1.04-6.39,1.44-9.61.41-3.27.74-6.54.99-9.82.26-3.33.43-6.66.53-10"/>
    <path class="cls-4" d="M225.97,265.25c.25-.25.44-.58.58-.9.22-.49.36-.99.48-1.5.19-.87.29-1.75.35-2.63.11-1.73.04-3.59-.15-5.31-.19-1.71-.54-3.56-1.05-5.21-.26-.83-.58-1.69-1-2.46-.25-.46-.58-.96-1-1.3-.25-.21-.57-.38-.92-.34"/>
    <path class="cls-4" d="M225.58,256.74c0-.95-.12-1.98-.33-2.9-.11-.48-.25-.94-.44-1.39-.1-.22-.21-.44-.36-.64-.09-.11-.18-.22-.31-.29-.09-.06-.18-.09-.29-.08"/>
    <path class="cls-4" d="M213.52,72.11c-1.46,2.46-2.84,4.96-4.16,7.51s-2.55,5.12-3.72,7.74c-2.34,5.24-4.38,10.57-6.16,16.03-.89,2.72-1.71,5.46-2.46,8.22-.75,2.76-1.44,5.54-2.06,8.34-.62,2.79-1.18,5.6-1.67,8.42-.5,2.82-.93,5.65-1.3,8.49"/>
    <path class="cls-4" d="M381.89,34.71c.99.56,1.98,1.14,2.96,1.72"/>
    <path class="cls-4" d="M221.78,95.31c.23.55.49,1.07.85,1.55.3.41.82.97,1.43.93"/>
    <path class="cls-4" d="M224.63,88.38c0-.91-.11-1.9-.31-2.79-.1-.46-.23-.91-.42-1.34-.1-.22-.2-.42-.35-.61-.13-.17-.32-.37-.57-.35"/>
    <path class="cls-4" d="M419.79,376.78c.02-1.12-.14-2.34-.46-3.41-.17-.56-.37-1.09-.66-1.59-.23-.38-.71-1.08-1.3-1"/>
    <path class="cls-4" d="M434.86,79.13s0,0,0-.01"/>
    <path class="cls-4" d="M427.75,73.11c.17-.43.36-.84.62-1.23"/>
    <path class="cls-4" d="M413.92,376.41c.28,1.81.36,3.95,0,5.77"/>
    <path class="cls-4" d="M339.34,6.71c-8.74-1.29-17.58-1.72-26.4-1.18"/>
    <path class="cls-4" d="M339.34,6.71c.34.05.62.28.8.55.18.27.28.61.29.94"/>
    <path class="cls-4" d="M343.66,8.75c0,.39-.11.8-.35,1.12-.23.33-.58.56-.99.58"/>
    <path class="cls-4" d="M511.8,244.44c.44-25.98-3.54-52.15-11.05-76.96-7.51-24.83-18.68-48.77-33.03-70.4-14.31-21.57-32.06-41.28-52.76-57-20.57-15.63-44.48-27.6-70.19-32.46"/>
    <path class="cls-4" d="M511.8,244.44c0,.32-.11.64-.36.86-.25.22-.58.29-.89.21"/>
    <path class="cls-4" d="M336.94,387.89c0,.26-.09.54-.3.72-.22.19-.5.2-.75.1"/>
    <path class="cls-4" d="M221.96,86.69c0,.91.11,1.9.31,2.79.1.46.23.9.42,1.34.1.22.2.42.35.61.13.17.32.37.57.35"/>
    <line class="cls-4" x1="510.55" y1="245.51" x2="511.67" y2="245.39"/>
    <path class="cls-4" d="M218.55,96.56c.09-.61.22-1.19.43-1.77.17-.43.54-1.26,1.16-1.29"/>
    <path class="cls-4" d="M224.21,68.93c-.48,1.8-.93,3.59-1.36,5.4"/>
    <path class="cls-4" d="M379.5,389.52c.67-.12,4.84-.76,5.51-.86,1.84-.28,3.68-.56,5.52-.83,3.68-.55,7.36-1.11,11.04-1.65"/>
    <line class="cls-4" x1="376.75" y1="389.63" x2="379.5" y2="389.52"/>
    <path class="cls-4" d="M497.17,247.16c-.12,4.13-.36,8.25-.72,12.36-.36,4.04-.83,8.06-1.42,12.08-.61,4.1-1.34,8.16-2.2,12.21-.43,1.99-.88,3.97-1.37,5.94-.49,1.96-1,3.9-1.55,5.84-.57,2.01-1.18,4-1.82,5.98-.63,1.96-1.3,3.9-2,5.84-1.38,3.8-2.9,7.54-4.56,11.23-1.71,3.78-3.56,7.48-5.57,11.11-1.96,3.54-4.06,6.98-6.32,10.34-2.31,3.44-4.77,6.76-7.4,9.97-2.57,3.13-5.26,6.13-8.12,9-2.92,2.93-5.97,5.7-9.19,8.31-3.15,2.56-6.41,4.94-9.82,7.15-1.73,1.12-3.5,2.2-5.29,3.22-1.79,1.02-3.59,1.99-5.43,2.91-1.82.91-3.67,1.77-5.54,2.57-1.86.8-3.75,1.55-5.65,2.25-3.85,1.41-7.75,2.59-11.73,3.56-3.99.97-8.01,1.71-12.08,2.23"/>
    <line class="cls-4" x1="431.89" y1="75.74" x2="424.93" y2="76.12"/>
    <line class="cls-4" x1="416.51" y1="364.41" x2="449.3" y2="359.69"/>
    <path class="cls-4" d="M416.51,364.41c-1.12.16-1.78,1.45-2.11,2.3-.37.99-.59,2.14-.7,3.18-.22,2.12-.11,4.42.21,6.51"/>
    <path class="cls-4" d="M305.68,12.65c3.36-.21,6.71-.27,10.07-.19,3.48.08,6.95.31,10.41.69,3.61.39,7.2.94,10.76,1.63,3.46.67,6.88,1.48,10.27,2.41,3.26.9,6.47,1.91,9.65,3.03,3.26,1.15,6.48,2.41,9.65,3.77,3.26,1.4,6.46,2.91,9.61,4.52,1.59.81,3.16,1.64,4.72,2.5,1.61.88,3.2,1.79,4.77,2.72,2.92,1.73,5.79,3.54,8.61,5.43,2.88,1.93,5.69,3.93,8.46,6.01,2.83,2.13,5.59,4.33,8.31,6.6,2.76,2.32,5.46,4.7,8.1,7.16,2.51,2.33,4.95,4.73,7.35,7.17,2.43,2.48,4.8,5.02,7.11,7.62,2.34,2.63,4.62,5.31,6.84,8.04,2.25,2.76,4.43,5.58,6.55,8.44,2.06,2.78,4.06,5.59,6,8.46,1.96,2.88,3.85,5.81,5.69,8.77,1.85,2.99,3.63,6.01,5.36,9.07,1.73,3.08,3.4,6.19,5.01,9.33,1.59,3.11,3.11,6.24,4.57,9.41,1.47,3.18,2.87,6.38,4.2,9.61,1.34,3.23,2.61,6.49,3.82,9.78,1.21,3.29,2.35,6.59,3.43,9.92,1.08,3.35,2.1,6.72,3.04,10.11.94,3.38,1.82,6.77,2.62,10.19.8,3.4,1.53,6.81,2.19,10.24.66,3.41,1.24,6.82,1.76,10.26.53,3.51.97,7.03,1.35,10.56.37,3.5.66,7,.87,10.51.42,6.92.54,13.81.33,20.74"/>
    <path class="cls-4" d="M445.47,380.33l-.91.13"/>
    <path class="cls-4" d="M307.43,15.23c13.03-.57,26.03,1.08,38.57,4.49,12.53,3.41,24.63,8.59,35.89,14.99"/>
    <path class="cls-4" d="M216.06,67.39c1.23-1.93,2.5-3.82,3.83-5.69,1.31-1.85,2.67-3.66,4.07-5.43,1.42-1.79,2.88-3.54,4.39-5.26,1.5-1.7,3.04-3.36,4.63-4.97,1.6-1.62,3.24-3.2,4.93-4.73,1.68-1.52,3.4-3,5.17-4.42,1.78-1.43,3.59-2.8,5.45-4.12,1.85-1.32,3.74-2.57,5.67-3.77,1.93-1.2,3.9-2.34,5.9-3.42,2-1.08,4.04-2.1,6.1-3.05,2.06-.95,4.15-1.84,6.27-2.66,2.13-.82,4.27-1.58,6.45-2.27,2.16-.68,4.34-1.3,6.54-1.85,2.22-.55,4.44-1.03,6.69-1.45,4.49-.83,8.98-1.37,13.54-1.65"/>
    <line class="cls-4" x1="357.97" y1="90.16" x2="241.5" y2="96.8"/>
    <path class="cls-4" d="M399.61,396.65c16.66-2.16,32.42-7.81,46.62-16.8,3.49-2.21,6.84-4.59,10.08-7.16,3.3-2.61,6.45-5.38,9.46-8.32,5.97-5.82,11.33-12.21,16.1-19.04,9.55-13.69,16.6-28.99,21.43-44.9,4.84-15.94,7.48-32.55,8.27-49.15"/>
    <path class="cls-4" d="M339.22,387.12c.47.47.79,1.17.79,1.84"/>
    <line class="cls-4" x1="510" y1="245.47" x2="511.42" y2="245.32"/>
    <path class="cls-4" d="M510,245.47c.19-.02.36,0,.55.04"/>
    <line class="cls-4" x1="344.64" y1="10.31" x2="342.33" y2="10.45"/>
    <path class="cls-4" d="M404.74,168.51c.06-3.21.2-6.41.43-9.62s.55-6.39.97-9.57.93-6.35,1.54-9.5c.31-1.58.64-3.14.99-4.71.18-.77.36-1.54.54-2.31.09-.36.18-.73.27-1.1.05-.19.1-.37.14-.56.03-.11.06-.21.08-.32.02-.08.04-.17.07-.26,0-.03.02-.06.02-.1,0,0,0-.02,0-.03,0,0,0,0,0,0,0,0,0,0,0,0"/>
    <path class="cls-4" d="M432.67,270.47s0,0,0,0,0,0,0-.01c-.01-.01-.02-.03-.03-.05-.04-.05-.07-.11-.1-.16-.08-.12-.15-.24-.23-.35-.16-.25-.32-.5-.49-.75-.32-.49-.63-.98-.94-1.48-.6-.96-1.19-1.93-1.77-2.9-1.14-1.91-2.23-3.85-3.29-5.81-2.11-3.94-4.04-7.96-5.82-12.07-1.78-4.11-3.38-8.27-4.84-12.5s-2.75-8.5-3.9-12.82c-1.15-4.32-2.14-8.67-2.99-13.06-.85-4.39-1.54-8.8-2.09-13.24-1.09-8.85-1.59-17.84-1.43-26.75"/>
    <path class="cls-4" d="M488.73,52.15c.17.12.33.24.49.36"/>
    <path class="cls-4" d="M290.97,237.68c-11.45,1.39-22.9,2.78-34.35,4.17-11.45,1.39-22.9,2.79-34.35,4.19"/>
    <path class="cls-4" d="M379.6,389.52s-.07,0-.11,0"/>
    <path class="cls-4" d="M190.24,166.75c.05,4.55.23,9.08.55,13.62.31,4.54.76,9.06,1.33,13.57,1.15,9.04,2.79,17.95,4.92,26.81,2.13,8.86,4.71,17.54,7.76,26.13,1.52,4.29,3.15,8.52,4.9,12.72s3.59,8.35,5.55,12.45"/>
    <path class="cls-4" d="M406.08,400.54c-2.86.49-5.72.87-8.6,1.14-2.88.28-5.77.45-8.67.52-2.89.07-5.77.04-8.66-.08-2.9-.13-5.79-.35-8.67-.67-2.87-.32-5.72-.72-8.56-1.22-2.86-.5-5.71-1.09-8.54-1.77-2.8-.67-5.58-1.42-8.34-2.26-2.79-.84-5.54-1.76-8.28-2.76-5.45-1.99-10.76-4.26-15.97-6.81-2.59-1.26-5.14-2.59-7.66-3.98-2.55-1.4-5.07-2.87-7.55-4.39-4.94-3.03-9.72-6.28-14.38-9.73-4.65-3.46-9.14-7.1-13.5-10.92"/>
    <path class="cls-4" d="M274.75,354.06c-2.05-1.89-4.06-3.81-6.04-5.78-1.98-1.96-3.92-3.96-5.83-5.99-1.91-2.03-3.78-4.09-5.61-6.19-1.84-2.09-3.64-4.22-5.4-6.38-1.76-2.16-3.49-4.34-5.19-6.56s-3.35-4.45-4.97-6.72c-1.62-2.27-3.2-4.56-4.75-6.88-1.55-2.32-3.05-4.66-4.53-7.03"/>
    <path class="cls-4" d="M197.86,108.66c.84-3.28,1.76-6.53,2.78-9.75,1.01-3.23,2.11-6.42,3.31-9.58,1.19-3.16,2.48-6.28,3.86-9.37s2.85-6.13,4.42-9.13"/>
    <path class="cls-4" d="M339.26,387.16s-.06-.07-.1-.09"/>
    <path class="cls-4" d="M427.62,376.07c.31-.3.61-.61.91-.92"/>
    <path class="cls-4" d="M388.06,388.76c-2.81.36-5.63.61-8.46.76"/>
    <path class="cls-4" d="M215.24,272.05c1.81,3.8,3.72,7.54,5.71,11.24s4.08,7.35,6.25,10.95c2.18,3.6,4.44,7.14,6.79,10.63,2.35,3.48,4.79,6.91,7.32,10.26,2.53,3.36,5.15,6.65,7.85,9.87,2.7,3.22,5.49,6.36,8.37,9.43,2.88,3.07,5.84,6.05,8.89,8.95,3.05,2.9,6.18,5.7,9.39,8.41"/>
    <path class="cls-4" d="M222.96,254.45c0,.94.12,1.97.34,2.9.11.48.25.94.44,1.39.1.22.21.44.36.64.09.11.18.22.3.29.09.06.18.09.29.08"/>
    <path class="cls-4" d="M222.68,245.85c-.12.11-.25.18-.41.19"/>
    <path class="cls-4" d="M434.86,79.13c8.99,10.5,17.11,21.9,24.18,33.78,3.54,5.95,6.81,12.01,9.85,18.23,3.06,6.25,5.86,12.6,8.41,19.08,5.06,12.87,9.12,26.26,12.04,39.78.74,3.43,1.4,6.87,2,10.32.59,3.44,1.11,6.89,1.55,10.36.87,6.82,1.45,13.65,1.72,20.53.54,13.82-.17,27.79-2.34,41.46-2.17,13.68-5.8,27.16-11.12,39.98-5.33,12.84-12.3,24.88-21.16,35.65-8.83,10.73-19.37,19.9-31.44,26.86"/>
    <path class="cls-4" d="M384.85,36.43c2.37,1.41,4.7,2.87,6.99,4.38s4.56,3.08,6.79,4.69c4.47,3.23,8.77,6.64,12.95,10.24,4.18,3.59,8.2,7.35,12.08,11.25,3.88,3.91,7.61,7.95,11.19,12.14"/>
    <path class="cls-4" d="M428.53,375.16c-6.21,3.58-12.77,6.54-19.56,8.82-6.81,2.29-13.79,3.87-20.91,4.78"/>
    <path class="cls-4" d="M510.41,249.59c-.9-.25-1.55-1.14-1.7-2.02-.08-.45-.04-.94.18-1.35.23-.42.62-.7,1.1-.75"/>
    <line class="cls-4" x1="296.16" y1="236.92" x2="343.58" y2="231.28"/>
    <path class="cls-4" d="M192.06,136.35c.37-2.82.8-5.64,1.29-8.44.49-2.81,1.04-5.6,1.66-8.38.61-2.78,1.29-5.54,2.04-8.29s1.55-5.48,2.43-8.19c.88-2.71,1.82-5.4,2.83-8.06,1.01-2.66,2.09-5.3,3.24-7.9,2.31-5.22,4.88-10.28,7.77-15.2"/>
    <path class="cls-4" d="M343.3,231.32c-1.63.19-3.26.41-4.88.64"/>
    <path class="cls-4" d="M489.84,50.34c-.25.02-.49.06-.73.13-.19.05-.36.12-.52.23-.1.07-.18.15-.22.27-.02.06-.03.12-.03.19,0,.11.03.21.07.31.11.29.28.53.47.78.26.33.56.63.87.92,1,.93,2.34,1.87,3.47,2.62,2.23,1.48,5.14,3.17,7.46,4.51"/>
    <path class="cls-4" d="M389.38,391.27c-2.44.31-4.89.55-7.35.7-2.47.15-4.94.23-7.42.23s-4.92-.08-7.38-.23c-2.47-.15-4.94-.38-7.4-.68-4.91-.6-9.75-1.47-14.57-2.61-4.81-1.14-9.54-2.53-14.21-4.16-4.67-1.63-9.23-3.49-13.73-5.56-2.24-1.03-4.45-2.11-6.64-3.24-2.2-1.14-4.37-2.32-6.52-3.55-4.29-2.45-8.46-5.08-12.53-7.87-2.03-1.39-4.02-2.82-6-4.29-1.99-1.48-3.95-3-5.88-4.55"/>
    <path class="cls-4" d="M275.68,352.11c-1.6-1.36-3.18-2.74-4.73-4.14-1.56-1.41-3.1-2.84-4.62-4.29-3.04-2.9-5.98-5.89-8.84-8.96-1.43-1.53-2.84-3.09-4.23-4.66-1.39-1.57-2.76-3.17-4.1-4.78-2.69-3.22-5.29-6.51-7.81-9.87-1.26-1.68-2.49-3.37-3.71-5.08-1.22-1.71-2.41-3.44-3.58-5.18-2.34-3.48-4.59-7.02-6.76-10.62-1.08-1.8-2.14-3.61-3.18-5.43s-2.05-3.66-3.05-5.51c-1.99-3.7-3.88-7.44-5.69-11.23"/>
    <path class="cls-4" d="M5.2,181.95c.39,10.88,1.44,21.63,3.13,32.39.42,2.72.89,5.42,1.39,8.12.5,2.7,1.05,5.4,1.63,8.1,1.17,5.4,2.48,10.76,3.95,16.1,1.47,5.34,3.08,10.63,4.84,15.88,1.75,5.21,3.64,10.37,5.67,15.48,2.02,5.07,4.17,10.07,6.47,15.02,2.26,4.88,4.65,9.69,7.18,14.44,1.34,2.5,2.71,4.99,4.12,7.45,1.4,2.44,2.83,4.86,4.3,7.27,2.9,4.72,5.93,9.35,9.11,13.89,3.11,4.43,6.35,8.76,9.74,12.99,3.29,4.11,6.71,8.11,10.27,12,7.63,8.33,15.91,16.13,24.78,23.14,8.28,6.53,17.12,12.39,26.48,17.28,5.11,2.67,10.32,5.03,15.71,7.07,5.2,1.96,10.47,3.59,15.89,4.85,10.36,2.41,20.88,3.36,31.52,2.55,5.3-.4,10.47-1.23,15.63-2.52,5.21-1.31,10.2-3.04,15.1-5.24,5.03-2.26,9.76-4.92,14.32-8.02,2.35-1.6,4.62-3.3,6.82-5.09,2.26-1.85,4.44-3.79,6.54-5.82,3.61-3.49,6.92-7.2,10.03-11.14,3.29-4.17,6.26-8.51,9-13.06,2.9-4.83,5.48-9.79,7.79-14.93,1.21-2.68,2.34-5.4,3.4-8.15,1.09-2.83,2.09-5.67,3.03-8.55,3.25-10,5.6-20.32,7.17-30.71.83-5.52,1.45-11.06,1.87-16.63.43-5.76.65-11.51.67-17.28"/>
    <path class="cls-4" d="M297.97,268.82c-.02,5.93-.25,11.84-.7,17.75-.44,5.73-1.08,11.42-1.95,17.1-1.64,10.7-4.09,21.34-7.47,31.63-3.69,11.24-8.51,22.18-14.64,32.33-1.43,2.37-2.92,4.68-4.49,6.95-1.53,2.22-3.13,4.38-4.79,6.49-3.22,4.08-6.65,7.92-10.38,11.53-2.15,2.09-4.38,4.08-6.7,5.98-2.26,1.85-4.58,3.61-6.98,5.26-4.68,3.22-9.54,6-14.7,8.37-5.03,2.31-10.16,4.16-15.51,5.58-5.28,1.4-10.6,2.33-16.04,2.83-10.99,1.01-21.88.23-32.64-2.09-5.58-1.2-11-2.78-16.37-4.71-5.54-1.99-10.9-4.31-16.15-6.96-9.71-4.89-18.9-10.81-27.51-17.44-2.25-1.73-4.45-3.51-6.63-5.33-2.21-1.85-4.37-3.75-6.49-5.7-2.16-1.98-4.28-3.99-6.36-6.06-2.11-2.09-4.18-4.23-6.21-6.4-15.3-16.4-28.35-35.15-38.98-54.84-2.63-4.87-5.12-9.81-7.47-14.82-2.39-5.09-4.62-10.23-6.72-15.44-2.12-5.25-4.08-10.55-5.9-15.91-.92-2.7-1.79-5.41-2.63-8.13-.84-2.72-1.64-5.45-2.4-8.2-1.52-5.48-2.88-10.98-4.09-16.53-1.2-5.53-2.25-11.08-3.13-16.67-1.75-11.06-2.85-22.12-3.25-33.31"/>
    <path class="cls-4" d="M292.74,268.8c.02-5.56-.15-11.1-.49-16.64-.35-5.65-.87-11.27-1.57-16.89-.71-5.69-1.59-11.34-2.64-16.97-.53-2.83-1.1-5.66-1.71-8.48-.61-2.82-1.27-5.63-1.96-8.43-2.76-11.14-6.14-22.04-10.17-32.79-3.95-10.56-8.46-20.82-13.59-30.87-10.27-20.12-23.04-39.32-38.14-56.18-7.93-8.86-16.57-17.15-25.88-24.56-4.34-3.45-8.81-6.7-13.44-9.74-4.4-2.89-8.92-5.55-13.58-8-10.6-5.55-21.83-9.83-33.56-12.35-10.56-2.26-21.26-3.01-32.04-1.89-2.81.29-5.6.71-8.37,1.25-2.75.54-5.46,1.19-8.14,1.98-5.39,1.58-10.52,3.61-15.53,6.14-2.51,1.27-4.96,2.65-7.35,4.14-2.41,1.51-4.74,3.12-7.02,4.83-2.31,1.75-4.54,3.59-6.69,5.53-2.2,1.98-4.3,4.05-6.33,6.2-7.41,7.88-13.63,16.8-18.74,26.29-2.76,5.13-5.19,10.38-7.34,15.79-2.26,5.68-4.19,11.44-5.83,17.32-1.46,5.22-2.68,10.47-3.7,15.79-1.05,5.51-1.87,11.04-2.48,16.61-.32,2.85-.57,5.71-.78,8.57-.21,2.9-.36,5.8-.47,8.71-.21,5.92-.2,11.83.01,17.76"/>
    <path class="cls-4" d="M.67,182.11c-.22-6.08-.23-12.15-.02-18.24.11-2.99.26-5.97.48-8.95.21-2.94.48-5.88.8-8.81.64-5.73,1.48-11.42,2.57-17.09,1.05-5.48,2.32-10.9,3.83-16.27,1.69-6.02,3.67-11.91,5.99-17.72,2.22-5.55,4.72-10.94,7.56-16.2,1.37-2.53,2.8-5.02,4.33-7.46,1.49-2.39,3.05-4.74,4.69-7.03,3.18-4.46,6.61-8.67,10.37-12.66,4.13-4.39,8.53-8.38,13.32-12.04,4.66-3.55,9.53-6.64,14.73-9.32,10.34-5.33,21.39-8.67,32.93-10.04,11.13-1.32,22.2-.73,33.16,1.43,12.05,2.38,23.62,6.57,34.56,12.08,9.94,5,19.32,11.07,28.1,17.88,9.66,7.49,18.62,15.89,26.85,24.9,15.71,17.2,29.01,36.87,39.69,57.52,2.64,5.1,5.13,10.27,7.46,15.51,1.18,2.65,2.33,5.32,3.43,8.01,1.11,2.7,2.19,5.42,3.23,8.16,4.18,11.05,7.69,22.24,10.56,33.7.72,2.88,1.4,5.77,2.03,8.66.64,2.9,1.23,5.8,1.77,8.71,1.09,5.79,2,11.61,2.73,17.45.72,5.78,1.27,11.57,1.62,17.38.35,5.71.52,11.42.5,17.14"/>
  </g>
  <g id="_图层_4" data-name="图层 4">
    <polygon class="cls-1" points="314.54 269.01 455.78 250.18 456.93 193.28 315.77 207.63 314.54 269.01"/>
    <polygon class="cls-1" points="439.69 161.19 440.36 283.42 499.4 216.34 439.69 161.19"/>
  </g>
</svg>