<?xml version="1.0" encoding="UTF-8"?>
<svg xmlns="http://www.w3.org/2000/svg" viewBox="0 0 434.44 432.21">
  <defs>
    <style>
      .cls-1 {
        stroke-dasharray: 0 0 9.92 9.92;
      }

      .cls-1, .cls-2, .cls-3, .cls-4, .cls-5 {
        stroke: red;
        stroke-miterlimit: 10;
        stroke-width: 4.25px;
      }

      .cls-1, .cls-2, .cls-3, .cls-4, .cls-5, .cls-6 {
        fill: none;
      }

      .cls-2 {
        stroke-dasharray: 0 0 10.24 10.24;
      }

      .cls-7 {
        fill: red;
      }

      .cls-7, .cls-8 {
        stroke-width: 0px;
      }

      .cls-3 {
        stroke-dasharray: 0 0 10.25 10.25;
      }

      .cls-4 {
        stroke-dasharray: 0 0 10.87 10.87;
      }

      .cls-6 {
        stroke: #000;
        stroke-linecap: round;
        stroke-linejoin: round;
      }

      .cls-8 {
        fill: #bfbfbf;
      }
    </style>
  </defs>
  <g id="_图层_3" data-name="图层 3">
    <polygon class="cls-8" points="172.1 169.73 169.01 172.15 165.7 175.25 162.22 178.99 161.56 179.97 161.56 181.13 167.5 187.07 169.86 184.92 170.05 184.83 188.87 203.91 189.6 203.89 195.44 198.33 195.43 197.24 176.69 178.29 178.69 176.14 178.72 175.38 172.93 169.83 172.1 169.73"/>
    <polygon class="cls-8" points="397.14 168.83 400.54 170.94 403.97 174.35 407.63 178.52 407.94 179.28 407.99 179.84 401.7 185.96 399.81 183.54 399.57 183.46 380.52 201.95 379.38 202.61 373.59 196.87 373.55 195.84 392.64 177.09 390.41 175.18 390.35 174.46 396.26 168.96 397.14 168.83"/>
    <polygon class="cls-8" points="167.02 398.94 164.9 397.32 164.29 397.52 158.63 403.14 158.54 404.13 163.15 409.86 168.39 414.49 169.61 414.69 170.64 414.21 176.06 408.69 173.85 405.66 192.74 387.59 192.45 386.26 186.96 380.84 186.28 380.69 167.72 398.87 167.02 398.94"/>
    <polygon class="cls-8" points="380.38 382.31 379.7 382.3 373.73 387.79 373.55 388.76 392.35 408.1 391.5 409.16 390.58 410.54 390.68 411.13 396.49 417.06 397.56 417.23 400.44 415.27 404.65 411.23 407.38 408.01 408.59 405.83 408.04 405.21 402.29 399.5 400.81 400.35 399.47 401.46 384.68 386.65 380.38 382.31"/>
  </g>
  <g id="Make2D::可见线::正切线">
    <path class="cls-6" d="M188.21,151.04v-.09"/>
    <path class="cls-6" d="M358.47,296.72c.41,0,.82,0,1.22,0,.2,0,.41,0,.61-.01.1,0,.2,0,.31,0,.08,0,.15,0,.23-.01.02,0,.04,0,.05,0,0,0,.02,0,.02,0"/>
    <path class="cls-6" d="M206.13,296.35c-.4,0-.79,0-1.19-.01-.2,0-.4,0-.59-.01-.1,0-.2,0-.3-.01-.07,0-.15,0-.22-.01-.02,0-.04,0-.05,0,0,0-.02,0-.02,0"/>
    <line class="cls-6" x1="337.21" y1="297.87" x2="336.72" y2="297.96"/>
    <path class="cls-6" d="M173.24,170.05s-.08,0-.11,0c-.08.03-.15.07-.22.12-.28.17-.53.38-.79.58-.35.28-.69.57-1.02.87-.67.59-1.33,1.2-1.98,1.81-1.3,1.23-2.58,2.48-3.83,3.77"/>
    <path class="cls-6" d="M173.51,95.08c2.56,1.17,4.67,2.93,6.42,5.1"/>
    <path class="cls-6" d="M173.51,95.08c.07.08.13.15.23.19"/>
    <line class="cls-6" x1="369.09" y1="166.84" x2="368.47" y2="166.86"/>
    <line class="cls-6" x1="366.98" y1="166.16" x2="369.35" y2="166.11"/>
    <line class="cls-6" x1="369.19" y1="164.81" x2="368.27" y2="164.83"/>
    <line class="cls-6" x1="368.25" y1="164.26" x2="368.89" y2="164.24"/>
    <line class="cls-6" x1="368.12" y1="166.45" x2="367" y2="166.48"/>
    <line class="cls-6" x1="160.1" y1="79.08" x2="160.2" y2="76.37"/>
    <line class="cls-6" x1="191.59" y1="157.02" x2="191.59" y2="157.24"/>
    <line class="cls-6" x1="377.06" y1="156.35" x2="377.06" y2="156.54"/>
    <path class="cls-6" d="M173.39,94.91s.02.08.05.12"/>
    <line class="cls-6" x1="160.9" y1="76.42" x2="160.85" y2="77.69"/>
    <line class="cls-6" x1="158.43" y1="78.37" x2="158.46" y2="77.57"/>
    <line class="cls-6" x1="199.87" y1="165.35" x2="200.97" y2="165.36"/>
    <line class="cls-6" x1="201.01" y1="165.89" x2="198.69" y2="165.85"/>
    <path class="cls-6" d="M138.2,110.05c-8.91,12.95-22.07,22.43-37.22,26.69-15.15,4.26-31.32,3.03-45.63-3.57"/>
    <path class="cls-6" d="M55.36,133.17h0"/>
    <path class="cls-6" d="M138.2,110.05c3.12-4.54,5.68-9.45,7.61-14.61"/>
    <path class="cls-6" d="M55.35,133.17c-2.56-1.18-5.02-2.51-7.41-4.01"/>
    <path class="cls-6" d="M283.41,175.25s0,0,0,0c0,0,0,0,0,.01v.05s0,.04,0,.06"/>
    <path class="cls-6" d="M380.6,178.06s-.03-.07-.06-.09c-.05-.04-.1-.07-.15-.09-.19-.09-.39-.13-.59-.18-.32-.07-.63-.13-.95-.18-.44-.07-.88-.12-1.32-.18-1.24-.14-2.49-.25-3.74-.34-1.73-.13-3.47-.23-5.21-.32-4.05-.21-8.11-.36-12.16-.49-8.11-.26-16.22-.42-24.34-.54-1.99-.03-3.98-.06-5.97-.08-2.06-.03-4.13-.05-6.2-.07-2.01-.02-4.02-.04-6.02-.05-2.05-.02-4.1-.03-6.15-.04-2.01-.01-4.02-.02-6.03-.03-2.05,0-4.1-.01-6.14-.01-4.06,0-8.11,0-12.17.01"/>
    <path class="cls-6" d="M188.42,178.27c.79-.45,4.88-.79,5.69-.86,1.92-.16,3.84-.29,5.76-.4"/>
    <path class="cls-6" d="M283.41,175.38c-3.98.01-7.96.03-11.94.06-2.01.01-4.02.03-6.03.05-1.97.02-3.94.04-5.91.06-3.98.05-7.96.1-11.94.16-2.02.03-4.04.07-6.06.1-1.96.04-3.92.07-5.88.12-2.05.04-4.1.09-6.14.14-1.93.05-3.86.1-5.8.15-3.98.11-7.96.24-11.94.39s-7.95.32-11.93.56c-1.7.1-3.4.21-5.1.35-1.23.1-2.45.21-3.67.36-.43.05-.86.11-1.29.18-.31.05-.62.11-.93.18-.19.05-.39.1-.57.18-.05.03-.1.05-.15.09-.03.03-.05.05-.06.09"/>
    <path class="cls-6" d="M283.41,175.38c0,3.28-.02,6.56-.06,9.84"/>
    <path class="cls-6" d="M368.13,172.17c.55,0,1-.31,1.34-.7.33-.39.58-.89.76-1.35"/>
    <path class="cls-6" d="M202.59,166.12s0,0,0,0c0,0,0,0,.01,0,0,0,.01,0,.02,0,.01,0,.03,0,.04,0,.03,0,.06,0,.08,0"/>
    <path class="cls-6" d="M199.98,159.76c-.68-.02-1.2.44-1.55.94-.35.51-.6,1.13-.77,1.72-.34,1.18-.48,2.52-.49,3.74"/>
    <path class="cls-6" d="M407.46,180.3s0,0,0,0"/>
    <path class="cls-6" d="M400.32,172.5c.15-.14.3-.27.47-.39.09-.06.17-.11.27-.15.07-.03.22-.08.29-.01"/>
    <line class="cls-6" x1="375.09" y1="198.82" x2="375.34" y2="198.38"/>
    <path class="cls-6" d="M197.17,166.46c.01,1.18.15,2.49.48,3.63.17.57.4,1.18.74,1.68.33.49.83.96,1.48.95"/>
    <path class="cls-6" d="M370.23,170.12c.1,0,.31.02.41.04.13.03.26.08.38.14s.23.14.34.23c.15.14.14.16.25.32"/>
    <path class="cls-6" d="M407.47,180.29s0-.08,0-.1c-.03-.08-.08-.15-.12-.22-.18-.27-.39-.52-.59-.77-.28-.34-.58-.67-.87-1-.59-.66-1.2-1.3-1.81-1.94-1.22-1.28-2.47-2.53-3.75-3.76"/>
    <path class="cls-6" d="M370.94,165.84c.01-1.28-.12-2.7-.47-3.94-.18-.61-.44-1.28-.81-1.81-.37-.53-.92-1.01-1.64-.98"/>
    <path class="cls-6" d="M195.7,166.14c.01-1.43.19-3.01.61-4.39.21-.69.51-1.41.94-2.01.42-.58,1.04-1.11,1.84-1.07.34.02.66.14.94.31.36.22.64.49.9.82.46.57.81,1.26,1.07,1.94.52,1.37.75,2.91.75,4.36"/>
    <path class="cls-6" d="M202.66,167.71c-.15,1.33-.52,2.77-1.17,3.97-.32.6-.74,1.19-1.28,1.62-.55.43-1.24.67-1.94.38-1.24-.52-1.87-2.34-2.13-3.41-.33-1.31-.46-2.78-.45-4.12"/>
    <path class="cls-6" d="M159.93,81.15c.1,0,.2,0,.3,0"/>
    <path class="cls-6" d="M159.93,81.15c-.01.51-.02,1.02,0,1.53"/>
    <path class="cls-6" d="M159.59,74.28s-.02-.11-.02-.12c0-.04,0-.08,0-.12"/>
    <path class="cls-6" d="M366.23,160.39c.33-.66.77-1.33,1.36-1.81.6-.49,1.34-.76,2.12-.44.33.13.59.33.84.59.29.31.52.64.72,1.02.35.66.6,1.41.77,2.14.35,1.44.46,3.05.41,4.52-.06,1.44-.29,3.09-.83,4.46"/>
    <path class="cls-6" d="M371.6,170.86c-.27.68-.66,1.41-1.24,1.9-.64.54-1.38.66-2.14.28-.69-.34-1.22-.98-1.61-1.6-.41-.66-.7-1.35-.93-2.09-.45-1.44-.61-3.03-.53-4.53.08-1.48.41-3.08,1.08-4.43"/>
    <path class="cls-6" d="M197.17,166.16c0,.1,0,.2,0,.3"/>
    <path class="cls-6" d="M153.41,77.52c-.04.72.28,1.34.77,1.83.48.48,1.11.83,1.73,1.08,1.24.5,2.7.71,4.02.72"/>
    <path class="cls-6" d="M370.23,170.12c.5-1.3.69-2.91.71-4.28"/>
    <path class="cls-6" d="M197.17,166.16c-.49,0-.98,0-1.48-.02"/>
    <path class="cls-6" d="M159.56,74.04c.54,0,1.07.03,1.61.1"/>
    <path class="cls-6" d="M202.75,166.11c0,.54-.03,1.07-.09,1.61"/>
    <path class="cls-6" d="M366.28,160.88c.08-.16.03-.35-.05-.49"/>
    <path class="cls-6" d="M159.92,82.68c-1.52-.01-3.17-.26-4.6-.83-.71-.29-1.43-.68-1.99-1.22-.57-.53-1-1.23-1.03-2.04-.03-.82.33-1.54.84-2.13.51-.59,1.18-1.05,1.87-1.4,1.39-.7,3.01-1.01,4.54-1.02"/>
    <path class="cls-6" d="M161.17,74.14c1.42.18,2.91.65,4.12,1.44.61.4,1.18.89,1.58,1.51.41.61.64,1.34.49,2.09-.29,1.51-1.89,2.4-3.11,2.84-1.35.48-2.91.68-4.33.67"/>
    <line class="cls-6" x1="190.53" y1="384.99" x2="190.28" y2="385.44"/>
    <path class="cls-6" d="M36.99,101.28c-14.1,4.05-28.99,4.52-43.32,1.32"/>
    <path class="cls-6" d="M165.75,410.98c-.14.14-.28.26-.45.36-.08.05-.16.1-.26.13-.07.03-.2.06-.28,0"/>
    <path class="cls-6" d="M165.75,410.98c.67.65,1.36,1.28,2.06,1.89.35.31.71.6,1.08.89.19.14.37.28.57.41.14.09.27.17.43.22.05.02.15.05.21,0"/>
    <path class="cls-6" d="M158.85,402.85s-.03.09-.02.13c.01.09.05.16.09.24.13.28.33.56.51.81.26.37.54.72.82,1.07.57.7,1.16,1.37,1.76,2.04,1.21,1.33,2.45,2.61,3.75,3.86"/>
    <path class="cls-6" d="M173.44,95.02s.04.04.07.06"/>
    <path class="cls-6" d="M168.82-61.36c-.06,1.54-.11,3.08-.17,4.63-.05,1.6-.1,3.2-.15,4.81-.1,3.38-.18,6.77-.25,10.15-.06,3.2-.12,6.41-.16,9.61-.04,3.33-.08,6.66-.1,10-.02,3.24-.03,6.48-.04,9.72,0,3.3,0,6.59.02,9.89,0,1.65.02,3.3.03,4.95.01,1.64.03,3.29.04,4.93.03,3.24.08,6.47.13,9.71.03,1.66.06,3.33.09,4.99.03,1.65.07,3.29.1,4.94.07,3.22.15,6.45.25,9.67.1,3.39.21,6.77.34,10.16.12,3.14.25,6.29.4,9.43.08,1.81.17,3.62.27,5.43.09,1.7.19,3.41.29,5.11.18,3.01.39,6.02.63,9.03.2,2.55.43,5.1.7,7.64.21,1.94.44,3.88.74,5.81.11.73.23,1.46.37,2.18.11.57.23,1.14.38,1.7.11.41.23.82.39,1.22.1.24.22.52.39.72"/>
    <path class="cls-6" d="M85.61,95.78c-2.97,0-5.94-.09-8.91-.23-3.15-.15-6.3-.37-9.45-.62-3-.24-5.99-.51-8.99-.8-3.11-.3-6.21-.61-9.31-.92-3.02-.31-6.04-.61-9.06-.91-3.08-.3-6.15-.6-9.23-.88-3.05-.27-6.09-.53-9.14-.77-3.06-.23-6.12-.44-9.19-.63-3.07-.18-6.14-.33-9.22-.45-3.05-.12-6.1-.2-9.15-.25-3.09-.05-6.18-.06-9.27-.04-3.04.02-6.08.08-9.12.18-3.11.1-6.21.23-9.31.39-3.02.16-6.04.35-9.05.57-3.12.22-6.24.47-9.37.74-2.98.25-5.96.52-8.94.79"/>
    <line class="cls-6" x1="334.89" y1="153.54" x2="334.89" y2="153.98"/>
    <path class="cls-6" d="M188.21,136.48c-.07-.07-.11-.13-.12-.23"/>
    <line class="cls-6" x1="146.86" y1="39.94" x2="147.52" y2="39.93"/>
    <line class="cls-6" x1="160.27" y1="80.24" x2="160.23" y2="81.15"/>
    <line class="cls-6" x1="370.07" y1="165.86" x2="370.94" y2="165.84"/>
    <line class="cls-6" x1="198.02" y1="166.48" x2="197.17" y2="166.46"/>
    <path class="cls-6" d="M400.32,172.5c-.69-.67-1.39-1.33-2.11-1.98-.36-.32-.72-.64-1.09-.96-.18-.16-.37-.31-.56-.45-.14-.11-.28-.21-.43-.3-.04-.02-.08-.04-.12-.05-.02,0-.05-.01-.06,0"/>
    <path class="cls-6" d="M165.29,177.2c-.63.65-1.26,1.32-1.87,1.99-.31.34-.61.68-.9,1.03-.15.18-.29.35-.43.53-.1.13-.2.26-.27.41-.02.04-.04.07-.05.12,0,.02-.01.04,0,.06"/>
    <path class="cls-6" d="M160.23,81.15c1.22-.02,2.55-.22,3.7-.67.57-.23,1.15-.54,1.61-.97.46-.43.79-1,.8-1.66"/>
    <path class="cls-6" d="M360.91,296.36c.69-.03,1.39-.03,2.08-.02"/>
    <line class="cls-6" x1="239.17" y1="252.37" x2="232.97" y2="252.39"/>
    <line class="cls-6" x1="239.17" y1="252.37" x2="244.2" y2="252.39"/>
    <line class="cls-6" x1="232.97" y1="252.39" x2="231.77" y2="252.56"/>
    <line class="cls-6" x1="325.62" y1="252.41" x2="320" y2="252.42"/>
    <line class="cls-6" x1="325.62" y1="252.41" x2="331.82" y2="252.43"/>
    <line class="cls-6" x1="198.78" y1="167.13" x2="198.79" y2="167.13"/>
    <line class="cls-6" x1="198.93" y1="165.09" x2="199.55" y2="165.1"/>
    <line class="cls-6" x1="331.82" y1="252.43" x2="332.54" y2="252.6"/>
    <line class="cls-6" x1="325.62" y1="338.66" x2="320.29" y2="338.78"/>
    <line class="cls-6" x1="325.62" y1="338.66" x2="331.82" y2="338.85"/>
    <line class="cls-6" x1="331.82" y1="338.85" x2="332.54" y2="340.7"/>
    <line class="cls-6" x1="239.17" y1="338.28" x2="232.97" y2="338.42"/>
    <line class="cls-6" x1="239.17" y1="338.28" x2="243.91" y2="338.43"/>
    <line class="cls-6" x1="232.97" y1="338.42" x2="231.77" y2="340.25"/>
    <line class="cls-6" x1="199.77" y1="167.65" x2="199.13" y2="167.64"/>
    <line class="cls-6" x1="389.25" y1="296.4" x2="394.03" y2="296.29"/>
    <line class="cls-6" x1="176.06" y1="295.89" x2="171.43" y2="295.75"/>
    <path class="cls-6" d="M201.87,295.95c0-21.33,8.53-41.75,23.69-56.76,15.16-15,35.66-23.34,56.96-23.26,21.31.08,41.76,8.55,56.85,23.6,15.09,15.05,23.63,35.47,23.63,56.81"/>
    <path class="cls-6" d="M363,296.34c0,21.33-8.53,41.75-23.69,56.76-15.16,15.01-35.67,23.34-56.98,23.26-21.3-.08-41.74-8.56-56.83-23.6-15.09-15.05-23.63-35.47-23.63-56.8"/>
    <path class="cls-6" d="M358.47,296.72c0-20.17-8.07-39.48-22.33-53.71-14.27-14.23-33.61-22.25-53.77-22.32-20.14-.07-39.51,7.81-53.84,21.99-14.33,14.19-22.4,33.49-22.4,53.67"/>
    <path class="cls-6" d="M206.13,296.35c0,20.17,8.07,39.48,22.33,53.71,14.27,14.23,33.6,22.24,53.74,22.32,20.15.07,39.53-7.8,53.86-21.99,14.33-14.19,22.4-33.49,22.4-53.67"/>
    <line class="cls-6" x1="352.08" y1="295.48" x2="352.58" y2="295.41"/>
    <path class="cls-6" d="M203.75,295.98c-.63-.02-1.26-.03-1.89-.03"/>
    <line class="cls-6" x1="377.8" y1="384.58" x2="378.25" y2="384.85"/>
    <line class="cls-6" x1="329.27" y1="335.22" x2="329.47" y2="334.89"/>
    <line class="cls-6" x1="323.26" y1="346.12" x2="323.08" y2="346.49"/>
    <line class="cls-6" x1="331.77" y1="255.58" x2="332.12" y2="255.77"/>
    <line class="cls-6" x1="320.77" y1="249.61" x2="320.42" y2="249.42"/>
    <line class="cls-6" x1="235.01" y1="258" x2="234.81" y2="258.35"/>
    <line class="cls-6" x1="240.97" y1="247.11" x2="241.15" y2="246.77"/>
    <line class="cls-6" x1="243.44" y1="343.28" x2="243.78" y2="343.48"/>
    <line class="cls-6" x1="232.53" y1="337.28" x2="232.17" y2="337.11"/>
    <line class="cls-6" x1="242.83" y1="296.38" x2="240.28" y2="296.43"/>
    <line class="cls-6" x1="321.41" y1="296.57" x2="323.95" y2="296.64"/>
    <line class="cls-6" x1="351.5" y1="294.96" x2="352.08" y2="295.48"/>
    <line class="cls-6" x1="321.41" y1="296.57" x2="321.24" y2="296.24"/>
    <line class="cls-6" x1="242.83" y1="296.38" x2="243.16" y2="296.05"/>
    <path class="cls-6" d="M404.37,409.87c.14.14.27.29.38.45.06.08.11.16.15.25.03.06.08.21.02.28"/>
    <path class="cls-6" d="M404.37,409.87c.68-.7,1.36-1.41,2.01-2.15.32-.37.64-.74.95-1.13.15-.19.3-.39.44-.59.1-.14.19-.28.25-.45.02-.04.03-.09.03-.13,0-.03,0-.05-.02-.08"/>
    <path class="cls-6" d="M396.35,416.68s.09.03.12.02c.08-.02.16-.05.23-.09.28-.14.55-.33.79-.51.36-.26.7-.53,1.05-.81.68-.56,1.35-1.14,2-1.73,1.31-1.19,2.58-2.41,3.82-3.68"/>
    <line class="cls-6" x1="191.38" y1="201.83" x2="190.94" y2="201.59"/>
    <path class="cls-6" d="M165.29,177.2c-.14-.14-.27-.29-.38-.46-.05-.09-.1-.17-.14-.27-.03-.07-.07-.21,0-.29"/>
    <path class="cls-6" d="M164.78,176.19s.01-.01.02-.02"/>
    <line class="cls-6" x1="160.94" y1="78.04" x2="160.91" y2="78.86"/>
  </g>
  <g id="Make2D::可见线::曲线">
    <path class="cls-6" d="M158.38,79.46c.18-.19.33-.4.48-.62"/>
    <path class="cls-6" d="M162.54,78.89c-.55.03-1.09.02-1.63-.03"/>
    <path class="cls-6" d="M160.1,79.08c-.14.22-.3.43-.48.62"/>
    <path class="cls-6" d="M158.89,78.76s-.01.06-.03.08"/>
    <path class="cls-6" d="M160.82,77.81s.01-.08.03-.11"/>
    <path class="cls-6" d="M158.38,79.46c.41.11.82.19,1.24.24"/>
    <path class="cls-6" d="M158.43,78.37c.1.03.2.07.29.13.07.05.18.14.17.25"/>
    <path class="cls-6" d="M368.12,166.45s.03,0,.05,0"/>
    <line class="cls-6" x1="368.45" y1="162.56" x2="367.91" y2="162.94"/>
    <path class="cls-6" d="M368.45,162.56c-.21.05-.41.11-.61.17"/>
    <path class="cls-6" d="M369.25,164.81s-.02,0-.03,0"/>
    <path class="cls-6" d="M369.09,166.84c0-.14.02-.27.06-.4.02-.09.09-.3.2-.34"/>
    <path class="cls-6" d="M369.25,164.81c.17-.06.33-.12.49-.22"/>
    <path class="cls-6" d="M369.84,165.89c-.16.09-.32.16-.49.22"/>
    <path class="cls-6" d="M369.09,166.84c-.02.57-.08,1.14-.18,1.7"/>
    <path class="cls-6" d="M369.31,161.84c.37.95.58,2.02.65,3.02"/>
    <path class="cls-6" d="M193.57,200.19c-.64.65-1.3,1.3-1.96,1.93-.33.32-.67.63-1.01.94-.17.15-.34.31-.51.45-.12.1-.25.21-.38.3-.04.03-.07.05-.11.08-.02.01-.04.02-.06.02"/>
    <path class="cls-6" d="M171.89,182.28c-.36.37-.72.75-1.07,1.14-.18.19-.35.39-.52.59-.08.1-.17.2-.25.3-.06.08-.11.15-.16.23,0,.02-.05.08-.03.1"/>
    <path class="cls-6" d="M160.2,76.37s.01-.06.02-.09"/>
    <path class="cls-6" d="M167.41,187.06s.1,0,.12-.01c.1-.04.18-.1.27-.16.12-.08.24-.17.35-.26.23-.18.46-.36.68-.55.45-.38.88-.76,1.32-1.16"/>
    <line class="cls-6" x1="189.53" y1="203.92" x2="188.88" y2="203.91"/>
    <path class="cls-6" d="M189.53,203.92s0-.05,0-.07c.05-.08.1-.15.16-.22.07-.09.15-.18.23-.27.15-.18.31-.35.47-.52.32-.34.65-.68.98-1.02"/>
    <path class="cls-6" d="M188.88,203.91s0,0-.01,0"/>
    <path class="cls-6" d="M195.43,198.11c0,.08-.38.51-.42.55-.15.17-.31.35-.47.52-.32.34-.64.68-.97,1.01"/>
    <path class="cls-6" d="M195.43,197.45s0,0,0,.01"/>
    <path class="cls-6" d="M176.69,178.46c.4-.43.79-.86,1.18-1.3.19-.22.38-.44.56-.67.09-.11.18-.23.26-.35.06-.09.12-.17.16-.26.01-.03.05-.09.02-.12"/>
    <path class="cls-6" d="M162.54,78.89c.15-.22.27-.45.38-.69"/>
    <path class="cls-6" d="M170.94,182.93c-.64.65-1.26,1.31-1.88,1.99-.31.34-.61.68-.9,1.02-.15.17-.29.35-.43.53-.1.13-.2.26-.28.41-.02.04-.04.07-.05.12,0,.02,0,.04,0,.06"/>
    <line class="cls-6" x1="162.54" y1="78.89" x2="162.16" y2="78.21"/>
    <path class="cls-6" d="M393.1,408.42s.05.01.07,0c.05-.01.09-.03.13-.05.16-.08.31-.19.45-.29.2-.15.4-.31.59-.47.39-.32.77-.65,1.14-.99.75-.68,1.47-1.38,2.18-2.1"/>
    <path class="cls-6" d="M190.94,201.59c.72-.73,1.44-1.44,2.18-2.15.37-.35.74-.7,1.12-1.04.19-.17.38-.34.57-.51.14-.12.29-.24.44-.35.04-.03.08-.05.12-.08.01,0,.04-.02.05,0"/>
    <line class="cls-6" x1="167.41" y1="187.06" x2="161.78" y2="181.35"/>
    <path class="cls-6" d="M178.87,175.76s-.08,0-.1,0c-.08.03-.15.08-.22.12-.28.18-.53.38-.78.59-.35.28-.68.58-1.02.87-.67.59-1.33,1.2-1.98,1.81-1.3,1.23-2.58,2.48-3.83,3.77"/>
    <path class="cls-6" d="M176.42,178.18s-.05,0-.06,0c-.05.02-.09.04-.13.07-.16.1-.3.22-.45.34-.2.16-.39.33-.58.5-.38.34-.76.69-1.13,1.04-.74.7-1.47,1.42-2.19,2.15"/>
    <path class="cls-6" d="M390.6,410.85s.09.02.12.02c.08-.02.16-.05.23-.09.28-.14.54-.33.79-.52.36-.26.7-.54,1.04-.82.68-.56,1.34-1.14,2-1.74,1.31-1.19,2.58-2.41,3.81-3.68"/>
    <path class="cls-6" d="M379.7,382.3s.03.05.02.08c-.03.09-.09.16-.15.24-.07.1-.15.2-.23.3-.16.2-.33.38-.5.57-.34.37-.69.74-1.04,1.1"/>
    <path class="cls-6" d="M378.25,384.85c-.71.72-1.43,1.42-2.17,2.1-.37.34-.74.67-1.13,1-.19.16-.39.32-.59.48-.14.11-.29.22-.45.31-.04.02-.08.05-.13.06-.02,0-.05.01-.06,0"/>
    <path class="cls-6" d="M377.8,384.58c-.64.65-1.29,1.28-1.96,1.9-.33.31-.67.61-1.02.9-.17.15-.35.29-.53.43-.14.1-.27.21-.42.29-.04.02-.14.08-.14,0"/>
    <path class="cls-6" d="M158.43,78.37c-.55-.17-1.08-.36-1.61-.6"/>
    <path class="cls-6" d="M243.16,296.05c0,10.34,4.13,20.23,11.45,27.53,7.31,7.29,17.22,11.4,27.55,11.44,10.33.04,20.26-4,27.61-11.27,7.35-7.27,11.48-17.17,11.48-27.51"/>
    <path class="cls-6" d="M351.6,296.16c0-.4-.03-.8-.1-1.2"/>
    <path class="cls-6" d="M393.09,408.41s0,0,0,0"/>
    <path class="cls-6" d="M392.69,408.01c-.4.44-.8.89-1.18,1.35-.19.23-.38.46-.55.71-.09.12-.17.24-.25.37-.05.09-.1.17-.13.27-.01.04-.03.1,0,.14"/>
    <path class="cls-6" d="M242.83,296.38c0,10.4,4.16,20.36,11.52,27.7,7.36,7.34,17.33,11.47,27.72,11.51,10.39.04,20.39-4.03,27.78-11.34,7.39-7.32,11.56-17.28,11.56-27.68"/>
    <path class="cls-6" d="M321.41,296.57c0-7.39-2.1-14.62-6.05-20.87"/>
    <path class="cls-6" d="M373.73,388.79s0-.02,0-.03"/>
    <path class="cls-6" d="M373.72,388.11c0-.18.81-1.08.91-1.18.33-.37.68-.73,1.03-1.08"/>
    <path class="cls-6" d="M240.28,296.43c0,11.08,4.43,21.68,12.27,29.49,7.84,7.81,18.45,12.22,29.51,12.26,11.06.04,21.71-4.29,29.58-12.08,7.87-7.79,12.3-18.39,12.3-29.47"/>
    <line class="cls-6" x1="373.72" y1="388.76" x2="373.72" y2="388.11"/>
    <path class="cls-6" d="M323.95,296.64c0-11.08-4.43-21.68-12.27-29.49-7.84-7.82-18.46-12.22-29.52-12.26-11.06-.04-21.7,4.29-29.57,12.08-7.87,7.79-12.3,18.39-12.3,29.47"/>
    <path class="cls-6" d="M232.17,337.11c-.84,1.54-1.04,3.34-.54,5.02s1.64,3.09,3.17,3.94c1.53.84,3.34,1.05,5.02.57,1.68-.48,3.11-1.62,3.95-3.15"/>
    <line class="cls-6" x1="396.35" y1="416.68" x2="390.6" y2="410.85"/>
    <path class="cls-6" d="M231.77,340.25c0-1.04.26-2.06.76-2.97"/>
    <path class="cls-6" d="M243.44,343.28c-1.37,2.49-4.26,3.72-7,3-2.74-.71-4.67-3.19-4.67-6.03"/>
    <path class="cls-6" d="M404.91,410.85c-1.28,1.31-2.59,2.57-3.97,3.78-.63.55-1.44,1.24-2.13,1.73-.34.24-.78.54-1.2.65-.2.05-.39.06-.6.02-.25-.05-.48-.17-.66-.35"/>
    <path class="cls-6" d="M232.53,337.28c.09-.16.18-.31.28-.46"/>
    <path class="cls-6" d="M380.36,382.31s.02,0,.03,0"/>
    <path class="cls-6" d="M231.77,252.56c0-3.32,2.61-6.04,5.93-6.19"/>
    <path class="cls-6" d="M235.01,258c-1.99-1.09-3.23-3.17-3.23-5.44"/>
    <line class="cls-6" x1="379.7" y1="382.3" x2="380.36" y2="382.31"/>
    <path class="cls-6" d="M402.27,399.52s-.1-.02-.14-.01c-.1.03-.19.07-.28.12-.13.07-.26.15-.38.24-.25.17-.49.35-.72.53-.47.37-.93.75-1.38,1.14"/>
    <path class="cls-6" d="M331.77,255.58c-1.64,2.97-5.35,4.09-8.36,2.55"/>
    <line class="cls-6" x1="402.27" y1="399.52" x2="408.02" y2="405.35"/>
    <path class="cls-6" d="M332.54,252.6c0,1.04-.26,2.07-.77,2.99"/>
    <path class="cls-6" d="M408.02,405.35c.2.21.33.47.35.76.03.3-.04.56-.17.83-.22.44-.68,1.02-.99,1.39-.68.82-1.56,1.76-2.31,2.52"/>
    <path class="cls-6" d="M332.54,340.7c0,2.21-1.18,4.24-3.09,5.35-1.91,1.11-4.26,1.13-6.19.07"/>
    <path class="cls-6" d="M397.66,404.52c.39-.4.78-.81,1.15-1.22.19-.21.37-.42.54-.64.09-.11.17-.22.25-.34.06-.08.11-.16.15-.25.01-.03.04-.09,0-.12"/>
    <path class="cls-6" d="M398.59,404.02c.68-.7,1.36-1.41,2.01-2.14.32-.37.64-.74.95-1.12.15-.19.3-.39.44-.59.1-.14.19-.28.26-.44.02-.04.03-.08.04-.13,0-.03,0-.05-.02-.08"/>
    <path class="cls-6" d="M337.21,297.87c.14.85.43,1.68.85,2.43"/>
    <path class="cls-6" d="M375.66,385.85c.63-.64,1.28-1.27,1.94-1.88.33-.3.67-.6,1.01-.9.1-.08.92-.78,1.09-.78"/>
    <path class="cls-6" d="M336.72,297.96c.35,2.1,1.52,3.97,3.24,5.2,1.73,1.24,3.87,1.74,5.97,1.41,2.1-.33,3.98-1.48,5.23-3.19,1.25-1.72,1.76-3.86,1.42-5.96"/>
    <path class="cls-6" d="M352.08,295.48c-.28-1.72-1.16-3.29-2.48-4.43"/>
    <line class="cls-6" x1="198.83" y1="167.11" x2="199.7" y2="167.13"/>
    <line class="cls-6" x1="154.19" y1="95.15" x2="153.32" y2="95.16"/>
    <path class="cls-6" d="M173.39,94.81c.09.11.22.23.37.23"/>
    <path class="cls-6" d="M153.32,95.16c.11.11.26.23.43.22"/>
    <path class="cls-6" d="M176.06,295.89c0,28.22,11.29,55.24,31.26,75.16,19.97,19.91,47.01,31.13,75.2,31.23,28.19.1,55.32-10.92,75.38-30.77,20.06-19.85,31.35-46.87,31.35-75.1"/>
    <path class="cls-6" d="M198.83,167.11c.1,0,.18.15.21.22.04.1.07.2.09.3"/>
    <path class="cls-6" d="M171.43,295.75c0,29.47,11.78,57.68,32.64,78.47,20.85,20.79,49.09,32.5,78.52,32.61,29.44.11,57.77-11.41,78.71-32.13,20.94-20.73,32.73-48.94,32.73-78.41"/>
    <line class="cls-6" x1="199.62" y1="163.74" x2="199.11" y2="163.43"/>
    <path class="cls-6" d="M232.97,338.42c0,2.61,1.67,4.94,4.14,5.78,2.47.85,5.21.04,6.81-2.04"/>
    <path class="cls-6" d="M198.67,170.12c-.31-.85-.48-1.79-.54-2.68"/>
    <path class="cls-6" d="M198.93,165.09c.02-.56.08-1.11.18-1.66"/>
    <path class="cls-6" d="M198.22,166.18c.14-.14.3-.24.46-.33"/>
    <path class="cls-6" d="M198.78,167.13c-.17.09-.33.19-.47.33"/>
    <path class="cls-6" d="M199.56,169.31c-.18-.55-.33-1.1-.43-1.67"/>
    <path class="cls-6" d="M199.71,163.18c-.21.07-.4.15-.59.25"/>
    <path class="cls-6" d="M198.93,165.09c0,.14-.02.27-.06.41-.02.09-.09.3-.19.36"/>
    <path class="cls-6" d="M232.97,252.39c0,1.8.8,3.51,2.18,4.66,1.38,1.16,3.2,1.64,4.97,1.33"/>
    <path class="cls-6" d="M380.4,177.78s.09.06.12.1"/>
    <path class="cls-6" d="M380.6,178.06c.36,3.2.7,6.4,1.02,9.61"/>
    <path class="cls-6" d="M331.82,338.85c0-.44-.05-.86-.14-1.29"/>
    <path class="cls-6" d="M331.82,252.43c0-3.07-2.29-5.65-5.32-6.06"/>
    <path class="cls-6" d="M315.24,275.5c-5.4-8.55-13.91-14.67-23.73-17.09-9.81-2.42-20.19-.97-28.95,4.09"/>
    <path class="cls-6" d="M262.35,262.62c-12.07,6.97-19.52,19.81-19.52,33.76"/>
    <line class="cls-6" x1="338.62" y1="301.16" x2="338.18" y2="300.58"/>
    <path class="cls-6" d="M338.62,301.16c2.08,2.75,5.78,3.74,8.96,2.41,3.19-1.33,5.06-4.67,4.5-8.09"/>
    <path class="cls-6" d="M243.51,343.15s-.04.08-.07.13"/>
    <line class="cls-6" x1="323.4" y1="258.13" x2="322.87" y2="257.86"/>
    <line class="cls-6" x1="240.65" y1="258.27" x2="239.6" y2="258.55"/>
    <path class="cls-6" d="M239.6,258.55c-1.54.41-3.19.22-4.59-.55"/>
    <line class="cls-6" x1="349.05" y1="290.58" x2="349.6" y2="291.05"/>
    <path class="cls-6" d="M332.11,338.44c.28.72.43,1.48.43,2.26"/>
    <line class="cls-6" x1="326.2" y1="246.34" x2="326.8" y2="246.39"/>
    <path class="cls-6" d="M326.8,246.39c3.23.27,5.74,2.96,5.74,6.21"/>
    <line class="cls-6" x1="237.7" y1="246.36" x2="238.79" y2="246.31"/>
    <path class="cls-6" d="M338.41,300.86c2.01,2.4,5.3,3.3,8.25,2.26,2.95-1.04,4.94-3.82,4.94-6.96"/>
    <path class="cls-6" d="M200.52,166.52s0-.04,0-.07"/>
    <path class="cls-6" d="M320.03,341.21c1.15,2.67,4.02,4.17,6.87,3.6,2.85-.56,4.93-3.05,4.93-5.97"/>
    <path class="cls-6" d="M323.14,257.99c1.9.86,4.1.7,5.86-.42,1.76-1.12,2.83-3.05,2.83-5.14"/>
    <path class="cls-6" d="M233.48,335.98c-.34.77-.51,1.6-.51,2.44"/>
    <path class="cls-6" d="M238.25,246.36c-3.01.41-5.27,2.98-5.27,6.03"/>
    <path class="cls-6" d="M243.78,343.48c.84-1.54,1.04-3.34.54-5.02s-1.64-3.1-3.17-3.94c-1.53-.84-3.34-1.05-5.02-.57-1.68.48-3.11,1.62-3.95,3.15"/>
    <path class="cls-6" d="M241.15,246.77c-3.2-1.74-7.21-.58-8.97,2.62-1.76,3.2-.57,7.21,2.63,8.96"/>
    <path class="cls-6" d="M234.81,258.35c3.2,1.75,7.22.58,8.97-2.62,1.76-3.2.57-7.21-2.63-8.96"/>
    <path class="cls-6" d="M320.42,249.42c-1.77,3.23-.56,7.25,2.67,9,3.22,1.74,7.26.57,9.03-2.64"/>
    <path class="cls-6" d="M332.12,255.77c1.77-3.23.56-7.25-2.67-9-3.22-1.74-7.26-.57-9.03,2.64"/>
    <path class="cls-6" d="M323.08,346.49c1.54.85,3.36,1.05,5.06.57,1.7-.48,3.13-1.62,3.99-3.16.85-1.54,1.05-3.36.55-5.05-.5-1.69-1.65-3.11-3.2-3.96"/>
    <path class="cls-6" d="M329.47,334.89c-1.54-.84-3.36-1.05-5.06-.57-1.69.48-3.13,1.62-3.98,3.16s-1.05,3.36-.55,5.05c.5,1.69,1.65,3.11,3.2,3.96"/>
    <path class="cls-6" d="M349.6,291.05c-2.39-2.07-5.82-2.45-8.6-.94-2.78,1.52-4.31,4.62-3.79,7.75"/>
    <path class="cls-6" d="M262.35,262.62c-11.88,6.95-19.19,19.65-19.19,33.43"/>
    <path class="cls-6" d="M336.73,295.34c-.09.86-.03,1.74.18,2.58"/>
    <line class="cls-6" x1="390.11" y1="174.47" x2="395.95" y2="168.76"/>
    <path class="cls-6" d="M161.78,181.35c-.19-.19-.31-.45-.33-.72-.03-.29.04-.53.17-.78.2-.39.69-.97.97-1.29.7-.82,1.45-1.6,2.2-2.37"/>
    <path class="cls-6" d="M360.91,296.67c0,10.3-2.04,20.49-6.01,30-3.97,9.5-9.78,18.12-17.1,25.37-7.32,7.24-15.99,12.97-25.53,16.86-9.54,3.89-19.74,5.87-30.04,5.83-10.3-.04-20.49-2.09-30-6.04s-18.16-9.72-25.45-16.99c-7.29-7.27-13.08-15.9-17.04-25.4-3.96-9.51-6-19.7-6-30"/>
    <path class="cls-6" d="M367.31,165.31c0,.12,0,.24,0,.36"/>
    <path class="cls-6" d="M367.01,171.77c0,.07-.02.13-.03.2"/>
    <line class="cls-6" x1="200.99" y1="166.32" x2="200.99" y2="166.26"/>
    <path class="cls-6" d="M186.98,188.88c.34-3.43.71-6.85,1.09-10.27"/>
    <path class="cls-6" d="M183.63,245.35c.08-7.43.33-14.85.71-22.27s.9-14.82,1.53-22.23"/>
    <line class="cls-6" x1="199.78" y1="165.87" x2="199.78" y2="165.36"/>
    <line class="cls-6" x1="216.79" y1="155.1" x2="216.79" y2="154.56"/>
    <path class="cls-6" d="M199.56,169.31c.2-.08.4-.16.59-.25"/>
    <path class="cls-6" d="M153.75,95.39c.18,0,.32-.12.43-.24"/>
    <path class="cls-6" d="M368.3,168.72c.21-.04.41-.1.61-.17"/>
    <path class="cls-6" d="M395.95,168.76c.2-.2.47-.32.76-.34.17-.01.33,0,.5.06.11.04.21.08.31.14.39.22,1.01.75,1.34,1.03.85.74,1.67,1.52,2.48,2.3"/>
    <path class="cls-6" d="M389.25,296.4c0-28.22-11.29-55.24-31.26-75.16-19.97-19.91-47.02-31.13-75.21-31.23-28.19-.1-55.32,10.93-75.37,30.77-20.06,19.85-31.35,46.87-31.35,75.1"/>
    <path class="cls-6" d="M394.45,178.23c-.69-.67-1.39-1.33-2.1-1.98-.36-.33-.71-.65-1.08-.96-.18-.16-.37-.31-.56-.46-.14-.11-.28-.22-.43-.31-.04-.02-.08-.04-.12-.06-.02,0-.04-.01-.06,0"/>
    <path class="cls-6" d="M167.51,9c-.08-6.34-.12-12.68-.12-19.03"/>
    <path class="cls-6" d="M166.88,174.08c-5.31-.52-10.61-1.16-15.89-1.91-2.67-.38-5.33-.79-8-1.22-2.6-.43-5.2-.88-7.79-1.37-10.42-1.95-20.93-4.44-31.06-7.61-5.18-1.62-10.04-3.35-15.04-5.47-2.52-1.07-5.01-2.21-7.46-3.43-2.32-1.15-4.61-2.37-6.87-3.65-4.65-2.65-9.1-5.55-13.38-8.76-2.5-1.87-4.92-3.83-7.28-5.88-1.67-1.45-3.31-2.94-4.93-4.45"/>
    <path class="cls-6" d="M378.83-22.8c1.74,59.76,1.74,119.51,1.74,179.28"/>
    <path class="cls-6" d="M200.57,165.37s0,0,0-.01"/>
    <path class="cls-6" d="M382.72,199.6c.74,8.78,1.33,17.57,1.72,26.38.19,4.4.34,8.81.42,13.21.09,4.41.12,8.81.08,13.22"/>
    <path class="cls-6" d="M370.01,165.86c0,1.16-.16,2.42-.55,3.52"/>
    <path class="cls-6" d="M160.28,74.05c-.11.07-.21.15-.31.23"/>
    <path class="cls-6" d="M148.14,63.99c.15.64.5,2.09.95,2.65"/>
    <path class="cls-6" d="M377.13,156.55s0-.03,0-.05"/>
    <line class="cls-6" x1="351.46" y1="154.03" x2="351.46" y2="154.58"/>
    <path class="cls-6" d="M165.96,76.76c.04.42-.06.81-.26,1.18"/>
    <path class="cls-6" d="M188.13,157.31v-6.36"/>
    <path class="cls-6" d="M189.02,157.74c-.24-.07-.47-.14-.68-.26"/>
    <line class="cls-6" x1="148.22" y1="69.53" x2="148.61" y2="69.99"/>
    <path class="cls-6" d="M-5.4,102.73c13.45,2.81,27.37,2.39,40.64-1.16"/>
    <path class="cls-6" d="M159.85,76.91c.35.24.72.41,1.11.55"/>
    <path class="cls-6" d="M153.22,95.05c-.12.15-.3.34-.53.34"/>
    <path class="cls-6" d="M188.09,157.21c0-.07.05-.13.09-.17.08-.08.18-.13.28-.17.15-.07.31-.12.47-.17.22-.07.44-.12.66-.17.63-.14,1.26-.25,1.9-.34.88-.13,1.76-.24,2.65-.34,2.5-.28,5-.48,7.5-.66,3.42-.24,6.84-.43,10.27-.6,8.04-.4,16.08-.67,24.12-.89,8.05-.22,16.09-.37,24.14-.49,8.05-.11,16.09-.18,24.14-.21,4.06-.02,8.11-.02,12.17-.02,3.99,0,7.98.02,11.97.05,8.05.05,16.09.15,24.14.31,8.05.16,16.09.37,24.13.7,3.42.14,6.85.31,10.27.53,2.51.16,5.01.34,7.51.6.89.09,1.77.19,2.65.32.64.09,1.27.19,1.9.33.22.05.45.1.66.17.16.05.32.1.47.17.1.05.2.09.28.17.05.04.09.1.09.17"/>
    <line class="cls-6" x1="153.41" y1="77.52" x2="153.41" y2="77.52"/>
    <path class="cls-6" d="M377.13,156.5c0-.07-.04-.11-.08-.15-.07-.07-.15-.11-.24-.15-.13-.06-.27-.11-.4-.15-.19-.06-.38-.11-.58-.15-.56-.13-1.13-.23-1.7-.31-.82-.12-1.63-.22-2.45-.31-2.41-.26-4.83-.44-7.25-.59-3.43-.22-6.87-.39-10.3-.53-7.76-.33-15.51-.53-23.27-.68-15.16-.29-31.42-.38-46.58-.32-15.15.06-31.4.27-46.55.68-7.76.21-15.51.47-23.27.85-3.44.17-6.88.36-10.31.61-2.42.18-4.83.37-7.24.65-.82.09-1.63.2-2.45.33-.57.09-1.13.19-1.69.32-.19.05-.39.1-.58.16-.14.04-.27.09-.4.16-.09.04-.17.09-.24.15-.05.04-.08.08-.08.15"/>
    <path class="cls-6" d="M148.63,59.59c-.82-11.05-1.33-23.59-1.64-34.66-.32-11.57-.48-23.14-.48-34.71"/>
    <path class="cls-6" d="M190.33,157.39s-.06-.02-.07-.02c-.07-.01-.13-.02-.2-.02-.09,0-.18-.01-.28-.01-.18,0-.37-.01-.55-.02-.37,0-.74,0-1.11,0"/>
    <path class="cls-6" d="M173.75,95.27c-.13-.06-.22-.15-.31-.25"/>
    <path class="cls-6" d="M203.97,156.11c-.01-.27-.03-.54-.04-.81"/>
    <path class="cls-6" d="M192.73,387.44s-.09,0-.11-.01c-.09-.04-.16-.09-.24-.14-.11-.08-.21-.16-.32-.24-.21-.17-.41-.34-.61-.52-.4-.35-.78-.72-1.17-1.09"/>
    <path class="cls-6" d="M175.82,408.8s.03-.1.02-.14c-.02-.1-.07-.19-.11-.27-.07-.13-.15-.26-.23-.38-.16-.25-.34-.49-.52-.72-.36-.47-.74-.93-1.13-1.38"/>
    <path class="cls-6" d="M166.98,399.73s-.02.05-.01.07c0,.05.03.09.05.14.08.17.19.31.29.46.15.21.31.41.47.61.33.4.66.78,1.01,1.16.69.76,1.4,1.49,2.14,2.2"/>
    <path class="cls-6" d="M164.57,397.25s-.03.09-.02.13c.02.09.05.16.09.24.14.28.33.55.51.81.26.36.54.71.83,1.06.57.69,1.16,1.37,1.76,2.03,1.21,1.33,2.46,2.61,3.75,3.86"/>
    <path class="cls-6" d="M192.74,386.76s-.04.04-.07.03c-.08-.02-.16-.08-.23-.13-.1-.07-.2-.14-.29-.22-.19-.15-.37-.31-.55-.47-.36-.32-.71-.65-1.06-.99"/>
    <path class="cls-6" d="M190.28,385.44c-.73-.71-1.45-1.44-2.14-2.2-.35-.38-.69-.76-1.02-1.15-.16-.2-.33-.39-.48-.6-.11-.15-.22-.29-.31-.46-.02-.04-.05-.08-.06-.13,0-.02-.01-.05,0-.07"/>
    <path class="cls-6" d="M145.92-10.79c0,16.67.3,34.55.96,51.21.33,8.3.79,17.28,1.41,25.57.32,4.26.69,8.51,1.18,12.75.18,1.52.37,3.04.59,4.56.18,1.21.38,2.43.61,3.63.18.9.37,1.78.62,2.66.09.32.19.65.31.96.09.25.19.49.31.72"/>
    <path class="cls-6" d="M190.53,384.99c-.66-.65-1.31-1.31-1.94-1.99-.31-.34-.62-.69-.92-1.04-.15-.18-.29-.36-.43-.54-.1-.13-.21-.28-.29-.43-.02-.04-.07-.14,0-.14"/>
    <path class="cls-6" d="M167.42,399.3c-.44-.4-.89-.79-1.35-1.16-.23-.19-.47-.37-.71-.54-.12-.09-.25-.17-.38-.24-.09-.05-.17-.09-.27-.12-.04-.01-.1-.02-.14.01"/>
    <path class="cls-6" d="M152.7,95.39c-22.2.15-44.41.3-66.62.38"/>
    <path class="cls-6" d="M152.7,95.39c-.16,0-.3-.09-.41-.2-.17-.17-.3-.39-.41-.6-.17-.32-.29-.66-.41-1-.16-.46-.29-.93-.41-1.4-.34-1.32-.58-2.65-.81-4-.31-1.84-.56-3.7-.78-5.55-.25-2.04-.46-4.09-.66-6.14-.23-2.41-.43-4.81-.62-7.22-.67-8.67-1.15-18.13-1.5-26.81-.36-8.94-.61-17.89-.77-26.84-.17-8.95-.25-17.9-.25-26.85"/>
    <path class="cls-6" d="M186.28,380.84s.02-.01.03-.01"/>
    <path class="cls-6" d="M186.96,380.84c.19,0,1.03.75,1.13.84.35.31.7.64,1.04.97"/>
    <line class="cls-6" x1="186.31" y1="380.83" x2="186.96" y2="380.84"/>
    <line class="cls-6" x1="158.85" y1="402.85" x2="164.57" y2="397.25"/>
    <path class="cls-6" d="M164.77,411.48c-1.28-1.23-2.66-2.66-3.83-3.99-.56-.64-1.25-1.46-1.74-2.15-.24-.34-.54-.79-.66-1.21-.06-.2-.07-.4-.04-.61.04-.26.16-.49.35-.67"/>
    <path class="cls-6" d="M192.74,387.41s0,.02-.01.03"/>
    <path class="cls-6" d="M208.65,154.75c-.02.36-.03.73-.05,1.09"/>
    <line class="cls-6" x1="192.74" y1="386.76" x2="192.74" y2="387.41"/>
    <path class="cls-6" d="M188.39,175.59c-3.42-.15-6.83-.34-10.25-.58"/>
    <path class="cls-6" d="M375.09,198.82c.65.64,1.29,1.28,1.92,1.93.31.33.63.65.94.99.15.17.31.33.46.51.11.13.23.26.33.4.02.03.05.06.06.1,0,.01.01.03,0,.03"/>
    <path class="cls-6" d="M398.9,183.79c.43.4.87.8,1.31,1.19.22.19.45.39.68.57.11.09.23.18.35.27.09.06.17.12.27.17.02.01.09.05.12.02"/>
    <line class="cls-6" x1="175.82" y1="408.8" x2="170.1" y2="414.4"/>
    <path class="cls-6" d="M372.9,196.19s.08.03.09.04c.08.06.16.12.24.19.11.09.21.18.31.27.2.18.41.37.61.55.4.37.79.76,1.19,1.14"/>
    <line class="cls-6" x1="407.47" y1="180.29" x2="401.62" y2="186.01"/>
    <line class="cls-6" x1="154.19" y1="95.15" x2="173.39" y2="94.81"/>
    <path class="cls-6" d="M170.1,414.4c-.2.19-.46.31-.73.34-.29.03-.54-.03-.8-.15-.44-.2-.99-.63-1.36-.92-.79-.64-1.71-1.49-2.45-2.19"/>
    <path class="cls-6" d="M170.93,404.36c.38.37.77.73,1.18,1.08.2.17.41.35.62.51.11.08.21.16.32.23.08.05.15.1.24.13.03.01.09.03.12,0"/>
    <path class="cls-6" d="M171.49,405.37c.67.65,1.35,1.28,2.06,1.9.35.31.71.61,1.08.89.19.14.37.28.57.41.14.09.27.17.42.23.05.02.15.06.2,0"/>
    <path class="cls-6" d="M189.13,382.66c.66.64,1.29,1.29,1.91,1.96.31.34.61.68.91,1.03.09.11.78.93.78,1.12"/>
    <line class="cls-6" x1="368.13" y1="172.18" x2="368.13" y2="172.18"/>
    <path class="cls-6" d="M188.09,158.27c0,.08.06.14.12.19"/>
    <path class="cls-6" d="M367.56,165.92c0,.05,0,.11,0,.16"/>
    <path class="cls-6" d="M166.34,77.85c.01-.69-.52-1.34-.98-1.74-.51-.44-1.14-.81-1.75-1.07-1.25-.53-2.67-.77-4.02-.76"/>
    <line class="cls-6" x1="380.29" y1="177.83" x2="380.5" y2="157.7"/>
    <path class="cls-6" d="M380.5,157.7s.07-.08.07-.15"/>
    <path class="cls-6" d="M49.19,130.33c-.42-.39-.83-.78-1.24-1.17"/>
    <path class="cls-6" d="M399.15,183.54s0-.04,0-.06c-.02-.04-.05-.08-.07-.12-.11-.15-.22-.3-.34-.44-.16-.19-.33-.38-.5-.57-.34-.37-.69-.74-1.03-1.11-.7-.73-1.41-1.45-2.14-2.15"/>
    <path class="cls-6" d="M401.62,186.01s0-.08-.01-.1c-.03-.08-.08-.14-.13-.21-.18-.27-.39-.52-.6-.77-.29-.34-.58-.67-.88-1-.59-.66-1.2-1.3-1.81-1.94-1.22-1.28-2.47-2.53-3.74-3.76"/>
    <path class="cls-6" d="M401.34,171.95c1.31,1.27,2.6,2.56,3.85,3.9.62.67,1.24,1.34,1.82,2.04.24.29.62.76.75,1.14.07.2.09.4.05.61-.04.25-.16.48-.34.65"/>
    <path class="cls-6" d="M375.34,198.38c.72.71,1.43,1.42,2.13,2.14.35.36.7.73,1.04,1.1.17.19.34.37.51.56.12.14.25.28.36.43.03.04.06.08.08.12,0,0,.02.04.01.05"/>
    <line class="cls-6" x1="380.58" y1="157.55" x2="380.36" y2="177.88"/>
    <path class="cls-6" d="M380.29,177.77c-.07-.05-.14-.08-.22-.11-.12-.05-.24-.08-.37-.11-.4-.1-.81-.17-1.22-.23-.63-.09-1.26-.16-1.9-.23-.87-.09-1.74-.16-2.6-.23-2.46-.19-4.92-.32-7.38-.44-3.4-.16-6.8-.29-10.2-.39-8-.25-16-.41-24-.53-15.63-.23-32.4-.3-48.03-.25-15.64.04-32.41.21-48.05.53-8,.16-16.01.37-24.01.66-3.36.13-6.72.27-10.08.44-2.45.13-4.9.27-7.34.47-.87.07-1.74.15-2.62.24-.64.07-1.29.14-1.93.24-.43.06-.85.13-1.27.23-.13.03-.27.07-.4.11-.09.03-.17.06-.25.11"/>
    <path class="cls-6" d="M379.47,202.78s0,0,0,0"/>
    <path class="cls-6" d="M202.59,166.12c0-1.19-.17-2.43-.53-3.57-.19-.58-.42-1.13-.74-1.65-.16-.26-.34-.5-.56-.71-.14-.14-.28-.25-.46-.34-.1-.05-.2-.08-.32-.09"/>
    <path class="cls-6" d="M378.8,202.78s-.02,0-.03-.01c-.02-.01-.04-.03-.06-.04-.07-.05-.14-.11-.2-.16-.09-.08-.19-.16-.28-.24-.18-.16-.37-.33-.54-.5-.36-.34-.71-.68-1.07-1.02"/>
    <path class="cls-6" d="M366.28,160.88c-.88,1.8-1.11,4.13-.89,6.07.11,1.01.35,2.06.75,3,.2.48.44.93.76,1.35.2.26.44.52.73.7.15.09.31.17.5.17"/>
    <path class="cls-6" d="M372.9,196.2s0,0,0,0"/>
    <path class="cls-6" d="M199.88,172.73c.12,0,.22-.03.32-.08.19-.09.34-.22.49-.36.23-.22.41-.47.58-.74.34-.54.58-1.11.77-1.71.38-1.18.55-2.47.55-3.71"/>
    <path class="cls-6" d="M372.9,196.85s0-.01.02,0c.02,0,.04.02.05.03.08.05.15.11.23.17.09.08.19.16.28.24.18.16.37.33.55.5.36.34.72.68,1.07,1.03"/>
    <line class="cls-6" x1="372.9" y1="196.85" x2="372.9" y2="196.2"/>
    <path class="cls-6" d="M390.11,174.47s.01.1.02.12c.05.1.11.18.17.27.09.12.18.24.27.35.18.23.37.45.57.68.39.44.78.88,1.18,1.31"/>
    <line class="cls-6" x1="368.65" y1="163.21" x2="368.65" y2="165.89"/>
    <line class="cls-6" x1="368.65" y1="166.12" x2="368.65" y2="168.39"/>
    <line class="cls-6" x1="199.86" y1="165.35" x2="199.86" y2="165.87"/>
    <line class="cls-6" x1="199.86" y1="166.04" x2="199.86" y2="169.11"/>
    <line class="cls-6" x1="367.32" y1="165.67" x2="367.32" y2="166.63"/>
    <path class="cls-6" d="M200.99,166.26c0-.15,0-.31.01-.46"/>
    <path class="cls-6" d="M395.06,179.09c-.39-.38-.79-.76-1.2-1.13-.2-.19-.41-.37-.62-.55-.1-.09-.21-.18-.32-.26-.08-.06-.16-.12-.24-.17-.02,0-.08-.05-.1-.03"/>
    <line class="cls-6" x1="368.7" y1="163.39" x2="368.7" y2="165.89"/>
    <line class="cls-6" x1="368.7" y1="166.12" x2="368.7" y2="168.42"/>
    <line class="cls-6" x1="199.78" y1="169.16" x2="199.78" y2="166.05"/>
    <path class="cls-6" d="M376.61,200.8c-.65-.63-1.28-1.27-1.91-1.93-.31-.33-.63-.65-.93-.98-.15-.17-.31-.33-.45-.5-.11-.12-.21-.24-.31-.37-.03-.03-.05-.07-.08-.11-.01-.02-.03-.03-.03-.06"/>
    <path class="cls-6" d="M380.52,177.88c.04.05.07.11.08.18"/>
    <line class="cls-6" x1="198.22" y1="166.18" x2="201.01" y2="165.95"/>
    <path class="cls-6" d="M198.22,166.18c0,.43.04.85.1,1.27"/>
    <path class="cls-6" d="M199.87,165.35s-.05.01-.07.01"/>
    <line class="cls-6" x1="199.56" y1="169.31" x2="200.11" y2="168.94"/>
    <path class="cls-6" d="M199.71,163.18c-.1.55-.16,1.1-.18,1.66"/>
    <path class="cls-6" d="M199.87,165.35c.36-.12.72-.23,1.08-.32"/>
    <path class="cls-6" d="M201.05,166.3c-.36.1-.72.2-1.08.32"/>
    <path class="cls-6" d="M199.72,167.39c.11.57.25,1.12.43,1.67"/>
    <path class="cls-6" d="M200.65,172.32c-.53-.07-.96-.44-1.26-.84-.31-.4-.54-.89-.72-1.37"/>
    <line class="cls-6" x1="200.97" y1="165.38" x2="199.8" y2="165.36"/>
    <path class="cls-6" d="M199.8,165.36c-.12,0-.19-.11-.23-.2-.04-.11-.05-.21-.05-.32"/>
    <path class="cls-6" d="M198.67,170.12c-.92-2.52-.87-5.3.15-7.78"/>
    <path class="cls-6" d="M198.82,162.34c.31-.76.96-1.96,1.96-2.12"/>
    <path class="cls-6" d="M380.38,382.31s0,.09-.02.11c-.04.09-.1.17-.16.25-.08.11-.17.22-.26.33-.18.21-.36.42-.55.63-.37.41-.76.81-1.15,1.21"/>
    <path class="cls-6" d="M179.94,100.18c-1.69-2.1-3.72-3.78-6.19-4.9"/>
    <path class="cls-6" d="M157.19,77.08c-.13.23-.25.46-.38.69"/>
    <line class="cls-6" x1="157.33" y1="77.14" x2="156.82" y2="77.77"/>
    <path class="cls-6" d="M188.09,136.23c0-6.12-.34-12.66-1.4-18.72-.53-3.04-1.28-6.18-2.33-9.09-1.05-2.9-2.47-5.81-4.43-8.24"/>
    <path class="cls-6" d="M161.29,78.16c-.11,0-.21-.03-.3-.09-.09-.06-.16-.15-.16-.26"/>
    <path class="cls-6" d="M188.33,157.31v.17"/>
    <path class="cls-6" d="M160.1,79.08c.07-.11.26-.17.38-.2.14-.03.29-.04.43-.03"/>
    <line class="cls-6" x1="160.2" y1="76.37" x2="159.62" y2="79.7"/>
    <path class="cls-6" d="M157.19,77.08c.52.23,1.06.43,1.61.6"/>
    <path class="cls-6" d="M159.61,77.45c.18-.39.35-.79.5-1.19"/>
    <path class="cls-6" d="M161.36,76.5c-.16.4-.32.8-.5,1.19"/>
    <path class="cls-6" d="M161.29,78.16c.54.05,1.08.06,1.63.03"/>
    <path class="cls-6" d="M165.7,77.94c-.57,1.05-1.87,1.65-2.91,1.95-1.14.32-2.39.41-3.56.31-1.16-.1-2.4-.4-3.43-.97-.52-.28-1.02-.65-1.39-1.12-.37-.47-.61-1.04-.54-1.66"/>
    <line class="cls-6" x1="158.93" y1="77.71" x2="158.89" y2="78.76"/>
    <line class="cls-6" x1="160.82" y1="77.81" x2="160.88" y2="76.42"/>
    <path class="cls-6" d="M191.48,157.2s0,.03,0,.05"/>
    <path class="cls-6" d="M380.58,156.48c0,.07-.03.11-.07.15"/>
    <line class="cls-6" x1="369.84" y1="165.89" x2="366.98" y2="166.13"/>
    <path class="cls-6" d="M369.84,165.89c0-.44-.04-.87-.1-1.3"/>
    <line class="cls-6" x1="368.38" y1="168.23" x2="368.91" y2="168.54"/>
    <path class="cls-6" d="M368.3,168.72c.1-.56.16-1.13.18-1.7"/>
    <path class="cls-6" d="M368.12,166.45c-.37.09-.74.16-1.11.23"/>
    <path class="cls-6" d="M366.91,165.39c.37-.07.74-.15,1.11-.23"/>
    <path class="cls-6" d="M368.28,164.42c-.11-.57-.25-1.13-.44-1.69"/>
    <path class="cls-6" d="M368.45,162.56c.19.55.33,1.11.44,1.69"/>
    <path class="cls-6" d="M367.19,159.56c.55.07,1.01.46,1.33.86.34.42.6.92.79,1.42"/>
    <line class="cls-6" x1="367" y1="166.47" x2="368.17" y2="166.45"/>
    <path class="cls-6" d="M368.17,166.45c.13,0,.21.11.26.22.05.12.06.23.05.35"/>
    <line class="cls-6" x1="369.22" y1="164.81" x2="368.27" y2="164.84"/>
    <path class="cls-6" d="M369.22,164.81c-.11,0-.2-.17-.23-.24-.05-.11-.08-.22-.1-.33"/>
    <path class="cls-6" d="M369.31,161.84c.95,2.42,1,5.09.15,7.54"/>
    <path class="cls-6" d="M369.46,169.38c-.18.52-.43,1.05-.76,1.49-.32.43-.79.84-1.37.9"/>
    <path class="cls-6" d="M191.38,201.83c.65-.66,1.3-1.3,1.97-1.94.33-.32.67-.63,1.01-.94.17-.15.34-.31.52-.46.13-.11.27-.23.41-.33.03-.02.06-.05.1-.06.01,0,.03-.01.03,0"/>
    <path class="cls-6" d="M188.87,203.91s.03-.08.03-.09c.05-.08.11-.15.17-.23.08-.1.17-.2.25-.3.17-.19.35-.39.52-.58.35-.38.72-.75,1.08-1.12"/>
    <path class="cls-6" d="M380.5,156.63c-.18.18-.65.33-.87.39"/>
    <path class="cls-6" d="M338.06,300.3c.17.3.36.59.56.86"/>
    <path class="cls-6" d="M244.2,340.3c0,.99-.24,1.97-.69,2.84"/>
    <path class="cls-6" d="M244.2,252.56c0,2.81-1.89,5.26-4.6,5.99"/>
    <path class="cls-6" d="M240.97,247.11c1.99,1.09,3.24,3.17,3.24,5.45"/>
    <path class="cls-6" d="M320,252.59c0-1.04.26-2.07.77-2.98"/>
    <path class="cls-6" d="M320.77,249.61c1.2-2.17,3.57-3.43,6.03-3.22"/>
    <path class="cls-6" d="M329.27,335.22c1.29.71,2.3,1.85,2.84,3.22"/>
    <path class="cls-6" d="M320,340.64c0-2.21,1.18-4.24,3.08-5.35,1.91-1.11,4.26-1.13,6.19-.07"/>
    <path class="cls-6" d="M188.33,157.48c.33,0,.67,0,1-.01.17,0,.33-.01.5-.02.08,0,.17,0,.25-.01.06,0,.12-.01.19-.02,0,0,.06,0,.06-.02"/>
    <path class="cls-6" d="M352.58,295.41c-.35-2.1-1.52-3.96-3.25-5.2-1.73-1.24-3.87-1.74-5.97-1.41-2.1.33-3.98,1.48-5.23,3.19-1.25,1.72-1.76,3.86-1.42,5.96"/>
    <path class="cls-6" d="M188.13,157.31s-.04-.06-.04-.1"/>
    <path class="cls-6" d="M188.21,151.04s-.06-.06-.08-.09"/>
    <path class="cls-6" d="M246.4,226.81c-12.82,6.53-23.6,16.46-31.13,28.73-7.53,12.26-11.52,26.36-11.52,40.75"/>
    <path class="cls-6" d="M315.36,275.7c-5.43-8.6-14-14.76-23.88-17.2-9.87-2.44-20.32-.97-29.14,4.11"/>
    <path class="cls-6" d="M323.26,346.12c-1.53-.84-2.64-2.27-3.07-3.96"/>
    <path class="cls-6" d="M320.19,342.16c-.13-.5-.19-1-.19-1.52"/>
    <path class="cls-6" d="M323.4,258.13c-2.08-1.06-3.4-3.2-3.4-5.54"/>
    <path class="cls-6" d="M232.81,336.82c1.53-2.28,4.37-3.27,6.98-2.47,2.61.8,4.41,3.22,4.41,5.95"/>
    <path class="cls-6" d="M237.7,246.36c1.14-.05,2.27.21,3.27.75"/>
    <path class="cls-6" d="M188.09,157.21c0-6.99,0-13.98,0-20.98"/>
    <path class="cls-6" d="M173.44,95.02c-.18-.22-.31-.51-.42-.77-.16-.4-.28-.81-.39-1.23-.15-.56-.27-1.13-.39-1.7-.14-.72-.27-1.45-.38-2.18-.3-1.92-.53-3.85-.74-5.78-.27-2.53-.5-5.06-.7-7.59-.24-3.02-.45-6.03-.63-9.05-.21-3.5-.4-6.99-.57-10.49-.31-6.52-.55-13.04-.75-19.57-.05-1.59-.09-3.17-.13-4.76-.04-1.62-.08-3.24-.12-4.86-.08-3.32-.14-6.64-.2-9.96-.03-1.62-.05-3.23-.07-4.85-.02-1.63-.04-3.26-.06-4.89-.04-3.28-.06-6.56-.08-9.84,0-1.65-.01-3.29-.02-4.94,0-1.64,0-3.28,0-4.92,0-3.24.01-6.48.03-9.72.08-12.69.32-26.47.82-39.15"/>
    <path class="cls-6" d="M86.06,95.77c-5.63.02-11.22.28-16.83.78-2.96.26-5.91.59-8.85.97-2.62.34-5.24.72-7.85,1.13-2.68.42-5.35.87-8.02,1.34-2.86.49-5.71,1-8.57,1.47-2.56.42-5.13.82-7.7,1.17-2.99.4-5.99.72-9,.94-5.66.4-11.17.42-16.83,0-3.16-.23-6.3-.6-9.43-1.07-2.42-.36-4.84-.78-7.24-1.23-2.73-.51-5.46-1.05-8.19-1.59-1.35-.26-2.7-.52-4.05-.77-1.43-.27-2.87-.52-4.3-.77-2.45-.42-4.9-.83-7.36-1.18-3.1-.45-6.21-.81-9.33-1.09"/>
    <line class="cls-6" x1="55.35" y1="133.17" x2="-13.61" y2="101.39"/>
    <line class="cls-6" x1="372.91" y1="196.19" x2="392.58" y2="176.95"/>
    <line class="cls-6" x1="379.46" y1="202.78" x2="378.8" y2="202.78"/>
    <line class="cls-6" x1="399.15" y1="183.54" x2="379.47" y2="202.78"/>
    <path class="cls-6" d="M152.34-96.3c-.22,0-.39.17-.51.32-.23.29-.39.66-.51,1-.21.57-.37,1.14-.51,1.73-.2.83-.36,1.66-.51,2.5-.19,1.09-.35,2.19-.5,3.29-.18,1.36-.34,2.72-.48,4.09-.37,3.49-.64,6.98-.88,10.48-.25,3.74-.46,7.49-.63,11.24-.2,4.27-.36,8.54-.49,12.81-.25,8.03-.39,16.05-.47,24.08-.08,8.03-.08,16.06-.03,24.09.11,15.68.49,32.49,1.19,48.15.19,4.28.41,8.55.67,12.83.23,3.74.48,7.48.79,11.21.27,3.27.57,6.54.94,9.8.27,2.41.58,4.8.98,7.19.15.87.31,1.74.5,2.6.14.66.3,1.31.49,1.95.14.46.28.9.48,1.34.12.26.27.55.47.76"/>
    <path class="cls-6" d="M167.86,4.83c.14,14.7.48,30.47,1.09,45.16.3,7.31.7,15.27,1.23,22.56.27,3.76.58,7.51,1,11.26.16,1.48.35,2.96.56,4.43.16,1.1.34,2.19.56,3.27.15.73.32,1.45.55,2.16.08.23.16.46.27.69.07.16.15.3.26.44"/>
    <path class="cls-6" d="M159.59,74.28c-1.23,0-2.51.23-3.65.71-.57.24-1.13.56-1.6.96-.43.37-.89.94-.93,1.57"/>
    <line class="cls-6" x1="188.21" y1="158.45" x2="188.42" y2="178.37"/>
    <line class="cls-6" x1="188.3" y1="178.43" x2="188.09" y2="158.27"/>
    <path class="cls-6" d="M380.58,157.55c0-.07-.03-.11-.08-.15-.07-.07-.15-.11-.24-.16-.13-.06-.27-.11-.41-.16-.2-.06-.39-.11-.59-.16-.58-.13-1.16-.23-1.75-.32-.84-.13-1.69-.23-2.54-.32-2.5-.27-5.01-.45-7.52-.61-3.57-.23-7.14-.4-10.71-.55-8.04-.33-16.08-.54-24.13-.69-15.71-.3-32.57-.39-48.28-.33-15.71.06-32.56.27-48.26.69-8.04.21-16.08.48-24.12.88-3.57.17-7.14.37-10.71.63-2.51.18-5.02.38-7.52.67-.85.1-1.69.2-2.54.34-.59.09-1.17.19-1.75.33-.2.05-.4.1-.59.16-.14.05-.28.1-.41.16-.09.04-.17.09-.24.16-.05.04-.08.09-.08.15"/>
    <path class="cls-6" d="M368.02,159.11c-.41.02-.82.42-1.05.69-.28.33-.5.69-.69,1.08"/>
    <line class="cls-6" x1="192.72" y1="387.45" x2="173.41" y2="406.33"/>
    <line class="cls-6" x1="166.98" y1="399.73" x2="186.28" y2="380.84"/>
    <path class="cls-6" d="M199.78,157.2c0-.06.03-.1.07-.14.06-.06.14-.1.21-.14.27-.13.59-.22.89-.29.51-.12,1.02-.21,1.54-.29.74-.12,1.48-.21,2.23-.3,2.19-.25,4.39-.43,6.59-.59,3.12-.23,6.25-.4,9.38-.56,7.05-.35,14.1-.59,21.16-.78,13.79-.37,28.58-.57,42.37-.62,13.79-.05,28.59.03,42.38.29,7.06.14,14.12.32,21.18.62,3.13.13,6.26.28,9.39.49,2.2.14,4.4.3,6.6.54.75.08,1.49.17,2.23.28.52.08,1.03.16,1.54.28.29.07.61.15.89.28.08.04.15.08.21.14.04.04.07.08.07.14"/>
    <path class="cls-6" d="M188.07,178.61c.02-.18.18-.28.32-.35.19-.09.39-.14.59-.19.31-.07.61-.13.92-.18.42-.07.85-.13,1.27-.18,1.2-.15,2.4-.25,3.6-.35,1.66-.13,3.32-.24,4.98-.34,3.98-.23,7.96-.41,11.95-.56,7.96-.3,15.93-.51,23.9-.67,1.96-.04,3.91-.08,5.87-.11,2.03-.04,4.06-.07,6.08-.1,1.97-.03,3.94-.06,5.91-.08,2.02-.03,4.03-.05,6.05-.07,1.98-.02,3.96-.04,5.94-.06,2.01-.02,4.01-.03,6.02-.05,3.98-.03,7.97-.05,11.95-.06"/>
    <path class="cls-6" d="M283.41,175.25c4.05-.01,8.09-.02,12.14-.01,4.05,0,8.09.01,12.14.03,4.05.02,8.09.05,12.14.08,2.06.02,4.12.04,6.17.06,1.99.02,3.98.05,5.96.08,8.09.12,16.18.27,24.27.53,4.04.13,8.09.27,12.13.48,1.61.08,3.21.18,4.82.29,1.21.09,2.41.18,3.62.31.8.08,1.6.17,2.39.32.25.05.5.1.74.17.16.05.32.1.47.19"/>
    <path class="cls-6" d="M198.78,167.13s.03-.01.05-.01"/>
    <path class="cls-6" d="M201.05,166.3c-.05-.42-.08-.85-.1-1.28"/>
    <path class="cls-6" d="M199.72,167.39c-.03-.15-.03-.28,0-.43.03-.12.1-.29.24-.34"/>
    <line class="cls-6" x1="173.76" y1="95.04" x2="153.75" y2="95.39"/>
    <line class="cls-6" x1="380.38" y1="382.31" x2="399.76" y2="401.95"/>
    <line class="cls-6" x1="393.1" y1="408.42" x2="373.73" y2="388.79"/>
    <path class="cls-6" d="M159.61,77.45c-.07.14-.22.22-.36.25-.16.03-.3.02-.45-.02"/>
    <path class="cls-6" d="M161.36,76.5c-.42-.07-.83-.15-1.24-.24"/>
    <path class="cls-6" d="M366.91,165.39c.05.43.08.87.1,1.3"/>
    <path class="cls-6" d="M368.28,164.42c.03.14.03.28,0,.42-.03.12-.11.28-.25.32"/>
    <line class="cls-6" x1="188.87" y1="203.91" x2="169.86" y2="184.64"/>
    <path class="cls-6" d="M164.78,176.19c1.28-1.32,2.59-2.61,3.95-3.86.68-.62,1.36-1.24,2.08-1.82.3-.24.77-.61,1.15-.74.2-.07.39-.09.6-.06.25.04.49.16.67.34"/>
    <line class="cls-6" x1="173.24" y1="170.05" x2="178.87" y2="175.76"/>
    <line class="cls-6" x1="195.44" y1="197.46" x2="195.43" y2="198.11"/>
    <line class="cls-6" x1="176.42" y1="178.18" x2="195.43" y2="197.45"/>
    <line class="cls-6" x1="149.16" y1="66.73" x2="148.28" y2="65.85"/>
    <path class="cls-6" d="M203.75,296.29c0,20.81,8.32,40.72,23.04,55.4,14.72,14.68,34.66,22.95,55.44,23.02,20.78.08,40.78-8.05,55.57-22.68,14.79-14.63,23.11-34.55,23.11-55.36"/>
    <path class="cls-6" d="M394.03,296.29c0-29.47-11.78-57.68-32.64-78.47-20.85-20.79-49.09-32.5-78.53-32.61-29.43-.11-57.76,11.41-78.7,32.13-20.94,20.73-32.73,48.94-32.73,78.41"/>
    <path class="cls-6" d="M203.75,296.29c0-10.3,2.04-20.49,6.01-30,3.97-9.5,9.78-18.12,17.1-25.37,14.78-14.63,34.78-22.76,55.57-22.69,10.3.04,20.49,2.09,30,6.04,9.51,3.95,18.16,9.72,25.45,16.99,7.29,7.27,13.08,15.9,17.04,25.41,3.96,9.51,6,19.7,6,30"/>
  </g>
  <g id="_图层_4" data-name="图层 4">
    <g>
      <line class="cls-5" x1="368.32" y1="207.38" x2="372.65" y2="203.23"/>
      <line class="cls-3" x1="380.04" y1="196.13" x2="405.91" y2="171.28"/>
      <line class="cls-5" x1="409.61" y1="167.73" x2="413.93" y2="163.57"/>
      <polygon class="cls-7" points="375.98 211.78 359.52 215.84 364.23 199.55 375.98 211.78"/>
    </g>
    <g>
      <line class="cls-5" x1="197.48" y1="205.85" x2="193.22" y2="201.62"/>
      <line class="cls-1" x1="186.19" y1="194.62" x2="161.58" y2="170.13"/>
      <line class="cls-5" x1="158.06" y1="166.63" x2="153.81" y2="162.4"/>
      <polygon class="cls-7" points="201.7 198.09 206.13 214.46 189.74 210.12 201.7 198.09"/>
    </g>
    <g>
      <line class="cls-5" x1="192.94" y1="382.45" x2="188.53" y2="386.51"/>
      <line class="cls-2" x1="181" y1="393.44" x2="154.63" y2="417.71"/>
      <line class="cls-5" x1="150.87" y1="421.17" x2="146.45" y2="425.24"/>
      <polygon class="cls-7" points="185.37 377.89 201.92 374.18 196.86 390.37 185.37 377.89"/>
    </g>
    <g>
      <line class="cls-5" x1="371.9" y1="381.18" x2="376.19" y2="385.37"/>
      <line class="cls-4" x1="383.97" y1="392.97" x2="411.18" y2="419.57"/>
      <line class="cls-5" x1="415.06" y1="423.37" x2="419.35" y2="427.56"/>
      <polygon class="cls-7" points="367.75 388.98 363.17 372.65 379.6 376.85 367.75 388.98"/>
    </g>
  </g>
</svg>