<?xml version="1.0" encoding="UTF-8"?>
<svg xmlns="http://www.w3.org/2000/svg" viewBox="0 0 572.06 557.5">
  <defs>
    <style>
      .cls-1 {
        fill: red;
      }

      .cls-1, .cls-2 {
        stroke-width: 0px;
      }

      .cls-3, .cls-4, .cls-5 {
        fill: none;
      }

      .cls-3, .cls-5 {
        stroke: red;
        stroke-miterlimit: 10;
        stroke-width: 4.25px;
      }

      .cls-4 {
        stroke: #000;
        stroke-linecap: round;
        stroke-linejoin: round;
      }

      .cls-2 {
        fill: #bfbfbf;
      }

      .cls-5 {
        stroke-dasharray: 0 0 13.05 13.05;
      }
    </style>
  </defs>
  <g id="_图层_3" data-name="图层 3">
    <polygon class="cls-2" points="289.28 155.06 288.74 155.83 291.51 165.08 292.16 165.51 295.62 164.58 303.57 189.03 304.34 189.83 313.55 186.94 313.59 185.81 305.95 161.3 309.65 159.91 306.53 150.27 305.23 149.87 296.4 152.42 289.28 155.06"/>
    <polygon class="cls-2" points="427.15 155.06 427.7 155.83 424.92 165.08 424.27 165.51 420.82 164.58 412.87 189.03 412.1 189.83 402.88 186.94 402.84 185.81 410.48 161.3 406.78 159.91 409.91 150.27 411.21 149.87 420.03 152.42 427.15 155.06"/>
    <polygon class="cls-2" points="551.12 287.4 550.8 288.29 541.6 291.24 540.88 290.94 539.69 287.57 515.03 294.87 513.94 294.69 511.11 285.45 512.01 284.78 536.54 277.2 535.59 273.36 545.3 270.48 546.37 271.32 549.27 280.04 551.12 287.4"/>
    <polygon class="cls-2" points="166.19 282.86 166.48 283.75 175.55 287.07 176.28 286.8 177.6 283.48 201.95 291.76 203.05 291.63 206.25 282.51 205.37 281.81 181.17 273.24 182.27 269.45 172.68 266.18 171.58 266.97 168.34 275.57 166.19 282.86"/>
    <polygon class="cls-2" points="285.76 523.67 285.21 522.9 287.99 513.66 289.26 512.49 292.11 513.1 300.04 489.7 300.81 488.9 310.02 491.8 310.06 492.92 303.13 516.68 306.13 518.83 303 528.46 301.7 528.87 292.88 526.31 285.76 523.67"/>
    <polygon class="cls-2" points="425.66 526.24 426.2 525.47 423.43 516.22 422.15 515.05 419.31 515.67 411.37 492.27 410.6 491.47 401.39 494.37 401.35 495.49 408.29 519.25 405.29 521.4 408.41 531.03 409.71 531.43 418.54 528.88 425.66 526.24"/>
    <polygon class="cls-2" points="550.89 395.15 550.59 394.24 541.37 390.77 540.63 391.03 539.31 394.36 514.56 385.68 513.45 385.8 510.27 394.94 511.16 395.66 535.77 404.63 534.69 408.44 544.43 411.87 545.54 411.08 548.77 402.46 550.89 395.15"/>
    <polygon class="cls-2" points="165.51 388.7 165.84 387.82 175.02 384.86 175.75 385.16 176.94 388.53 201.59 381.21 202.69 381.39 205.53 390.62 204.62 391.29 180.1 398.9 181.05 402.74 171.34 405.63 170.27 404.79 167.37 396.07 165.51 388.7"/>
  </g>
  <g id="Make2D::可见线::正切线">
    <path class="cls-4" d="M246.68,150.34c-.07-.03-.17-.1-.18-.19"/>
    <path class="cls-4" d="M246.79,199.56c.29-.12,2.72-.21,3-.22,1-.04,2.01-.07,3.01-.1,2.01-.06,4.01-.1,6.02-.14"/>
    <path class="cls-4" d="M357.68,198.57c-4.63,0-9.27.01-13.9.03-2.34,0-4.68.01-7.02.02-2.29,0-4.59.02-6.88.03-2.34,0-4.69.02-7.03.03-2.29.01-4.58.02-6.87.04-2.35.01-4.7.03-7.05.04-2.28.01-4.56.03-6.84.05-9.27.06-18.53.14-27.8.26-4.63.06-9.27.12-13.9.21-2.01.04-4.02.08-6.03.13-1.45.04-2.9.08-4.34.14-.87.03-1.74.07-2.61.14-.22.02-.44.03-.66.07-.06,0-.11.02-.17.03-.01,0-.06.01-.06.03"/>
    <path class="cls-4" d="M418.96,528.08c.06.2.12.41.16.61.02.1.04.21.05.31,0,.05,0,.11,0,.16,0,.04,0,.12-.06.14"/>
    <line class="cls-4" x1="213.34" y1="84.28" x2="213.47" y2="81.11"/>
    <line class="cls-4" x1="214.26" y1="81.26" x2="214.2" y2="82.71"/>
    <line class="cls-4" x1="211.37" y1="83.48" x2="211.4" y2="82.57"/>
    <line class="cls-4" x1="260" y1="185.39" x2="261.27" y2="185.4"/>
    <line class="cls-4" x1="261.31" y1="185.94" x2="258.63" y2="185.92"/>
    <line class="cls-4" x1="406.04" y1="187.54" x2="414.52" y2="162.24"/>
    <line class="cls-4" x1="538.78" y1="398.17" x2="548.04" y2="401.29"/>
    <path class="cls-4" d="M548.04,401.29c.41-1.3.81-2.6,1.16-3.91.18-.66.34-1.32.49-1.98.07-.33.14-.67.19-1,.04-.24.07-.48.06-.72,0-.06,0-.12-.03-.19-.01-.03-.02-.06-.06-.08"/>
    <path class="cls-4" d="M548.04,401.29c.21.07.42.15.62.24.1.04.2.09.3.15.05.03.1.06.14.09.03.02.11.08.1.13"/>
    <line class="cls-4" x1="250.66" y1="174.6" x2="250.66" y2="174.83"/>
    <line class="cls-4" x1="468.62" y1="174.17" x2="468.63" y2="174.3"/>
    <path class="cls-4" d="M262.24,345.84c-.7-.04-1.4-.06-2.09-.06"/>
    <line class="cls-4" x1="306.61" y1="491.05" x2="306.52" y2="491.66"/>
    <path class="cls-4" d="M434.69,301.9c-12.13-21.02-32.04-36.47-55.38-43.08-23.34-6.6-48.39-3.87-69.7,7.79"/>
    <path class="cls-4" d="M309.62,266.61c-14.35,7.85-26.33,19.4-34.67,33.48-8.34,14.07-12.72,30.13-12.71,46.48"/>
    <path class="cls-4" d="M295.15,527.52s-.02-.01-.03-.02"/>
    <path class="cls-4" d="M444.13,347.84c.48,0,.97,0,1.45,0,.24,0,.48-.01.73-.02.12,0,.24-.01.36-.02.09,0,.18-.02.27-.03.01,0,.08-.01.08-.03"/>
    <path class="cls-4" d="M265.01,346.73c-.46,0-.93-.01-1.39-.03-.23,0-.46-.02-.7-.03-.12,0-.23-.02-.35-.03-.09,0-.17-.02-.26-.03-.01,0-.08-.01-.08-.03"/>
    <line class="cls-4" x1="419.09" y1="349.08" x2="418.52" y2="349.2"/>
    <path class="cls-4" d="M124.2,102.46c-6.99.02-14.17-.36-21.13-.86-3.46-.25-6.92-.54-10.38-.84-3.57-.31-7.15-.64-10.72-.97-3.48-.33-6.96-.65-10.44-.97-3.54-.32-7.09-.64-10.63-.94-3.51-.29-7.02-.57-10.53-.82-3.53-.25-7.05-.48-10.58-.67-3.54-.19-7.08-.36-10.62-.48-3.51-.13-7.02-.22-10.53-.27-3.56-.05-7.12-.07-10.68-.04-3.5.02-7,.09-10.5.19-3.58.1-7.15.24-10.72.41-3.48.17-6.95.37-10.42.6-3.6.23-7.2.5-10.79.77-3.43.26-6.86.54-10.3.82"/>
    <path class="cls-4" d="M295.76,526.47c-.07.2-.14.39-.23.58-.05.09-.09.19-.15.28-.03.04-.06.09-.1.12-.03.03-.08.08-.13.07"/>
    <path class="cls-4" d="M295.76,526.47c1.23.39,2.47.76,3.73,1.06.63.15,1.26.29,1.9.4.32.05.64.1.96.12.22.01.43.02.65-.03.09-.02.22-.05.26-.16"/>
    <line class="cls-4" x1="298.77" y1="517.49" x2="295.76" y2="526.47"/>
    <line class="cls-4" x1="306.52" y1="491.66" x2="298.12" y2="516.76"/>
    <path class="cls-4" d="M285.26,521.59c-.02.06,0,.11.03.17.05.09.11.16.18.22.23.23.54.42.81.59.42.25.85.48,1.29.7.88.44,1.77.83,2.68,1.2,1.81.75,3.65,1.41,5.52,2"/>
    <path class="cls-4" d="M166.48,387.24c-.05.02-.08.07-.1.12-.03.09-.04.18-.05.28-.02.34.02.71.07,1.04.06.49.15.98.25,1.46.2.97.43,1.93.68,2.89.51,1.92,1.08,3.81,1.72,5.69"/>
    <path class="cls-4" d="M169.05,398.72c-.21.06-.42.12-.63.15-.11.02-.21.03-.32.03-.07,0-.26,0-.29-.1"/>
    <path class="cls-4" d="M547.54,277.74c-.43-1.27-.87-2.54-1.33-3.8-.23-.63-.47-1.26-.72-1.88-.13-.31-.25-.62-.39-.93-.1-.23-.2-.45-.33-.66-.03-.05-.06-.1-.11-.15-.01-.02-.04-.05-.07-.04"/>
    <path class="cls-4" d="M306.88,150.82s-.08-.02-.1-.02c-.09,0-.18.02-.27.04-.36.06-.71.15-1.06.24-.47.12-.94.25-1.41.38-.94.26-1.88.54-2.81.82-1.87.56-3.73,1.15-5.58,1.75"/>
    <line class="cls-4" x1="307.51" y1="188.16" x2="299.46" y2="162.9"/>
    <path class="cls-4" d="M295.65,154.03c-.07-.22-.13-.44-.17-.67-.02-.11-.03-.23-.04-.34,0-.06,0-.12.01-.17,0-.05.02-.12.08-.14"/>
    <path class="cls-4" d="M457.67,193.71c.68,0,1.23-.37,1.65-.85.41-.47.72-1.09.94-1.66"/>
    <path class="cls-4" d="M548.87,277.55s0,0,0,.01"/>
    <path class="cls-4" d="M461.1,186.14c.01-1.48-.14-3.12-.56-4.55-.21-.71-.51-1.48-.95-2.08-.44-.61-1.07-1.15-1.9-1.12"/>
    <path class="cls-4" d="M255.16,186.13c.01-1.67.21-3.52.71-5.13.25-.8.6-1.65,1.12-2.33.52-.68,1.27-1.24,2.21-1.09.4.06.73.22,1.06.46.4.28.72.62,1.01,1.01.52.68.91,1.49,1.2,2.29.59,1.61.86,3.4.86,5.1"/>
    <path class="cls-4" d="M263.23,188.31c-.18,1.55-.6,3.24-1.37,4.63-.38.69-.88,1.38-1.54,1.85-.69.49-1.49.66-2.28.24-1.37-.73-2.06-2.82-2.37-4.1-.37-1.53-.53-3.25-.51-4.82"/>
    <path class="cls-4" d="M455.45,180.02c.39-.78.9-1.57,1.58-2.15.68-.58,1.54-.96,2.47-.67.4.13.72.34,1.03.63.36.34.64.73.89,1.16.43.77.74,1.65.95,2.5.77,3.11.72,7.53-.49,10.57"/>
    <path class="cls-4" d="M461.87,192.06c-.32.8-.78,1.66-1.44,2.26-.72.64-1.58.87-2.5.5-.84-.34-1.49-1.08-1.97-1.8-.5-.77-.86-1.58-1.13-2.45-.54-1.7-.74-3.57-.65-5.34.09-1.75.48-3.63,1.27-5.22"/>
    <path class="cls-4" d="M205.49,82.46c-.05.85.36,1.56.94,2.11.57.54,1.33.94,2.05,1.21,1.46.56,3.16.79,4.7.8"/>
    <path class="cls-4" d="M213.18,86.58c0,.44-.02,1.34,0,1.78"/>
    <line class="cls-4" x1="538.25" y1="280.61" x2="547.54" y2="277.74"/>
    <line class="cls-4" x1="511.83" y1="289.58" x2="512.35" y2="289.33"/>
    <line class="cls-4" x1="512.35" y1="289.33" x2="538.28" y2="281.32"/>
    <path class="cls-4" d="M212.64,78.58c.63,0,1.26.03,1.88.11"/>
    <path class="cls-4" d="M213.17,88.36c-1.76-.01-3.68-.28-5.34-.91-.83-.32-1.67-.75-2.35-1.34-.68-.59-1.22-1.37-1.28-2.32-.06-.95.37-1.79.97-2.47.6-.67,1.39-1.2,2.19-1.59,1.62-.79,3.5-1.14,5.28-1.15"/>
    <path class="cls-4" d="M214.52,78.69c1.64.21,3.37.73,4.8,1.61.71.44,1.39,1,1.89,1.69.49.69.8,1.52.64,2.4-.16.87-.72,1.55-1.39,2.07-.67.52-1.46.89-2.26,1.16-1.57.54-3.38.75-5.02.74"/>
    <line class="cls-4" x1="458.88" y1="187.45" x2="458.13" y2="187.46"/>
    <line class="cls-4" x1="456.36" y1="186.6" x2="459.18" y2="186.58"/>
    <line class="cls-4" x1="457.72" y1="187.04" x2="456.39" y2="187.05"/>
    <path class="cls-4" d="M547.54,277.74c.22-.07.44-.13.66-.17.11-.02.22-.04.34-.05.06,0,.11,0,.17,0,.04,0,.14,0,.16.05"/>
    <line class="cls-4" x1="457.86" y1="184.42" x2="458.64" y2="184.41"/>
    <path class="cls-4" d="M213.18,86.58c.12,0,.24,0,.36,0"/>
    <path class="cls-4" d="M212.68,78.85s-.01-.02-.01-.03v-.03s-.01-.04-.02-.07c0-.05,0-.09-.01-.14"/>
    <path class="cls-4" d="M205.49,82.46h0"/>
    <path class="cls-4" d="M263.33,186.43c0,.63-.03,1.25-.1,1.88"/>
    <path class="cls-4" d="M256.89,186.16c0,.12,0,.24,0,.36"/>
    <path class="cls-4" d="M460.26,191.2c.59-1.54.82-3.43.84-5.06"/>
    <path class="cls-4" d="M460.26,191.2c.12,0,.36.03.48.05.16.04.3.1.45.17.14.07.28.16.4.27.18.16.16.19.29.38"/>
    <path class="cls-4" d="M256.89,186.16c-.38,0-1.34,0-1.73-.03"/>
    <path class="cls-4" d="M256.89,186.52c.02,1.41.18,2.97.58,4.34.2.68.47,1.41.87,2,.39.58.98,1.15,1.77,1.14"/>
    <path class="cls-4" d="M229.43,101.86c1.33.61,2.55,1.34,3.71,2.23"/>
    <path class="cls-4" d="M223.16-79.01c-.15,3.65-.28,7.3-.4,10.94-.12,3.91-.22,7.82-.31,11.73-.08,3.71-.15,7.42-.2,11.12-.06,3.85-.1,7.71-.13,11.56-.03,3.75-.04,7.51-.05,11.26,0,3.81,0,7.62.03,11.42.02,3.82.05,7.63.1,11.45.04,3.75.1,7.49.17,11.24.04,1.93.07,3.85.12,5.78.04,1.9.09,3.81.13,5.71.09,3.73.2,7.46.32,11.19.25,7.56.56,15.11.95,22.67.22,4.06.46,8.13.74,12.19.24,3.48.51,6.96.82,10.44.27,3,.57,6,.94,8.99.28,2.26.58,4.52.99,6.77.15.83.31,1.66.5,2.49.15.64.31,1.28.51,1.9.14.45.3.89.52,1.31.13.24.29.53.52.7"/>
    <path class="cls-4" d="M455.51,180.58c.09-.19.03-.4-.07-.56"/>
    <path class="cls-4" d="M263.14,186.43s0,0,0,0h.04s.03,0,.05,0h.1"/>
    <path class="cls-4" d="M260.04,178.82c-.78-.02-1.36.53-1.75,1.1-.4.59-.67,1.3-.86,1.97-.38,1.34-.54,2.88-.54,4.27"/>
    <path class="cls-4" d="M295.65,154.03c-1.16.38-2.32.77-3.47,1.17-.58.2-1.15.41-1.72.62-.29.11-.57.22-.85.33-.21.09-.42.17-.62.28-.05.03-.1.05-.14.08-.01,0-.04.03-.04.05"/>
    <line class="cls-4" x1="418.61" y1="172.6" x2="418.61" y2="172.84"/>
    <line class="cls-4" x1="197.51" y1="38.58" x2="198.36" y2="38.58"/>
    <line class="cls-4" x1="213.58" y1="85.52" x2="213.53" y2="86.58"/>
    <line class="cls-4" x1="257.87" y1="186.52" x2="256.89" y2="186.52"/>
    <path class="cls-4" d="M472.8,199.57s-.05-.03-.06-.03c-.06-.02-.11-.03-.17-.03-.23-.03-.46-.05-.69-.07-.9-.07-1.81-.1-2.71-.13-1.49-.06-2.99-.09-4.48-.13-2.09-.05-4.17-.09-6.26-.12-4.8-.08-9.59-.13-14.39-.18-9.59-.09-19.19-.15-28.78-.2-2.36-.01-4.71-.02-7.07-.03-2.44,0-4.89-.02-7.33-.03-2.37,0-4.75-.01-7.12-.02-2.42,0-4.85-.01-7.27-.02-2.38,0-4.75,0-7.13,0-2.42,0-4.84,0-7.26,0-2.39,0-4.79,0-7.18,0-2.4,0-4.81,0-7.21,0"/>
    <path class="cls-4" d="M407.84,530.28c.02.06.06.09.12.11.09.04.18.06.27.07.32.04.67.02.99-.01.48-.04.95-.11,1.42-.2.94-.16,1.88-.37,2.81-.6,1.86-.45,3.7-.98,5.52-1.58"/>
    <path class="cls-4" d="M357.69,198.42s0,0,0,0c0,0,0,0,0,.01v.02s0,.02,0,.04c0,.02,0,.05,0,.07"/>
    <line class="cls-4" x1="298.52" y1="163.06" x2="295.65" y2="154.03"/>
    <line class="cls-4" x1="307.8" y1="188.65" x2="307.51" y2="188.16"/>
    <path class="cls-4" d="M357.68,198.57c-.01,2.59-.06,14.89-.45,17.48"/>
    <path class="cls-4" d="M246.52,199.8s0,0,0,0"/>
    <line class="cls-4" x1="407.04" y1="493.1" x2="415.19" y2="518.69"/>
    <line class="cls-4" x1="416.04" y1="518.92" x2="418.96" y2="528.08"/>
    <path class="cls-4" d="M418.96,528.08c1.27-.42,2.53-.86,3.78-1.36.62-.25,1.24-.51,1.84-.81.3-.15.6-.3.88-.48.19-.11.39-.25.55-.41.06-.06.16-.17.12-.28"/>
    <line class="cls-4" x1="406.76" y1="492.55" x2="407.04" y2="493.1"/>
    <line class="cls-4" x1="203.72" y1="386.84" x2="203.2" y2="387.14"/>
    <path class="cls-4" d="M193.02,103.84c.39-.56.77-1.13,1.14-1.71"/>
    <path class="cls-4" d="M193.02,103.84c-9.45,13.74-23.03,24.17-38.78,29.69s-32.86,5.87-48.81.89"/>
    <path class="cls-4" d="M167.81,398.79s0-.02,0-.04"/>
    <line class="cls-4" x1="214.32" y1="83.11" x2="214.28" y2="84.03"/>
    <line class="cls-4" x1="259.88" y1="188.04" x2="259.14" y2="188.04"/>
    <line class="cls-4" x1="258.91" y1="185.04" x2="259.62" y2="185.05"/>
    <path class="cls-4" d="M427.66,156.67s-.06-.06-.07-.06c-.08-.05-.16-.08-.24-.12-.33-.15-.66-.27-1-.4-.45-.17-.9-.34-1.35-.5-.9-.33-1.81-.64-2.72-.95-1.82-.62-3.65-1.22-5.48-1.81"/>
    <line class="cls-4" x1="405.97" y1="188.1" x2="406.04" y2="187.54"/>
    <line class="cls-4" x1="413.75" y1="161.89" x2="416.79" y2="152.83"/>
    <path class="cls-4" d="M416.79,152.83c.07-.22.16-.44.26-.65.05-.1.1-.21.17-.31.03-.05.07-.1.1-.14.03-.03.09-.1.15-.08"/>
    <path class="cls-4" d="M416.79,152.83c-1.21-.39-2.43-.77-3.65-1.14-.61-.18-1.22-.37-1.83-.54-.31-.09-.61-.17-.92-.25-.23-.06-.46-.12-.7-.16-.06-.01-.11-.02-.17-.02-.01,0-.06,0-.06.01"/>
    <path class="cls-4" d="M543.8,411.57s.09-.02.12-.04c.07-.06.12-.13.17-.2.19-.27.34-.57.49-.87.21-.42.4-.84.58-1.27.37-.86.71-1.73,1.04-2.6.66-1.75,1.26-3.51,1.83-5.29"/>
    <line class="cls-4" x1="512.43" y1="389.97" x2="538.27" y2="398.68"/>
    <path class="cls-4" d="M169.05,398.72c.39,1.15.8,2.29,1.26,3.42.23.56.47,1.12.73,1.67.13.27.27.54.42.81.11.18.21.36.36.51.05.05.15.15.24.12"/>
    <line class="cls-4" x1="511.84" y1="389.86" x2="512.43" y2="389.97"/>
    <line class="cls-4" x1="178.02" y1="395.95" x2="169.05" y2="398.72"/>
    <line class="cls-4" x1="203.2" y1="387.14" x2="178.1" y2="394.89"/>
    <path class="cls-4" d="M173.16,266.54s-.09.03-.12.05c-.07.06-.12.14-.17.22-.2.3-.35.62-.51.94-.21.45-.41.9-.6,1.35-.38.91-.74,1.83-1.08,2.76-.69,1.85-1.32,3.72-1.92,5.6"/>
    <line class="cls-4" x1="203.24" y1="288.03" x2="178.27" y2="279.6"/>
    <line class="cls-4" x1="460.06" y1="186.15" x2="461.1" y2="186.14"/>
    <line class="cls-4" x1="177.68" y1="280.47" x2="168.76" y2="277.46"/>
    <path class="cls-4" d="M168.76,277.46c-.21-.07-.42-.15-.62-.26-.1-.05-.2-.11-.29-.17-.06-.04-.21-.16-.18-.26"/>
    <path class="cls-4" d="M124.23,102.46h-.04"/>
    <line class="cls-4" x1="203.83" y1="288.08" x2="203.24" y2="288.03"/>
    <path class="cls-4" d="M168.76,277.46c-.36,1.13-.7,2.27-1.01,3.42-.15.57-.3,1.15-.43,1.73-.06.29-.12.58-.17.87-.03.21-.07.42-.06.63,0,.06,0,.11.02.16,0,.03.02.06.05.07"/>
    <path class="cls-4" d="M447.03,347c.65-.06,1.93-.06,2.58-.06"/>
    <path class="cls-4" d="M310.03,266.39c21.2-11.6,46.12-14.32,69.34-7.75,23.22,6.57,43.02,21.94,55.09,42.85"/>
    <line class="cls-4" x1="304.16" y1="293.98" x2="296.85" y2="294.07"/>
    <line class="cls-4" x1="304.16" y1="293.98" x2="309.53" y2="294.09"/>
    <line class="cls-4" x1="296.85" y1="294.07" x2="295.06" y2="295.45"/>
    <line class="cls-4" x1="405.79" y1="294.34" x2="398.9" y2="294.43"/>
    <line class="cls-4" x1="405.79" y1="294.34" x2="413.06" y2="294.48"/>
    <line class="cls-4" x1="413.06" y1="294.48" x2="413.52" y2="295.87"/>
    <path class="cls-4" d="M550.54,288.54s.04-.07.04-.1c0-.09,0-.18-.02-.26-.04-.34-.12-.68-.2-1.01-.11-.46-.22-.91-.34-1.36-.24-.91-.5-1.81-.77-2.71-.54-1.8-1.11-3.58-1.7-5.36"/>
    <path class="cls-4" d="M213.53,86.58c1.4-.02,2.94-.24,4.27-.73.67-.25,1.34-.59,1.88-1.07.54-.48.95-1.12.96-1.88"/>
    <line class="cls-4" x1="405.93" y1="395.67" x2="399.75" y2="395.87"/>
    <line class="cls-4" x1="405.93" y1="395.67" x2="412.83" y2="396.01"/>
    <line class="cls-4" x1="304.25" y1="394.81" x2="296.95" y2="395.04"/>
    <line class="cls-4" x1="304.25" y1="394.81" x2="308.89" y2="395.04"/>
    <line class="cls-4" x1="296.95" y1="395.04" x2="295.16" y2="398.37"/>
    <line class="cls-4" x1="480.55" y1="347.13" x2="486.23" y2="346.88"/>
    <line class="cls-4" x1="308.12" y1="346.86" x2="308.63" y2="346.08"/>
    <line class="cls-4" x1="229.88" y1="345.6" x2="224.5" y2="345.28"/>
    <path class="cls-4" d="M260.15,345.78c-.02-25.07,10.01-49.05,27.9-66.63,8.85-8.7,19.35-15.55,30.87-20.16,5.9-2.37,12.03-4.13,18.29-5.26,3-.55,6.02-.94,9.06-1.2,2.94-.25,5.88-.35,8.84-.33,25.03.24,49,10.32,66.7,28.01,17.7,17.69,27.77,41.66,27.81,66.73"/>
    <line class="cls-4" x1="436.12" y1="345.09" x2="436.6" y2="346.34"/>
    <path class="cls-4" d="M449.61,346.94c.04,25.08-9.98,49.09-27.87,66.67-17.89,17.59-42.06,27.22-67.1,26.98-25.03-.25-49.01-10.33-66.7-28.04-17.7-17.71-27.76-41.7-27.78-66.77"/>
    <line class="cls-4" x1="419.79" y1="350.64" x2="420.1" y2="351.93"/>
    <line class="cls-4" x1="400.52" y1="347.42" x2="403.48" y2="347.59"/>
    <line class="cls-4" x1="447.03" y1="347.71" x2="447.03" y2="347.71"/>
    <line class="cls-4" x1="308.12" y1="346.86" x2="305.11" y2="346.98"/>
    <path class="cls-4" d="M444.13,347.84c-.04-23.7-9.56-46.36-26.29-63.09-16.73-16.73-39.39-26.26-63.05-26.49-2.79-.03-5.58.07-8.36.31-2.88.24-5.73.62-8.57,1.13-5.92,1.08-11.72,2.74-17.31,4.98-10.88,4.36-20.8,10.83-29.17,19.05-16.91,16.62-26.4,39.29-26.38,63"/>
    <path class="cls-4" d="M265.01,346.73c.02,23.71,9.53,46.39,26.27,63.13,16.73,16.74,39.4,26.28,63.07,26.51,23.68.23,46.52-8.87,63.43-25.5,16.91-16.63,26.39-39.33,26.35-63.04"/>
    <line class="cls-4" x1="296.05" y1="394.88" x2="295.63" y2="394.69"/>
    <line class="cls-4" x1="436.6" y1="346.34" x2="437.2" y2="346.28"/>
    <line class="cls-4" x1="409.81" y1="392.94" x2="410.04" y2="392.57"/>
    <line class="cls-4" x1="308.88" y1="401.98" x2="309.27" y2="402.24"/>
    <line class="cls-4" x1="305.86" y1="289.1" x2="306.06" y2="288.71"/>
    <line class="cls-4" x1="402.76" y1="405.73" x2="402.54" y2="406.17"/>
    <line class="cls-4" x1="412.62" y1="299.38" x2="413.04" y2="299.62"/>
    <line class="cls-4" x1="298.87" y1="301.85" x2="298.63" y2="302.26"/>
    <line class="cls-4" x1="399.67" y1="292.32" x2="399.26" y2="292.11"/>
  </g>
  <g id="Make2D::可见线::曲线">
    <path class="cls-4" d="M412.62,299.38c-1.54,2.8-4.72,4.25-7.84,3.65-3.12-.6-5.54-3.12-5.95-6.28"/>
    <path class="cls-4" d="M298.87,301.85c-2.34-1.28-3.8-3.73-3.8-6.4"/>
    <path class="cls-4" d="M413.52,295.87c0,1.23-.31,2.43-.9,3.51"/>
    <path class="cls-4" d="M295.06,295.45c0-2.31,1.1-4.49,2.97-5.85"/>
    <path class="cls-4" d="M413.67,399.4c0,2.6-1.38,4.99-3.64,6.28-2.25,1.29-5.01,1.29-7.28.05"/>
    <path class="cls-4" d="M308.88,401.98c-1.61,2.93-5.02,4.35-8.24,3.49-3.21-.86-5.48-3.77-5.48-7.1"/>
    <path class="cls-4" d="M402.76,405.73c-2.23-1.23-3.7-3.52-3.84-6.07"/>
    <path class="cls-4" d="M419.09,349.08c.03.19.07.39.12.58"/>
    <path class="cls-4" d="M295.16,398.37c0-1.2.3-2.39.87-3.45"/>
    <path class="cls-4" d="M418.52,349.2c.41,2.47,1.79,4.66,3.82,6.12s4.55,2.07,7.02,1.69c2.47-.37,4.69-1.7,6.17-3.72,1.48-2.02,2.08-4.54,1.66-7.01"/>
    <path class="cls-4" d="M436.6,346.34c-.1-.59-.25-1.16-.47-1.72"/>
    <path class="cls-4" d="M295.63,394.69c-.99,1.81-1.21,3.93-.63,5.9s1.93,3.63,3.72,4.63,3.92,1.25,5.9.7c1.98-.56,3.66-1.88,4.65-3.68"/>
    <path class="cls-4" d="M403.48,347.59c-.02-13.02-5.25-25.46-14.43-34.65-9.19-9.19-21.63-14.42-34.63-14.55-13-.13-25.54,4.87-34.82,13.99-9.29,9.13-14.5,21.58-14.48,34.6"/>
    <path class="cls-4" d="M262.24,346.57h0"/>
    <path class="cls-4" d="M305.11,346.98c.01,13.02,5.24,25.47,14.43,34.66s21.64,14.43,34.64,14.56c13,.13,25.54-4.87,34.83-14,9.29-9.13,14.49-21.59,14.48-34.62"/>
    <path class="cls-4" d="M420.1,351.93c2.09,3.73,6.57,5.46,10.63,4.11,4.08-1.36,6.58-5.45,5.87-9.7"/>
    <path class="cls-4" d="M400.52,347.42c0-1.39-.07-2.77-.19-4.15"/>
    <path class="cls-4" d="M229.88,345.6c.02,33.18,13.34,64.92,36.75,88.35,23.41,23.43,55.14,36.78,88.27,37.1,33.13.32,65.11-12.42,88.78-35.69,23.67-23.28,36.93-55.04,36.87-88.23"/>
    <path class="cls-4" d="M308.12,346.86c.01,12.23,4.92,23.92,13.55,32.56,8.63,8.63,20.32,13.55,32.53,13.67,12.21.12,23.99-4.58,32.71-13.15,8.72-8.58,13.61-20.28,13.6-32.51"/>
    <path class="cls-4" d="M224.5,345.28c.02,34.65,13.92,67.79,38.37,92.25,24.45,24.46,57.57,38.4,92.16,38.74,34.6.34,67.99-12.97,92.7-37.27,24.71-24.3,38.56-57.47,38.5-92.13"/>
    <path class="cls-4" d="M419.79,350.64c1.95,3.47,5.99,5.21,9.84,4.26,3.87-.95,6.61-4.39,6.61-8.39"/>
    <path class="cls-4" d="M296.95,395.04c0,3.03,1.92,5.73,4.76,6.77,2.84,1.04,6.04.2,7.97-2.15"/>
    <path class="cls-4" d="M436.24,346.5c0-.47-.04-.94-.12-1.41"/>
    <path class="cls-4" d="M308.63,346.08c.01,12.15,4.89,23.77,13.47,32.35,8.58,8.58,20.2,13.47,32.33,13.58,12.13.12,23.84-4.55,32.51-13.07,8.67-8.52,13.53-20.15,13.51-32.31"/>
    <path class="cls-4" d="M400.44,346.64c0-1.25-.06-2.5-.16-3.74"/>
    <path class="cls-4" d="M203.2,387.14c-.36-1.07-.69-2.15-.99-3.24-.15-.55-.29-1.09-.41-1.65-.06-.28-.12-.55-.16-.83-.03-.2-.06-.4-.06-.6,0-.05,0-.11.02-.16,0-.02.02-.06.05-.06"/>
    <path class="cls-4" d="M309.57,172.64c8.08-.09,16.16-.16,24.23-.22,4.04-.03,8.08-.05,12.12-.07,4.04-.02,8.08-.03,12.12-.04s8.08-.02,12.12-.02,8.08,0,12.12,0c8.08.01,16.16.04,24.24.1"/>
    <path class="cls-4" d="M212.91,78.58c.03.09.06.18.1.27"/>
    <path class="cls-4" d="M296.85,294.07c0,2.67,1.5,5.12,3.87,6.35s5.23,1.06,7.42-.47"/>
    <path class="cls-4" d="M413.06,294.48c0-.55-.06-1.07-.19-1.6"/>
    <path class="cls-4" d="M317.15,319.6c-5.88,7.88-9.04,17.43-9.03,27.26"/>
    <path class="cls-4" d="M465.42,174.75c.39-.03,2.82-.21,3.21-.45"/>
    <path class="cls-4" d="M309.14,401.46c-.08.18-.17.35-.26.52"/>
    <path class="cls-4" d="M398.92,399.66c0-.13-.01-.26-.01-.39"/>
    <path class="cls-4" d="M307.41,300.75c-2.31,2.19-5.76,2.62-8.55,1.09"/>
    <line class="cls-4" x1="435.66" y1="343.4" x2="436.13" y2="344.62"/>
    <path class="cls-4" d="M419.21,349.66c.19.81.48,1.55.89,2.28"/>
    <path class="cls-4" d="M296.03,394.92s.01-.02.02-.04"/>
    <path class="cls-4" d="M413.13,293.55c.26.77.39,1.52.39,2.33"/>
    <path class="cls-4" d="M447.03,347.72h0"/>
    <line class="cls-4" x1="413.4" y1="397.44" x2="413.67" y2="399.4"/>
    <path class="cls-4" d="M317.38,319.29c-5.7,7.77-8.76,17.15-8.75,26.78"/>
    <path class="cls-4" d="M251.45,175.34c-.95-.06-3.64-.22-4.58-.45"/>
    <path class="cls-4" d="M399.03,397.96c.99,3.29,4.17,5.44,7.59,5.17,3.44-.27,6.21-2.93,6.55-6.38"/>
    <path class="cls-4" d="M398.77,296.04c.83,3.57,4.22,5.94,7.85,5.55,3.64-.38,6.44-3.43,6.43-7.11"/>
    <path class="cls-4" d="M419.08,349.01c.18.57.41,1.11.71,1.63"/>
    <path class="cls-4" d="M298.95,289.03c-1.35,1.33-2.1,3.15-2.1,5.05"/>
    <path class="cls-4" d="M309.27,402.24c.99-1.81,1.21-3.93.63-5.9s-1.92-3.64-3.72-4.63-3.92-1.25-5.9-.7c-1.98.56-3.66,1.88-4.65,3.69"/>
    <path class="cls-4" d="M306.06,288.71c-1.8-.99-3.92-1.22-5.9-.66-1.98.57-3.65,1.9-4.63,3.7-.99,1.8-1.21,3.92-.63,5.89.58,1.97,1.93,3.63,3.73,4.62"/>
    <path class="cls-4" d="M298.63,302.26c1.8.99,3.92,1.23,5.9.66,1.98-.57,3.65-1.9,4.64-3.7.99-1.81,1.21-3.93.63-5.9-.58-1.97-1.93-3.63-3.73-4.62"/>
    <path class="cls-4" d="M399.26,292.11c-1,1.82-1.22,3.96-.63,5.94.6,1.98,1.96,3.65,3.78,4.63,1.82.99,3.96,1.22,5.95.65,1.99-.57,3.68-1.9,4.68-3.72"/>
    <path class="cls-4" d="M413.04,299.62c1-1.82,1.22-3.96.63-5.94-.6-1.99-1.96-3.65-3.78-4.63-1.82-.99-3.96-1.22-5.95-.65-1.99.57-3.68,1.9-4.68,3.72"/>
    <path class="cls-4" d="M402.54,406.17c1.81,1,3.95,1.26,5.95.7,2-.56,3.69-1.88,4.7-3.7,1.01-1.82,1.23-3.96.63-5.95s-1.96-3.66-3.77-4.65"/>
    <path class="cls-4" d="M410.04,392.57c-1.81-1-3.95-1.25-5.95-.7-2,.56-3.69,1.88-4.7,3.7s-1.23,3.96-.63,5.94c.59,1.99,1.95,3.65,3.77,4.65"/>
    <path class="cls-4" d="M437.2,346.28c-.41-2.47-1.79-4.66-3.82-6.12-2.03-1.46-4.55-2.07-7.02-1.69-2.47.37-4.7,1.7-6.18,3.72-1.48,2.02-2.08,4.54-1.67,7.01"/>
    <path class="cls-4" d="M457.79,187.03c.15,0,.25.13.3.25.05.13.07.26.06.41"/>
    <path class="cls-4" d="M205.55,101.74c-.15.17-.37.33-.62.33"/>
    <path class="cls-4" d="M205.14,285.96c-.31.96-.63,1.92-.98,2.87-.17.47-.35.95-.54,1.42-.09.23-.19.47-.29.7-.07.16-.14.32-.23.47-.02.04-.05.09-.08.13-.02.02-.03.04-.06.06"/>
    <path class="cls-4" d="M177.68,280.47c-.36,1.13-.7,2.27-1.01,3.41-.16.57-.31,1.15-.44,1.73-.07.29-.13.58-.18.87-.03.21-.07.42-.07.63,0,.06,0,.11.02.16,0,.03.01.06.05.07"/>
    <path class="cls-4" d="M178.27,279.6c-.2.65-.4,1.3-.58,1.95-.09.33-.17.66-.25.99-.04.17-.07.33-.1.5-.02.12-.04.24-.04.36,0,.03,0,.12.04.13"/>
    <path class="cls-4" d="M167.17,284.35c-.33-.11-.6-.34-.77-.64-.18-.32-.22-.63-.21-.99.02-.57.23-1.46.36-2.01.32-1.33.71-2.63,1.12-3.94"/>
    <line class="cls-4" x1="176.06" y1="287.35" x2="167.17" y2="284.35"/>
    <line class="cls-4" x1="202.97" y1="291.6" x2="202.29" y2="291.94"/>
    <path class="cls-4" d="M202.29,291.94s-.01,0-.02,0"/>
    <path class="cls-4" d="M202.26,291.94s-.03-.11-.03-.13c0-.12.03-.24.05-.36.03-.17.07-.33.11-.5.08-.33.17-.66.26-.98.18-.65.38-1.3.59-1.95"/>
    <path class="cls-4" d="M167.68,276.77c.62-1.96,1.28-3.89,2.02-5.8.34-.87.79-1.99,1.2-2.83.2-.41.48-.96.83-1.28.39-.36.92-.49,1.43-.32"/>
    <line class="cls-4" x1="173.16" y1="266.54" x2="182.05" y2="269.54"/>
    <line class="cls-4" x1="205.71" y1="281.77" x2="206.04" y2="282.45"/>
    <path class="cls-4" d="M206.04,282.45c.06.11-.12.8-.14.89-.07.3-.15.59-.23.88-.17.58-.34,1.16-.53,1.74"/>
    <path class="cls-4" d="M205.69,281.75s.01,0,.02.02"/>
    <path class="cls-4" d="M181.29,273.53c.19-.66.36-1.32.52-1.99.08-.33.15-.67.21-1,.03-.17.06-.34.08-.51.01-.12.02-.24,0-.36,0-.04-.01-.12-.06-.14"/>
    <path class="cls-4" d="M304.25,189.88s0-.01.01-.02c.02-.01.05-.02.07-.04.11-.05.22-.09.34-.13.15-.05.29-.11.44-.16.3-.1.59-.2.89-.3.59-.2,1.19-.39,1.79-.59"/>
    <path class="cls-4" d="M203.83,288.08c.31-.97.64-1.93.98-2.89.17-.48.35-.95.54-1.43.1-.24.19-.47.3-.7.08-.18.16-.35.26-.52.02-.04.04-.07.08-.1.02-.01.03-.02.04,0"/>
    <path class="cls-4" d="M459.77,186.28c0-.51-.05-1.01-.12-1.52"/>
    <path class="cls-4" d="M460,186.15c0,1.38-.19,2.87-.65,4.18"/>
    <path class="cls-4" d="M203.24,288.03c.34-1.07.7-2.14,1.09-3.2.19-.53.39-1.06.6-1.58.11-.26.21-.52.33-.78.08-.19.17-.37.27-.55.03-.05.06-.09.09-.13.01-.01.04-.04.06-.03"/>
    <path class="cls-4" d="M202.97,291.6s-.05-.05-.05-.08c0-.12.02-.23.04-.35.03-.15.06-.3.1-.45.07-.3.15-.59.23-.89.17-.59.35-1.18.53-1.76"/>
    <line class="cls-4" x1="304.25" y1="189.88" x2="303.57" y2="189.53"/>
    <path class="cls-4" d="M182.05,269.54s-.09.03-.11.05c-.07.07-.12.14-.17.22-.2.3-.35.62-.5.95-.21.45-.41.9-.59,1.36-.38.91-.73,1.83-1.07,2.76-.68,1.85-1.32,3.72-1.91,5.6"/>
    <path class="cls-4" d="M180.76,273.35s-.05.02-.06.03c-.04.04-.07.08-.1.13-.11.17-.2.36-.29.54-.12.26-.23.51-.34.78-.22.52-.42,1.05-.61,1.58-.39,1.06-.75,2.13-1.09,3.2"/>
    <path class="cls-4" d="M176.61,388.33s-.04.04-.05.07c-.02.05-.02.1-.02.16,0,.2.02.4.04.6.04.28.09.56.15.84.11.55.25,1.1.4,1.65.29,1.09.62,2.18.98,3.25"/>
    <path class="cls-4" d="M205.25,390.19c-.03.06-.07.03-.11,0-.08-.07-.14-.19-.2-.28-.08-.14-.15-.28-.21-.42-.13-.29-.25-.58-.37-.87-.23-.59-.44-1.18-.64-1.78"/>
    <line class="cls-4" x1="181" y1="402.49" x2="172.06" y2="405.25"/>
    <path class="cls-4" d="M549.19,401.91s0-.02.01-.03"/>
    <path class="cls-4" d="M510.74,391.13c.29-.9.6-1.8.93-2.7.16-.45.33-.89.51-1.33.05-.12.49-1.19.64-1.26"/>
    <path class="cls-4" d="M538.78,398.17c.41-1.29.81-2.59,1.16-3.91.18-.66.35-1.31.5-1.98.07-.33.14-.66.2-1,.04-.24.08-.48.07-.73,0-.06,0-.13-.02-.19-.01-.03-.02-.06-.06-.08"/>
    <path class="cls-4" d="M203.72,386.84c-.33-.97-.63-1.95-.89-2.94-.13-.5-.26-.99-.37-1.49-.05-.25-.1-.5-.14-.76-.03-.18-.06-.38-.05-.57,0-.06.02-.17.1-.13"/>
    <path class="cls-4" d="M538.27,398.68c.24-.74.46-1.48.67-2.23.1-.38.2-.75.28-1.13.04-.19.08-.38.11-.57.02-.14.04-.27.04-.41,0-.03,0-.13-.05-.15"/>
    <path class="cls-4" d="M549.86,393.4c.37.12.67.38.85.73.19.37.21.72.18,1.11-.04.65-.27,1.62-.42,2.25-.36,1.48-.8,2.94-1.26,4.4"/>
    <line class="cls-4" x1="540.63" y1="390.29" x2="549.86" y2="393.4"/>
    <path class="cls-4" d="M540.63,390.29c-.05-.02-.11.04-.14.07-.09.09-.15.18-.21.29-.09.15-.18.3-.26.46-.16.31-.31.63-.45.95-.29.64-.55,1.29-.81,1.94"/>
    <path class="cls-4" d="M513.52,385.5s.02,0,.03,0"/>
    <path class="cls-4" d="M513.54,385.49s.02.02.03.04c0,.04,0,.07,0,.11,0,.14-.03.28-.06.42-.04.19-.08.38-.12.57-.09.38-.19.75-.29,1.12-.21.74-.44,1.48-.67,2.22"/>
    <path class="cls-4" d="M549.2,401.89c-.6,1.87-1.24,3.73-1.96,5.56-.33.83-.77,1.91-1.18,2.7-.21.4-.48.89-.86,1.18-.4.31-.91.4-1.39.24"/>
    <line class="cls-4" x1="543.8" y1="411.57" x2="534.58" y2="408.45"/>
    <line class="cls-4" x1="510.07" y1="395.84" x2="509.72" y2="395.14"/>
    <path class="cls-4" d="M509.72,395.14c-.07-.13.13-.91.15-1.02.08-.34.17-.67.26-1,.19-.67.39-1.33.6-1.99"/>
    <path class="cls-4" d="M510.09,395.85s-.02,0-.02-.02"/>
    <path class="cls-4" d="M548.36,400.25c-.12.34-.25.68-.36,1.02"/>
    <path class="cls-4" d="M535.3,404.36c-.19.68-.36,1.35-.52,2.04-.08.34-.15.68-.21,1.03-.03.17-.05.35-.07.52,0,.12-.02.24,0,.36,0,.04.02.12.07.14"/>
    <path class="cls-4" d="M511.84,389.86c-.29.91-.6,1.82-.94,2.72-.17.45-.34.9-.52,1.34-.09.22-.19.44-.29.66-.08.16-.15.33-.26.48-.02.03-.04.07-.08.09-.02.01-.03.01-.05-.01"/>
    <path class="cls-4" d="M177.34,388.11c-.25-.65-.52-1.3-.81-1.93-.14-.32-.3-.63-.47-.94-.08-.15-.17-.3-.27-.45-.07-.1-.13-.19-.23-.26-.04-.03-.1-.07-.16-.06"/>
    <path class="cls-4" d="M512.43,389.97c-.33,1.01-.67,2.01-1.04,3.01-.18.5-.37.99-.58,1.49-.1.25-.21.49-.32.73-.08.18-.16.35-.27.51-.03.04-.05.08-.09.12-.01.01-.04.04-.06.03"/>
    <line class="cls-4" x1="512.82" y1="385.84" x2="513.52" y2="385.5"/>
    <path class="cls-4" d="M512.82,385.84s.05.06.05.09c0,.14-.02.26-.05.39-.03.17-.07.34-.11.51-.08.34-.17.68-.27,1.02-.19.67-.39,1.34-.61,2.01"/>
    <path class="cls-4" d="M166.8,390.85c-.21-.48-.42-.95-.69-1.4-.09-.16-.18-.31-.32-.44-.04-.04-.13-.13-.21-.09-.08.04-.1.16-.1.23-.03.18-.02.35,0,.52.06.88.36,2.23.57,3.08.47,1.94,1.12,4.12,1.76,6.01"/>
    <path class="cls-4" d="M534.58,408.45s.09-.02.12-.05c.07-.06.12-.13.17-.2.19-.28.34-.58.49-.88.2-.42.39-.85.58-1.27.36-.86.7-1.73,1.03-2.6.65-1.75,1.26-3.51,1.83-5.29"/>
    <path class="cls-4" d="M535.87,404.56s.05-.01.07-.03c.04-.03.07-.07.1-.12.11-.16.19-.33.28-.5.12-.24.22-.48.33-.73.21-.49.4-.99.59-1.49.37-1,.72-2,1.04-3.02"/>
    <path class="cls-4" d="M201.65,380.59s.03,0,.05,0"/>
    <path class="cls-4" d="M413.75,161.89c-1.21-.39-2.43-.77-3.65-1.15-.61-.19-1.22-.37-1.83-.55-.31-.09-.61-.18-.92-.26-.23-.06-.46-.12-.7-.17-.06-.01-.11-.02-.17-.03,0,0-.06,0-.06,0"/>
    <path class="cls-4" d="M414.52,162.24c-.69-.22-1.39-.44-2.08-.66-.35-.11-.7-.21-1.05-.31-.18-.05-.35-.1-.53-.15-.13-.04-.26-.07-.4-.1-.03,0-.06-.01-.1-.02,0,0-.03,0-.03,0"/>
    <path class="cls-4" d="M409.45,150.72c.12-.35.37-.63.7-.8.36-.18.69-.17,1.06-.1.52.1,1.6.41,2.1.55,1.39.41,2.77.84,4.16,1.28"/>
    <line class="cls-4" x1="406.43" y1="159.74" x2="409.45" y2="150.72"/>
    <path class="cls-4" d="M406.43,159.74s.02.02.02.03c.03.02.05.03.08.05.11.06.23.11.35.16.16.06.32.13.48.19.32.12.64.24.96.36.64.23,1.29.46,1.94.69"/>
    <path class="cls-4" d="M410.33,161.02s0,0,0,0"/>
    <line class="cls-4" x1="427.66" y1="156.67" x2="424.63" y2="165.7"/>
    <path class="cls-4" d="M411.57,190.02s-.02,0-.04,0c-.03,0-.06-.01-.09-.02-.12-.03-.23-.06-.35-.1-.16-.05-.31-.09-.47-.14-.31-.1-.63-.19-.94-.29-.62-.2-1.25-.4-1.87-.6"/>
    <path class="cls-4" d="M420.66,164.61c.66.2,1.31.4,1.97.59.33.1.66.19.99.28.17.04.33.09.5.13.12.03.25.06.38.08.03,0,.06,0,.09.01,0,0,.03,0,.03,0"/>
    <line class="cls-4" x1="402.22" y1="186.94" x2="401.87" y2="186.26"/>
    <path class="cls-4" d="M202.37,380.95c.23.12.75,1.46.82,1.64.22.57.43,1.16.63,1.74"/>
    <line class="cls-4" x1="201.7" y1="380.6" x2="202.37" y2="380.95"/>
    <path class="cls-4" d="M167.81,398.79c-.63-1.87-1.27-3.99-1.74-5.91-.22-.92-.48-2.08-.6-3.02-.06-.46-.11-1.06,0-1.53.13-.51.47-.93.99-1.09"/>
    <path class="cls-4" d="M417.46,151.66c1.91.61,3.82,1.24,5.71,1.9.95.33,1.89.66,2.83,1.03.22.09.45.18.67.28.24.11.46.23.66.42.36.37.49.9.33,1.39"/>
    <path class="cls-4" d="M204.86,390.9s-.1-.05-.13-.08c-.08-.09-.14-.2-.2-.31-.08-.15-.16-.31-.23-.47-.14-.31-.27-.63-.4-.96-.25-.65-.48-1.3-.7-1.95"/>
    <path class="cls-4" d="M424.63,165.7s-.06-.05-.07-.06c-.08-.04-.16-.08-.24-.12-.33-.14-.66-.27-1-.39-.45-.17-.9-.33-1.36-.49-.91-.32-1.82-.64-2.73-.94-1.82-.62-3.65-1.22-5.48-1.81"/>
    <path class="cls-4" d="M420.73,164.42s-.04-.03-.04-.03c-.05-.02-.09-.05-.14-.07-.19-.08-.38-.15-.57-.22-.26-.1-.52-.19-.77-.28-.52-.18-1.04-.36-1.56-.54-1.04-.35-2.08-.7-3.13-1.03"/>
    <path class="cls-4" d="M258.74,187.42s.03-.01.05-.01"/>
    <path class="cls-4" d="M204.9,390.86s-.02.03-.03.03"/>
    <path class="cls-4" d="M258.91,185.04c0,.16-.03.32-.07.47-.03.1-.1.35-.22.41"/>
    <path class="cls-4" d="M259.81,182.82c-.24.07-.46.15-.69.27"/>
    <path class="cls-4" d="M260,185.39s-.05.01-.08.01"/>
    <path class="cls-4" d="M259.65,190c-.22-.64-.38-1.29-.51-1.96"/>
    <path class="cls-4" d="M258.74,187.42c-.19.1-.37.2-.53.35"/>
    <path class="cls-4" d="M258.09,186.27c.16-.15.34-.25.53-.35"/>
    <path class="cls-4" d="M258.91,185.04c.02-.66.09-1.3.21-1.95"/>
    <line class="cls-4" x1="258.79" y1="187.41" x2="259.81" y2="187.42"/>
    <path class="cls-4" d="M258.73,191.06c-.41-1.07-.64-2.28-.72-3.41"/>
    <line class="cls-4" x1="205.25" y1="390.19" x2="204.9" y2="390.86"/>
    <line class="cls-4" x1="259.71" y1="183.45" x2="259.12" y2="183.09"/>
    <line class="cls-4" x1="216.19" y1="84.05" x2="215.77" y2="83.29"/>
    <path class="cls-4" d="M216.19,84.05c.17-.25.31-.51.43-.78"/>
    <path class="cls-4" d="M211.33,84.69c.48.12.96.21,1.46.27"/>
    <path class="cls-4" d="M211.33,84.69c.21-.21.38-.44.55-.69"/>
    <path class="cls-4" d="M212.74,82.44c.21-.45.4-.9.58-1.36"/>
    <path class="cls-4" d="M216.19,84.05c-.64.04-1.27.03-1.91-.02"/>
    <path class="cls-4" d="M213.34,84.28c-.17.24-.34.48-.55.69"/>
    <path class="cls-4" d="M219.91,82.92c-.47.85-1.39,1.43-2.22,1.8-.88.38-1.86.61-2.81.72"/>
    <path class="cls-4" d="M211.91,83.92s-.01.06-.03.09"/>
    <path class="cls-4" d="M181,402.49c.06-.02.09-.09.1-.14.03-.11.04-.23.04-.34,0-.18-.01-.35-.03-.52-.03-.35-.09-.69-.15-1.04-.12-.69-.27-1.37-.43-2.05"/>
    <path class="cls-4" d="M211.37,83.48c.12.03.23.08.34.15.09.06.21.16.21.29"/>
    <path class="cls-4" d="M214.17,82.84s.01-.09.03-.13"/>
    <path class="cls-4" d="M176.06,287.35c.05.02.11-.04.13-.07.08-.09.14-.19.21-.29.09-.15.17-.3.25-.45.16-.31.3-.62.44-.93.28-.63.54-1.26.79-1.9"/>
    <path class="cls-4" d="M172.06,405.25c-.34.1-.69.08-1.02-.06-.34-.15-.57-.38-.78-.67-.36-.49-.74-1.28-.98-1.83-.56-1.27-1.03-2.57-1.48-3.89"/>
    <path class="cls-4" d="M178.1,394.89c.22.66.46,1.31.72,1.96.13.32.26.64.41.96.07.16.15.31.24.46.06.1.12.21.2.3.03.03.08.09.13.07"/>
    <path class="cls-4" d="M404.77,492.11c.92-.3,1.85-.57,2.79-.81.29-.07,2.5-.63,2.86-.44"/>
    <path class="cls-4" d="M416.04,518.92c1.27-.41,2.53-.86,3.77-1.35.62-.25,1.24-.51,1.84-.8.3-.15.6-.3.89-.47.19-.11.4-.24.55-.4.06-.06.16-.17.13-.27"/>
    <path class="cls-4" d="M178.02,395.95c.39,1.15.8,2.29,1.25,3.42.23.56.46,1.12.72,1.67.13.27.27.55.42.81.11.18.21.36.36.52.05.05.14.15.24.13"/>
    <path class="cls-4" d="M415.19,518.69c.73-.24,1.45-.49,2.16-.77.35-.14.71-.29,1.05-.46.17-.08.34-.17.51-.27.11-.07.22-.14.32-.23.03-.03.09-.1.07-.16"/>
    <path class="cls-4" d="M426.13,524.76c.12.37.09.75-.07,1.1-.17.36-.42.6-.74.83-.54.4-1.38.79-1.98,1.05-1.31.58-2.86,1.12-4.21,1.57"/>
    <path class="cls-4" d="M423.22,515.63c-.02-.06-.09-.1-.14-.12-.11-.04-.22-.05-.34-.06-.18-.01-.36,0-.54,0-.36.02-.71.06-1.07.12-.71.1-1.41.24-2.11.4"/>
    <line class="cls-4" x1="410.42" y1="490.86" x2="411.11" y2="491.22"/>
    <path class="cls-4" d="M411.11,491.22s.04.02.05.05"/>
    <path class="cls-4" d="M411.15,491.27c.02.06-.05.12-.08.15-.1.09-.21.16-.33.22-.17.09-.34.18-.51.26-.35.16-.7.3-1.05.44-.71.28-1.43.53-2.15.76"/>
    <path class="cls-4" d="M419.13,529.31c-1.83.6-3.91,1.19-5.79,1.6-.9.2-2.04.42-2.96.5-.47.04-1.02.05-1.49-.1-.49-.16-.88-.5-1.04-1"/>
    <line class="cls-4" x1="407.84" y1="530.28" x2="404.94" y2="521.18"/>
    <line class="cls-4" x1="400.72" y1="494.37" x2="401.08" y2="493.7"/>
    <path class="cls-4" d="M401.08,493.7c.15-.28,1.57-.83,1.79-.92.63-.24,1.27-.46,1.91-.67"/>
    <path class="cls-4" d="M400.71,494.44s0-.04,0-.06"/>
    <path class="cls-4" d="M203.82,384.34c.32.96.62,1.92.88,2.9.07.26.71,2.64.54,2.96"/>
    <path class="cls-4" d="M406.76,492.55c-.94.31-1.89.58-2.85.82-.48.12-.96.23-1.45.32-.24.05-.49.09-.73.11-.17.02-.37.04-.54.01-.07-.01-.15-.04-.11-.12"/>
    <path class="cls-4" d="M167.8,398.76s.02.04.02.07"/>
    <path class="cls-4" d="M305.87,161.05s-.05,0-.06,0c-.05,0-.1.01-.15.02-.2.04-.4.09-.6.14-.27.07-.54.14-.81.22-.54.15-1.07.31-1.6.47-1.07.32-2.13.66-3.19,1"/>
    <line class="cls-4" x1="423.22" y1="515.63" x2="426.13" y2="524.76"/>
    <path class="cls-4" d="M410.42,490.86c.06.03.05.08.02.13-.07.09-.2.17-.29.22-.15.09-.31.17-.46.24-.31.15-.64.28-.96.41-.65.25-1.3.48-1.96.7"/>
    <path class="cls-4" d="M408.85,519.97s.04.05.07.06c.05.02.1.03.15.04.19.02.38,0,.57-.01.27-.03.54-.07.81-.12.54-.1,1.07-.22,1.6-.35,1.06-.26,2.11-.57,3.15-.9"/>
    <path class="cls-4" d="M199.5,67.29c-.13-.12-.22-.26-.31-.42"/>
    <path class="cls-4" d="M205.78,101.93c.12.08.24.13.39.13"/>
    <path class="cls-4" d="M211.37,83.48c-.65-.19-1.27-.42-1.89-.7"/>
    <path class="cls-4" d="M297.14,393.4c-.13.54-.19,1.08-.19,1.64"/>
    <path class="cls-4" d="M458.75,174.28s-.02.04-.04.05"/>
    <path class="cls-4" d="M295.54,152.7c1.93-.63,3.86-1.24,5.81-1.81.97-.29,1.95-.56,2.93-.81.24-.06.48-.12.72-.16.26-.05.51-.08.78-.04.52.08.94.43,1.1.93"/>
    <line class="cls-4" x1="291.66" y1="165.56" x2="288.8" y2="156.57"/>
    <line class="cls-4" x1="260.36" y1="174.8" x2="260.36" y2="174.92"/>
    <path class="cls-4" d="M305.95,161.3c.65-.22,1.29-.45,1.93-.68.32-.12.64-.24.96-.36.16-.06.32-.13.47-.19.12-.05.23-.1.34-.16.02,0,.11-.05.1-.08"/>
    <path class="cls-4" d="M472.8,199.57c.94,8.39,1.77,16.79,2.49,25.2.71,8.41,1.31,16.83,1.75,25.26.44,8.44.74,16.87.85,25.32.11,8.44.04,16.88-.26,25.31"/>
    <line class="cls-4" x1="458.75" y1="174.28" x2="458.75" y2="174.5"/>
    <line class="cls-4" x1="280.2" y1="173.53" x2="280.2" y2="173.22"/>
    <line class="cls-4" x1="260.24" y1="179.67" x2="260.24" y2="178.86"/>
    <line class="cls-4" x1="260.25" y1="185.93" x2="260.25" y2="185.41"/>
    <path class="cls-4" d="M262.24,346.59c.02,24.46,9.84,47.85,27.1,65.12,17.26,17.27,40.65,27.11,65.06,27.34,24.42.24,47.99-9.15,65.43-26.31,17.45-17.16,27.22-40.57,27.19-65.03"/>
    <path class="cls-4" d="M480.55,347.13c-.06-33.16-13.39-64.87-36.8-88.27-23.41-23.4-55.12-36.74-88.23-37.06-3.91-.04-7.8.1-11.7.43-4.03.34-8.02.86-12,1.59-8.29,1.51-16.4,3.84-24.21,6.97-15.23,6.11-29.1,15.16-40.81,26.66-23.66,23.25-36.94,54.98-36.92,88.15"/>
    <line class="cls-4" x1="400.25" y1="342.52" x2="400.32" y2="343.27"/>
    <line class="cls-4" x1="317.15" y1="319.6" x2="317.6" y2="318.99"/>
    <path class="cls-4" d="M313.91,186.26s0,0,0,0"/>
    <path class="cls-4" d="M404.93,521.16c.02.06.06.08.12.11.09.04.18.05.27.06.32.04.67,0,.99-.02.48-.05.95-.12,1.42-.21.94-.17,1.87-.38,2.8-.61,1.86-.46,3.69-.99,5.51-1.58"/>
    <line class="cls-4" x1="306.88" y1="150.82" x2="309.75" y2="159.82"/>
    <path class="cls-4" d="M241.2,281.71c.05-6.84.22-13.68.49-20.52.14-3.42.3-6.84.48-10.26.18-3.42.39-6.83.62-10.25.46-6.83,1.01-13.65,1.64-20.47.63-6.81,1.33-13.62,2.09-20.42"/>
    <path class="cls-4" d="M303.57,189.53s.02-.02.02-.02c.03-.02.06-.03.09-.04.12-.05.24-.1.37-.14.16-.06.33-.12.49-.18.33-.12.66-.23.99-.34.66-.22,1.32-.44,1.99-.65"/>
    <path class="cls-4" d="M303.57,189.53s0,0,0,0"/>
    <path class="cls-4" d="M291.66,165.56s.11.01.13.01c.12-.01.25-.04.37-.06.17-.03.33-.07.5-.11.33-.08.66-.17.99-.26.66-.18,1.31-.37,1.97-.56"/>
    <path class="cls-4" d="M260.87,185.41s0,0,0-.01"/>
    <path class="cls-4" d="M260.83,186.69s0-.1,0-.15"/>
    <path class="cls-4" d="M219.56,81h.17"/>
    <path class="cls-4" d="M406.48,172.5c-8.07-.06-16.15-.09-24.22-.1-4.04,0-8.07-.01-12.11,0-4.04,0-8.07,0-12.11.02-16.15.04-32.3.14-48.45.34"/>
    <path class="cls-4" d="M288.8,156.57c-.11-.34-.08-.7.08-1.02.17-.34.42-.54.75-.71.46-.24,1.45-.61,1.94-.78,1.31-.48,2.64-.92,3.96-1.36"/>
    <path class="cls-4" d="M406.08,173.7c-8.01-.05-16.02-.08-24.03-.09-4,0-8.01,0-12.01,0-4,0-8.01,0-12.01.02-16.02.04-32.03.14-48.05.32"/>
    <path class="cls-4" d="M355.86,198.43c-24.9.03-72.15.19-97.05.68"/>
    <path class="cls-4" d="M299.46,162.9c-.66.22-1.32.44-1.98.66-.33.11-.66.23-.99.35-.16.06-.33.12-.49.19-.12.05-.24.1-.36.15-.03.01-.06.03-.08.05,0,0-.03.02-.02.03"/>
    <line class="cls-4" x1="200.13" y1="67.9" x2="199.5" y2="67.29"/>
    <line class="cls-4" x1="438.47" y1="172.87" x2="438.47" y2="173.17"/>
    <path class="cls-4" d="M198.86,62.51c.26,1.41.68,3.5,1.22,4.86"/>
    <path class="cls-4" d="M298.52,163.06c-1.16.38-2.32.76-3.47,1.16-.58.2-1.15.4-1.72.61-.29.1-.57.21-.86.32-.21.08-.42.17-.63.27-.05.02-.1.05-.14.08,0,0-.05.03-.04.05"/>
    <path class="cls-4" d="M456.57,193.11c-.03.19-.07.38-.11.57"/>
    <line class="cls-4" x1="458.77" y1="186.58" x2="458.78" y2="187.45"/>
    <line class="cls-4" x1="260.24" y1="174.93" x2="260.24" y2="174.71"/>
    <path class="cls-4" d="M309.67,172.96c16.12-.21,32.25-.32,48.37-.36,4.03-.01,8.06-.02,12.09-.02,4.03,0,8.06,0,12.09.01,8.06.02,16.12.06,24.18.12"/>
    <path class="cls-4" d="M310,188.18c-.95.31-1.91.61-2.86.9-.48.15-.96.29-1.44.43-.24.07-.48.14-.72.21-.18.05-.35.1-.53.14-.05.01-.09.02-.14.03-.01,0-.04.01-.06,0"/>
    <path class="cls-4" d="M246.53,176.92c-3.36-.19-6.72-.41-10.08-.67-3.32-.25-6.63-.54-9.95-.86-6.67-.65-13.31-1.44-19.94-2.38-3.36-.47-6.71-.99-10.05-1.53-3.26-.54-6.52-1.11-9.77-1.72-3.34-.63-6.66-1.31-9.98-2.03-3.22-.7-6.44-1.45-9.64-2.25-6.32-1.58-13.11-3.48-19.3-5.54-6.42-2.13-12.53-4.53-18.67-7.39-6.09-2.83-11.95-6-17.64-9.58-3.22-2.02-6.35-4.16-9.41-6.41-2.33-1.72-4.62-3.5-6.87-5.33"/>
    <line class="cls-4" x1="458.74" y1="186.58" x2="458.74" y2="187.45"/>
    <line class="cls-4" x1="458.74" y1="185.07" x2="458.74" y2="186.36"/>
    <path class="cls-4" d="M472.67,174.29c-.12-69.96-.23-139.9-2.4-209.85"/>
    <line class="cls-4" x1="457.68" y1="178.38" x2="457.68" y2="178.38"/>
    <line class="cls-4" x1="246.96" y1="199.53" x2="246.97" y2="199.64"/>
    <path class="cls-4" d="M246.52,175.96c0,.07.14.1.18.12"/>
    <path class="cls-4" d="M246.79,199.59s.03.02.04.03c.02,0,.03,0,.05.01.03,0,.06.01.09.02"/>
    <path class="cls-4" d="M472.46,199.38s.06-.01.06-.03"/>
    <path class="cls-4" d="M219.73,81c.18,0,.36,0,.54-.01"/>
    <path class="cls-4" d="M214.21,82.7c-.27.06-.53.12-.8.19"/>
    <path class="cls-4" d="M472.68,175.55s.06-.04.06-.07"/>
    <path class="cls-4" d="M548.87,277.55c.63,1.87,1.22,3.74,1.76,5.63.24.85.56,1.99.75,2.85.09.42.21,1.01.11,1.46-.11.5-.47.89-.96,1.04"/>
    <path class="cls-4" d="M246.52,174.72s.07-.08.1-.09c.1-.04.2-.07.3-.09.4-.09.8-.14,1.2-.18.67-.08,1.33-.13,2-.18.93-.07,1.86-.13,2.8-.18,2.16-.12,4.31-.22,6.47-.3,4.31-.17,8.63-.29,12.95-.4,8.63-.22,17.27-.37,25.9-.5"/>
    <path class="cls-4" d="M418.02,172.5c9.13.09,18.27.2,27.4.38,4.57.09,9.13.2,13.7.35,2.28.08,4.56.16,6.84.28.99.05,1.97.11,2.96.17.71.05,1.41.1,2.12.18.43.05.85.09,1.27.18.11.02.21.05.32.09.03.01.1.04.1.09"/>
    <line class="cls-4" x1="458.04" y1="189.05" x2="458.68" y2="189.44"/>
    <path class="cls-4" d="M459.26,181.74c.38,1.03.6,2.17.69,3.26"/>
    <path class="cls-4" d="M468.68,174.24s-.06-.07-.09-.08c-.09-.04-.18-.06-.27-.08-.37-.09-.75-.13-1.13-.17-.65-.07-1.3-.12-1.95-.17-.94-.07-1.88-.12-2.82-.17-2.11-.11-4.23-.19-6.34-.26-4.23-.14-8.46-.25-12.68-.33-8.46-.18-16.93-.29-25.39-.37"/>
    <path class="cls-4" d="M298.26,172.89c-7.98.12-15.95.27-23.93.47-3.99.1-7.97.22-11.96.38-1.99.08-3.99.17-5.98.28-.89.05-1.77.11-2.66.18-.61.05-1.23.1-1.84.17-.36.04-.71.09-1.06.17-.09.02-.18.04-.26.08-.03.01-.08.04-.09.08"/>
    <path class="cls-4" d="M198.96,49.61c-1.34-21.61-1.89-46.62-1.9-68.26"/>
    <path class="cls-4" d="M459.77,186.28c-.19.12-.38.21-.59.3"/>
    <path class="cls-4" d="M459.06,185.06c.21-.08.4-.17.59-.3"/>
    <path class="cls-4" d="M306.61,491.05c-.97-.31-1.92-.65-2.86-1.03-.47-.19-.94-.39-1.39-.61-.23-.11-.46-.22-.67-.35-.09-.06-.19-.11-.28-.18-.06-.04-.12-.09-.17-.14-.05-.06-.09-.13,0-.17"/>
    <path class="cls-4" d="M292.41,513.1c-.69-.18-1.38-.34-2.09-.47-.35-.06-.7-.12-1.06-.15-.18-.02-.36-.02-.53-.02-.11,0-.22.02-.34.06-.06.02-.12.06-.14.12"/>
    <path class="cls-4" d="M458.12,182.43c.22.65.39,1.3.52,1.98"/>
    <path class="cls-4" d="M512.35,289.33c.34,1.01.66,2.03.97,3.05.16.51.31,1.02.45,1.54.07.26.14.51.21.77.05.19.1.38.13.58,0,.05.02.1.02.15,0,0,0,.05-.01.05"/>
    <line class="cls-4" x1="510.38" y1="285.73" x2="510.74" y2="285.05"/>
    <path class="cls-4" d="M510.38,285.73s.02,0,.02,0c.02.02.03.05.05.07.06.12.11.24.16.37.07.16.13.32.19.48.12.32.24.65.35.97.23.65.45,1.3.67,1.96"/>
    <path class="cls-4" d="M541.27,291.39s.03-.08.03-.1c0-.09,0-.18-.02-.26-.05-.34-.13-.68-.21-1.01-.11-.46-.23-.91-.35-1.36-.24-.9-.51-1.8-.78-2.7-.54-1.79-1.11-3.58-1.7-5.36"/>
    <path class="cls-4" d="M457.94,189.67c.25-.06.49-.13.73-.23"/>
    <line class="cls-4" x1="459.77" y1="186.28" x2="456.35" y2="186.56"/>
    <path class="cls-4" d="M458.88,187.45c0-.16.03-.32.07-.47.03-.1.11-.35.24-.4"/>
    <path class="cls-4" d="M459.06,185.06s-.03,0-.04,0"/>
    <path class="cls-4" d="M457.94,189.67c.12-.66.18-1.32.2-1.99"/>
    <path class="cls-4" d="M457.72,187.04c-.44.11-.88.21-1.32.3"/>
    <path class="cls-4" d="M456.28,185.82c.44-.09.88-.19,1.32-.3"/>
    <path class="cls-4" d="M457.9,184.64c-.13-.67-.3-1.33-.52-1.98"/>
    <path class="cls-4" d="M458.88,187.45c-.02.67-.09,1.33-.2,1.98"/>
    <path class="cls-4" d="M456.69,178.9c.69.09,1.24.57,1.63,1.07.41.52.71,1.15.94,1.76"/>
    <line class="cls-4" x1="456.39" y1="187.04" x2="457.79" y2="187.03"/>
    <line class="cls-4" x1="459.02" y1="185.06" x2="457.91" y2="185.07"/>
    <path class="cls-4" d="M459.02,185.06c-.13,0-.23-.19-.27-.27-.06-.12-.09-.25-.12-.38"/>
    <path class="cls-4" d="M459.26,181.74c1.03,2.77,1.06,5.81.08,8.6"/>
    <path class="cls-4" d="M459.35,190.34c-.22.63-.53,1.29-.95,1.83-.4.52-.98,1.02-1.7,1.07"/>
    <path class="cls-4" d="M458.12,182.43c-.25.07-.49.14-.73.23"/>
    <line class="cls-4" x1="458.12" y1="182.43" x2="457.46" y2="182.88"/>
    <path class="cls-4" d="M457.72,187.04s.04,0,.06,0"/>
    <path class="cls-4" d="M540,287.48s.02-.04.02-.06c0-.05,0-.1-.01-.15-.03-.2-.07-.39-.12-.58-.06-.26-.13-.52-.2-.78-.14-.52-.29-1.03-.44-1.54-.31-1.03-.63-2.04-.97-3.06"/>
    <line class="cls-4" x1="535.34" y1="273.13" x2="544.59" y2="270.27"/>
    <path class="cls-4" d="M213.15,82.88c-.59-.02-1.17-.07-1.76-.17"/>
    <path class="cls-4" d="M511.83,289.58c.3.91.59,1.83.87,2.75.14.46.28.92.41,1.38.06.23.13.46.19.7.05.18.09.36.12.54,0,.04.01.08.01.13,0,.01,0,.04-.02.03"/>
    <path class="cls-4" d="M539.64,287.59c.24.65.48,1.3.73,1.95.13.32.26.64.4.96.07.16.14.32.22.47.06.11.11.22.18.33.02.02.06.1.1.09"/>
    <path class="cls-4" d="M514.12,295.47s0,0,0,0"/>
    <path class="cls-4" d="M513.41,295.11s-.02-.02-.03-.04c-.02-.03-.03-.06-.05-.09-.06-.11-.1-.22-.15-.34-.07-.16-.13-.32-.19-.48-.12-.32-.24-.65-.35-.97-.23-.65-.45-1.3-.67-1.95"/>
    <path class="cls-4" d="M212.68,78.85c-1.41,0-2.89.25-4.21.78-.68.27-1.29.6-1.86,1.06-.5.41-1.07,1.05-1.12,1.77"/>
    <path class="cls-4" d="M220.65,82.89c.01-.8-.67-1.55-1.2-1.99-.6-.5-1.35-.9-2.07-1.2-1.47-.59-3.12-.87-4.69-.86"/>
    <line class="cls-4" x1="472.46" y1="199.38" x2="472.68" y2="175.55"/>
    <line class="cls-4" x1="514.11" y1="295.47" x2="513.41" y2="295.11"/>
    <line class="cls-4" x1="550.54" y1="288.54" x2="541.28" y2="291.39"/>
    <path class="cls-4" d="M510.74,285.04s.03.02.03.02c.02.03.04.06.05.09.07.13.12.26.18.39.07.18.14.35.21.53.14.36.27.72.39,1.08.26.72.5,1.45.74,2.17"/>
    <path class="cls-4" d="M510.74,285.05s0,0,0,0"/>
    <path class="cls-4" d="M535.34,273.13s-.03.11-.03.14c0,.13.02.25.04.37.03.17.06.34.1.51.07.34.16.67.24,1.01.17.67.36,1.34.55,2"/>
    <line class="cls-4" x1="472.74" y1="175.48" x2="472.52" y2="199.34"/>
    <path class="cls-4" d="M544.59,270.27c.37-.11.76-.07,1.1.1.37.19.57.47.76.82.29.54.68,1.51.9,2.08.54,1.41,1.04,2.84,1.52,4.27"/>
    <path class="cls-4" d="M457.68,178.38c-.51.02-1.03.52-1.31.85-.35.41-.62.86-.86,1.34"/>
    <path class="cls-4" d="M263.14,186.43c0-1.42-.2-2.9-.64-4.26-.22-.69-.5-1.35-.88-1.97-.19-.31-.4-.6-.66-.85-.17-.17-.34-.31-.55-.42-.12-.06-.23-.1-.37-.1"/>
    <path class="cls-4" d="M455.51,180.58c-1.03,2.11-1.31,4.8-1.06,7.07.13,1.18.4,2.4.87,3.5.24.56.52,1.08.9,1.57.23.3.52.6.85.8.18.11.38.2.6.2"/>
    <path class="cls-4" d="M260.11,194c.13,0,.24-.04.36-.1.22-.11.39-.25.55-.42.26-.26.46-.54.65-.85.38-.62.65-1.27.86-1.96.42-1.35.61-2.83.61-4.24"/>
    <path class="cls-4" d="M538.28,281.32c-.24-.73-.49-1.45-.76-2.17-.13-.36-.26-.72-.41-1.08-.07-.18-.14-.36-.22-.53-.06-.13-.11-.26-.19-.38-.02-.03-.03-.06-.06-.09,0,0-.02-.03-.04-.02"/>
    <path class="cls-4" d="M307.8,188.65c.95-.31,1.91-.61,2.87-.9.48-.15.96-.29,1.44-.43.24-.07.48-.14.72-.21.18-.05.37-.1.56-.14.04,0,.09-.02.13-.03.01,0,.02,0,.03,0,0,0,0,0,0,0"/>
    <path class="cls-4" d="M538.25,280.61c-.42-1.27-.86-2.54-1.32-3.8-.23-.63-.46-1.26-.71-1.88-.12-.31-.25-.62-.39-.93-.1-.23-.2-.45-.32-.67-.03-.05-.06-.1-.1-.15-.01-.01-.04-.05-.07-.04"/>
    <path class="cls-4" d="M307.51,188.16c1.06-.34,2.12-.68,3.19-1,.53-.16,1.07-.32,1.6-.48.27-.08.53-.16.8-.23.2-.06.4-.11.6-.16.05-.01.1-.02.15-.03,0,0,.05-.01.05,0"/>
    <line class="cls-4" x1="303.57" y1="189.53" x2="295.54" y2="164.33"/>
    <path class="cls-4" d="M511.98,291.25c-.3-.91-.59-1.82-.87-2.74-.14-.46-.28-.92-.41-1.38-.06-.23-.13-.46-.19-.69-.04-.17-.08-.33-.12-.5,0-.05-.02-.09-.02-.14,0-.02,0-.04,0-.06"/>
    <path class="cls-4" d="M309.75,159.82s-.08-.02-.1-.01c-.09,0-.18.02-.27.04-.36.07-.71.16-1.06.25-.47.12-.94.25-1.41.38-.94.26-1.87.54-2.81.82-1.87.56-3.73,1.15-5.58,1.75"/>
    <path class="cls-4" d="M313.56,186.94s-.02.02-.03.02c-.03.01-.05.03-.08.04-.11.04-.21.08-.32.12-.15.05-.3.11-.44.16-.3.1-.59.2-.89.3-.6.2-1.19.39-1.79.59"/>
    <line class="cls-4" x1="305.87" y1="161.05" x2="313.91" y2="186.26"/>
    <path class="cls-4" d="M292.11,513.99c-.03.08.07.18.12.22.14.13.3.23.47.33.24.14.49.27.74.4.5.25,1.01.47,1.53.68,1.04.42,2.09.8,3.15,1.14"/>
    <path class="cls-4" d="M288.25,512.65c-.02.06,0,.11.03.16.05.09.11.15.18.22.24.23.54.42.82.58.42.25.85.48,1.29.69.88.43,1.77.82,2.68,1.19,1.81.74,3.65,1.4,5.51,2"/>
    <line class="cls-4" x1="166.48" y1="387.24" x2="175.39" y2="384.48"/>
    <path class="cls-4" d="M175.41,384.47c-.05.02-.08.07-.09.12-.03.09-.04.18-.04.28-.02.34.03.71.08,1.04.07.49.16.98.26,1.46.2.97.44,1.93.69,2.89.51,1.92,1.08,3.81,1.72,5.69"/>
    <path class="cls-4" d="M310.44,491.76c.03.06,0,.1-.05.12-.1.04-.24.03-.35.02-.17-.01-.33-.04-.5-.07-.33-.06-.66-.14-.99-.22-.65-.17-1.3-.36-1.94-.56"/>
    <path class="cls-4" d="M306.52,491.66c-1.06-.34-2.11-.71-3.15-1.13-.52-.21-1.03-.43-1.53-.66-.25-.12-.5-.24-.74-.38-.17-.1-.34-.19-.48-.32-.04-.04-.08-.07-.11-.12-.02-.03-.03-.05-.02-.09"/>
    <path class="cls-4" d="M300.5,488.95s.03-.04.05-.05"/>
    <path class="cls-4" d="M196.29-19.62c0,19.03.39,39.4,1.22,58.41.41,9.47.99,19.71,1.77,29.16.4,4.85.86,9.7,1.47,14.53.21,1.67.44,3.33.7,5,.22,1.36.45,2.72.73,4.07.21,1.04.45,2.08.74,3.1.21.72.43,1.43.74,2.11"/>
    <path class="cls-4" d="M204.93,102.07c-26.9.16-53.8.32-80.7.39"/>
    <path class="cls-4" d="M204.93,102.07c-.2,0-.38-.1-.52-.22-.22-.19-.38-.43-.52-.68-.21-.36-.37-.74-.52-1.14-.2-.52-.37-1.05-.52-1.59-.43-1.5-.74-3.01-1.02-4.54-.39-2.09-.71-4.19-.99-6.3-.32-2.34-.59-4.68-.84-7.03-.29-2.76-.55-5.52-.79-8.28-.85-9.93-1.47-20.78-1.92-30.74-.23-5.13-.42-10.26-.58-15.39-.08-2.54-.15-5.08-.22-7.62-.07-2.59-.13-5.18-.18-7.77-.21-10.26-.32-20.53-.33-30.79"/>
    <path class="cls-4" d="M301.23,488.57c.29-.14,1.68.21,1.92.27.63.16,1.26.35,1.88.55"/>
    <line class="cls-4" x1="300.55" y1="488.9" x2="301.22" y2="488.58"/>
    <line class="cls-4" x1="285.26" y1="521.59" x2="288.25" y2="512.65"/>
    <path class="cls-4" d="M295.15,527.52c-1.87-.6-3.93-1.35-5.73-2.14-.86-.38-1.93-.87-2.73-1.37-.41-.25-.88-.58-1.17-.97-.31-.42-.42-.94-.25-1.45"/>
    <path class="cls-4" d="M310.79,492.52c-.02.06-.1.07-.15.08-.13.02-.25,0-.38,0-.18-.02-.37-.05-.55-.08-.36-.07-.72-.15-1.08-.24-.71-.18-1.42-.39-2.12-.62"/>
    <path class="cls-4" d="M310.78,492.44s.02.05.01.07"/>
    <path class="cls-4" d="M309.77,398.49c0,1.02-.21,2.03-.63,2.97"/>
    <path class="cls-4" d="M296.05,394.88c1.61-2.93,5.02-4.35,8.24-3.49,3.21.86,5.48,3.77,5.48,7.1"/>
    <path class="cls-4" d="M309.67,295.5c0,1.99-.81,3.88-2.25,5.25"/>
    <path class="cls-4" d="M305.86,289.1c2.34,1.28,3.81,3.73,3.81,6.4"/>
    <path class="cls-4" d="M398.77,295.82c0-1.22.31-2.43.9-3.5"/>
    <path class="cls-4" d="M399.67,292.32c1.41-2.57,4.22-4.02,7.13-3.75,2.9.27,5.4,2.21,6.34,4.98"/>
    <path class="cls-4" d="M409.81,392.94c2.35,1.29,3.85,3.76,3.85,6.46"/>
    <path class="cls-4" d="M398.91,399.27c0-2.6,1.38-4.99,3.63-6.28,2.25-1.29,5.01-1.29,7.27-.05"/>
    <line class="cls-4" x1="310.44" y1="491.76" x2="310.78" y2="492.44"/>
    <path class="cls-4" d="M306.26,518.91c.02-.07,0-.13-.04-.19-.06-.1-.14-.18-.23-.25-.14-.12-.28-.22-.43-.32-.3-.2-.61-.37-.93-.54-.63-.34-1.28-.64-1.94-.93"/>
    <line class="cls-4" x1="306.26" y1="518.91" x2="303.27" y2="527.86"/>
    <path class="cls-4" d="M400.32,343.27c-.86-9.31-4.55-18.13-10.54-25.31-5.99-7.18-14.01-12.39-22.99-14.96-8.98-2.57-18.54-2.39-27.41.56-8.87,2.95-16.64,8.53-22.23,16.03"/>
    <path class="cls-4" d="M262.24,346.58c-.01-16.36,4.37-32.41,12.71-46.48,4.15-7.01,9.23-13.42,15.09-19.07,5.86-5.65,12.45-10.5,19.59-14.41"/>
    <path class="cls-4" d="M303.27,527.86c-.12.35-.36.64-.68.82-.34.19-.67.25-1.05.26-.65.02-1.53-.14-2.17-.27-1.36-.28-2.9-.73-4.22-1.15"/>
    <path class="cls-4" d="M298.12,516.76c.7.23,1.41.43,2.13.61.36.09.72.17,1.08.23.18.03.37.06.55.07.13,0,.25.02.37-.01.05,0,.13-.03.15-.09"/>
    <path class="cls-4" d="M298.77,517.49c1.23.39,2.47.76,3.73,1.07.63.15,1.26.3,1.9.4.32.05.64.1.96.12.22.02.43.03.65-.02.09-.02.22-.05.26-.15"/>
    <path class="cls-4" d="M398.83,296.75c-.04-.31-.06-.62-.06-.93"/>
    <path class="cls-4" d="M298.03,289.6c2.29-1.67,5.34-1.86,7.82-.5"/>
    <path class="cls-4" d="M305.03,489.39c.94.3,1.88.63,2.8,1,.3.12,2.42.98,2.62,1.37"/>
    <path class="cls-4" d="M221.99,18.95c-.33-12.63-.48-25.26-.49-37.9"/>
    <path class="cls-4" d="M246.51,150.14c0-4.13-.13-8.24-.46-12.35-.16-2.05-.38-4.1-.66-6.14-.28-2.04-.62-4.07-1.04-6.09-1.55-7.38-4.6-16.44-11.2-21.47"/>
    <path class="cls-4" d="M233.14,104.09c-1.12-.85-2.3-1.56-3.58-2.15"/>
    <path class="cls-4" d="M229.38,101.83s.03.02.05.03"/>
    <path class="cls-4" d="M250.5,174.71c0,.06.12.1.16.11"/>
    <path class="cls-4" d="M229.56,101.94s.08.03.13.04"/>
    <path class="cls-4" d="M472.73,174.22s-.04.06-.06.07"/>
    <path class="cls-4" d="M470.33-35.98c2.17,70.06,2.29,140.12,2.4,210.2"/>
    <path class="cls-4" d="M407.82,188.86c-.94-.3-1.87-.61-2.81-.93-.47-.16-.93-.32-1.4-.48-.23-.08-.47-.16-.7-.24-.17-.06-.34-.12-.51-.19-.04-.02-.09-.03-.13-.05-.01,0-.04-.01-.05-.03"/>
    <path class="cls-4" d="M405.97,188.1c.94.31,1.88.62,2.81.93.47.16.94.32,1.4.48.23.08.47.16.7.24.18.06.35.13.53.19.04.02.08.03.13.05,0,0,.02,0,.03.01,0,0,0,0,0,0"/>
    <path class="cls-4" d="M406.04,187.54c1.04.34,2.09.68,3.13,1.03.52.18,1.04.35,1.56.53.26.09.52.18.78.27.19.07.39.14.58.21.05.02.1.04.14.06.01,0,.02.01.03.02,0,0,.01,0,0,0"/>
    <path class="cls-4" d="M402.22,186.95s0,0,0,0c0,0,.01,0,.02,0,.03,0,.06.01.08.02.12.03.24.07.37.1.16.05.31.09.47.14.31.1.62.19.94.29.62.2,1.25.4,1.87.6"/>
    <path class="cls-4" d="M401.87,186.26s.03,0,.03,0c.03,0,.06.01.1.02.13.03.27.07.4.11.17.05.35.1.52.16.35.11.69.22,1.04.32.69.22,1.39.44,2.08.67"/>
    <line class="cls-4" x1="420.73" y1="164.42" x2="412.27" y2="189.67"/>
    <line class="cls-4" x1="258.09" y1="186.27" x2="261.31" y2="186.01"/>
    <path class="cls-4" d="M258.09,186.27c0,.5.04,1,.11,1.5"/>
    <path class="cls-4" d="M229.43,101.86s.09.06.13.08"/>
    <path class="cls-4" d="M250.66,174.83c.56.19,2.47.34,3.04.38"/>
    <line class="cls-4" x1="259.65" y1="190" x2="260.28" y2="189.58"/>
    <path class="cls-4" d="M259.65,190c.23-.08.46-.17.69-.26"/>
    <path class="cls-4" d="M259.81,182.82c-.12.65-.19,1.29-.21,1.95"/>
    <path class="cls-4" d="M260,185.39c.42-.13.83-.24,1.26-.34"/>
    <path class="cls-4" d="M261.37,186.55c-.42.1-.84.21-1.26.34"/>
    <path class="cls-4" d="M259.82,187.78c.12.67.29,1.32.51,1.96"/>
    <path class="cls-4" d="M260.99,193.51c-.59-.08-1.08-.5-1.42-.93-.37-.47-.62-.97-.83-1.52"/>
    <path class="cls-4" d="M258.79,187.41c.12,0,.21.19.24.27.05.12.08.24.11.36"/>
    <line class="cls-4" x1="261.27" y1="185.41" x2="259.92" y2="185.4"/>
    <path class="cls-4" d="M259.92,185.4c-.14,0-.23-.13-.27-.25-.05-.13-.06-.25-.05-.38"/>
    <path class="cls-4" d="M258.73,191.06c-1.17-3-1.14-6.33.06-9.31"/>
    <path class="cls-4" d="M258.8,181.75c.35-.86,1.06-2.19,2.17-2.4"/>
    <path class="cls-4" d="M468.63,174.3s.05-.04.05-.07"/>
    <path class="cls-4" d="M209.91,82c-.15.26-.29.52-.43.79"/>
    <line class="cls-4" x1="210.06" y1="82.06" x2="209.48" y2="82.79"/>
    <path class="cls-4" d="M472.67,174.29c-.53.31-4.43.54-4.96.58"/>
    <path class="cls-4" d="M214.71,83.24c-.13-.01-.24-.04-.36-.1-.11-.06-.19-.17-.19-.3"/>
    <path class="cls-4" d="M246.87,174.88c.41,0,.82,0,1.23,0,.21,0,.41,0,.62-.01.1,0,.2,0,.3-.01.05,0,.1,0,.15-.01.08-.01-.08-.02-.12-.02-.52-.03-1.94-.03-2.46-.03"/>
    <path class="cls-4" d="M213.34,84.28c.09-.13.31-.2.44-.22.17-.04.33-.05.5-.03"/>
    <line class="cls-4" x1="213.46" y1="81.11" x2="212.79" y2="84.97"/>
    <path class="cls-4" d="M209.91,82c.62.27,1.24.5,1.89.7"/>
    <path class="cls-4" d="M214.78,81.35c-.18.46-.37.91-.58,1.36"/>
    <path class="cls-4" d="M214.71,83.24c.64.05,1.27.06,1.91.02"/>
    <path class="cls-4" d="M220.2,81.7c.02.43-.09.85-.29,1.22"/>
    <line class="cls-4" x1="211.96" y1="82.73" x2="211.91" y2="83.92"/>
    <path class="cls-4" d="M214.88,85.43c-1.3.15-2.55.1-3.84-.15"/>
    <path class="cls-4" d="M211.04,85.29c-1.11-.21-2.28-.6-3.24-1.22-.9-.58-1.88-1.55-1.77-2.8"/>
    <path class="cls-4" d="M275.29,173.22c-.02.15-.05.31-.07.46"/>
    <path class="cls-4" d="M272.63,173.77c-.03-.16-.05-.32-.08-.48"/>
    <path class="cls-4" d="M246.59,174.79s-.06-.04-.06-.07"/>
    <path class="cls-4" d="M408.58,519.12c-.66.26-1.32.53-1.96.84-.32.15-.64.31-.95.49-.15.09-.3.18-.45.29-.09.07-.18.14-.25.24-.03.05-.07.11-.05.18"/>
    <path class="cls-4" d="M407.04,493.1c-1.04.34-2.08.64-3.14.91-.53.13-1.06.26-1.59.36-.27.05-.54.1-.81.13-.19.02-.38.04-.57.03-.05,0-.1,0-.15-.03-.03-.01-.05-.02-.06-.06"/>
    <line class="cls-4" x1="229.63" y1="101.67" x2="206.17" y2="102.06"/>
    <path class="cls-4" d="M246.69,167.4s-.08-.03-.11-.05"/>
    <path class="cls-4" d="M246.69,167.4c0-5.69,0-11.37,0-17.06"/>
    <line class="cls-4" x1="260.37" y1="186.08" x2="260.37" y2="186.81"/>
    <path class="cls-4" d="M312.37,181.45c.81,1.31,1.21,2.84,1.21,4.37"/>
    <path class="cls-4" d="M313.59,185.81c0,.39-.03.77-.08,1.16"/>
    <path class="cls-4" d="M402.68,187.13c-.04-.23-.07-.45-.09-.68"/>
    <line class="cls-4" x1="457.02" y1="185.32" x2="457.03" y2="187.2"/>
    <line class="cls-4" x1="458.77" y1="184.83" x2="458.77" y2="186.36"/>
    <line class="cls-4" x1="260.25" y1="189.48" x2="260.25" y2="186.09"/>
    <path class="cls-4" d="M246.59,174.79c0-2.48,0-4.97,0-7.45"/>
    <line class="cls-4" x1="220.73" y1="82.15" x2="220.18" y2="82.15"/>
    <path class="cls-4" d="M229.29,101.63c0,.08.04.15.1.2"/>
    <path class="cls-4" d="M246.52,174.72c0-8.19-.01-16.38-.01-24.58"/>
    <path class="cls-4" d="M229.38,101.83c-.25-.19-.44-.5-.58-.77-.22-.43-.38-.87-.53-1.32-.2-.63-.37-1.26-.52-1.9-.19-.82-.36-1.65-.51-2.48-.41-2.23-.72-4.46-1-6.7-.37-2.97-.67-5.94-.94-8.91-.32-3.49-.59-6.98-.83-10.47-.28-4.05-.53-8.1-.74-12.16-.4-7.54-.72-15.09-.97-22.64-.12-3.71-.23-7.42-.33-11.14-.05-1.91-.1-3.82-.14-5.73-.04-1.93-.08-3.87-.12-5.8-.07-3.76-.13-7.52-.18-11.27-.05-3.8-.08-7.6-.1-11.4-.01-1.9-.02-3.81-.02-5.71,0-1.9,0-3.79,0-5.69,0-3.75.02-7.51.04-11.26.1-14.73.41-30.61,1.04-45.33"/>
    <line class="cls-4" x1="310.79" y1="492.52" x2="302.4" y2="517.57"/>
    <line class="cls-4" x1="292.11" y1="513.99" x2="300.5" y2="488.95"/>
    <line class="cls-4" x1="510.74" y1="285.04" x2="536.61" y2="277.04"/>
    <line class="cls-4" x1="540" y1="287.48" x2="514.12" y2="295.47"/>
    <path class="cls-4" d="M456.28,185.82c.06.51.1,1.01.12,1.52"/>
    <path class="cls-4" d="M457.9,184.64c.03.17.03.33,0,.5-.04.15-.13.33-.3.38"/>
    <line class="cls-4" x1="205.78" y1="101.93" x2="229.29" y2="101.54"/>
    <path class="cls-4" d="M204.55-121.53c-.27,0-.49.19-.65.37-.29.33-.5.77-.66,1.16-.28.65-.48,1.33-.67,2.01-.26.96-.47,1.93-.66,2.9-.25,1.27-.46,2.55-.65,3.83-.24,1.58-.44,3.17-.63,4.75-.48,4.06-.84,8.12-1.15,12.19-.33,4.37-.6,8.75-.83,13.12-.26,4.99-.47,9.99-.65,14.98-.33,9.39-.53,18.78-.64,28.17-.06,4.75-.09,9.49-.1,14.24,0,4.64,0,9.28.04,13.91.13,18.33.6,38,1.49,56.3.25,5,.53,10,.86,14.99.29,4.37.62,8.74,1.01,13.1.35,3.88.74,7.76,1.23,11.63.36,2.81.76,5.64,1.3,8.43.19,1,.41,2,.66,2.99.19.74.39,1.48.65,2.2.18.5.37.98.64,1.44.15.26.35.56.62.74"/>
    <path class="cls-4" d="M221.86-17.85c.01,5,.04,10,.09,15,.05,5,.13,10,.22,15,.19,10,.47,20,.86,29.99.38,9.71.92,20.27,1.64,29.97.37,4.99.8,9.97,1.38,14.95.24,2.03.5,4.05.82,6.06.23,1.47.49,2.93.82,4.39.12.53.25,1.06.41,1.58.12.4.25.8.4,1.19.11.28.23.55.39.81.11.17.22.33.39.46"/>
    <line class="cls-4" x1="246.79" y1="199.59" x2="246.52" y2="175.96"/>
    <path class="cls-4" d="M472.74,175.48s-.07-.07-.1-.09c-.1-.04-.19-.06-.3-.09-.41-.09-.81-.13-1.23-.18-.71-.08-1.42-.13-2.13-.18-1.03-.07-2.05-.13-3.08-.18-2.3-.11-4.6-.2-6.9-.27-4.6-.15-9.2-.25-13.8-.34-9.21-.18-18.41-.29-27.62-.37"/>
    <path class="cls-4" d="M298.64,174.08c-8.7.12-17.41.27-26.11.48-4.35.11-8.7.23-13.05.39-2.17.08-4.35.17-6.52.29-.97.05-1.94.11-2.91.18-.67.05-1.34.1-2.01.18-.39.04-.78.09-1.16.18-.1.02-.19.04-.28.09-.03.01-.09.04-.09.08"/>
    <path class="cls-4" d="M472.52,199.35s-.06-.03-.07-.04c-.08-.02-.15-.03-.23-.04-.31-.04-.63-.06-.95-.08-.42-.03-.84-.05-1.27-.06-.85-.04-1.69-.06-2.54-.09-1.69-.05-3.38-.09-5.08-.12"/>
    <path class="cls-4" d="M257.75,199.12c-1.83.04-3.66.08-5.49.13-.91.03-1.83.06-2.74.1-.46.02-.91.04-1.37.07-.34.02-.68.04-1.03.08-.08,0-.17.02-.25.04-.01,0-.08.02-.08.04"/>
    <line class="cls-4" x1="313.91" y1="186.26" x2="313.56" y2="186.94"/>
    <line class="cls-4" x1="204.86" y1="390.9" x2="179.8" y2="398.63"/>
    <line class="cls-4" x1="176.61" y1="388.33" x2="201.64" y2="380.59"/>
    <path class="cls-4" d="M123.79,102.46c-13.4.06-25.4,1.21-38.65,3.05-6.4.89-12.79,1.9-19.2,2.75-2.95.39-5.91.75-8.88,1.05-3.47.35-6.94.6-10.43.75-6.56.27-12.85.14-19.39-.41-3.52-.29-7.02-.7-10.51-1.18-2.91-.4-5.82-.85-8.72-1.32-3.09-.5-6.18-1.02-9.27-1.52-3.34-.54-6.53-1.02-9.88-1.5-2.95-.42-5.91-.81-8.87-1.15-3.47-.4-6.94-.73-10.42-.98"/>
    <path class="cls-4" d="M486.23,346.88c-.06-34.62-13.98-67.73-38.42-92.16-24.44-24.44-57.56-38.36-92.12-38.69-4.08-.04-8.15.11-12.22.45-4.21.35-8.37.9-12.53,1.66-8.65,1.57-17.12,4.01-25.28,7.28-15.9,6.38-30.39,15.83-42.61,27.83-24.71,24.27-38.57,57.4-38.55,92.03"/>
    <path class="cls-4" d="M447.03,347.72c.02,12.1-2.37,24.09-7.04,35.26-4.67,11.17-11.52,21.28-20.15,29.77-8.63,8.49-18.86,15.17-30.09,19.68-11.23,4.51-23.25,6.76-35.35,6.64-12.1-.12-24.07-2.6-35.22-7.29-11.15-4.69-21.3-11.5-29.85-20.06-8.55-8.56-15.36-18.7-20.02-29.87-4.66-11.17-7.07-23.15-7.08-35.26"/>
    <path class="cls-4" d="M434.69,301.9c2.01,3.48,3.77,7.04,5.31,10.75,1.54,3.71,2.82,7.47,3.87,11.35,2.09,7.73,3.15,15.71,3.16,23.72"/>
    <line class="cls-4" x1="419.21" y1="349.66" x2="418.91" y2="348.38"/>
    <path class="cls-4" d="M436.13,344.62c-1.63-4.22-6.19-6.55-10.56-5.43-4.4,1.13-7.22,5.39-6.47,9.88"/>
    <line class="cls-4" x1="202.26" y1="291.94" x2="177.34" y2="283.53"/>
    <line class="cls-4" x1="180.76" y1="273.35" x2="205.69" y2="281.75"/>
    <line class="cls-4" x1="513.54" y1="385.49" x2="539.33" y2="394.18"/>
    <line class="cls-4" x1="535.87" y1="404.56" x2="510.09" y2="395.85"/>
    <line class="cls-4" x1="401.87" y1="186.26" x2="410.33" y2="161.02"/>
    <line class="cls-4" x1="412.26" y1="189.68" x2="411.57" y2="190.02"/>
    <path class="cls-4" d="M261.37,186.55c-.06-.5-.09-1-.11-1.5"/>
    <path class="cls-4" d="M259.82,187.78c-.03-.17-.03-.33,0-.5.03-.14.12-.34.28-.39"/>
    <path class="cls-4" d="M212.74,82.44c-.08.16-.26.25-.42.28-.18.04-.35.03-.52-.03"/>
    <path class="cls-4" d="M214.78,81.35c-.49-.08-.97-.17-1.46-.27"/>
    <line class="cls-4" x1="214.17" y1="82.84" x2="214.23" y2="81.26"/>
    <line class="cls-4" x1="105.43" y1="134.42" x2="25.73" y2="109.53"/>
    <line class="cls-4" x1="411.15" y1="491.27" x2="419.3" y2="516.81"/>
    <line class="cls-4" x1="408.85" y1="519.97" x2="400.71" y2="494.45"/>
    <path class="cls-4" d="M260.24,174.71s.04-.06.07-.07c.07-.03.13-.05.2-.07.28-.07.56-.11.85-.14.49-.06.98-.11,1.46-.15.7-.06,1.41-.11,2.12-.15,1.59-.1,3.18-.17,4.77-.24,3.18-.14,6.36-.24,9.54-.33,6.37-.18,12.73-.31,19.1-.42"/>
    <path class="cls-4" d="M417.91,172.83c6.82.08,13.64.18,20.46.34,3.41.08,6.82.17,10.23.29,1.7.06,3.41.13,5.11.23.76.04,1.52.09,2.27.15.53.04,1.05.08,1.57.15.3.04.61.07.91.15.08.02.15.04.22.07.02.01.07.03.07.07"/>
    <path class="cls-4" d="M246.52,199.8c.01-.09.06-.16.14-.2.03-.02.06-.03.1-.04.06-.02.13-.03.19-.04.22-.03.44-.05.66-.07.85-.06,1.71-.1,2.56-.13,1.41-.05,2.83-.09,4.24-.13,1.96-.05,3.92-.09,5.88-.12,4.64-.09,9.28-.15,13.92-.2,9.28-.11,18.55-.18,27.83-.25,4.64-.03,9.28-.06,13.91-.08,2.29-.01,4.58-.02,6.88-.03,2.35-.01,4.69-.02,7.04-.03,2.3,0,4.61-.02,6.91-.02,2.34,0,4.67-.01,7.01-.02,4.64-.01,9.28-.02,13.91-.02"/>
    <path class="cls-4" d="M357.69,198.42c4.8,0,9.6,0,14.41,0s9.6,0,14.4,0c2.43,0,4.86,0,7.29.01,2.37,0,4.75,0,7.12.02,4.8.01,9.6.03,14.41.05,9.6.04,19.21.1,28.81.19,4.8.04,9.6.1,14.4.17,2.03.03,4.06.07,6.1.11,1.47.03,2.93.07,4.4.12.89.03,1.77.06,2.66.13.23.02.46.03.68.07.07,0,.14.02.2.04.03,0,.07.02.1.04.03.02.05.03.07.06.04.04.06.09.07.15"/>
  </g>
  <g id="_图层_4" data-name="图层 4">
    <g>
      <line class="cls-3" x1="397.27" y1="210.25" x2="399.25" y2="204.59"/>
      <line class="cls-5" x1="403.57" y1="192.28" x2="418.69" y2="149.2"/>
      <line class="cls-3" x1="420.85" y1="143.04" x2="422.84" y2="137.38"/>
      <polygon class="cls-1" points="406.09 210.72 393.23 221.77 390.09 205.1 406.09 210.72"/>
    </g>
    <g>
      <line class="cls-3" x1="314.9" y1="209.5" x2="312.91" y2="203.84"/>
      <line class="cls-5" x1="308.6" y1="191.53" x2="293.48" y2="148.44"/>
      <line class="cls-3" x1="291.32" y1="142.29" x2="289.33" y2="136.63"/>
      <polygon class="cls-1" points="322.08 204.35 318.94 221.01 306.08 209.96 322.08 204.35"/>
    </g>
    <g>
      <line class="cls-3" x1="308.8" y1="480.78" x2="306.81" y2="486.44"/>
      <line class="cls-5" x1="302.49" y1="498.75" x2="287.37" y2="541.83"/>
      <line class="cls-3" x1="285.21" y1="547.98" x2="283.23" y2="553.65"/>
      <polygon class="cls-1" points="299.97 480.31 312.84 469.26 315.98 485.92 299.97 480.31"/>
    </g>
    <g>
      <line class="cls-3" x1="402.06" y1="480.78" x2="404.05" y2="486.44"/>
      <line class="cls-5" x1="408.37" y1="498.75" x2="423.49" y2="541.83"/>
      <line class="cls-3" x1="425.65" y1="547.98" x2="427.64" y2="553.65"/>
      <polygon class="cls-1" points="394.88 485.92 398.02 469.26 410.89 480.31 394.88 485.92"/>
    </g>
    <g>
      <line class="cls-3" x1="489.14" y1="297.22" x2="494.85" y2="295.37"/>
      <line class="cls-5" x1="507.26" y1="291.34" x2="550.68" y2="277.24"/>
      <line class="cls-3" x1="556.89" y1="275.23" x2="562.59" y2="273.37"/>
      <polygon class="cls-1" points="494.12 304.52 477.53 300.99 488.88 288.39 494.12 304.52"/>
    </g>
    <g>
      <line class="cls-3" x1="223" y1="293.57" x2="217.29" y2="291.72"/>
      <line class="cls-5" x1="204.88" y1="287.69" x2="161.46" y2="273.59"/>
      <line class="cls-3" x1="155.25" y1="271.57" x2="149.55" y2="269.72"/>
      <polygon class="cls-1" points="223.26 284.74 234.61 297.34 218.02 300.87 223.26 284.74"/>
    </g>
    <g>
      <line class="cls-3" x1="216.44" y1="381.52" x2="210.73" y2="383.37"/>
      <line class="cls-5" x1="198.33" y1="387.4" x2="154.9" y2="401.5"/>
      <line class="cls-3" x1="148.69" y1="403.51" x2="142.99" y2="405.37"/>
      <polygon class="cls-1" points="211.46 374.22 228.05 377.75 216.7 390.35 211.46 374.22"/>
    </g>
    <g>
      <line class="cls-3" x1="492.76" y1="385.6" x2="498.46" y2="387.45"/>
      <line class="cls-5" x1="510.87" y1="391.48" x2="554.3" y2="405.58"/>
      <line class="cls-3" x1="560.5" y1="407.6" x2="566.21" y2="409.45"/>
      <polygon class="cls-1" points="492.5 394.43 481.15 381.83 497.73 378.3 492.5 394.43"/>
    </g>
  </g>
</svg>