<?xml version="1.0" encoding="UTF-8"?>
<svg xmlns="http://www.w3.org/2000/svg" viewBox="0 0 595.98 330.59">
  <defs>
    <style>
      .cls-1 {
        stroke: #000;
        stroke-linecap: round;
        stroke-linejoin: round;
        stroke-width: .75px;
      }

      .cls-1, .cls-2 {
        fill: none;
      }

      .cls-2 {
        stroke: red;
        stroke-miterlimit: 10;
        stroke-width: 3px;
      }

      .cls-3 {
        fill: #bfbfbf;
        stroke-width: 0px;
      }
    </style>
  </defs>
  <g id="_图层_4" data-name="图层 4">
    <ellipse class="cls-2" cx="295.51" cy="178.64" rx="113.65" ry="100.38" transform="translate(33.39 403.43) rotate(-71.77)"/>
  </g>
  <g id="_图层_3" data-name="图层 3">
    <polygon class="cls-3" points="420.32 177.3 404.74 169.46 402.58 172.09 401.66 173.93 415.1 185.59 416.09 186.45 417.84 190.85 518.1 257.23 518.44 257.45 518.44 258.3 520.67 259.66 524.24 256.16 577.61 291.58 575.2 295.67 577.81 297.47 578.84 296.14 580.07 296.02 592.84 277.35 595.3 273.54 594.85 272.17 595.6 270.8 592.98 269.05 589.99 272.86 536.51 237.87 538.45 233.46 536.3 231.87 535.38 232.07 434.66 165.89 432.43 167.02 420.32 177.3"/>
  </g>
  <g id="Make2D::可见线::正切线">
    <line class="cls-1" x1="181" y1="187.75" x2="168.61" y2="184.02"/>
    <path class="cls-1" d="M233.06,194.37c.04.28.09.55.13.83"/>
    <line class="cls-1" x1="297.81" y1="298.08" x2="299.92" y2="298.9"/>
    <line class="cls-1" x1="297.42" y1="67.13" x2="299.55" y2="67.38"/>
    <line class="cls-1" x1="358.33" y1="70.73" x2="352.1" y2="70.02"/>
    <path class="cls-1" d="M138.39,185.59c-.4.03-.8.04-1.2.03-.3,0-.9-.03-1.2-.13"/>
    <path class="cls-1" d="M168.61,184.02c.26,22.62,6.06,45.21,17.76,64.77,11.69,19.54,28.89,35.29,50.15,44.08"/>
    <path class="cls-1" d="M327.89,167.52c0,1.24-.03,2.48-.09,3.72"/>
    <path class="cls-1" d="M273.62,246.09c7.38,2.49,15.15,3.37,22.9,2.64,7.75-.73,15.23-3.03,22.11-6.61,6.89-3.58,13.07-8.38,18.36-14.03,5.3-5.66,9.68-12.14,13.04-19.11"/>
    <path class="cls-1" d="M236.52,292.87c2.19.9,4.4,1.72,6.64,2.47"/>
    <line class="cls-1" x1="203" y1="196.17" x2="207.19" y2="197.44"/>
    <line class="cls-1" x1="183.67" y1="230.57" x2="182.65" y2="231.01"/>
    <line class="cls-1" x1="261.02" y1="56.68" x2="260.78" y2="55.86"/>
    <line class="cls-1" x1="218.66" y1="279.6" x2="218.13" y2="280.91"/>
    <line class="cls-1" x1="217.79" y1="85.82" x2="216.58" y2="83.08"/>
    <line class="cls-1" x1="194.09" y1="252.51" x2="193.43" y2="252.99"/>
    <path class="cls-1" d="M358,174.37c.04-14.95-4.2-29.99-13.06-42.27-8.89-12.31-21.85-20.94-37.02-23.43"/>
    <line class="cls-1" x1="358" y1="174.37" x2="327.89" y2="167.52"/>
    <path class="cls-1" d="M138.39,185.59c.25,18.28,3.43,36.5,9.68,53.72,6.25,17.2,15.52,33.24,27.72,46.96,12.21,13.73,27.04,24.79,43.9,32.21,16.85,7.42,34.97,10.88,53.36,10.27,4.39-.15,8.74-.52,13.09-1.13,4.42-.61,8.78-1.45,13.11-2.52,9.18-2.26,18.07-5.5,26.58-9.62,16.52-8,31.29-19.15,43.82-32.48,12.53-13.34,22.73-28.79,30.3-45.43,7.58-16.65,12.51-34.45,14.6-52.62"/>
    <path class="cls-1" d="M415.69,166.31c.14,0,.27-.02.41-.04.07,0,.14-.02.2-.04.03,0,.07-.02.1-.03.02,0,.08-.03.08-.06"/>
    <path class="cls-1" d="M293.07,108.31c11.1,5.21,19.97,13.91,25.95,24.48,5.98,10.58,8.88,22.66,8.87,34.73"/>
    <path class="cls-1" d="M216.52,319c-25.29-11.58-45.6-31.11-59.41-54.94-13.83-23.85-20.73-51.18-21.11-78.56"/>
    <path class="cls-1" d="M583.86,291.06c-.06.09-.11.17-.17.26-.03.04-.06.09-.08.13-.02.03-.04.07-.06.11,0,0,0,.01-.01.02,0,0,0,0,0,0,.02-.02.16-.23.18-.25.06-.08.11-.17.17-.25"/>
    <path class="cls-1" d="M592.02,278.81s-.02-.02-.04-.03c-.01,0-.03-.02-.04-.03"/>
    <path class="cls-1" d="M593.3,276.67s-.02-.02-.04-.03c-.01,0-.03-.02-.04-.03"/>
    <path class="cls-1" d="M580.92,295.09s0,0,0,0"/>
    <path class="cls-1" d="M583.78,291.01s.05.04.08.05"/>
    <path class="cls-1" d="M582.3,293.01s.03.02.04.02c.01,0,.02.02.04.02"/>
    <path class="cls-1" d="M579.82,294.38c.18.12.36.24.54.35.09.06.18.12.27.18.04.03.09.06.13.09.03.02.07.04.1.06.01,0,.02.02.04.02"/>
    <line class="cls-1" x1="252.54" y1="166.66" x2="250.22" y2="166.08"/>
    <line class="cls-1" x1="251.69" y1="164.88" x2="254.01" y2="165.45"/>
    <line class="cls-1" x1="254.13" y1="188.6" x2="251.81" y2="187.96"/>
    <line class="cls-1" x1="236.08" y1="167.74" x2="236.09" y2="168.77"/>
    <line class="cls-1" x1="234.16" y1="169.84" x2="239.01" y2="169.52"/>
    <line class="cls-1" x1="234.78" y1="171.06" x2="234.92" y2="192.46"/>
    <line class="cls-1" x1="216.68" y1="183.58" x2="216.8" y2="181.48"/>
    <path class="cls-1" d="M217.26,174.69c.25.07.47.45.56.64.13.26.22.54.28.83"/>
    <path class="cls-1" d="M217.26,174.69c1.48-.44,3.05-.48,4.55-.08"/>
    <line class="cls-1" x1="216.68" y1="183.58" x2="218.67" y2="188.23"/>
    <line class="cls-1" x1="259.4" y1="192.2" x2="259.17" y2="192.14"/>
    <line class="cls-1" x1="262.29" y1="193" x2="262.06" y2="192.94"/>
    <path class="cls-1" d="M301.52,164.93c.85-.68,1.72-1.48,2.43-2.31.37-.43.7-.87.96-1.37.21-.4.51-1.11.22-1.59"/>
    <path class="cls-1" d="M301.66,165.18c-.05-.08-.1-.16-.15-.25"/>
    <path class="cls-1" d="M301.52,164.93c-2.62-4.3-6.88-7.32-11.97-7.94-2.48-.3-4.97,0-7.32.82-2.35.82-4.49,2.14-6.33,3.8-3.7,3.35-6.07,7.99-6.84,12.88-.77,4.88.07,10.04,2.71,14.3"/>
    <path class="cls-1" d="M271.77,188.8c2.32,3.73,5.89,6.5,10.23,7.5,4.34,1,8.77.09,12.49-2.22"/>
    <path class="cls-1" d="M271.77,188.8c-1.34,1.08-2.9,2.1-4.44,2.88-.79.4-1.59.76-2.44,1.03-.69.22-1.83.51-2.6.3"/>
    <path class="cls-1" d="M593.65,276.17s0,.01-.01.02c-.01.01-.02.03-.03.04-.01.02-.03.04-.04.06-.03.04-.06.08-.09.13-.06.08-.11.17-.17.25"/>
    <path class="cls-1" d="M582.38,293.06c-.06.09-.11.17-.17.26-.03.04-.06.09-.08.13-.01.02-.03.04-.04.06-.01.02-.02.03-.03.05,0,0-.01.02,0,.01"/>
    <path class="cls-1" d="M582.41,293.07s0,0,0,0"/>
    <path class="cls-1" d="M592.04,278.83s0,0,0,0"/>
    <path class="cls-1" d="M592.37,278.31s0,.01-.01.02c-.01.01-.02.03-.03.04-.01.02-.03.04-.04.06-.03.04-.06.08-.09.13-.06.08-.11.17-.17.25"/>
    <path class="cls-1" d="M583.4,290.87c-.06.09-.11.17-.17.26-.03.04-.06.09-.08.13-.02.04-.04.07-.06.11,0,0,0,.01-.01.02,0,0,0,0,0,0,.02-.02.17-.23.18-.25.06-.09.12-.17.17-.26"/>
    <line class="cls-1" x1="234.4" y1="168.34" x2="234.27" y2="168.35"/>
    <path class="cls-1" d="M262.29,193c-2.9-4.64-4.29-10.09-4.26-15.52.03-5.44,1.47-10.86,4.16-15.59,2.68-4.72,6.61-8.75,11.46-11.3,4.85-2.55,10.39-3.49,15.81-2.32"/>
    <path class="cls-1" d="M320.18,200.97c-5.47,11.29-13.76,21.23-24.26,28.25-10.49,7.01-22.86,10.84-35.6,10.21"/>
    <path class="cls-1" d="M357.89,178.22c.07-1.28.1-2.56.1-3.84"/>
    <path class="cls-1" d="M304.16,51.1c-2.33-.4-4.66-.71-7.01-.94"/>
    <path class="cls-1" d="M359.38,211.48c-6.3,13.71-16.17,25.85-28.87,34.23-6.32,4.18-13.25,7.36-20.6,9.28-1.8.47-3.62.87-5.45,1.18-1.83.32-3.66.55-5.52.7-3.85.32-7.65.28-11.5-.12-15.36-1.61-29.13-8.96-39.44-20.3-10.28-11.31-16.41-25.73-18.49-40.7"/>
    <line class="cls-1" x1="234.47" y1="167.33" x2="236.08" y2="167.74"/>
    <line class="cls-1" x1="233.85" y1="170.82" x2="234.78" y2="171.06"/>
    <line class="cls-1" x1="215.75" y1="174.28" x2="217.26" y2="174.69"/>
    <path class="cls-1" d="M582.17,292.99s0,0,0,0"/>
    <path class="cls-1" d="M135.99,185.49c-.3-21.33,3.34-42.67,10.61-62.72,7.27-20.04,18.15-38.77,32.25-54.82,3.53-4.01,7.23-7.83,11.13-11.48,3.91-3.64,7.97-7.07,12.24-10.29,8.5-6.43,17.67-11.95,27.37-16.39,19.48-8.9,40.72-13.21,62.19-11.93"/>
    <path class="cls-1" d="M229.37,173.36c2.29-18.73,10.57-36.77,23.87-50.33,6.62-6.75,14.42-12.3,23.11-16.11,8.69-3.82,18.03-5.79,27.56-5.55,2.27.06,4.52.24,6.77.54,2.32.32,4.59.76,6.86,1.35,4.71,1.21,9.24,2.98,13.53,5.28,8.39,4.49,15.57,10.83,21.26,18.41,5.69,7.58,9.78,16.25,12.27,25.37,2.49,9.13,3.36,18.66,2.71,28.08"/>
    <path class="cls-1" d="M415.69,166.31c.14-19.37-2.98-38.73-9.56-56.98-6.57-18.23-16.53-35.17-29.76-49.43-13.24-14.27-29.37-25.44-47.6-32.41-18.23-6.97-37.66-9.39-57.03-7.3-9.24,1-18.33,3.01-27.14,5.95-9.58,3.19-18.76,7.46-27.42,12.64-16.67,9.98-31.17,23.21-43,38.55-23.71,30.76-36.32,69.52-35.78,108.26"/>
    <path class="cls-1" d="M262.86,302.69c-17.34-1.6-33.76-7.59-48.12-17.4-6.85-4.68-13.1-10.14-18.7-16.25-6.07-6.62-11.32-13.95-15.71-21.78-8.47-15.1-13.63-31.85-15.6-48.98-1.98-17.16-.76-34.63,3.43-51.37,2.11-8.46,4.98-16.72,8.56-24.67,3.51-7.77,7.7-15.23,12.55-22.26,9.79-14.2,22.22-26.56,36.79-35.92,14.56-9.35,30.99-15.51,48.27-17.43,8.87-.99,17.81-.83,26.65.5,8.25,1.24,16.29,3.5,23.99,6.72"/>
    <path class="cls-1" d="M297.15,50.16c-17.46-1.71-34.88,1.27-50.93,8.13-8,3.42-15.57,7.76-22.6,12.87-3.52,2.56-6.89,5.29-10.12,8.21-3.23,2.91-6.29,5.98-9.21,9.2-11.68,12.91-20.72,28.09-26.77,44.38-6.05,16.29-9.11,33.68-8.91,51.07"/>
    <path class="cls-1" d="M221.46,192.72c-2.12.64-4.36.32-6.18-.95-.9-.62-1.62-1.42-2.18-2.36-.56-.94-.91-1.96-1.08-3.03-.34-2.14.1-4.37,1.18-6.24,1.08-1.86,2.81-3.35,4.91-3.98"/>
    <path class="cls-1" d="M221.28,193.86c.2-.06.23-.38.24-.53,0-.21-.01-.41-.06-.61"/>
    <path class="cls-1" d="M422.33,180.13c.14-.22.28-.45.42-.67"/>
    <path class="cls-1" d="M423.12,179.79c-.09-.06-.31-.22-.37-.33"/>
    <path class="cls-1" d="M425.17,176.68c-.7,1.03-1.38,2.07-2.05,3.12"/>
    <path class="cls-1" d="M523.93,246.46s0,0,0,0"/>
    <path class="cls-1" d="M524.66,244.93s0,0,0,0"/>
    <path class="cls-1" d="M327.89,167.52c-.16-.04-.31-.08-.46-.13-.08-.03-.15-.06-.22-.1-.05-.03-.15-.09-.15-.18"/>
    <path class="cls-1" d="M417.64,190.49c-.2-.65.44-2.25.64-2.76.36-.89.77-1.75,1.21-2.6.87-1.71,1.83-3.36,2.84-4.99"/>
    <path class="cls-1" d="M518.44,257.45s-.04-.07-.04-.1c0-.07.01-.14.03-.21.06-.26.17-.52.28-.75.15-.35.32-.69.49-1.02.35-.67.71-1.34,1.09-2,.75-1.32,1.53-2.61,2.33-3.9"/>
    <path class="cls-1" d="M523.93,246.46s.02,0,.02,0c0,0,.01,0,.02,0,.01,0,.02.01.04.02.02.01.05.03.07.04"/>
    <path class="cls-1" d="M527.68,240.65s-.05-.08-.08-.12c-.01-.02-.03-.04-.05-.06-.01-.01-.04-.04-.06-.03"/>
    <path class="cls-1" d="M525,244.06s0-.02,0-.02c0-.02.02-.04.02-.05.01-.02.03-.05.04-.07.03-.05.06-.1.08-.14.06-.09.12-.19.18-.28"/>
    <line class="cls-1" x1="535.38" y1="232.39" x2="537.45" y2="233.75"/>
    <line class="cls-1" x1="415.79" y1="184.43" x2="422.33" y2="180.13"/>
    <path class="cls-1" d="M422.75,179.47c.68-1.09,1.39-2.16,2.11-3.22.72-1.06,1.47-2.11,2.23-3.14,1.34-1.8,3.32-4.32,4.97-5.87"/>
    <line class="cls-1" x1="523.56" y1="247.49" x2="525.65" y2="248.87"/>
    <line class="cls-1" x1="529.9" y1="238.04" x2="531.99" y2="239.41"/>
    <line class="cls-1" x1="526.73" y1="240.84" x2="526.99" y2="241.01"/>
    <line class="cls-1" x1="525.06" y1="243.32" x2="525.33" y2="243.49"/>
    <path class="cls-1" d="M526.99,241.01c.05-.08.11-.16.17-.24.03-.04.06-.08.09-.12.02-.02.03-.04.05-.06.01-.01.02-.03.04-.04,0,0,.01-.01.02,0"/>
    <path class="cls-1" d="M423.12,179.79c-1.12,1.77-2.2,3.57-3.18,5.42-.49.93-.96,1.86-1.37,2.83-.21.48-.4.97-.54,1.47-.09.31-.18.67-.18,1,0,.16.02.39.19.5"/>
    <path class="cls-1" d="M434.84,166.04c-.08-.05-.16-.06-.25-.05-.13.01-.24.05-.35.1-.16.07-.31.16-.45.26-.19.13-.37.27-.54.41-.47.39-.9.82-1.33,1.26-.85.88-1.63,1.81-2.4,2.76-.77.95-1.51,1.92-2.23,2.9-.72.98-1.43,1.98-2.12,2.99"/>
    <path class="cls-1" d="M527.43,241.28c-.15-.08-.3-.17-.44-.27"/>
    <path class="cls-1" d="M525.77,243.76c-.15-.08-.3-.18-.44-.27"/>
    <path class="cls-1" d="M415.42,174.91c.16-2.87.26-5.73.28-8.6"/>
    <path class="cls-1" d="M260.13,239.36c4.18,2.84,8.71,5.11,13.5,6.73"/>
    <path class="cls-1" d="M307.92,108.67c-4.95-.81-9.97-.94-14.95-.41"/>
    <line class="cls-1" x1="578.34" y1="290.43" x2="523.54" y2="254.24"/>
    <line class="cls-1" x1="589.28" y1="273.99" x2="534.38" y2="237.92"/>
    <path class="cls-1" d="M528.55,239.71s-.03-.01-.04-.02c0,0-.01,0-.02,0,0,0-.02,0-.02,0"/>
    <path class="cls-1" d="M524.94,245.08s-.09-.06-.14-.08c-.02-.01-.05-.03-.07-.04-.01,0-.02-.01-.04-.02,0,0-.03-.02-.04-.01"/>
    <path class="cls-1" d="M525.26,244.47c-.07-.05-.14-.09-.21-.13-.04-.02-.07-.04-.11-.06-.02-.01-.04-.02-.06-.03-.01,0-.03-.01-.04-.02,0,0-.01,0-.02,0"/>
    <line class="cls-1" x1="584.76" y1="280.63" x2="529.75" y2="244.4"/>
    <line class="cls-1" x1="525.33" y1="243.49" x2="526.99" y2="241.01"/>
    <line class="cls-1" x1="582.71" y1="283.71" x2="527.72" y2="247.46"/>
    <line class="cls-1" x1="595.6" y1="270.76" x2="595.59" y2="270.76"/>
    <path class="cls-1" d="M593.31,276.69c.06-.09.11-.17.17-.26.03-.04.06-.09.08-.13l.04-.07s.02-.03.03-.05c0,0,0,0,0-.01,0,0,0,0,0,0"/>
    <line class="cls-1" x1="593.3" y1="276.67" x2="582.38" y2="293.06"/>
    <line class="cls-1" x1="592.02" y1="278.81" x2="583.86" y2="291.06"/>
    <path class="cls-1" d="M594.6,274.55c.03-.05.31-.46.33-.52,0-.01-.01,0-.02.01-.03.03-.05.07-.07.1-.03.04-.06.08-.09.13-.06.09-.12.17-.17.26"/>
    <line class="cls-1" x1="594.58" y1="274.52" x2="580.9" y2="295.08"/>
    <path class="cls-1" d="M580.9,295.08c-.06.09-.11.17-.17.26-.03.04-.06.09-.08.13-.01.02-.03.04-.04.07-.01.02-.02.03-.03.05,0,0-.01.02,0,.01"/>
    <path class="cls-1" d="M582.15,292.98c-.06.09-.11.17-.17.26-.03.04-.06.09-.08.13l-.04.07s-.02.03-.03.05c0,0-.01.02,0,.01"/>
    <path class="cls-1" d="M593.15,276.51s.31-.47.33-.52c0-.01-.01,0-.02.01-.03.03-.05.07-.07.1-.03.04-.06.08-.09.13-.06.09-.12.17-.17.26"/>
    <line class="cls-1" x1="593.13" y1="276.49" x2="582.15" y2="292.98"/>
    <path class="cls-1" d="M591.69,278.48c.06-.09.11-.17.17-.26.02-.02.15-.24.16-.26,0,0,0,0,0,0,0,0-.01.01-.02.02-.03.03-.05.07-.07.1-.03.04-.06.08-.09.13-.06.09-.12.17-.17.26"/>
    <line class="cls-1" x1="591.67" y1="278.46" x2="583.4" y2="290.87"/>
    <path class="cls-1" d="M594.58,274.52s-.02-.02-.03-.02c-.03-.02-.07-.05-.1-.07l-.13-.09c-.09-.06-.18-.12-.27-.18-.18-.12-.36-.24-.54-.35"/>
    <path class="cls-1" d="M592.06,275.77c.18.12.36.24.54.35.09.06.18.12.27.18.04.03.09.06.13.09.03.02.07.04.1.07.01,0,.02.01.03.02"/>
    <path class="cls-1" d="M582.15,292.98s-.02-.01-.04-.02c-.03-.02-.07-.04-.1-.06-.04-.03-.09-.06-.13-.09-.09-.06-.18-.12-.27-.18-.18-.12-.36-.24-.54-.35"/>
    <path class="cls-1" d="M590.59,277.75c.18.12.36.24.54.36.09.06.18.12.27.18l.13.09s.07.04.1.07c.01,0,.02.01.03.02"/>
    <path class="cls-1" d="M583.4,290.87s-.02-.01-.04-.02c-.03-.02-.07-.04-.1-.06-.04-.03-.09-.06-.13-.09l-.27-.18c-.18-.12-.36-.24-.54-.36"/>
    <path class="cls-1" d="M218.1,176.16c2.11-.63,4.34-.3,6.16.97.9.62,1.61,1.42,2.17,2.36.56.93.91,1.95,1.08,3.02.34,2.13-.09,4.36-1.17,6.22-1.08,1.86-2.8,3.35-4.89,3.98"/>
    <path class="cls-1" d="M216.35,193.89c-2.05-.6-3.73-1.98-4.83-3.78-1.1-1.8-1.56-3.93-1.41-6.01.14-2.09.89-4.13,2.14-5.82,1.25-1.68,2.99-2.99,5.02-3.59"/>
    <path class="cls-1" d="M275.68,203.31c-5.66-1.62-10.31-5.37-13.39-10.31"/>
    <line class="cls-1" x1="525.46" y1="242.73" x2="425.17" y2="176.68"/>
    <path class="cls-1" d="M531.29,236.6c.62-.83,1.24-1.66,1.89-2.47.33-.4.66-.8,1-1.19.17-.19.35-.38.54-.56.13-.13.26-.25.42-.35.04-.03.08-.05.13-.06.03,0,.06-.01.09,0"/>
    <line class="cls-1" x1="519.13" y1="256.67" x2="521.19" y2="258.03"/>
    <line class="cls-1" x1="402.96" y1="171.51" x2="417.71" y2="181.12"/>
  </g>
  <g id="Make2D::可见线::曲线">
    <path class="cls-1" d="M473.71,227.57c.29.22.59.42.89.62"/>
    <path class="cls-1" d="M474.6,228.19c.24.16.49.32.74.47.13.07.25.15.38.21.06.03.13.06.2.09.04.01.17.06.21,0"/>
    <line class="cls-1" x1="476.2" y1="228.85" x2="476.13" y2="228.95"/>
    <path class="cls-1" d="M488.96,237.66c.29.22.59.42.89.62"/>
    <line class="cls-1" x1="501.61" y1="246.3" x2="501.1" y2="245.96"/>
    <path class="cls-1" d="M501.35,245.98c-.05.03-.15.07-.22.02"/>
    <line class="cls-1" x1="486.32" y1="236.18" x2="485.81" y2="235.84"/>
    <path class="cls-1" d="M486.09,235.88c-.06.03-.16.06-.23.01"/>
    <line class="cls-1" x1="471.1" y1="226.11" x2="470.59" y2="225.77"/>
    <line class="cls-1" x1="455.95" y1="216.09" x2="455.44" y2="215.75"/>
    <path class="cls-1" d="M443.88,207.8s-.07.03-.11.04"/>
    <line class="cls-1" x1="440.86" y1="206.11" x2="440.36" y2="205.78"/>
    <path class="cls-1" d="M440.51,205.88s-.06-.02-.08-.04"/>
    <path class="cls-1" d="M489.22,237.85s-.03.02-.04.02"/>
    <path class="cls-1" d="M474.58,228.1s-.06.03-.1.05"/>
    <path class="cls-1" d="M529.15,245.29c-1.33,1.98-2.62,3.99-3.87,6.02-.62,1.02-1.24,2.04-1.82,3.08-.29.52-.58,1.04-.85,1.58-.11.22-.22.45-.32.67-.07.17-.15.33-.21.51-.04.11-.07.21-.08.33,0,.04-.01.12.03.15"/>
    <line class="cls-1" x1="521.19" y1="258.03" x2="525.65" y2="248.87"/>
    <path class="cls-1" d="M525.65,248.87c.64-1.31,2.15-3.66,2.96-4.87.7-1.04,2.49-3.67,3.38-4.59"/>
    <line class="cls-1" x1="537.45" y1="233.75" x2="531.99" y2="239.41"/>
    <path class="cls-1" d="M402.96,171.51c.27-.39.54-.78.84-1.15.15-.18.3-.36.47-.53.08-.09.17-.17.26-.24.06-.05.12-.09.2-.12.03-.01.08-.03.12,0"/>
    <line class="cls-1" x1="519.13" y1="256.67" x2="523.56" y2="247.49"/>
    <line class="cls-1" x1="535.38" y1="232.39" x2="529.9" y2="238.04"/>
    <path class="cls-1" d="M290.69,159.33c-3.43-.78-6.94-.23-10.03,1.37-3.08,1.59-5.59,4.13-7.3,7.11-1.72,2.99-2.65,6.42-2.68,9.87-.03,3.44.84,6.89,2.67,9.84"/>
    <path class="cls-1" d="M289.22,148.22c-5.42-1.17-10.96-.23-15.81,2.32-4.85,2.55-8.77,6.57-11.45,11.29-2.69,4.73-4.13,10.15-4.16,15.59-.03,5.42,1.36,10.87,4.26,15.51"/>
    <path class="cls-1" d="M286.48,147.64c-5.4-1.16-10.92-.24-15.77,2.3-4.83,2.54-8.75,6.55-11.43,11.25-2.69,4.72-4.12,10.12-4.15,15.55-.03,5.41,1.36,10.84,4.25,15.46"/>
    <path class="cls-1" d="M300.9,195.8c-1.58,1.68-3.37,3.16-5.31,4.4-1.95,1.24-4.05,2.22-6.26,2.91-2.21.68-4.5,1.06-6.81,1.1-2.31.04-4.61-.26-6.83-.9"/>
    <path class="cls-1" d="M281.99,194.13c3.25.88,6.63.55,9.68-.79"/>
    <path class="cls-1" d="M272.76,202.47c.45.12.9.23,1.36.33"/>
    <path class="cls-1" d="M273.35,187.54c1.97,3.18,4.98,5.59,8.64,6.59"/>
    <path class="cls-1" d="M287.84,147.97c-.45-.13-.9-.24-1.36-.34"/>
    <path class="cls-1" d="M221.81,174.61c2.08.56,3.83,1.88,5,3.67,1.17,1.79,1.69,3.92,1.59,6.03-.1,2.12-.83,4.18-2.08,5.9-1.25,1.71-3,3.03-5.05,3.65"/>
    <line class="cls-1" x1="218.76" y1="179.41" x2="215.22" y2="183.14"/>
    <line class="cls-1" x1="239.89" y1="170" x2="240.02" y2="191.3"/>
    <path class="cls-1" d="M286.79,144.49c-7.11-1.5-14.32.25-20.23,4.26-5.91,4.01-10.24,10.02-12.55,16.7"/>
    <path class="cls-1" d="M284.4,143.98c-7.1-1.5-14.28.25-20.18,4.24-5.9,3.99-10.22,9.99-12.53,16.66"/>
    <line class="cls-1" x1="222.51" y1="193.38" x2="234.92" y2="192.46"/>
    <line class="cls-1" x1="239.01" y1="169.52" x2="234.4" y2="168.34"/>
    <line class="cls-1" x1="240.01" y1="188.53" x2="252.65" y2="187.61"/>
    <path class="cls-1" d="M254.13,188.6c1.47,3.92,3.72,7.53,6.72,10.49,3,2.95,6.64,5.14,10.7,6.31"/>
    <line class="cls-1" x1="592.97" y1="269.04" x2="595.59" y2="270.76"/>
    <line class="cls-1" x1="577.81" y1="297.47" x2="575.2" y2="295.74"/>
    <path class="cls-1" d="M593.12,274.26c.37.24.59.65.57,1.09,0,.23-.07.42-.19.61-.11.19-.23.36-.35.54"/>
    <path class="cls-1" d="M582.17,292.99c-.12.18-.24.36-.37.53-.13.18-.29.31-.49.41-.4.19-.87.15-1.23-.09"/>
    <path class="cls-1" d="M580.54,294.02c-.07-.03-.14-.07-.2-.11"/>
    <path class="cls-1" d="M582.41,293.07c-.11.17-.22.33-.34.49-.12.16-.25.3-.43.4"/>
    <path class="cls-1" d="M593.84,275.63c-.02.21-.1.38-.2.56-.1.17-.21.34-.32.5"/>
    <path class="cls-1" d="M581.87,291.94s-.04-.02-.06-.03"/>
    <path class="cls-1" d="M591.94,278.76s-.07-.04-.1-.07"/>
    <path class="cls-1" d="M592.04,278.83s-.02,0-.03-.02c0,0-.02-.01-.03-.02-.02-.01-.03-.02-.05-.03"/>
    <path class="cls-1" d="M592.01,276.6s.04.02.05.04"/>
    <path class="cls-1" d="M595.59,270.76s-.05.02-.06.03c-.04.04-.08.08-.12.12-.16.18-.31.37-.46.57-.62.8-1.2,1.64-1.79,2.46-.77,1.09-1.53,2.19-2.29,3.3-1.52,2.21-3.01,4.43-4.5,6.66-1.48,2.23-2.96,4.46-4.41,6.71-.73,1.12-1.45,2.25-2.16,3.39-.54.86-1.08,1.72-1.59,2.6-.12.21-.24.42-.35.64-.03.05-.05.1-.07.16,0,.01-.02.05,0,.06"/>
    <path class="cls-1" d="M458.53,217.53c.29.22.59.42.89.62"/>
    <path class="cls-1" d="M457.94,216.91c0,.07.06.14.1.19.05.06.1.11.15.15.11.1.22.19.34.27"/>
    <line class="cls-1" x1="583.43" y1="290.88" x2="591.69" y2="278.48"/>
    <line class="cls-1" x1="582.17" y1="292.99" x2="593.15" y2="276.51"/>
    <line class="cls-1" x1="583.88" y1="291.07" x2="592.04" y2="278.83"/>
    <path class="cls-1" d="M442.82,206.91c0,.07.06.14.1.19.05.06.1.11.15.16.11.1.22.19.34.27"/>
    <line class="cls-1" x1="525.06" y1="243.32" x2="526.73" y2="240.84"/>
    <line class="cls-1" x1="583.05" y1="283.19" x2="528.05" y2="246.95"/>
    <line class="cls-1" x1="583.05" y1="283.2" x2="528.05" y2="246.95"/>
    <line class="cls-1" x1="584.43" y1="281.13" x2="529.41" y2="244.9"/>
    <line class="cls-1" x1="584.42" y1="281.14" x2="529.41" y2="244.91"/>
    <line class="cls-1" x1="527.36" y1="241.35" x2="526.08" y2="243.27"/>
    <path class="cls-1" d="M536.92,235.2s-.1,0-.13.02c-.09.04-.16.11-.24.17-.12.11-.24.22-.35.34-.16.17-.31.34-.46.51-.35.4-.68.82-1.01,1.24-.66.84-1.3,1.7-1.92,2.56-1.25,1.73-2.47,3.48-3.65,5.26"/>
    <path class="cls-1" d="M593.57,273.88c.17-.26.34-.52.51-.78.08-.13.17-.26.25-.39.04-.07.08-.13.12-.2.03-.05.06-.1.09-.15,0-.01.01-.03.02-.04,0,0,0,0,0-.02"/>
    <path class="cls-1" d="M592.12,275.84c.17-.26.34-.52.51-.78.08-.13.17-.26.25-.39.04-.07.08-.13.12-.2.03-.05.06-.1.09-.15,0-.01.01-.03.02-.04,0,0,0-.01,0-.01"/>
    <path class="cls-1" d="M193.95,253c.12-.09.15-.25.15-.38,0-.23-.06-.49-.13-.71-.12-.37-.27-.71-.44-1.06-.34-.69-.73-1.34-1.17-1.97-.43-.63-.89-1.24-1.41-1.81-.41-.45-1.15-1.21-1.76-1.44"/>
    <path class="cls-1" d="M183.27,231.03c.21-.09.33-.28.4-.47.11-.29.13-.63.13-.93,0-.53-.08-1.05-.18-1.57-.2-1-.55-2.07-.93-3.02-.4-.98-.85-1.92-1.41-2.82-.42-.68-1.29-1.93-2.17-2.23"/>
    <path class="cls-1" d="M256.58,283.64c10.73,4.2,22.12,6.19,33.63,5.94"/>
    <path class="cls-1" d="M258.61,284.43c13.17,5.15,27.25,6.96,41.29,5.44"/>
    <path class="cls-1" d="M253.97,292.66c14.61,5.9,30.3,7.98,45.95,6.24"/>
    <path class="cls-1" d="M201.98,266.32c.35-.2.98.03,1.28.14"/>
    <path class="cls-1" d="M204.97,197.2c-1.38-.42-2.55-1.32-3.35-2.51-.8-1.19-1.2-2.61-1.21-4.03"/>
    <path class="cls-1" d="M312.66,67.91c-4.37-.51-8.71-.68-13.11-.54"/>
    <path class="cls-1" d="M312.43,58.51c-4.29-.45-8.57-.61-12.89-.48"/>
    <path class="cls-1" d="M311.28,51.54c12.92,1.26,25.37,5.03,36.84,11.1"/>
    <path class="cls-1" d="M203.26,266.46c1.45.58,3.42,2.06,4.61,3,1.44,1.14,2.83,2.35,4.2,3.58,1.36,1.23,2.7,2.49,4.01,3.79.65.65,1.3,1.31,1.92,1.99.24.26.48.53.7.81.17.21.34.42.49.65.1.15.2.31.27.48.03.09.08.21.04.31"/>
    <path class="cls-1" d="M349.82,65.36c.14,1.43.67,2.83,1.59,3.95.93,1.12,2.22,1.89,3.68,2.06"/>
    <path class="cls-1" d="M365.63,253.99c-1.13,1.06-2.14,2.2-3.06,3.45"/>
    <path class="cls-1" d="M361.24,70.93c15.55,11.55,27.48,27.12,35.37,44.67,7.91,17.57,11.66,36.8,11.53,55.99"/>
    <path class="cls-1" d="M407.88,179.45c-1.18,19.18-6.21,38.1-14.72,55.34-8.5,17.21-20.48,32.73-35.39,44.94-14.89,12.19-32.5,20.87-51.56,24.37-19.08,3.51-38.56,1.63-56.54-5.8"/>
    <path class="cls-1" d="M342.91,78.18c-10.03-5.62-20.99-9.19-32.41-10.52"/>
    <line class="cls-1" x1="233.06" y1="194.37" x2="226.89" y2="192.58"/>
    <path class="cls-1" d="M229.52,195.77c.74-.06,1.48-.13,2.22-.25.37-.06.73-.13,1.09-.22.18-.05.36-.1.53-.17.11-.05.21-.09.3-.18.05-.04.1-.1.08-.18"/>
    <path class="cls-1" d="M299.54,58.03c-13.41.41-26.48,3.61-38.66,9.13-12.18,5.52-23.22,13.26-32.77,22.58-19.18,18.71-31.98,43.37-37.22,69.47-.64,3.18-1.16,6.37-1.58,9.59-.42,3.29-.72,6.58-.91,9.89-.38,6.8-.25,13.53.41,20.3,1.28,13.27,4.58,26.35,9.97,38.56,5.39,12.21,12.83,23.45,22.22,32.98,9.4,9.53,20.52,17.1,32.96,22.12"/>
    <path class="cls-1" d="M403.49,170.77c-.05-13.2-2.05-26.39-6.08-38.98-4.03-12.58-10.09-24.48-18.15-34.99-8.06-10.51-17.99-19.43-29.48-26.09-11.49-6.65-24.14-10.81-37.35-12.21"/>
    <path class="cls-1" d="M268.88,244.49c.14-.02.28-.04.43-.07"/>
    <path class="cls-1" d="M303.33,108.12c-.11-.09-.23-.17-.34-.26"/>
    <line class="cls-1" x1="229.37" y1="173.36" x2="206.99" y2="174.88"/>
    <path class="cls-1" d="M299.9,289.87c6.23-.68,12.37-2,18.34-3.91,6.42-2.06,12.59-4.79,18.45-8.1,11.35-6.41,21.37-14.92,29.77-24.84,16.85-19.9,26.91-45.16,28.97-71.05.25-3.13.38-6.26.4-9.4.01-3.22-.09-6.43-.33-9.64-.49-6.61-1.51-13.19-3.08-19.63-3.09-12.62-8.28-24.72-15.61-35.49-7.33-10.78-16.67-20.04-27.73-27.02-11.06-6.97-23.41-11.37-36.41-12.89"/>
    <path class="cls-1" d="M299.55,67.38c-12.41.42-24.5,3.42-35.76,8.58-11.26,5.16-21.45,12.36-30.25,21.01-17.68,17.39-29.45,40.27-34.18,64.45-.58,2.95-1.05,5.9-1.42,8.88-.38,3.04-.64,6.09-.79,9.16-.32,6.29-.16,12.52.48,18.79,1.25,12.28,4.38,24.36,9.45,35.64,5.07,11.27,12.03,21.62,20.81,30.37,8.78,8.75,19.14,15.65,30.71,20.18"/>
    <path class="cls-1" d="M287.28,50.56c1.07.11,3.4.07,4.47.05.75-.01,1.49-.03,2.24-.06.37-.01.74-.03,1.12-.05.14,0,.29-.02.43-.04.04,0,.08,0,.11-.02.01,0,.04,0,.05-.02,0-.01-.02-.02-.02-.02-.03-.01-.06-.02-.09-.02-.13-.02-.26-.04-.39-.05"/>
    <path class="cls-1" d="M250.64,59.84c.81.09,2.12-.16,2.88-.33.95-.22,1.88-.48,2.81-.79s1.84-.63,2.73-1.02c.45-.19.89-.39,1.32-.63.16-.09.32-.18.48-.28.12-.08.23-.16.34-.26.07-.07.14-.13.18-.22.03-.05.05-.12.03-.18"/>
    <path class="cls-1" d="M187.96,123.34c.19.04.38.01.56-.04.24-.07.45-.19.66-.33.37-.25.68-.55.98-.87.57-.63,1.09-1.4,1.5-2.14.4-.74.78-1.6.98-2.42.1-.41.17-.87.14-1.3-.03-.42-.19-.9-.68-1"/>
    <line class="cls-1" x1="523.93" y1="246.46" x2="524.59" y2="245.47"/>
    <path class="cls-1" d="M489.72,238.2s-.02.01-.03.02"/>
    <path class="cls-1" d="M535.99,237.52c.2-.37.4-.75.58-1.13.09-.19.18-.38.25-.58.04-.1.07-.2.1-.3.02-.07.03-.13.03-.2,0-.03,0-.08-.04-.1"/>
    <line class="cls-1" x1="459.45" y1="218.17" x2="459.41" y2="218.22"/>
    <path class="cls-1" d="M530.45,248.53s0,0,0,0"/>
    <path class="cls-1" d="M407.59,170.87c-.01-18.93-3.86-37.88-11.8-55.14-7.93-17.24-19.82-32.5-35.27-43.74"/>
    <line class="cls-1" x1="524.76" y1="244.78" x2="524.75" y2="244.78"/>
    <line class="cls-1" x1="526.34" y1="242.88" x2="526.34" y2="242.88"/>
    <line class="cls-1" x1="526.34" y1="242.89" x2="526.34" y2="242.89"/>
    <path class="cls-1" d="M415.26,185.54c-2.74,23.04-10.01,45.53-21.4,65.76-2.85,5.06-5.93,9.95-9.28,14.7-3.35,4.75-6.93,9.3-10.76,13.68-7.64,8.73-16.21,16.64-25.59,23.48-18.78,13.71-40.57,22.97-63.78,25.99-5.79.75-11.56,1.11-17.39,1.06-5.81-.05-11.55-.49-17.3-1.34-11.51-1.71-22.68-5.03-33.25-9.87"/>
    <path class="cls-1" d="M522.02,257.62s.07,0,.1,0c.07-.03.12-.07.18-.11.08-.06.16-.14.24-.21.15-.15.3-.3.44-.46.28-.32.55-.64.82-.97"/>
    <path class="cls-1" d="M476.12,228.97s0-.01.01-.02"/>
    <line class="cls-1" x1="476.19" y1="228.87" x2="476.12" y2="228.97"/>
    <path class="cls-1" d="M520.67,259.66c-.06-.04-.04-.15-.04-.21.01-.07.03-.14.05-.21.04-.14.09-.28.15-.41.11-.27.23-.53.36-.8"/>
    <path class="cls-1" d="M461.3,219.13s0,.02-.01.03"/>
    <path class="cls-1" d="M415.79,184.43c.48-1.06,1.27-2.35,1.92-3.31"/>
    <line class="cls-1" x1="525" y1="244.06" x2="524.74" y2="243.89"/>
    <path class="cls-1" d="M518.66,257.76c-.03-.13-.11-.23-.22-.31"/>
    <line class="cls-1" x1="525.26" y1="244.47" x2="525.27" y2="244.46"/>
    <path class="cls-1" d="M525.26,244.56s.01,0,.02.01"/>
    <path class="cls-1" d="M527.61,240.99s.01,0,.02.01"/>
    <line class="cls-1" x1="524.66" y1="244.93" x2="524.76" y2="244.78"/>
    <path class="cls-1" d="M527.36,241.35s0,0,0,0"/>
    <line class="cls-1" x1="525.28" y1="243.54" x2="525.29" y2="243.55"/>
    <line class="cls-1" x1="474.63" y1="228.21" x2="474.6" y2="228.26"/>
    <path class="cls-1" d="M476.01,228.99c.1.05.37.18.49.16"/>
    <line class="cls-1" x1="472.8" y1="226.66" x2="472.76" y2="226.71"/>
    <line class="cls-1" x1="489.88" y1="238.3" x2="489.85" y2="238.35"/>
    <path class="cls-1" d="M470.71,225.86s-.05-.01-.07-.03"/>
    <path class="cls-1" d="M455.58,215.84s-.05-.02-.08-.03"/>
    <path class="cls-1" d="M474.02,227.8s-.03.01-.04.02"/>
    <path class="cls-1" d="M459.38,218.12s-.02,0-.03.01"/>
    <path class="cls-1" d="M458.88,217.79s-.03.01-.04.02"/>
    <path class="cls-1" d="M418.02,191.02c-.19-.13-.32-.32-.39-.53"/>
    <path class="cls-1" d="M415.49,185.73s0,0,0,0"/>
    <path class="cls-1" d="M417.64,190.49c-.26-.84-.53-1.68-.85-2.5-.16-.41-.32-.82-.52-1.21-.18-.36-.44-.8-.78-1.05"/>
    <path class="cls-1" d="M440.43,205.84s-.05-.04-.06-.06"/>
    <path class="cls-1" d="M440.93,206.17s-.05-.04-.06-.06"/>
    <line class="cls-1" x1="519.5" y1="255.95" x2="519.48" y2="255.94"/>
    <path class="cls-1" d="M456,216.14s-.04-.04-.06-.06"/>
    <path class="cls-1" d="M470.64,225.83s-.04-.03-.05-.05"/>
    <path class="cls-1" d="M471.15,226.16s-.04-.03-.05-.05"/>
    <path class="cls-1" d="M485.85,235.89s-.03-.03-.05-.05"/>
    <path class="cls-1" d="M486.36,236.23s-.03-.03-.05-.05"/>
    <path class="cls-1" d="M501.14,246s-.03-.03-.04-.04"/>
    <path class="cls-1" d="M501.65,246.34s-.03-.03-.04-.05"/>
    <line class="cls-1" x1="440.43" y1="205.84" x2="418.02" y2="191.02"/>
    <line class="cls-1" x1="455.5" y1="215.81" x2="440.93" y2="206.17"/>
    <line class="cls-1" x1="470.64" y1="225.83" x2="456" y2="216.14"/>
    <line class="cls-1" x1="485.85" y1="235.89" x2="471.15" y2="226.16"/>
    <line class="cls-1" x1="501.14" y1="246" x2="486.36" y2="236.23"/>
    <line class="cls-1" x1="518.44" y1="257.45" x2="501.65" y2="246.34"/>
    <path class="cls-1" d="M535.36,231.98c.11.07.24.11.37.08"/>
    <line class="cls-1" x1=".38" y1=".38" x2="291.78" y2="17.87"/>
    <path class="cls-1" d="M524.74,243.89s0-.02,0-.02c0-.02.02-.04.02-.05.01-.02.03-.05.04-.07.03-.05.06-.1.08-.14.06-.09.12-.19.18-.28"/>
    <path class="cls-1" d="M457.95,216.89s0,.02-.01.02"/>
    <line class="cls-1" x1="457.95" y1="216.89" x2="458.02" y2="216.79"/>
    <path class="cls-1" d="M476.19,228.87s0,0-.01.01"/>
    <path class="cls-1" d="M476.49,229.22c-.05.07-.2.02-.26,0-.09-.03-.17-.07-.25-.11-.16-.08-.32-.17-.47-.26-.31-.19-.61-.38-.91-.58"/>
    <path class="cls-1" d="M432.06,167.25c.37-.35.83-.74,1.26-1.01.42-.26,1.01-.53,1.52-.2"/>
    <path class="cls-1" d="M401.65,174.31s-.04-.09-.04-.13c0-.09.02-.17.05-.25.04-.13.09-.25.14-.37.1-.24.22-.48.35-.71.25-.46.53-.91.82-1.34"/>
    <path class="cls-1" d="M415.49,185.72c-.08-.07-.05-.25-.04-.33.02-.11.05-.22.09-.33.07-.22.16-.43.25-.63"/>
    <line class="cls-1" x1="520.67" y1="259.66" x2="518.62" y2="258.3"/>
    <path class="cls-1" d="M538.27,233.16s.04.04.04.08c0,.05,0,.1,0,.15-.01.08-.03.15-.06.23-.05.15-.1.3-.16.44-.12.29-.25.57-.39.85"/>
    <line class="cls-1" x1="536.21" y1="231.81" x2="538.27" y2="233.16"/>
    <line class="cls-1" x1="434.84" y1="166.04" x2="535.36" y2="231.98"/>
    <path class="cls-1" d="M327.06,167.12c0-11.95-2.81-23.93-8.66-34.44-1.46-2.63-3.08-5.12-4.91-7.51-1.82-2.39-3.79-4.61-5.95-6.7-4.32-4.17-9.25-7.63-14.68-10.2"/>
    <path class="cls-1" d="M526.73,240.84c.06-.08.11-.16.17-.24.03-.04.06-.08.09-.12.02-.02.03-.04.05-.06.01-.01.02-.03.04-.04,0,0,.01-.01.02,0"/>
    <path class="cls-1" d="M233.75,194.77c.85,5.63,2.32,11.17,4.46,16.46,1.07,2.65,2.29,5.21,3.68,7.71,1.39,2.5,2.93,4.88,4.64,7.17,1.71,2.29,3.56,4.44,5.58,6.47,2.02,2.03,4.16,3.89,6.45,5.6,4.58,3.41,9.65,6.09,15.06,7.92"/>
    <path class="cls-1" d="M458.01,216.81s0-.02.01-.02"/>
    <path class="cls-1" d="M307.92,108.67c-9.05-1.49-18.22-.6-26.87,2.32-8.65,2.92-16.5,7.78-23.18,13.93-1.66,1.53-3.25,3.13-4.76,4.81-1.53,1.7-2.97,3.46-4.34,5.29-2.74,3.66-5.1,7.49-7.16,11.57-1.02,2.03-1.96,4.09-2.81,6.19-.85,2.11-1.61,4.25-2.28,6.42-1.35,4.36-2.32,8.76-2.92,13.29"/>
    <line class="cls-1" x1="351.54" y1="69.46" x2="360.11" y2="70.43"/>
    <path class="cls-1" d="M476.2,228.85s0,.01-.01.02"/>
    <line class="cls-1" x1="216.52" y1="319" x2=".38" y2="220.06"/>
    <path class="cls-1" d="M476.5,229.18s0,.02-.01.03"/>
    <path class="cls-1" d="M472.76,226.71s0-.02.01-.03"/>
    <path class="cls-1" d="M260.13,239.36c3.13.14,6.22.02,9.34-.38,3.11-.4,6.14-1.04,9.14-1.95,3-.9,5.89-2.03,8.71-3.39,2.82-1.36,5.5-2.91,8.09-4.68,10.37-7.06,18.54-16.99,23.95-28.21"/>
    <path class="cls-1" d="M217.87,83.96c.16.39.14.83.08,1.23-.1.57-.33,1.15-.57,1.67-.42.9-.99,1.78-1.56,2.59-1.13,1.59-2.55,3.21-3.92,4.59s-2.98,2.79-4.6,3.9c-1.25.86-3.75,2.42-5.53,2.11"/>
    <line class="cls-1" x1="489.69" y1="238.21" x2="489.18" y2="237.88"/>
    <line class="cls-1" x1="474.48" y1="228.15" x2="473.97" y2="227.82"/>
    <line class="cls-1" x1="459.34" y1="218.14" x2="458.84" y2="217.8"/>
    <line class="cls-1" x1="582.41" y1="293.07" x2="593.31" y2="276.69"/>
    <line class="cls-1" x1="580.93" y1="295.08" x2="594.6" y2="274.55"/>
    <path class="cls-1" d="M583.69,290.94s.07.04.1.07c.02.01.03.02.05.03,0,0,.02.01.02.02,0,0,.01,0,.02.01,0,0,0,0,0,0"/>
    <path class="cls-1" d="M417.71,181.12c.58-.86,1.78-2.53,2.61-3.21"/>
    <line class="cls-1" x1="537.69" y1="234.9" x2="536.3" y2="237.72"/>
    <line class="cls-1" x1="521.56" y1="259" x2="524.24" y2="256.16"/>
    <path class="cls-1" d="M521.56,259c-.13.14-.26.27-.41.4-.07.06-.14.12-.22.18-.05.03-.19.13-.26.08"/>
    <path class="cls-1" d="M537.45,233.75c.12-.13.24-.25.37-.36.07-.06.13-.11.21-.16.05-.03.17-.11.24-.07"/>
    <path class="cls-1" d="M212.35,192.71c-1.83-.54-3.39-1.7-4.48-3.25-1.09-1.55-1.68-3.4-1.76-5.28-.17-3.77,1.68-7.56,4.94-9.57"/>
    <path class="cls-1" d="M582.21,292.94s.07.04.1.07c.02.01.03.02.05.03,0,0,.02.01.02.02,0,0,.01,0,.02.01,0,0,0,0,0,0"/>
    <path class="cls-1" d="M579.91,294.4c.17.11.34.23.51.34.09.06.17.11.25.17.04.03.08.06.13.09.03.02.06.04.1.07,0,0,.01.01.02.02,0,0,0,0,0,0,0,0,0,0,0,0"/>
    <line class="cls-1" x1="224.33" y1="185.75" x2="223.31" y2="180.72"/>
    <path class="cls-1" d="M221.82,182.68c-.3-1.46-1.29-2.73-2.78-3.16"/>
    <line class="cls-1" x1="221.31" y1="180.17" x2="221.82" y2="182.68"/>
    <path class="cls-1" d="M249.67,298.3c-21.58-8.91-38.98-24.94-50.79-44.8-11.81-19.87-17.64-42.81-17.88-65.75"/>
    <path class="cls-1" d="M592.12,275.84c.17.11.34.22.51.34.09.06.17.11.26.17.04.03.09.06.13.08.03.02.07.04.1.06,0,0,.02,0,.02.01,0,0,0,0,0,0,0,0,0,0,0,0"/>
    <path class="cls-1" d="M179.11,219.99c-.2-.07-.42-.09-.62,0"/>
    <path class="cls-1" d="M297.42,67.13c-12.39.42-24.45,3.41-35.68,8.55-11.23,5.14-21.4,12.32-30.2,20.95-17.65,17.34-29.39,40.17-34.11,64.3-.58,2.94-1.05,5.89-1.41,8.86-.37,3.04-.64,6.08-.79,9.13-.31,6.28-.16,12.49.48,18.75,1.26,12.25,4.38,24.31,9.45,35.55,5.06,11.24,12.02,21.57,20.78,30.29,8.77,8.72,19.1,15.61,30.65,20.12"/>
    <path class="cls-1" d="M590.66,277.81c.17.11.34.23.52.34l.26.17s.09.06.13.08c.03.02.06.04.1.06.01,0,.02.02.03.02"/>
    <line class="cls-1" x1="577.68" y1="291.47" x2="522.95" y2="255.3"/>
    <path class="cls-1" d="M299.92,298.9c14.57-1.62,28.52-6.49,41.11-13.88,12.61-7.4,23.66-17.19,32.78-28.56,18.31-22.8,28.64-51.57,29.6-80.69"/>
    <path class="cls-1" d="M349.11,64.77c-10.71-5.79-22.31-9.53-34.4-11.05-13.36-1.68-26.83-.58-39.78,3.02-12.25,3.41-23.76,8.97-34.18,16.22-10.56,7.35-19.89,16.35-27.76,26.49-3.9,5.02-7.4,10.25-10.57,15.76-3.07,5.34-5.76,10.83-8.11,16.52-4.98,12.07-8.31,24.8-9.86,37.76-1.53,12.76-1.34,25.72.66,38.43,1.98,12.5,5.71,24.72,11.26,36.12,5.95,12.22,13.91,23.36,23.8,32.73,4.47,4.24,9.3,8.07,14.45,11.45,4.86,3.19,9.91,5.91,15.25,8.21,11.37,4.89,23.49,7.56,35.86,7.92,13.27.39,26.4-1.9,38.82-6.49,12.13-4.48,23.36-11.07,33.34-19.25,9.78-8.01,18.29-17.47,25.36-27.93,1.72-2.55,3.36-5.15,4.91-7.8,1.52-2.6,2.94-5.24,4.29-7.93,2.78-5.55,5.16-11.22,7.2-17.08,4.34-12.52,6.95-25.62,7.71-38.86"/>
    <path class="cls-1" d="M200.33,182.63c-.02-1.88.63-3.74,1.83-5.19,1.2-1.45,2.91-2.44,4.82-2.57"/>
    <line class="cls-1" x1="535.13" y1="236.96" x2="589.99" y2="272.99"/>
    <path class="cls-1" d="M181,187.75c-.19-17.65,2.92-35.3,9.04-51.85,6.12-16.54,15.26-31.98,27.08-45.12,2.96-3.29,6.06-6.41,9.33-9.38,3.27-2.97,6.68-5.76,10.25-8.37,7.12-5.21,14.79-9.64,22.89-13.14,16.28-7.02,33.96-10.08,51.69-8.35"/>
    <path class="cls-1" d="M592.54,277.37c.06.27.03.53-.08.78-.07.15-.33.54-.42.68"/>
    <path class="cls-1" d="M583.88,291.07c-.09.14-.35.53-.46.65-.19.2-.42.33-.69.38"/>
    <line class="cls-1" x1="219.62" y1="174.02" x2="221.81" y2="174.61"/>
    <path class="cls-1" d="M593.31,276.69s-.03-.02-.05-.03-.03-.02-.05-.03c-.03-.02-.07-.04-.1-.07"/>
    <line class="cls-1" x1="239.65" y1="150.8" x2="257.14" y2="154.85"/>
    <path class="cls-1" d="M594.57,272.31c.37.24.58.65.57,1.09,0,.23-.07.42-.19.61-.11.18-.23.36-.35.54"/>
    <path class="cls-1" d="M201.76,194.89c.1.01.19.01.28,0"/>
    <path class="cls-1" d="M234.28,168.31s.08.02.12.03"/>
    <path class="cls-1" d="M594.6,274.55s0,0,0,0c0,0,0,0,0,0h-.02s-.07-.06-.1-.08l-.13-.08c-.09-.06-.17-.11-.26-.17-.17-.11-.34-.22-.51-.34"/>
    <line class="cls-1" x1="581.4" y1="291.77" x2="581.07" y2="292.28"/>
    <path class="cls-1" d="M580.92,295.09c-.12.18-.24.36-.37.53-.13.18-.28.31-.49.41-.4.18-.86.15-1.23-.09"/>
    <path class="cls-1" d="M326.96,171.04c.07-1.31.1-2.62.1-3.93"/>
    <path class="cls-1" d="M214.18,91.55c-2.02,1.42-4.04,3.38-5.51,5.37"/>
    <path class="cls-1" d="M226.11,177.34c-.02.52-.04,1.04-.06,1.55"/>
    <path class="cls-1" d="M582.17,292.99s0,0,0,0c0,0,0,0,0,0,0,0-.01-.01-.02-.02-.03-.02-.06-.04-.1-.07l-.13-.09c-.09-.06-.17-.11-.26-.17-.17-.11-.34-.23-.51-.34"/>
    <path class="cls-1" d="M583.43,290.88c-.12.18-.24.36-.37.53-.13.18-.29.31-.49.41-.4.19-.87.15-1.24-.09"/>
    <path class="cls-1" d="M583.43,290.88s0,0,0,0c0,0,0,0,0,0,0,0-.01-.01-.02-.02-.03-.02-.06-.04-.1-.07-.04-.03-.09-.06-.13-.09-.09-.06-.17-.11-.26-.17-.17-.11-.34-.23-.51-.34"/>
    <path class="cls-1" d="M226.39,188.65c.04.42.09.84.14,1.26"/>
    <path class="cls-1" d="M591.66,276.23c.37.24.59.66.57,1.1,0,.23-.07.42-.19.61-.11.19-.23.36-.35.54"/>
    <path class="cls-1" d="M259.4,192.2c3.08,4.92,7.71,8.66,13.36,10.27"/>
    <line class="cls-1" x1="234.16" y1="169.84" x2="234.07" y2="169.82"/>
    <path class="cls-1" d="M592.97,269.04s-.05.02-.06.03c-.05.04-.09.08-.12.12-.16.18-.31.37-.46.56-.26.33-.51.67-.76,1.01-.35.48-.7.96-1.04,1.45-.77,1.09-1.54,2.19-2.3,3.29-1.52,2.21-3.01,4.43-4.5,6.65-1.48,2.23-2.95,4.46-4.4,6.72-.72,1.13-1.45,2.25-2.15,3.39-.31.5-.63,1.01-.94,1.52-.22.36-.43.72-.64,1.09-.12.21-.24.42-.34.64-.02.05-.05.11-.07.16,0,.01-.02.05,0,.06"/>
    <path class="cls-1" d="M233.93,170.29c.11-.02.21-.05.32-.08.05-.02.1-.04.15-.06.04-.02.11-.06.11-.11"/>
    <line class="cls-1" x1="202.05" y1="194.9" x2="216.21" y2="193.85"/>
    <line class="cls-1" x1="281.21" y1="160.43" x2="380.63" y2="183.49"/>
    <line class="cls-1" x1="375.39" y1="215.77" x2="274.08" y2="188.62"/>
    <line class="cls-1" x1="215.22" y1="183.14" x2="216.24" y2="188.18"/>
    <path class="cls-1" d="M577.81,297.47s.05-.02.06-.03c.04-.04.08-.08.12-.12.05-.06.1-.12.15-.18.1-.12.2-.24.29-.37.19-.25.38-.5.56-.75"/>
    <line class="cls-1" x1="234.07" y1="170.26" x2="234.07" y2="169.82"/>
    <path class="cls-1" d="M285.59,144.27c-.4-.1-.79-.2-1.19-.28"/>
    <line class="cls-1" x1="216.21" y1="193.85" x2="212.35" y2="192.71"/>
    <line class="cls-1" x1="581.34" y1="291.73" x2="581.34" y2="291.73"/>
    <path class="cls-1" d="M289.12,162.27c-.98-1.23-2.14-2.3-3.45-3.16"/>
    <path class="cls-1" d="M262.06,192.94c3.08,4.93,7.73,8.69,13.39,10.3"/>
    <path class="cls-1" d="M272.76,202.47c.49.14.98.26,1.48.37"/>
    <path class="cls-1" d="M298.8,164.51c-2.06-2.58-4.86-4.44-8.11-5.18"/>
    <path class="cls-1" d="M289.46,148.28c6.65,1.43,12.18,5.64,15.67,11.38"/>
    <path class="cls-1" d="M301.76,155.25c.12-.52.03-1.11-.32-1.54"/>
    <path class="cls-1" d="M523.56,247.49c.64-1.31,2.15-3.66,2.95-4.87.7-1.04,2.49-3.67,3.38-4.58"/>
    <path class="cls-1" d="M277.45,191.96c1.59-.15,3.15-.56,4.61-1.2"/>
    <path class="cls-1" d="M286.24,147.58c-5.4-1.16-10.92-.24-15.76,2.3-4.83,2.54-8.75,6.55-11.42,11.25-2.68,4.72-4.12,10.12-4.15,15.54-.03,5.41,1.36,10.83,4.25,15.46"/>
    <path class="cls-1" d="M305.13,159.66c1.33,2.19,2.34,4.56,3.02,7.02"/>
    <path class="cls-1" d="M535.38,232.39c.12-.12.25-.25.38-.36.07-.06.13-.11.21-.16.05-.03.17-.11.24-.07"/>
    <path class="cls-1" d="M259.17,192.14c3.08,4.91,7.71,8.66,13.36,10.27"/>
    <line class="cls-1" x1="223.31" y1="180.72" x2="218.76" y2="179.41"/>
    <line class="cls-1" x1="216.24" y1="188.18" x2="220.8" y2="189.48"/>
    <line class="cls-1" x1="219.04" y1="179.52" x2="221.31" y2="180.17"/>
    <line class="cls-1" x1="218.8" y1="188.9" x2="216.53" y2="188.26"/>
    <path class="cls-1" d="M216.53,188.26c.7.2,1.44.18,2.14-.03"/>
    <line class="cls-1" x1="222.33" y1="185.18" x2="224.33" y2="185.75"/>
    <line class="cls-1" x1="220.8" y1="189.48" x2="224.33" y2="185.75"/>
    <line class="cls-1" x1="218.74" y1="179.43" x2="219.04" y2="179.52"/>
    <path class="cls-1" d="M216.24,188.16c.1.04.19.07.29.1"/>
    <path class="cls-1" d="M221.28,193.86c-1.61.49-3.31.51-4.93.04"/>
    <line class="cls-1" x1="221.31" y1="180.17" x2="223.31" y2="180.72"/>
    <line class="cls-1" x1="218.8" y1="188.9" x2="220.8" y2="189.48"/>
    <path class="cls-1" d="M219.04,179.52c-.1-.03-.2-.05-.31-.07"/>
    <path class="cls-1" d="M220.57,187.04c1.09-1.15,1.57-2.81,1.25-4.36"/>
    <line class="cls-1" x1="222.33" y1="185.18" x2="220.57" y2="187.04"/>
    <line class="cls-1" x1="221.82" y1="182.68" x2="222.33" y2="185.18"/>
    <path class="cls-1" d="M218.67,188.23c.73-.22,1.38-.64,1.9-1.19"/>
    <line class="cls-1" x1="220.57" y1="187.04" x2="218.8" y2="188.9"/>
    <line class="cls-1" x1="216.53" y1="188.26" x2="216.24" y2="188.17"/>
    <line class="cls-1" x1="234.78" y1="171.06" x2="233.8" y2="171.12"/>
    <path class="cls-1" d="M375.39,215.77c2.72.73,5.36-.07,7.52-1.69"/>
    <path class="cls-1" d="M380.63,183.49c-1.82-.42-3.65-.17-5.33.6-1.67.77-3.08,1.98-4.22,3.39-2.29,2.81-3.62,6.46-4.1,9.98-.49,3.55-.19,7.38,1.1,10.75.64,1.69,1.56,3.32,2.78,4.67,1.22,1.35,2.75,2.42,4.54,2.9"/>
    <path class="cls-1" d="M382.92,214.08c2.42-1.82,4.12-4.55,5.16-7.3,1.06-2.81,1.54-5.89,1.44-8.89-.1-2.97-.77-6.06-2.19-8.71-1.39-2.6-3.64-4.98-6.7-5.69"/>
    <path class="cls-1" d="M234.51,170.04c0-.06-.11-.11-.15-.13-.06-.03-.13-.05-.2-.06"/>
    <path class="cls-1" d="M234.78,171.06c.89-.06,1.77-.14,2.65-.26.44-.06.88-.13,1.31-.23.22-.05.43-.11.64-.18.14-.05.27-.1.39-.19.06-.04.12-.11.12-.19"/>
    <line class="cls-1" x1="234.17" y1="170.23" x2="234.16" y2="169.84"/>
    <path class="cls-1" d="M253.13,187.65c.48.13.83.5,1,.95"/>
    <path class="cls-1" d="M240.02,191.3c0,.09-.06.15-.12.2-.11.1-.24.15-.37.21-.21.09-.42.15-.64.2-.43.11-.87.19-1.31.26-.88.14-1.77.22-2.66.29"/>
    <path class="cls-1" d="M239.89,170c0-.16-.28-.28-.38-.32-.16-.07-.33-.12-.5-.16"/>
    <path class="cls-1" d="M269.19,204.72c.39.11.79.22,1.18.31"/>
    <path class="cls-1" d="M271.55,205.4c3.94,1.14,8.07,1.26,12.08.42,4.01-.84,7.75-2.6,11.01-5.04"/>
    <line class="cls-1" x1="271.55" y1="205.4" x2="269.19" y2="204.72"/>
    <line class="cls-1" x1="284.4" y1="143.98" x2="286.79" y2="144.49"/>
    <path class="cls-1" d="M236.08,167.74c-.47.03-1.28.1-1.74.24"/>
    <path class="cls-1" d="M252.65,187.61c.16-.01.32,0,.48.05"/>
    <path class="cls-1" d="M254.01,165.45c-.22.63-.77,1.16-1.47,1.2"/>
    <path class="cls-1" d="M251.81,187.96c-.04-.1-.08-.19-.14-.28"/>
    <path class="cls-1" d="M250.22,166.08c.7-.05,1.25-.57,1.46-1.2"/>
    <path class="cls-1" d="M251.81,187.96c1.47,3.91,3.72,7.51,6.71,10.46,2.99,2.95,6.63,5.13,10.68,6.3"/>
    <path class="cls-1" d="M301.45,153.71c-3.7-4.66-8.78-7.98-14.66-9.22"/>
    <line class="cls-1" x1="250.22" y1="166.08" x2="234.51" y2="167.11"/>
    <line class="cls-1" x1="252.54" y1="166.66" x2="236.08" y2="167.74"/>
    <path class="cls-1" d="M593.28,274.46c.07.05.14.1.2.16"/>
    <path class="cls-1" d="M582.4,290.21s0,0,0-.01"/>
    <path class="cls-1" d="M581.14,292.32s0-.01.01-.02"/>
    <path class="cls-1" d="M591.81,278.68s-.05-.03-.08-.05"/>
    <path class="cls-1" d="M591.71,278.62s-.05-.03-.08-.05"/>
    <path class="cls-1" d="M583.48,290.8s.05.03.08.05"/>
    <path class="cls-1" d="M583.59,290.87s.05.03.08.05"/>
    <line class="cls-1" x1="580.15" y1="293.88" x2="579.82" y2="294.38"/>
    <path class="cls-1" d="M580.44,294s0-.01.01-.02"/>
    <path class="cls-1" d="M581.87,291.94s0,0,0-.01"/>
    <path class="cls-1" d="M592.06,276.64s0,0,0,0"/>
    <path class="cls-1" d="M594.71,272.41c.16-.27.32-.54.48-.81.08-.14.15-.27.23-.41.04-.07.07-.14.11-.21.02-.05.05-.1.06-.15,0-.01.02-.05,0-.07"/>
    <path class="cls-1" d="M575.2,295.74h0"/>
    <path class="cls-1" d="M577.81,297.47s0,0,0,0"/>
    <path class="cls-1" d="M591.66,276.23s-.01,0-.01,0c0,0-.02.02-.03.03-.04.05-.07.09-.11.14-.05.06-.09.13-.14.19-.09.13-.18.25-.26.38-.18.26-.35.51-.52.77"/>
    <path class="cls-1" d="M593.12,274.26s-.01,0-.01,0c0,0-.02.02-.03.03-.04.05-.07.09-.11.14-.05.06-.09.13-.13.19-.09.13-.18.25-.26.38-.17.25-.35.51-.52.77"/>
    <path class="cls-1" d="M580.08,293.84s0,0,0,0"/>
    <path class="cls-1" d="M578.84,295.93s0,0,0,0"/>
    <path class="cls-1" d="M594.57,272.31s-.01,0-.01,0c0,0-.02.02-.03.03-.04.05-.07.09-.11.14-.05.06-.09.12-.13.19-.09.13-.18.25-.26.38-.17.25-.35.51-.52.76"/>
    <path class="cls-1" d="M592.98,269.05s0,0,0,0"/>
    <path class="cls-1" d="M582.32,290.16c-.17.26-.34.52-.51.78-.08.13-.17.26-.25.39-.04.07-.08.13-.12.2-.03.05-.06.1-.09.15,0,.01-.01.02-.02.04,0,0,0,.01,0,.01"/>
    <path class="cls-1" d="M590.66,277.81s0-.01.01-.02"/>
    <line class="cls-1" x1="590.59" y1="277.75" x2="582.32" y2="290.16"/>
    <line class="cls-1" x1="593.51" y1="273.81" x2="593.18" y2="274.31"/>
    <path class="cls-1" d="M579.82,294.38c-.17.26-.34.51-.5.77-.08.13-.17.26-.25.39-.04.06-.08.13-.12.2-.03.05-.06.1-.09.15,0,.01-.01.02-.02.04,0,0,0,.01,0,.01"/>
    <path class="cls-1" d="M581.07,292.28c-.17.26-.34.51-.51.77-.08.13-.17.26-.25.39-.04.06-.08.13-.12.2-.03.05-.06.1-.09.15,0,.01-.01.02-.02.04,0,0,0,.01,0,.01"/>
    <line class="cls-1" x1="592.06" y1="275.77" x2="591.72" y2="276.27"/>
    <path class="cls-1" d="M595.6,270.76h0"/>
    <path class="cls-1" d="M292.64,298.51c1.73-.1,3.45-.24,5.17-.43"/>
    <path class="cls-1" d="M360.11,70.43c-.06,0-.13-.01-.19,0"/>
    <path class="cls-1" d="M189.19,245.62c-.15-.06-.37-.11-.53,0"/>
    <path class="cls-1" d="M358.33,70.73c.48-.26,1.07-.33,1.59-.31"/>
    <path class="cls-1" d="M359.92,70.42c.21.52.41,1.03.61,1.56"/>
    <path class="cls-1" d="M297.4,57.8c-15.37.47-30.29,4.61-43.87,11.67"/>
    <path class="cls-1" d="M297.81,298.08c6.73-.75,13.34-2.19,19.78-4.27,6.92-2.24,13.57-5.19,19.9-8.78,12.23-6.94,23.04-16.13,32.1-26.85,18.16-21.5,28.99-48.77,31.19-76.71.54-6.86.56-13.67.05-20.54-.53-7.14-1.64-14.23-3.35-21.19-3.34-13.62-8.97-26.66-16.89-38.28-7.92-11.62-18.01-21.62-29.95-29.14-11.94-7.52-25.27-12.28-39.29-13.92"/>
    <path class="cls-1" d="M360.53,71.98c-2.41,1.66-5.44,1.75-7.87.06-1.16-.81-2.05-1.93-2.65-3.2-.6-1.27-.89-2.67-.9-4.07"/>
    <line class="cls-1" x1="207.19" y1="197.44" x2="229.52" y2="195.77"/>
    <path class="cls-1" d="M178.36,150.74c.25.06.51.02.75-.07.3-.12.57-.33.8-.55.41-.39.77-.89,1.06-1.38.58-.97,1.03-2.12,1.35-3.2.31-1.08.54-2.3.57-3.43.01-.57-.02-1.17-.17-1.73-.08-.31-.21-.62-.41-.88-.16-.2-.37-.35-.62-.42"/>
    <path class="cls-1" d="M192.09,115.23c-.19-.04-.37-.01-.55.04-.24.07-.45.18-.66.31-.37.23-.69.51-1,.81-.6.6-1.13,1.33-1.54,2.07-.41.73-.77,1.57-.96,2.39-.1.42-.16.84-.14,1.28.01.25.05.48.15.71.08.17.19.32.36.42"/>
    <path class="cls-1" d="M518.62,258.3c-.06-.04-.05-.15-.04-.21,0-.07.03-.14.05-.21.04-.14.09-.28.15-.41.11-.27.23-.54.36-.8"/>
    <path class="cls-1" d="M420.32,177.91c1.7-1.39,4.31-3.78,5.93-5.27,1.95-1.79,3.88-3.59,5.81-5.4"/>
    <path class="cls-1" d="M252.96,292.24c5.42,2.12,11.01,3.72,16.73,4.8"/>
    <path class="cls-1" d="M288.47,290.38c.58-.26,1.16-.53,1.74-.8"/>
    <line class="cls-1" x1="187.74" y1="123.25" x2="187.74" y2="123.25"/>
    <path class="cls-1" d="M345.97,68.83c-.04-.08-.06-.16-.08-.24"/>
    <path class="cls-1" d="M286.65,299.46c2.01-.26,4-.57,5.99-.94"/>
    <line class="cls-1" x1="201.27" y1="99.89" x2="201.27" y2="99.89"/>
    <line class="cls-1" x1="302.98" y1="107.86" x2="307.92" y2="108.67"/>
    <line class="cls-1" x1="295.18" y1="50.5" x2="295.18" y2="50.34"/>
    <line class="cls-1" x1="192.5" y1="115.46" x2="192.09" y2="115.23"/>
    <line class="cls-1" x1="415.49" y1="185.72" x2="401.65" y2="174.31"/>
    <path class="cls-1" d="M202.05,247.18c5.62,9.91,12.71,18.92,21.17,26.58,8.46,7.65,18.13,13.8,28.73,18.08"/>
    <path class="cls-1" d="M197.02,188.26c.08.49.17.98.26,1.47"/>
    <path class="cls-1" d="M416.48,166.14c-.02,3.06-.13,6.11-.31,9.16"/>
    <path class="cls-1" d="M219.5,281.07c-.05.13-.21.14-.31.14-.12,0-.24-.03-.36-.06-.24-.06-.46-.15-.69-.24"/>
    <path class="cls-1" d="M261.41,56.14c-.04-.12-.18-.18-.28-.21-.12-.04-.23-.05-.35-.07"/>
    <line class="cls-1" x1="258.61" y1="284.43" x2="256.58" y2="283.64"/>
    <line class="cls-1" x1="253.97" y1="292.66" x2="251.95" y2="291.84"/>
    <line class="cls-1" x1="273.62" y1="246.09" x2="268.88" y2="244.49"/>
    <line class="cls-1" x1="249.67" y1="298.3" x2="236.52" y2="292.87"/>
    <line class="cls-1" x1="527.09" y1="240.37" x2="527.35" y2="240.55"/>
    <path class="cls-1" d="M286.78,50.44s.03.04.05.04c.02,0,.04.01.06.02.04.01.09.02.13.03.09.01.17.02.26.03"/>
    <path class="cls-1" d="M187.74,123.25c.07.04.14.07.22.08"/>
    <path class="cls-1" d="M188.66,245.63c-.13.09-.17.25-.18.39-.02.23.02.48.08.7.1.38.24.73.4,1.08.33.71.73,1.36,1.18,1.99.45.63.93,1.23,1.47,1.78.43.45,1.2,1.17,1.82,1.41"/>
    <line class="cls-1" x1="188.66" y1="245.63" x2="188.66" y2="245.63"/>
    <path class="cls-1" d="M527.35,240.55c.16.1.37.13.55.07"/>
    <path class="cls-1" d="M291.78,17.87c17.91,1.08,35.24,6,51.06,14.47,15.81,8.47,29.53,20.18,40.67,34.17,11.14,13.99,19.49,29.99,24.98,46.96,5.5,16.99,8.12,34.83,7.99,52.67"/>
    <path class="cls-1" d="M355.09,71.37c1.13.13,2.24-.11,3.23-.64"/>
    <path class="cls-1" d="M201.27,99.89c-.86-.4-1.08-1.31-1.05-2.14.03-.84.28-1.69.6-2.45.63-1.54,1.62-3.02,2.66-4.3,2.07-2.53,4.9-4.88,7.79-6.42"/>
    <line class="cls-1" x1="201.98" y1="266.32" x2="202" y2="266.31"/>
    <path class="cls-1" d="M250.01,59.53c.07.24.45.29.63.31"/>
    <path class="cls-1" d="M178.33,150.73s.02,0,.04,0"/>
    <path class="cls-1" d="M178.48,219.98c-.21.09-.35.28-.45.47-.13.28-.19.61-.21.91-.04.52.01,1.08.1,1.59.17,1.03.51,2.1.92,3.06.41.96.93,1.95,1.53,2.81.47.68,1.41,1.88,2.28,2.19"/>
    <path class="cls-1" d="M310.5,67.66c-4.36-.51-8.7-.68-13.08-.54"/>
    <line class="cls-1" x1="310.5" y1="67.66" x2="312.66" y2="67.91"/>
    <path class="cls-1" d="M310.26,58.28c-4.29-.45-8.56-.61-12.86-.48"/>
    <line class="cls-1" x1="310.26" y1="58.28" x2="312.43" y2="58.51"/>
    <path class="cls-1" d="M233.61,172.5c0,.07-.07.12-.12.15-.1.07-.21.11-.32.15-.17.06-.35.11-.53.15-.36.08-.72.14-1.08.19-.73.1-1.46.17-2.19.22"/>
    <path class="cls-1" d="M525.28,244.55c-.01-.2-.11-.38-.28-.49"/>
    <path class="cls-1" d="M233.75,194.77c-.02-.13-.21-.23-.3-.27-.13-.06-.26-.1-.39-.14"/>
    <line class="cls-1" x1="297.15" y1="50.16" x2="311.28" y2="51.54"/>
    <path class="cls-1" d="M527.49,240.44c.16-.06.35-.05.5.03"/>
    <line class="cls-1" x1="524.82" y1="244.22" x2="524.95" y2="244.03"/>
    <path class="cls-1" d="M524.95,245.05c-.25-.2-.31-.56-.13-.83"/>
    <path class="cls-1" d="M182.65,231.01c.19.07.42.1.62.02"/>
    <path class="cls-1" d="M193.43,252.99c.14.05.37.12.52.01"/>
    <path class="cls-1" d="M524.64,245.57c-.11-.2-.11-.45.02-.65"/>
    <path class="cls-1" d="M523.8,247.03c-.06-.22,0-.39.13-.57"/>
    <path class="cls-1" d="M349.62,63.91c.1.48.15.96.2,1.45"/>
    <path class="cls-1" d="M528.47,239.68c.08-.12.17-.22.31-.28"/>
    <path class="cls-1" d="M203.19,269.53c-.38-.49-.73-.98-1.03-1.53-.15-.27-.28-.55-.35-.85-.07-.26-.12-.67.18-.84"/>
    <path class="cls-1" d="M218.13,280.91c-1.28-.52-2.99-1.53-4.15-2.26-1.34-.84-2.63-1.73-3.89-2.68-2.32-1.74-5.09-4.12-6.9-6.43"/>
    <path class="cls-1" d="M349.62,63.91c-.41-.49-.92-.97-1.5-1.27"/>
    <path class="cls-1" d="M349.11,64.77c.16-.29.32-.58.5-.86"/>
    <path class="cls-1" d="M361.24,70.93c-.32-.24-.72-.46-1.13-.5"/>
    <line class="cls-1" x1="527.95" y1="240.45" x2="528.47" y2="239.68"/>
    <line class="cls-1" x1="404.86" y1="169.45" x2="420.67" y2="177.62"/>
    <path class="cls-1" d="M527.33,240.53c.05-.04.1-.07.16-.09"/>
    <path class="cls-1" d="M232.91,172.1c.14.04.27.08.4.13.07.03.13.06.19.1.05.04.11.1.1.17"/>
    <path class="cls-1" d="M455.5,215.81s-.04-.03-.06-.06"/>
    <line class="cls-1" x1="200.33" y1="182.63" x2="200.41" y2="190.66"/>
    <path class="cls-1" d="M207.19,197.44c-.75.06-1.5-.02-2.22-.24"/>
    <path class="cls-1" d="M295.18,50.34c-1.16-.11-3.05-.17-4.22-.18-.7,0-1.41,0-2.11.02-.35.01-.7.03-1.05.06-.25.02-.51.04-.76.09-.07.01-.13.03-.2.05-.02,0-.07.02-.07.05"/>
    <path class="cls-1" d="M201.77,100.05c-.17-.03-.34-.08-.5-.15"/>
    <path class="cls-1" d="M216.58,83.08c.54.08,1.06.33,1.29.88"/>
    <path class="cls-1" d="M211.27,84.58c.83-.44,1.67-.82,2.57-1.12.8-.26,1.88-.52,2.75-.39"/>
    <path class="cls-1" d="M181.69,139.09c-.26-.06-.51-.02-.75.07-.31.11-.59.31-.84.52-.44.37-.82.86-1.14,1.33-.64.96-1.12,2.09-1.44,3.19-.32,1.1-.52,2.32-.5,3.47.01.57.08,1.18.25,1.74.1.31.24.62.45.88.16.2.36.36.62.44"/>
    <path class="cls-1" d="M260.78,55.86c-.83-.09-2.12.09-2.93.23-.97.17-1.92.4-2.86.68-.94.28-1.86.6-2.76,1.01-.45.2-.88.42-1.3.69-.26.16-.54.36-.74.6-.07.08-.12.16-.16.25-.03.07-.04.14-.02.21"/>
    <path class="cls-1" d="M519.49,255.95c-.22.42-.43.84-.61,1.28"/>
  </g>
</svg>