<?xml version="1.0" encoding="UTF-8"?>
<svg xmlns="http://www.w3.org/2000/svg" viewBox="0 0 778.92 487.63">
  <defs>
    <style>
      .cls-1 {
        stroke: #bfbfbf;
        stroke-width: 3px;
      }

      .cls-1, .cls-2 {
        fill: none;
        stroke-linecap: round;
        stroke-linejoin: round;
      }

      .cls-3 {
        fill: red;
        stroke-width: 0px;
      }

      .cls-2 {
        stroke: #000;
      }
    </style>
  </defs>
  <g id="_图层_3" data-name="图层 3">
    <path class="cls-1" d="M687,169.86c-4.6-1.86-9.26-3.45-14.03-4.79-4.81-1.35-9.65-2.42-14.58-3.23-9.81-1.61-19.75-2.13-29.68-1.58-20.36,1.13-40.15,6.72-58.24,16.03-8.82,4.53-17.19,9.93-24.99,16.04-7.87,6.17-15.15,13.07-21.77,20.56-13.41,15.19-24,32.76-31.32,51.64-7.37,19-11.39,39.24-11.75,59.63-.35,19.82,2.75,39.64,9.45,58.33,1.74,4.86,3.71,9.6,5.92,14.26,2.21,4.66,4.65,9.18,7.32,13.59,5.26,8.67,11.39,16.77,18.34,24.15,13.58,14.43,29.99,25.82,48.39,33.26,18.69,7.56,38.72,10.76,58.82,9.57,20.17-1.2,39.77-6.78,57.7-15.99,4.41-2.27,8.68-4.73,12.85-7.41,4.22-2.71,8.29-5.61,12.24-8.7,7.88-6.19,15.17-13.1,21.79-20.62,13.36-15.17,23.91-32.69,31.21-51.53,7.36-18.97,11.37-39.18,11.75-59.54.36-19.84-2.75-39.69-9.45-58.4-3.48-9.72-7.91-19.07-13.27-27.89-5.25-8.64-11.36-16.72-18.29-24.08-13.58-14.45-30.01-25.84-48.41-33.28Z"/>
  </g>
  <g id="Make2D::可见线::正切线">
    <line class="cls-2" x1="387.54" y1="299.81" x2="374.34" y2="295.12"/>
    <path class="cls-2" d="M594.81,132.54c1.59.76,2.87,2.03,3.69,3.58"/>
    <path class="cls-2" d="M594.56,275.41c-.13-.04-.25-.08-.37-.14-.09-.04-.27-.14-.27-.27"/>
    <path class="cls-2" d="M455.88,308.94c.04.27.09.53.13.8"/>
    <line class="cls-2" x1="542.73" y1="444.02" x2="544.86" y2="444.86"/>
    <line class="cls-2" x1="540.67" y1="147.28" x2="542.8" y2="147.83"/>
    <path class="cls-2" d="M335.73,296.74c-.49.03-.99.04-1.48.02-.34-.01-1.13-.05-1.47-.17"/>
    <path class="cls-2" d="M374.34,295.12c.32,29.99,8.5,59.66,24.59,85.16,16.09,25.51,39.35,45.62,67.4,57.09"/>
    <path class="cls-2" d="M594.56,275.41c.02,4.1-.22,8.16-.72,12.23"/>
    <path class="cls-2" d="M571.36,86.44c23.05,5.21,44.71,15.01,63.88,28.81,19.19,13.81,35.37,31.25,47.96,51.22"/>
    <path class="cls-2" d="M565.21,202.04c-5.06-1.42-10.13-2.31-15.37-2.7"/>
    <path class="cls-2" d="M466.33,437.38c2.27.93,4.57,1.8,6.89,2.61"/>
    <path class="cls-2" d="M574.99,129.47c-2.35-.71-4.71-1.36-7.09-1.94"/>
    <path class="cls-2" d="M610.89,142.04c.91.22,1.72.58,2.49,1.1"/>
    <line class="cls-2" x1="392.09" y1="354.2" x2="391.17" y2="354.58"/>
    <line class="cls-2" x1="493.83" y1="133.81" x2="493.56" y2="132.95"/>
    <line class="cls-2" x1="438.12" y1="418.12" x2="437.63" y2="419.28"/>
    <line class="cls-2" x1="436.44" y1="170.55" x2="435.33" y2="168.14"/>
    <line class="cls-2" x1="611.46" y1="144.09" x2="611.48" y2="144.1"/>
    <line class="cls-2" x1="405.78" y1="382.36" x2="405.18" y2="382.76"/>
    <line class="cls-2" x1="539.67" y1="125.47" x2="539.67" y2="125.11"/>
    <path class="cls-2" d="M433.36,307.91c-2.52-.89-4.6-2.65-5.95-4.93-1.35-2.28-1.91-4.95-1.68-7.58.23-2.63,1.24-5.16,2.88-7.23,1.64-2.07,3.88-3.62,6.44-4.33"/>
    <path class="cls-2" d="M440.28,308.11c.13-.04.18-.21.2-.31.03-.13.03-.25.03-.38,0-.26-.04-.51-.09-.76"/>
    <path class="cls-2" d="M435.05,283.84c2.19-.61,4.5-.57,6.65.16"/>
    <path class="cls-2" d="M436,285.7c2.72-.76,5.59-.35,7.95,1.22,2.36,1.56,3.87,4.05,4.36,6.79.49,2.75-.07,5.6-1.5,7.98-1.43,2.38-3.7,4.21-6.4,4.97"/>
    <path class="cls-2" d="M440.41,306.66c-2.72.76-5.59.36-7.96-1.21-2.36-1.56-3.88-4.05-4.37-6.8-.49-2.75.07-5.61,1.51-7.99,1.43-2.38,3.71-4.21,6.41-4.97"/>
    <path class="cls-2" d="M594.14,134.55c.15-.7.37-1.36.66-2.01"/>
    <path class="cls-2" d="M612.46,145.11c.23-.7.55-1.34.93-1.97"/>
    <line class="cls-2" x1="434.98" y1="295.07" x2="437.29" y2="300.98"/>
    <path class="cls-2" d="M624.99,284.86c-.1-18.32-5.45-36.45-16.05-51.56-10.61-15.12-25.85-26.25-43.73-31.27"/>
    <line class="cls-2" x1="624.99" y1="284.86" x2="594.56" y2="275.41"/>
    <path class="cls-2" d="M335.73,296.74c.34,29.69,6.91,59.15,19.83,85.97,12.92,26.82,31.87,50.33,55.85,68.15,23.97,17.81,51.93,29.13,81.56,32.93,7.5.96,14.98,1.43,22.54,1.43,7.31,0,14.56-.46,21.81-1.36,14.74-1.83,29.17-5.46,43.04-10.75"/>
    <path class="cls-2" d="M712.75,274.7c-.12-36.47-9.66-72.63-28.69-103.96"/>
    <path class="cls-2" d="M494.34,368.49c4.48,2.79,9.13,5.06,14.08,6.9"/>
    <line class="cls-2" x1="415.18" y1="310.21" x2="421.18" y2="312.34"/>
    <path class="cls-2" d="M549.9,199.37c13.89,7.14,25.18,18.24,32.92,31.72,7.74,13.49,11.64,28.84,11.73,44.32"/>
    <path class="cls-2" d="M508.42,375.39c19.24,7.14,40.17,6.31,58.98-1.48,4.68-1.94,9.1-4.25,13.38-6.96,4.27-2.71,8.25-5.72,12.02-9.1,7.51-6.72,13.9-14.64,18.95-23.36"/>
    <path class="cls-2" d="M444.69,472.79c-34.21-14.74-62.47-39.82-82-71.33-19.53-31.51-29.48-67.99-29.9-104.86"/>
    <line class="cls-2" x1="495.16" y1="306.88" x2="494.91" y2="306.79"/>
    <line class="cls-2" x1="498.15" y1="307.9" x2="497.91" y2="307.81"/>
    <line class="cls-2" x1="461.14" y1="275.84" x2="457.03" y2="276.08"/>
    <path class="cls-2" d="M550.18,272.04c1.26-.95,2.45-1.96,3.55-3.1.55-.57,1.06-1.15,1.51-1.81.22-.33.42-.66.56-1.04.08-.22.14-.43.14-.66,0-.18-.03-.33-.13-.48"/>
    <line class="cls-2" x1="485.89" y1="273.81" x2="483.47" y2="273.02"/>
    <line class="cls-2" x1="461.43" y1="274.28" x2="463.82" y2="275.07"/>
    <line class="cls-2" x1="485.44" y1="271.48" x2="487.55" y2="272.17"/>
    <line class="cls-2" x1="488.1" y1="302.15" x2="485.68" y2="301.32"/>
    <line class="cls-2" x1="463.82" y1="275.07" x2="463.83" y2="276.74"/>
    <line class="cls-2" x1="456.8" y1="278.58" x2="459.2" y2="279.38"/>
    <path class="cls-2" d="M514.73,320.95c-6.87-2.37-12.63-7-16.58-13.06"/>
    <line class="cls-2" x1="459.5" y1="278.21" x2="459.5" y2="277.8"/>
    <path class="cls-2" d="M498.15,307.9c-4.07-6.25-6-13.66-5.79-21.07.21-7.42,2.54-14.69,6.66-20.86,2.06-3.08,4.55-5.85,7.41-8.21,2.85-2.36,6.04-4.27,9.48-5.65,6.93-2.78,14.56-3.23,21.74-1.02"/>
    <line class="cls-2" x1="459.5" y1="277.8" x2="465.94" y2="277.43"/>
    <line class="cls-2" x1="459.2" y1="279.38" x2="459.44" y2="306.64"/>
    <path class="cls-2" d="M509.91,302.56c3.11,4.78,7.79,8.27,13.34,9.71,5.55,1.44,11.35.66,16.41-1.92"/>
    <path class="cls-2" d="M551.45,274.24c-.38-.76-.8-1.49-1.27-2.2"/>
    <path class="cls-2" d="M550.18,272.04c-3.61-5.59-9.34-9.39-15.99-10.29-6.63-.9-13.19,1.21-18.31,5.38-5.11,4.17-8.52,10.15-9.65,16.62-1.13,6.46.05,13.25,3.67,18.81"/>
    <path class="cls-2" d="M509.91,302.56c-1.71,1.29-3.64,2.54-5.54,3.54-.98.51-1.96.97-3,1.34-.76.27-2.32.76-3.21.46"/>
    <line class="cls-2" x1="434.98" y1="295.07" x2="434.98" y2="291.72"/>
    <path class="cls-2" d="M440.16,308.11s.08.02.12,0"/>
    <path class="cls-2" d="M435.05,283.84c.28.09.53.63.62.84.14.33.25.67.32,1.02"/>
    <path class="cls-2" d="M581.5,324.37c-8.69,14.98-21.37,27.49-36.8,35.55-15.42,8.06-32.94,11.3-50.24,8.62"/>
    <path class="cls-2" d="M582.78,473.81c-22,8.77-45.44,13.39-69.17,13.29-23.73-.1-47.11-4.92-68.92-14.31"/>
    <path class="cls-2" d="M484.76,371.83c-9.45-7.48-17.23-16.8-23.06-27.31-5.84-10.52-9.63-22.05-11.35-33.93"/>
    <path class="cls-2" d="M627.03,330.81c-5.7,12.49-13.75,23.85-23.76,33.27-10,9.42-21.84,16.78-34.84,21.34-12.99,4.55-26.81,6.17-40.5,4.49-13.71-1.68-26.73-6.6-38.14-14.38"/>
    <path class="cls-2" d="M550.27,191c14.48.45,28.53,4.48,41.03,11.82,12.5,7.34,22.89,17.64,30.56,29.89,7.67,12.26,12.41,26.11,14.17,40.42,1.76,14.32.53,28.9-3.47,42.74"/>
    <path class="cls-2" d="M567.9,127.53c-24.02-5.9-48.99-5.31-72.77,1.27-11.84,3.27-23.22,7.98-33.94,13.96-10.72,5.97-20.71,13.17-29.81,21.39-18.26,16.49-32.71,36.87-42.49,59.4-9.78,22.53-14.8,47-14.54,71.58"/>
    <path class="cls-2" d="M586,470.84c38.37-16.05,70.47-44.16,92.69-78.99,22.24-34.86,34.19-75.77,34.05-117.14"/>
    <path class="cls-2" d="M712.75,274.7c.23-.01.47-.03.7-.06.12-.01.23-.03.35-.06.06-.01.11-.03.17-.05.03-.01.14-.04.14-.1"/>
    <path class="cls-2" d="M624.21,297.6c.54-4.24.8-8.47.78-12.74"/>
    <line class="cls-2" x1="623.28" y1="150.82" x2="613.02" y2="148.26"/>
    <line class="cls-2" x1="412.89" y1="306.67" x2="414.05" y2="307.08"/>
    <line class="cls-2" x1="433.33" y1="283.26" x2="435.05" y2="283.84"/>
    <path class="cls-2" d="M332.79,296.59c-.35-30.44,5.79-60.74,17.79-88.69,11.99-27.95,29.73-53.28,52.18-73.88,11.19-10.27,23.49-19.3,36.69-26.83,13.2-7.53,27.23-13.53,41.84-17.77,29.33-8.52,60.23-9.74,90.09-2.98"/>
    <path class="cls-2" d="M450.09,282.29c2.95-23.6,13.7-45.93,30.57-62.77,16.86-16.82,39.27-27.52,63.36-28.48"/>
    <path class="cls-2" d="M680.84,165.63c-22.88-35.1-56.77-61.39-97.1-73.61-10.15-3.07-20.54-5.21-31.08-6.38-5.09-.57-10.19-.91-15.31-1.03-5-.12-9.99-.03-14.98.28-20.76,1.26-41.05,6.12-60.21,14.17-38.57,16.21-70.77,44.62-92.96,79.76-22.18,35.15-33.94,76.34-33.47,117.93"/>
    <path class="cls-2" d="M509.49,451.41c-12.12-.69-24.08-2.88-35.66-6.55-5.51-1.75-10.88-3.82-16.14-6.22-5.12-2.34-10.06-4.95-14.87-7.86-9.7-5.87-18.67-12.85-26.77-20.78-8.71-8.53-16.34-18.08-22.79-28.43-12.49-20.03-20.3-42.6-23.35-65.94-3.06-23.37-1.32-47.18,4.88-69.89,1.58-5.77,3.43-11.43,5.56-17.02,2.06-5.39,4.36-10.65,6.93-15.81,5.23-10.54,11.48-20.55,18.68-29.86,14.39-18.62,32.44-34.27,53.16-45.54,20.73-11.27,43.69-17.89,67.33-18.87,12.17-.51,24.33.49,36.24,3.01,11.1,2.35,21.86,5.99,32.1,10.87"/>
    <path class="cls-2" d="M613.39,143.14c2.99,2.01,5.89,4.12,8.72,6.35"/>
  </g>
  <g id="Make2D::可见线::曲线">
    <path class="cls-2" d="M542.72,135.98c-17.29.79-34.2,4.83-50.06,11.72-15.85,6.89-30.36,16.5-43.03,28.22-25.45,23.55-42.75,54.95-49.66,88.82-.84,4.1-1.52,8.22-2.04,12.37-.54,4.25-.91,8.5-1.12,12.77-.43,8.81-.17,17.51.82,26.28,1.93,17.15,6.61,33.92,14.04,49.51,14.97,31.42,40.49,56.63,73.04,69.79"/>
    <path class="cls-2" d="M544.86,444.86c31.64-2.28,61.3-15.36,85.16-35.88,23.89-20.54,41.26-47.88,50.28-77.97,9.01-30.06,9.55-62.43.74-92.68-8.81-30.24-26.69-57.27-52.21-76.17"/>
    <path class="cls-2" d="M610.17,143.47c-10.09-4.91-20.71-8.57-31.67-10.92-11.79-2.53-23.83-3.5-35.87-2.95-23.37,1.06-46,7.84-66.33,19.25-20.34,11.43-37.9,27.23-51.73,45.95-3.48,4.72-6.7,9.58-9.69,14.62-2.89,4.88-5.53,9.88-7.93,15.02-4.96,10.61-8.84,21.7-11.59,33.09-5.46,22.62-6.39,46.22-2.45,69.18,3.94,22.95,12.68,44.89,26.08,64.01,6.95,9.91,15.06,18.92,24.23,26.83,4.33,3.73,8.83,7.17,13.58,10.35,4.54,3.05,9.22,5.8,14.08,8.3,20.85,10.7,43.85,15.88,67.25,15.29"/>
    <path class="cls-2" d="M412.29,293.64c-.02-2.39.85-4.74,2.42-6.54,1.57-1.8,3.79-2.98,6.2-3.12"/>
    <line class="cls-2" x1="455.88" y1="308.94" x2="449.48" y2="306.71"/>
    <line class="cls-2" x1="450.09" y1="282.29" x2="420.91" y2="283.97"/>
    <path class="cls-2" d="M542.8,147.83c-32.34,1.51-62.58,15.27-86.05,37.07-23.5,21.83-39.45,50.91-45.76,82.26-.76,3.8-1.38,7.61-1.86,11.45-.49,3.93-.82,7.86-1.01,11.82-.38,8.15-.11,16.2.83,24.31,1.84,15.85,6.22,31.36,13.15,45.76,13.96,29.01,37.67,52.22,67.85,64.24"/>
    <path class="cls-2" d="M529.01,125.58c1.2.3,4.36.26,5.55.24.93-.02,1.85-.05,2.78-.11.46-.03.93-.06,1.39-.11.33-.03.66-.07.99-.14.09-.02.17-.04.26-.08.03-.01.09-.04.09-.08"/>
    <path class="cls-2" d="M480.1,138.21c.97.25,2.88-.14,3.77-.34,1.24-.28,2.46-.64,3.66-1.05,1.2-.41,2.39-.86,3.55-1.38.58-.26,1.15-.54,1.7-.86.35-.2.73-.44,1.02-.74.12-.13.32-.34.25-.56"/>
    <path class="cls-2" d="M574.93,129.26c2.44.6,4.88,1.21,7.3,1.89,1.21.34,2.41.69,3.61,1.08.6.19,1.19.39,1.78.61.26.1.52.19.78.3.12.05.26.1.37.18,0,0,.04.03.02.04-.02.02-.06,0-.08,0-.16-.01-.32-.06-.48-.1"/>
    <path class="cls-2" d="M588.23,133.27c-1.28-.32-5.66-1.71-6.92-2.1-1.15-.36-2.3-.71-3.46-1.05-.58-.17-1.16-.34-1.73-.51-.43-.12-.86-.24-1.29-.36-.11-.03-.22-.06-.34-.09-.03,0-.06-.02-.08-.02,0,0-.01,0-.02,0,0,0-.01,0,0,0"/>
    <path class="cls-2" d="M398.12,218.97c.22.07.45.03.66-.04.31-.1.56-.27.81-.46.43-.33.8-.71,1.15-1.12.7-.83,1.28-1.72,1.8-2.66.5-.91.96-1.96,1.25-2.96.15-.52.27-1.03.28-1.58.01-.46-.04-1.19-.61-1.37"/>
    <path class="cls-2" d="M387.54,299.81c-.25-24.73,4.8-49.35,14.63-72.02,9.83-22.67,24.35-43.19,42.71-59.8,9.15-8.28,19.2-15.54,29.98-21.56,10.78-6.02,22.23-10.77,34.14-14.08,23.92-6.63,49.04-7.25,73.21-1.31"/>
    <path class="cls-2" d="M542.73,444.02c31.52-2.27,61.08-15.26,84.88-35.66,23.84-20.42,41.21-47.6,50.29-77.55,9.08-29.93,9.73-62.18,1.1-92.37-8.62-30.16-26.26-57.18-51.53-76.19"/>
    <path class="cls-2" d="M612.46,145.11c-.33-.34-.66-.68-.99-1.02"/>
    <path class="cls-2" d="M609.88,164.53c-10.16-6.06-21.12-10.61-32.58-13.54"/>
    <path class="cls-2" d="M487.2,273.26c-.36.32-.82.52-1.31.55"/>
    <line class="cls-2" x1="438.62" y1="282.95" x2="441.7" y2="283.99"/>
    <path class="cls-2" d="M540.67,147.28c-32.31,1.51-62.52,15.25-85.97,37.02-23.48,21.8-39.42,50.86-45.72,82.18-.76,3.79-1.38,7.6-1.86,11.44-.49,3.92-.82,7.85-1,11.8-.38,8.14-.11,16.19.83,24.28,1.83,15.84,6.21,31.33,13.14,45.71,13.95,28.98,37.65,52.17,67.8,64.18"/>
    <path class="cls-2" d="M625.38,150.43c.21.69.41,1.37.61,2.07"/>
    <line class="cls-2" x1="413.86" y1="288.21" x2="414.05" y2="307.08"/>
    <path class="cls-2" d="M522.28,432.12c6.81.62,13.55.69,20.37.2"/>
    <path class="cls-2" d="M536.2,445.21c2.89-.03,5.77-.14,8.65-.35"/>
    <path class="cls-2" d="M473.22,439.98c6.6,2.3,13.27,4.08,20.13,5.37"/>
    <path class="cls-2" d="M623.28,150.82c.64-.33,1.39-.43,2.1-.4"/>
    <path class="cls-2" d="M641.67,162.06c17.01,14.87,30.26,33.44,39.2,54.12,8.95,20.68,13.41,43.05,13.5,65.54"/>
    <path class="cls-2" d="M622.8,158.88c-7.16-4.93-14.78-9.16-22.77-12.61"/>
    <path class="cls-2" d="M418.05,400.25c1.72.69,4.44,2.94,5.8,4.08,1.81,1.53,3.56,3.13,5.3,4.75,1.73,1.62,3.44,3.26,5.12,4.94.84.84,1.67,1.68,2.48,2.55.32.34.64.69.94,1.05.23.27.46.54.67.83.14.19.27.38.37.6.04.1.11.24.06.36"/>
    <path class="cls-2" d="M624.02,158.77c-12.95-8.74-27.27-15.15-42.44-18.94"/>
    <path class="cls-2" d="M544.12,451.21c32.31-2.17,62.7-15.17,87.39-35.73,12.31-10.26,23.07-22.27,32-35.56,4.4-6.55,8.3-13.31,11.78-20.39,3.59-7.32,6.64-14.8,9.18-22.55,10-30.46,11.56-63.44,3.79-94.66-7.77-31.18-24.65-59.58-49.51-80.34"/>
    <path class="cls-2" d="M634.08,158.25c-2.63-2.02-5.33-3.94-8.09-5.76"/>
    <path class="cls-2" d="M582.21,131.05c9.28,2.28,18.29,5.49,26.92,9.6"/>
    <path class="cls-2" d="M593.92,274.99c-.09-15.37-3.91-30.62-11.55-44.05-1.91-3.35-4.01-6.53-6.36-9.59-2.35-3.05-4.88-5.9-7.63-8.59-5.51-5.37-11.75-9.9-18.59-13.43"/>
    <path class="cls-2" d="M533.68,199.88c-9.98,1.34-19.61,4.54-28.46,9.29-8.86,4.75-16.86,11-23.7,18.36-13.73,14.76-22.57,33.67-25.32,53.6"/>
    <path class="cls-2" d="M605.75,161.57c-8.35-4.34-17.16-7.7-26.28-10.03"/>
    <path class="cls-2" d="M535.16,444.35c2.53-.04,5.05-.15,7.57-.34"/>
    <path class="cls-2" d="M593.18,287.44c.52-4.14.76-8.27.74-12.44"/>
    <path class="cls-2" d="M579.47,151.54c-11.98-3.06-24.32-4.29-36.66-3.71"/>
    <path class="cls-2" d="M448.33,289.86c-.02.95-.03,1.89-.02,2.84"/>
    <path class="cls-2" d="M417.96,311.89c-3.48-1.24-5.54-4.59-5.57-8.18"/>
    <path class="cls-2" d="M480,442.96c-28.22-11.54-51.61-31.79-67.78-57.46-16.16-25.67-24.38-55.52-24.69-85.69"/>
    <path class="cls-2" d="M582.92,473.85c-10.99,4.38-22.36,7.73-33.98,9.97-11.62,2.24-23.42,3.36-35.26,3.31-23.75-.11-47.16-4.94-68.98-14.34"/>
    <path class="cls-2" d="M686.51,171.71c18.3,31.13,27.47,66.78,27.59,102.73"/>
    <path class="cls-2" d="M489.96,424.72c17.43,6.94,36.12,9.77,54.82,8.44"/>
    <path class="cls-2" d="M448.43,296.79c.06,1.19.15,2.38.25,3.57"/>
    <line class="cls-2" x1="433.58" y1="300.85" x2="439.54" y2="302.55"/>
    <path class="cls-2" d="M441.42,293.99c-.32-1.54-1.26-2.89-2.67-3.64"/>
    <line class="cls-2" x1="437.47" y1="301.83" x2="434.49" y2="300.98"/>
    <path class="cls-2" d="M434.49,300.98c.92.26,1.88.25,2.8,0"/>
    <line class="cls-2" x1="459.2" y1="279.38" x2="456.43" y2="279.54"/>
    <line class="cls-2" x1="440.77" y1="290.93" x2="441.42" y2="293.99"/>
    <path class="cls-2" d="M433.53,300.59c.31.16.63.29.97.39"/>
    <path class="cls-2" d="M429.19,306.45c-2.27-.8-4.2-2.31-5.55-4.3-1.35-1.98-2.06-4.33-2.12-6.72-.12-4.81,2.41-9.48,6.63-11.88"/>
    <path class="cls-2" d="M487.88,423.89c9.25,3.68,18.9,6.23,28.77,7.59"/>
    <path class="cls-2" d="M391.73,354.6c.25-.1.36-.36.42-.58.11-.39.1-.83.08-1.22-.04-.66-.16-1.3-.3-1.95-.29-1.29-.69-2.53-1.17-3.77-.47-1.23-1.01-2.43-1.65-3.58-.44-.79-1.52-2.58-2.52-2.96"/>
    <line class="cls-2" x1="444.16" y1="297.89" x2="442.82" y2="291.52"/>
    <line class="cls-2" x1="442.08" y1="297.17" x2="444.16" y2="297.89"/>
    <line class="cls-2" x1="439.54" y1="302.55" x2="444.16" y2="297.89"/>
    <line class="cls-2" x1="437.47" y1="301.83" x2="439.54" y2="302.55"/>
    <path class="cls-2" d="M439.78,299.5c1.42-1.43,2.05-3.53,1.64-5.51"/>
    <line class="cls-2" x1="442.08" y1="297.17" x2="439.78" y2="299.5"/>
    <line class="cls-2" x1="441.42" y1="293.99" x2="442.08" y2="297.17"/>
    <path class="cls-2" d="M437.29,300.98c.95-.27,1.8-.78,2.49-1.48"/>
    <line class="cls-2" x1="439.78" y1="299.5" x2="437.47" y2="301.83"/>
    <line class="cls-2" x1="434.49" y1="300.98" x2="433.55" y2="300.71"/>
    <path class="cls-2" d="M436.37,168.98c.21.48.18,1.04.08,1.52-.14.74-.45,1.48-.78,2.14-.57,1.15-1.27,2.21-2.02,3.26-1.45,2.01-3.24,4.07-4.96,5.84-1.74,1.78-3.73,3.61-5.73,5.09-1.35,1-4.82,3.42-6.92,2.81"/>
    <path class="cls-2" d="M534.25,245.8c-.41-.14-.81-.27-1.23-.4"/>
    <path class="cls-2" d="M405.63,382.78c.15-.1.15-.32.14-.46-.02-.31-.12-.63-.23-.92-.16-.46-.37-.9-.59-1.33-.44-.87-.93-1.7-1.46-2.51s-1.09-1.6-1.71-2.35c-.45-.54-1.42-1.66-2.13-1.94"/>
    <path class="cls-2" d="M540.06,125.3c0-.07-.13-.11-.17-.13-.07-.03-.14-.05-.22-.06"/>
    <path class="cls-2" d="M552.25,260.34c.71-.84.79-2.14.06-3"/>
    <path class="cls-2" d="M547.67,273.05c-2.58-3.72-6.27-6.52-10.61-7.88"/>
    <path class="cls-2" d="M495.16,306.88c3.94,6.05,9.69,10.68,16.56,13.04"/>
    <path class="cls-2" d="M537.78,269.92c-1.56-2.25-3.54-4.17-5.85-5.65"/>
    <path class="cls-2" d="M512.03,300.95c2.51,3.86,6.19,6.81,10.57,8.29"/>
    <path class="cls-2" d="M613.57,335.11c3.67,1.23,7.41.45,10.52-1.69"/>
    <path class="cls-2" d="M459.2,279.38c1.29-.07,2.58-.18,3.86-.34.64-.08,1.28-.18,1.91-.32.32-.07.63-.15.94-.25.2-.07.4-.14.57-.27.08-.06.18-.14.18-.26"/>
    <path class="cls-2" d="M535.99,250.62c-.46-.17-.92-.33-1.39-.47"/>
    <path class="cls-2" d="M463.82,275.07c-.51.03-1.03.07-1.54.14-.26.03-.51.07-.76.13-.13.03-.25.06-.37.1-.08.03-.16.06-.23.11-.03.02-.07.06-.07.1"/>
    <line class="cls-2" x1="460.85" y1="275.86" x2="460.85" y2="275.64"/>
    <path class="cls-2" d="M511.71,319.92c.46.15.93.3,1.4.43"/>
    <line class="cls-2" x1="466.87" y1="301.99" x2="480.62" y2="301.17"/>
    <path class="cls-2" d="M415.44,309.12c.26.09.52.13.8.11"/>
    <path class="cls-2" d="M486.86,300.94c.58.2,1.02.64,1.24,1.2"/>
    <path class="cls-2" d="M459.79,278c0-.11-.22-.18-.29-.2"/>
    <path class="cls-2" d="M466.9,305.13c0,.12-.1.21-.18.27-.17.13-.37.21-.57.28-.31.11-.62.19-.93.26-.63.14-1.27.25-1.91.33-1.29.17-2.57.28-3.87.36"/>
    <path class="cls-2" d="M466.67,277.94c0-.15-.19-.27-.3-.33-.14-.07-.28-.13-.43-.18"/>
    <path class="cls-2" d="M460.85,275.64c0,.11.22.18.29.2"/>
    <path class="cls-2" d="M507.62,322.82c.41.14.81.27,1.23.4"/>
    <path class="cls-2" d="M510.06,323.66c6.8,2.36,14.1,2.53,21.02.67,6.93-1.86,13.16-5.67,18.13-10.78"/>
    <line class="cls-2" x1="510.06" y1="323.66" x2="507.62" y2="322.82"/>
    <path class="cls-2" d="M533.03,245.4c-11.46-3.5-23.59-.84-33.02,6.21"/>
    <line class="cls-2" x1="533.03" y1="245.4" x2="535.49" y2="246.16"/>
    <line class="cls-2" x1="456.8" y1="278.58" x2="456.58" y2="278.6"/>
    <path class="cls-2" d="M555.81,264.95c2.41,3.74,4.08,7.9,4.97,12.24"/>
    <line class="cls-2" x1="459.5" y1="277.8" x2="456.87" y2="276.93"/>
    <path class="cls-2" d="M461.43,274.28c-1.38.08-2.75.19-4.11.38"/>
    <path class="cls-2" d="M486.11,300.84c.26-.02.51.02.75.1"/>
    <path class="cls-2" d="M548.93,313.45c-4.55,4.13-10.07,7.09-16.09,8.45-6.01,1.36-12.26,1.07-18.11-.94"/>
    <path class="cls-2" d="M485.68,301.32c-.06-.16-.14-.3-.24-.44"/>
    <path class="cls-2" d="M483.47,273.02c.91-.05,1.67-.7,1.97-1.54"/>
    <path class="cls-2" d="M485.68,301.32c3.9,9.96,11.69,17.95,21.94,21.5"/>
    <path class="cls-2" d="M534.61,250.15c-7.17-2.2-14.79-1.75-21.71,1.02-3.43,1.38-6.62,3.29-9.47,5.65-2.85,2.36-5.34,5.12-7.39,8.19-4.13,6.16-6.45,13.42-6.66,20.84-.2,7.4,1.72,14.79,5.78,21.03"/>
    <path class="cls-2" d="M552.32,257.34c-4.43-5.26-10.22-9.16-16.82-11.18"/>
    <path class="cls-2" d="M537.07,265.17c-4.53-1.42-9.35-1.16-13.73.58-4.38,1.74-8.08,4.84-10.7,8.72-2.62,3.89-4.1,8.48-4.24,13.17-.14,4.68,1.07,9.36,3.64,13.31"/>
    <path class="cls-2" d="M537.65,251.08c3.73,1.15,7.21,2.95,10.31,5.32,3.09,2.37,5.74,5.27,7.85,8.54"/>
    <line class="cls-2" x1="483.47" y1="273.02" x2="461.43" y2="274.28"/>
    <path class="cls-2" d="M488.1,302.15c3.91,9.97,11.7,17.97,21.96,21.52"/>
    <line class="cls-2" x1="485.89" y1="273.81" x2="463.82" y2="275.07"/>
    <path class="cls-2" d="M522.61,309.23c4.34,1.46,9,1.37,13.3-.14"/>
    <line class="cls-2" x1="484.47" y1="300.94" x2="486.11" y2="300.84"/>
    <path class="cls-2" d="M534.36,250.07c-7.17-2.2-14.79-1.75-21.71,1.02-3.43,1.38-6.62,3.29-9.47,5.65-2.85,2.35-5.34,5.12-7.39,8.19-4.13,6.16-6.45,13.42-6.66,20.83-.2,7.4,1.72,14.79,5.78,21.03"/>
    <line class="cls-2" x1="465.94" y1="277.43" x2="461.14" y2="275.84"/>
    <path class="cls-2" d="M494.91,306.79c3.94,6.05,9.69,10.68,16.56,13.04"/>
    <path class="cls-2" d="M456.8,278.58c.52-.03,1.03-.07,1.55-.14.26-.03.51-.07.77-.13.13-.03.25-.06.37-.1.08-.03.16-.06.23-.11.03-.02.07-.06.07-.1"/>
    <path class="cls-2" d="M484.72,435.47c14.53,5.88,29.93,9.12,45.59,9.66"/>
    <line class="cls-2" x1="441.45" y1="307.72" x2="459.44" y2="306.64"/>
    <path class="cls-2" d="M575,129.48s0,0,0,0"/>
    <path class="cls-2" d="M617.65,151.51c1.91.48,3.89.21,5.63-.69"/>
    <path class="cls-2" d="M415.8,189.56c-.46-.2-.76-.56-.94-1.02-.22-.58-.22-1.24-.15-1.84.13-1.07.52-2.16.96-3.13.89-1.96,2.18-3.86,3.54-5.51,2.66-3.23,6.32-6.38,10.04-8.35"/>
    <path class="cls-2" d="M416.94,400.12c.31-.17.84.03,1.1.13"/>
    <path class="cls-2" d="M479.6,137.85c.07.21.32.31.5.36"/>
    <path class="cls-2" d="M581.59,139.83c-12.71-3.17-25.79-4.45-38.87-3.85"/>
    <path class="cls-2" d="M456.2,281.13c-.01.1-.11.17-.18.21-.14.09-.3.15-.46.21-.25.08-.51.15-.76.2-.52.11-1.04.19-1.56.26-1.05.14-2.09.22-3.15.28"/>
    <path class="cls-2" d="M414.05,307.08c0,.89.52,1.73,1.39,2.04"/>
    <path class="cls-2" d="M492.61,258.74c-3.09,3.81-5.51,8.13-7.17,12.74"/>
    <path class="cls-2" d="M399.66,373.27c-.13-.05-.33-.1-.47,0"/>
    <path class="cls-2" d="M386.59,340.55c-.18-.07-.38-.09-.57-.02"/>
    <path class="cls-2" d="M627.31,151.03c3.37,2.27,6.63,4.67,9.79,7.21"/>
    <path class="cls-2" d="M610.17,143.47c.29-.41.6-.81.92-1.19"/>
    <path class="cls-2" d="M540.58,135.44c-14.73.67-29.22,3.72-43.01,8.88"/>
    <line class="cls-2" x1="413.99" y1="308.84" x2="414.56" y2="308.8"/>
    <path class="cls-2" d="M535.49,246.16c-6.64-2.03-13.67-2.02-20.33-.12-6.66,1.9-12.65,5.59-17.47,10.5"/>
    <line class="cls-2" x1="466.67" y1="277.94" x2="466.9" y2="305.13"/>
    <line class="cls-2" x1="415.44" y1="309.12" x2="413.79" y2="308.53"/>
    <path class="cls-2" d="M624.09,333.42c3.04-2.09,5.24-5.28,6.6-8.61,1.38-3.38,2-7.12,1.86-10.76-.14-3.62-1.03-7.33-2.81-10.53-1.76-3.16-4.49-5.93-8.09-7.07"/>
    <path class="cls-2" d="M625.98,152.49c-3.21,2.11-7.26,2.36-10.62.37-3.32-1.97-5.14-5.63-5.19-9.39"/>
    <path class="cls-2" d="M621.65,296.45c-2.21-.7-4.52-.69-6.73-.01-2.2.67-4.14,1.95-5.76,3.55-3.25,3.21-5.19,7.68-5.94,12.07-.77,4.44-.41,9.22,1.23,13.45.82,2.11,1.98,4.13,3.51,5.82,1.53,1.69,3.42,3.05,5.6,3.78"/>
    <path class="cls-2" d="M483.69,285.59c9.84-40.19,33.82-76.53,68.07-100.27,4.29-2.97,8.69-5.72,13.25-8.25,4.48-2.49,9.06-4.75,13.77-6.78,9.49-4.09,19.36-7.21,29.49-9.25,10.13-2.04,20.45-2.98,30.78-2.78,5.16.1,10.28.49,15.4,1.17,5.14.68,10.2,1.64,15.23,2.9"/>
    <path class="cls-2" d="M421.18,312.34c-1.09.07-2.19-.09-3.22-.45"/>
    <line class="cls-2" x1="421.18" y1="312.34" x2="450.34" y2="310.59"/>
    <path class="cls-2" d="M544.78,433.16c30.45-2.17,58.87-15.15,81.34-35.39,22.5-20.28,38.36-47.16,45.74-76.44,7.37-29.25,6.15-60.43-4.44-88.85-10.59-28.42-30.14-52.77-56.6-68.12"/>
    <path class="cls-2" d="M416.03,189.64c-.08-.02-.15-.05-.23-.08"/>
    <path class="cls-2" d="M385.7,253.36c.29.1.6.04.86-.09.37-.17.69-.48.96-.77.48-.54.85-1.13,1.19-1.76.66-1.21,1.19-2.63,1.57-3.95.38-1.32.69-2.8.8-4.17.05-.71.06-1.41-.05-2.12-.07-.42-.16-.8-.38-1.17-.15-.26-.36-.48-.65-.57"/>
    <path class="cls-2" d="M569.38,469.19c-17.15-6.93-32.62-17.24-45.73-30.26-13.11-13.01-23.54-28.42-31.04-45.26-15.1-33.94-17.68-72.28-8.91-108.08"/>
    <line class="cls-2" x1="432.24" y1="294.48" x2="433.58" y2="300.85"/>
    <line class="cls-2" x1="442.82" y1="291.52" x2="436.86" y2="289.81"/>
    <path class="cls-2" d="M551.1,444.27c4.2-.94,8.34-2.05,12.44-3.35"/>
    <path class="cls-2" d="M614.5,148.63c-.64-.45-1.28-.89-1.93-1.32"/>
    <line class="cls-2" x1="436.86" y1="289.81" x2="432.24" y2="294.48"/>
    <line class="cls-2" x1="433.36" y1="307.91" x2="429.19" y2="306.45"/>
    <line class="cls-2" x1="403.72" y1="208.92" x2="403.46" y2="208.77"/>
    <path class="cls-2" d="M441.7,283.99c2.54.86,4.66,2.59,6.06,4.86,1.4,2.27,2.01,4.94,1.81,7.58-.19,2.65-1.18,5.2-2.82,7.29-1.64,2.09-3.88,3.65-6.45,4.38"/>
    <path class="cls-2" d="M614.61,148.66c-.61-.43-1.23-.85-1.85-1.26"/>
    <line class="cls-2" x1="624.9" y1="150.42" x2="625.42" y2="150.55"/>
    <path class="cls-2" d="M611.1,142.28c-.53-.66-1.2-1.26-1.97-1.63"/>
    <path class="cls-2" d="M540.58,453.29c-20.73,1.01-41.35-2.46-60.57-10.32"/>
    <path class="cls-2" d="M611.48,144.1c.39,3.45,2.67,6.54,6.16,7.41"/>
    <line class="cls-2" x1="191.42" y1=".5" x2="571.36" y2="86.44"/>
    <line class="cls-2" x1="567.9" y1="127.53" x2="582.21" y2="131.05"/>
    <path class="cls-2" d="M415.58,376.06c15.41,26.29,38.64,47.07,67.07,58.57"/>
    <path class="cls-2" d="M486.37,362.74c6.61,5.4,14.04,9.68,22.05,12.65"/>
    <path class="cls-2" d="M565.21,202.04c-8.22-2.31-16.74-3.22-25.26-2.75"/>
    <path class="cls-2" d="M615.16,147.99c-.09-.1-.19-.21-.29-.31"/>
    <path class="cls-2" d="M607.59,140.27c-.23-.22-.46-.44-.7-.66"/>
    <line class="cls-2" x1="540.06" y1="125.3" x2="540.06" y2="125.3"/>
    <path class="cls-2" d="M714.1,274.44c.14,41.34-11.67,82.22-33.68,117.19-5.51,8.75-11.56,17-18.26,24.87-6.71,7.88-13.89,15.17-21.68,21.99-15.52,13.57-33.01,24.78-51.93,33.02"/>
    <path class="cls-2" d="M438.79,419.4c-.04.11-.17.12-.26.12-.1,0-.21-.02-.31-.05-.2-.05-.4-.12-.59-.2"/>
    <path class="cls-2" d="M494.05,133.28c-.06-.2-.34-.29-.5-.33"/>
    <line class="cls-2" x1="494.05" y1="133.28" x2="494.05" y2="133.28"/>
    <line class="cls-2" x1="489.96" y1="424.72" x2="487.88" y2="423.89"/>
    <line class="cls-2" x1="484.72" y1="435.47" x2="482.64" y2="434.63"/>
    <line class="cls-2" x1="480" y1="442.96" x2="466.33" y2="437.38"/>
    <line class="cls-2" x1="612.32" y1="147.04" x2="626.17" y2="150.5"/>
    <path class="cls-2" d="M528.62,125.37c0,.08.12.13.17.15.07.03.15.05.22.07"/>
    <path class="cls-2" d="M397.99,218.91s.09.04.13.06"/>
    <path class="cls-2" d="M399.19,373.27c-.15.1-.18.32-.18.48,0,.32.07.62.16.92.14.47.33.92.54,1.36.42.89.92,1.72,1.47,2.53.55.81,1.14,1.58,1.79,2.32.48.54,1.49,1.6,2.21,1.89"/>
    <path class="cls-2" d="M612.57,147.31c-.06-.04-.11-.07-.17-.11"/>
    <line class="cls-2" x1="444.69" y1="472.79" x2="191.4" y2="363.66"/>
    <path class="cls-2" d="M571.36,86.44c23.08,5.22,44.77,15.03,63.97,28.84,4.79,3.45,9.38,7.11,13.81,11,4.43,3.9,8.64,7.99,12.67,12.3,8.05,8.61,15.25,17.96,21.54,27.93"/>
    <path class="cls-2" d="M626.17,150.5c-.26-.07-.52-.09-.79-.07"/>
    <path class="cls-2" d="M603.16,147.87c-1.15-.29-2.21-.84-3.12-1.6"/>
    <path class="cls-2" d="M389.96,238.74c-.3-.08-.6-.02-.87.1-.4.18-.71.43-1.01.73-.52.51-.92,1.09-1.3,1.71-.73,1.21-1.29,2.6-1.68,3.95-.39,1.35-.66,2.83-.69,4.24-.02.72.02,1.43.17,2.14.09.42.21.8.45,1.17.16.25.37.47.67.57"/>
    <path class="cls-2" d="M386.02,340.53c-.25.1-.4.35-.48.58-.14.37-.18.81-.18,1.2-.01.67.07,1.33.19,1.98.25,1.32.65,2.58,1.15,3.82.5,1.24,1.09,2.43,1.8,3.56.5.79,1.67,2.51,2.68,2.9"/>
    <line class="cls-2" x1="386.02" y1="340.53" x2="386.02" y2="340.53"/>
    <path class="cls-2" d="M577.3,150.99c-11.97-3.06-24.3-4.29-36.63-3.71"/>
    <line class="cls-2" x1="577.3" y1="150.99" x2="579.47" y2="151.54"/>
    <path class="cls-2" d="M579.42,139.29c-12.7-3.17-25.76-4.45-38.83-3.85"/>
    <line class="cls-2" x1="579.42" y1="139.29" x2="581.59" y2="139.83"/>
    <path class="cls-2" d="M456.45,309.33c-.03-.2-.43-.34-.57-.39"/>
    <path class="cls-2" d="M456.45,309.33c2.94,18.6,11.47,36.09,25.21,49.24"/>
    <path class="cls-2" d="M494.34,368.49c8.53,1.31,17.2,1.16,25.69-.36,8.49-1.52,16.67-4.4,24.29-8.43,7.62-4.03,14.59-9.18,20.75-15.21,6.16-6.03,11.46-12.89,15.77-20.35"/>
    <path class="cls-2" d="M536.12,250.66c-.5-.18-1-.35-1.51-.51"/>
    <path class="cls-2" d="M497.91,307.81c3.95,6.06,9.7,10.69,16.58,13.06"/>
    <path class="cls-2" d="M511.71,319.92c.5.17,1.01.33,1.52.48"/>
    <path class="cls-2" d="M517.93,306.93c2.76.17,5.52-.23,8.13-1.14"/>
    <path class="cls-2" d="M391.17,354.58c.17.07.37.1.55.03"/>
    <path class="cls-2" d="M405.18,382.76c.12.05.32.11.46.02"/>
    <path class="cls-2" d="M537.41,251.01c-7.18-2.21-14.81-1.75-21.74,1.03-3.44,1.38-6.63,3.3-9.48,5.65-2.86,2.36-5.34,5.13-7.4,8.2-4.13,6.17-6.46,13.44-6.66,20.86-.2,7.41,1.72,14.81,5.79,21.06"/>
    <line class="cls-2" x1="416.24" y1="309.23" x2="434.14" y2="308.16"/>
    <path class="cls-2" d="M611.1,142.28c.21.59.32,1.2.39,1.82"/>
    <path class="cls-2" d="M419.09,404.71c-.57-.69-1.1-1.4-1.58-2.17-.24-.38-.45-.77-.62-1.19-.08-.21-.15-.42-.18-.65-.02-.21,0-.47.22-.59"/>
    <path class="cls-2" d="M437.63,419.28c-1.51-.61-3.8-2.06-5.14-2.95-1.65-1.1-3.25-2.26-4.8-3.48-2.93-2.3-6.22-5.24-8.6-8.14"/>
    <path class="cls-2" d="M694.37,281.72c.16,41.52-14.61,82.36-41.36,114.13-6.65,7.9-14.01,15.2-21.99,21.76-3.97,3.26-8.07,6.32-12.33,9.2-4.31,2.91-8.73,5.6-13.29,8.08-18.2,9.88-38.18,16.12-58.85,17.98"/>
    <path class="cls-2" d="M627.31,151.03c-.36-.24-.72-.42-1.14-.53"/>
    <line class="cls-2" x1="467.16" y1="247.58" x2="494.74" y2="256.31"/>
    <line class="cls-2" x1="523.9" y1="265.53" x2="621.65" y2="296.45"/>
    <line class="cls-2" x1="613.57" y1="335.11" x2="512.16" y2="301.14"/>
    <path class="cls-2" d="M455.63,280.7c.12.04.24.08.35.15.09.05.24.14.22.28"/>
    <path class="cls-2" d="M686.37,171.65c-4.54-1.84-9.15-3.41-13.86-4.73-4.75-1.33-9.54-2.39-14.4-3.19-9.69-1.59-19.52-2.1-29.32-1.56-20.12,1.11-39.67,6.64-57.54,15.82-8.72,4.48-16.98,9.8-24.69,15.84-7.78,6.09-14.97,12.9-21.51,20.3-13.25,15-23.71,32.34-30.95,50.98-7.28,18.76-11.25,38.74-11.61,58.87-.35,19.56,2.72,39.14,9.33,57.59,1.72,4.8,3.66,9.48,5.85,14.08,2.19,4.6,4.59,9.06,7.24,13.41,5.2,8.56,11.26,16.56,18.12,23.85,13.42,14.25,29.63,25.49,47.81,32.83,18.47,7.46,38.26,10.63,58.12,9.45,19.93-1.18,39.3-6.69,57.01-15.79,4.35-2.24,8.57-4.67,12.69-7.31,4.17-2.68,8.19-5.54,12.09-8.59,7.79-6.11,14.99-12.93,21.53-20.36,13.2-14.98,23.63-32.28,30.84-50.87,7.27-18.73,11.24-38.69,11.61-58.79.36-19.59-2.71-39.19-9.33-57.66-3.44-9.59-7.82-18.83-13.11-27.54-5.19-8.53-11.23-16.5-18.07-23.78-13.42-14.26-29.65-25.51-47.83-32.86Z"/>
    <path class="cls-2" d="M669.69,162.33c20.62,5.15,39.6,15.01,55.76,28.77,16.17,13.76,28.95,30.93,37.9,50.12s13.88,40.02,14.88,61.13c.5,10.47.02,20.97-1.39,31.36-1.43,10.54-3.83,20.95-7.14,31.06-6.58,20.06-16.74,38.88-30.02,55.31-13.28,16.43-29.57,30.32-48.12,40.54-18.54,10.21-38.99,16.54-60.15,18.14-21.17,1.6-42.32-1.6-62.02-9.56"/>
    <path class="cls-2" d="M450.34,310.59c1.06-.06,2.12-.15,3.17-.3.53-.07,1.05-.16,1.57-.27.26-.06.52-.13.77-.22.16-.06.32-.12.46-.23.07-.05.15-.13.13-.23"/>
    <line class="cls-2" x1="412.29" y1="293.64" x2="412.39" y2="303.71"/>
    <path class="cls-2" d="M539.67,125.11c-.72-.18-2.05-.28-2.77-.33-.93-.06-1.86-.09-2.8-.09s-1.86.03-2.8.1c-.46.04-.93.08-1.39.15-.13.02-1.29.19-1.29.43"/>
    <path class="cls-2" d="M435.33,168.14c.46.13.84.39,1.04.84"/>
    <path class="cls-2" d="M429.25,169.72c.95-.5,1.91-.94,2.93-1.27.88-.28,2.18-.59,3.14-.32"/>
    <path class="cls-2" d="M390,238.75h-.03"/>
    <path class="cls-2" d="M493.56,132.95c-.99-.25-2.88.02-3.82.19-1.27.22-2.51.54-3.74.92-1.23.39-2.42.84-3.58,1.4-.58.28-1.14.59-1.67.95-.32.22-.68.5-.93.81-.12.16-.28.4-.21.63"/>
    <path class="cls-2" d="M403.46,208.77c-.22-.07-.45-.03-.66.03-.31.09-.57.25-.83.43-.45.31-.83.67-1.2,1.07-.74.8-1.34,1.67-1.86,2.62-.51.91-.96,1.95-1.22,2.97-.14.52-.23,1.04-.24,1.59,0,.32.02.62.13.92.08.21.2.4.41.52"/>
    <path class="cls-2" d="M440.28,308.11c-2.27.64-4.68.59-6.92-.2"/>
  </g>
  <g id="_图层_4" data-name="图层 4">
    <polygon class="cls-3" points="446.78 222.74 447.98 252.63 487.2 268.55 486.65 236.63 446.78 222.74"/>
    <polygon class="cls-3" points="453.43 210.31 455.08 269.89 426.81 226.77 453.43 210.31"/>
  </g>
</svg>