<?xml version="1.0" encoding="UTF-8"?>
<svg xmlns="http://www.w3.org/2000/svg" viewBox="0 0 452.11 423.75">
  <defs>
    <style>
      .cls-1 {
        stroke-dasharray: 0 0 7.02 7.02;
      }

      .cls-1, .cls-2, .cls-3, .cls-4, .cls-5 {
        stroke: red;
        stroke-miterlimit: 10;
        stroke-width: 4.25px;
      }

      .cls-1, .cls-2, .cls-3, .cls-4, .cls-5, .cls-6 {
        fill: none;
      }

      .cls-2 {
        stroke-dasharray: 0 0 9.34 9.34;
      }

      .cls-3 {
        stroke-dasharray: 0 0 9.5 9.5;
      }

      .cls-7 {
        fill: red;
      }

      .cls-7, .cls-8 {
        stroke-width: 0px;
      }

      .cls-4 {
        stroke-dasharray: 0 0 7.55 7.55;
      }

      .cls-6 {
        stroke: #000;
        stroke-linecap: round;
        stroke-linejoin: round;
      }

      .cls-8 {
        fill: #bfbfbf;
      }
    </style>
  </defs>
  <g id="_图层_3" data-name="图层 3">
    <polygon class="cls-8" points="236.58 202.65 222.82 214.7 223.18 215.97 231.68 220.48 240.81 212.26 237.22 203.34 236.58 202.65"/>
    <polygon class="cls-8" points="418.82 199.75 417.83 200.3 413.2 208.88 421.21 218.2 430.97 214.11 431.08 213.21 418.82 199.75"/>
    <polygon class="cls-8" points="222.5 396.71 221.8 397.34 234.34 411.42 235.08 410.79 239.6 402.32 237.94 399.93 231.45 393.16 222.5 396.71"/>
    <polygon class="cls-8" points="423.68 391.51 419.42 394.66 414.91 399.26 418.57 408.99 419.31 408.99 426.05 404.16 433.01 396.84 432.33 396.03 423.68 391.51"/>
  </g>
  <g id="Make2D::可见线::正切线">
    <path class="cls-6" d="M54.45,117.64c-.2-.08-.39-.16-.59-.23"/>
    <line class="cls-6" x1="236" y1="171.73" x2="236.68" y2="171.74"/>
    <path class="cls-6" d="M111.8,97.21c-3.05,0-6.1-.1-9.14-.25-3.22-.15-6.43-.37-9.64-.61-3.07-.23-6.14-.5-9.2-.78-3.18-.29-6.35-.59-9.52-.89-3.09-.29-6.18-.59-9.26-.87-3.16-.29-6.31-.57-9.47-.84-3.11-.26-6.22-.5-9.33-.72-3.14-.22-6.29-.42-9.43-.59-3.14-.17-6.27-.31-9.41-.43-3.13-.11-6.26-.19-9.39-.24-6.27-.1-12.54-.07-18.81.09-6.27.15-12.53.43-18.8.78-3.19.18-6.37.38-9.56.59-3.07.2-6.14.41-9.2.61"/>
    <line class="cls-6" x1="236.92" y1="174.4" x2="236.21" y2="174.4"/>
    <path class="cls-6" d="M409.92,312.47c.58-.03,1.16-.03,1.74-.03"/>
    <path class="cls-6" d="M361.29,240.1c-23.61-9.8-50.52-7.58-72.21,5.96-21.69,13.54-35.49,36.75-36.94,62.29"/>
    <path class="cls-6" d="M230.35,261.8c1.33-2.79,2.76-5.51,4.32-8.17s3.23-5.25,5.02-7.76,3.68-4.94,5.69-7.29c1-1.17,2.03-2.32,3.1-3.43.26-.27.52-.55.8-.8.03-.03.05-.05.08-.08,0,0,.02-.03.04-.03,0,0,0,0,0,0,0,0,0,.01-.01.02-.02.03-.04.05-.06.08-.23.28-.47.54-.71.81-.47.53-.94,1.06-1.41,1.59"/>
    <path class="cls-6" d="M329.62,200.18c-4.11-.01-8.18.2-12.27.63-2.04.22-4.07.48-6.09.8-1.01.16-2.02.33-3.03.5-.19.03-.38.07-.57.09-.01,0-.05,0-.03,0,.05-.02.1-.03.15-.04.27-.06.53-.12.8-.17.48-.1.96-.19,1.45-.28"/>
    <line class="cls-6" x1="223.43" y1="312.15" x2="218.53" y2="311.93"/>
    <path class="cls-6" d="M407.55,313.11c.4,0,.8,0,1.19-.01.2,0,.4-.01.6-.02.1,0,.2-.01.3-.02.07,0,.15-.01.22-.02.01,0,.07,0,.07-.02"/>
    <path class="cls-6" d="M254.51,312.88c-.42,0-.84,0-1.25-.02-.21,0-.42-.01-.63-.02-.1,0-.21-.01-.31-.02-.08,0-.16-.01-.23-.03-.02,0-.04,0-.05-.01,0,0-.02,0-.02-.01"/>
    <line class="cls-6" x1="291.43" y1="312.83" x2="288.95" y2="312.93"/>
    <path class="cls-6" d="M324.87,200.19c1.58-.05,3.17-.06,4.75-.04"/>
    <path class="cls-6" d="M207.64,97.06s.06.08.1.1"/>
    <line class="cls-6" x1="226.57" y1="162.31" x2="226.57" y2="162.34"/>
    <path class="cls-6" d="M207.74,97.16c4.86,2.25,8.04,6.45,10.17,11.09"/>
    <path class="cls-6" d="M206.27-62.69c-.04,3.23-.07,6.45-.1,9.68-.03,3.44-.06,6.87-.08,10.31-.02,3.27-.04,6.54-.06,9.81,0,1.69-.02,3.38-.02,5.07,0,1.7-.01,3.41-.02,5.11-.01,3.31-.02,6.63-.02,9.94,0,1.67,0,3.34,0,5.01,0,1.68,0,3.36,0,5.04,0,1.68,0,3.36,0,5.04,0,1.68,0,3.36,0,5.04,0,3.3.02,6.61.03,9.91.05,13.33.15,26.65.34,39.97.09,6.66.21,13.32.37,19.98.07,2.73.14,5.46.24,8.19.07,2.05.15,4.09.25,6.14.07,1.31.14,2.62.26,3.92.04.38.08.76.14,1.13.02.12.04.24.07.35.02.07.04.14.07.21"/>
    <path class="cls-6" d="M422.19,184.35c.06,0,.12,0,.17.02"/>
    <path class="cls-6" d="M237.02,166.22c-.69-.02-1.24.4-1.63.91-.39.51-.67,1.13-.86,1.73-.39,1.2-.55,2.58-.56,3.83"/>
    <path class="cls-6" d="M408.98,168.08c.07-.16.03-.33-.05-.47"/>
    <path class="cls-6" d="M233.97,173.01c.01,1.28.18,2.7.58,3.93.2.61.48,1.26.87,1.78.39.52.95.97,1.67.96"/>
    <line class="cls-6" x1="196.51" y1="80.91" x2="196.49" y2="81.8"/>
    <path class="cls-6" d="M232.42,172.66c.02-1.51.23-3.18.73-4.62.25-.72.61-1.46,1.12-2.04.53-.59,1.23-1,2.07-.87.79.13,1.44.68,1.92,1.26.49.6.87,1.32,1.16,2.03.57,1.44.83,3.06.83,4.59"/>
    <path class="cls-6" d="M408.93,167.61c.32-.68.75-1.38,1.32-1.9.57-.52,1.32-.89,2.12-.58.34.13.6.33.84.59.3.32.52.67.72,1.06.34.69.57,1.46.74,2.2.59,2.71.51,6.54-.47,9.18"/>
    <path class="cls-6" d="M414.2,178.17c-.26.7-.63,1.46-1.19,2-.61.58-1.35.8-2.15.43-.33-.16-.59-.37-.85-.62-.31-.31-.55-.65-.77-1.02-.41-.68-.69-1.4-.9-2.16-.43-1.48-.57-3.11-.48-4.64.09-1.52.42-3.14,1.07-4.53"/>
    <line class="cls-6" x1="195.59" y1="83.05" x2="195.58" y2="84"/>
    <path class="cls-6" d="M195.23,85.58c-1.55-.02-3.25-.26-4.71-.83-.73-.29-1.47-.69-2.04-1.24-.58-.57-.97-1.29-.89-2.15.08-.82.56-1.53,1.12-2.07.57-.55,1.29-.98,2.01-1.3,1.45-.65,3.11-.94,4.68-.94"/>
    <path class="cls-6" d="M197.07,77.15c1.45.19,2.98.65,4.22,1.47.62.41,1.2.92,1.59,1.57.39.66.54,1.41.28,2.16-.51,1.44-2.24,2.24-3.48,2.63-1.4.44-2.99.62-4.45.6"/>
    <line class="cls-6" x1="411.73" y1="174.13" x2="411.11" y2="174.13"/>
    <line class="cls-6" x1="409.62" y1="173.37" x2="411.98" y2="173.35"/>
    <line class="cls-6" x1="410.77" y1="173.77" x2="409.64" y2="173.78"/>
    <line class="cls-6" x1="193.94" y1="81.31" x2="193.95" y2="80.49"/>
    <line class="cls-6" x1="237.04" y1="172.06" x2="238.23" y2="172.06"/>
    <line class="cls-6" x1="238.26" y1="172.52" x2="235.73" y2="172.51"/>
    <line class="cls-6" x1="410.89" y1="171.46" x2="411.53" y2="171.45"/>
    <line class="cls-6" x1="183.26" y1="41.24" x2="183.54" y2="41.24"/>
    <path class="cls-6" d="M195.26,84c.1,0,.21,0,.32,0"/>
    <path class="cls-6" d="M137.14,97.23c-10,11.5-23.31,19.66-38.11,23.32-14.8,3.66-30.37,2.65-44.58-2.91"/>
    <path class="cls-6" d="M247.2,236.75c-3.5,4-6.64,8.06-9.58,12.49-1.45,2.19-2.83,4.42-4.13,6.71-1.3,2.29-2.51,4.61-3.64,6.98"/>
    <path class="cls-6" d="M310.02,201.72c4.66-.84,9.54-1.34,14.27-1.51"/>
    <path class="cls-6" d="M195.4,77.05c.56,0,1.11.03,1.67.11"/>
    <line class="cls-6" x1="196.53" y1="79.36" x2="196.51" y2="80.65"/>
    <line class="cls-6" x1="195.64" y1="82.02" x2="195.67" y2="79.51"/>
    <path class="cls-6" d="M195.41,77.27s0,0,0,0c0,0,0-.01,0-.02,0,0,0-.02,0-.03,0-.02,0-.04,0-.06,0-.04,0-.08,0-.11"/>
    <line class="cls-6" x1="226.7" y1="403.97" x2="226.84" y2="403.8"/>
    <line class="cls-6" x1="234.92" y1="397.23" x2="234.7" y2="397.35"/>
    <path class="cls-6" d="M111.83,97.21h-.03"/>
    <line class="cls-6" x1="226.84" y1="403.8" x2="227.54" y2="403.17"/>
    <line class="cls-6" x1="234.7" y1="397.35" x2="227.54" y2="403.17"/>
    <path class="cls-6" d="M252.01,312.28c-.28-.08-2.18-.09-2.46-.09"/>
    <path class="cls-6" d="M409.92,312.47c-.06-12.29-2.99-24.38-8.57-35.33"/>
    <path class="cls-6" d="M252.16,307.9c1.45-25.44,15.2-48.55,36.8-62.04,21.6-13.48,48.4-15.69,71.91-5.94"/>
    <line class="cls-6" x1="232.45" y1="257.87" x2="232.46" y2="257.87"/>
    <line class="cls-6" x1="286.21" y1="267.51" x2="280.51" y2="267.59"/>
    <line class="cls-6" x1="286.21" y1="267.51" x2="292.42" y2="267.61"/>
    <line class="cls-6" x1="425.39" y1="405.01" x2="425.22" y2="404.88"/>
    <line class="cls-6" x1="418.66" y1="396.54" x2="418.77" y2="396.8"/>
    <line class="cls-6" x1="292.42" y1="267.61" x2="292.94" y2="268.69"/>
    <line class="cls-6" x1="373.48" y1="267.59" x2="369.22" y2="267.65"/>
    <line class="cls-6" x1="373.48" y1="267.59" x2="379.82" y2="267.69"/>
    <line class="cls-6" x1="379.82" y1="267.69" x2="381.68" y2="268.77"/>
    <line class="cls-6" x1="373.3" y1="354.66" x2="369.46" y2="354.79"/>
    <line class="cls-6" x1="373.3" y1="354.66" x2="379.63" y2="354.89"/>
    <line class="cls-6" x1="379.63" y1="354.89" x2="381.49" y2="357.3"/>
    <line class="cls-6" x1="286.11" y1="354.48" x2="280.81" y2="354.65"/>
    <line class="cls-6" x1="286.11" y1="354.48" x2="292.31" y2="354.7"/>
    <line class="cls-6" x1="292.31" y1="354.7" x2="292.83" y2="357.11"/>
    <line class="cls-6" x1="437.92" y1="312.48" x2="442.59" y2="312.28"/>
    <path class="cls-6" d="M249.55,312.19c.02-21.49,8.61-42.07,23.84-57.21,15.23-15.14,35.86-23.62,57.34-23.59,21.47.03,42.08,8.56,57.27,23.76,15.19,15.19,23.71,35.8,23.66,57.29"/>
    <path class="cls-6" d="M411.66,312.44c-.05,21.47-8.66,42.01-23.89,57.13-15.23,15.12-35.85,23.58-57.3,23.54-21.45-.03-42.03-8.55-57.22-23.71-15.19-15.17-23.72-35.74-23.7-57.21"/>
    <path class="cls-6" d="M407.55,313.11c.05-20.29-8-39.74-22.34-54.08-14.34-14.34-33.79-22.4-54.07-22.43-20.27-.03-39.74,7.97-54.12,22.26-14.38,14.3-22.49,33.72-22.51,54.01"/>
    <path class="cls-6" d="M254.51,312.88c-.02,20.27,8.04,39.69,22.37,54.01,14.33,14.32,33.77,22.36,54.02,22.39,20.25.03,39.71-7.95,54.09-22.22,14.38-14.27,22.5-33.67,22.55-53.94"/>
    <line class="cls-6" x1="386.26" y1="314.27" x2="385.78" y2="314.38"/>
    <line class="cls-6" x1="401.14" y1="311.86" x2="401.66" y2="311.81"/>
    <line class="cls-6" x1="378.24" y1="351.81" x2="378.45" y2="351.48"/>
    <line class="cls-6" x1="425.22" y1="404.88" x2="424.58" y2="404.18"/>
    <line class="cls-6" x1="372.2" y1="362.77" x2="372.02" y2="363.14"/>
    <line class="cls-6" x1="380.91" y1="271.77" x2="381.27" y2="271.97"/>
    <line class="cls-6" x1="369.89" y1="265.76" x2="369.56" y2="265.57"/>
    <line class="cls-6" x1="418.77" y1="396.8" x2="424.58" y2="404.18"/>
    <line class="cls-6" x1="283.67" y1="274.17" x2="283.48" y2="274.53"/>
    <line class="cls-6" x1="289.69" y1="263.19" x2="289.88" y2="262.85"/>
    <line class="cls-6" x1="292.06" y1="360.11" x2="292.41" y2="360.32"/>
    <line class="cls-6" x1="281.08" y1="354.1" x2="280.73" y2="353.93"/>
    <line class="cls-6" x1="370.38" y1="312.95" x2="372.99" y2="313.06"/>
    <line class="cls-6" x1="400" y1="310.95" x2="401.14" y2="311.86"/>
    <line class="cls-6" x1="370.38" y1="312.95" x2="369.82" y2="312.37"/>
    <path class="cls-6" d="M310.02,201.72c.2-.03.39-.04.6,0"/>
    <path class="cls-6" d="M188.71,80.59c-.03.71.34,1.31.84,1.76.5.45,1.13.77,1.74.99,1.23.46,2.67.64,3.97.66"/>
    <path class="cls-6" d="M195.58,84c1.3-.02,2.73-.21,3.96-.66.62-.23,1.25-.54,1.75-.98.5-.44.89-1.03.89-1.74"/>
    <path class="cls-6" d="M195.26,84c0,.39,0,1.19-.03,1.58"/>
    <path class="cls-6" d="M207.58,96.88c-.29-.86-.51-5.37-.55-6.23-.1-2.08-.18-4.17-.25-6.26"/>
    <line class="cls-6" x1="230.75" y1="207.85" x2="231.38" y2="208.55"/>
    <line class="cls-6" x1="376.53" y1="161.19" x2="376.53" y2="161.34"/>
    <line class="cls-6" x1="237.02" y1="215.67" x2="231.38" y2="208.55"/>
    <line class="cls-6" x1="230.56" y1="207.7" x2="230.75" y2="207.85"/>
    <line class="cls-6" x1="237.11" y1="215.89" x2="237.02" y2="215.67"/>
    <path class="cls-6" d="M223.06,140.44v.06"/>
    <line class="cls-6" x1="418.92" y1="162.11" x2="418.92" y2="162.25"/>
    <path class="cls-6" d="M207.61,96.96s0,.07.02.1"/>
    <path class="cls-6" d="M207.74,97.16s.02.05.05.06"/>
    <line class="cls-6" x1="426.66" y1="207.89" x2="426.53" y2="208.08"/>
    <line class="cls-6" x1="418.19" y1="214.41" x2="418.44" y2="214.33"/>
    <path class="cls-6" d="M223.06,140.5s0-.02,0-.03"/>
    <path class="cls-6" d="M422.46,162.25c0-.05,0-.1,0-.15"/>
    <path class="cls-6" d="M422.6,184.58s-.04-.01-.05-.02c-.05,0-.1-.01-.15-.02-.19-.02-.39-.02-.58-.03-.77-.03-1.53-.05-2.3-.06-3.04-.06-6.08-.09-9.12-.12-4.07-.04-8.13-.06-12.2-.09-8.13-.05-16.27-.08-24.4-.1-2,0-4-.01-5.99-.02-2.07,0-4.14-.01-6.21-.02-2.01,0-4.02,0-6.04-.01-2.05,0-4.11,0-6.16-.01-2.02,0-4.03,0-6.05,0-2.05,0-4.11,0-6.16,0-4.07,0-8.14,0-12.2,0"/>
    <path class="cls-6" d="M325,184.07c-8.5,0-17,.01-25.5.03-2.15,0-4.29,0-6.44.01-2.1,0-4.21.01-6.31.02-2.16,0-4.32.01-6.47.02-2.09,0-4.19.01-6.28.02-8.5.03-17,.06-25.5.11-4.25.03-8.5.06-12.75.1-3.18.03-6.35.06-9.53.13-.8.02-1.6.03-2.4.07-.2,0-.41.02-.61.03-.05,0-.1,0-.15.02,0,0-.05,0-.05.02"/>
    <path class="cls-6" d="M325,184.07c.03,2.69.07,5.38.16,8.06.05,1.34.1,2.69.2,4.03.05.67.1,1.34.18,2.01.03.27.07.55.12.82.04.2.07.39.13.59.04.12.07.24.14.35.03.05.08.12.15.12"/>
    <path class="cls-6" d="M240.14,174.68c-.17,1.41-.59,2.93-1.34,4.16-.37.61-.86,1.21-1.48,1.6-.65.4-1.38.52-2.09.18-1.3-.62-1.98-2.42-2.3-3.6-.37-1.38-.52-2.93-.51-4.36"/>
    <line class="cls-6" x1="418.44" y1="214.33" x2="425.82" y2="208.71"/>
    <path class="cls-6" d="M324.99,183.94s0,0,0,0c0,0,0,0,0,.01,0,0,0,.01,0,.02,0,.01,0,.02,0,.03,0,.02,0,.04,0,.07"/>
    <path class="cls-6" d="M326.08,200.05c-9.47,0-18.91,1.28-28.04,3.81-9.14,2.53-17.88,6.27-26.01,11.14-4.08,2.44-7.95,5.12-11.66,8.09-3.71,2.96-7.18,6.14-10.45,9.58-3.28,3.44-6.28,7.06-9.06,10.91-1.4,1.95-2.74,3.93-4,5.97-1.23,1.98-2.39,4-3.49,6.07"/>
    <line class="cls-6" x1="234.89" y1="173.01" x2="233.97" y2="173.01"/>
    <path class="cls-6" d="M233.97,172.69c-.36,0-1.19,0-1.55-.04"/>
    <line class="cls-6" x1="412.63" y1="172.95" x2="413.51" y2="172.95"/>
    <path class="cls-6" d="M240.05,173.01s0,0,0,0c0,0,.01,0,.02,0,0,0,.02,0,.02,0,.02,0,.03,0,.05,0,.03,0,.06,0,.1,0"/>
    <line class="cls-6" x1="426.53" y1="208.08" x2="425.82" y2="208.71"/>
    <path class="cls-6" d="M410.64,179.64c.59,0,1.06-.36,1.39-.78.33-.42.59-.96.77-1.46"/>
    <path class="cls-6" d="M412.8,177.41c.1,0,.31.02.42.05.14.03.26.08.39.15.13.06.24.14.34.23.15.14.14.16.25.33"/>
    <path class="cls-6" d="M413.51,172.95c.02-1.27-.1-2.69-.42-3.93-.16-.61-.4-1.29-.75-1.83-.34-.53-.86-1.06-1.58-1.04"/>
    <path class="cls-6" d="M412.8,177.41c.49-1.36.69-3.03.71-4.46"/>
    <path class="cls-6" d="M233.97,172.69c0,.11,0,.21,0,.32"/>
    <path class="cls-6" d="M240.25,173.02c0,.56-.03,1.11-.1,1.66"/>
  </g>
  <g id="Make2D::可见线::曲线">
    <path class="cls-6" d="M415.51,211.57c.96,1.14,2.49,2.83,3.53,3.9"/>
    <path class="cls-6" d="M240.61,212.74s0,0,0,0c0,0-.01.01-.02.02-.03.02-.05.05-.08.07-.11.1-.22.2-.33.3-.15.13-.29.26-.44.39-.29.26-.58.52-.88.79-.58.52-1.17,1.05-1.75,1.57"/>
    <path class="cls-6" d="M422.18,184.41s.06,0,.09,0c.01,0,.03,0,.04,0,0,0,.01,0,.02,0,0,0,.02,0,.02,0"/>
    <line class="cls-6" x1="422.18" y1="184.41" x2="422.18" y2="184.36"/>
    <path class="cls-6" d="M420.97,217.83c.05.02.02-.05,0-.08-.07-.13-.16-.25-.25-.36-.11-.15-.23-.29-.35-.44-.23-.29-.47-.57-.71-.86-.48-.57-.97-1.13-1.47-1.69"/>
    <path class="cls-6" d="M431.17,213.78s-.01-.06-.03-.09c-.03-.05-.06-.11-.09-.16-.12-.18-.24-.36-.37-.53-.19-.25-.38-.49-.57-.73-.38-.48-.78-.95-1.17-1.42-.79-.94-1.6-1.86-2.41-2.78"/>
    <path class="cls-6" d="M430.46,214.43s0-.05,0-.07c-.02-.05-.05-.1-.08-.15-.12-.2-.25-.38-.39-.56-.19-.25-.38-.49-.57-.73-.39-.48-.78-.95-1.18-1.42-.79-.94-1.6-1.87-2.42-2.79"/>
    <line class="cls-6" x1="431.16" y1="213.8" x2="430.46" y2="214.43"/>
    <path class="cls-6" d="M416.44,213.03c-.36-.4-.71-.81-1.06-1.22-.18-.21-.35-.41-.52-.62-.08-.1-.17-.21-.25-.32-.06-.08-.13-.17-.18-.26-.01-.02-.02-.04-.03-.06,0,0,0-.02,0-.02"/>
    <path class="cls-6" d="M418.19,214.41c-.78-.87-1.56-1.74-2.36-2.59-.4-.43-.8-.85-1.21-1.27-.2-.21-.41-.42-.62-.62-.16-.16-.33-.32-.51-.46-.04-.03-.07-.06-.11-.08-.02,0-.03,0-.02.03"/>
    <line class="cls-6" x1="417.76" y1="200.37" x2="418.46" y2="199.74"/>
    <line class="cls-6" x1="410.76" y1="166.15" x2="410.76" y2="166.15"/>
    <path class="cls-6" d="M409.01,168.01s0,0,0,.01"/>
    <path class="cls-6" d="M237.41,172.07s0,0,0-.01"/>
    <path class="cls-6" d="M419.9,216.56s-.02-.02-.03-.03"/>
    <path class="cls-6" d="M237.04,172.06c.39-.11.78-.21,1.17-.3"/>
    <path class="cls-6" d="M238.32,173.09c-.39.09-.78.19-1.17.3"/>
    <path class="cls-6" d="M412.45,173.09c0-.45-.04-.89-.09-1.34"/>
    <line class="cls-6" x1="414.5" y1="210.59" x2="414.5" y2="210.59"/>
    <path class="cls-6" d="M223.04,163.43s0,.01,0,.02"/>
    <path class="cls-6" d="M413.2,208.91s0-.02,0-.03"/>
    <line class="cls-6" x1="236.26" y1="202.62" x2="236.59" y2="202.64"/>
    <path class="cls-6" d="M236.59,202.64s0,0-.01,0c-.01,0-.02.02-.03.03-.05.04-.09.08-.14.12-.19.16-.37.32-.56.49-.24.22-.49.43-.73.65-.49.43-.97.87-1.46,1.3-.97.87-1.94,1.74-2.91,2.61"/>
    <path class="cls-6" d="M418.44,214.33c.53.6,1.06,1.2,1.58,1.82.26.31.52.61.77.93.13.16.25.31.37.47.09.12.18.24.26.37.02.03.04.06.05.09,0,0,.01.03,0,.04"/>
    <line class="cls-6" x1="413.2" y1="208.88" x2="417.75" y2="200.38"/>
    <path class="cls-6" d="M413.2,208.88s.05,0,.06.01c.05.03.09.07.14.1.18.15.35.32.52.48.23.22.45.45.67.67.44.45.87.91,1.31,1.37.86.92,1.71,1.86,2.55,2.8"/>
    <path class="cls-6" d="M326.08,200.05c.86,0,1.73.01,2.59.03"/>
    <path class="cls-6" d="M326.47,200.07c-.13,0-.26,0-.4-.01"/>
    <path class="cls-6" d="M324.29,200.1s0,.03,0,.04"/>
    <path class="cls-6" d="M413.36,209.41c.07.23,1.22,1.57,1.36,1.74.48.56.96,1.12,1.45,1.67"/>
    <path class="cls-6" d="M324.12,200.09c.06,0,.11,0,.17,0"/>
    <path class="cls-6" d="M324.12,200.09c.78-.02,1.57-.03,2.35-.03"/>
    <path class="cls-6" d="M235.2,162.34s0,0,0,0"/>
    <line class="cls-6" x1="409.25" y1="172.08" x2="409.24" y2="174.27"/>
    <path class="cls-6" d="M237.03,172.14s0-.05,0-.07"/>
    <path class="cls-6" d="M410.38,162.19s-.05.04-.06.04c-.02,0-.05.01-.07.02"/>
    <line class="cls-6" x1="410.24" y1="162.25" x2="410.24" y2="162.7"/>
    <line class="cls-6" x1="413.36" y1="209.41" x2="413.2" y2="208.91"/>
    <path class="cls-6" d="M232.96,394.52c.29.15,1.47,1.39,1.67,1.61.53.56,1.05,1.14,1.56,1.72"/>
    <line class="cls-6" x1="223.18" y1="215.97" x2="222.55" y2="215.27"/>
    <path class="cls-6" d="M409.01,177.94c-.02.16-.04.31-.06.47"/>
    <line class="cls-6" x1="237.03" y1="172.52" x2="237.03" y2="172.14"/>
    <path class="cls-6" d="M237.59,179.53c-.03-.12-.05-.23-.08-.35"/>
    <line class="cls-6" x1="410.35" y1="172.52" x2="410.35" y2="173.25"/>
    <line class="cls-6" x1="235.19" y1="170.4" x2="235.2" y2="167.39"/>
    <line class="cls-6" x1="235.19" y1="178.39" x2="235.19" y2="175.59"/>
    <line class="cls-6" x1="410.23" y1="166.36" x2="410.23" y2="166.71"/>
    <line class="cls-6" x1="235.19" y1="175.61" x2="235.19" y2="178.39"/>
    <line class="cls-6" x1="235.2" y1="167.39" x2="235.2" y2="170.39"/>
    <path class="cls-6" d="M418.48,199.73s-.01,0-.02,0"/>
    <path class="cls-6" d="M237.04,172.06s-.04.01-.07.01"/>
    <path class="cls-6" d="M236.66,176.13c.22-.07.44-.15.66-.23"/>
    <path class="cls-6" d="M234.96,174.02c-.12-1.47.02-3.1.49-4.52"/>
    <path class="cls-6" d="M235.41,176.39c-.25-.78-.38-1.56-.45-2.37"/>
    <line class="cls-6" x1="418.48" y1="199.73" x2="418.82" y2="199.75"/>
    <path class="cls-6" d="M414.41,210.53s.07.04.09.05"/>
    <path class="cls-6" d="M417.76,200.37s0,0,0,0"/>
    <line class="cls-6" x1="421.45" y1="218.04" x2="420.97" y2="217.83"/>
    <line class="cls-6" x1="431.19" y1="213.45" x2="431.17" y2="213.78"/>
    <path class="cls-6" d="M421.48,218.04s-.02,0-.03,0"/>
    <path class="cls-6" d="M430.45,214.43s0,0,0,0"/>
    <path class="cls-6" d="M223.1,162.37c.36,0,.72,0,1.08,0,.18,0,.36,0,.54,0,.09,0,.18,0,.27,0,.07,0,.14,0,.21,0,.02,0,.03,0,.05,0,0,0,.01,0,.01,0"/>
    <path class="cls-6" d="M422.46,162.25c-1.26.27-8.9.46-10.15.5"/>
    <path class="cls-6" d="M418.92,162.25s.06-.01.09-.02c.02,0,.07-.02.07-.05"/>
    <path class="cls-6" d="M226.57,162.34s.07.03.09.04c.07.02.14.03.21.04.25.04.51.06.76.08.36.03.72.05,1.08.07.72.04,1.44.07,2.16.1,1.44.06,2.88.1,4.33.14"/>
    <path class="cls-6" d="M431.16,213.8s0-.01,0-.02"/>
    <path class="cls-6" d="M419.86,216.63c-.36-.29-1.43-1.43-1.75-1.76-.56-.61-1.12-1.22-1.67-1.84"/>
    <path class="cls-6" d="M223.1,155.74s-.04-.02-.05-.03"/>
    <path class="cls-6" d="M195.06,82.18c-.34-.01-.68-.03-1.02-.05"/>
    <path class="cls-6" d="M416.17,212.81c.77.87,1.55,1.73,2.34,2.57.4.42.79.84,1.2,1.26.13.13,1.07,1.11,1.26,1.19"/>
    <path class="cls-6" d="M223.04,155.69s0-.01,0-.01"/>
    <path class="cls-6" d="M422.64,162.17s-.06.05-.08.05c-.03.01-.06.02-.1.02"/>
    <path class="cls-6" d="M226.56,162.33s0,.01,0,.01"/>
    <path class="cls-6" d="M426.66,207.89c.79.9,1.58,1.8,2.35,2.71.39.46.77.92,1.15,1.38.19.23.37.47.55.71.13.17.25.34.36.52.03.05.06.1.09.15.01.03.03.05.03.08"/>
    <path class="cls-6" d="M231.67,220.49s0,0,0,0c0,0,0,0,0,0,.01,0,.02-.02.03-.03.04-.04.08-.08.13-.11.17-.15.34-.3.5-.45.22-.2.45-.4.67-.6l1.34-1.21c.89-.8,1.79-1.61,2.68-2.41"/>
    <line class="cls-6" x1="236.59" y1="202.64" x2="237.22" y2="203.34"/>
    <path class="cls-6" d="M230.75,207.85c-1.37,1.23-2.74,2.47-4.11,3.7-.68.62-1.37,1.24-2.05,1.85-.34.31-.68.62-1.02.93-.25.23-.51.46-.76.7-.06.06-.13.12-.19.18-.02.01-.03.03-.05.05,0,0-.01.01-.02.02"/>
    <path class="cls-6" d="M223.05,155.68h0"/>
    <path class="cls-6" d="M223.05,140.47c0-9.88-.82-22.83-5.14-32.22"/>
    <path class="cls-6" d="M230.56,207.7c.95-.85,1.89-1.7,2.84-2.55.47-.42.95-.85,1.42-1.27.24-.21.48-.42.71-.63.18-.16.36-.32.54-.48.04-.04.09-.08.13-.11.01,0,.02-.02.03-.03,0,0,0,0,.01,0"/>
    <line class="cls-6" x1="184.19" y1="67.33" x2="183.82" y2="67.33"/>
    <path class="cls-6" d="M410.38,162.7c1.09-.03,7.45-.21,8.54-.45"/>
    <line class="cls-6" x1="195.14" y1="82.18" x2="195.06" y2="82.18"/>
    <line class="cls-6" x1="235.87" y1="217.01" x2="235.87" y2="217.01"/>
    <path class="cls-6" d="M237.22,203.35s0,0,0,0"/>
    <path class="cls-6" d="M236.59,202.64h0"/>
    <path class="cls-6" d="M232.17,220.33s0,0,0,0c0,0,.02-.02.03-.02.04-.03.07-.06.11-.1.05-.04.1-.09.14-.13.1-.09.19-.17.29-.26.19-.17.38-.34.57-.52"/>
    <path class="cls-6" d="M195.64,82.02c-.17.21-.35.41-.56.59"/>
    <path class="cls-6" d="M201.41,80.81c-.4.62-1.07,1.07-1.71,1.38-.68.33-1.38.53-2.11.67"/>
    <line class="cls-6" x1="232.17" y1="220.33" x2="231.67" y2="220.49"/>
    <path class="cls-6" d="M222.57,214.94s.01-.01.01-.02c.02-.02.03-.03.05-.04.06-.06.12-.12.19-.17.25-.23.49-.45.74-.68.33-.3.66-.6,1-.91.67-.6,1.33-1.21,2-1.81,1.33-1.2,2.67-2.41,4.01-3.61"/>
    <path class="cls-6" d="M206.22,59.94c.1,6.16.21,12.33.38,18.49.08,3.08.18,6.16.3,9.24.06,1.54.13,3.08.22,4.62.06,1.08.13,2.17.25,3.24.03.3.07.6.12.9.02.09.04.19.06.28.02.06.03.11.06.17"/>
    <line class="cls-6" x1="222.55" y1="215.27" x2="222.57" y2="214.94"/>
    <path class="cls-6" d="M231.38,208.55c-1.37,1.23-2.74,2.47-4.11,3.7-.68.62-1.37,1.24-2.05,1.85-.34.31-.68.62-1.02.93-.26.23-.51.47-.77.7-.06.06-.13.12-.19.18-.02.01-.03.03-.05.04,0,0,0,0-.01.01,0,0,0,0,0,0"/>
    <path class="cls-6" d="M237.22,203.34s0,0,0,0c0,0,0,0,0,0-.01,0-.02.02-.03.03-.05.04-.09.08-.13.12-.19.16-.37.33-.56.49-.24.22-.49.43-.73.65-.49.43-.97.87-1.46,1.3-.97.87-1.94,1.74-2.91,2.61"/>
    <line class="cls-6" x1="422.64" y1="163.28" x2="422.36" y2="184.37"/>
    <path class="cls-6" d="M223.25,184.44s0,0,0,0"/>
    <path class="cls-6" d="M422.36,184.38s-.02,0-.02,0c0,0-.01,0-.02,0-.01,0-.03,0-.04,0-.03,0-.06,0-.09,0"/>
    <path class="cls-6" d="M329,200.1c.29,0,.57.01.86.02"/>
    <line class="cls-6" x1="235.2" y1="162.34" x2="235.2" y2="162.83"/>
    <line class="cls-6" x1="231.67" y1="220.49" x2="223.18" y2="215.97"/>
    <line class="cls-6" x1="240.82" y1="212.26" x2="240.61" y2="212.74"/>
    <line class="cls-6" x1="237.22" y1="203.34" x2="240.82" y2="212.26"/>
    <line class="cls-6" x1="324.87" y1="200.12" x2="325.04" y2="200.13"/>
    <path class="cls-6" d="M237.02,215.67c.63-.57,1.26-1.14,1.9-1.71.32-.28.63-.57.95-.85.16-.14.32-.28.47-.43.12-.11.24-.22.36-.32.03-.03.06-.05.09-.08,0,0,.01-.01.02-.02,0,0,0-.01,0,0"/>
    <path class="cls-6" d="M369.82,312.37c.02-11.23-4.79-21.92-13.19-29.37"/>
    <path class="cls-6" d="M400.1,312.16c0-.41-.03-.81-.1-1.21"/>
    <path class="cls-6" d="M235.67,217.19c.07-.06.13-.12.2-.18"/>
    <path class="cls-6" d="M370.38,312.95c.02-11.41-4.91-22.25-13.51-29.74"/>
    <path class="cls-6" d="M423.83,391.5c.07.04,0,.19-.03.23-.1.19-.25.38-.39.55-.2.24-.4.47-.61.7-.42.45-.86.89-1.3,1.32-.89.86-1.8,1.69-2.74,2.5"/>
    <path class="cls-6" d="M414.88,399.09c-.02.06-.06.16.03.17.05,0,.1-.01.14-.03.08-.03.15-.07.23-.11.18-.1.35-.21.52-.32.34-.23.66-.47.98-.72.64-.5,1.27-1.01,1.88-1.54"/>
    <path class="cls-6" d="M288.95,312.93c-.01,11.13,4.41,21.8,12.28,29.67,7.87,7.87,18.55,12.28,29.67,12.3,11.13.02,21.81-4.37,29.71-12.21,7.9-7.84,12.36-18.5,12.38-29.63"/>
    <path class="cls-6" d="M372.99,313.06c.02-11.14-4.4-21.82-12.27-29.69s-18.55-12.3-29.69-12.31c-11.13-.02-21.82,4.37-29.72,12.22-7.9,7.85-12.35,18.51-12.37,29.65"/>
    <path class="cls-6" d="M418.97,409.37c.57.03,2.91-1.77,3.25-2.04,1.02-.79,2.01-1.61,2.99-2.45"/>
    <path class="cls-6" d="M292.06,360.11c-1.3,2.37-3.98,3.63-6.63,3.13s-4.7-2.63-5.06-5.31"/>
    <path class="cls-6" d="M418.25,408.63s.06.04.1.04c.06,0,.12-.02.18-.03.21-.07.43-.19.62-.3.28-.16.56-.34.83-.53.54-.37,1.06-.76,1.58-1.16,1.04-.8,2.04-1.63,3.03-2.48"/>
    <path class="cls-6" d="M292.83,357.11c0,1.05-.27,2.08-.77,2.99"/>
    <path class="cls-6" d="M425.22,404.88c1.42-1.22,2.81-2.48,4.16-3.79.67-.65,1.33-1.32,1.97-2.01.25-.26,1.64-1.77,1.67-2.24"/>
    <path class="cls-6" d="M283.67,274.17c-1.44-.79-2.51-2.1-2.99-3.67"/>
    <path class="cls-6" d="M424.58,404.18c1.44-1.23,2.83-2.51,4.19-3.83.68-.66,1.34-1.33,1.99-2.03.32-.35.64-.7.93-1.07.2-.25.42-.53.58-.82.04-.08.08-.16.1-.25,0-.04.02-.1-.02-.14"/>
    <path class="cls-6" d="M292.94,268.69c0,2.21-1.17,4.26-3.08,5.38-1.9,1.12-4.26,1.16-6.2.1"/>
    <path class="cls-6" d="M419.42,394.66c.44-.38.88-.75,1.34-1.1.23-.18.46-.35.7-.51.12-.08.24-.16.37-.23.08-.05.19-.11.29-.13.05,0,.09,0,.08.05"/>
    <path class="cls-6" d="M380.91,271.77c-.85,1.55-2.32,2.67-4.03,3.08-1.72.42-3.53.09-5-.9"/>
    <path class="cls-6" d="M416.03,398.11c.17-.4,1.32-1.53,1.61-1.81.58-.56,1.18-1.11,1.79-1.63"/>
    <path class="cls-6" d="M381.68,268.77c0,1.05-.27,2.08-.78,3"/>
    <path class="cls-6" d="M418.66,396.54c.88-.76,1.74-1.54,2.58-2.36.42-.41.83-.82,1.22-1.25.2-.21.39-.43.57-.66.08-.1.16-.2.23-.31.04-.07.08-.13.1-.21.03-.13-.07-.12-.16-.09"/>
    <path class="cls-6" d="M381.49,357.3c0,2.21-1.18,4.26-3.09,5.38-1.91,1.12-4.27,1.15-6.2.09"/>
    <line class="cls-6" x1="416.32" y1="398.13" x2="416.03" y2="398.11"/>
    <path class="cls-6" d="M372.2,362.77c-.87-.47-1.61-1.15-2.17-1.96"/>
    <path class="cls-6" d="M386.26,314.27c.14.86.43,1.68.85,2.44"/>
    <path class="cls-6" d="M423.68,391.51s.11-.03.15,0"/>
    <path class="cls-6" d="M423.19,391.67c-.45.14-1.55.99-1.89,1.25-.6.47-1.18.95-1.76,1.45"/>
    <path class="cls-6" d="M401.14,311.86c-.3-1.86-1.29-3.54-2.78-4.7"/>
    <line class="cls-6" x1="423.19" y1="391.67" x2="423.68" y2="391.51"/>
    <path class="cls-6" d="M432.99,397.17c-.03.45-1.39,1.92-1.63,2.18-.62.67-1.27,1.32-1.92,1.96-1.31,1.28-2.66,2.5-4.05,3.7"/>
    <line class="cls-6" x1="252.04" y1="312.3" x2="252.01" y2="312.77"/>
    <path class="cls-6" d="M433.01,396.84s0-.06-.03-.09"/>
    <line class="cls-6" x1="433.01" y1="396.84" x2="432.99" y2="397.17"/>
    <path class="cls-6" d="M218.53,311.93c-.02,29.66,11.79,58.09,32.77,79.05,20.98,20.95,49.43,32.72,79.08,32.76,29.65.04,58.13-11.64,79.18-32.53,21.05-20.89,32.95-49.28,33.03-78.95"/>
    <path class="cls-6" d="M422.2,392.74s0,.04-.02.06"/>
    <line class="cls-6" x1="423.83" y1="391.5" x2="432.33" y2="396.03"/>
    <path class="cls-6" d="M432.35,396.05s-.02-.01-.03-.02"/>
    <line class="cls-6" x1="432.35" y1="396.05" x2="432.99" y2="396.75"/>
    <line class="cls-6" x1="414.67" y1="399.55" x2="414.88" y2="399.09"/>
    <line class="cls-6" x1="419.31" y1="409.39" x2="418.97" y2="409.37"/>
    <path class="cls-6" d="M414.65,399.7s.01-.11.03-.15"/>
    <path class="cls-6" d="M418.23,408.61s0,.02.02.03"/>
    <line class="cls-6" x1="418.23" y1="408.61" x2="414.65" y2="399.71"/>
    <path class="cls-6" d="M418.88,409.34s.06.03.09.04"/>
    <path class="cls-6" d="M280.08,267.6c0,.06,0,.11,0,.17"/>
    <line class="cls-6" x1="418.88" y1="409.34" x2="418.25" y2="408.63"/>
    <path class="cls-6" d="M419.54,394.37c-.84.72-1.66,1.47-2.46,2.24-.41.39-1.96,1.91-2.21,2.48"/>
    <path class="cls-6" d="M425.39,405.01c-.95.82-1.92,1.62-2.92,2.39-.34.26-2.61,2.02-3.17,1.99"/>
    <line class="cls-6" x1="230.23" y1="262.18" x2="230.2" y2="262.25"/>
    <path class="cls-6" d="M230.81,261.01c-.04.07-.07.15-.11.22"/>
    <line class="cls-6" x1="229.25" y1="264.26" x2="229.24" y2="264.26"/>
    <line class="cls-6" x1="233.38" y1="256.24" x2="233.38" y2="256.24"/>
    <path class="cls-6" d="M232.7,257.43c.22-.4.45-.79.68-1.19"/>
    <line class="cls-6" x1="233.77" y1="255.56" x2="233.77" y2="255.57"/>
    <line class="cls-6" x1="233.08" y1="256.77" x2="233.08" y2="256.78"/>
    <path class="cls-6" d="M232.35,258.08c-.18.33-.36.67-.54,1"/>
    <line class="cls-6" x1="232.13" y1="258.51" x2="232.12" y2="258.52"/>
    <path class="cls-6" d="M231.46,259.73c-.07.13-.13.26-.2.39"/>
    <line class="cls-6" x1="231.13" y1="260.37" x2="231.13" y2="260.37"/>
    <path class="cls-6" d="M232.45,257.87c-.33.61-.66,1.23-.99,1.85"/>
    <path class="cls-6" d="M237.82,400.2c-.89-1.21-3.41-4.02-4.51-5.04"/>
    <path class="cls-6" d="M232.47,257.88c.08-.15.16-.3.24-.45"/>
    <line class="cls-6" x1="233.59" y1="255.83" x2="233.61" y2="255.84"/>
    <path class="cls-6" d="M232.45,257.87c.19-.34.37-.68.56-1.02.05-.09.52-.93.58-1.01"/>
    <path class="cls-6" d="M236.74,250.65c-.28.44-.56.88-.84,1.32"/>
    <path class="cls-6" d="M236.74,250.65c.1-.15.19-.29.29-.43"/>
    <path class="cls-6" d="M237.03,250.22c-.05.07-.09.14-.14.21"/>
    <line class="cls-6" x1="235.9" y1="251.97" x2="235.91" y2="251.98"/>
    <path class="cls-6" d="M236.9,250.43c-.34.51-.67,1.03-1,1.55"/>
    <path class="cls-6" d="M235.9,251.97c-.25.4-.5.8-.75,1.21"/>
    <path class="cls-6" d="M235.15,253.18c-.04.07-.08.13-.12.2-.04.07-.08.13-.12.2"/>
    <line class="cls-6" x1="234.91" y1="253.58" x2="234.89" y2="253.64"/>
    <line class="cls-6" x1="236.13" y1="251.62" x2="236.14" y2="251.61"/>
    <path class="cls-6" d="M236.35,251.33c-.06.1-.13.2-.19.3"/>
    <line class="cls-6" x1="236.33" y1="251.32" x2="236.3" y2="251.37"/>
    <line class="cls-6" x1="236.11" y1="251.67" x2="236.12" y2="251.67"/>
    <line class="cls-6" x1="234.88" y1="253.65" x2="234.85" y2="253.72"/>
    <line class="cls-6" x1="235.77" y1="252.23" x2="235.78" y2="252.24"/>
    <line class="cls-6" x1="236.92" y1="250.42" x2="236.93" y2="250.42"/>
    <path class="cls-6" d="M236.92,250.42c.05-.07.09-.14.14-.21"/>
    <line class="cls-6" x1="234.43" y1="254.43" x2="234.43" y2="254.43"/>
    <path class="cls-6" d="M239.6,402.32s-.05,0-.06,0c-.05-.02-.09-.05-.14-.08-.18-.13-.34-.28-.49-.42-.21-.2-.42-.4-.63-.61-.41-.41-.82-.83-1.22-1.26-.8-.85-1.59-1.72-2.36-2.59"/>
    <path class="cls-6" d="M240.34,245.43c-.31.42-.61.85-.92,1.27"/>
    <path class="cls-6" d="M240.34,245.43c.11-.14.21-.28.32-.42"/>
    <path class="cls-6" d="M240.66,245.01c-.05.07-.1.13-.15.2"/>
    <path class="cls-6" d="M240.51,245.21c-.37.49-.73.99-1.09,1.49"/>
    <line class="cls-6" x1="238.61" y1="247.86" x2="238.61" y2="247.86"/>
    <path class="cls-6" d="M238.61,247.86c-.04.06-.09.13-.13.19s-.09.12-.13.19"/>
    <line class="cls-6" x1="238.35" y1="248.24" x2="238.33" y2="248.3"/>
    <line class="cls-6" x1="239.68" y1="246.35" x2="239.69" y2="246.36"/>
    <line class="cls-6" x1="239.7" y1="246.37" x2="239.71" y2="246.36"/>
    <line class="cls-6" x1="239.68" y1="246.35" x2="239.69" y2="246.35"/>
    <path class="cls-6" d="M239.89,246.06c-.07.09-.14.19-.21.29"/>
    <line class="cls-6" x1="239.89" y1="246.06" x2="239.87" y2="246.11"/>
    <line class="cls-6" x1="239.13" y1="247.14" x2="239.14" y2="247.14"/>
    <path class="cls-6" d="M239.67,246.4s0,0,0,0"/>
    <path class="cls-6" d="M239.15,247.15c-.2.29-.4.57-.6.86"/>
    <line class="cls-6" x1="240.55" y1="245.19" x2="240.56" y2="245.2"/>
    <path class="cls-6" d="M237.58,249.44c.04-.06.08-.13.13-.19.02-.03.04-.06.06-.09.02-.03.04-.06.06-.09"/>
    <path class="cls-6" d="M237.88,248.93c-.09.12-.16.24-.24.36"/>
    <path class="cls-6" d="M379.63,354.89c0-.86-.18-1.72-.53-2.51"/>
    <path class="cls-6" d="M379.82,267.69c0-1.89-.86-3.67-2.34-4.84"/>
    <path class="cls-6" d="M292.42,267.61c0-.75-.14-1.5-.41-2.21"/>
    <path class="cls-6" d="M332.3,200.21h.35"/>
    <path class="cls-6" d="M292.3,265.91c.43.86.65,1.81.65,2.78"/>
    <path class="cls-6" d="M228.58,265.71s-.02.04-.03.06"/>
    <path class="cls-6" d="M292.81,323.23c2.51,9.21,8.29,17.19,16.25,22.46,7.96,5.27,17.55,7.48,27.01,6.23,9.47-1.25,18.16-5.88,24.48-13.04,6.31-7.16,9.81-16.37,9.83-25.92"/>
    <path class="cls-6" d="M388.55,318.56c2.35,2.19,5.85,2.65,8.69,1.14,2.84-1.51,4.42-4.65,3.9-7.84"/>
    <path class="cls-6" d="M231.93,393.37c-.07-.03-.07.01-.04.07.02.06.05.11.09.16.05.09.11.17.17.25.12.17.25.34.37.5.26.33.52.65.78.97.53.64,1.08,1.27,1.63,1.9"/>
    <line class="cls-6" x1="280.36" y1="357.94" x2="280.06" y2="355.72"/>
    <path class="cls-6" d="M280.36,357.94c-.04-.28-.06-.56-.06-.85"/>
    <line class="cls-6" x1="233.59" y1="255.83" x2="233.59" y2="255.83"/>
    <line class="cls-6" x1="397.25" y1="306.29" x2="398.36" y2="307.16"/>
    <line class="cls-6" x1="331.25" y1="200.17" x2="332.28" y2="200.21"/>
    <line class="cls-6" x1="333.38" y1="200.25" x2="334.78" y2="200.3"/>
    <line class="cls-6" x1="227.91" y1="267.25" x2="228.25" y2="266.46"/>
    <path class="cls-6" d="M292.69,355.79c.09.44.14.88.14,1.32"/>
    <path class="cls-6" d="M380.17,353.45c.86,1.1,1.32,2.46,1.32,3.85"/>
    <path class="cls-6" d="M378.43,263.27c2.01,1.1,3.25,3.21,3.25,5.5"/>
    <line class="cls-6" x1="291.79" y1="264.88" x2="292.26" y2="265.84"/>
    <path class="cls-6" d="M291.27,312.83c.05,3.3.51,6.58,1.38,9.76"/>
    <path class="cls-6" d="M221.79,397.37c-.01.25,1,1.56,1.11,1.71.42.54.85,1.07,1.28,1.6.87,1.05,1.76,2.09,2.66,3.12"/>
    <path class="cls-6" d="M252.04,312.78c0-.16,0-.32,0-.49"/>
    <path class="cls-6" d="M230.04,262.57s.02-.04.03-.06"/>
    <path class="cls-6" d="M230.04,262.57s0,0,0,0"/>
    <line class="cls-6" x1="229.19" y1="264.38" x2="229.18" y2="264.38"/>
    <path class="cls-6" d="M230.07,262.5c-.1.2-.2.41-.3.61"/>
    <line class="cls-6" x1="228.48" y1="265.94" x2="228.48" y2="265.94"/>
    <line class="cls-6" x1="228.66" y1="265.55" x2="228.66" y2="265.54"/>
    <line class="cls-6" x1="228.4" y1="266.14" x2="228.39" y2="266.14"/>
    <line class="cls-6" x1="228.25" y1="266.47" x2="228.25" y2="266.46"/>
    <path class="cls-6" d="M228.41,266.16c-.05.1-.09.21-.14.31"/>
    <path class="cls-6" d="M235.15,253.18c-.22.37-.45.74-.66,1.1"/>
    <line class="cls-6" x1="236.91" y1="250.44" x2="236.92" y2="250.44"/>
    <path class="cls-6" d="M236.15,251.62s-.02.03-.03.05"/>
    <path class="cls-6" d="M235.64,252.44c-.16.25-.31.5-.46.75"/>
    <line class="cls-6" x1="236.12" y1="251.67" x2="236.13" y2="251.68"/>
    <path class="cls-6" d="M235.78,252.24l-.13.21"/>
    <line class="cls-6" x1="236.11" y1="251.67" x2="236.11" y2="251.67"/>
    <line class="cls-6" x1="235.09" y1="253.35" x2="235.11" y2="253.36"/>
    <path class="cls-6" d="M236.34,251.33c.1-.16.2-.32.31-.48"/>
    <path class="cls-6" d="M238.61,247.86c-.33.47-.65.95-.97,1.43"/>
    <line class="cls-6" x1="239.15" y1="247.15" x2="239.15" y2="247.15"/>
    <path class="cls-6" d="M249.21,234.47s-.02.03-.03.04"/>
    <path class="cls-6" d="M292.73,322.91c2.57,9.12,8.36,16.99,16.29,22.17,7.93,5.18,17.46,7.32,26.84,6.04,9.38-1.28,17.99-5.9,24.24-13.02,6.25-7.12,9.7-16.26,9.72-25.73"/>
    <path class="cls-6" d="M388.05,318.05c2.25,1.73,5.3,2.04,7.85.79,2.55-1.25,4.19-3.83,4.19-6.68"/>
    <path class="cls-6" d="M222.5,396.71s-.01.06,0,.08c.02.06.04.12.07.17.12.23.26.43.41.64.2.28.4.55.61.83.42.54.85,1.08,1.29,1.61.87,1.06,1.77,2.1,2.67,3.13"/>
    <line class="cls-6" x1="360.87" y1="239.93" x2="360.87" y2="239.93"/>
    <path class="cls-6" d="M280.32,356.71c.99,2.84,3.88,4.55,6.84,4.05,2.96-.49,5.15-3.05,5.15-6.06"/>
    <path class="cls-6" d="M369.33,359.47c1.81,1.62,4.41,2.02,6.63,1.04,2.22-.99,3.66-3.18,3.67-5.62"/>
    <path class="cls-6" d="M371.06,273.3c1.91.87,4.14.71,5.9-.43,1.77-1.13,2.84-3.08,2.85-5.19"/>
    <path class="cls-6" d="M280.54,269.94c1.12,2.73,4.01,4.28,6.9,3.72,2.89-.57,4.98-3.09,4.99-6.04"/>
    <path class="cls-6" d="M292.41,360.32c1.77-3.22.58-7.26-2.64-9.02-3.22-1.76-7.27-.59-9.04,2.63"/>
    <path class="cls-6" d="M281.08,354.1c1.26-2.29,3.81-3.55,6.39-3.18,2.58.38,4.67,2.32,5.22,4.87"/>
    <path class="cls-6" d="M283.48,274.53c3.23,1.76,7.27.59,9.05-2.64,1.77-3.23.59-7.27-2.64-9.04"/>
    <path class="cls-6" d="M369.56,265.57c-1.78,3.23-.59,7.28,2.65,9.05,3.23,1.76,7.29.58,9.06-2.65"/>
    <path class="cls-6" d="M381.27,271.97c1.78-3.23.59-7.29-2.65-9.05-3.23-1.76-7.29-.58-9.06,2.65"/>
    <path class="cls-6" d="M372.02,363.14c3.22,1.76,7.28.6,9.06-2.62,1.78-3.23.59-7.27-2.64-9.04"/>
    <path class="cls-6" d="M378.45,351.48c-3.22-1.76-7.28-.6-9.06,2.62-1.78,3.23-.59,7.27,2.63,9.04"/>
    <path class="cls-6" d="M401.66,311.81c-.34-2.1-1.51-3.98-3.24-5.22-1.73-1.24-3.88-1.75-5.99-1.41-2.1.34-3.98,1.5-5.23,3.22-1.25,1.72-1.76,3.87-1.42,5.98"/>
    <path class="cls-6" d="M230.2,262.25l-.15.32"/>
    <path class="cls-6" d="M230.23,262.18c-.05.11-.1.21-.15.32"/>
    <path class="cls-6" d="M230.7,261.23c-.16.32-.32.63-.47.95"/>
    <line class="cls-6" x1="233.62" y1="255.82" x2="233.62" y2="255.82"/>
    <line class="cls-6" x1="231.81" y1="259.08" x2="231.78" y2="259.16"/>
    <path class="cls-6" d="M231.26,260.11c-.05.09-.09.18-.14.26"/>
    <path class="cls-6" d="M235.63,252.44c-.25.4-.5.81-.74,1.21"/>
    <path class="cls-6" d="M234.27,254.66c-.04.07-.08.14-.13.21"/>
    <path class="cls-6" d="M239.42,246.7c-.27.39-.55.77-.81,1.16"/>
    <path class="cls-6" d="M238.35,248.31s0,0,0,0"/>
    <line class="cls-6" x1="239.3" y1="246.94" x2="239.31" y2="246.94"/>
    <path class="cls-6" d="M240.55,245.19c.05-.07.1-.13.15-.2"/>
    <path class="cls-6" d="M237.64,249.29c-.05.07-.09.14-.14.21"/>
    <path class="cls-6" d="M310.62,201.71h0"/>
    <polyline class="cls-6" points="356.38 282.78 356.43 282.82 356.47 282.86 356.51 282.89 356.55 282.93 356.59 282.97 356.63 283 356.67 283.04 356.72 283.07 356.76 283.11 356.8 283.14 356.84 283.18 356.87 283.21"/>
    <path class="cls-6" d="M398.36,307.16c-2.44-1.91-5.81-2.14-8.48-.57-2.68,1.57-4.12,4.62-3.62,7.68"/>
    <line class="cls-6" x1="221.8" y1="397.34" x2="222.5" y2="396.71"/>
    <path class="cls-6" d="M226.84,403.8c1.18,1.34,2.38,2.66,3.61,3.96.61.65,1.23,1.29,1.87,1.92.32.31.64.63.97.93.23.21.46.42.7.6.07.05.14.11.22.15.04.02.08.05.13.05"/>
    <path class="cls-6" d="M227.54,403.17c1.18,1.35,2.39,2.67,3.62,3.97.62.65,1.24,1.3,1.88,1.93.32.32.64.63.97.93.24.22.48.44.75.63.07.05.14.1.21.13.02.01.08.04.11.01"/>
    <path class="cls-6" d="M236.19,397.85c.4.45.79.91,1.18,1.37.19.23.38.47.57.7.09.12.18.24.27.36.07.09.14.19.19.29.01.02.05.09,0,.09"/>
    <line class="cls-6" x1="235.07" y1="410.78" x2="234.38" y2="411.41"/>
    <line class="cls-6" x1="238.08" y1="400.65" x2="238.09" y2="400.65"/>
    <path class="cls-6" d="M239.59,402.27s.01.03,0,.05"/>
    <path class="cls-6" d="M239.44,401.77c-.1-.32-1.26-1.72-1.46-1.96-.52-.63-1.05-1.25-1.59-1.86"/>
    <line class="cls-6" x1="239.44" y1="401.77" x2="239.59" y2="402.27"/>
    <path class="cls-6" d="M234.01,411.4c-.05,0-.09-.03-.13-.05-.08-.04-.15-.1-.22-.15-.24-.18-.46-.38-.68-.59-.32-.29-.63-.6-.94-.9-.62-.61-1.22-1.24-1.82-1.87-1.2-1.27-2.37-2.55-3.52-3.86"/>
    <path class="cls-6" d="M234.34,411.42s.02,0,.03,0"/>
    <line class="cls-6" x1="234.34" y1="411.42" x2="234.01" y2="411.4"/>
    <path class="cls-6" d="M238.4,400.67s-.02,0-.03-.01"/>
    <line class="cls-6" x1="239.6" y1="402.32" x2="235.08" y2="410.77"/>
    <path class="cls-6" d="M235.08,410.78s0,0,0,0"/>
    <line class="cls-6" x1="231.45" y1="393.16" x2="231.93" y2="393.37"/>
    <line class="cls-6" x1="221.77" y1="397.71" x2="221.79" y2="397.37"/>
    <path class="cls-6" d="M231.4,393.15s.03,0,.05,0"/>
    <path class="cls-6" d="M222.51,396.71s0,0-.01,0"/>
    <line class="cls-6" x1="222.51" y1="396.71" x2="231.4" y2="393.15"/>
    <path class="cls-6" d="M221.8,397.34s-.01.02-.01.03"/>
    <path class="cls-6" d="M236.39,397.95c-.71-.8-1.42-1.59-2.16-2.37-.25-.27-1.93-2.05-2.31-2.21"/>
    <path class="cls-6" d="M226.7,403.97c-.88-1-1.75-2.01-2.59-3.04-.42-.51-.84-1.03-1.25-1.56-.11-.15-1.1-1.42-1.08-1.66"/>
    <path class="cls-6" d="M197.08,79.46c-.18.41-.37.8-.57,1.19"/>
    <line class="cls-6" x1="192.77" y1="80.03" x2="192.28" y2="80.68"/>
    <path class="cls-6" d="M192.71,80c-.15.23-.29.45-.44.68"/>
    <path class="cls-6" d="M201.75,79.59c.03.44-.1.85-.34,1.22"/>
    <path class="cls-6" d="M228.68,265.48c.11-.25.21-.49.32-.73"/>
    <path class="cls-6" d="M329.81,200.13s0,.03,0,.05"/>
    <path class="cls-6" d="M201.18,79.01s0,0,0,0"/>
    <path class="cls-6" d="M239.66,246.4c-.07.09-.46.65-.53.74"/>
    <path class="cls-6" d="M239.91,246.09c.21-.3.43-.59.64-.89"/>
    <path class="cls-6" d="M185.61,93.67c.07,0,.13-.12.15-.17.03-.07.06-.15.08-.22.04-.15.08-.3.11-.46"/>
    <path class="cls-6" d="M189.81,78.91c-.06-.05-.12-.11-.17-.16"/>
    <path class="cls-6" d="M193.79,82.36c.42.11.85.19,1.28.25"/>
    <path class="cls-6" d="M193.13,82.79c-.12.05-.25.1-.37.16"/>
    <path class="cls-6" d="M329,200.12v-.02"/>
    <path class="cls-6" d="M220.51,291.07c-.83-8.86-1.29-17.72-1.49-26.61-.1-4.44-.13-8.88-.09-13.32.03-4.44.12-8.89.26-13.33.28-8.89.77-17.75,1.42-26.62.65-8.86,1.46-17.71,2.39-26.55"/>
    <path class="cls-6" d="M422.04,393.04c-.38.14-1.27.85-1.56,1.08-.5.4-.98.81-1.45,1.23-.47.42-.94.86-1.39,1.3-.27.27-1.07,1.07-1.25,1.43"/>
    <path class="cls-6" d="M425.57,216.4c.48,6.52.87,13.04,1.15,19.57.29,6.53.47,13.06.54,19.59"/>
    <path class="cls-6" d="M202.45,79.61c-.28-.07-.57-.14-.85-.19"/>
    <path class="cls-6" d="M229.41,263.81c.57-1.31,1.16-2.61,1.78-3.89"/>
    <path class="cls-6" d="M186.16,94.95c-.05.39-.1.78-.17,1.17-.03.19-.07.39-.12.58-.02.1-.05.19-.09.28-.02.06-.05.11-.09.17-.02.03-.04.06-.09.06"/>
    <path class="cls-6" d="M411.85,172.02c-.11,0-.19-.17-.22-.24-.05-.11-.07-.22-.09-.33"/>
    <line class="cls-6" x1="411.01" y1="175.56" x2="411.53" y2="175.87"/>
    <path class="cls-6" d="M411.81,168.7c.41,1.01.62,2.17.7,3.24"/>
    <line class="cls-6" x1="411.85" y1="172.02" x2="410.94" y2="172.03"/>
    <line class="cls-6" x1="235.18" y1="172.81" x2="238.26" y2="172.56"/>
    <path class="cls-6" d="M235.18,172.81c0,.45.04.89.11,1.33"/>
    <path class="cls-6" d="M411.73,174.13c-.02.59-.09,1.17-.2,1.74"/>
    <path class="cls-6" d="M412.45,173.09c-.14.11-.3.19-.47.27"/>
    <line class="cls-6" x1="236.66" y1="176.13" x2="237.26" y2="175.72"/>
    <path class="cls-6" d="M235.18,172.81c.17-.12.35-.21.54-.3"/>
    <path class="cls-6" d="M236.83,169.77c-.1.58-.16,1.15-.17,1.73"/>
    <path class="cls-6" d="M236.87,174.17c.11.59.26,1.17.45,1.74"/>
    <path class="cls-6" d="M237.97,179.26c-.72-.01-1.29-.52-1.68-1.04-.4-.54-.69-1.2-.89-1.83"/>
    <line class="cls-6" x1="238.23" y1="172.07" x2="236.97" y2="172.07"/>
    <path class="cls-6" d="M236.97,172.07c-.13,0-.21-.11-.26-.21-.05-.11-.06-.23-.06-.35"/>
    <path class="cls-6" d="M235.41,176.39c-.71-2.24-.69-4.65.04-6.89"/>
    <path class="cls-6" d="M235.45,169.5c.2-.61.49-1.25.87-1.78.37-.5.92-1.01,1.61-1.06"/>
    <path class="cls-6" d="M207.61,96.88s.04.07.07.07"/>
    <line class="cls-6" x1="207.68" y1="96.95" x2="186.72" y2="97.2"/>
    <line class="cls-6" x1="392.57" y1="161.35" x2="392.57" y2="161.53"/>
    <line class="cls-6" x1="252.89" y1="161.64" x2="252.89" y2="161.46"/>
    <path class="cls-6" d="M238.03,166.66c-.12-.07-.24-.14-.36-.2"/>
    <path class="cls-6" d="M411.88,172.02c.17-.07.32-.15.47-.27"/>
    <path class="cls-6" d="M196.93,81.12c-.11,0-.2-.03-.3-.08-.09-.05-.16-.13-.16-.25"/>
    <line class="cls-6" x1="195.57" y1="79.72" x2="195.07" y2="82.6"/>
    <path class="cls-6" d="M193.79,82.36c.21-.17.39-.37.56-.59"/>
    <path class="cls-6" d="M195.23,80.41c.21-.39.4-.79.57-1.19"/>
    <path class="cls-6" d="M196.93,81.12c.56.05,1.11.05,1.67.02"/>
    <path class="cls-6" d="M197.6,82.86c-1.45.27-2.93.25-4.37-.06"/>
    <path class="cls-6" d="M197.6,82.86c-1.41.26-2.96.24-4.37-.06"/>
    <path class="cls-6" d="M193.23,82.81c-.89-.19-1.83-.51-2.6-1.01-.73-.47-1.5-1.25-1.47-2.24"/>
    <path class="cls-6" d="M411.09,169.71c.19.57.34,1.15.45,1.74"/>
    <line class="cls-6" x1="412.45" y1="173.09" x2="409.62" y2="173.31"/>
    <path class="cls-6" d="M410.92,176.08c.21-.05.41-.12.61-.21"/>
    <path class="cls-6" d="M411.73,174.13c0-.14.02-.28.06-.41.02-.09.09-.31.2-.36"/>
    <path class="cls-6" d="M410.92,176.08c.11-.58.17-1.16.2-1.75"/>
    <path class="cls-6" d="M410.77,173.77c-.37.1-.74.19-1.11.27"/>
    <path class="cls-6" d="M409.56,172.7c.37-.08.74-.17,1.11-.27"/>
    <path class="cls-6" d="M410.93,171.66c-.11-.59-.26-1.17-.45-1.74"/>
    <path class="cls-6" d="M409.95,166.61c.95.2,1.56,1.34,1.86,2.08"/>
    <line class="cls-6" x1="409.64" y1="173.77" x2="410.83" y2="173.76"/>
    <path class="cls-6" d="M410.83,173.76c.13,0,.21.12.25.22.04.12.05.23.05.35"/>
    <path class="cls-6" d="M411.81,168.7c1.09,2.69,1.09,5.7.02,8.39"/>
    <path class="cls-6" d="M411.83,177.09c-.19.47-.41.91-.73,1.31-.3.38-.72.74-1.23.81"/>
    <line class="cls-6" x1="186.62" y1="97.13" x2="207.61" y2="96.88"/>
    <path class="cls-6" d="M411.88,172.02s-.02,0-.04,0"/>
    <path class="cls-6" d="M411.09,169.71c-.2.06-.41.13-.61.21"/>
    <line class="cls-6" x1="411.09" y1="169.71" x2="410.54" y2="170.08"/>
    <path class="cls-6" d="M195.41,80.68c-.49,0-.97-.04-1.46-.11"/>
    <path class="cls-6" d="M410.77,173.77s.04,0,.06,0"/>
    <path class="cls-6" d="M195.41,77.27c-1.31,0-2.68.22-3.91.71-.61.24-1.22.56-1.74.97-.45.36-1.03.97-1.05,1.63"/>
    <path class="cls-6" d="M202.17,80.62c0-.67-.6-1.29-1.05-1.66-.52-.42-1.14-.74-1.76-.98-1.25-.49-2.63-.71-3.96-.71"/>
    <path class="cls-6" d="M234.92,397.23c.72.82,1.45,1.62,2.19,2.41.37.4.75.79,1.13,1.17.19.19.39.38.59.57.09.09.19.17.29.25.06.05.13.11.2.15.06.04.15.08.12-.01"/>
    <path class="cls-6" d="M234.7,397.35c-.59-.67-1.18-1.35-1.75-2.04-.29-.34-.57-.69-.84-1.05-.14-.18-.27-.35-.4-.54-.1-.14-.19-.27-.27-.42-.01-.02-.07-.14-.03-.15"/>
    <path class="cls-6" d="M422.18,392.8c-.15.36-1.12,1.33-1.37,1.58-.5.49-1.01.97-1.53,1.43-.52.46-1.05.92-1.6,1.35-.27.22-.55.43-.84.63-.14.09-.27.19-.41.27-.09.05-.18.1-.27.14-.11.04-.18.03-.13-.1"/>
    <path class="cls-6" d="M418.77,396.8c-.65.56-1.3,1.1-1.98,1.63-.34.26-.68.52-1.03.76-.18.12-.35.24-.54.35-.13.08-.26.15-.41.2-.04.01-.14.04-.16-.02"/>
    <path class="cls-6" d="M237.11,215.89c-.82.74-1.65,1.48-2.47,2.22-.41.37-.82.74-1.24,1.11-.21.19-.41.37-.62.56-.15.14-.31.28-.46.42-.04.03-.08.07-.12.1-.01,0-.02.02-.03.03,0,0-.02.01,0,0"/>
    <path class="cls-6" d="M414.5,210.59c.54.43,2.43,2.5,2.88,3,.46.51.92,1.03,1.37,1.56.23.26.45.53.67.79.11.13.22.27.32.41.06.08.13.16.18.25.01.02.03.04.03.06,0,0,0,.02,0,.02-.02,0-.02,0-.03-.01-.02-.01-.04-.03-.06-.04"/>
    <path class="cls-6" d="M425.82,208.71c-1.29-1.45-2.59-2.89-3.91-4.3-.66-.71-1.33-1.41-2.01-2.1-.34-.35-.68-.69-1.03-1.03-.26-.25-.52-.5-.79-.72-.07-.06-.14-.11-.22-.16-.02-.01-.07-.05-.1-.03"/>
    <path class="cls-6" d="M426.53,208.08c-1.28-1.45-2.58-2.88-3.91-4.29-.66-.71-1.33-1.41-2.01-2.1-.34-.34-.68-.69-1.03-1.02-.25-.24-.49-.47-.76-.7-.07-.06-.15-.12-.23-.18-.03-.02-.08-.06-.12-.06"/>
    <line class="cls-6" x1="223.05" y1="163.45" x2="223.25" y2="184.45"/>
    <path class="cls-6" d="M196.47,80.78s.01-.09.04-.13"/>
    <path class="cls-6" d="M193.94,81.31c.1.03.19.07.28.13.07.05.18.14.18.24"/>
    <line class="cls-6" x1="194.41" y1="80.63" x2="194.39" y2="81.68"/>
    <path class="cls-6" d="M194.39,81.68s-.01.07-.04.1"/>
    <line class="cls-6" x1="223.25" y1="184.44" x2="223.04" y2="163.43"/>
    <line class="cls-6" x1="422.36" y1="184.37" x2="422.36" y2="184.38"/>
    <path class="cls-6" d="M198.16,81.82c-.56.04-1.11.03-1.67-.02"/>
    <path class="cls-6" d="M240.05,173.01c0-1.3-.2-2.65-.63-3.88-.22-.63-.49-1.21-.88-1.76-.29-.42-.9-1.13-1.53-1.15"/>
    <path class="cls-6" d="M193.94,81.31c-.57-.17-1.12-.38-1.66-.62"/>
    <path class="cls-6" d="M408.98,168.08c-.86,1.84-1.11,4.17-.93,6.15.09,1.03.3,2.09.68,3.06.19.49.41.96.72,1.4.2.29.43.57.73.77.14.09.29.18.47.18"/>
    <path class="cls-6" d="M237.09,179.68c.62-.01,1.21-.71,1.5-1.13.38-.54.64-1.12.85-1.73.42-1.21.61-2.54.61-3.81"/>
    <path class="cls-6" d="M228.76,265.34c.18-.44.37-.88.56-1.31"/>
    <path class="cls-6" d="M195.64,82.02c.09-.11.28-.17.4-.19.15-.03.3-.04.45-.03"/>
    <line class="cls-6" x1="410.22" y1="172.55" x2="410.22" y2="173.91"/>
    <line class="cls-6" x1="410.2" y1="179.11" x2="410.2" y2="179.48"/>
    <line class="cls-6" x1="235.2" y1="172.8" x2="235.2" y2="173.19"/>
    <path class="cls-6" d="M408.94,167.6c.02.15.04.3.06.45"/>
    <line class="cls-6" x1="237.03" y1="174.32" x2="237.03" y2="172.66"/>
    <path class="cls-6" d="M237.64,166.71c.06-.26.14-.51.22-.76"/>
    <path class="cls-6" d="M237.1,175.83c-.03-.51-.05-1.01-.07-1.52"/>
    <path class="cls-6" d="M422.6,184.58c.8,7.16,1.52,14.33,2.14,21.51"/>
    <path class="cls-6" d="M328.67,200.09c2.07.05,4.14.16,6.21.34"/>
    <path class="cls-6" d="M231.19,259.92c.7-1.45,1.42-2.89,2.17-4.31"/>
    <path class="cls-6" d="M231.19,259.92c4.22-8.74,9.64-16.89,16.08-24.15,6.45-7.28,13.86-13.62,22.04-18.88,8.19-5.26,17.03-9.35,26.34-12.19,9.3-2.84,18.93-4.39,28.65-4.6"/>
    <line class="cls-6" x1="410.38" y1="162.19" x2="410.38" y2="162.7"/>
    <line class="cls-6" x1="410.37" y1="166.28" x2="410.37" y2="166.77"/>
    <line class="cls-6" x1="235.19" y1="173.12" x2="235.19" y2="172.8"/>
    <line class="cls-6" x1="235.2" y1="162.83" x2="235.2" y2="162.33"/>
    <path class="cls-6" d="M223.05,155.71s0-.01,0-.02"/>
    <path class="cls-6" d="M223.04,162.31c0-2.21,0-4.43,0-6.64"/>
    <path class="cls-6" d="M223.04,162.31s.03-.02.04-.03c.03-.01.06-.02.09-.03.11-.03.22-.04.33-.06.41-.05.83-.08,1.24-.11.67-.05,1.35-.08,2.02-.11.93-.04,1.86-.08,2.79-.11,2.6-.09,5.2-.15,7.81-.21,3.53-.08,7.06-.14,10.6-.19,8.32-.13,16.64-.21,24.96-.28,16.64-.14,33.28-.2,49.92-.21,8.32,0,16.65,0,24.97.02,8.32.02,16.64.06,24.95.11,8.32.05,16.64.13,24.96.24,3.57.05,7.14.11,10.71.18,2.62.05,5.23.11,7.85.2.93.03,1.85.06,2.78.11.66.03,1.33.06,1.99.11.4.03.8.06,1.19.11.1.01.2.03.3.06.02,0,.1.02.1.06"/>
    <path class="cls-6" d="M198.16,81.82c.17-.22.31-.44.44-.68"/>
    <line class="cls-6" x1="198.16" y1="81.82" x2="197.79" y2="81.16"/>
    <path class="cls-6" d="M186.72,97.2s.08-.04.1-.07"/>
    <path class="cls-6" d="M186.62,97.13s.05.07.09.07"/>
    <path class="cls-6" d="M223.1,155.74v6.63"/>
    <path class="cls-6" d="M193.01,77.28c1.33.52,3,.7,4.4.7"/>
    <path class="cls-6" d="M197.41,77.97c.77,0,1.52-.05,2.28-.17"/>
    <path class="cls-6" d="M223.04,155.69c0-5.07,0-10.15.01-15.22"/>
    <path class="cls-6" d="M421.3-24.28c.82,31.07,1.2,62.14,1.34,93.22.15,31.08.07,62.16,0,93.23"/>
    <path class="cls-6" d="M207.79,97.22c-.08-.04-.12-.09-.15-.16"/>
    <path class="cls-6" d="M325.04,200.13c1.59-.04,3.18-.03,4.77,0"/>
    <path class="cls-6" d="M329.62,200.12s0,.03,0,.05"/>
    <path class="cls-6" d="M324.87,200.12c-20.36.45-40.17,6.7-57.1,18.01-16.93,11.32-30.28,27.23-38.45,45.89"/>
    <path class="cls-6" d="M291.43,312.83c0,3.51.46,7.01,1.39,10.4"/>
    <path class="cls-6" d="M387.1,316.71c.39.7.86,1.3,1.45,1.85"/>
    <path class="cls-6" d="M280.73,353.93c-1.77,3.22-.58,7.26,2.64,9.02,3.22,1.76,7.27.59,9.03-2.63"/>
    <path class="cls-6" d="M289.88,262.85c-3.23-1.76-7.27-.58-9.04,2.64-1.77,3.23-.59,7.27,2.64,9.04"/>
    <path class="cls-6" d="M280.41,268.67c0-2.21,1.17-4.26,3.08-5.38,1.9-1.12,4.26-1.16,6.2-.1"/>
    <path class="cls-6" d="M289.69,263.19c1.13.62,2.04,1.57,2.61,2.72"/>
    <path class="cls-6" d="M369.12,268.76c0-1.05.27-2.08.78-3"/>
    <path class="cls-6" d="M369.89,265.76c1.67-3.04,5.5-4.15,8.54-2.48"/>
    <path class="cls-6" d="M378.24,351.81c.75.41,1.41.97,1.93,1.64"/>
    <path class="cls-6" d="M368.94,357.28c0-2.21,1.18-4.26,3.09-5.38,1.91-1.12,4.27-1.15,6.21-.09"/>
    <path class="cls-6" d="M385.78,314.38c.34,2.1,1.51,3.98,3.24,5.22s3.88,1.75,5.98,1.41c2.1-.34,3.98-1.5,5.23-3.22,1.25-1.72,1.76-3.87,1.42-5.98"/>
    <path class="cls-6" d="M223.43,312.15c-.02,28.4,11.28,55.61,31.37,75.67,20.09,20.06,47.32,31.33,75.7,31.37,28.38.04,55.65-11.14,75.8-31.14,20.15-20,31.54-47.18,31.62-75.58"/>
    <path class="cls-6" d="M437.92,312.48c.08-28.44-11.2-55.71-31.29-75.82-20.1-20.11-47.37-31.4-75.79-31.44-28.41-.04-55.71,11.17-75.86,31.21-20.16,20.05-31.52,47.28-31.54,75.72"/>
    <path class="cls-6" d="M229.65,263.39c-.23.49-.47.99-.69,1.49"/>
    <path class="cls-6" d="M230.04,262.57c-.14.27-.26.54-.39.82"/>
    <line class="cls-6" x1="230.07" y1="262.51" x2="230.07" y2="262.5"/>
    <path class="cls-6" d="M229.78,263.12c-.2.42-.4.84-.59,1.26"/>
    <path class="cls-6" d="M228.96,264.88c-.1.22-.2.44-.3.67"/>
    <path class="cls-6" d="M229.24,264.26c-.34.73-.67,1.46-.99,2.2"/>
    <line class="cls-6" x1="232.7" y1="257.43" x2="232.72" y2="257.44"/>
    <path class="cls-6" d="M233.77,255.57c-.23.4-.46.8-.69,1.21"/>
    <path class="cls-6" d="M233.08,256.77c-.25.43-.49.87-.73,1.3"/>
    <line class="cls-6" x1="231.78" y1="259.16" x2="231.79" y2="259.16"/>
    <path class="cls-6" d="M232.12,258.52c-.37.68-.72,1.36-1.08,2.05"/>
    <line class="cls-6" x1="231.4" y1="259.89" x2="231.46" y2="259.73"/>
    <path class="cls-6" d="M233.59,255.83c-.03.07-.07.13-.11.2-.04.07-.07.13-.11.2-.07.13-.15.26-.22.4-.15.27-.3.53-.44.8"/>
    <path class="cls-6" d="M235.63,252.43c.08-.14.17-.27.25-.4.04-.07.08-.13.13-.2s.09-.13.13-.2"/>
    <line class="cls-6" x1="236.15" y1="251.62" x2="236.16" y2="251.63"/>
    <line class="cls-6" x1="236.34" y1="251.33" x2="236.35" y2="251.33"/>
    <path class="cls-6" d="M236.3,251.37c-.06.1-.13.2-.19.3"/>
    <path class="cls-6" d="M236.11,251.67c-.06.09-.42.67-.48.76"/>
    <line class="cls-6" x1="234.85" y1="253.72" x2="234.87" y2="253.74"/>
    <path class="cls-6" d="M237.06,250.21c-.11.17-.21.34-.32.5"/>
    <path class="cls-6" d="M236.74,250.71c-.93,1.44-1.83,2.9-2.7,4.38"/>
    <line class="cls-6" x1="238.36" y1="248.29" x2="238.35" y2="248.31"/>
    <line class="cls-6" x1="239.91" y1="246.08" x2="239.9" y2="246.1"/>
    <path class="cls-6" d="M239.87,246.11c-.07.1-.14.19-.21.29"/>
    <line class="cls-6" x1="239.68" y1="246.41" x2="239.69" y2="246.41"/>
    <path class="cls-6" d="M239.13,247.14c-.27.39-.54.78-.81,1.17"/>
    <line class="cls-6" x1="238.3" y1="248.37" x2="238.32" y2="248.39"/>
    <line class="cls-6" x1="238.32" y1="248.31" x2="238.3" y2="248.37"/>
    <line class="cls-6" x1="238.55" y1="248.01" x2="238.56" y2="248.01"/>
    <path class="cls-6" d="M240.7,244.99c-.11.16-.23.32-.34.48"/>
    <path class="cls-6" d="M240.36,245.48c-1.01,1.38-2,2.79-2.94,4.21"/>
    <line class="cls-6" x1="237.85" y1="249.07" x2="237.91" y2="248.94"/>
    <line class="cls-6" x1="237.83" y1="249.06" x2="237.89" y2="248.92"/>
    <path class="cls-6" d="M332.66,200.23c.71.03,1.42.07,2.13.11"/>
    <path class="cls-6" d="M329.62,200.18c1.25,0,2.5.03,3.76.08"/>
    <path class="cls-6" d="M228.26,266.47c.1-.25.21-.49.31-.74"/>
    <path class="cls-6" d="M247.2,236.75c.33-.38.67-.76,1.01-1.14.17-.19.34-.38.51-.57.08-.09.17-.19.25-.28.06-.07.12-.14.18-.2.02-.02.03-.04.05-.06,0,0,.01-.01.01-.02,0,0,0,0,0,0,0,0,0,0,0,0"/>
    <line class="cls-6" x1="292.81" y1="323.23" x2="292.64" y2="322.6"/>
    <path class="cls-6" d="M356.87,283.21c-11.65-10.15-28.17-12.57-42.25-6.21-14.09,6.36-23.18,20.36-23.2,35.83"/>
    <path class="cls-6" d="M409.92,313.02c-.02,10.35-2.09,20.6-6.09,30.15-3.99,9.55-9.83,18.22-17.18,25.51s-16.06,13.07-25.63,17c-9.58,3.93-19.83,5.95-30.18,5.93-10.35-.02-20.6-2.06-30.16-6.02-9.56-3.96-18.25-9.76-25.58-17.08-7.32-7.31-13.13-16-17.1-25.56-3.96-9.56-6-19.82-5.99-30.17"/>
    <path class="cls-6" d="M252.01,312.77c0-1.47.04-2.94.13-4.41"/>
    <path class="cls-6" d="M235.88,173.83c.11,0,.2.16.23.23.05.11.08.22.1.33"/>
    <path class="cls-6" d="M370.03,360.81c-.71-1.04-1.09-2.27-1.09-3.53"/>
    <path class="cls-6" d="M371.88,273.95c-1.73-1.17-2.76-3.11-2.76-5.2"/>
    <path class="cls-6" d="M280.68,270.5c-.18-.6-.27-1.2-.27-1.82"/>
    <line class="cls-6" x1="229" y1="264.75" x2="229.31" y2="264.03"/>
    <path class="cls-6" d="M331.25,200.17c-.54-.02-1.09-.04-1.63-.05"/>
    <path class="cls-6" d="M334.78,200.3c-22.47-.84-44.69,5.08-63.75,17.01-19.06,11.93-34.1,29.32-43.12,49.93"/>
    <line class="cls-6" x1="236.74" y1="170.36" x2="236.18" y2="170"/>
    <line class="cls-6" x1="235.88" y1="173.83" x2="236.86" y2="173.84"/>
    <path class="cls-6" d="M236,171.73c.02-.58.07-1.16.17-1.73"/>
    <path class="cls-6" d="M235.83,173.84c-.19.08-.37.18-.54.3"/>
    <path class="cls-6" d="M185.61,97.2c-24.59.03-49.19.06-73.78,0"/>
    <path class="cls-6" d="M185.61,97.2s-.06-.02-.09-.05c-.04-.05-.06-.1-.09-.16-.08-.2-.13-.41-.17-.63-.07-.35-.12-.7-.17-1.05-.07-.49-.12-.97-.17-1.46-.14-1.39-.24-2.77-.33-4.16-.13-1.92-.23-3.85-.32-5.77-.21-4.47-.37-8.94-.5-13.41-.27-8.95-.45-17.89-.59-26.84-.27-17.47-.39-36.24-.38-53.71"/>
    <path class="cls-6" d="M236.66,176.13c-.19-.57-.34-1.15-.45-1.74"/>
    <path class="cls-6" d="M236.83,169.77c-.23.06-.44.13-.66.23"/>
    <path class="cls-6" d="M236,171.73c0,.14-.02.28-.06.42-.03.1-.1.31-.21.36"/>
    <path class="cls-6" d="M235.83,173.84s.03-.01.05-.01"/>
    <path class="cls-6" d="M42.59,113c2.5,2.34,5.08,4.58,7.75,6.71,1.54,1.23,3.11,2.42,4.71,3.58,1.69,1.22,3.4,2.4,5.15,3.53,3.04,1.98,6.15,3.83,9.33,5.56,3.39,1.84,6.84,3.54,10.37,5.1,3.42,1.52,6.89,2.91,10.42,4.17,1.77.64,3.56,1.25,5.35,1.83,1.76.57,3.52,1.11,5.29,1.64,1.74.52,3.49,1.02,5.25,1.5,1.78.49,3.57.96,5.37,1.41,3.69.93,7.39,1.79,11.11,2.58,1.78.38,3.57.75,5.35,1.1,1.82.36,3.64.7,5.46,1.03,3.74.68,7.48,1.29,11.24,1.86,7.4,1.12,14.81,2.05,22.26,2.78,3.69.36,7.39.68,11.09.95,3.76.28,7.51.51,11.27.7,7.47.37,14.93.57,22.41.57h11.24"/>
    <path class="cls-6" d="M234.49,254.29c-.08.12-.15.25-.22.37"/>
    <line class="cls-6" x1="54.45" y1="117.64" x2="13.55" y2="101.64"/>
    <path class="cls-6" d="M238.32,173.09c-.05-.44-.08-.89-.11-1.33"/>
    <path class="cls-6" d="M236.87,174.17c-.03-.15-.03-.29.01-.44.03-.13.11-.29.26-.34"/>
    <path class="cls-6" d="M195.23,80.41c-.08.14-.24.22-.39.24-.16.03-.31.02-.47-.03"/>
    <path class="cls-6" d="M197.08,79.46c-.43-.07-.85-.15-1.28-.25"/>
    <path class="cls-6" d="M192.71,80c.54.24,1.09.45,1.66.62"/>
    <line class="cls-6" x1="196.47" y1="80.78" x2="196.49" y2="79.35"/>
    <path class="cls-6" d="M409.56,172.7c.05.45.08.89.1,1.34"/>
    <path class="cls-6" d="M410.93,171.66c.03.15.03.29,0,.44-.03.13-.1.3-.25.34"/>
    <path class="cls-6" d="M186.39-102.97s-.08.05-.11.08c-.05.08-.08.17-.11.26-.11.34-.17.71-.22,1.06-.09.61-.16,1.22-.22,1.84-.09.88-.16,1.77-.22,2.66-.19,2.62-.31,5.23-.42,7.85-.16,3.71-.28,7.43-.38,11.15-.23,8.34-.38,16.69-.49,25.03-.11,8.35-.18,16.7-.23,25.04-.02,4.22-.04,8.45-.04,12.67,0,4.12,0,8.24,0,12.37.03,16.71.15,33.41.43,50.12.14,8.35.31,16.69.57,25.04.11,3.57.24,7.14.4,10.71.11,2.57.25,5.14.42,7.71.06.9.13,1.8.22,2.71.06.66.13,1.31.21,1.96.06.42.12.84.21,1.25.03.13.06.25.1.38.03.08.05.15.1.22"/>
    <path class="cls-6" d="M238.36,400.66c-.27-.13-1.32-1.23-1.5-1.43-.48-.5-.95-1.01-1.41-1.53-.46-.52-.92-1.04-1.36-1.57-.22-.27-.44-.53-.66-.81-.1-.13-.2-.26-.3-.4-.06-.09-.13-.18-.18-.27-.03-.06-.1-.19,0-.14"/>
    <line class="cls-6" x1="232.95" y1="394.64" x2="232.95" y2="394.52"/>
    <line class="cls-6" x1="419.86" y1="216.51" x2="419.86" y2="216.63"/>
    <line class="cls-6" x1="430.45" y1="214.43" x2="421.48" y2="218.04"/>
    <path class="cls-6" d="M418.82,199.75s.09.04.12.06c.08.05.15.11.22.17.26.21.5.45.74.68.34.33.67.66,1,1,.66.67,1.31,1.36,1.96,2.04,1.29,1.38,2.56,2.77,3.81,4.19"/>
    <path class="cls-6" d="M422.64,163.28s-.07-.05-.08-.05c-.08-.03-.17-.04-.26-.05-.35-.05-.7-.08-1.06-.1-.61-.04-1.22-.08-1.84-.1-.89-.04-1.77-.07-2.66-.1-2.62-.09-5.24-.15-7.86-.2-3.72-.08-7.45-.13-11.17-.18-8.32-.11-16.64-.18-24.96-.23-16.64-.11-33.28-.14-49.93-.13-16.64.01-33.28.07-49.92.2-8.32.07-16.64.15-24.96.27-3.72.05-7.45.12-11.17.2-2.62.06-5.24.12-7.86.21-.89.03-1.77.07-2.66.11-.61.03-1.22.06-1.83.11-.35.03-.71.05-1.06.1-.09.01-.17.03-.25.05-.02,0-.08.02-.08.05"/>
    <path class="cls-6" d="M225.69,184.34c-.41,0-.81.02-1.22.03-.2,0-.41.01-.61.02-.1,0-.2,0-.3.02-.08,0-.15,0-.23.02-.02,0-.04,0-.06,0,0,0-.02,0-.02,0"/>
    <path class="cls-6" d="M410.76,166.15c-.21,0-.45.16-.61.28-.18.14-.33.31-.47.49-.29.36-.51.75-.7,1.16"/>
    <path class="cls-6" d="M232.51,257.26c-1.04,2.03-2.15,4.44-3.03,6.55"/>
    <path class="cls-6" d="M235.2,162.33s.06-.04.07-.05c.07-.02.15-.03.22-.05.31-.05.62-.07.93-.09.54-.04,1.07-.07,1.61-.1.78-.04,1.55-.07,2.33-.1,2.3-.08,4.6-.14,6.9-.19,3.27-.07,6.53-.13,9.8-.18,7.3-.11,14.6-.19,21.9-.25,14.6-.12,29.21-.17,43.81-.18,14.61-.01,29.21.02,43.82.12,7.3.05,14.6.11,21.91.21,3.27.04,6.53.1,9.79.17,2.3.05,4.6.1,6.9.18.78.03,1.56.06,2.33.09.54.03,1.08.05,1.61.09.31.02.62.05.93.09.08.01.15.02.22.05.02,0,.07.02.07.05"/>
    <path class="cls-6" d="M223,184.64s.02-.09.06-.13c.02-.02.03-.03.05-.05.02-.01.04-.02.06-.03.02,0,.04-.01.07-.01.05,0,.11-.01.16-.02.2-.02.4-.02.6-.03.78-.03,1.57-.04,2.35-.06,3.1-.06,6.2-.09,9.3-.11,4.25-.04,8.51-.06,12.76-.09,2.04-.01,4.07-.02,6.11-.03,2.22-.01,4.44-.02,6.65-.03,4.25-.02,8.51-.03,12.76-.04,2.09,0,4.18-.01,6.27-.02,2.16,0,4.33-.01,6.49-.02,2.1,0,4.21,0,6.31-.01,2.15,0,4.3,0,6.45-.01h6.34c2.14-.01,4.28-.01,6.42-.01,4.25,0,8.51,0,12.76,0"/>
    <path class="cls-6" d="M324.99,183.94c4.07,0,8.14,0,12.22,0,4.07,0,8.14,0,12.21,0,4.07,0,8.14.01,12.22.02,4.07,0,8.14.02,12.22.03,8.15.02,16.29.05,24.44.09,4.07.02,8.14.05,12.21.08,2.97.03,5.93.05,8.89.11.75.01,1.5.03,2.25.06.19,0,.38.01.57.03.05,0,.1,0,.16.02.02,0,.04,0,.07.01.02,0,.04.02.06.03.02.01.04.03.05.05.03.04.05.07.05.12"/>
    <path class="cls-6" d="M233.28,162.88c-1.7-.04-3.4-.09-5.1-.15-.53-.02-4.54-.16-5.08-.35"/>
    <path class="cls-6" d="M217.35,107.08c-1.06-2.07-2.35-4.04-3.94-5.75-1.61-1.72-3.47-3.11-5.61-4.11"/>
    <path class="cls-6" d="M419.08,162.18s-.06-.04-.08-.05c-.08-.02-.16-.04-.25-.05-.34-.05-.68-.08-1.02-.1-.59-.04-1.18-.08-1.77-.1-.85-.04-1.71-.07-2.56-.1-2.53-.09-5.05-.15-7.58-.2-3.59-.07-7.18-.13-10.76-.18-8.02-.11-16.05-.18-24.08-.23-16.05-.11-32.1-.14-48.16-.13-16.05.01-32.1.07-48.15.2-8.03.07-16.05.15-24.07.27-3.59.05-7.18.12-10.77.2-2.53.06-5.05.12-7.58.21-.85.03-1.71.06-2.56.11-.59.03-1.18.06-1.77.11-.34.03-.68.05-1.02.1-.08.01-.17.03-.25.05-.02,0-.08.02-.08.05"/>
    <path class="cls-6" d="M185.61,85.03s-.05-.02-.07-.04c-.03-.04-.05-.08-.07-.13-.07-.17-.11-.35-.15-.53-.06-.3-.11-.6-.15-.9-.06-.42-.11-.85-.15-1.27-.12-1.22-.21-2.44-.3-3.67-.11-1.7-.2-3.4-.28-5.1-.19-3.92-.32-7.85-.44-11.77-.24-7.85-.39-15.71-.51-23.56-.24-15.71-.34-31.42-.34-47.13"/>
    <path class="cls-6" d="M225.26,162.34s0,0,0,0c0,0,0,0-.01,0-.02,0-.03,0-.05,0-.07,0-.14,0-.21,0-.09,0-.18,0-.28,0-.19,0-.37,0-.55,0-.37,0-.74,0-1.11,0"/>
    <path class="cls-6" d="M207.64,97.06c-.04-.08-.06-.17-.09-.25-.03-.12-.05-.24-.07-.36-.06-.38-.1-.75-.14-1.13-.13-1.3-.2-2.61-.27-3.91-.11-2.03-.19-4.06-.26-6.09-.1-2.72-.17-5.44-.24-8.16-.17-6.65-.29-13.3-.39-19.94-.2-13.3-.3-26.61-.37-39.92,0-1.65-.01-3.3-.02-4.94,0-1.66-.01-3.32-.02-4.99,0-3.34-.02-6.69-.02-10.03,0-1.67,0-3.35,0-5.02s0-3.34,0-5c0-3.31,0-6.62.02-9.93,0-1.7.01-3.41.02-5.11,0-1.68.01-3.36.02-5.04.02-3.27.04-6.54.06-9.81.05-6.65.11-13.31.19-19.96"/>
    <path class="cls-6" d="M280.31,357.09c0-1.05.27-2.08.77-2.99"/>
    <path class="cls-6" d="M260.58,348.53c8.04,15.78,21.17,28.39,37.26,35.8,7.99,3.68,16.53,6.01,25.29,6.88,4.3.43,8.56.5,12.87.23,4.48-.29,8.86-.94,13.23-1.98,17.23-4.09,32.6-13.84,43.62-27.71,11.01-13.86,17.04-31.03,17.08-48.74"/>
    <path class="cls-6" d="M442.59,312.28c.08-29.01-11.15-56.88-31.27-77.76-20.12-20.88-47.57-33.13-76.54-34.21"/>
    <line class="cls-6" x1="236.14" y1="251.61" x2="236.15" y2="251.62"/>
    <line class="cls-6" x1="235.63" y1="252.44" x2="235.65" y2="252.45"/>
    <line class="cls-6" x1="234.49" y1="254.28" x2="234.51" y2="254.3"/>
    <path class="cls-6" d="M238.31,248.33c-.22.32-.44.64-.65.97"/>
    <path class="cls-6" d="M239.68,246.42c-.06.07-.48.66-.53.74"/>
    <line class="cls-6" x1="237.89" y1="248.92" x2="237.91" y2="248.94"/>
    <path class="cls-6" d="M237.9,248.94c-.09.12-.16.24-.24.36"/>
    <path class="cls-6" d="M361.29,240.1c7.17,2.97,13.86,6.99,19.85,11.91,6,4.92,11.23,10.7,15.54,17.16,4.31,6.46,7.64,13.51,9.88,20.94,2.24,7.43,3.37,15.15,3.35,22.9"/>
    <path class="cls-6" d="M227.91,267.25c-6.17,14.09-9.37,29.31-9.37,44.69"/>
    <path class="cls-6" d="M182.9-9.76c0,16.85.11,34.94.37,51.79.13,8.63.31,17.26.57,25.89.13,4.31.28,8.63.48,12.94.09,1.87.19,3.74.31,5.61.09,1.34.19,2.69.32,4.03.05.47.1.94.16,1.4.05.33.1.66.16.99.04.2.08.4.16.59.02.05.04.1.08.15.02.03.04.05.08.05"/>
    <path class="cls-6" d="M111.52,97.21c-12.03-.01-22.97.88-34.9,2.25-2.91.34-5.82.69-8.74,1.05-2.88.35-5.76.7-8.64,1.02-5.8.65-11.6,1.19-17.43,1.44-5.88.25-11.61.2-17.49-.21-3.25-.23-6.48-.56-9.71-.98-2.56-.33-5.11-.72-7.65-1.12-2.88-.46-5.75-.95-8.62-1.42-1.39-.23-2.79-.45-4.18-.67-1.49-.23-2.98-.45-4.47-.66-2.61-.37-5.22-.72-7.83-1.02-3.18-.37-6.37-.66-9.56-.9"/>
  </g>
  <g id="_图层_4" data-name="图层 4">
    <g>
      <line class="cls-5" x1="413.05" y1="219.16" x2="417.27" y2="214.89"/>
      <line class="cls-3" x1="423.95" y1="208.14" x2="433.97" y2="198.02"/>
      <line class="cls-5" x1="437.31" y1="194.64" x2="441.53" y2="190.38"/>
      <polygon class="cls-7" points="420.83 223.36 404.47 227.83 408.77 211.43 420.83 223.36"/>
    </g>
    <g>
      <line class="cls-5" x1="241.71" y1="222.72" x2="237.86" y2="218.13"/>
      <line class="cls-2" x1="231.86" y1="210.97" x2="222.86" y2="200.24"/>
      <line class="cls-5" x1="219.86" y1="196.66" x2="216" y2="192.06"/>
      <polygon class="cls-7" points="246.62 215.37 249.55 232.08 233.62 226.27 246.62 215.37"/>
    </g>
    <g>
      <line class="cls-5" x1="237.25" y1="394.72" x2="232.58" y2="398.48"/>
      <line class="cls-4" x1="226.7" y1="403.23" x2="217.89" y2="410.35"/>
      <line class="cls-5" x1="214.95" y1="412.72" x2="210.28" y2="416.49"/>
      <polygon class="cls-7" points="229.99 389.68 246.74 387.05 240.65 402.87 229.99 389.68"/>
    </g>
    <g>
      <line class="cls-5" x1="420.56" y1="398.38" x2="424.77" y2="402.65"/>
      <line class="cls-1" x1="429.7" y1="407.65" x2="437.08" y2="415.15"/>
      <line class="cls-5" x1="439.54" y1="417.65" x2="443.75" y2="421.93"/>
      <polygon class="cls-7" points="416.26 406.1 412 389.68 428.35 394.19 416.26 406.1"/>
    </g>
  </g>
</svg>