<?xml version="1.0" encoding="UTF-8"?>
<svg xmlns="http://www.w3.org/2000/svg" viewBox="0 0 591.77 314.81">
  <defs>
    <style>
      .cls-1, .cls-2, .cls-3, .cls-4, .cls-5, .cls-6, .cls-7 {
        fill: none;
      }

      .cls-1, .cls-2, .cls-3, .cls-5, .cls-6, .cls-7 {
        stroke-miterlimit: 10;
        stroke-width: 2px;
      }

      .cls-1, .cls-4 {
        stroke: #000;
      }

      .cls-2 {
        stroke: #00ed00;
      }

      .cls-8 {
        fill: red;
      }

      .cls-8, .cls-9 {
        stroke-width: 0px;
      }

      .cls-3 {
        stroke: #ff6d00;
      }

      .cls-4 {
        stroke-linecap: round;
        stroke-linejoin: round;
      }

      .cls-9 {
        fill: #bfbfbf;
      }

      .cls-5 {
        stroke: #ff0;
      }

      .cls-6 {
        stroke: #00d80f;
      }

      .cls-7 {
        stroke: red;
      }
    </style>
  </defs>
  <g id="_图层_5" data-name="图层 5">
    <polygon class="cls-9" points="226.73 171.21 223.44 172.53 220.06 175.92 216.73 181.66 214.92 186.42 214.33 190.74 214.53 194.35 215.07 196.16 215.86 197.45 305.93 234.62 306.53 234.87 306.39 239.06 306.53 246.59 307.02 250.73 308.3 257.27 309.76 261.37 311.23 263.96 312.68 265.55 314.47 266.6 316.58 267 319.25 267.48 321.13 267.48 322.81 266.81 324.97 265.27 327.4 262.55 329.78 258.82 331.89 254.55 333.43 250.74 335.05 245.56 338.35 246.15 349.67 248.26 360.26 249.59 590.98 279.87 591.27 248.62 378.93 221.72 357.48 219.28 340.82 215.97 339.99 215.74 339.77 206.84 335.44 198.09 329.16 185.98 324.59 185.41 322.03 186.87 319.76 189.17 316.98 193.24 312.11 204.43 311.91 205.02 310.1 204.29 259.98 184.2 227.9 171.21 226.73 171.21"/>
  </g>
  <g id="Make2D::可见线::曲线">
    <path class="cls-4" d="M89.38,27.51c-8.09,4.63-15.94,10.2-22.61,16.79-6.65,6.56-12.34,14.34-15.62,23.25"/>
    <path class="cls-4" d="M343.46,31.94c-11.85-6.76-24.73-12.21-37.65-16.5-12.98-4.31-26.45-7.61-39.9-9.99"/>
    <path class="cls-4" d="M265.91,5.44C234.54-.11,201.06-1.05,169.43,2.95"/>
    <path class="cls-4" d="M417.6,183.92c.05,1.06.1,2.11.13,3.17"/>
    <path class="cls-4" d="M417.6,183.92c-.02-.42-.14-1.04-.33-1.43"/>
    <path class="cls-4" d="M416.61,174.71c.04.05.1.1.14.02.03-.06.03-.11.03-.18,0-.12,0-.24-.02-.36"/>
    <path class="cls-4" d="M415.42,162.42c2.27,4.02,4.12,8.27,5.42,12.71"/>
    <path class="cls-4" d="M420.84,175.13c.46,1.59,1.14,4.36,1.5,5.98"/>
    <path class="cls-4" d="M424.11,191.32c-.45-3.43-1.03-6.83-1.77-10.22"/>
    <path class="cls-4" d="M424.11,191.32c.03.24.07.47.1.7.04.23.08.47.13.7"/>
    <path class="cls-4" d="M425.08,200.58s.03.07.04.11c0,.02.04.09.07.08"/>
    <path class="cls-4" d="M425.08,200.58s-.01-.05-.03-.05"/>
    <path class="cls-4" d="M425.2,204.35c-.04-1.07-.1-2.13-.16-3.2"/>
    <path class="cls-4" d="M425.2,204.35c.05,1.28.14,2.55.25,3.82.09,1.04.27,2.76.46,3.8"/>
    <line class="cls-4" x1="276.39" y1="298.12" x2="278.8" y2="302.12"/>
    <path class="cls-4" d="M276.39,298.12c-.24-.4-.38-.85-.35-1.33"/>
    <path class="cls-4" d="M298.26,289.65c2.26-.51,4.77-.62,7.07-.4,2.16.21,4.86.79,6.75,2.02"/>
    <path class="cls-4" d="M317.28,294.67c.84.55,1.83,1.44,1.86,2.6"/>
    <path class="cls-4" d="M293.04,305.41c6.94-1.16,13.83-2.52,20.68-4.11"/>
    <path class="cls-4" d="M293.04,305.41c-2.44.41-5.14.39-7.58-.03-1.23-.21-2.5-.54-3.66-1.03-1.05-.44-2.37-1.18-3.01-2.24"/>
    <line class="cls-4" x1="221.69" y1="131.85" x2="222.49" y2="126.59"/>
    <path class="cls-4" d="M221.69,131.85c-.18,1.17-1,2.1-1.87,2.76-.91.68-1.98,1.17-3.04,1.53-2.12.71-4.53.99-6.75.96"/>
    <path class="cls-4" d="M190.2,137.36c-2.43.1-5-.18-7.35-.86-1.17-.34-2.37-.81-3.43-1.42-1.02-.59-2.1-1.42-2.73-2.46"/>
    <path class="cls-4" d="M173.5,127.31c-.39-.64-.61-1.38-.53-2.15"/>
    <path class="cls-4" d="M120.74,147.27c-2.59.69-5.52.79-8.16.47-2.57-.31-5.52-1.08-7.74-2.54"/>
    <line class="cls-4" x1="104.84" y1="145.2" x2="98.2" y2="140.85"/>
    <path class="cls-4" d="M66.77,268.87c-2.52.85-5.61,1-8.21.75-2.53-.24-5.66-.95-7.87-2.39"/>
    <path class="cls-4" d="M10.58,216.06c1.81,11.19,7.59,21.16,14.76,29.53,7.2,8.41,16.16,15.63,25.35,21.65"/>
    <path class="cls-4" d="M10.58,216.06c-.04-.24-.04-.48,0-.72"/>
    <path class="cls-4" d="M32.31,211.9c2.13.16,4.39.61,6.39,1.41.99.39,2.02.92,2.87,1.57.8.62,1.66,1.54,1.82,2.64"/>
    <path class="cls-4" d="M75.57,260.02c.94.64,2.11,1.71,2.06,3.06"/>
    <path class="cls-4" d="M275.19,303.28c.61,1,.41,1.98-.35,2.82-.32.35-.68.63-1.08.88-.48.3-.98.54-1.5.74-1.85.73-4.05,1.04-6.02,1.11-2.01.06-4.14-.13-6.1-.61-1-.25-1.96-.57-2.89-1.03-.53-.26-1.02-.56-1.47-.93-.35-.29-.65-.59-.89-.98"/>
    <path class="cls-4" d="M254.9,305.28c-.37-.59-.5-1.25-.25-1.92.23-.64.73-1.15,1.25-1.54"/>
    <path class="cls-4" d="M324.93,140.47c.58,1.19.42,2.38-.33,3.43-.7.99-1.79,1.71-2.84,2.22-2.13,1.04-4.72,1.51-7.04,1.63-2.37.12-4.91-.12-7.21-.77-1.15-.33-2.32-.78-3.35-1.39-.59-.35-1.13-.73-1.62-1.22-.39-.38-.71-.79-.96-1.28"/>
    <path class="cls-4" d="M138.24,292.92c.68.94.72,1.94,0,2.88-.29.38-.64.67-1.04.94-.48.32-.99.57-1.52.78-1.87.74-4.13,1.03-6.11,1.07-2.04.03-4.2-.19-6.18-.7-1.01-.26-1.99-.59-2.93-1.06-.53-.26-1.03-.55-1.5-.91-.36-.28-.69-.58-.96-.95"/>
    <line class="cls-4" x1="208.8" y1="301.52" x2="208.16" y2="305.46"/>
    <path class="cls-4" d="M208.8,301.52c.16-.98,1.01-1.72,1.76-2.19.81-.5,1.75-.86,2.66-1.11,1.82-.51,3.86-.71,5.73-.68"/>
    <line class="cls-4" x1="247.87" y1="300.94" x2="250.38" y2="304.92"/>
    <path class="cls-4" d="M250.38,304.92c.23.37.38.78.38,1.23"/>
    <path class="cls-4" d="M241.65,310.45c-7.6.26-15.2.32-22.81.17"/>
    <path class="cls-4" d="M218.84,310.62c-2.07-.04-4.3-.35-6.27-1.01-.97-.32-2.02-.78-2.85-1.39-.79-.57-1.67-1.47-1.58-2.6"/>
    <path class="cls-4" d="M51.15,67.54c-1.43,3.89-2.38,7.92-2.76,12.05"/>
    <path class="cls-4" d="M169.43,2.95c-13.86,1.75-27.81,4.51-41.23,8.45-13.31,3.91-26.73,9.19-38.82,16.11"/>
    <path class="cls-4" d="M137.28,292.06c-.07-.09-.14-.18-.21-.27"/>
    <path class="cls-4" d="M131.17,297.07c1.29-.13,2.68-.4,3.89-.89.6-.24,1.22-.57,1.72-1,.49-.42.93-.99.98-1.68"/>
    <path class="cls-4" d="M302.75,141.92c.54,1.07,1.62,1.87,2.61,2.41,1.04.57,2.22.98,3.36,1.25,2.29.56,4.82.69,7.16.43"/>
    <path class="cls-4" d="M386.38,143.66c.09,0,.18-.02.27-.02"/>
    <path class="cls-4" d="M256.99,303.18c.77,1.24,2.7,1.96,3.94,2.29,1.47.39,3.09.57,4.61.57,1.51,0,3.14-.19,4.6-.64.72-.22,1.48-.53,2.11-.97.36-.24.7-.55.94-.91.19-.28.3-.6.31-.94"/>
    <path class="cls-4" d="M315.88,146.01c1.67-.19,3.46-.6,5-1.34.76-.37,1.53-.85,2.13-1.47.6-.61,1.06-1.39,1.07-2.3"/>
    <path class="cls-4" d="M119.08,293.9c.62.84,1.69,1.46,2.59,1.86.99.44,2.01.74,3.07.96,2.06.43,4.33.55,6.42.34"/>
    <path class="cls-4" d="M373.33,217.5c0-.06-.02-.11-.02-.17"/>
    <path class="cls-4" d="M238.83,96.61c-.08-.08-.19-.11-.29-.12"/>
    <path class="cls-4" d="M387.04,143.66c.48.05.94.28,1.31.56"/>
    <path class="cls-4" d="M381.64,216.45c-.37-.87-.65-2.13-.81-3.05"/>
    <path class="cls-4" d="M362.72,195.3s-.09-.1-.13-.15"/>
    <path class="cls-4" d="M273.22,301.58s-.02-.03-.03-.05"/>
    <path class="cls-4" d="M391.37,94.89c.01,3.08.13,6.14.43,9.21.23,2.43.57,4.83,1.07,7.21.51,2.42,1.18,4.77,2.09,7.07,1.13,2.85,2.57,5.51,4.06,8.16,1.19,2.12,2.41,4.22,3.61,6.33,1.52,2.67,3.02,5.36,4.47,8.07,1.3,2.45,2.56,4.93,3.75,7.43,1.18,2.47,2.3,4.96,3.36,7.48,4.3,10.25,7.4,20.66,9.45,31.58,1.02,5.42,1.75,10.86,2.26,16.36.5,5.49.77,10.98.84,16.49"/>
    <path class="cls-4" d="M391.37,94.89c-.05-14.29-6.7-27.02-15.62-37.37-8.94-10.37-20.54-18.88-32.29-25.58"/>
    <path class="cls-4" d="M426.76,220.28c-.04-2.81-.32-5.56-.84-8.31"/>
    <path class="cls-4" d="M345.84,152.56c0-.17-.03-.31-.11-.46"/>
    <path class="cls-4" d="M49.96,172.45c.07-.74-.21-1.43-.63-2.01"/>
    <path class="cls-4" d="M137.75,293.5c.03-.53-.17-1.02-.47-1.43"/>
    <path class="cls-4" d="M302.42,140.52c-.01.5.12.97.34,1.41"/>
    <path class="cls-4" d="M366.98,267.92c0,.36.08.67.25.99"/>
    <path class="cls-4" d="M273.5,302.58c.01-.36-.1-.7-.29-1"/>
    <line class="cls-4" x1="91.61" y1="60.01" x2="91.03" y2="67.03"/>
    <line class="cls-4" x1="145.8" y1="123.65" x2="145.9" y2="122.07"/>
    <path class="cls-4" d="M145.8,123.65c-.04.61.15,1.18.47,1.69"/>
    <path class="cls-4" d="M167.54,128.43c.03-.59-.14-1.14-.44-1.63"/>
    <path class="cls-4" d="M165.58,123.35c.59.46,1.14,1.02,1.54,1.67"/>
    <path class="cls-4" d="M238.54,96.49c-.6-.05-1.54.52-1.97.81"/>
    <path class="cls-4" d="M144.83,138.31c-.02.77-.35,1.48-.82,2.06-.47.58-1.1,1.06-1.73,1.43-1.27.75-2.82,1.23-4.24,1.51"/>
    <path class="cls-4" d="M222.52,126.16c0,.14-.01.29-.03.43"/>
    <path class="cls-4" d="M250.76,306.15c0,.95-.68,1.71-1.37,2.22-.72.53-1.58.92-2.42,1.2-1.67.56-3.57.83-5.32.89"/>
    <path class="cls-4" d="M319.14,297.26c.02.63-.26,1.18-.65,1.64-.38.46-.89.83-1.4,1.13-1.01.59-2.24,1-3.37,1.26"/>
    <path class="cls-4" d="M77.63,263.07c-.04.93-.67,1.67-1.35,2.19-.7.53-1.54.91-2.36,1.19"/>
    <path class="cls-4" d="M416.22,174.47c.15-.02.31.14.39.23"/>
    <path class="cls-4" d="M416.97,190.06c.28-.03.44-.36.52-.57.1-.26.14-.52.18-.79.07-.54.08-1.07.06-1.61"/>
    <path class="cls-4" d="M414.94,161.86c.1-.01.24.18.29.24.07.1.14.21.2.32"/>
    <path class="cls-4" d="M.75,203.07c.42-4.02.94-8.01,1.58-12,.64-3.99,1.4-7.95,2.29-11.89"/>
    <path class="cls-4" d="M.75,203.07c-.87,8.43.59,16.61,3.84,24.36,1.82,4.35,4.17,8.47,6.86,12.33,3.01,4.31,6.46,8.33,10.17,12.04,6.06,6.07,12.91,11.46,20.01,16.22,8.03,5.38,16.61,10.1,25.33,14.24,16.42,7.79,34.1,13.86,51.63,18.48,17.62,4.64,35.79,8.01,53.86,10.23,35.85,4.4,73.63,4.54,109.5-.05,18.04-2.31,36.24-5.89,53.7-11.06,9.37-2.78,18.67-6.05,27.65-9.93,7.78-3.35,15.42-7.19,22.65-11.62"/>
    <path class="cls-4" d="M337.96,152.49c0,.17.04.32.11.47"/>
    <path class="cls-4" d="M28.66,170.62c-.07.77.22,1.48.66,2.07"/>
    <path class="cls-4" d="M118.59,292.42c-.04.55.17,1.05.49,1.47"/>
    <path class="cls-4" d="M324.09,140.9c0-.47-.11-.92-.32-1.35"/>
    <path class="cls-4" d="M386.48,267.93c0-.34-.08-.64-.23-.94"/>
    <path class="cls-4" d="M256.69,302.15c-.01.37.11.72.3,1.03"/>
    <line class="cls-4" x1="322.14" y1="137.73" x2="323.11" y2="138.44"/>
    <line class="cls-4" x1="303.49" y1="138.09" x2="304.49" y2="137.42"/>
    <line class="cls-4" x1="136.68" y1="291.41" x2="137.57" y2="292.19"/>
    <line class="cls-4" x1="118.95" y1="291.15" x2="119.94" y2="290.47"/>
    <line class="cls-4" x1="367.37" y1="266.43" x2="368.31" y2="265.71"/>
    <path class="cls-4" d="M274.31,302.29c.35.29.65.6.88.99"/>
    <line class="cls-4" x1="43.34" y1="167.5" x2="43.38" y2="167.08"/>
    <path class="cls-4" d="M388.72,145.11c-.11-.29-.22-.58-.33-.87"/>
    <path class="cls-4" d="M84.71,83.49c1.36-3.48,2.82-6.91,4.17-10.4"/>
    <path class="cls-4" d="M26.61,211.47c6.17,8.17,13.97,15.28,22.14,21.33"/>
    <path class="cls-4" d="M46.54,168.57c0-.1.01-.21.02-.31"/>
    <path class="cls-4" d="M105.52,160.1c-.03.06-.05.12-.08.17"/>
    <path class="cls-4" d="M379.06,264.14c.23-.13.45-.25.68-.38"/>
    <line class="cls-4" x1="415.95" y1="174.78" x2="416.61" y2="174.71"/>
    <path class="cls-4" d="M362.72,195.14c0,.05,0,.11,0,.16"/>
    <line class="cls-4" x1="167.61" y1="127.23" x2="167.54" y2="128.43"/>
    <line class="cls-4" x1="164.93" y1="122.84" x2="165.58" y2="123.35"/>
    <path class="cls-4" d="M370.58,132.92c.03.09.07.17.1.26"/>
    <path class="cls-4" d="M88.9,71.97c.74-1.92,1.34-3.87,1.8-5.88.45-2.01.74-4.03.91-6.08"/>
    <line class="cls-4" x1="386.48" y1="267.18" x2="386.48" y2="267.93"/>
    <path class="cls-4" d="M63.96,238.72c3.65,4.84,8.01,9.16,12.67,12.99,5.68,4.67,11.93,8.75,18.34,12.31,5.63,3.12,11.41,5.87,17.34,8.34,6.5,2.71,13.1,5.07,19.82,7.15,25.33,7.86,52.97,11.99,79.38,12.99,26.4,1.01,54.27-1.01,80.12-6.94,12.96-2.97,26.1-7.08,38.22-12.67,6.55-3.02,12.98-6.56,18.89-10.72,5.03-3.54,9.81-7.61,13.86-12.28"/>
    <path class="cls-4" d="M144.25,136.34c.37.58.6,1.26.59,1.96"/>
    <line class="cls-4" x1="66.77" y1="268.87" x2="73.92" y2="266.45"/>
    <path class="cls-4" d="M143.8,127.71c-.61-.98-.8-2.08-.32-3.19.45-1.03,1.37-1.82,2.28-2.37"/>
    <path class="cls-4" d="M301.57,143.1c-.47-.93-.51-1.91-.07-2.85.42-.9,1.2-1.62,1.99-2.15"/>
    <path class="cls-4" d="M50.35,171.34c.72,1,.98,2.17.37,3.33-.25.48-.62.88-1.03,1.23-.5.42-1.05.75-1.64,1.02-2.07.98-4.67,1.34-6.91,1.38-2.32.03-4.77-.27-7.01-.92-1.14-.33-2.23-.75-3.29-1.32-.58-.31-1.13-.67-1.64-1.09-.41-.34-.78-.7-1.1-1.13"/>
    <path class="cls-4" d="M28.11,173.84c-.64-.86-.97-1.89-.58-2.97.36-1.01,1.25-1.76,2.11-2.27"/>
    <path class="cls-4" d="M118.01,294.96c-.45-.61-.7-1.34-.46-2.11.23-.73.82-1.29,1.4-1.7"/>
    <path class="cls-4" d="M387.31,267.86c.53,1.08.19,2.1-.58,2.92-.72.77-1.72,1.32-2.67,1.71-1.92.79-4.18,1.17-6.23,1.26-2.08.1-4.31-.08-6.34-.58-1.02-.25-2.06-.6-2.99-1.09-.54-.28-1.04-.6-1.5-1.02-.35-.32-.63-.65-.85-1.07"/>
    <path class="cls-4" d="M366.17,269.98c-.33-.64-.37-1.32-.09-1.98.26-.64.77-1.16,1.3-1.57"/>
    <path class="cls-4" d="M29.32,172.69c1.12,1.51,3.25,2.49,4.9,3.02,1.83.59,3.83.91,5.75.98,1.89.07,3.96-.11,5.79-.66.91-.27,1.85-.66,2.64-1.23.43-.31.84-.69,1.13-1.14.24-.37.4-.77.44-1.21"/>
    <path class="cls-4" d="M76.87,115.89c-.07-.1-.14-.19-.24-.27"/>
    <line class="cls-4" x1="590.98" y1="279.87" x2="350.09" y2="248.26"/>
    <line class="cls-4" x1="353.93" y1="218.56" x2="591.27" y2="248.62"/>
    <path class="cls-4" d="M199.64,155.27c-.88-.12-1.72.11-2.48.5-1.05.54-1.94,1.39-2.69,2.27-1.3,1.53-2.34,3.4-3.18,5.2-1.67,3.62-2.82,7.78-3.52,11.68-.71,3.94-1.05,8.16-.89,12.17.08,2.05.29,4.06.71,6.07.23,1.11.52,2.2.92,3.27.32.85.68,1.67,1.17,2.44"/>
    <path class="cls-4" d="M218.11,167.2c-.15.32-.28.65-.39.98"/>
    <path class="cls-4" d="M189.74,217.41c-3.91-.87-7.71-1.99-11.45-3.39-3.75-1.41-7.34-3.07-10.84-5.01-3.5-1.95-6.8-4.14-9.95-6.61-3.15-2.47-6.05-5.16-8.76-8.12-5.41-5.91-9.73-12.64-12.87-20-3.14-7.36-5.01-15.16-5.68-23.12"/>
    <path class="cls-4" d="M199.35,178.91c.51-3.58.71-7.37.48-10.98-.21-3.28-.87-7.62-2.64-10.59"/>
    <path class="cls-4" d="M102.7,160.9c.87.05,1.78.21,2.61.48.78.25,1.7.68,2.28,1.32"/>
    <path class="cls-4" d="M367.23,268.91c.19.37.43.66.73.94.39.36.81.64,1.27.89.8.43,1.69.75,2.56.98,1.74.46,3.66.64,5.45.6,1.78-.04,3.71-.31,5.41-.89.85-.29,1.72-.69,2.45-1.23.41-.31.79-.68,1.05-1.12.2-.35.33-.73.33-1.14"/>
    <path class="cls-4" d="M164.91,123.19c-.13-.21-.28-.41-.44-.6"/>
    <path class="cls-4" d="M320.57,176.51c2.85-2.13,5.5-4.43,7.96-7.01"/>
    <path class="cls-4" d="M283.75,193.73c10.31-2.97,20.83-7.1,30.07-12.69"/>
    <path class="cls-4" d="M257.07,301.12c-.22.3-.37.65-.38,1.03"/>
    <path class="cls-4" d="M255.9,301.82c1.24-.92,3-1.46,4.46-1.75,1.56-.31,3.22-.42,4.8-.38,1.59.04,3.23.24,4.78.62,1.45.36,3.18.99,4.36,1.98"/>
    <line class="cls-4" x1="255.9" y1="301.82" x2="257.07" y2="300.95"/>
    <path class="cls-4" d="M368.31,265.71c-.67.51-1.33,1.27-1.33,2.21"/>
    <line class="cls-4" x1="373.3" y1="217.32" x2="381.64" y2="216.45"/>
    <path class="cls-4" d="M367.37,266.43c1.25-.96,2.99-1.56,4.49-1.89,1.58-.36,3.26-.52,4.87-.52,1.61,0,3.29.17,4.87.52,1.49.34,3.24.94,4.49,1.9"/>
    <path class="cls-4" d="M30.7,167.97c-.93.55-1.92,1.43-2.04,2.65"/>
    <path class="cls-4" d="M10.57,215.33c.16-1.15,1.1-1.99,1.99-2.53.93-.56,2.05-.95,3.09-1.21,2.12-.51,4.46-.62,6.62-.45"/>
    <path class="cls-4" d="M323.11,138.44c.72.53,1.42,1.21,1.82,2.03"/>
    <line class="cls-4" x1="48.45" y1="169.5" x2="49.35" y2="170.27"/>
    <line class="cls-4" x1="29.64" y1="168.6" x2="30.7" y2="167.97"/>
    <path class="cls-4" d="M49.38,170.3c.36.32.69.65.98,1.04"/>
    <line class="cls-4" x1="385.15" y1="265.72" x2="386.09" y2="266.45"/>
    <path class="cls-4" d="M386.09,266.45c.48.37.95.84,1.22,1.41"/>
    <path class="cls-4" d="M54.67,210.1c-.95,10.67,3.12,20.41,9.29,28.61"/>
    <path class="cls-4" d="M193.85,147.74c-.09-.16-.24-.32-.44-.35"/>
    <path class="cls-4" d="M192.21,152.59c.09.16.24.32.44.35"/>
    <path class="cls-4" d="M185.98,209.97c.09.14.23.29.41.31"/>
    <path class="cls-4" d="M210.2,175.18c-.09-.15-.22-.3-.41-.33"/>
    <path class="cls-4" d="M208.62,179.96c.09.15.22.3.41.32"/>
    <path class="cls-4" d="M29.64,168.6c1.45-.86,3.28-1.33,4.91-1.56,1.7-.24,3.47-.26,5.18-.12,1.7.15,3.45.47,5.08.99,1.57.5,3.29,1.28,4.57,2.38"/>
    <path class="cls-4" d="M186.21,206.51c-.1-.04-.19-.08-.28-.13"/>
    <path class="cls-4" d="M197.19,157.34c-.23-.39-.49-.77-.78-1.12"/>
    <line class="cls-4" x1="256.69" y1="302.15" x2="256.72" y2="301.21"/>
    <path class="cls-4" d="M197.13,188.54c.83-2.48,1.44-5,1.9-7.57"/>
    <line class="cls-4" x1="425.19" y1="200.78" x2="421.32" y2="201.19"/>
    <path class="cls-4" d="M96.34,134.42c0,.08-.01.16-.02.24"/>
    <line class="cls-4" x1="193.16" y1="201.55" x2="192.08" y2="201.4"/>
    <path class="cls-4" d="M194.69,194.32c.98-1.82,1.79-3.82,2.44-5.78"/>
    <path class="cls-4" d="M192.65,152.94c.11.01.2-.01.3-.06.13-.07.23-.16.32-.27.16-.19.28-.4.38-.62.21-.45.33-.91.42-1.39.09-.48.12-.96.1-1.45-.02-.43-.1-1.02-.33-1.41"/>
    <path class="cls-4" d="M206.74,200.64c5.91.46,11.81.7,17.74.73"/>
    <path class="cls-4" d="M191.33,198.94c.07.01.14.02.21.03"/>
    <path class="cls-4" d="M189.53,198.68h.03"/>
    <path class="cls-4" d="M76.44,115.47c.54-3.75,1.16-7.48,1.9-11.19.75-3.71,1.62-7.39,2.67-11.03,1.08-3.74,2.25-7.11,3.66-10.74,1.37-3.53,2.86-7,4.22-10.54"/>
    <path class="cls-4" d="M4.62,179.18c1.86-8.19,5.67-15.67,10.63-22.34,4.95-6.67,11.04-12.53,17.55-17.62,12.95-10.13,28.45-17.91,43.65-23.74"/>
    <path class="cls-4" d="M147.84,120.9c-.95.58-1.96,1.5-2.04,2.76"/>
    <path class="cls-4" d="M145.76,122.16c1.45-.88,3.24-1.4,4.88-1.68,1.69-.29,3.47-.36,5.18-.26s3.46.39,5.11.88c1.6.47,3.31,1.21,4.65,2.26"/>
    <line class="cls-4" x1="273.53" y1="301.64" x2="273.5" y2="302.58"/>
    <path class="cls-4" d="M199.43,179.33c-.18.53-.3,1.07-.4,1.62"/>
    <path class="cls-4" d="M194.69,194.33c-.07.13-.13.25-.2.38"/>
    <path class="cls-4" d="M219.56,165.86c.34-.04.67-.07,1.01-.11"/>
    <path class="cls-4" d="M386.25,266.99c-.25-.51-.67-.93-1.1-1.27"/>
    <path class="cls-4" d="M203.27,158.15c-.77-1.29-1.96-2.66-3.63-2.88"/>
    <path class="cls-4" d="M187.62,205.06c-.09-.15-.23-.29-.42-.32"/>
    <line class="cls-4" x1="315.48" y1="177.44" x2="313.97" y2="177.6"/>
    <line class="cls-4" x1="313.97" y1="177.6" x2="313.57" y2="177.4"/>
    <line class="cls-4" x1="312.61" y1="177.5" x2="311.76" y2="178.94"/>
    <path class="cls-4" d="M320.64,172.32c.12.23.18.46.17.72"/>
    <line class="cls-4" x1="308.86" y1="177.8" x2="308.95" y2="172.85"/>
    <path class="cls-4" d="M308.95,172.85c.01-.6.38-1.07.81-1.42.43-.35.96-.61,1.48-.8,1.04-.38,2.22-.55,3.32-.56,1.1-.02,2.27.12,3.34.44.92.27,2.25.85,2.74,1.83"/>
    <path class="cls-4" d="M313.84,177.37c.53.11,1.11.13,1.64.07"/>
    <line class="cls-4" x1="316.04" y1="177.38" x2="315.48" y2="177.44"/>
    <path class="cls-4" d="M324.46,185.44c.09-.03.17-.05.27-.03"/>
    <path class="cls-4" d="M339.97,208.26c-.02-.59-.12-1.41-.39-1.96"/>
    <path class="cls-4" d="M324.1,194.43c-.1-.19-.26-.42-.51-.45"/>
    <path class="cls-4" d="M322.03,201.3c.1.19.26.42.5.45"/>
    <path class="cls-4" d="M317.62,253.39c-.09-.17-.25-.38-.47-.41"/>
    <path class="cls-4" d="M315.54,260.35c.09.17.25.37.47.4"/>
    <line class="cls-4" x1="319.58" y1="267.44" x2="315.31" y2="266.81"/>
    <path class="cls-4" d="M319.58,267.44c2.48.36,4.72-1.41,6.21-2.97,1.6-1.68,2.99-3.82,4.09-5.84,2.23-4.06,4.01-8.83,5.33-13.24"/>
    <line class="cls-4" x1="324.73" y1="185.41" x2="329.01" y2="185.98"/>
    <path class="cls-4" d="M324.73,185.41c.09.01.17.05.25.1"/>
    <path class="cls-4" d="M329.01,185.98c-.1-.01-.18,0-.27.03"/>
    <path class="cls-4" d="M316.01,260.75c.14.02.27-.03.38-.1.18-.12.3-.27.42-.43.2-.28.34-.58.47-.9.26-.63.42-1.28.54-1.95.12-.67.18-1.33.17-2.01,0-.57-.07-1.44-.37-1.97"/>
    <path class="cls-4" d="M322.53,201.75c.14.02.27-.03.38-.1.18-.12.3-.26.41-.43.19-.28.34-.58.46-.89.25-.63.41-1.27.52-1.94.11-.66.17-1.32.16-2,0-.58-.08-1.42-.36-1.96"/>
    <path class="cls-4" d="M419.62,196.55c-.05.26-.06.61-.06.87"/>
    <line class="cls-4" x1="420.08" y1="207.27" x2="420.89" y2="209.18"/>
    <line class="cls-4" x1="421.38" y1="198.75" x2="421.4" y2="200.92"/>
    <line class="cls-4" x1="418.37" y1="172.19" x2="415.81" y2="166.03"/>
    <path class="cls-4" d="M415.81,166.03c-.14-.34-.33-.75-.55-1.05"/>
    <path class="cls-4" d="M414.46,194.02c.03.06.05.12.09.17.03.04.08.12.15.11"/>
    <path class="cls-4" d="M369.35,196.05c-.18-.39-.3-1.01-.36-1.42"/>
    <line class="cls-4" x1="369.35" y1="196.05" x2="370.58" y2="198.71"/>
    <path class="cls-4" d="M376.25,201.17c.2-.88.32-1.91.38-2.8"/>
    <path class="cls-4" d="M376.18,202.04c0-.26.02-.61.08-.86"/>
    <line class="cls-4" x1="376.14" y1="208.78" x2="376.18" y2="202.04"/>
    <path class="cls-4" d="M376.63,211.86c-.19-.41-.31-1.08-.38-1.52-.07-.52-.12-1.04-.11-1.56"/>
    <line class="cls-4" x1="376.63" y1="211.86" x2="377.82" y2="214.45"/>
    <line class="cls-4" x1="371.6" y1="195.81" x2="371.93" y2="196.53"/>
    <line class="cls-4" x1="379.72" y1="213.52" x2="380.04" y2="214.22"/>
    <path class="cls-4" d="M380.04,214.22c.03.06.06.12.09.17.03.04.09.11.15.1"/>
    <line class="cls-4" x1="421.06" y1="200.57" x2="420.86" y2="200.59"/>
    <path class="cls-4" d="M370.83,199c-.07,0-.13-.07-.16-.11-.04-.06-.07-.11-.1-.18"/>
    <line class="cls-4" x1="380.29" y1="214.49" x2="378.07" y2="214.73"/>
    <path class="cls-4" d="M380.29,214.49c.09,0,.14-.16.16-.22.03-.09.04-.18.06-.28.03-.19.04-.38.04-.57"/>
    <path class="cls-4" d="M378.07,214.73c-.06,0-.12-.06-.15-.1-.04-.05-.07-.11-.09-.17"/>
    <line class="cls-4" x1="371.93" y1="196.53" x2="371.94" y2="194.89"/>
    <path class="cls-4" d="M217.12,198.38c-.75-.31-1.31-.88-1.72-1.56"/>
    <path class="cls-4" d="M339.99,215.74c.08-2.49.08-4.98-.02-7.47"/>
    <path class="cls-4" d="M315.48,177.44c.17-.02.35-.05.52-.09"/>
    <line class="cls-4" x1="313.93" y1="180.06" x2="316.95" y2="179.73"/>
    <line class="cls-4" x1="316.95" y1="179.73" x2="317.8" y2="178.28"/>
    <path class="cls-4" d="M426.26,227.72c.37-2.47.53-4.94.5-7.44"/>
    <path class="cls-4" d="M373.7,221.06c-.06-1.2-.19-2.38-.37-3.57"/>
    <path class="cls-4" d="M425.19,200.78s.04-.05.04-.07c.02-.06.02-.13.02-.19.01-.25,0-.49,0-.74-.02-.34-.04-.68-.07-1.01-.06-.68-.13-1.35-.21-2.02-.14-1.19-.38-2.84-.63-4.02"/>
    <path class="cls-4" d="M181,176.28c-.14-.52-.29-1.04-.43-1.56"/>
    <path class="cls-4" d="M164.46,122.59c-.24-.27-.5-.51-.79-.74"/>
    <path class="cls-4" d="M390.73,196.87c-.03-.1-.06-.2-.09-.3"/>
    <line class="cls-4" x1="421.21" y1="200.94" x2="421.06" y2="200.57"/>
    <line class="cls-4" x1="413.63" y1="190.42" x2="413.63" y2="192.07"/>
    <path class="cls-4" d="M371.25,194.48c.06.39.18.96.35,1.33"/>
    <path class="cls-4" d="M416.11,189.41c.15.22.5.69.86.65"/>
    <path class="cls-4" d="M149.85,117.28c-15.1,1.76-30.29,4.39-45.05,8.04-14.68,3.63-29.5,8.42-43.33,14.6-13.62,6.08-27.48,14.06-38.64,24.22-5.62,5.12-10.72,10.92-14.66,17.49-3.95,6.58-6.61,13.75-7.41,21.45"/>
    <path class="cls-4" d="M190.2,137.36c6.61-.27,13.21-.35,19.83-.26"/>
    <line class="cls-4" x1="176.7" y1="132.62" x2="173.5" y2="127.31"/>
    <line class="cls-4" x1="144.25" y1="136.34" x2="140.92" y2="131.06"/>
    <path class="cls-4" d="M138.03,143.31c-5.81,1.13-11.57,2.44-17.29,3.96"/>
    <path class="cls-4" d="M98.2,140.85c-.73-.48-1.46-1.09-1.99-1.81-.53-.72-.87-1.6-.75-2.53"/>
    <path class="cls-4" d="M338.07,152.95c.32.66,1.21,1.05,1.82,1.24.71.21,1.49.3,2.23.29.73-.02,1.52-.13,2.21-.4.36-.14.68-.3.98-.55.28-.24.52-.56.52-.96"/>
    <line class="cls-4" x1="167.12" y1="125.02" x2="169.31" y2="128.63"/>
    <path class="cls-4" d="M169.31,128.63c.68,1.12.76,2.34.09,3.5-.29.5-.66.9-1.1,1.27-.52.44-1.07.78-1.68,1.08-2.14,1.07-4.81,1.51-7.15,1.58-2.41.07-4.97-.22-7.29-.91-1.17-.35-2.34-.81-3.4-1.42-.6-.34-1.15-.73-1.66-1.19-.41-.37-.77-.77-1.06-1.24"/>
    <line class="cls-4" x1="146.05" y1="131.31" x2="143.8" y2="127.71"/>
    <line class="cls-4" x1="167.1" y1="126.8" x2="164.91" y2="123.19"/>
    <line class="cls-4" x1="146.27" y1="125.34" x2="148.51" y2="128.94"/>
    <path class="cls-4" d="M148.51,128.94c.94,1.5,2.95,2.46,4.49,2.96,1.71.56,3.59.84,5.39.86,1.77.02,3.7-.2,5.39-.78.85-.29,1.71-.7,2.41-1.27.39-.31.74-.68.99-1.12.21-.37.34-.74.36-1.16"/>
    <path class="cls-4" d="M61.08,122.74c-.08-.19-.16-.38-.24-.57"/>
    <line class="cls-4" x1="145.76" y1="122.16" x2="146.5" y2="121.7"/>
    <path class="cls-4" d="M208.14,305.62c0-.06.01-.11.02-.17"/>
    <path class="cls-4" d="M137.57,292.19c.25.22.47.46.67.73"/>
    <path class="cls-4" d="M193.16,201.55c.88.12,1.72-.09,2.48-.49,1.04-.53,1.93-1.37,2.68-2.24,1.3-1.52,2.35-3.38,3.18-5.18,1.67-3.6,2.82-7.74,3.53-11.62.71-3.93,1.06-8.12.92-12.12-.07-2.04-.27-4.04-.67-6.05-.22-1.11-.5-2.19-.88-3.25-.31-.86-.66-1.68-1.13-2.46"/>
    <line class="cls-4" x1="188.74" y1="197.02" x2="199.51" y2="164.78"/>
    <path class="cls-4" d="M186.39,210.29c.11.02.2,0,.3-.06.13-.07.23-.16.32-.27.16-.19.28-.4.39-.62.21-.45.34-.91.43-1.4.09-.49.13-.97.11-1.46-.02-.43-.09-1.03-.33-1.42"/>
    <path class="cls-4" d="M209.03,180.28c.11.02.19,0,.29-.06.13-.07.22-.16.31-.27.16-.19.27-.39.37-.61.2-.44.32-.89.41-1.36.09-.47.12-.94.11-1.42-.02-.42-.09-1-.31-1.38"/>
    <path class="cls-4" d="M199.75,168.06s.06,0,.09-.01"/>
    <line class="cls-4" x1="313.93" y1="180.06" x2="313.97" y2="177.6"/>
    <line class="cls-4" x1="316.98" y1="177.86" x2="316.95" y2="179.73"/>
    <line class="cls-4" x1="311.76" y1="178.94" x2="313.93" y2="180.06"/>
    <path class="cls-4" d="M309.1,178.82c-.16-.32-.25-.66-.25-1.02"/>
    <path class="cls-4" d="M328.74,186.02c-.64.24-1.22.56-1.78.95-.69.48-1.3,1.02-1.88,1.62-.71.73-1.34,1.51-1.94,2.34-.71.98-1.35,2-1.94,3.05-.86,1.52-1.63,3.08-2.33,4.67-.8,1.81-1.51,3.65-2.15,5.52-2.38,6.89-4.03,14.52-4.98,21.72-.94,7.17-1.34,15.03-.74,22.27.16,1.99.4,3.96.76,5.93.31,1.7.69,3.38,1.21,5.03.38,1.2.82,2.37,1.38,3.49.45.91.96,1.76,1.61,2.54.5.61,1.09,1.17,1.77,1.59.57.35,1.18.59,1.84.69"/>
    <path class="cls-4" d="M419.62,196.55c.37-1.85.38-4.5.33-6.36-.06-2.13-.22-4.24-.47-6.36-.25-2.11-.57-4.21-1.02-6.29-.31-1.45-1.08-4.73-2.05-6"/>
    <line class="cls-4" x1="419.61" y1="204.18" x2="419.56" y2="197.42"/>
    <path class="cls-4" d="M419.61,204.18c0,.53.05,1.04.12,1.56.06.43.18,1.11.36,1.52"/>
    <line class="cls-4" x1="413.63" y1="192.07" x2="414.46" y2="194.02"/>
    <line class="cls-4" x1="414.91" y1="190.28" x2="414.92" y2="193.13"/>
    <line class="cls-4" x1="413.63" y1="192.07" x2="371.93" y2="196.53"/>
    <path class="cls-4" d="M414.7,194.31c.1-.01.14-.19.15-.25.02-.1.04-.2.05-.31.02-.21.03-.41.02-.62"/>
    <path class="cls-4" d="M215.4,196.82c-.31-.52-.52-1.06-.68-1.64-.2-.73-.31-1.45-.36-2.2-.09-1.33,0-2.7.2-4.01.39-2.61,1.24-5.28,2.32-7.67,1.08-2.37,2.54-4.81,4.31-6.75.88-.97,1.93-1.91,3.08-2.56.65-.36,1.36-.65,2.11-.75.59-.08,1.18-.03,1.74.2"/>
    <path class="cls-4" d="M45.95,93.96c1.24-4.62,1.99-9.61,2.44-14.36"/>
    <line class="cls-4" x1="199.84" y1="168.05" x2="199.84" y2="168.05"/>
    <path class="cls-4" d="M409.22,182.52c-1.35-2.3-2.74-4.57-4.15-6.84"/>
    <path class="cls-4" d="M416.11,189.41c-3.1-4.51-6.69-8.69-10.55-12.55-4.55-4.55-9.53-8.7-14.72-12.49-4.57-3.34-9.3-6.4-14.19-9.26-5.42-3.18-10.97-6.07-16.65-8.76-21.3-10.06-44.85-17.32-67.78-22.27-45.69-9.87-95.97-12.19-142.37-6.8"/>
    <path class="cls-4" d="M417.28,182.49c-.54-1.15-.96-2.77-1.18-4-.12-.69-.22-1.37-.26-2.07-.02-.35-.03-.69,0-1.04.02-.21.05-.46.13-.66.04-.1.12-.23.25-.25"/>
    <path class="cls-4" d="M415.07,164.08c.72,3.35,1.28,6.71,1.69,10.11"/>
    <path class="cls-4" d="M415.07,164.08c-.08-.37-.15-.75-.21-1.13-.03-.19-.05-.38-.06-.57,0-.1,0-.19,0-.29,0-.06.03-.23.12-.24"/>
    <path class="cls-4" d="M385.96,278.31c10.07-6.16,19.91-13.84,27.46-23.1"/>
    <path class="cls-4" d="M362.59,195.15c-4.11-4.99-8.95-9.38-14.07-13.27-6.34-4.81-13.26-8.96-20.34-12.55-6.15-3.12-12.45-5.84-18.9-8.28-7.09-2.67-14.27-4.96-21.58-6.96-27.48-7.5-57.33-10.93-85.72-10.78-3.66.02-7.32.1-10.98.24-3.58.14-7.16.33-10.73.58-7.19.51-14.33,1.26-21.46,2.27-14.18,2.02-28.57,5.14-42.2,9.64-7.29,2.41-14.52,5.27-21.42,8.66-6.02,2.96-11.92,6.39-17.33,10.38-3.46,2.55-6.76,5.35-9.76,8.44-2.62,2.7-5.03,5.64-7.06,8.81-3.45,5.38-5.77,11.32-6.35,17.76"/>
    <path class="cls-4" d="M282.51,292.75c5.28-.89,10.53-1.92,15.75-3.1"/>
    <line class="cls-4" x1="312.08" y1="291.28" x2="317.28" y2="294.67"/>
    <path class="cls-4" d="M183.28,119.79c8.92-.36,17.82-.43,26.75-.24"/>
    <path class="cls-4" d="M210.03,119.55c2.48.05,5.14.5,7.47,1.43,1.14.46,2.35,1.1,3.28,1.92.92.81,1.76,1.93,1.74,3.27"/>
    <path class="cls-4" d="M123.91,126.66c-7.77,1.55-15.47,3.36-23.1,5.5"/>
    <path class="cls-4" d="M123.91,126.66c2.93-.58,6.22-.51,9.13.1,1.48.31,2.98.78,4.35,1.45,1.29.63,2.73,1.58,3.53,2.86"/>
    <line class="cls-4" x1="32.31" y1="211.9" x2="22.27" y2="211.14"/>
    <path class="cls-4" d="M75.57,260.02c-7.46-5.04-14.71-11.07-20.5-18.07-5.77-6.97-10.34-15.22-11.68-24.43"/>
    <path class="cls-4" d="M345.73,152.1c-.32-.66-1.21-1.06-1.82-1.24-.71-.22-1.5-.3-2.23-.29-.73.02-1.52.13-2.21.4-.36.14-.68.3-.98.55-.28.24-.52.56-.53.96"/>
    <path class="cls-4" d="M236.29,297.34c-5.78.2-11.56.27-17.34.2"/>
    <path class="cls-4" d="M236.29,297.34c2.05-.07,4.22.12,6.22.61,1,.24,2.03.59,2.95,1.05.86.43,1.87,1.08,2.41,1.94"/>
    <path class="cls-4" d="M60.97,122.79c1.74-.85,3.5-1.67,5.27-2.47"/>
    <path class="cls-4" d="M369.98,133.25c5.66,3.18,11.13,6.61,16.4,10.41"/>
    <path class="cls-4" d="M373.3,217.32c0-6.3,0-12.6,0-18.91"/>
    <path class="cls-4" d="M89.38,27.51c.32,1.81.64,3.62.94,5.44.3,1.82.58,3.63.85,5.45.52,3.65.96,7.29,1.2,10.97.12,1.84.19,3.67.18,5.51,0,1.84-.09,3.68-.29,5.51-.19,1.83-.49,3.64-.92,5.44-.43,1.8-.98,3.54-1.64,5.27"/>
    <line class="cls-4" x1="371.2" y1="194.39" x2="362.72" y2="195.3"/>
    <path class="cls-4" d="M47.96,128.98c-.06.31-.12.62-.18.94"/>
    <path class="cls-4" d="M49.33,170.44c-.26-.35-.55-.66-.88-.94"/>
    <path class="cls-4" d="M323.77,139.56c-.36-.74-.99-1.35-1.64-1.83"/>
    <path class="cls-4" d="M30.25,131.28c1.73-2.91,3.37-5.87,4.91-8.88,1.54-3.02,2.96-6.09,4.27-9.21s2.5-6.29,3.58-9.5c1.08-3.21,2.06-6.45,2.94-9.72"/>
    <path class="cls-4" d="M14.35,158.3c2.37-4.67,4.99-9.18,7.71-13.65,2.72-4.47,5.51-8.88,8.18-13.38"/>
    <path class="cls-4" d="M76.44,115.47s0,0,0,0c0,0,.01,0,.02.01.02.02.04.03.06.05.03.02.05.04.08.06.05.04.11.09.16.13l.32.26"/>
    <path class="cls-4" d="M238.54,96.49c26.15,2.24,52.85,6.9,78.07,14.34,12.64,3.73,25.26,8.27,37.28,13.71,11.95,5.4,23.82,11.92,34.46,19.67"/>
    <path class="cls-4" d="M388.35,144.22c.58.43,1.07,1.02,1.4,1.66"/>
    <path class="cls-4" d="M95.46,136.51c.16-1.26,1.08-2.22,2.04-2.88.98-.67,2.18-1.15,3.31-1.47"/>
    <path class="cls-4" d="M172.96,125.16c.11-1.08.76-1.96,1.53-2.63.78-.68,1.74-1.18,2.69-1.56,1.9-.75,4.08-1.11,6.1-1.19"/>
    <path class="cls-4" d="M276.04,296.79c.04-.7.45-1.3.92-1.75.48-.46,1.09-.84,1.68-1.12,1.18-.58,2.59-.95,3.87-1.16"/>
    <line class="cls-4" x1="416.97" y1="190.06" x2="371.73" y2="194.91"/>
    <path class="cls-4" d="M371.73,194.91c-.13.01-.25-.11-.32-.19-.08-.1-.15-.21-.21-.33"/>
    <line class="cls-4" x1="420.83" y1="200.98" x2="425.05" y2="200.54"/>
    <path class="cls-4" d="M425.05,200.54s-.02.06-.02.07c0,.03,0,.05,0,.08,0,.05,0,.1,0,.15,0,.1,0,.21.01.31"/>
    <path class="cls-4" d="M303.49,138.09c1.39-.94,3.14-1.53,4.75-1.88,1.66-.36,3.41-.5,5.11-.47,1.69.03,3.44.24,5.08.65,1.6.4,3.32,1.06,4.68,2.05"/>
    <path class="cls-4" d="M304.49,137.42c-1.01.68-2.04,1.73-2.07,3.1"/>
    <path class="cls-4" d="M118.95,291.15c1.29-.89,3.08-1.38,4.57-1.62,1.59-.26,3.27-.33,4.87-.24,1.6.09,3.26.34,4.81.77,1.45.41,3.18,1.09,4.36,2.13"/>
    <path class="cls-4" d="M119.94,290.47c-.63.44-1.28,1.1-1.34,1.95"/>
    <line class="cls-4" x1="273.22" y1="301.38" x2="274.31" y2="302.29"/>
    <path class="cls-4" d="M107.59,162.69c9.16,10.1,22.16,17.63,34.36,22.88"/>
    <path class="cls-4" d="M189.68,198.88c.76,1.22,1.91,2.46,3.48,2.68"/>
    <path class="cls-4" d="M199.72,170.22l.19-.57"/>
    <path class="cls-4" d="M217.43,168.25l-4.65,14.12c-.78,2.36-1.55,4.71-2.33,7.07-.39,1.17-.77,2.34-1.16,3.51-.39,1.18-.77,2.37-1.19,3.55-1.59,4.51-3.76,9.36-6.49,13.34-.75,1.09-1.55,2.13-2.44,3.12-.78.86-1.6,1.66-2.53,2.37-1.04.8-2.22,1.5-3.49,1.89-1.11.34-2.26.43-3.41.17"/>
    <path class="cls-4" d="M193.62,196.14c.38-.59.74-1.2,1.07-1.82"/>
    <path class="cls-4" d="M190.31,199.77c1.32-.91,2.45-2.31,3.3-3.63"/>
    <path class="cls-4" d="M199.02,180.97c.12-.68.23-1.37.33-2.06"/>
    <line class="cls-4" x1="193.74" y1="158.97" x2="197.8" y2="158.51"/>
    <path class="cls-4" d="M220.61,165.74c-.94.1-2.03.49-2.5,1.45"/>
    <path class="cls-4" d="M193.4,147.38c-.11-.02-.2,0-.3.06-.13.07-.23.16-.32.27-.16.19-.28.4-.38.62-.21.45-.33.91-.42,1.39-.09.48-.12.96-.1,1.45.02.43.1,1.02.33,1.41"/>
    <path class="cls-4" d="M187.2,204.74c-.11-.02-.2,0-.3.06-.13.07-.23.16-.32.27-.16.19-.28.4-.39.62-.21.45-.34.91-.43,1.4-.09.49-.13.97-.11,1.46.02.43.09,1.03.33,1.42"/>
    <path class="cls-4" d="M209.79,174.85c-.11-.01-.19.01-.29.06-.13.07-.22.16-.31.27-.16.19-.27.39-.37.61-.2.44-.32.89-.41,1.37-.08.47-.12.94-.11,1.42.02.42.09,1,.31,1.38"/>
    <line class="cls-4" x1="317.8" y1="178.28" x2="315.64" y2="177.17"/>
    <line class="cls-4" x1="315.64" y1="177.17" x2="312.61" y2="177.5"/>
    <path class="cls-4" d="M320.73,178c0,.6-.28,1.12-.68,1.54-.39.42-.91.73-1.42.96-1.03.46-2.25.66-3.36.7-1.13.04-2.32-.1-3.41-.44-1-.31-2.22-.91-2.76-1.94"/>
    <line class="cls-4" x1="320.81" y1="173.05" x2="320.73" y2="178"/>
    <path class="cls-4" d="M324.46,185.44c-.64.23-1.22.56-1.78.94-.69.48-1.3,1.02-1.88,1.62-.71.73-1.34,1.51-1.94,2.33-.71.98-1.35,1.99-1.95,3.04-.87,1.52-1.63,3.07-2.34,4.67-.8,1.81-1.51,3.65-2.16,5.52-2.39,6.89-4.04,14.52-4.99,21.72-.94,7.17-1.33,15.03-.73,22.27.17,1.99.41,3.96.77,5.93.31,1.7.7,3.38,1.22,5.03.38,1.2.82,2.36,1.39,3.48.46.91.97,1.75,1.62,2.54.51.61,1.09,1.17,1.78,1.58.57.35,1.19.59,1.85.69"/>
    <line class="cls-4" x1="329.6" y1="186.52" x2="339.58" y2="206.31"/>
    <path class="cls-4" d="M329.6,186.52c-.11-.22-.3-.5-.59-.54"/>
    <path class="cls-4" d="M317.15,252.98c-.14-.02-.27.03-.38.1-.18.12-.3.27-.42.44-.2.28-.34.58-.47.9-.26.63-.42,1.28-.54,1.95-.12.67-.18,1.34-.17,2.02,0,.57.07,1.44.37,1.97"/>
    <path class="cls-4" d="M323.6,193.97c-.14-.02-.27.03-.38.1-.18.12-.3.26-.41.43-.19.28-.33.58-.46.89-.25.63-.41,1.27-.52,1.94s-.17,1.33-.16,2c0,.58.08,1.42.36,1.96"/>
    <line class="cls-4" x1="420.89" y1="209.18" x2="420.83" y2="201.02"/>
    <path class="cls-4" d="M420.83,201.02c0-.13,0-.27.02-.4,0-.04.03-.16.07-.18.03-.02.06.03.08.05.02.03.03.06.05.09"/>
    <line class="cls-4" x1="421.38" y1="198.75" x2="420.78" y2="193.1"/>
    <line class="cls-4" x1="420.78" y1="193.1" x2="420.74" y2="187.57"/>
    <path class="cls-4" d="M420.74,187.57c-.02-2.51-.26-5.3-.61-7.78-.31-2.18-.91-5.52-1.76-7.59"/>
    <line class="cls-4" x1="379.72" y1="213.52" x2="420.89" y2="209.18"/>
    <line class="cls-4" x1="414.7" y1="194.31" x2="370.83" y2="199"/>
    <path class="cls-4" d="M331.18,212.74c7.29,2.92,14.97,4.83,22.75,5.82"/>
    <line class="cls-4" x1="228.13" y1="171.43" x2="311.91" y2="205.02"/>
    <path class="cls-4" d="M350.09,248.26c-10.31-1.35-20.45-3.96-30.08-7.89"/>
    <line class="cls-4" x1="306.53" y1="234.87" x2="217.12" y2="198.38"/>
  </g>
  <g id="Make2D::可见线::正切线">
    <line class="cls-4" x1="370.58" y1="198.71" x2="414.46" y2="194.02"/>
    <line class="cls-4" x1="328.74" y1="186.02" x2="324.46" y2="185.44"/>
    <line class="cls-4" x1="320.64" y1="172.32" x2="320.56" y2="177.27"/>
    <path class="cls-4" d="M319.76,178.07c.26.5.18,1.01-.15,1.45-.31.41-.78.7-1.22.91-.91.42-2,.61-2.99.66-1,.05-2.08-.05-3.05-.32-.83-.23-2.08-.73-2.53-1.61"/>
    <path class="cls-4" d="M217.72,168.18s0-.05-.02-.08"/>
    <path class="cls-4" d="M218.11,167.2s.02-.09,0-.13"/>
    <path class="cls-4" d="M199.26,179.53c-.33.23-.94.19-1.29.14"/>
    <path class="cls-4" d="M189.74,217.41c-1.43-.32-2.63-1.11-3.63-2.12-1.3-1.32-2.26-2.97-3-4.63-.62-1.4-1.11-2.84-1.52-4.32-.47-1.68-.82-3.38-1.1-5.11-1.03-6.3-1.1-13.24-.64-19.58.47-6.48,1.53-13.07,3.17-19.36.42-1.62.89-3.23,1.4-4.82.34-1.07,1.17-3.47,1.53-4.54,1.05-3.1,2.1-6.2,3.15-9.3"/>
    <path class="cls-4" d="M218.12,167.06c.48-.95,1.54-1.34,2.49-1.44.99-.1,2.03.08,2.95.39"/>
    <path class="cls-4" d="M189.74,143.6c-.91,2.69-1.82,5.38-2.73,8.08-.46,1.35-.91,2.7-1.37,4.05-.5,1.49-.88,2.65-1.32,4.16-.79,2.71-1.45,5.44-2,8.21-.57,2.85-1.02,5.71-1.36,8.6-.67,5.64-.92,11.46-.6,17.14.17,3.1.53,6.28,1.15,9.33.51,2.49,1.23,5.07,2.29,7.4.7,1.53,1.58,3.04,2.76,4.26.92.96,2.02,1.74,3.32,2.11,1.22.36,2.46.3,3.67-.05,1.4-.41,2.67-1.19,3.79-2.09.92-.75,1.75-1.57,2.52-2.46.89-1.02,1.68-2.09,2.43-3.21,1.76-2.64,3.23-5.58,4.46-8.49.54-1.28,1.04-2.57,1.5-3.87.49-1.37.93-2.75,1.38-4.13l2.71-8.22c1.79-5.44,3.58-10.87,5.37-16.3"/>
    <path class="cls-4" d="M88.9,71.98c.15-.39.44-.69.8-.88"/>
    <path class="cls-4" d="M77.09,115.98c-15.25,5.74-30.86,13.42-43.92,23.43-6.56,5.03-12.74,10.84-17.76,17.46-5.03,6.63-8.93,14.1-10.79,22.31"/>
    <path class="cls-4" d="M31.42,131.3c-.2-.07-.39-.12-.6-.15-.15-.02-.47-.05-.57.12"/>
    <path class="cls-4" d="M30.22,131.41c1.73-2.92,3.38-5.89,4.92-8.92,1.54-3.03,2.96-6.11,4.27-9.25,1.31-3.14,2.5-6.31,3.59-9.53,1.09-3.22,2.06-6.47,2.94-9.75"/>
    <line class="cls-4" x1="273.22" y1="301.58" x2="275.19" y2="303.28"/>
    <line class="cls-4" x1="169.31" y1="128.63" x2="167.1" y2="126.8"/>
    <line class="cls-4" x1="386.25" y1="266.99" x2="387.31" y2="267.86"/>
    <line class="cls-4" x1="362.59" y1="195.15" x2="416.11" y2="189.41"/>
    <path class="cls-4" d="M389.75,145.87c-10.81-7.99-22.97-14.69-35.17-20.22-12.29-5.56-25.2-10.18-38.12-13.97-25.8-7.56-53.14-12.23-79.88-14.39"/>
    <path class="cls-4" d="M191.47,119.54c-.42,5.94-.85,11.88-1.27,17.82"/>
    <path class="cls-4" d="M68.02,254.48c-.42,4.8-.84,9.59-1.25,14.39"/>
    <line class="cls-4" x1="306.58" y1="234.01" x2="215.4" y2="196.82"/>
    <line class="cls-4" x1="420.08" y1="207.27" x2="376.63" y2="211.86"/>
    <line class="cls-4" x1="376.25" y1="201.17" x2="419.62" y2="196.55"/>
    <line class="cls-4" x1="419.56" y1="197.42" x2="376.18" y2="202.04"/>
    <line class="cls-4" x1="376.14" y1="208.78" x2="419.61" y2="204.18"/>
    <path class="cls-4" d="M308.86,177.8c.01-.6.39-1.07.81-1.42.43-.35.96-.61,1.48-.8,1.04-.38,2.22-.55,3.32-.56,1.1-.02,2.28.12,3.34.44.92.27,2.25.85,2.75,1.82"/>
    <path class="cls-4" d="M309.81,179.16c-.26-.5-.19-1.01.14-1.45.31-.41.78-.71,1.22-.91.91-.43,2.01-.62,2.99-.66,1-.05,2.08.05,3.06.32.83.23,2.08.73,2.53,1.62"/>
    <line class="cls-4" x1="197.97" y1="179.68" x2="199.84" y2="174.08"/>
    <line class="cls-4" x1="191.66" y1="198.62" x2="192.24" y2="196.89"/>
    <line class="cls-4" x1="199.83" y1="167.82" x2="189.54" y2="198.65"/>
    <path class="cls-4" d="M217.7,168.1c.12-.36.25-.7.41-1.04"/>
    <line class="cls-4" x1="275.15" y1="94.02" x2="274.94" y2="101.18"/>
    <path class="cls-4" d="M333.24,112.66c.04-2.89-.02-5.78-.18-8.66-.16-2.95-.41-5.88-.76-8.81-.34-2.86-.78-5.7-1.32-8.52-.56-2.91-1.21-5.79-2-8.65-.76-2.79-1.64-5.53-2.66-8.23-1.05-2.77-2.24-5.46-3.63-8.07-1.37-2.56-2.96-5.09-4.79-7.36-1.81-2.24-3.92-4.33-6.35-5.92-2.59-1.7-5.51-2.8-8.66-2.88-2.81-.08-5.47.67-7.92,1.98-2.55,1.37-4.79,3.33-6.68,5.48-1.93,2.2-3.59,4.69-4.98,7.25-1.39,2.55-2.54,5.18-3.52,7.92-1,2.78-1.81,5.6-2.47,8.48-.64,2.82-1.13,5.65-1.48,8.51-.36,2.94-.58,5.88-.67,8.83"/>
    <path class="cls-4" d="M176.7,132.62c.3-3.94.6-7.87.9-11.81"/>
    <path class="cls-4" d="M173.91,123.11c-.14,1.4-.28,2.8-.41,4.2"/>
    <path class="cls-4" d="M138.03,143.31c.15-4.84.3-9.67.46-14.5"/>
    <line class="cls-4" x1="149.03" y1="120.82" x2="148.51" y2="128.94"/>
    <line class="cls-4" x1="137.28" y1="292.06" x2="138.24" y2="292.92"/>
    <line class="cls-4" x1="245.69" y1="97.16" x2="247.32" y2="53.93"/>
    <path class="cls-4" d="M247.32,53.93c-.96,3.5-2.04,6.96-3.01,10.45-1,3.59-1.82,6.92-2.55,10.58-1.41,7.05-2.3,14.4-2.92,21.55"/>
    <path class="cls-4" d="M236.58,97.3c.61-7.53,1.5-15.38,2.93-22.81.74-3.86,1.58-7.41,2.64-11.19,1.03-3.7,2.19-7.35,3.24-11.04"/>
    <line class="cls-4" x1="272.03" y1="100.68" x2="272.25" y2="93.21"/>
    <line class="cls-4" x1="265.91" y1="5.44" x2="262.82" y2="99.26"/>
    <path class="cls-4" d="M272.25,93.21c.05-1.56.13-3.11.26-4.66.12-1.53.29-3.05.49-4.58.4-2.99.95-5.95,1.68-8.88.74-3,1.65-5.92,2.79-8.79,1.12-2.83,2.42-5.54,3.99-8.14,1.56-2.59,3.41-5.07,5.54-7.23,2.14-2.16,4.62-4.05,7.42-5.31,2.65-1.19,5.46-1.78,8.37-1.6,3.28.2,6.33,1.33,9.08,3.05,2.59,1.62,4.88,3.74,6.87,6.04,1,1.16,1.93,2.38,2.8,3.64.86,1.25,1.67,2.53,2.42,3.85,1.55,2.7,2.87,5.48,4.05,8.36,1.14,2.79,2.12,5.62,2.98,8.5.45,1.5.86,3,1.23,4.52.37,1.5.72,3,1.03,4.51.61,2.94,1.11,5.89,1.5,8.87.4,3.06.7,6.13.88,9.21.18,3.01.25,6.02.22,9.04"/>
    <path class="cls-4" d="M193.09,196.9c-.29.04-.57.03-.86-.01"/>
    <line class="cls-4" x1="210.41" y1="143.37" x2="223.56" y2="166.02"/>
    <path class="cls-4" d="M354.72,187c-5.61,4.91-11.96,9.12-18.48,12.69"/>
    <path class="cls-4" d="M270.41,220.12c-33.08,4.86-68.86,3.88-101.65-2.48-16.53-3.2-33.31-7.98-48.85-14.61-15.08-6.44-30.97-15.5-42.63-27.53"/>
    <line class="cls-4" x1="420.77" y1="191.68" x2="424.11" y2="191.32"/>
    <line class="cls-4" x1="420.86" y1="204.81" x2="425.2" y2="204.35"/>
    <path class="cls-4" d="M202.97,208.05c13.04,1.09,26.28,1.3,39.35.61"/>
    <path class="cls-4" d="M297.97,199.43c6.68-2,13.2-4.33,19.59-7.15"/>
    <path class="cls-4" d="M329.47,186.31c4.51-2.57,8.9-5.48,12.95-8.74"/>
    <line class="cls-4" x1="419.31" y1="175.29" x2="420.84" y2="175.13"/>
    <path class="cls-4" d="M324.47,216.29c.83-1,1.83-2.01,2.93-2.74,1.02-.68,2.47-1.33,3.78-.81"/>
    <path class="cls-4" d="M322.07,219.76c.72-1.22,1.5-2.38,2.4-3.47"/>
    <line class="cls-4" x1="371.6" y1="195.81" x2="369.35" y2="196.05"/>
    <line class="cls-4" x1="377.82" y1="214.45" x2="380.04" y2="214.22"/>
    <line class="cls-4" x1="322.99" y1="194.28" x2="324.1" y2="194.43"/>
    <line class="cls-4" x1="316.58" y1="253.24" x2="317.62" y2="253.39"/>
    <path class="cls-4" d="M309.1,178.82c.14.26.43.36.71.33"/>
    <path class="cls-4" d="M320.56,177.28c.12.23.18.46.17.72"/>
    <path class="cls-4" d="M320.56,177.28c0,.43-.4.75-.8.79"/>
    <line class="cls-4" x1="186.71" y1="204.93" x2="187.62" y2="205.06"/>
    <line class="cls-4" x1="197.19" y1="157.34" x2="203.27" y2="158.15"/>
    <path class="cls-4" d="M192.24,196.89c.5-1.49,1.35-3.02,2.17-4.33.86-1.37,1.79-2.69,2.72-4.02"/>
    <line class="cls-4" x1="218.12" y1="167.06" x2="204.2" y2="143.31"/>
    <line class="cls-4" x1="192.88" y1="147.61" x2="193.85" y2="147.74"/>
    <line class="cls-4" x1="209.3" y1="175.06" x2="210.2" y2="175.18"/>
    <line class="cls-4" x1="198.23" y1="159.54" x2="192.96" y2="160.13"/>
    <path class="cls-4" d="M130.9,156.99c-1.26-1.26-2.4-2.68-3.27-4.25"/>
    <path class="cls-4" d="M199.24,163.18c-2.78.31-5.55.62-8.33.93"/>
    <path class="cls-4" d="M223.56,166.02c-.94-.25-1.97-.38-2.95-.27"/>
    <path class="cls-4" d="M223.56,166.02c-1.66.18-3.32.37-4.99.55"/>
    <path class="cls-4" d="M197.13,188.54c-.02-2.77-.07-6.13.85-8.87"/>
    <path class="cls-4" d="M91.61,60.01c.22-2.72.27-5.43.21-8.15-.06-2.72-.23-5.43-.47-8.15-.46-5.32-1.19-10.92-1.97-16.2"/>
    <path class="cls-4" d="M74.89,116.07c.17-2.22.29-4.45.37-6.67.07-2.13.09-4.26.06-6.39-.04-2.24-.13-4.48-.31-6.72-.17-2.11-.4-4.21-.73-6.31-.37-2.33-.84-4.62-1.51-6.89-.56-1.86-1.3-3.85-2.31-5.53-.52-.87-1.17-1.74-1.95-2.4-.67-.57-1.47-.99-2.38-1.04-1.03-.06-1.96.35-2.75.94-.54.39-1,.85-1.44,1.35-.52.6-.98,1.24-1.41,1.9-1.09,1.7-2,3.64-2.75,5.5-.87,2.14-1.6,4.32-2.27,6.53-.62,2.08-1.18,4.17-1.7,6.28-.52,2.13-.99,4.26-1.44,6.41-.88,4.27-1.64,8.56-2.32,12.86-.34,2.18-.67,4.36-.98,6.54-.3,2.13-.58,4.27-.85,6.4"/>
    <line class="cls-4" x1="424.34" y1="192.73" x2="420.78" y2="193.11"/>
    <path class="cls-4" d="M89.7,71.1c-1.39,3.64-2.92,7.23-4.32,10.87-.7,1.82-1.37,3.65-1.99,5.5-.62,1.85-1.2,3.71-1.73,5.59-.53,1.88-1.01,3.77-1.46,5.66s-.85,3.81-1.22,5.72c-.74,3.83-1.36,7.68-1.89,11.54"/>
    <line class="cls-4" x1="425.04" y1="201.15" x2="420.84" y2="201.59"/>
    <path class="cls-4" d="M90.61,167.06c8.59,8.17,19.2,14.76,29.75,19.89,10.71,5.21,22.19,9.33,33.64,12.51"/>
    <line class="cls-4" x1="68.74" y1="182.86" x2="63.96" y2="238.72"/>
    <line class="cls-4" x1="146.27" y1="125.34" x2="143.8" y2="127.71"/>
    <line class="cls-4" x1="49.33" y1="170.44" x2="50.35" y2="171.34"/>
    <line class="cls-4" x1="323.77" y1="139.56" x2="324.93" y2="140.47"/>
    <path class="cls-4" d="M51.15,67.54c-.73,5.55-1.63,11.07-2.74,16.56-1.11,5.49-2.43,10.92-4.03,16.3-.8,2.68-1.66,5.34-2.59,7.98-.94,2.64-1.94,5.25-3.03,7.83-1.08,2.58-2.24,5.13-3.47,7.64-1.23,2.52-2.52,4.99-3.88,7.45"/>
    <path class="cls-4" d="M265.91,5.44c-1.5,4.06-3.06,8.1-4.65,12.13-.8,2.01-1.61,4.02-2.42,6.02s-1.64,4.01-2.47,6c-.83,2-1.66,4-2.48,6-.82,2-1.64,4.01-2.44,6.02-1.55,3.94-3.11,8.18-4.12,12.31"/>
    <path class="cls-4" d="M364.88,92.54c-1.26-2.37-2.51-4.76-3.72-7.16-1.21-2.4-2.37-4.83-3.48-7.28s-2.17-4.92-3.16-7.42c-1-2.5-1.94-5.02-2.83-7.56-.89-2.54-1.72-5.1-2.5-7.67-.78-2.57-1.51-5.16-2.19-7.76-1.36-5.21-2.53-10.45-3.54-15.74"/>
    <path class="cls-4" d="M386.97,143.22c-.7-4.61-1.68-9.13-3.03-13.6-.67-2.23-1.42-4.42-2.27-6.59s-1.77-4.3-2.77-6.4c-1-2.1-2.08-4.16-3.21-6.19-1.13-2.03-2.32-4.03-3.52-6.02-2.42-3.97-4.93-7.88-7.29-11.89"/>
    <line class="cls-4" x1="364.88" y1="92.54" x2="364.72" y2="129.77"/>
    <line class="cls-4" x1="425.92" y1="211.96" x2="373.33" y2="217.5"/>
    <path class="cls-4" d="M245.38,52.25c.58-2.06,1.31-4.05,2.1-6.04.79-1.98,1.65-3.93,2.54-5.86,1.52-3.32,3.9-8.27,5.46-11.57,1.82-3.85,3.62-7.71,5.36-11.6.87-1.94,1.73-3.9,2.58-5.85.73-1.69,1.79-4.18,2.49-5.89"/>
    <path class="cls-4" d="M367.08,92.25c2.5,4.22,5.16,8.33,7.7,12.52,1.27,2.1,2.51,4.21,3.68,6.36,1.18,2.15,2.29,4.33,3.32,6.56,1.03,2.23,1.97,4.49,2.82,6.79s1.6,4.63,2.26,6.99c1.32,4.74,2.25,9.52,2.89,14.4"/>
    <path class="cls-4" d="M343.46,31.94c.56,2.65,1.17,5.3,1.83,7.93.66,2.63,1.36,5.25,2.12,7.86.76,2.61,1.56,5.19,2.43,7.77.87,2.57,1.79,5.13,2.77,7.66.98,2.53,2.02,5.03,3.12,7.51,1.1,2.48,2.26,4.93,3.48,7.36,1.22,2.42,2.49,4.82,3.81,7.19,1.32,2.37,2.68,4.71,4.07,7.05"/>
    <line class="cls-4" x1="342.54" y1="119.74" x2="343.46" y2="31.94"/>
    <line class="cls-4" x1="51.15" y1="67.54" x2="45.27" y2="130.59"/>
    <line class="cls-4" x1="84.82" y1="82.13" x2="89.38" y2="27.51"/>
    <path class="cls-4" d="M47.19,129.43c.29-2.22.59-4.44.91-6.66.33-2.28.68-4.55,1.05-6.83.36-2.23.75-4.46,1.16-6.68.42-2.25.86-4.49,1.34-6.72.48-2.23.99-4.45,1.56-6.66.56-2.2,1.17-4.38,1.85-6.54.72-2.29,1.52-4.54,2.46-6.75.82-1.93,1.81-3.94,2.98-5.7.46-.69.95-1.35,1.51-1.96.47-.52.97-1,1.53-1.42.86-.63,1.84-1.09,2.95-1.1.95,0,1.81.33,2.57.86.84.59,1.55,1.4,2.13,2.23,1.17,1.67,2.03,3.72,2.67,5.63.77,2.31,1.34,4.77,1.75,7.16.77,4.43,1.12,9.08,1.21,13.57.04,2.22.02,4.44-.05,6.65-.08,2.33-.21,4.65-.4,6.97"/>
    <line class="cls-4" x1="333.2" y1="116.23" x2="333.24" y2="112.66"/>
    <line class="cls-4" x1="425.03" y1="200.59" x2="425.08" y2="200.58"/>
    <path class="cls-4" d="M293.69,290.65c-.22,4.92-.43,9.84-.65,14.76"/>
    <path class="cls-4" d="M276.56,295.49l-.16,2.63"/>
    <path class="cls-4" d="M219.82,297.55c-.33,4.36-.65,8.71-.98,13.07"/>
    <path class="cls-4" d="M221.81,124.04c-.04,2.61-.08,5.21-.12,7.82"/>
    <path class="cls-4" d="M122.28,126.99c-.51,6.76-1.02,13.52-1.53,20.29"/>
    <path class="cls-4" d="M99.21,132.71c-.34,2.71-.67,5.42-1.01,8.13"/>
    <path class="cls-4" d="M14.95,157.25c2.31-4.45,4.84-8.75,7.45-13.03,2.6-4.27,5.27-8.5,7.83-12.81"/>
    <line class="cls-4" x1="146.48" y1="122.03" x2="146.27" y2="125.34"/>
    <line class="cls-4" x1="257.06" y1="301.14" x2="256.99" y2="303.18"/>
    <line class="cls-4" x1="30.47" y1="141.08" x2="31.42" y2="131.3"/>
    <line class="cls-4" x1="367.23" y1="266.93" x2="367.23" y2="268.91"/>
    <line class="cls-4" x1="316.06" y1="135.94" x2="315.88" y2="146.01"/>
    <line class="cls-4" x1="131.66" y1="289.69" x2="131.17" y2="297.07"/>
    <line class="cls-4" x1="29.7" y1="168.71" x2="29.32" y2="172.69"/>
    <path class="cls-4" d="M45.95,93.96c1.17-4.34,2.16-8.71,3.02-13.13.86-4.41,1.58-8.84,2.18-13.29"/>
    <path class="cls-4" d="M313.72,301.29c-.08-3.03-.16-6.07-.23-9.1"/>
    <path class="cls-4" d="M278.8,302.12c.13-2.82.26-5.63.39-8.45"/>
    <path class="cls-4" d="M241.65,310.45c0-4.23-.02-8.46-.03-12.69"/>
    <path class="cls-4" d="M210.03,137.11c.12-5.85.24-11.7.36-17.54"/>
    <path class="cls-4" d="M104.84,145.2c.39-4.82.78-9.63,1.17-14.45"/>
    <line class="cls-4" x1="415.42" y1="162.42" x2="414.82" y2="162.48"/>
    <line class="cls-4" x1="422.34" y1="181.11" x2="420.33" y2="181.32"/>
    <path class="cls-4" d="M50.69,267.24c.83-9.23,1.66-18.45,2.49-27.67"/>
    <path class="cls-4" d="M73.92,266.45c.1-2.45.21-4.9.31-7.35"/>
    <line class="cls-4" x1="256.99" y1="303.18" x2="254.9" y2="305.28"/>
    <line class="cls-4" x1="148.51" y1="128.94" x2="146.05" y2="131.31"/>
    <line class="cls-4" x1="167.12" y1="125.02" x2="164.91" y2="123.19"/>
    <line class="cls-4" x1="367.23" y1="268.91" x2="366.17" y2="269.98"/>
    <line class="cls-4" x1="119.08" y1="293.9" x2="118.01" y2="294.96"/>
    <line class="cls-4" x1="29.32" y1="172.69" x2="28.11" y2="173.84"/>
    <line class="cls-4" x1="302.75" y1="141.92" x2="301.57" y2="143.1"/>
    <path class="cls-4" d="M31.42,131.3c-2.13,3.59-4.34,7.12-6.53,10.67s-4.34,7.12-6.38,10.76"/>
    <line class="cls-4" x1="338.07" y1="152.95" x2="338.08" y2="152.02"/>
    <line class="cls-4" x1="335.85" y1="113.62" x2="335.8" y2="117.17"/>
  </g>
  <g id="_图层_3" data-name="图层 3">
    <path class="cls-1" d="M217.64,179.32c-7.28-1.01-15.96-1.61-20.03-7.41-5.1-7.26-.96-14.74-.74-15.12"/>
    <path class="cls-7" d="M219.44,176.47c-1.94-.92-5.02-2.25-8.94-3.39-9.37-2.71-15-1.81-17.14-5.17-.71-1.12-1.27-3.07.11-6.62"/>
    <path class="cls-6" d="M215.21,184.16c-2.74-.95-5.03-1.32-6.61-1.47-4.92-.47-7.53.63-9.38-1.2-1-.99-.71-1.78-2.32-3.4-.67-.68-1.66-1.67-3.16-2.1-2.48-.71-4.71.59-5.27.94"/>
    <path class="cls-5" d="M214.92,185.18c-2.74-.95-5.03-1.32-6.61-1.47-4.92-.47-7.53.63-9.38-1.2-1-.99-.71-1.78-2.32-3.4-.67-.68-1.66-1.67-3.16-2.1-2.48-.71-4.71.59-5.27.94"/>
    <path class="cls-7" d="M221.64,174.49c-2-.94-5.16-2.29-9.19-3.45-9.62-2.78-15.39-1.91-17.6-5.3-.73-1.12-1.32-3.09.06-6.63"/>
    <path class="cls-1" d="M219.33,176.85c-7.03-.98-15.41-1.58-19.36-7.15-4.94-6.97-.95-14.15-.74-14.51"/>
    <path class="cls-3" d="M214.33,187.5c-3.47.21-8.98.12-15.29-1.92-4.81-1.56-8.49-3.73-10.99-5.49"/>
    <path class="cls-2" d="M214.02,189.72c-3.66.37-9.44.42-15.91-1.9-4.93-1.77-8.64-4.32-11.13-6.41"/>
    <path class="cls-2" d="M213.91,193.4c-3.47.15-8.96-.04-15.21-2.2-4.76-1.64-8.39-3.88-10.85-5.69"/>
    <path class="cls-5" d="M214.14,194.51c-3.56.13-9.2-.11-15.63-2.32-4.9-1.68-8.64-3.96-11.18-5.78"/>
  </g>
  <g id="_图层_4" data-name="图层 4">
    <g>
      <polygon class="cls-8" points="283.07 238.48 279.97 219.22 223.56 213.52 227.88 233.19 283.07 238.48"/>
      <path class="cls-8" d="M234.06,247.59c-1.5-.55-10.16-45.41-10.16-45.41l-27.52,15.81,37.68,29.61Z"/>
    </g>
  </g>
</svg>