<?xml version="1.0" encoding="UTF-8"?>
<svg xmlns="http://www.w3.org/2000/svg" viewBox="0 0 595.28 368.06">
  <defs>
    <style>
      .cls-1 {
        stroke: red;
        stroke-width: 16px;
      }

      .cls-1, .cls-2 {
        fill: none;
      }

      .cls-3 {
        fill: red;
      }

      .cls-3, .cls-4 {
        stroke-width: 0px;
      }

      .cls-2 {
        stroke: #000;
        stroke-linecap: round;
        stroke-linejoin: round;
      }

      .cls-4 {
        fill: #bfbfbf;
      }
    </style>
  </defs>
  <g id="_图层_4" data-name="图层 4">
    <polygon class="cls-4" points="199.81 166.66 196.65 164.72 192.26 164.37 190.74 163.93 187.11 172.45 185.01 178.42 183.14 185.7 182.83 189.58 183.58 191.7 185 192.3 186 192.16 186.32 191.23 187.37 191.78 264.33 259.76 269.28 263.43 273.93 266.53 277.79 268.87 296.97 278.9 594.91 432.04 594.91 400.06 395.44 298.28 315.02 257.25 292.27 245.55 288.24 243.15 282.9 239.49 208.03 174.09 199.81 166.66"/>
  </g>
  <g id="Make2D::可见线::曲线">
    <line class="cls-2" x1="220.63" y1="297.22" x2="222.22" y2="298.53"/>
    <path class="cls-2" d="M54.5,143.88c-1.12.6-2.31,1.6-2.43,3.03"/>
    <line class="cls-2" x1="394.78" y1="219.53" x2="398.24" y2="219.56"/>
    <line class="cls-2" x1="398.98" y1="208.46" x2="356.75" y2="208.07"/>
    <path class="cls-2" d="M206.73,120.44c.11-1.27.9-2.28,1.83-3.03.93-.74,2.11-1.28,3.23-1.64,2.27-.73,4.84-.91,7.2-.71"/>
    <path class="cls-2" d="M112.75,98.9c.6-6.28,1.32-12.85,2.27-19.09.48-3.17,1.03-6.32,1.65-9.47.62-3.14,1.29-6.28,1.9-9.42"/>
    <path class="cls-2" d="M12.82,160.74c4.36-9.18,10.91-17.17,18.34-23.93,3.75-3.42,7.71-6.52,11.88-9.4,2.04-1.41,4.12-2.77,6.23-4.07,2.19-1.35,4.42-2.64,6.68-3.88,17.56-9.61,37.47-16.25,56.86-20.64"/>
    <path class="cls-2" d="M183.91,112.47c-1.1.61-2.26,1.64-2.34,3.07"/>
    <path class="cls-2" d="M221.72,298.93c-.09-.71-.58-1.29-1.09-1.7"/>
    <path class="cls-2" d="M71.99,148.01c-.24-1.06-1.03-1.95-1.83-2.59"/>
    <line class="cls-2" x1="356.76" y1="207.49" x2="348.81" y2="207.42"/>
    <path class="cls-2" d="M199.71,116.21c-.15-1.23-1.07-2.21-1.98-2.87"/>
    <path class="cls-2" d="M112.77,99c.59-6.22,1.31-12.73,2.25-18.92.48-3.14,1.03-6.27,1.64-9.38.61-3.12,1.27-6.22,1.88-9.34"/>
    <line class="cls-2" x1="657.69" y1="464.31" x2="283.17" y2="271.81"/>
    <line class="cls-2" x1="198.33" y1="165.56" x2="277.29" y2="234.97"/>
    <line class="cls-2" x1="295.63" y1="247.35" x2="670.69" y2="438.73"/>
    <path class="cls-2" d="M277.29,188.81c0-.06,0-.13,0-.19"/>
    <line class="cls-2" x1="277.43" y1="184.27" x2="277.29" y2="188.76"/>
    <path class="cls-2" d="M356.27,227.46s0-.08,0-.13,0-.08,0-.13c0-.08,0-.17,0-.25,0-.17,0-.34,0-.5"/>
    <line class="cls-2" x1="395.18" y1="212.2" x2="354.23" y2="211.83"/>
    <path class="cls-2" d="M199.81,166.66c-.07,0-.14,0-.21,0"/>
    <path class="cls-2" d="M176.49,210.39c-3.53-1.15-6.95-2.5-10.31-4.09-3.36-1.58-6.57-3.37-9.69-5.38-3.12-2.01-6.07-4.21-8.88-6.63-2.81-2.42-5.42-5-7.86-7.8-2.44-2.8-4.64-5.75-6.63-8.89-1.99-3.14-3.7-6.38-5.17-9.8-1.47-3.41-2.64-6.89-3.54-10.5-.45-1.79-.82-3.59-1.12-5.42-.3-1.83-.53-3.67-.69-5.52"/>
    <path class="cls-2" d="M288.28,187.49c9.2-4.77,18.44-11.41,24.53-20.17"/>
    <path class="cls-2" d="M239.28,201.56c13.71-1.64,27.86-4.87,40.68-10.2"/>
    <path class="cls-2" d="M192.06,127.85c-.65,0-1.3-.01-1.96-.02"/>
    <path class="cls-2" d="M192.06,127.85c.06.02.12.04.18.07"/>
    <path class="cls-2" d="M136.48,182.48c-.08-.04-.16-.07-.24-.11"/>
    <path class="cls-2" d="M190.94,149.01c.23-1.09.51-2.15.89-3.2.19-.52.39-1.03.65-1.53.13-.25.26-.49.43-.71.1-.14.21-.26.36-.36.09-.06.19-.1.3-.08"/>
    <line class="cls-2" x1="197.37" y1="152.81" x2="198.06" y2="152.68"/>
    <line class="cls-2" x1="197.4" y1="152.52" x2="198.06" y2="152.68"/>
    <line class="cls-2" x1="198.94" y1="150.06" x2="199.13" y2="147.57"/>
    <path class="cls-2" d="M394.78,215.26c0,.25,0,.51,0,.76"/>
    <line class="cls-2" x1="394.74" y1="224.94" x2="394.67" y2="226.82"/>
    <path class="cls-2" d="M395.2,211.89c0,.05,0,.1,0,.15v.08s0,.03,0,.04c0,0,0,.02,0,.03,0,0,0,0,0,0"/>
    <path class="cls-2" d="M354.23,208.87c0-.47,0-.94,0-1.4"/>
    <line class="cls-2" x1="354.23" y1="208.87" x2="354.23" y2="211.52"/>
    <path class="cls-2" d="M354.31,214.9c.02-1.02.03-2.04.04-3.07"/>
    <path class="cls-2" d="M354.3,215.66c0-.25,0-.51.01-.76"/>
    <line class="cls-2" x1="354.23" y1="221.71" x2="354.3" y2="215.66"/>
    <path class="cls-2" d="M354.2,224.57c0-.95.01-1.91.02-2.86"/>
    <line class="cls-2" x1="354.2" y1="224.57" x2="354.2" y2="227.15"/>
    <line class="cls-2" x1="356.34" y1="208.89" x2="356.34" y2="209.61"/>
    <line class="cls-2" x1="356.29" y1="226.46" x2="356.28" y2="226.46"/>
    <line class="cls-2" x1="356.28" y1="226.47" x2="356.27" y2="227.17"/>
    <path class="cls-2" d="M354.23,211.83s0,0,0,0c0,0,0,0,0,0,0,0,0-.02,0-.03v-.04s0-.05,0-.08c0-.05,0-.1,0-.15"/>
    <path class="cls-2" d="M354.2,227.45s0,0,0,0h0s0-.03,0-.04c0-.01,0-.02,0-.04v-.22"/>
    <path class="cls-2" d="M282.89,188.51c.46,0,.94-.06,1.38-.21"/>
    <line class="cls-2" x1="282.89" y1="188.51" x2="281.45" y2="188.5"/>
    <line class="cls-2" x1="281.45" y1="188.5" x2="281.14" y2="188.23"/>
    <line class="cls-2" x1="284.26" y1="190.75" x2="285.62" y2="189.48"/>
    <line class="cls-2" x1="284.11" y1="188.17" x2="281.24" y2="188.15"/>
    <path class="cls-2" d="M288.24,188.86s0,.08,0,.12"/>
    <path class="cls-2" d="M288.37,184.36c0,.08,0,.16,0,.24"/>
    <line class="cls-2" x1="277.29" y1="188.62" x2="277.43" y2="184.13"/>
    <path class="cls-2" d="M277.43,184.13c.02-.59.37-1.05.78-1.4.42-.35.94-.61,1.45-.79,1.02-.37,2.19-.5,3.27-.47,1.08.03,2.23.23,3.24.64.5.21,1.01.48,1.42.85.4.36.75.83.79,1.41"/>
    <path class="cls-2" d="M281.21,188.17c.51.23,1.12.34,1.68.34"/>
    <line class="cls-2" x1="284.42" y1="188.44" x2="284.32" y2="188.53"/>
    <path class="cls-2" d="M277.31,188.92c0-.05-.02-.11-.02-.16"/>
    <line class="cls-2" x1="186.99" y1="200.13" x2="186.29" y2="200.33"/>
    <line class="cls-2" x1="185.93" y1="205.19" x2="186.81" y2="202.56"/>
    <path class="cls-2" d="M185.76,206.96c-.17.31-.4.66-.67.9-.29.25-.65.4-1.04.3"/>
    <line class="cls-2" x1="186.81" y1="202.56" x2="185.64" y2="202.27"/>
    <line class="cls-2" x1="185.23" y1="205.4" x2="185.93" y2="205.19"/>
    <line class="cls-2" x1="185.25" y1="205.03" x2="185.93" y2="205.19"/>
    <path class="cls-2" d="M277.29,234.97c5.56,4.89,11.75,9.02,18.34,12.38"/>
    <path class="cls-2" d="M283.17,271.81c-8.61-4.43-16.69-9.88-23.94-16.31"/>
    <path class="cls-2" d="M193.14,138.26s.05,0,.08,0"/>
    <path class="cls-2" d="M199.98,162.27c.07-.56.14-1.32.07-1.89"/>
    <line class="cls-2" x1="197.5" y1="139.88" x2="198.04" y2="144.21"/>
    <path class="cls-2" d="M197.5,139.88c-.02-.13-.04-.25-.08-.38-.03-.1-.1-.26-.23-.29"/>
    <line class="cls-2" x1="180.89" y1="211.98" x2="176.95" y2="211.02"/>
    <path class="cls-2" d="M192.54,162.55c.4.1.62.57.74.89.13.38.21.77.26,1.17"/>
    <path class="cls-2" d="M193.23,138.27s.05.02.08.04"/>
    <path class="cls-2" d="M197.19,139.21s-.05,0-.08,0"/>
    <path class="cls-2" d="M189.71,165.8c0,.66-.04,1.31-.09,1.96"/>
    <path class="cls-2" d="M199.36,166.46c.23-1.39.43-2.79.62-4.19"/>
    <path class="cls-2" d="M138.29,187.04c.42.12.84.18,1.27.18"/>
    <line class="cls-2" x1="138.29" y1="187.04" x2="137.99" y2="186.95"/>
    <line class="cls-2" x1="139.6" y1="187.42" x2="138.29" y2="187.04"/>
    <line class="cls-2" x1="136.57" y1="187.39" x2="136.84" y2="188.88"/>
    <line class="cls-2" x1="136.84" y1="188.88" x2="139.45" y2="189.65"/>
    <line class="cls-2" x1="141.81" y1="188.93" x2="141.78" y2="188.74"/>
    <path class="cls-2" d="M139.67,190.71c-1.24-.01-2.57-.25-3.71-.78-.56-.26-1.13-.62-1.55-1.09-.43-.47-.71-1.07-.67-1.73"/>
    <path class="cls-2" d="M138.01,186.95c.09.03.18.06.28.09"/>
    <line class="cls-2" x1="136.94" y1="187.28" x2="136.84" y2="188.88"/>
    <path class="cls-2" d="M179.63,183.28c-.02-.73.1-1.48.27-2.18"/>
    <line class="cls-2" x1="356.27" y1="227.46" x2="354.2" y2="227.45"/>
    <line class="cls-2" x1="198.97" y1="151.7" x2="200.05" y2="160.39"/>
    <line class="cls-2" x1="198.06" y1="152.68" x2="198.94" y2="150.06"/>
    <line class="cls-2" x1="197.75" y1="149.77" x2="198.94" y2="150.06"/>
    <line class="cls-2" x1="199.13" y1="147.57" x2="198.44" y2="147.7"/>
    <path class="cls-2" d="M199.59,166.66h.19"/>
    <path class="cls-2" d="M189.48,201.37c3.26.4,6.53.73,9.81.98"/>
    <path class="cls-2" d="M187.5,201.12s.01,0,.02,0"/>
    <path class="cls-2" d="M114.69,82.1s.03-.01.04-.02"/>
    <path class="cls-2" d="M205.77,297.76c1.16-.78,2.69-1.23,4.02-1.48,1.4-.25,2.88-.33,4.3-.26,1.42.07,2.88.28,4.26.67,1.31.37,2.79.96,3.87,1.85"/>
    <line class="cls-2" x1="196.21" y1="155.63" x2="190.98" y2="154.37"/>
    <path class="cls-2" d="M190.98,154.37c-.09-.02-.16-.09-.21-.16-.08-.12-.12-.25-.16-.39-.06-.23-.08-.45-.1-.68-.03-.46-.01-.92.02-1.38.07-.92.21-1.83.4-2.74"/>
    <line class="cls-2" x1="281.39" y1="190.73" x2="284.26" y2="190.75"/>
    <line class="cls-2" x1="284.32" y1="188.53" x2="284.26" y2="190.75"/>
    <line class="cls-2" x1="186.81" y1="202.56" x2="186.99" y2="200.13"/>
    <path class="cls-2" d="M180.48,196.67c.12-.21.24-.41.4-.6.12-.14.36-.4.59-.35"/>
    <line class="cls-2" x1="181.47" y1="195.73" x2="186.68" y2="197"/>
    <path class="cls-2" d="M84.66,272.54c-.75.46-1.52,1.19-1.6,2.17"/>
    <line class="cls-2" x1="139.6" y1="187.42" x2="139.45" y2="189.65"/>
    <line class="cls-2" x1="139.45" y1="189.65" x2="141.81" y2="188.93"/>
    <path class="cls-2" d="M83.77,273.09c1.21-.75,2.77-1.16,4.15-1.36,1.44-.21,2.94-.24,4.39-.13,1.44.12,2.93.38,4.31.82,1.33.42,2.8,1.07,3.89,1.99"/>
    <path class="cls-2" d="M53.57,144.37c1.32-.71,2.89-1.1,4.36-1.29,1.5-.2,3.06-.2,4.56-.05,1.5.15,3.03.46,4.46.95,1.4.48,2.86,1.17,4.03,2.11"/>
    <path class="cls-2" d="M319.73,146.76c-1.1.7-2.25,1.82-2.28,3.3"/>
    <path class="cls-2" d="M178.94,209.74c-.66.48-1.56.94-2.45.65"/>
    <line class="cls-2" x1="356.34" y1="209.61" x2="356.36" y2="207.49"/>
    <path class="cls-2" d="M356.27,227.17s0,.1,0,.15v.07s0,.02,0,.04v.03h0s0,0,0,0"/>
    <path class="cls-2" d="M318.86,147.31c1.25-.79,2.74-1.3,4.17-1.6,1.45-.31,2.98-.44,4.46-.41s3,.22,4.44.59c1.41.36,2.88.93,4.1,1.77"/>
    <line class="cls-2" x1="318.86" y1="147.31" x2="319.73" y2="146.76"/>
    <path class="cls-2" d="M134.03,182.61c.05-.79.72-1.35,1.32-1.68"/>
    <path class="cls-2" d="M143.03,190.04c-1.01.5-2.26.68-3.37.67"/>
    <line class="cls-2" x1="206.2" y1="298.48" x2="206.25" y2="297.43"/>
    <path class="cls-2" d="M113.55,19.14c-9.8,3.56-19.49,8.03-28.36,13.56-8.82,5.49-17.2,12.26-23.81,20.4"/>
    <path class="cls-2" d="M345.78,55.57c-8.28-8.11-18.04-14.98-28.08-20.65-10.11-5.71-20.92-10.44-31.86-14.29"/>
    <path class="cls-2" d="M285.84,20.63c-27.78-9.77-58.4-14.56-87.74-14.81"/>
    <path class="cls-2" d="M398.75,207.72c.02.13.05.26.08.38.02.06.03.13.05.19.01.03.02.06.04.09,0,.02.03.07.06.07"/>
    <path class="cls-2" d="M399.01,203.09c.04.95.08,1.9.1,2.85"/>
    <path class="cls-2" d="M399.01,203.09c-.02-.45-.05-.89-.1-1.33"/>
    <path class="cls-2" d="M398.9,201.75c-.15-1.27-.26-2.54-.38-3.81-.06-.64-.11-1.27-.16-1.91-.03-.32-.05-.64-.07-.95,0-.14-.02-.29-.02-.43,0-.07,0-.14,0-.21,0,0,0-.03,0-.02.01.01,0,.03.01.04.02.08.03.16.04.25"/>
    <path class="cls-2" d="M398.33,194.7s0,.05.01.07c0,0,0,0,0-.01,0-.02,0-.04,0-.06,0-.05,0-.09-.02-.14-.01-.09-.02-.19-.03-.28"/>
    <path class="cls-2" d="M396.78,185.03c-.09-.44-.19-.87-.31-1.3-.03-.13-.14-.52-.22-.63-.02-.04-.05-.05-.06,0-.02.07-.02.17-.02.24,0,.11.01.22.02.33"/>
    <path class="cls-2" d="M396.2,183.66c.04.45.07.9.1,1.36"/>
    <path class="cls-2" d="M397.64,211.2c.04.37.06.93,0,1.3"/>
    <path class="cls-2" d="M398.44,222.98c-.02-.96-.06-1.92-.1-2.88"/>
    <path class="cls-2" d="M398.44,222.98c.03,1.18,0,2.35-.09,3.52-.07.98-.22,2.53-.47,3.49"/>
    <line class="cls-2" x1="226.9" y1="295.86" x2="227.37" y2="299.92"/>
    <path class="cls-2" d="M226.9,295.86c-.02-.14-.02-.27,0-.41"/>
    <line class="cls-2" x1="262.24" y1="293.02" x2="265.5" y2="296.78"/>
    <path class="cls-2" d="M238.91,304.52c6.86-.4,13.7-.99,20.52-1.8"/>
    <path class="cls-2" d="M238.91,304.52c-2.15.13-4.49-.1-6.57-.71-1.03-.3-2.12-.74-3.02-1.33-.84-.55-1.82-1.43-1.95-2.56"/>
    <line class="cls-2" x1="248.86" y1="131.15" x2="251.86" y2="126.22"/>
    <path class="cls-2" d="M248.86,131.15c-.61,1-1.62,1.75-2.62,2.27-1.03.54-2.17.91-3.3,1.16-2.25.49-4.71.54-6.99.21"/>
    <path class="cls-2" d="M217.71,132.7c6.11.52,12.18,1.21,18.25,2.09"/>
    <path class="cls-2" d="M217.71,132.7c-2.08-.18-4.27-.68-6.17-1.59-.94-.45-1.89-1.05-2.65-1.78-.75-.72-1.38-1.67-1.51-2.76"/>
    <line class="cls-2" x1="207.37" y1="126.57" x2="206.74" y2="121.1"/>
    <path class="cls-2" d="M206.74,121.1c-.03-.22-.03-.44-.01-.67"/>
    <path class="cls-2" d="M167.09,132.25c-5.94.4-11.85.99-17.75,1.77"/>
    <path class="cls-2" d="M131.21,125.15c-.73-.85-1.25-1.93-1.12-3.12"/>
    <path class="cls-2" d="M45.43,245.43c-2.45.49-5.21.41-7.64-.08-1.27-.25-2.48-.61-3.66-1.13-1.11-.49-2.32-1.2-3.15-2.15"/>
    <path class="cls-2" d="M15.66,187.78c-.75,2.55-1.28,5.12-1.61,7.76"/>
    <line class="cls-2" x1="38.08" y1="186.23" x2="28.92" y2="184.34"/>
    <line class="cls-2" x1="201.88" y1="118.15" x2="202.32" y2="121.87"/>
    <line class="cls-2" x1="179.74" y1="121.67" x2="179.23" y2="117.95"/>
    <path class="cls-2" d="M223.58,300.66c.05.43-.03.85-.22,1.24-.24.49-.62.89-1.04,1.21-.75.59-1.68.99-2.57,1.28-1.8.57-3.84.76-5.71.71-1.88-.06-3.88-.37-5.66-1.01-.89-.32-1.8-.74-2.56-1.31-.43-.32-.85-.7-1.16-1.15-.24-.34-.41-.73-.47-1.15"/>
    <path class="cls-2" d="M204.2,300.48c-.16-1.2.7-2.13,1.57-2.72"/>
    <path class="cls-2" d="M101.85,276.41c.1.45.07.89-.09,1.32-.2.51-.55.94-.96,1.29-.75.64-1.71,1.06-2.63,1.35-1.85.58-3.97.75-5.88.66-1.93-.09-3.99-.46-5.81-1.14-.91-.34-1.84-.79-2.63-1.37-.46-.33-.87-.7-1.22-1.16-.26-.34-.47-.72-.57-1.15"/>
    <line class="cls-2" x1="163.5" y1="292.11" x2="161.2" y2="295.81"/>
    <path class="cls-2" d="M190.59,290.96c1.75.13,3.6.49,5.24,1.15.82.33,1.65.76,2.34,1.31.66.52,1.34,1.28,1.46,2.19"/>
    <line class="cls-2" x1="199.64" y1="295.61" x2="200.21" y2="299.67"/>
    <path class="cls-2" d="M189.83,304.06c-7.03-.53-14.04-1.26-21.03-2.18"/>
    <path class="cls-2" d="M168.8,301.88c-1.63-.22-3.37-.65-4.87-1.37-.74-.36-1.5-.83-2.09-1.42-.58-.58-1.07-1.36-.99-2.25"/>
    <path class="cls-2" d="M61.38,53.09c-7.12,8.78-12.09,19.07-13.09,30.57"/>
    <path class="cls-2" d="M198.1,5.82c-14.29-.12-28.74.82-42.88,2.96-14.08,2.13-28.26,5.5-41.68,10.37"/>
    <path class="cls-2" d="M93.02,279.71c1.52.01,3.17-.16,4.63-.63.72-.23,1.48-.57,2.1-1.03.61-.45,1.16-1.1,1.22-1.92"/>
    <path class="cls-2" d="M5.09,195.65c-.7,7.3.23,14.48,2.51,21.42,2.59,7.88,6.8,15.1,11.86,21.59,4.5,5.77,9.72,11.02,15.28,15.75,6.2,5.28,12.93,10.02,19.86,14.26,13.16,8.04,27.56,14.58,42.02,19.81,14.52,5.25,29.62,9.38,44.73,12.48,30.09,6.19,61.81,8.68,92.49,7.45,15.44-.62,30.98-2.19,46.2-4.86,7.95-1.39,15.82-3.08,23.63-5.11,7.2-1.88,14.29-4.04,21.29-6.56"/>
    <path class="cls-2" d="M206.22,298.78c.05.34.17.63.37.91.25.37.55.65.9.91.6.45,1.31.79,2.01,1.05,1.4.51,2.98.77,4.46.83,1.47.06,3.08-.08,4.5-.5.71-.21,1.45-.51,2.06-.94.35-.24.67-.54.9-.9.18-.28.29-.59.31-.93"/>
    <path class="cls-2" d="M398.04,219.83s-.06-.03-.08-.05c-.04-.05-.06-.11-.08-.16-.08-.2-.12-.41-.15-.62-.05-.31-.09-.61-.12-.92-.06-.62-.09-1.24-.11-1.86-.03-1.09,0-2.62.15-3.71"/>
    <path class="cls-2" d="M226.89,295.45c.06-.83.58-1.5,1.18-1.99.6-.5,1.34-.88,2.07-1.16,1.45-.56,3.12-.84,4.65-.93"/>
    <path class="cls-2" d="M83.12,275.36c.23.93,1.03,1.68,1.75,2.17.77.53,1.68.94,2.55,1.25,1.76.61,3.75.91,5.6.93"/>
    <line class="cls-2" x1="205.77" y1="297.76" x2="207.48" y2="296.6"/>
    <line class="cls-2" x1="200.16" y1="119.94" x2="199.71" y2="116.21"/>
    <line class="cls-2" x1="181.6" y1="116.05" x2="182.1" y2="119.78"/>
    <path class="cls-2" d="M130.09,122.03c.18-1.66,1.55-2.84,2.86-3.55,1.37-.75,2.98-1.18,4.5-1.4"/>
    <path class="cls-2" d="M175.91,126.83c-.02.98-.47,1.82-1.11,2.51-.64.69-1.45,1.21-2.28,1.6-1.66.79-3.62,1.18-5.42,1.31"/>
    <path class="cls-2" d="M270.33,100.22c21.48,4.96,43.28,12.2,63.06,22.15,2.53,1.27,5.04,2.6,7.52,3.97,2.4,1.33,4.77,2.71,7.11,4.14,4.77,2.92,9.38,6.04,13.84,9.42,8.79,6.69,17.1,14.55,23.62,23.56"/>
    <path class="cls-2" d="M348.88,229.38c.11-7.32.23-14.64.34-21.95"/>
    <path class="cls-2" d="M348.83,229.54c.02-.05.03-.11.05-.16"/>
    <path class="cls-2" d="M118.57,60.92c.24-1.22.4-2.45.49-3.69"/>
    <path class="cls-2" d="M33.8,213.61s.02.03.03.04"/>
    <path class="cls-2" d="M112.75,98.9s.02-.06.06-.07"/>
    <path class="cls-2" d="M112.82,98.83c.22-.05.89.42,1.03.52"/>
    <path class="cls-2" d="M14.8,158.99c-.91.19-1.61.98-1.98,1.76"/>
    <path class="cls-2" d="M20.26,139.39c1.25-2.55,2.61-5.04,4.06-7.49,1.45-2.44,2.98-4.83,4.56-7.19,3.16-4.72,6.51-9.31,9.66-14.03"/>
    <path class="cls-2" d="M303.4,110.22c-1.25-1.1-2.53-2.15-3.84-3.17"/>
    <path class="cls-2" d="M270.5,100.39c-.01-.1-.08-.15-.17-.17"/>
    <path class="cls-2" d="M112.9,97.69c-1.05.75-2.09,1.52-3.1,2.32"/>
    <path class="cls-2" d="M182.12,113.47c2.56-1.43,5.96-1.81,8.78-1.63,2.82.18,6.14.99,8.51,2.71"/>
    <path class="cls-2" d="M337.33,150.38c-.02-1.44-1.1-2.58-2.16-3.3"/>
    <path class="cls-2" d="M40.17,129.46c-.04.37-.07.75-.1,1.12"/>
    <path class="cls-2" d="M55.35,199.02c1.12-2.92,2.16-5.86,3.07-8.86"/>
    <path class="cls-2" d="M51.36,122.93c.01-.29.02-.58.03-.86"/>
    <line class="cls-2" x1="348.88" y1="229.38" x2="356.68" y2="229.45"/>
    <path class="cls-2" d="M356.68,229.45c0-.99,0-1.98,0-2.98"/>
    <path class="cls-2" d="M348.81,207.42c-.02-.05-.03-.1-.05-.15"/>
    <path class="cls-2" d="M312.09,166.94s.02-.02.03-.04"/>
    <path class="cls-2" d="M182.1,119.78c.06.42.2.79.4,1.16.26.45.58.82.95,1.17.67.61,1.49,1.09,2.31,1.46,1.65.74,3.54,1.12,5.33,1.21,1.78.09,3.71-.11,5.41-.71.85-.3,1.7-.73,2.39-1.32.69-.6,1.23-1.38,1.28-2.34"/>
    <path class="cls-2" d="M338.14,125.47c2.22,1.2,4.42,2.45,6.6,3.74"/>
    <path class="cls-2" d="M60.9,117.6c5.78-2.97,11.69-5.59,17.74-7.94"/>
    <path class="cls-2" d="M368.16,102.27c-.02,2.28.04,4.54.2,6.82.13,1.77.32,3.53.61,5.28.32,1.92.76,3.82,1.42,5.65.71,1.99,1.68,3.84,2.69,5.68.78,1.43,1.59,2.84,2.4,4.25,1.2,2.1,2.4,4.2,3.57,6.31.97,1.76,1.93,3.53,2.85,5.32.93,1.81,1.84,3.62,2.71,5.46,1.74,3.66,3.34,7.36,4.8,11.14,1.45,3.78,2.75,7.6,3.88,11.49,2.28,7.81,3.88,15.68,4.9,23.74"/>
    <path class="cls-2" d="M368.16,102.27c.08-9.01-2.32-17.63-6.39-25.56-4.06-7.9-9.69-14.98-15.99-21.14"/>
    <path class="cls-2" d="M398.19,193.42c.04.29.07.57.11.86"/>
    <path class="cls-2" d="M352.06,164.72h0"/>
    <path class="cls-2" d="M72.06,148.87c.02-.29,0-.57-.06-.86"/>
    <path class="cls-2" d="M100.97,276.13c.01-.21,0-.4-.05-.61"/>
    <path class="cls-2" d="M317.45,150.06s0,.09,0,.14"/>
    <path class="cls-2" d="M221.73,299.21c0-.09,0-.19-.01-.28"/>
    <line class="cls-2" x1="119.06" y1="57.23" x2="118.84" y2="60.28"/>
    <path class="cls-2" d="M181.58,115.54c0,.17,0,.34.02.51"/>
    <path class="cls-2" d="M200.17,120.4c0-.15,0-.31-.02-.46"/>
    <line class="cls-2" x1="182.12" y1="113.47" x2="182.45" y2="113.29"/>
    <line class="cls-2" x1="44.29" y1="202.82" x2="45.02" y2="189.58"/>
    <path class="cls-2" d="M44.29,202.82c.19-3.36.79-6.65,1.78-9.86"/>
    <path class="cls-2" d="M14.05,195.54c-1.07,8.61.24,17.03,3.39,25.03,3.13,7.94,7.96,15.15,13.53,21.51"/>
    <path class="cls-2" d="M12.82,160.74c-.08.17-.15.34-.21.52"/>
    <path class="cls-2" d="M270.33,100.22c-.37-.09-1.14.33-1.4.49"/>
    <path class="cls-2" d="M385.48,163.47c.26.35.45.72.59,1.14"/>
    <path class="cls-2" d="M252.41,124.32c0,.68-.2,1.32-.55,1.89"/>
    <path class="cls-2" d="M160.84,296.84c.04-.37.16-.71.36-1.02"/>
    <path class="cls-2" d="M200.23,300c-.02,1.08-.83,1.89-1.62,2.41-.82.54-1.84.93-2.78,1.17-1.91.5-4.05.62-6.01.48"/>
    <path class="cls-2" d="M266.25,298.54c0,.76-.38,1.39-.89,1.9-.51.5-1.14.89-1.78,1.19-1.28.59-2.76.93-4.15,1.1"/>
    <path class="cls-2" d="M58.48,239.98c-.05,1.24-1.03,2.14-1.97,2.71-.98.58-2.16.95-3.27,1.18"/>
    <path class="cls-2" d="M46.19,192.29c-.01.23-.05.45-.12.67"/>
    <path class="cls-2" d="M398.98,208.46c.06,0,.09-.26.1-.29.01-.11.02-.21.03-.32.01-.21.02-.42.02-.64,0-.42,0-.85-.01-1.27"/>
    <path class="cls-2" d="M356.75,208.07s0,0,0,0c0,0,0,0,0-.01,0-.02,0-.04,0-.05,0-.02,0-.05,0-.07,0-.05,0-.1,0-.14,0-.1,0-.19,0-.29"/>
    <path class="cls-2" d="M398.24,219.56s.03.04.04.06c0,.02.01.04.02.07,0,.04.02.09.02.14.01.09.02.18.02.27"/>
    <path class="cls-2" d="M5.09,195.65c.46-4.84,1.09-9.65,1.91-14.45.82-4.8,1.83-9.54,3.06-14.24,1.23-4.71,2.68-9.33,4.36-13.9,1.68-4.57,3.59-9.02,5.72-13.4"/>
    <path class="cls-2" d="M317.45,150.2c.03,1.07.66,1.98,1.4,2.66.75.69,1.69,1.21,2.62,1.59,1.87.77,4.02,1.12,6.03,1.13"/>
    <path class="cls-2" d="M52.07,146.91c-.03.31,0,.61.07.92"/>
    <path class="cls-2" d="M83.06,274.72c-.02.22,0,.43.05.65"/>
    <path class="cls-2" d="M337.33,150.46v-.08"/>
    <path class="cls-2" d="M206.2,298.48c0,.1,0,.21.01.31"/>
    <line class="cls-2" x1="335.17" y1="147.07" x2="336.03" y2="147.66"/>
    <line class="cls-2" x1="70.17" y1="145.42" x2="70.99" y2="146.08"/>
    <line class="cls-2" x1="99.71" y1="273.74" x2="100.51" y2="274.42"/>
    <line class="cls-2" x1="83.77" y1="273.09" x2="84.66" y2="272.54"/>
    <path class="cls-2" d="M222.22,298.53c.63.52,1.26,1.25,1.36,2.13"/>
    <line class="cls-2" x1="57.05" y1="143.22" x2="57.08" y2="142.95"/>
    <path class="cls-2" d="M375.08,208.24c-.12-.25-.25-.49-.37-.74"/>
    <path class="cls-2" d="M100.92,275.53c-.16-.72-.68-1.33-1.21-1.79"/>
    <path class="cls-2" d="M67.23,143.77l-.33.18"/>
    <path class="cls-2" d="M327.67,146.2c-.58-.29-1.17-.58-1.75-.88"/>
    <path class="cls-2" d="M190.59,290.96c-5.35-.4-10.69-.94-16.01-1.62"/>
    <path class="cls-2" d="M163.5,292.11c.52-.83,1.47-1.42,2.31-1.8.92-.41,1.86-.67,2.84-.84,1.92-.35,4-.36,5.92-.12"/>
    <path class="cls-2" d="M338.42,151.33c0,.52-.12,1.01-.34,1.48-.27.56-.67,1.05-1.13,1.47-.83.76-1.87,1.32-2.91,1.72-2.07.81-4.46,1.13-6.67,1.1-2.21-.03-4.58-.42-6.64-1.28-1.03-.43-2.06-1-2.88-1.76-.46-.42-.86-.91-1.15-1.47-.23-.46-.37-.95-.39-1.46"/>
    <path class="cls-2" d="M321.5,146.11c0-.08.02-.15.02-.23"/>
    <path class="cls-2" d="M98.88,155.02s.02.03.03.04"/>
    <path class="cls-2" d="M33.07,135.12c-.25.34-.5.69-.75,1.03"/>
    <path class="cls-2" d="M40.3,129.82c.02-.16.03-.32.05-.49"/>
    <path class="cls-2" d="M93.67,270.79c2.48.96,4.97,1.89,7.48,2.77"/>
    <path class="cls-2" d="M384.59,162.61c.36.23.63.52.88.86"/>
    <path class="cls-2" d="M179.23,117.95c-.13-.98.16-1.89.73-2.67.56-.76,1.35-1.36,2.16-1.81"/>
    <path class="cls-2" d="M202.32,121.87c.15,1.24-.39,2.31-1.22,3.15-.82.83-1.89,1.42-2.95,1.84-2.14.84-4.62,1.13-6.88,1.05-2.28-.08-4.7-.54-6.81-1.46-1.05-.46-2.1-1.06-2.97-1.83-.49-.44-.9-.91-1.24-1.48-.27-.46-.45-.93-.52-1.47"/>
    <path class="cls-2" d="M352.06,164.7c0-.39-.22-.71-.49-.96-.27-.25-.61-.44-.94-.57-.67-.28-1.45-.4-2.17-.41-.72,0-1.5.1-2.17.36-.34.13-.68.31-.95.56-.27.24-.49.57-.49.96"/>
    <path class="cls-2" d="M344.85,164.64c0,.39.22.71.49.96.28.26.59.43.94.57.67.28,1.45.4,2.16.41.72,0,1.49-.1,2.17-.36.34-.13.68-.31.95-.55.27-.24.49-.56.5-.95"/>
    <path class="cls-2" d="M57.63,237.8c-4.09-4.87-7.63-10.31-10.05-16.25-2.43-5.97-3.65-12.26-3.29-18.73"/>
    <path class="cls-2" d="M356.74,207.49c0,.1,0,.19,0,.29,0,.05,0,.1,0,.14,0,.02,0,.05,0,.07,0,.02,0,.04,0,.05,0,0,0,0,0,.01,0,0,0,0,0,0"/>
    <line class="cls-2" x1="58.65" y1="142.69" x2="58.63" y2="143"/>
    <path class="cls-2" d="M38.08,186.23c1.72.36,3.53.96,5.06,1.88.76.46,1.51,1.02,2.09,1.71.57.68,1.01,1.53.96,2.47"/>
    <line class="cls-2" x1="72.12" y1="148.12" x2="72.06" y2="148.87"/>
    <line class="cls-2" x1="101.01" y1="275.61" x2="100.97" y2="276.13"/>
    <line class="cls-2" x1="221.74" y1="298.95" x2="221.73" y2="299.21"/>
    <line class="cls-2" x1="221.77" y1="298.16" x2="221.77" y2="298.19"/>
    <line class="cls-2" x1="200.19" y1="119.97" x2="200.17" y2="120.4"/>
    <path class="cls-2" d="M18.61,184.99c2.54,10.72,8.23,20.35,15.19,28.62"/>
    <path class="cls-2" d="M38.55,110.68c1.62-2.42,3.18-4.87,4.66-7.37"/>
    <path class="cls-2" d="M43.22,103.27c.9-1.53,1.56-2.95,2.16-4.62.58-1.61,1.03-3.24,1.4-4.9.74-3.28,1.21-6.74,1.5-10.09"/>
    <line class="cls-2" x1="337.33" y1="150.22" x2="337.33" y2="150.38"/>
    <line class="cls-2" x1="53.72" y1="144.29" x2="54.5" y2="143.88"/>
    <path class="cls-2" d="M15.66,187.78c.35-1.21,1.46-2.04,2.48-2.57,1.07-.55,2.31-.89,3.49-1.08,2.36-.39,4.96-.28,7.29.21"/>
    <path class="cls-2" d="M161.29,114.55c2.65-.19,5.52.16,8.03,1.05,1.25.45,2.53,1.07,3.59,1.9,1.02.8,2,1.93,2.2,3.32"/>
    <path class="cls-2" d="M161.29,114.55c-7.98.56-15.93,1.4-23.85,2.53"/>
    <line class="cls-2" x1="135.48" y1="130.14" x2="131.21" y2="125.15"/>
    <path class="cls-2" d="M149.34,134.02c-2.42.32-5.03.16-7.4-.41-1.19-.29-2.4-.71-3.5-1.26-1.08-.54-2.17-1.28-2.97-2.21"/>
    <line class="cls-2" x1="175.88" y1="126.29" x2="175.11" y2="120.82"/>
    <path class="cls-2" d="M243.55,118.02c1.88.29,3.85.87,5.52,1.83.83.48,1.64,1.08,2.27,1.82.62.74,1.08,1.65,1.08,2.65"/>
    <path class="cls-2" d="M398.2,219.62s.02-.05.04-.05"/>
    <path class="cls-2" d="M218.99,115.06c8.22.71,16.4,1.69,24.56,2.96"/>
    <path class="cls-2" d="M56.1,215.86c1.23,4.85,3.31,9.4,5.95,13.63,3.13,5.01,7.03,9.54,11.28,13.6,3.73,3.55,7.78,6.8,11.99,9.75,4.72,3.3,9.61,6.24,14.7,8.93,18.99,10.04,40.84,16.67,61.78,20.58,10.69,2,21.55,3.37,32.4,4.14,5.37.38,10.73.61,16.11.7,5.52.09,11.02.02,16.54-.22,21.36-.9,43.78-4.28,64.18-11.11"/>
    <path class="cls-2" d="M265.5,296.78c.42.48.74,1.09.75,1.76"/>
    <path class="cls-2" d="M175.88,126.29c.03.18.04.36.03.54"/>
    <line class="cls-2" x1="45.43" y1="245.43" x2="53.24" y2="243.86"/>
    <path class="cls-2" d="M57.63,237.8c.5.6.89,1.35.86,2.17"/>
    <path class="cls-2" d="M316.33,151.13c-.05-1.71,1.26-3.01,2.53-3.82"/>
    <path class="cls-2" d="M73.02,148.96c.27,1.2-.16,2.26-.97,3.12-.79.82-1.85,1.38-2.89,1.77-2.09.77-4.53.99-6.72.87-2.22-.12-4.57-.6-6.63-1.48-1.03-.44-2.06-1.01-2.93-1.73-.49-.41-.93-.85-1.29-1.38-.29-.43-.51-.86-.63-1.37"/>
    <path class="cls-2" d="M50.96,148.76c-.23-.94-.03-1.84.51-2.63.52-.76,1.31-1.34,2.1-1.76"/>
    <path class="cls-2" d="M82.06,276.22c-.16-.65-.03-1.27.32-1.83.34-.54.86-.97,1.39-1.3"/>
    <path class="cls-2" d="M200.21,299.67c.02.11.02.22.02.33"/>
    <path class="cls-2" d="M52.14,147.83c.11.44.29.82.54,1.2.31.46.68.85,1.1,1.21.75.64,1.63,1.14,2.52,1.54,1.78.79,3.8,1.24,5.73,1.39,1.91.15,4.01.01,5.87-.55.93-.28,1.87-.69,2.65-1.29.43-.33.81-.72,1.09-1.19.23-.39.38-.81.41-1.26"/>
    <path class="cls-2" d="M250.43,290.04c2.04-.23,4.24-.13,6.25.28,1.01.21,2.05.52,2.99.93.91.4,1.9.99,2.57,1.76"/>
    <path class="cls-2" d="M234.79,291.37c5.23-.3,10.44-.74,15.64-1.33"/>
    <path class="cls-2" d="M348.76,207.27c-.86-2.88-2-5.6-3.39-8.26-1.56-2.98-3.37-5.76-5.41-8.43-2.3-3.01-4.83-5.79-7.55-8.42-3.06-2.96-6.31-5.67-9.72-8.21-5.42-4.03-11.22-7.6-17.18-10.76-6.69-3.55-13.67-6.64-20.75-9.32-13.36-5.06-27.45-8.81-41.47-11.42-14.06-2.61-28.47-4.16-42.76-4.65-7.11-.25-14.21-.23-21.33.05-7.24.28-14.44.84-21.64,1.71-14.13,1.69-28.46,4.59-42.02,9.02-7.24,2.36-14.42,5.21-21.24,8.63-5.97,3-11.78,6.49-17.09,10.56-3.35,2.57-6.54,5.41-9.41,8.52-2.53,2.74-4.83,5.71-6.77,8.91-3.33,5.49-5.51,11.49-6.04,17.95"/>
    <path class="cls-2" d="M189.35,108.65c-18.2-.16-36.65.96-54.68,3.52-17.94,2.55-36.14,6.63-53.28,12.62-16.84,5.88-34.19,14.16-48.31,25.43-3.78,3.02-7.32,6.24-10.63,9.78-2.96,3.18-5.65,6.52-8.03,10.16-2.64,4.01-4.84,8.29-6.47,12.82-1.47,4.1-2.44,8.32-2.86,12.66"/>
    <path class="cls-2" d="M397.64,211.2c-.13-1.17-.29-2.33-.46-3.49"/>
    <path class="cls-2" d="M395.74,196.23c-.13.79-.05,2.04.02,2.82.08.94.21,1.87.4,2.8"/>
    <path class="cls-2" d="M327.5,155.58c1.95.02,4.07-.28,5.91-1,.91-.36,1.84-.86,2.58-1.53.73-.66,1.33-1.55,1.34-2.6"/>
    <path class="cls-2" d="M398.75,207.72c-.86-4.72-2.34-9.26-4.31-13.62-2.26-5-5.14-9.69-8.43-14.07-2.92-3.89-6.11-7.48-9.56-10.9-3.86-3.83-7.96-7.35-12.27-10.66-16.07-12.32-35.3-21.79-54.1-28.78-19.13-7.11-39.39-12.24-59.48-15.65-20.14-3.42-40.81-5.21-61.24-5.39"/>
    <path class="cls-2" d="M346.66,147.8c-.15-.67-.29-1.34-.43-2.02"/>
    <path class="cls-2" d="M352.01,165.01c-.29-.72-.58-1.45-.86-2.18"/>
    <path class="cls-2" d="M97.9,155.47c.83,1.29,1.72,2.54,2.66,3.76"/>
    <line class="cls-2" x1="133.74" y1="187.11" x2="134.03" y2="182.61"/>
    <line class="cls-2" x1="138.92" y1="186.67" x2="136.57" y2="187.39"/>
    <path class="cls-2" d="M113.55,19.14c.21.84.43,1.67.64,2.51.21.83.42,1.65.63,2.48.42,1.66.85,3.33,1.26,4.99.41,1.67.82,3.33,1.22,5,.39,1.67.78,3.34,1.13,5.02.36,1.68.69,3.36.98,5.06.29,1.7.53,3.39.7,5.11.17,1.71.25,3.42.21,5.14-.04,1.73-.21,3.42-.53,5.12"/>
    <line class="cls-2" x1="140.5" y1="187.13" x2="138.92" y2="186.67"/>
    <path class="cls-2" d="M33.83,213.65c1.43,1.54,3.94,2.62,5.84,3.21,2.09.66,4.42,1.06,6.61,1.12"/>
    <path class="cls-2" d="M139.56,187.22c.32,0,.63-.02.95-.09"/>
    <line class="cls-2" x1="140.53" y1="187.14" x2="139.6" y2="187.42"/>
    <path class="cls-2" d="M199.4,114.56c1.14.83,2.29,2.06,2.48,3.59"/>
    <line class="cls-2" x1="193.23" y1="138.27" x2="197.19" y2="139.21"/>
    <path class="cls-2" d="M306.59,111.37c-.27-.26-.54-.53-.81-.79"/>
    <path class="cls-2" d="M180.89,211.98c.37.09.74.05,1.09-.06.46-.15.88-.42,1.25-.71.66-.52,1.25-1.19,1.76-1.84,1.01-1.3,1.94-2.88,2.71-4.32,1.55-2.92,2.95-6.27,4.09-9.35"/>
    <path class="cls-2" d="M336.03,147.66c1.17.81,2.38,2.07,2.4,3.67"/>
    <path class="cls-2" d="M70.99,146.08c.89.71,1.76,1.7,2.03,2.88"/>
    <path class="cls-2" d="M100.51,274.42c.59.51,1.16,1.19,1.34,1.99"/>
    <path class="cls-2" d="M206.79,297.19c-.32.36-.56.79-.59,1.29"/>
    <line class="cls-2" x1="55.01" y1="203.14" x2="55.35" y2="199.02"/>
    <path class="cls-2" d="M55.01,203.14c-.36,4.29.03,8.55,1.09,12.72"/>
    <path class="cls-2" d="M197.1,139.21c-.47.08-.9.31-1.28.57-.55.38-1.05.87-1.48,1.37-.61.7-1.15,1.45-1.66,2.22-.65,1-1.23,2.03-1.78,3.08-.7,1.35-1.35,2.72-1.95,4.11-.69,1.59-1.34,3.21-1.94,4.84-2.22,5.96-4.1,12.54-5.53,18.74-1.43,6.19-2.62,12.94-3.23,19.27-.16,1.74-.29,3.47-.35,5.22-.06,1.52-.07,3.03,0,4.54.05,1.24.15,2.47.34,3.7.14.9.34,1.84.65,2.7.21.59.49,1.2.91,1.68.29.34.65.62,1.1.73"/>
    <line class="cls-2" x1="395.27" y1="208.42" x2="395.27" y2="209.96"/>
    <path class="cls-2" d="M356.35,207.49c0,.47,0,.94,0,1.4"/>
    <path class="cls-2" d="M355.5,277.9c9.35-5.43,18.41-12.04,25.91-19.94,7.49-7.89,13.61-17.26,16.46-27.98"/>
    <path class="cls-2" d="M193.14,138.26c-.47.08-.91.3-1.29.57-.55.38-1.05.87-1.49,1.36-.62.7-1.16,1.44-1.66,2.22-.65.99-1.24,2.02-1.79,3.07-.71,1.35-1.35,2.72-1.96,4.11-.7,1.6-1.34,3.21-1.95,4.84-2.23,5.96-4.11,12.55-5.53,18.74-1.43,6.19-2.62,12.95-3.21,19.28-.16,1.74-.28,3.48-.35,5.22-.05,1.52-.06,3.03,0,4.54.05,1.24.15,2.47.35,3.7.14.9.35,1.84.66,2.7.22.59.5,1.2.92,1.68.29.34.66.62,1.11.73"/>
    <path class="cls-2" d="M277.45,189.47c.1-.04.2-.07.29-.11"/>
    <line class="cls-2" x1="259.24" y1="255.5" x2="185.45" y2="190.08"/>
    <line class="cls-2" x1="356.65" y1="226.47" x2="356.68" y2="229.45"/>
    <path class="cls-2" d="M322.49,261.06c5.79-3.8,11.32-8.29,15.94-13.51,4.62-5.22,8.38-11.24,10.41-18"/>
    <path class="cls-2" d="M178.83,206.89c-.16-.04-.25-.21-.3-.33-.1-.26-.14-.58-.16-.85-.03-.45-.01-.89.02-1.34.07-.89.21-1.77.39-2.64.31-1.51.92-3.68,1.69-5.05"/>
    <line class="cls-2" x1="184.04" y1="208.16" x2="178.83" y2="206.89"/>
    <path class="cls-2" d="M310.08,170.87c1.03-1.1,2.02-2.23,2.95-3.42"/>
    <path class="cls-2" d="M186.68,197c.48.12.73.51.86.94.12.4.14.91.14,1.32,0,.85-.14,1.82-.29,2.65-.28,1.52-.86,3.68-1.63,5.06"/>
    <line class="cls-2" x1="185.4" y1="202.97" x2="185.23" y2="205.4"/>
    <line class="cls-2" x1="186.29" y1="200.33" x2="185.4" y2="202.97"/>
    <path class="cls-2" d="M288.24,188.98c-.02.59-.29,1.11-.69,1.53-.4.41-.91.71-1.43.93-1.04.43-2.25.59-3.36.57-1.12-.03-2.31-.24-3.34-.71-.51-.23-1.01-.55-1.41-.96-.4-.41-.68-.93-.72-1.52"/>
    <line class="cls-2" x1="288.37" y1="184.36" x2="288.24" y2="188.86"/>
    <line class="cls-2" x1="279.88" y1="189.43" x2="281.39" y2="190.73"/>
    <line class="cls-2" x1="281.24" y1="188.15" x2="279.88" y2="189.43"/>
    <line class="cls-2" x1="285.62" y1="189.48" x2="284.11" y2="188.17"/>
    <line class="cls-2" x1="281.39" y1="190.73" x2="281.45" y2="188.5"/>
    <line class="cls-2" x1="284.32" y1="188.53" x2="282.89" y2="188.51"/>
    <line class="cls-2" x1="395.27" y1="209.96" x2="356.34" y2="209.61"/>
    <line class="cls-2" x1="356.28" y1="226.47" x2="394.67" y2="226.82"/>
    <line class="cls-2" x1="395.27" y1="209.96" x2="395.2" y2="211.89"/>
    <path class="cls-2" d="M394.78,222.08c0,.74-.02,2.13-.04,2.86"/>
    <line class="cls-2" x1="394.78" y1="222.08" x2="394.79" y2="216.02"/>
    <path class="cls-2" d="M394.78,215.26c-.02-1.02-.02-2.04-.02-3.07"/>
    <line class="cls-2" x1="193.57" y1="143.14" x2="198.79" y2="144.39"/>
    <path class="cls-2" d="M198.79,144.39c.54.13.8.62.91,1.09.11.46.12,1.03.1,1.49-.03.97-.2,2.03-.4,2.97"/>
    <path class="cls-2" d="M199.4,149.96c-.23,1.1-.56,2.3-.97,3.35-.2.51-.47,1.1-.78,1.55-.17.24-.35.46-.61.62-.25.16-.54.22-.84.15"/>
    <line class="cls-2" x1="197.56" y1="150.33" x2="197.37" y2="152.81"/>
    <path class="cls-2" d="M98.14,155.36c3.87,6.89,9.52,12.82,15.59,17.7,6.14,4.93,13.06,9.1,20.1,12.54"/>
    <line class="cls-2" x1="198.44" y1="147.7" x2="197.56" y2="150.33"/>
    <line class="cls-2" x1="319.56" y1="146.87" x2="319.56" y2="146.91"/>
    <path class="cls-2" d="M186.88,196.78c-.78,1.87-1.62,3.71-2.55,5.51-.89,1.72-1.99,3.62-3.18,5.17"/>
    <path class="cls-2" d="M185.61,192.26c-.53.08-1.16.08-1.68-.26-2.61-1.7.02-10.19,1.42-14.71,1.24-4.02,2.06-5.21,3.19-8.68,0,0,.28-.86,1.5-3.47,0,0,.21-.44,1-1.61,0,0,.21-.31.65-.69,0,0,.21-.18.46-.27.12-.04.21-.05.27-.04.05,0,.1.01.13.02"/>
  </g>
  <g id="Make2D::可见线::正切线">
    <path class="cls-2" d="M176.49,210.39c-.46-.15-.82-.47-1.1-.84-.39-.51-.66-1.13-.87-1.73-.29-.85-.47-1.72-.6-2.6-.17-1.14-.25-2.28-.3-3.43-.06-1.47-.05-2.94,0-4.41.06-1.69.18-3.37.33-5.05.56-6.14,1.67-12.67,2.99-18.68.67-3.08,1.42-6.15,2.26-9.19.83-3.05,1.75-6.06,2.76-9.05.26-.78.53-1.55.81-2.32.27-.74.54-1.47.81-2.21.54-1.46,1.07-2.91,1.61-4.37,1.09-2.96,2.18-5.92,3.27-8.88"/>
    <line class="cls-2" x1="194.3" y1="138.54" x2="194.19" y2="137.65"/>
    <line class="cls-2" x1="354.23" y1="221.71" x2="394.78" y2="222.08"/>
    <line class="cls-2" x1="394.79" y1="216.02" x2="354.3" y2="215.66"/>
    <line class="cls-2" x1="354.31" y1="214.9" x2="394.78" y2="215.26"/>
    <line class="cls-2" x1="394.74" y1="224.94" x2="354.2" y2="224.57"/>
    <line class="cls-2" x1="354.23" y1="211.52" x2="395.2" y2="211.89"/>
    <path class="cls-2" d="M287.48,189.49c.03.51-.25.94-.61,1.26-.35.32-.81.55-1.25.71-.89.33-1.91.45-2.84.43s-1.95-.19-2.82-.54c-.44-.18-.88-.41-1.24-.73-.35-.31-.67-.71-.7-1.22"/>
    <path class="cls-2" d="M278.02,189.41c-.03-.52.24-.94.6-1.26.35-.32.81-.55,1.25-.72.89-.33,1.91-.45,2.84-.43s1.95.19,2.83.54c.44.18.88.41,1.24.73.36.31.66.72.69,1.23"/>
    <path class="cls-2" d="M277.29,188.81c.02.38.38.59.73.6"/>
    <path class="cls-2" d="M277.29,188.62c.02-.59.37-1.05.79-1.4.42-.35.94-.6,1.45-.79,1.02-.36,2.19-.5,3.27-.47,1.08.03,2.23.23,3.24.64.5.21,1.01.48,1.42.84.41.36.76.83.79,1.41"/>
    <path class="cls-2" d="M223.81,224.08c-3.42.08-6.84.1-10.26.05-3.46-.05-6.91-.17-10.36-.35-6.87-.36-13.71-.98-20.54-1.86-13.58-1.75-27.22-4.56-40.34-8.52-13.04-3.93-26.1-9.16-38.01-15.85-11.68-6.57-23.33-15.18-31.79-25.88"/>
    <line class="cls-2" x1="395.22" y1="211.18" x2="397.64" y2="211.2"/>
    <path class="cls-2" d="M186.4,198.76c.13-.23.29-.49.49-.67.1-.09.27-.21.42-.12.14.08.2.28.24.41.07.27.09.54.09.81.02.82-.11,1.8-.25,2.6-.26,1.47-.83,3.64-1.57,4.97"/>
    <path class="cls-2" d="M185.82,206.76c-.11.2-.56,1-.91.81-.14-.08-.21-.27-.24-.41-.07-.27-.09-.54-.1-.82-.02-.82.11-1.81.25-2.6.26-1.47.83-3.65,1.57-4.98"/>
    <path class="cls-2" d="M185.7,197.94c.19.04.36.15.49.29.13.14.22.33.21.52"/>
    <path class="cls-2" d="M185.7,197.94c.12-.21.24-.41.4-.6.11-.14.36-.41.59-.35"/>
    <line class="cls-2" x1="180.48" y1="196.67" x2="185.7" y2="197.94"/>
    <line class="cls-2" x1="394.77" y1="222.94" x2="398.44" y2="222.98"/>
    <path class="cls-2" d="M184.04,208.16c-.16-.04-.24-.21-.29-.33-.1-.26-.14-.58-.15-.86-.03-.45,0-.89.03-1.33.07-.89.21-1.77.39-2.64.31-1.51.92-3.68,1.69-5.05"/>
    <path class="cls-2" d="M185.36,208.86c7.77.99,15.55,1.61,23.39,1.87"/>
    <path class="cls-2" d="M247.67,208.93c14.11-1.83,28.48-5.09,41.83-10.13,13.04-4.93,26.54-12.13,36.63-22.19"/>
    <path class="cls-2" d="M169.98,289.27c-.39,4.2-.78,8.4-1.18,12.6"/>
    <line class="cls-2" x1="52.29" y1="146.02" x2="52.14" y2="147.83"/>
    <path class="cls-2" d="M189.01,137.63c-1.49,4.06-2.99,8.11-4.48,12.17-.85,2.31-1.41,3.77-2.19,6.1-.69,2.05-1.33,4.11-1.93,6.19"/>
    <line class="cls-2" x1="197.1" y1="139.21" x2="193.14" y2="138.26"/>
    <line class="cls-2" x1="198.65" y1="137.74" x2="199.55" y2="145.04"/>
    <path class="cls-2" d="M119.06,57.23c.23-3.23.07-6.42-.26-9.63-.33-3.2-.83-6.38-1.4-9.55-1.06-5.94-2.58-13.02-3.85-18.91"/>
    <path class="cls-2" d="M336.33,186.2c-9.65,10.04-22.49,17.48-35.08,22.77-12.85,5.4-26.73,9.13-40.42,11.53"/>
    <line class="cls-2" x1="139.54" y1="186.85" x2="139.56" y2="187.22"/>
    <path class="cls-2" d="M98.82,101.55c.34-4.6.41-9.29.11-13.9-.16-2.38-.41-4.73-.79-7.08-.36-2.24-.83-4.44-1.46-6.62-.67-2.32-1.55-4.7-2.71-6.83-1.01-1.86-2.34-3.76-4.05-5.09-1.62-1.26-3.51-1.96-5.61-1.66-1.19.17-2.29.63-3.3,1.25-1.23.75-2.33,1.75-3.29,2.81-1.49,1.64-2.79,3.57-3.89,5.48-1.2,2.08-2.22,4.23-3.15,6.44-.91,2.15-1.71,4.34-2.45,6.55-.73,2.19-1.39,4.39-2,6.62-1.23,4.48-2.24,9-3.1,13.56-.44,2.31-.83,4.63-1.19,6.95-.35,2.26-.67,4.52-.95,6.79"/>
    <line class="cls-2" x1="397.65" y1="212.5" x2="394.76" y2="212.47"/>
    <path class="cls-2" d="M363.35,113.58c.29-.12.58-.2.9-.22.27-.02.66,0,.87.24"/>
    <line class="cls-2" x1="398.34" y1="220.1" x2="394.78" y2="220.06"/>
    <path class="cls-2" d="M139.62,190.61c-.94,0-1.95-.17-2.84-.49-.46-.16-.89-.37-1.29-.65-.38-.27-.76-.62-.94-1.07-.2-.49-.11-.95.21-1.36.29-.38.74-.65,1.17-.83.86-.37,1.91-.51,2.83-.5"/>
    <path class="cls-2" d="M133.74,187.11c.06-.97,1.04-1.58,1.79-1.89.83-.34,1.79-.5,2.68-.54"/>
    <path class="cls-2" d="M47.71,221.87c-.76,7.85-1.52,15.71-2.28,23.56"/>
    <path class="cls-2" d="M291.16,102.15c.14-5.22.72-10.53,1.86-15.64,1.11-5.03,2.84-10.23,5.4-14.76,1.3-2.3,2.9-4.55,4.8-6.42,1.82-1.79,3.99-3.31,6.48-4.07,2.31-.7,4.65-.67,6.95.06,2.8.9,5.19,2.73,7.16,4.8,1.79,1.88,3.33,4.06,4.64,6.29,1.35,2.29,2.49,4.66,3.5,7.11,1.02,2.47,1.9,4.98,2.68,7.54.75,2.48,1.41,4.99,1.98,7.52.59,2.61,1.09,5.24,1.52,7.88.41,2.55.76,5.11,1.04,7.68.29,2.66.51,5.31.66,7.98.15,2.58.23,5.17.25,7.76"/>
    <line class="cls-2" x1="285.84" y1="20.63" x2="283.41" y2="103.52"/>
    <line class="cls-2" x1="291.06" y1="105.72" x2="291.16" y2="102.15"/>
    <path class="cls-2" d="M83.78,163.18c9.63,11.69,23.29,20.68,36.59,27.16,13.66,6.66,28.59,11.5,43.38,14.77"/>
    <line class="cls-2" x1="201.88" y1="118.15" x2="199.71" y2="116.21"/>
    <path class="cls-2" d="M386.06,164.61c-6.57-9.19-15.04-17.2-23.97-23.96-9-6.82-18.9-12.71-28.99-17.73-20.12-10.02-42.33-17.28-64.18-22.21"/>
    <path class="cls-2" d="M268.93,100.71c.13-3.32.28-6.65.44-9.97.08-1.66.16-3.32.25-4.98.09-1.66.18-3.32.28-4.98.2-3.32.43-6.63.69-9.95.27-3.31.57-6.63.85-9.94"/>
    <line class="cls-2" x1="337.33" y1="150.38" x2="338.42" y2="151.33"/>
    <path class="cls-2" d="M61.38,53.09c-.94,5.07-2.04,10.1-3.34,15.09-1.3,4.99-2.79,9.91-4.53,14.77-1.74,4.86-3.72,9.6-5.98,14.25-1.13,2.32-2.32,4.6-3.57,6.85-1.25,2.25-2.56,4.47-3.91,6.66"/>
    <path class="cls-2" d="M285.84,20.63c-.62,1.73-1.24,3.47-1.86,5.2s-1.25,3.46-1.88,5.19c-1.25,3.46-2.51,6.92-3.73,10.39-.61,1.74-1.21,3.47-1.78,5.22-.57,1.75-1.12,3.5-1.63,5.27-1.01,3.56-1.81,7.11-2.08,10.82"/>
    <path class="cls-2" d="M363.35,113.58c-1.16-2.26-2.28-4.54-3.35-6.84-1.07-2.3-2.09-4.63-3.05-6.98-.96-2.35-1.85-4.73-2.69-7.12-.84-2.4-1.61-4.82-2.33-7.25-.72-2.44-1.38-4.89-1.98-7.36-.61-2.47-1.16-4.94-1.67-7.43-1.01-4.98-1.83-9.99-2.5-15.03"/>
    <path class="cls-2" d="M383.67,161.06c-.34-2.14-.74-4.27-1.22-6.39-.48-2.12-1.04-4.21-1.67-6.29-.64-2.08-1.35-4.12-2.14-6.14-.79-2.02-1.65-4.01-2.58-5.97-1.86-3.93-3.95-7.72-6.14-11.47-2.19-3.75-4.44-7.45-6.57-11.23"/>
    <line class="cls-2" x1="348.76" y1="207.27" x2="398.75" y2="207.72"/>
    <line class="cls-2" x1="363.35" y1="113.58" x2="363.08" y2="140.86"/>
    <line class="cls-2" x1="38.26" y1="130.9" x2="40.05" y2="110.72"/>
    <line class="cls-2" x1="397.87" y1="229.99" x2="348.83" y2="229.54"/>
    <path class="cls-2" d="M271.46,60.9c.15-1.79.47-3.54.89-5.28.42-1.74.94-3.45,1.51-5.14,1.09-3.24,2.53-6.85,3.82-10.01,1.35-3.31,2.73-6.61,4.1-9.91.68-1.65,1.36-3.3,2.04-4.95.6-1.47,1.43-3.5,2.02-4.97"/>
    <path class="cls-2" d="M365.12,113.6c2.28,4.04,4.71,7.99,7.03,12,2.33,4.02,4.54,8.08,6.45,12.32.96,2.11,1.83,4.26,2.63,6.44s1.5,4.38,2.12,6.62c1.25,4.49,2.12,9.01,2.71,13.63"/>
    <path class="cls-2" d="M345.78,55.57c.73,4.99,1.69,10.21,2.79,15.13.56,2.5,1.18,4.99,1.85,7.47.67,2.48,1.4,4.93,2.19,7.38.79,2.44,1.64,4.85,2.56,7.25.92,2.4,1.9,4.76,2.95,7.11,2.14,4.78,4.41,9.14,6.99,13.7"/>
    <line class="cls-2" x1="344.74" y1="128.53" x2="345.78" y2="55.57"/>
    <line class="cls-2" x1="61.38" y1="53.09" x2="55.74" y2="119.58"/>
    <line class="cls-2" x1="107.68" y1="100.04" x2="113.55" y2="19.14"/>
    <path class="cls-2" d="M59.4,117.63c.61-4.79,1.37-9.55,2.31-14.29.46-2.35.97-4.68,1.52-7.01.56-2.37,1.18-4.73,1.85-7.07,1.31-4.57,2.91-9.28,4.84-13.64,1-2.27,2.1-4.47,3.38-6.61,1.19-1.98,2.58-3.98,4.17-5.68,1.01-1.09,2.15-2.1,3.4-2.91,1.06-.68,2.21-1.21,3.44-1.48,2.12-.46,4.14-.06,5.98,1.05,1.96,1.18,3.52,3.02,4.71,4.9,1.35,2.12,2.38,4.54,3.17,6.91.75,2.24,1.3,4.51,1.73,6.83.46,2.44.76,4.89.96,7.36.19,2.35.27,4.71.27,7.07,0,2.47-.1,4.93-.28,7.4"/>
    <line class="cls-2" x1="98.76" y1="102.4" x2="98.82" y2="101.55"/>
    <path class="cls-2" d="M239.81,291.04c-.3,4.49-.6,8.99-.91,13.48"/>
    <path class="cls-2" d="M218.97,115.06c-.42,5.88-.84,11.76-1.27,17.64"/>
    <path class="cls-2" d="M206.85,119.78c-.04.44-.07.88-.11,1.32"/>
    <path class="cls-2" d="M249.05,119.84c-.06,3.77-.12,7.54-.19,11.31"/>
    <path class="cls-2" d="M131.87,119.18c-.22,1.99-.44,3.98-.66,5.96"/>
    <line class="cls-2" x1="58.15" y1="191.04" x2="56.1" y2="215.86"/>
    <line class="cls-2" x1="182.43" y1="113.62" x2="182.1" y2="119.78"/>
    <path class="cls-2" d="M118.68,60.57c.17-1.11.3-2.22.38-3.34"/>
    <line class="cls-2" x1="93.6" y1="271.75" x2="93.02" y2="279.71"/>
    <line class="cls-2" x1="327.69" y1="145.31" x2="327.5" y2="155.58"/>
    <path class="cls-2" d="M20.27,139.37c1.25-2.55,2.61-5.03,4.05-7.47,1.45-2.44,2.98-4.82,4.55-7.18,3.16-4.71,6.49-9.29,9.65-14.01"/>
    <path class="cls-2" d="M291.16,102.15c.8.3,1.56.65,2.29,1.11"/>
    <path class="cls-2" d="M272.88,62.71c-.25,3.13-.51,6.25-.76,9.38s-.47,6.25-.67,9.38c-.39,6.26-.69,12.52-.95,18.79"/>
    <line class="cls-2" x1="271.66" y1="100.53" x2="272.88" y2="62.71"/>
    <path class="cls-2" d="M100.84,100.48c-.72.28-1.39.62-2.02,1.07"/>
    <line class="cls-2" x1="71.99" y1="148.01" x2="73.02" y2="148.96"/>
    <line class="cls-2" x1="100.92" y1="275.53" x2="101.85" y2="276.41"/>
    <path class="cls-2" d="M98.82,101.55c-.64.46-1.28.92-1.92,1.38"/>
    <line class="cls-2" x1="202.32" y1="121.87" x2="200.16" y2="119.94"/>
    <line class="cls-2" x1="221.72" y1="298.93" x2="223.58" y2="300.66"/>
    <line class="cls-2" x1="293.45" y1="103.27" x2="293.37" y2="106.43"/>
    <path class="cls-2" d="M259.43,302.72c-.03-3.87-.06-7.73-.09-11.6"/>
    <path class="cls-2" d="M38.55,110.68c1.62-2.42,3.17-4.87,4.66-7.37"/>
    <path class="cls-2" d="M40.05,110.72c-.25-.11-.49-.19-.76-.23-.22-.03-.58-.04-.74.19"/>
    <path class="cls-2" d="M12.62,161.27c.86-3.78,1.9-7.5,3.18-11.17.64-1.83,1.33-3.64,2.07-5.42.75-1.79,1.55-3.55,2.4-5.29"/>
    <path class="cls-2" d="M113.84,99.34c-19.58,4.31-39.74,10.9-57.52,20.47-8.91,4.8-17.59,10.55-25.15,17.35-7.53,6.77-14.2,14.81-18.56,24.1"/>
    <path class="cls-2" d="M119.8,59.57c-.62,3.3-1.31,6.58-1.95,9.87-.32,1.65-.62,3.3-.9,4.95-.28,1.65-.55,3.31-.79,4.97-.97,6.53-1.71,13.42-2.31,19.98"/>
    <path class="cls-2" d="M135.48,130.14c.34-4.3.68-8.6,1.02-12.9"/>
    <path class="cls-2" d="M167.09,132.25c.15-5.73.29-11.45.44-17.18"/>
    <path class="cls-2" d="M150.73,115.46c-.46,6.19-.92,12.37-1.39,18.56"/>
    <path class="cls-2" d="M227.37,299.92l.42-6.21"/>
    <path class="cls-2" d="M338.13,124.83c0-2.49-.08-4.97-.21-7.45-.13-2.55-.32-5.1-.57-7.64-.25-2.47-.55-4.93-.92-7.38-.38-2.53-.83-5.05-1.35-7.56-.51-2.44-1.1-4.86-1.78-7.26-.69-2.46-1.48-4.87-2.4-7.26-.92-2.39-1.96-4.7-3.21-6.94-1.19-2.14-2.62-4.27-4.28-6.09-1.01-1.1-2.08-2.08-3.32-2.91-1.09-.73-2.27-1.32-3.55-1.68-2.24-.63-4.47-.46-6.6.42-2.27.93-4.21,2.57-5.79,4.37-1.71,1.94-3.12,4.2-4.28,6.49-1.12,2.21-2.03,4.49-2.8,6.84-.8,2.45-1.44,4.93-1.96,7.46-1,4.92-1.52,10-1.65,15.01"/>
    <path class="cls-2" d="M305.05,110.32c-3.91-2.29-7.77-4.64-11.6-7.06"/>
    <path class="cls-2" d="M189.83,304.06c.07-4.38.14-8.76.2-13.15"/>
    <path class="cls-2" d="M235.95,134.79c.12-5.94.25-11.87.37-17.81"/>
    <path class="cls-2" d="M207.37,126.57c.22-2.9.44-5.79.66-8.69"/>
    <path class="cls-2" d="M251.86,126.22c0-1.27,0-2.54-.01-3.82"/>
    <path class="cls-2" d="M272.88,62.71c-.02-.86-.66-1.54-1.42-1.82"/>
    <path class="cls-2" d="M43.2,103.31c1.14-1.93,2.23-3.88,3.27-5.86,1.04-1.98,2.03-3.99,2.96-6.02,1.88-4.07,3.54-8.21,5.02-12.44,1.48-4.23,2.78-8.5,3.92-12.83.57-2.16,1.11-4.33,1.61-6.52.5-2.18.96-4.36,1.39-6.56"/>
    <path class="cls-2" d="M118.55,61.36c-.01-.15,0-.3.03-.45"/>
    <path class="cls-2" d="M30.98,242.07c.94-9.49,1.88-18.98,2.82-28.46"/>
    <path class="cls-2" d="M53.24,243.86c.16-3.71.32-7.42.49-11.13"/>
    <path class="cls-2" d="M118.57,60.92c.13-.65.62-1.13,1.22-1.34"/>
    <path class="cls-2" d="M33.83,213.65c.62-2.17,1.29-4.32,2.03-6.45.74-2.13,1.53-4.24,2.38-6.33,1.7-4.18,3.6-8.27,5.57-12.32"/>
    <line class="cls-2" x1="206.22" y1="298.78" x2="204.2" y2="300.48"/>
    <line class="cls-2" x1="182.1" y1="119.78" x2="179.74" y2="121.67"/>
    <line class="cls-2" x1="181.6" y1="116.05" x2="179.23" y2="117.95"/>
    <line class="cls-2" x1="52.14" y1="147.83" x2="50.96" y2="148.76"/>
    <line class="cls-2" x1="317.45" y1="150.2" x2="316.33" y2="151.13"/>
    <path class="cls-2" d="M40.05,110.72c-2.36,3.53-4.83,6.99-7.24,10.48-2.42,3.49-4.77,7.02-6.94,10.68-2.17,3.66-4.12,7.42-5.81,11.33-.84,1.95-1.62,3.92-2.33,5.93-.71,2-1.35,4.02-1.93,6.07"/>
    <line class="cls-2" x1="100.84" y1="100.48" x2="100.74" y2="101.84"/>
    <path class="cls-2" d="M142.88,189.89c-.94.55-2.21.72-3.26.71"/>
    <path class="cls-2" d="M138.75,185.7c.1,0,.21,0,.31,0"/>
    <path class="cls-2" d="M193.54,164.48l-2.8-.56c1.52-.13,4.08-.14,6.53,1.03.39.19.75.39,1.07.6"/>
    <path class="cls-2" d="M196.21,155.63c-.09-.02-.16-.09-.21-.16-.08-.12-.12-.25-.16-.39-.06-.23-.08-.45-.09-.68-.03-.46,0-.92.03-1.38.07-.92.22-1.83.41-2.74"/>
    <line class="cls-2" x1="190.94" y1="149.01" x2="196.18" y2="150.27"/>
    <path class="cls-2" d="M197.11,150.42c.18-.86.4-1.7.68-2.54.21-.62.67-1.83,1.16-2.34.47-.49.69-.01.77.52.06.42.05.89.03,1.31-.05.88-.19,1.74-.37,2.6"/>
    <path class="cls-2" d="M138.72,185.3c0,.14.01.27.04.41"/>
    <path class="cls-2" d="M199.48,166.56c.96-.11,2.02.28,2.81.72"/>
    <line class="cls-2" x1="199.8" y1="147.07" x2="202.29" y2="167.28"/>
    <path class="cls-2" d="M196.18,150.27c.23-1.09.51-2.15.88-3.2.19-.52.39-1.03.64-1.53.13-.25.26-.49.43-.71.1-.14.21-.27.36-.36.08-.06.19-.1.3-.08"/>
    <path class="cls-2" d="M199.38,149.97c-.18.86-.4,1.7-.68,2.53-.21.62-.67,1.83-1.16,2.34-.47.49-.69.01-.77-.52-.06-.42-.05-.89-.03-1.31.05-.88.19-1.74.37-2.6"/>
    <path class="cls-2" d="M139.67,190.71s-.03-.04-.03-.05c0-.02,0-.04-.01-.06"/>
    <path class="cls-2" d="M259.24,255.5c-.52-.46-.72-1.12-.77-1.77"/>
    <path class="cls-2" d="M185.76,206.96c.04-.06.05-.13.06-.2"/>
    <path class="cls-2" d="M277.29,188.76s0-.09,0-.14"/>
    <path class="cls-2" d="M288.24,188.86c0,.19-.11.36-.25.47s-.33.17-.51.17"/>
    <line class="cls-2" x1="356.34" y1="208.89" x2="354.23" y2="208.87"/>
    <line class="cls-2" x1="354.2" y1="227.15" x2="356.27" y2="227.17"/>
    <path class="cls-2" d="M199.4,149.96s-.01,0-.02.01"/>
    <path class="cls-2" d="M196.18,150.27c.14.03.77.18.93.14"/>
    <path class="cls-2" d="M123.4,152.65c-1.48-1.58-2.77-3.39-3.64-5.4"/>
    <path class="cls-2" d="M202.29,167.28c-.76-.35-1.64-.62-2.48-.62"/>
    <path class="cls-2" d="M202.29,167.28c-.67,0-1.34-.01-2.01-.02"/>
    <line class="cls-2" x1="83.12" y1="275.36" x2="82.06" y2="276.22"/>
  </g>
  <g id="_装" data-name="装">
    <g>
      <path class="cls-1" d="M386.2,285.96c12.21-3.82,22.66-11.81,28.88-23.36,4.67-8.68,6.34-18.25,5.38-27.69"/>
      <polygon class="cls-3" points="436.34 235.17 413.31 213.08 405.69 244.07 436.34 235.17"/>
    </g>
  </g>
</svg>