<?xml version="1.0" encoding="UTF-8"?>
<svg xmlns="http://www.w3.org/2000/svg" viewBox="0 0 566.55 403.72">
  <defs>
    <style>
      .cls-1 {
        stroke: #000;
      }

      .cls-1, .cls-2 {
        fill: none;
        stroke-linecap: round;
        stroke-linejoin: round;
      }

      .cls-3 {
        fill: #bfbfbf;
        stroke-width: 0px;
      }

      .cls-2 {
        stroke: red;
        stroke-width: 4px;
      }
    </style>
  </defs>
  <g id="_图层_4" data-name="图层 4">
    <ellipse class="cls-2" cx="360.13" cy="180.36" rx="170.61" ry="189.5" transform="translate(134.87 514.25) rotate(-82.6)"/>
  </g>
  <g id="_图层_3" data-name="图层 3">
    <polygon class="cls-3" points="18.61 351.99 12.58 352.77 8.33 354.82 5.78 357.19 2.48 362.88 .9 368.86 .5 374.15 .69 378 1.62 383.47 3.27 388.6 5.26 392.73 7.48 396.08 10.32 399.17 14.01 401.76 17.68 403.03 20.44 403.22 24.46 402.51 28.18 401.39 31.17 399.3 33.95 395.59 35.77 392.11 87.65 382.52 88.48 383.58 93.49 387 96.87 388.2 100.07 388.2 103.17 387.27 108.71 385.53 113 384.72 234.34 361.68 238.02 359.97 241.33 356.95 243.17 353.8 244.84 350.39 245.66 346.08 245.91 339.31 244.84 334.26 244.33 332.67 254.74 329.06 255.69 327.95 256.21 326.03 255.96 324.09 255.36 322.66 254.16 321.27 253.35 321.04 237.16 321.27 233.44 319.06 230.06 317.91 227.15 317.86 100.73 339.02 97.23 338.73 93.84 339.18 91.03 339.77 67.57 350.51 66.41 351.58 29.82 357.94 26.65 355.14 23.94 353.44 21.32 352.46 18.61 351.99"/>
  </g>
  <g id="Make2D::可见线::曲线">
    <path class="cls-1" d="M461.89,317.85s-.02.02-.03.03"/>
    <line class="cls-1" x1="107.49" y1="378.73" x2="35.77" y2="392.11"/>
    <line class="cls-1" x1="29.82" y1="358.16" x2="101.65" y2="345.81"/>
    <path class="cls-1" d="M200.61,243.57c1.65,5.21,3.49,10.35,5.52,15.42,2.04,5.08,4.26,10.05,6.68,14.95"/>
    <path class="cls-1" d="M212.82,273.95c-.76-1.54-1.08-3.35-.9-5.06.17-1.63.84-3.48,2.27-4.51"/>
    <path class="cls-1" d="M207.41,247.54c-.42.27-.86.45-1.35.53"/>
    <path class="cls-1" d="M207.9,255.67c0,.98.28,2.01.82,2.83.53.79,1.43,1.51,2.49,1.36"/>
    <path class="cls-1" d="M225.93,317.86c2.53-.43,5.06,0,7.37,1.05,2.3,1.05,4.3,2.67,5.95,4.56,1.66,1.89,3,4.08,4.02,6.36,1.03,2.29,1.75,4.74,2.18,7.21"/>
    <path class="cls-1" d="M197.23,322.71c1.23-.21,2.48-.2,3.71,0"/>
    <path class="cls-1" d="M405.47,21.81c1.13.35,2.25.72,3.37,1.09"/>
    <path class="cls-1" d="M405.83,343.06s-.08.02-.12.03"/>
    <line class="cls-1" x1="402.49" y1="343.88" x2="405.7" y2="343.09"/>
    <path class="cls-1" d="M178.03,325.96c1.23-.21,2.48-.2,3.71,0"/>
    <path class="cls-1" d="M405.7,343.09c.1-.02.19-.04.29-.06"/>
    <path class="cls-1" d="M158.5,329.26c1.23-.21,2.48-.2,3.71,0"/>
    <path class="cls-1" d="M138.63,332.62c1.23-.21,2.48-.2,3.71,0"/>
    <path class="cls-1" d="M118.41,336.03c1.23-.21,2.48-.2,3.71.01"/>
    <path class="cls-1" d="M212.64,78.89c-1.23,2.28-2.4,4.59-3.53,6.92s-2.19,4.69-3.21,7.07c-1.02,2.38-1.98,4.78-2.9,7.2s-1.78,4.86-2.6,7.32"/>
    <line class="cls-1" x1="236.98" y1="321.27" x2="252.7" y2="320.96"/>
    <path class="cls-1" d="M200.4,107.4c.3-.92.79-1.81,1.48-2.51.7-.7,1.59-1.17,2.6-1.21"/>
    <path class="cls-1" d="M207.24,104.72c1.07.9,2.39,1.48,3.83,1.41"/>
    <path class="cls-1" d="M214.04,88.93c-1.33-1.22-2.05-3.06-2.28-4.78-.22-1.74.02-3.67.87-5.25"/>
    <path class="cls-1" d="M207.71,96.55c0,.93.24,1.9.75,2.7.49.77,1.31,1.45,2.32,1.38"/>
    <path class="cls-1" d="M95.05,339.02c3.93-.66,7.65.86,10.6,3.22"/>
    <path class="cls-1" d="M356.85,5.79c.02-.66.58-1.14,1.21-1.15"/>
    <path class="cls-1" d="M355.78,355.79c16.05.71,32.15-.5,47.9-3.66"/>
    <path class="cls-1" d="M355.78,355.79c-.64-.03-1.24-.53-1.24-1.2"/>
    <path class="cls-1" d="M171.19,178.3c.58,28.52,8.56,56.24,22.64,80.95,7.02,12.31,15.47,23.75,25.13,34.12,4.84,5.19,9.92,10.08,15.3,14.7,5.39,4.63,10.99,8.92,16.85,12.93"/>
    <path class="cls-1" d="M171.19,178.3c-.01-.59.44-1.05,1.01-1.1"/>
    <line class="cls-1" x1="142.34" y1="332.62" x2="143.01" y2="332.51"/>
    <path class="cls-1" d="M160.68,329.18c.78-.32,1.58-.55,2.41-.7"/>
    <line class="cls-1" x1="181.74" y1="325.95" x2="182.39" y2="325.84"/>
    <path class="cls-1" d="M120.26,335.97c.72-.29,1.46-.5,2.22-.63"/>
    <path class="cls-1" d="M120.7,335.95c.8-.34,1.6-.58,2.46-.72"/>
    <path class="cls-1" d="M140.43,332.56c.72-.28,1.44-.49,2.2-.62"/>
    <path class="cls-1" d="M140.86,332.54c.79-.33,1.59-.57,2.43-.71"/>
    <path class="cls-1" d="M179.73,325.9c.71-.27,1.42-.47,2.17-.6"/>
    <path class="cls-1" d="M180.16,325.88c.77-.32,1.56-.54,2.38-.68"/>
    <path class="cls-1" d="M256.21,325.7c0,.73-.15,1.49-.47,2.16-.33.66-.85,1.24-1.58,1.49"/>
    <line class="cls-1" x1="105.94" y1="386.74" x2="127.84" y2="377.22"/>
    <path class="cls-1" d="M396.63,347.57c-3.28.65-6.56,1.21-9.87,1.68-3.31.47-6.63.86-9.96,1.16-3.34.3-6.69.51-10.04.64-3.36.13-6.72.16-10.08.11-3.45-.05-6.9-.19-10.34-.43-3.25-.22-6.49-.53-9.73-.91-3.34-.4-6.66-.88-9.98-1.45-3.28-.56-6.53-1.2-9.77-1.93-6.55-1.47-12.99-3.26-19.35-5.4-3.17-1.06-6.31-2.21-9.42-3.43-1.57-.62-3.13-1.26-4.69-1.91-1.53-.65-3.05-1.32-4.57-2-3.07-1.4-6.09-2.87-9.09-4.42-1.49-.77-2.96-1.56-4.43-2.37-1.47-.81-2.93-1.65-4.38-2.5-1.43-.84-2.86-1.7-4.27-2.58-1.43-.89-2.84-1.8-4.24-2.72-2.78-1.84-5.51-3.74-8.19-5.72-2.71-2-5.36-4.07-7.96-6.21-1.3-1.07-2.58-2.16-3.85-3.27-1.26-1.1-2.5-2.22-3.73-3.35-2.46-2.27-4.86-4.59-7.19-6.99-2.32-2.39-4.58-4.83-6.76-7.34-2.22-2.54-4.36-5.14-6.43-7.8-2.06-2.65-4.04-5.35-5.95-8.11-1.9-2.75-3.71-5.55-5.45-8.4-1.73-2.84-3.38-5.73-4.95-8.67-.79-1.49-1.56-2.99-2.31-4.5-.75-1.51-1.47-3.03-2.18-4.56-1.4-3.05-2.71-6.13-3.93-9.26-1.21-3.12-2.33-6.26-3.36-9.44-1.02-3.17-1.95-6.37-2.77-9.59-.84-3.26-1.57-6.53-2.21-9.84-.63-3.29-1.16-6.6-1.59-9.93-.85-6.65-1.29-13.28-1.31-19.98"/>
    <path class="cls-1" d="M403.68,352.13c19-3.81,37.36-10.44,54.34-19.81,8.48-4.68,16.57-10.02,24.19-16,7.62-5.98,14.73-12.57,21.25-19.73,26.4-28.98,41.84-65.9,43.22-105.2"/>
    <path class="cls-1" d="M348.28,10.55c-.99.03-1.98.07-2.97.12"/>
    <line class="cls-1" x1="209.3" y1="246.8" x2="293.45" y2="233.25"/>
    <path class="cls-1" d="M496.37,310.49c.2-.47.37-.95.5-1.45"/>
    <path class="cls-1" d="M448.43,43.68c0-.71.16-1.44.48-2.08"/>
    <path class="cls-1" d="M461.89,317.85c-8.5,5.79-17.56,10.83-26.94,15.04-9.38,4.21-19.17,7.61-29.13,10.17"/>
    <path class="cls-1" d="M408.84,22.9c10.12,3.37,20,7.59,29.43,12.59,9.42,5,18.47,10.83,26.9,17.36"/>
    <path class="cls-1" d="M440.26,39.63c-1.09,2.85-1.01,6.22.2,9.02.61,1.4,1.52,2.71,2.73,3.67,1.22.96,2.69,1.54,4.27,1.5"/>
    <path class="cls-1" d="M464.17,328.13c.28-.27.56-.54.84-.81"/>
    <line class="cls-1" x1="254.16" y1="329.35" x2="244.33" y2="332.67"/>
    <path class="cls-1" d="M193.41,323.36c.16-.03.33-.05.49-.07"/>
    <path class="cls-1" d="M189.59,324c.16-.03.33-.05.49-.07"/>
    <path class="cls-1" d="M185.75,324.65c.16-.03.33-.05.49-.07"/>
    <path class="cls-1" d="M181.9,325.3c.16-.03.33-.05.49-.07"/>
    <path class="cls-1" d="M178.68,325.85c1.23-.21,2.48-.2,3.71,0"/>
    <path class="cls-1" d="M174.15,326.61c.16-.03.33-.05.49-.07"/>
    <path class="cls-1" d="M170.26,327.27c.16-.03.33-.05.49-.07"/>
    <path class="cls-1" d="M166.35,327.93c.16-.03.33-.05.49-.07"/>
    <path class="cls-1" d="M445.23,321.89c0-.63.14-1.27.41-1.84"/>
    <path class="cls-1" d="M162.44,328.59c.16-.03.33-.05.49-.07"/>
    <path class="cls-1" d="M159.16,329.15c1.23-.21,2.48-.2,3.71,0"/>
    <path class="cls-1" d="M154.56,329.92c.16-.03.33-.05.49-.07"/>
    <path class="cls-1" d="M150.59,330.59c.16-.03.33-.05.49-.07"/>
    <path class="cls-1" d="M146.62,331.26c.16-.03.33-.05.49-.07"/>
    <path class="cls-1" d="M142.63,331.94c.16-.03.33-.05.49-.07"/>
    <path class="cls-1" d="M139.3,332.5c1.23-.21,2.48-.2,3.71,0"/>
    <path class="cls-1" d="M134.61,333.29c.16-.03.33-.05.49-.07"/>
    <path class="cls-1" d="M130.59,333.98c.16-.03.33-.05.49-.07"/>
    <path class="cls-1" d="M126.54,334.66c.16-.03.33-.05.49-.07"/>
    <path class="cls-1" d="M122.48,335.34c.16-.03.33-.05.49-.07"/>
    <path class="cls-1" d="M119.09,335.92c1.23-.21,2.48-.2,3.71.01"/>
    <line class="cls-1" x1="408.84" y1="22.9" x2="408.84" y2="22.9"/>
    <path class="cls-1" d="M209.3,246.8c-.68.11-1.31.36-1.89.73"/>
    <path class="cls-1" d="M210.14,252.2c-.78.11-1.37.66-1.72,1.31-.36.66-.52,1.43-.51,2.16"/>
    <path class="cls-1" d="M457.68,47.31h0"/>
    <path class="cls-1" d="M210.24,92.82c-.87.06-1.53.66-1.94,1.36-.41.71-.59,1.56-.59,2.37"/>
    <line class="cls-1" x1="348.92" y1="4.62" x2="348.92" y2="4.62"/>
    <path class="cls-1" d="M347.54,4.66c-22.45.64-44.72,5.06-65.65,13.27-20.93,8.21-40.27,20.11-56.82,35.38-4.15,3.83-8.08,7.83-11.84,12.04-3.72,4.17-7.22,8.51-10.51,13.03-6.61,9.08-12.29,18.79-16.94,29.01-9.33,20.53-14.29,42.66-14.62,65.21"/>
    <path class="cls-1" d="M545.15,186.57c.1-.01.21-.02.31-.02"/>
    <line class="cls-1" x1="409.13" y1="38.91" x2="409.14" y2="38.91"/>
    <path class="cls-1" d="M293.45,233.25c-2.85.46-5.68,1.04-8.5,1.65"/>
    <path class="cls-1" d="M204.49,103.69c1.04-.03,1.98.39,2.75,1.03"/>
    <path class="cls-1" d="M206.06,248.07c-1.33.22-2.57-.36-3.49-1.24-.93-.88-1.57-2.06-1.95-3.26"/>
    <path class="cls-1" d="M566.02,184.18c-.18,10.2-1.28,20.38-3.3,30.38-2.02,10-4.94,19.8-8.74,29.27-3.8,9.47-8.46,18.57-13.93,27.19-5.47,8.63-11.7,16.71-18.63,24.21-6.94,7.51-14.49,14.35-22.62,20.54-8.12,6.19-16.74,11.67-25.74,16.48-9.04,4.83-18.32,8.92-27.93,12.45-2.49.92-5,1.79-7.53,2.63-2.49.83-5,1.62-7.51,2.38-2.43.73-4.87,1.44-7.32,2.11-2.28.63-4.57,1.24-6.87,1.84"/>
    <path class="cls-1" d="M358.07,4.63s.05,0,.07,0"/>
    <line class="cls-1" x1="172.19" y1="177.19" x2="172.31" y2="177.18"/>
    <path class="cls-1" d="M172.19,177.19s.08,0,.11,0"/>
    <path class="cls-1" d="M211.21,259.87c.78-.11,1.36-.66,1.72-1.31.36-.65.51-1.43.51-2.16"/>
    <line class="cls-1" x1="402.74" y1="346.36" x2="396.63" y2="347.57"/>
    <path class="cls-1" d="M210.78,100.62c.86-.06,1.53-.66,1.93-1.36.41-.71.59-1.56.59-2.36"/>
    <path class="cls-1" d="M493.07,312.85c-.13.09-.25.17-.38.26"/>
    <path class="cls-1" d="M464.75,38.5c.15,0,.3-.01.45-.02"/>
    <path class="cls-1" d="M473.85,39.49c.34.14.68.28,1.02.42"/>
    <path class="cls-1" d="M447.08,324.17c-.4.08-.8.16-1.2.25"/>
    <path class="cls-1" d="M450.64,29.61c-.24,0-.49.02-.73.02"/>
    <path class="cls-1" d="M458.07,321c1.29-1.02,2.56-2.06,3.81-3.13"/>
    <path class="cls-1" d="M453.55,41.59l-.32-.28"/>
    <line class="cls-1" x1="487.55" y1="317.26" x2="488.02" y2="317.17"/>
    <path class="cls-1" d="M483.84,52.65c-.42-.31-.81-.65-1.18-1.01"/>
    <path class="cls-1" d="M480.34,322.87c-.04.12-.08.25-.11.37"/>
    <line class="cls-1" x1="465.78" y1="53.32" x2="447.46" y2="53.81"/>
    <path class="cls-1" d="M490.03,52.67c.12,0,.24-.02.36-.03"/>
    <line class="cls-1" x1="477.02" y1="306.25" x2="477.68" y2="306.11"/>
    <path class="cls-1" d="M487.44,55.98c.17.1.33.21.5.31"/>
    <path class="cls-1" d="M453.55,41.59c.06.02.12.03.18.05"/>
    <path class="cls-1" d="M528.3,261.07c-.19.26-.38.52-.57.78"/>
    <path class="cls-1" d="M546.71,185.08c.02-.64.04-1.27.05-1.91"/>
    <path class="cls-1" d="M402.68,346.37s.04,0,.06-.01"/>
    <line class="cls-1" x1="478.08" y1="324.8" x2="477.56" y2="324.88"/>
    <path class="cls-1" d="M479.87,323.5c.02-.11.04-.23.07-.34"/>
    <path class="cls-1" d="M449.52,46.81c-.75-.85-1.1-2.02-1.09-3.13"/>
    <line class="cls-1" x1="481.22" y1="50.44" x2="480.99" y2="50.45"/>
    <path class="cls-1" d="M465.15,52.83s.01.01.02.02"/>
    <path class="cls-1" d="M100.07,384.28c1.87-.35,3.53-1.25,4.92-2.51,1.39-1.25,2.48-2.82,3.29-4.48,1.64-3.33,2.3-7.21,2.28-10.86"/>
    <path class="cls-1" d="M214.19,264.38c1.58-1.13,2.49-3.01,2.9-4.81.42-1.85.37-3.85-.07-5.69-.44-1.82-1.29-3.65-2.6-5.04-1.29-1.37-3.11-2.37-5.11-2.04"/>
    <path class="cls-1" d="M252.7,320.96c1.14-.02,2.08.79,2.64,1.66.58.91.88,2.02.88,3.09"/>
    <path class="cls-1" d="M92.27,339.49c3.93-.66,7.65.87,10.6,3.23"/>
    <path class="cls-1" d="M454.38,322.69c-.3.06-.6.12-.91.18"/>
    <path class="cls-1" d="M450.15,318.42c-.78-1.47-1.9-2.81-3.33-3.71-1.43-.91-3.12-1.34-4.81-.97"/>
    <path class="cls-1" d="M172.76,176.23c.03,11.36,1.29,22.68,3.72,33.77,1.22,5.59,2.73,11.09,4.53,16.52,1.81,5.47,3.89,10.81,6.26,16.07,2.32,5.15,4.88,10.16,7.69,15.05,2.84,4.93,5.9,9.7,9.2,14.33,3.33,4.67,6.87,9.15,10.63,13.48,3.79,4.36,7.77,8.52,11.96,12.5,4.1,3.9,8.36,7.59,12.8,11.09,4.47,3.53,9.08,6.84,13.85,9.95,4.8,3.13,9.72,6.03,14.78,8.72,5.09,2.7,10.28,5.16,15.59,7.4,10.49,4.42,21.36,7.91,32.46,10.43,11.15,2.53,22.51,4.08,33.94,4.62,11.42.54,22.87.07,34.2-1.43,11.29-1.49,22.44-3.99,33.27-7.51,10.9-3.54,21.45-8.09,31.49-13.63,9.95-5.49,19.35-11.93,28.03-19.26,8.75-7.39,16.73-15.64,23.78-24.67,7-8.97,13.05-18.64,18.01-28.89,4.97-10.27,8.81-21.03,11.45-32.13,2.65-11.12,4.07-22.49,4.26-33.92"/>
    <path class="cls-1" d="M534.67,188.74c.18-11.48-.88-22.93-3.15-34.19-2.29-11.39-5.8-22.48-10.42-33.13-4.56-10.52-10.19-20.55-16.75-29.96-6.64-9.53-14.21-18.38-22.56-26.44-8.27-7.99-17.28-15.2-26.88-21.53-9.66-6.37-19.89-11.85-30.53-16.39-10.64-4.53-21.67-8.1-32.94-10.67-11.22-2.56-22.66-4.13-34.16-4.67-11.61-.55-23.26-.05-34.78,1.51-11.36,1.53-22.56,4.09-33.45,7.68-11.06,3.64-21.76,8.33-31.91,14.03-9.96,5.59-19.35,12.14-28.02,19.59-2.22,1.91-4.39,3.87-6.5,5.89-2.11,2.01-4.16,4.08-6.16,6.2-1.99,2.11-3.92,4.27-5.8,6.48-1.87,2.2-3.67,4.45-5.42,6.75-1.74,2.29-3.42,4.62-5.04,7-1.61,2.37-3.16,4.78-4.64,7.23-2.96,4.89-5.63,9.9-8.05,15.08-2.45,5.26-4.6,10.6-6.46,16.1-1.85,5.47-3.39,11.01-4.63,16.65-2.47,11.26-3.7,22.75-3.66,34.28"/>
    <path class="cls-1" d="M408.84,22.9s0,0,0,0"/>
    <path class="cls-1" d="M440.84,322.72c-.01,1.09.34,2.23,1.02,3.1.67.85,1.73,1.5,2.89,1.28"/>
    <path class="cls-1" d="M453.31,50.07c.92-1.52,2.44-2.71,4.32-2.75"/>
    <path class="cls-1" d="M443.98,43.9c0,.98.26,2.01.84,2.82.58.81,1.47,1.41,2.53,1.35"/>
    <path class="cls-1" d="M535.49,188.76c-.08,4.77-.37,9.51-.87,14.26-.51,4.73-1.22,9.42-2.15,14.09-.93,4.67-2.07,9.28-3.41,13.86-.67,2.28-1.4,4.54-2.17,6.79-.78,2.25-1.6,4.48-2.47,6.69-.87,2.21-1.8,4.4-2.77,6.57-.97,2.17-1.99,4.32-3.06,6.44-1.07,2.13-2.19,4.23-3.35,6.3-1.16,2.08-2.38,4.13-3.63,6.15-1.25,2.02-2.55,4.01-3.89,5.97-1.34,1.96-2.72,3.89-4.15,5.8-1.43,1.9-2.9,3.78-4.41,5.62-1.51,1.84-3.06,3.65-4.65,5.43-1.58,1.77-3.2,3.5-4.86,5.2-1.66,1.7-3.36,3.37-5.09,5-1.73,1.63-3.5,3.22-5.29,4.78-1.8,1.56-3.64,3.08-5.5,4.56-1.86,1.47-3.74,2.91-5.66,4.3-1.92,1.4-3.87,2.76-5.84,4.08-1.98,1.32-3.99,2.6-6.02,3.84-2.04,1.24-4.1,2.44-6.19,3.6-2.07,1.15-4.16,2.26-6.28,3.33-2.12,1.07-4.26,2.1-6.42,3.08-2.17.99-4.35,1.93-6.56,2.83-2.21.91-4.44,1.76-6.69,2.58-2.24.81-4.5,1.59-6.77,2.31-2.26.72-4.53,1.4-6.82,2.04-4.59,1.28-9.21,2.37-13.88,3.3"/>
    <path class="cls-1" d="M447.46,53.81c2.55-.07,4.6-1.69,5.85-3.75"/>
    <path class="cls-1" d="M400.44,344.36c-11.89,2.68-24.11,4.19-36.29,4.52-12.2.33-24.5-.52-36.54-2.51-12.09-2-24.04-5.15-35.54-9.4-5.74-2.12-11.34-4.5-16.86-7.16-5.47-2.64-10.78-5.52-15.98-8.67-5.3-3.21-10.41-6.67-15.37-10.39-4.91-3.69-9.61-7.59-14.13-11.75-8.93-8.22-17.01-17.29-24.11-27.15-7.21-10.02-13.31-20.71-18.2-32.04-2.42-5.6-4.52-11.28-6.3-17.11-.89-2.89-1.69-5.8-2.41-8.74-.72-2.94-1.36-5.89-1.92-8.86-1.13-6.03-1.92-12.08-2.35-18.21-.43-6.12-.51-12.2-.22-18.33.56-12.19,2.56-24.29,5.94-36.02,3.36-11.65,8.1-22.92,14.06-33.49,3.02-5.35,6.32-10.48,9.92-15.45,3.64-5,7.53-9.76,11.71-14.32,4.08-4.45,8.38-8.64,12.92-12.62,4.58-4.01,9.34-7.74,14.32-11.23,10.12-7.1,20.97-13.08,32.35-17.89,5.57-2.36,11.23-4.42,17.01-6.21,5.82-1.8,11.7-3.31,17.68-4.52,6.03-1.23,12.09-2.16,18.22-2.79,6.16-.64,12.32-.97,18.51-1"/>
    <path class="cls-1" d="M455.58,321.95c-1.16.09-2.29-.3-3.22-.96-.94-.66-1.68-1.57-2.21-2.57"/>
    <path class="cls-1" d="M211.07,106.14c1.84-.09,3.34-1.2,4.35-2.63,1.02-1.43,1.57-3.19,1.76-4.9.2-1.73.03-3.54-.47-5.21-.5-1.65-1.38-3.28-2.67-4.47"/>
    <line class="cls-1" x1="352.22" y1="352.83" x2="353.44" y2="352.59"/>
    <line class="cls-1" x1="356.41" y1="7.47" x2="355.04" y2="7.51"/>
    <path class="cls-1" d="M446.39,40.07c-.79.24-1.41.83-1.81,1.52-.4.7-.6,1.52-.61,2.31"/>
    <path class="cls-1" d="M443.21,319.25c-.77.15-1.39.65-1.79,1.3s-.58,1.42-.59,2.17"/>
    <path class="cls-1" d="M415.89,353.66c-3.37.87-6.76,1.65-10.17,2.34-1.7.34-3.4.67-5.11.97-1.71.3-3.42.58-5.14.83-6.89,1.02-13.79,1.68-20.75,1.98-13.89.59-27.83-.26-41.55-2.53-13.72-2.26-27.19-5.92-40.16-10.92-1.62-.62-3.23-1.27-4.84-1.93-1.6-.67-3.2-1.35-4.79-2.06-3.18-1.41-6.31-2.91-9.42-4.48-3.1-1.57-6.15-3.22-9.16-4.95-3.02-1.73-5.98-3.54-8.9-5.43"/>
    <path class="cls-1" d="M353.44,352.59c-.21.04-.41.11-.6.22"/>
    <path class="cls-1" d="M105.94,386.74c-.77.34-1.55.58-2.38.74"/>
    <path class="cls-1" d="M89.44,340.37c.91-.42,1.84-.71,2.83-.88"/>
    <line class="cls-1" x1="89.44" y1="340.37" x2="68.21" y2="350.14"/>
    <path class="cls-1" d="M68.21,350.14c-.84.39-1.53,1.03-2.06,1.77"/>
    <line class="cls-1" x1="89.78" y1="384.65" x2="87.18" y2="382.52"/>
    <line class="cls-1" x1="92.22" y1="339.9" x2="89.44" y2="340.37"/>
    <line class="cls-1" x1="182.39" y1="325.23" x2="183.03" y2="325.12"/>
    <line class="cls-1" x1="174.65" y1="326.54" x2="175.29" y2="326.43"/>
    <line class="cls-1" x1="155.05" y1="329.85" x2="155.71" y2="329.74"/>
    <line class="cls-1" x1="151.09" y1="330.52" x2="151.75" y2="330.41"/>
    <line class="cls-1" x1="143.13" y1="331.87" x2="143.79" y2="331.75"/>
    <line class="cls-1" x1="135.11" y1="333.22" x2="135.78" y2="333.11"/>
    <line class="cls-1" x1="131.08" y1="333.9" x2="131.75" y2="333.79"/>
    <line class="cls-1" x1="127.03" y1="334.59" x2="127.71" y2="334.47"/>
    <line class="cls-1" x1="122.98" y1="335.27" x2="123.65" y2="335.16"/>
    <line class="cls-1" x1="193.91" y1="323.28" x2="194.54" y2="323.18"/>
    <line class="cls-1" x1="190.08" y1="323.93" x2="190.72" y2="323.82"/>
    <line class="cls-1" x1="186.24" y1="324.58" x2="186.88" y2="324.47"/>
    <line class="cls-1" x1="170.75" y1="327.2" x2="171.4" y2="327.09"/>
    <line class="cls-1" x1="166.85" y1="327.86" x2="167.5" y2="327.75"/>
    <line class="cls-1" x1="162.93" y1="328.52" x2="163.58" y2="328.41"/>
    <line class="cls-1" x1="147.11" y1="331.19" x2="147.78" y2="331.08"/>
    <line class="cls-1" x1="122.12" y1="336.05" x2="122.8" y2="335.93"/>
    <path class="cls-1" d="M122.21,336.03c-.5-.06-1.01-.09-1.51-.08"/>
    <line class="cls-1" x1="162.22" y1="329.26" x2="162.87" y2="329.15"/>
    <path class="cls-1" d="M162.28,329.25c-.38-.04-.75-.07-1.13-.07"/>
    <line class="cls-1" x1="233.54" y1="361.86" x2="108.71" y2="385.53"/>
    <line class="cls-1" x1="103.56" y1="387.48" x2="100.79" y2="388"/>
    <path class="cls-1" d="M103.56,387.48c-.47.09-.93.15-1.4.17"/>
    <path class="cls-1" d="M100.79,388c-4.09.78-7.98-.85-11.02-3.35"/>
    <line class="cls-1" x1="92.27" y1="339.49" x2="95.05" y2="339.02"/>
    <path class="cls-1" d="M245.45,337.04c.43,2.48.56,5.04.37,7.56-.2,2.51-.72,5.02-1.65,7.37-.92,2.34-2.25,4.56-4.06,6.34-1.81,1.79-4.04,3.08-6.57,3.56"/>
    <line class="cls-1" x1="119.09" y1="335.92" x2="122.48" y2="335.34"/>
    <line class="cls-1" x1="123.16" y1="335.23" x2="126.54" y2="334.66"/>
    <line class="cls-1" x1="127.22" y1="334.54" x2="130.59" y2="333.98"/>
    <line class="cls-1" x1="131.26" y1="333.86" x2="134.61" y2="333.29"/>
    <line class="cls-1" x1="135.29" y1="333.18" x2="138.63" y2="332.62"/>
    <line class="cls-1" x1="139.3" y1="332.5" x2="142.63" y2="331.94"/>
    <line class="cls-1" x1="143.3" y1="331.83" x2="146.62" y2="331.26"/>
    <line class="cls-1" x1="147.28" y1="331.15" x2="150.59" y2="330.59"/>
    <line class="cls-1" x1="151.26" y1="330.48" x2="154.56" y2="329.92"/>
    <line class="cls-1" x1="155.21" y1="329.81" x2="158.5" y2="329.26"/>
    <line class="cls-1" x1="159.16" y1="329.15" x2="162.44" y2="328.59"/>
    <line class="cls-1" x1="163.09" y1="328.48" x2="166.35" y2="327.93"/>
    <line class="cls-1" x1="167.01" y1="327.82" x2="170.26" y2="327.27"/>
    <line class="cls-1" x1="170.91" y1="327.16" x2="174.15" y2="326.61"/>
    <line class="cls-1" x1="174.8" y1="326.5" x2="178.03" y2="325.96"/>
    <line class="cls-1" x1="178.68" y1="325.85" x2="181.9" y2="325.3"/>
    <line class="cls-1" x1="182.54" y1="325.19" x2="185.75" y2="324.65"/>
    <line class="cls-1" x1="186.39" y1="324.54" x2="189.59" y2="324"/>
    <line class="cls-1" x1="190.23" y1="323.89" x2="193.41" y2="323.36"/>
    <line class="cls-1" x1="194.05" y1="323.25" x2="197.23" y2="322.71"/>
    <line class="cls-1" x1="197.86" y1="322.6" x2="225.93" y2="317.86"/>
    <path class="cls-1" d="M123.16,335.23c.16-.03.33-.05.49-.07"/>
    <path class="cls-1" d="M127.22,334.54c.16-.03.33-.05.49-.07"/>
    <path class="cls-1" d="M131.26,333.86c.16-.03.33-.05.49-.07"/>
    <path class="cls-1" d="M135.29,333.18c.16-.03.33-.05.49-.07"/>
    <path class="cls-1" d="M143.3,331.83c.16-.03.33-.05.49-.07"/>
    <path class="cls-1" d="M147.28,331.15c.16-.03.33-.05.49-.07"/>
    <path class="cls-1" d="M151.26,330.48c.16-.03.33-.05.49-.07"/>
    <path class="cls-1" d="M155.21,329.81c.16-.03.33-.05.49-.07"/>
    <path class="cls-1" d="M163.09,328.48c.16-.03.33-.05.49-.07"/>
    <path class="cls-1" d="M167.01,327.82c.16-.03.33-.05.49-.07"/>
    <path class="cls-1" d="M170.91,327.16c.16-.03.33-.05.49-.07"/>
    <path class="cls-1" d="M174.8,326.5c.16-.03.33-.05.49-.07"/>
    <path class="cls-1" d="M182.54,325.19c.16-.03.33-.05.49-.07"/>
    <path class="cls-1" d="M186.39,324.54c.16-.03.33-.05.49-.07"/>
    <path class="cls-1" d="M190.23,323.89c.16-.03.33-.05.49-.07"/>
    <path class="cls-1" d="M194.05,323.25c.16-.03.33-.05.49-.07"/>
    <path class="cls-1" d="M197.86,322.6c1.23-.21,2.48-.21,3.71,0"/>
    <path class="cls-1" d="M93.67,339.35c.45-.14.91-.24,1.37-.32"/>
    <path class="cls-1" d="M245.41,337.04h0"/>
    <path class="cls-1" d="M174.48,326.56c.11-.02.22-.04.32-.06"/>
    <path class="cls-1" d="M154.89,329.87c.11-.02.22-.04.33-.06"/>
    <path class="cls-1" d="M150.93,330.54c.11-.02.22-.04.33-.06"/>
    <path class="cls-1" d="M134.95,333.24c.11-.02.22-.04.33-.06"/>
    <path class="cls-1" d="M130.92,333.92c.11-.02.22-.04.34-.06"/>
    <path class="cls-1" d="M126.88,334.61c.11-.02.22-.04.34-.06"/>
    <path class="cls-1" d="M197.55,322.66c.1-.02.21-.04.32-.06"/>
    <path class="cls-1" d="M193.73,323.31c.1-.02.21-.04.32-.06"/>
    <path class="cls-1" d="M189.91,323.95c.11-.02.21-.04.32-.06"/>
    <path class="cls-1" d="M186.07,324.6c.1-.02.21-.04.32-.06"/>
    <path class="cls-1" d="M178.36,325.91c.11-.02.21-.04.32-.06"/>
    <path class="cls-1" d="M178.35,326.09c-.11.02-.22.03-.32.05"/>
    <path class="cls-1" d="M170.59,327.22c.11-.02.22-.04.32-.06"/>
    <path class="cls-1" d="M166.68,327.88c.11-.02.22-.04.33-.06"/>
    <path class="cls-1" d="M158.83,329.21c.11-.02.22-.04.33-.06"/>
    <path class="cls-1" d="M146.96,331.21c.11-.02.22-.04.33-.06"/>
    <path class="cls-1" d="M138.97,332.56c.11-.02.22-.04.33-.06"/>
    <path class="cls-1" d="M118.75,335.98c.11-.02.22-.04.34-.06"/>
    <line class="cls-1" x1="99.66" y1="339.2" x2="118.41" y2="336.03"/>
    <line class="cls-1" x1="103.17" y1="387.27" x2="125.06" y2="377.74"/>
    <path class="cls-1" d="M182.05,325.97c.09-.05.17-.09.26-.14"/>
    <line class="cls-1" x1="200.94" y1="322.7" x2="201.58" y2="322.6"/>
    <path class="cls-1" d="M92.86,343.23c-3.25.55-5.76,2.73-7.45,5.37"/>
    <path class="cls-1" d="M97.74,343.66c-1.19.93-2.18,2.08-2.98,3.34"/>
    <path class="cls-1" d="M18.32,403.13c1.14.14,2.24.12,3.37-.1"/>
    <path class="cls-1" d="M19.58,352.15c-.98-.1-1.93-.07-2.9.09"/>
    <path class="cls-1" d="M110.57,366.42c-.03-5.32-1.51-10.96-4.39-15.5-1.43-2.26-3.3-4.38-5.57-5.86-2.28-1.48-4.97-2.31-7.75-1.84"/>
    <path class="cls-1" d="M103.17,387.27c-.77.34-1.55.58-2.38.74"/>
    <path class="cls-1" d="M127.74,359.94c1.29,1.03,2.25,2.48,2.89,3.97.65,1.51,1.03,3.17,1.11,4.81.08,1.63-.13,3.34-.73,4.87-.59,1.49-1.62,2.96-3.18,3.64"/>
    <path class="cls-1" d="M444.75,327.1c.77-.15,1.38-.66,1.78-1.3s.58-1.42.59-2.17"/>
    <path class="cls-1" d="M446.71,325.47c-.98-.9-1.49-2.29-1.47-3.58"/>
    <path class="cls-1" d="M447.34,48.08c.95-.05,1.73-.62,2.24-1.37.51-.75.76-1.67.77-2.57"/>
    <path class="cls-1" d="M483.91,315.11c.38-.63.77-1.26,1.17-1.87"/>
    <path class="cls-1" d="M355.71,7.38c.23.07.46.1.7.1"/>
    <path class="cls-1" d="M169.52,175.38c-.04-11.96,1.21-23.94,3.72-35.64.63-2.93,1.34-5.84,2.12-8.74.79-2.89,1.65-5.75,2.59-8.6,1.88-5.69,4.05-11.23,6.52-16.69,2.48-5.47,5.24-10.77,8.28-15.94,1.52-2.58,3.1-5.11,4.75-7.61,1.65-2.49,3.36-4.94,5.13-7.34,7.12-9.63,15.22-18.5,24.14-26.49,8.92-7.98,18.63-15.07,28.93-21.15,5.15-3.04,10.43-5.83,15.85-8.37,5.44-2.55,10.96-4.82,16.61-6.84,2.81-1,5.64-1.94,8.49-2.82,2.86-.88,5.73-1.69,8.63-2.43,5.82-1.49,11.67-2.72,17.6-3.68,5.9-.95,11.82-1.64,17.78-2.06,2.99-.21,5.98-.35,8.97-.43,3-.08,6.01-.09,9.01-.03"/>
    <path class="cls-1" d="M358.67.54c12.98.25,25.89.93,38.79,2.52,6.38.79,12.72,1.79,19.02,3.06,6.42,1.29,12.76,2.84,19.04,4.7,6.23,1.84,12.34,3.96,18.36,6.4,6.02,2.43,11.88,5.15,17.62,8.2,11.48,6.09,22.24,13.33,32.16,21.74,9.91,8.4,18.83,17.83,26.67,28.18,7.83,10.35,14.5,21.52,19.89,33.33,5.39,11.81,9.46,24.18,12.13,36.88,1.34,6.36,2.31,12.75,2.93,19.23.62,6.46.87,12.92.75,19.41"/>
    <line class="cls-1" x1="12.97" y1="352.86" x2="16.68" y2="352.23"/>
    <path class="cls-1" d="M12.97,352.86c-2.69.45-4.95,1.89-6.76,3.84-1.8,1.94-3.08,4.34-3.96,6.79-1.77,4.93-2.09,10.52-1.43,15.64.66,5.15,2.38,10.42,5.19,14.84,1.4,2.21,3.13,4.29,5.19,5.94,1.12.9,2.29,1.64,3.6,2.22,1.14.5,2.28.84,3.52,1"/>
    <path class="cls-1" d="M446.57,40.05c-.08.18-.15.35-.22.53"/>
    <line class="cls-1" x1="460.44" y1="35.74" x2="460.93" y2="35.7"/>
    <path class="cls-1" d="M297.68,101.83c.59.1,1.17.14,1.76.12"/>
    <path class="cls-1" d="M457.23,308.63c3.01-.84,5.97-1.79,8.89-2.88,2.93-1.09,5.8-2.29,8.62-3.63,2.83-1.33,5.58-2.77,8.28-4.33,2.71-1.56,5.34-3.22,7.91-4.99"/>
    <line class="cls-1" x1="25.39" y1="402.33" x2="21.69" y2="403.03"/>
    <path class="cls-1" d="M439.82,41.04c-2.52-.53-5.05-.97-7.6-1.32s-5.1-.62-7.67-.8c-5.15-.36-10.26-.37-15.41-.01"/>
    <path class="cls-1" d="M15.87,352.77c-.98-.1-1.93-.07-2.9.09"/>
    <path class="cls-1" d="M355.04,7.51c-.49.02-.97-.15-1.34-.48s-.6-.79-.6-1.28"/>
    <line class="cls-1" x1="545.15" y1="186.57" x2="546.35" y2="186.41"/>
    <path class="cls-1" d="M352.2,352.84c.55-.11,1.12.03,1.57.35.45.33.75.84.76,1.4"/>
    <line class="cls-1" x1="404.9" y1="351.89" x2="403.68" y2="352.13"/>
    <line class="cls-1" x1="347.54" y1="4.66" x2="348.92" y2="4.62"/>
    <line class="cls-1" x1="299.44" y1="101.95" x2="211.07" y2="106.14"/>
    <path class="cls-1" d="M346.86,13.03c4.96-.03,9.91.14,14.86.49s9.87.9,14.78,1.64c9.8,1.47,19.51,3.7,28.97,6.65"/>
    <path class="cls-1" d="M408.71,342.49c-2.76.62-5.51,1.24-8.27,1.86"/>
    <path class="cls-1" d="M342.24,10.74c6.13-.19,12.23-.09,18.35.3,6.1.39,12.14,1.06,18.17,2.01,6.04.96,12,2.19,17.92,3.71,2.96.76,5.9,1.59,8.83,2.48,2.93.9,5.83,1.86,8.71,2.9,2.88,1.03,5.73,2.13,8.55,3.3,2.83,1.17,5.62,2.4,8.39,3.7,5.54,2.6,10.92,5.45,16.19,8.56,2.64,1.56,5.23,3.18,7.79,4.86,2.56,1.68,5.07,3.42,7.54,5.23,2.47,1.8,4.89,3.66,7.26,5.58,2.37,1.91,4.69,3.88,6.96,5.91,2.29,2.04,4.53,4.14,6.71,6.29,2.18,2.15,4.3,4.35,6.37,6.6,2.06,2.25,4.07,4.55,6.02,6.9,1.94,2.34,3.82,4.73,5.64,7.17,1.84,2.46,3.61,4.97,5.31,7.52,1.7,2.55,3.33,5.13,4.9,7.76,1.56,2.62,3.05,5.28,4.47,7.98,1.41,2.69,2.75,5.42,4.03,8.18,1.28,2.79,2.49,5.61,3.62,8.47,1.13,2.85,2.17,5.72,3.14,8.62.96,2.9,1.85,5.81,2.65,8.75.8,2.93,1.52,5.88,2.16,8.86.64,3,1.2,6.01,1.67,9.04.47,3.02.86,6.05,1.16,9.1.6,6.08.85,12.14.75,18.25"/>
    <line class="cls-1" x1="342.24" y1="10.74" x2="348.38" y2="10.55"/>
    <path class="cls-1" d="M442.01,313.74c-1.25.27-2.34.93-3.21,1.85-.87.91-1.48,2.04-1.86,3.23-.77,2.38-.66,5.05.14,7.39"/>
    <line class="cls-1" x1="442.01" y1="313.74" x2="477.02" y2="306.25"/>
    <line class="cls-1" x1="484.08" y1="52.84" x2="483.85" y2="52.84"/>
    <line class="cls-1" x1="408.71" y1="342.49" x2="405.83" y2="343.06"/>
    <path class="cls-1" d="M485.22,313.12c-.41.64-.8,1.29-1.19,1.96"/>
    <path class="cls-1" d="M495.61,304.98c-.31-.1-.61-.13-.94-.12"/>
    <line class="cls-1" x1="545.46" y1="186.55" x2="546.03" y2="186.48"/>
    <line class="cls-1" x1="349.58" y1="355.42" x2="350.25" y2="355.29"/>
    <path class="cls-1" d="M350.84,354.38c-.02.67-.62,1.09-1.26,1.04"/>
    <path class="cls-1" d="M350.84,354.38c.02-.79.61-1.39,1.36-1.54"/>
    <path class="cls-1" d="M545.4,190.13c.33.02.65.15.89.38s.39.54.38.88"/>
    <path class="cls-1" d="M545.4,190.13c-.46-.02-.91-.19-1.27-.49-.35-.3-.59-.72-.63-1.19-.04-.47.12-.92.44-1.27s.75-.55,1.21-.61"/>
    <path class="cls-1" d="M546.77,185.38c0,.34-.15.64-.41.86-.25.21-.58.32-.91.31"/>
    <path class="cls-1" d="M546.77,185.38c-.04-24.2-5.41-47.98-15.45-69.94-5-10.95-11.12-21.36-18.21-31.09-7.09-9.73-15.13-18.74-23.95-26.93-17.68-16.4-38.34-29.35-60.7-38.31-22.37-8.97-46.24-13.88-70.33-14.47"/>
    <path class="cls-1" d="M21.69,403.03c2.68-.51,4.91-1.99,6.69-3.97,1.77-1.97,3.03-4.38,3.89-6.85,1.73-4.95,2.01-10.54,1.32-15.66-.69-5.15-2.45-10.41-5.29-14.81-1.42-2.2-3.17-4.26-5.26-5.89-1.13-.88-2.32-1.61-3.64-2.17-1.15-.48-2.3-.8-3.54-.92"/>
    <path class="cls-1" d="M100.5,380.03c1.21.92,2.55,1.68,4,2.15"/>
    <path class="cls-1" d="M101.48,379.85c1.09.79,2.3,1.43,3.6,1.84"/>
    <path class="cls-1" d="M91.18,381.77c2.5,1.93,5.63,3.12,8.89,2.51"/>
    <path class="cls-1" d="M98.44,343.92c-1.06.81-1.96,1.82-2.7,2.91"/>
    <line class="cls-1" x1="105.64" y1="342.25" x2="127.74" y2="359.94"/>
    <path class="cls-1" d="M356.85,5.79c-.03.98-.87,1.7-1.82,1.73"/>
    <path class="cls-1" d="M124.97,360.44c1.29,1.03,2.25,2.49,2.89,3.97.65,1.51,1.03,3.17,1.11,4.81.08,1.63-.12,3.34-.72,4.87-.59,1.49-1.62,2.96-3.18,3.64"/>
    <line class="cls-1" x1="102.87" y1="342.72" x2="124.97" y2="360.44"/>
    <path class="cls-1" d="M351.82,4.58c.66,0,1.26.49,1.27,1.17"/>
    <path class="cls-1" d="M351.82,4.58c-1.43,0-2.85.03-4.28.08"/>
    <path class="cls-1" d="M172.33,173.79c-.63-.03-1.17-.54-1.16-1.19"/>
    <path class="cls-1" d="M450.36,44.14c0-.63-.1-1.26-.32-1.85"/>
    <path class="cls-1" d="M440.81,36.87c-.04.94-.22,1.87-.55,2.75"/>
    <path class="cls-1" d="M447.12,323.63c.01-1.09-.34-2.23-1.02-3.1-.67-.85-1.72-1.5-2.88-1.28"/>
    <line class="cls-1" x1="110.56" y1="366.07" x2="37.61" y2="379.3"/>
    <path class="cls-1" d="M256.03,324.25c28.04,17.98,60.36,28.67,93.55,31.17"/>
    <path class="cls-1" d="M437.09,326.2c.62,1.81.68,3.9,0,5.72"/>
    <path class="cls-1" d="M246.58,321.08c-2.88-2.1-5.7-4.27-8.46-6.52-2.77-2.25-5.46-4.58-8.1-6.98-2.64-2.4-5.21-4.87-7.71-7.41-1.25-1.27-2.48-2.55-3.69-3.85-1.22-1.3-2.41-2.63-3.59-3.96-4.72-5.36-9.11-10.94-13.2-16.8-4.09-5.86-7.81-11.91-11.2-18.2-1.69-3.14-3.28-6.32-4.78-9.55-.75-1.62-1.48-3.25-2.18-4.89-.7-1.64-1.38-3.28-2.03-4.94-2.62-6.65-4.82-13.4-6.61-20.32-.9-3.45-1.68-6.93-2.36-10.43-.68-3.5-1.25-7.01-1.71-10.55s-.81-7.08-1.05-10.64c-.24-3.56-.36-7.11-.37-10.67"/>
    <path class="cls-1" d="M465.17,52.85c10.22,7.91,19.66,16.93,27.97,26.83,4.19,4.99,8.08,10.17,11.69,15.59,3.58,5.37,6.84,10.9,9.79,16.65,1.49,2.9,2.89,5.83,4.21,8.81,1.32,2.97,2.54,5.97,3.68,9.01,2.27,6.04,4.16,12.17,5.7,18.44,3.09,12.6,4.66,25.46,4.62,38.44-.02,6.5-.43,12.94-1.26,19.38-.41,3.21-.92,6.39-1.53,9.56-.61,3.18-1.32,6.33-2.12,9.46-1.61,6.28-3.6,12.4-5.98,18.43-2.39,6.04-5.12,11.88-8.23,17.59-3.1,5.68-6.52,11.12-10.28,16.38-3.79,5.29-7.85,10.31-12.25,15.1-8.73,9.54-18.62,18.06-29.3,25.34"/>
    <path class="cls-1" d="M213.44,256.4c0-.98-.27-2.01-.82-2.83-.53-.79-1.42-1.51-2.48-1.37"/>
    <path class="cls-1" d="M402.5,343.88c-.68.16-1.37.32-2.06.47"/>
    <path class="cls-1" d="M172.3,176.14c-.03-10.96,1.06-21.88,3.28-32.61,1.11-5.36,2.49-10.63,4.15-15.85.83-2.61,1.73-5.2,2.69-7.76.97-2.57,2-5.11,3.09-7.62,1.09-2.5,2.24-4.96,3.46-7.4,1.22-2.45,2.5-4.86,3.84-7.24,1.35-2.39,2.76-4.74,4.22-7.05,1.47-2.32,3-4.6,4.59-6.85,1.57-2.22,3.2-4.4,4.88-6.54,1.69-2.15,3.43-4.25,5.22-6.31,1.8-2.07,3.65-4.09,5.55-6.07,1.91-1.99,3.86-3.92,5.87-5.81,1.98-1.86,4-3.68,6.06-5.45,2.08-1.78,4.19-3.5,6.35-5.17,2.17-1.68,4.37-3.31,6.62-4.89,2.25-1.58,4.54-3.11,6.87-4.59,2.3-1.46,4.63-2.85,6.99-4.2,2.37-1.35,4.77-2.65,7.21-3.89,4.9-2.51,9.9-4.77,15.01-6.82,2.53-1.01,5.07-1.97,7.64-2.86,2.58-.9,5.18-1.74,7.79-2.53,2.63-.79,5.27-1.52,7.93-2.19,2.67-.67,5.35-1.29,8.05-1.85,2.66-.55,5.34-1.04,8.02-1.47,2.69-.44,5.39-.81,8.1-1.13,2.75-.32,5.5-.59,8.26-.79,2.73-.2,5.46-.34,8.2-.43"/>
    <path class="cls-1" d="M213.3,96.9c0-.93-.24-1.9-.74-2.7-.49-.77-1.31-1.45-2.31-1.39"/>
    <path class="cls-1" d="M25.39,402.33c2.67-.51,4.91-1.98,6.69-3.96,1.77-1.97,3.03-4.37,3.9-6.83,1.73-4.94,2.02-10.53,1.33-15.64-.69-5.14-2.44-10.4-5.29-14.79-1.42-2.2-3.17-4.25-5.26-5.87-1.13-.88-2.32-1.6-3.64-2.16-1.15-.48-2.3-.79-3.54-.92"/>
  </g>
  <g id="Make2D::可见线::正切线">
    <line class="cls-1" x1="36.57" y1="371.95" x2="109.58" y2="358.93"/>
    <line class="cls-1" x1="36.82" y1="373.06" x2="109.84" y2="360.01"/>
    <path class="cls-1" d="M255.96,327.33c3.45,2.23,6.97,4.35,10.55,6.36,1.8,1.01,3.61,1.99,5.44,2.95,1.83.96,3.68,1.89,5.54,2.79,3.73,1.81,7.51,3.49,11.34,5.07,3.8,1.56,7.64,3.01,11.53,4.34,7.8,2.67,15.69,4.84,23.75,6.55,4.03.85,8.08,1.58,12.16,2.19,4.1.61,8.21,1.09,12.35,1.46,2.07.18,4.14.33,6.21.44,2.06.12,4.12.2,6.18.25,4.12.1,8.23.08,12.34-.07,8.25-.3,16.4-1.1,24.55-2.42,2.03-.33,4.05-.69,6.07-1.08,2.02-.39,4.04-.82,6.05-1.27,4.04-.91,8.03-1.96,12-3.13,7.92-2.34,15.61-5.15,23.17-8.49,3.74-1.65,7.42-3.42,11.05-5.32,1.82-.95,3.63-1.93,5.42-2.95,1.8-1.02,3.58-2.06,5.34-3.14,1.77-1.08,3.53-2.19,5.26-3.33,1.73-1.14,3.44-2.31,5.13-3.5,3.37-2.39,6.66-4.89,9.86-7.5,3.16-2.58,6.23-5.27,9.21-8.06,2.99-2.81,5.88-5.72,8.67-8.73,1.41-1.52,2.78-3.06,4.13-4.62,1.36-1.57,2.69-3.17,3.98-4.79,1.3-1.62,2.57-3.27,3.82-4.94,1.24-1.67,2.45-3.35,3.63-5.06,4.66-6.77,8.79-13.77,12.43-21.14.91-1.85,1.79-3.71,2.64-5.59.85-1.89,1.66-3.79,2.45-5.71.78-1.93,1.53-3.87,2.24-5.83.71-1.96,1.39-3.94,2.03-5.93,2.53-7.84,4.45-15.76,5.8-23.89.34-2.03.64-4.06.9-6.1.26-2.05.49-4.1.68-6.15.19-2.07.34-4.13.45-6.2.11-2.09.19-4.17.22-6.26"/>
    <path class="cls-1" d="M550.51,188.51c.1-6.06-.12-12.09-.66-18.13-.28-3.06-.63-6.1-1.07-9.14-.44-3.02-.95-6.03-1.55-9.02-1.19-5.98-2.69-11.85-4.5-17.67-.91-2.91-1.88-5.79-2.93-8.65-1.06-2.87-2.19-5.71-3.39-8.52-1.21-2.83-2.49-5.63-3.85-8.39-1.35-2.76-2.77-5.49-4.26-8.17-1.48-2.67-3.03-5.3-4.64-7.9-1.6-2.58-3.27-5.12-5-7.62-3.45-4.99-7.12-9.78-11.04-14.41-1.96-2.32-3.97-4.58-6.03-6.8-2.07-2.23-4.19-4.4-6.37-6.53-2.22-2.17-4.48-4.28-6.8-6.33-2.3-2.04-4.65-4.03-7.04-5.96-4.75-3.83-9.64-7.41-14.72-10.79-5.04-3.35-10.21-6.45-15.53-9.33-2.66-1.44-5.34-2.81-8.06-4.13-2.72-1.32-5.47-2.58-8.26-3.77-2.85-1.22-5.73-2.38-8.63-3.48-2.88-1.08-5.78-2.1-8.71-3.05-2.9-.94-5.83-1.82-8.77-2.64-2.93-.81-5.87-1.55-8.83-2.23-5.9-1.35-11.83-2.43-17.83-3.25-2.99-.41-5.99-.75-9-1.03-3.02-.28-6.03-.48-9.06-.62-6.16-.28-12.3-.29-18.45,0-6.08.28-12.12.83-18.15,1.66-6.01.83-11.94,1.93-17.85,3.31-2.96.69-5.89,1.45-8.81,2.27-2.92.83-5.82,1.72-8.7,2.68-2.91.97-5.78,2.01-8.64,3.12-2.84,1.1-5.65,2.27-8.43,3.51-5.56,2.47-10.96,5.19-16.25,8.19-5.31,3.01-10.44,6.26-15.42,9.77-2.5,1.76-4.94,3.58-7.35,5.46-2.39,1.87-4.73,3.8-7.03,5.8-4.59,3.98-8.94,8.17-13.09,12.6-2.08,2.22-4.09,4.48-6.06,6.8-1.97,2.33-3.88,4.71-5.72,7.14-1.85,2.45-3.64,4.94-5.36,7.48-1.71,2.53-3.35,5.09-4.93,7.71-3.15,5.23-6,10.59-8.56,16.13-1.27,2.74-2.47,5.52-3.59,8.32-1.13,2.83-2.18,5.68-3.15,8.56-.98,2.9-1.87,5.81-2.69,8.76-.81,2.93-1.55,5.88-2.2,8.85-1.3,5.95-2.28,11.92-2.92,17.97-.33,3.03-.57,6.07-.72,9.12-.16,3.07-.24,6.14-.23,9.22"/>
    <line class="cls-1" x1="37.24" y1="375.42" x2="110.26" y2="362.3"/>
    <line class="cls-1" x1="36.34" y1="390.42" x2="108.41" y2="377.02"/>
    <line class="cls-1" x1="31.42" y1="360.22" x2="103.72" y2="347.72"/>
    <path class="cls-1" d="M490.23,58.54c-17.57-16.4-38.13-29.35-60.4-38.32-22.27-8.97-46.05-13.88-70.05-14.47"/>
    <path class="cls-1" d="M357.41,354.19c34.7,1.53,69.54-6.01,100.2-22.62,7.65-4.15,14.91-8.78,21.89-13.99,6.98-5.21,13.48-10.85,19.61-17.04,12.21-12.34,22.47-26.46,30.33-41.96"/>
    <path class="cls-1" d="M543.73,187.47c.14-.7.54-1.3,1.1-1.72.56-.42,1.25-.65,1.95-.67"/>
    <path class="cls-1" d="M439.82,41.02c-5.05-1.05-10.12-1.75-15.27-2.11-5.15-.36-10.26-.36-15.41,0"/>
    <path class="cls-1" d="M280.36,230.33c.29.91.7,1.82,1.24,2.61.51.74,1.25,1.55,2.15,1.87"/>
    <path class="cls-1" d="M270.47,166.77c-.44.03-.88.06-1.31.1"/>
    <path class="cls-1" d="M495.93,41.23c-1.85-1.61-3.81-3.07-5.81-4.47-1-.7-2.01-1.39-3.03-2.07-.51-.34-1.02-.68-1.54-1-.27-.17-.54-.34-.82-.49-.06-.03-.13-.06-.2-.08-.03,0-.06-.02-.1,0-.06.03-.02.13,0,.16.05.12.11.23.18.34"/>
    <path class="cls-1" d="M550.76,188.51c-.08,4.81-.37,9.59-.86,14.37-.49,4.73-1.17,9.42-2.05,14.1-.89,4.69-1.97,9.33-3.26,13.93-.64,2.3-1.33,4.58-2.07,6.85-.74,2.28-1.53,4.54-2.37,6.78-.84,2.26-1.74,4.5-2.68,6.71-.93,2.2-1.91,4.39-2.94,6.55-2.04,4.3-4.25,8.49-6.64,12.6-4.8,8.26-10.3,16.1-16.41,23.45-1.54,1.85-3.12,3.67-4.73,5.45-1.6,1.78-3.24,3.51-4.92,5.22-3.33,3.4-6.79,6.65-10.38,9.76-7.21,6.26-14.94,11.93-23.05,16.98-2.04,1.27-4.11,2.5-6.2,3.69-2.08,1.18-4.18,2.32-6.3,3.43-4.22,2.19-8.52,4.21-12.9,6.08-4.39,1.87-8.84,3.57-13.37,5.11-2.26.77-4.53,1.49-6.82,2.18-2.29.69-4.6,1.33-6.92,1.93"/>
    <path class="cls-1" d="M457.23,308.63c2.86-.79,5.68-1.7,8.47-2.72,2.79-1.02,5.52-2.15,8.22-3.39"/>
    <path class="cls-1" d="M409.14,38.91s0,0,0,0"/>
    <path class="cls-1" d="M358.67.54c3.11.06,6.21.19,9.32.4,3.1.2,6.19.48,9.28.82,6.17.69,12.28,1.66,18.37,2.91,6.05,1.25,12.01,2.76,17.93,4.55,2.98.9,5.93,1.87,8.87,2.91,2.96,1.05,5.89,2.16,8.8,3.34,2.88,1.17,5.73,2.41,8.56,3.71,2.82,1.3,5.6,2.66,8.36,4.09,5.52,2.86,10.87,5.96,16.1,9.31,5.2,3.34,10.21,6.9,15.07,10.71,2.45,1.92,4.85,3.89,7.21,5.93,2.38,2.05,4.7,4.16,6.98,6.32,2.26,2.15,4.46,4.35,6.62,6.61,2.14,2.25,4.23,4.54,6.26,6.89,4.06,4.69,7.87,9.56,11.45,14.63,3.57,5.05,6.86,10.25,9.91,15.63,1.54,2.72,3,5.47,4.4,8.26,1.4,2.8,2.72,5.63,3.97,8.5,1.25,2.86,2.42,5.74,3.51,8.66,1.09,2.91,2.1,5.84,3.04,8.8,1.87,5.92,3.43,11.89,4.67,17.98.62,3.05,1.16,6.11,1.61,9.19.46,3.1.83,6.21,1.12,9.32.57,6.16.8,12.31.7,18.5"/>
    <path class="cls-1" d="M245.2,337.08s.08-.02.13-.02c.02,0,.04,0,.06,0,0,0,.02,0,.03,0,0,0,.02,0,.02,0,0,0,0,0,0,0"/>
    <line class="cls-1" x1="15.87" y1="352.77" x2="19.58" y2="352.15"/>
    <path class="cls-1" d="M233.54,361.86c2.05-.39,3.9-1.33,5.48-2.65,1.58-1.32,2.85-2.98,3.82-4.78.98-1.8,1.67-3.76,2.13-5.76.46-2.02.67-4.03.69-6.11"/>
    <path class="cls-1" d="M245.2,337.08c-.43-2.46-1.15-4.89-2.15-7.17-1-2.27-2.32-4.46-3.95-6.35-1.62-1.89-3.59-3.53-5.86-4.6-2.28-1.08-4.78-1.53-7.3-1.1"/>
    <line class="cls-1" x1="127.84" y1="377.22" x2="125.06" y2="377.74"/>
    <path class="cls-1" d="M245.66,342.57c0-1.85-.15-3.67-.46-5.49"/>
    <line class="cls-1" x1="105.94" y1="386.74" x2="103.17" y2="387.27"/>
    <path class="cls-1" d="M402.74,346.36c9.33-1.84,18.51-4.39,27.45-7.63,8.94-3.24,17.63-7.18,25.95-11.78,16.66-9.22,31.74-21.06,44.49-35.23,6.36-7.07,12.1-14.67,17.14-22.74s9.34-16.56,12.87-25.4c7.06-17.73,10.83-36.53,11.14-55.62"/>
    <path class="cls-1" d="M169.52,175.38s.01,0,.02,0c0,0,.01,0,.02,0,.01,0,.03,0,.04,0,.03,0,.05,0,.08,0"/>
    <path class="cls-1" d="M409.13,38.91c-1.95.13-3.9.32-5.84.56-1.93.24-3.84.52-5.76.86-3.81.67-7.55,1.53-11.27,2.6-3.72,1.06-7.35,2.31-10.94,3.76-1.8.73-3.58,1.5-5.35,2.32-1.77.82-3.52,1.69-5.25,2.61-3.43,1.82-6.75,3.8-9.97,5.96-3.23,2.16-6.34,4.47-9.33,6.94-2.97,2.45-5.81,5.03-8.53,7.76-2.77,2.77-5.38,5.66-7.87,8.68-2.46,2.99-4.76,6.07-6.93,9.27-2.19,3.23-4.21,6.54-6.1,9.95-1.87,3.38-3.57,6.82-5.14,10.35-1.58,3.57-3,7.2-4.27,10.89-2.52,7.34-4.4,14.88-5.67,22.53-.32,1.91-.59,3.83-.83,5.75-.24,1.93-.44,3.86-.6,5.8-.32,3.86-.49,7.72-.5,11.6"/>
    <path class="cls-1" d="M299.44,101.95c1.92-.09,3.72-.81,5.21-2.01,1.49-1.2,2.58-2.81,3.24-4.58.66-1.78.89-3.71.7-5.59-.19-1.88-.8-3.73-1.8-5.34"/>
    <line class="cls-1" x1="448.43" y1="43.67" x2="450.33" y2="43.58"/>
    <line class="cls-1" x1="445.23" y1="321.89" x2="440.84" y2="322.72"/>
    <line class="cls-1" x1="448.43" y1="43.68" x2="443.98" y2="43.9"/>
    <path class="cls-1" d="M295.92,73.8c-.75,1.36-1.16,2.99-1.24,4.53-.08,1.49.15,3.24.94,4.58"/>
    <path class="cls-1" d="M281.07,104.51c-.9,2.49-1.73,5-2.5,7.53-.77,2.53-1.49,5.07-2.14,7.64-1.32,5.13-2.4,10.29-3.28,15.52-.44,2.61-.82,5.22-1.15,7.85-.33,2.62-.61,5.25-.83,7.89-.22,2.64-.39,5.27-.51,7.91-.11,2.64-.18,5.29-.18,7.93"/>
    <path class="cls-1" d="M298.15,230.31c2.45-.09,4.79.73,6.74,2.14,1.96,1.41,3.48,3.37,4.48,5.54,1,2.18,1.49,4.6,1.41,7-.08,2.39-.73,4.78-2.02,6.83"/>
    <path class="cls-1" d="M309.29,83.1c2.51,4.16,2.89,9.58.88,14.02-1,2.22-2.59,4.16-4.7,5.44-2.12,1.28-4.57,1.75-7.02,1.31"/>
    <path class="cls-1" d="M306.29,250.68c.44,0,.95.19,1.33.37.42.21.8.46,1.15.77"/>
    <path class="cls-1" d="M306.82,258.33c-1.4-2.2-1.7-5.26-.53-7.65"/>
    <path class="cls-1" d="M306.8,84.43c-.58-1.26-.84-2.68-.77-4.07.07-1.37.47-2.78,1.25-3.93"/>
    <path class="cls-1" d="M309.12,77.6c-.56.81-.76,1.81-.71,2.77.06.97.37,1.91.87,2.74"/>
    <path class="cls-1" d="M280.22,166.28c0-2.59.07-5.19.2-7.78.12-2.59.31-5.18.55-7.76.24-2.59.55-5.16.91-7.74.36-2.57.79-5.13,1.27-7.68,1.93-10.19,4.83-20.22,8.68-29.86"/>
    <path class="cls-1" d="M293.83,106.25c-3.82,9.51-6.69,19.41-8.6,29.48-.48,2.52-.9,5.05-1.26,7.58-.36,2.54-.66,5.08-.9,7.63-.24,2.55-.42,5.11-.55,7.67s-.19,5.12-.2,7.69"/>
    <path class="cls-1" d="M440.35,314.37c-2.4.29-4.81.5-7.22.63-2.43.13-4.86.18-7.29.16-2.42-.03-4.84-.13-7.26-.32-2.41-.18-4.8-.44-7.19-.78-4.77-.67-9.46-1.63-14.11-2.89-2.35-.64-4.67-1.34-6.97-2.12-2.33-.78-4.62-1.64-6.89-2.56-4.48-1.82-8.8-3.9-13.04-6.23-4.27-2.35-8.37-4.93-12.35-7.75-1.96-1.39-3.88-2.83-5.76-4.32-1.9-1.51-3.76-3.07-5.58-4.68-3.65-3.22-7.1-6.61-10.39-10.2-3.25-3.54-6.3-7.22-9.19-11.07-1.46-1.95-2.87-3.92-4.24-5.94-1.38-2.03-2.7-4.09-3.97-6.19-2.52-4.14-4.82-8.37-6.94-12.73-2.12-4.37-4.03-8.81-5.75-13.36-.85-2.26-1.65-4.53-2.39-6.82-.75-2.31-1.45-4.64-2.1-6.99-.65-2.34-1.23-4.69-1.77-7.05-.53-2.35-1.02-4.72-1.45-7.1-.86-4.76-1.5-9.54-1.92-14.36-.21-2.41-.37-4.83-.47-7.25-.1-2.43-.15-4.86-.14-7.29"/>
    <path class="cls-1" d="M295.96,167.16c.02-4.63.24-9.24.69-13.85.22-2.32.5-4.62.84-6.93.33-2.28.72-4.54,1.16-6.8.89-4.56,1.98-9.05,3.31-13.5.66-2.21,1.37-4.4,2.14-6.58s1.59-4.33,2.46-6.46c.89-2.18,1.84-4.33,2.84-6.46.99-2.1,2.03-4.17,3.13-6.21,2.17-4.04,4.53-7.95,7.12-11.74,2.61-3.84,5.41-7.51,8.43-11.04,1.51-1.76,3.06-3.48,4.67-5.16,1.59-1.66,3.22-3.27,4.9-4.84,1.71-1.59,3.45-3.13,5.25-4.62,1.78-1.48,3.6-2.9,5.46-4.27,3.72-2.74,7.57-5.24,11.59-7.52,2.03-1.15,4.08-2.23,6.17-3.26,2.09-1.02,4.2-1.97,6.34-2.87,4.26-1.77,8.59-3.27,13.04-4.51,4.44-1.24,8.91-2.19,13.47-2.88,2.29-.34,4.59-.62,6.9-.82,2.33-.2,4.66-.33,7-.39,4.62-.11,9.2.05,13.79.49,4.64.45,9.21,1.17,13.76,2.16"/>
    <path class="cls-1" d="M298.99,167.1c0,2.57.04,5.13.16,7.69.12,2.55.29,5.09.54,7.64.48,5.08,1.21,10.11,2.18,15.12.49,2.51,1.03,5,1.64,7.48.61,2.49,1.28,4.97,2.01,7.43.73,2.45,1.52,4.89,2.37,7.3.84,2.39,1.74,4.77,2.7,7.12,1.93,4.74,4.08,9.35,6.47,13.88,1.19,2.26,2.44,4.48,3.74,6.67,1.31,2.2,2.67,4.36,4.09,6.49,1.44,2.15,2.93,4.26,4.47,6.33,1.53,2.05,3.11,4.06,4.75,6.03,3.25,3.9,6.68,7.61,10.34,11.14,1.86,1.79,3.76,3.53,5.72,5.22,1.95,1.68,3.95,3.3,5.99,4.87,2.02,1.54,4.08,3.03,6.19,4.45,2.09,1.41,4.21,2.76,6.37,4.04,4.41,2.62,8.94,4.94,13.65,6.99,2.34,1.02,4.71,1.96,7.12,2.83,2.39.86,4.81,1.65,7.25,2.35,4.93,1.42,9.9,2.51,14.98,3.26,5.06.75,10.12,1.14,15.24,1.19,2.57.02,5.13-.04,7.69-.2,2.55-.16,5.08-.4,7.61-.73,5.07-.67,10.04-1.68,14.97-3.05"/>
    <path class="cls-1" d="M307.03,165.89c.01-3.78.18-7.55.49-11.32.16-1.89.35-3.77.59-5.65.24-1.88.51-3.76.82-5.64.62-3.76,1.4-7.47,2.33-11.17.92-3.65,1.98-7.25,3.2-10.82,1.22-3.58,2.59-7.1,4.11-10.57s3.18-6.86,5-10.18c1.83-3.35,3.8-6.6,5.92-9.77,2.09-3.13,4.31-6.15,6.68-9.08,2.38-2.95,4.88-5.77,7.52-8.49,2.64-2.72,5.39-5.29,8.27-7.75,2.9-2.47,5.89-4.79,9.02-6.96,3.09-2.16,6.27-4.16,9.57-6.01,1.65-.92,3.31-1.81,5.01-2.65,1.69-.84,3.41-1.64,5.14-2.4,3.48-1.52,7.01-2.86,10.62-4.02,3.61-1.16,7.25-2.13,10.95-2.92,3.71-.79,7.43-1.38,11.2-1.79"/>
    <path class="cls-1" d="M428.57,39.28c-2.04-.04-4.08-.02-6.12.05-2.03.07-4.04.2-6.06.39-4,.37-7.96.95-11.89,1.75-3.95.8-7.83,1.81-11.67,3.04-3.88,1.24-7.65,2.68-11.37,4.33-3.69,1.64-7.27,3.46-10.77,5.49-1.75,1.01-3.46,2.06-5.15,3.17-1.7,1.11-3.37,2.26-5.02,3.46-3.25,2.37-6.35,4.88-9.34,7.57-3.03,2.73-5.9,5.59-8.64,8.61-2.7,2.98-5.24,6.07-7.64,9.29-2.43,3.27-4.69,6.64-6.79,10.13-2.08,3.45-3.99,6.98-5.74,10.62-1.76,3.66-3.34,7.38-4.76,11.19-1.4,3.76-2.62,7.57-3.68,11.44-1.07,3.93-1.97,7.9-2.69,11.91-.72,3.98-1.25,7.97-1.61,12-.18,2.02-.32,4.03-.41,6.05-.09,2.01-.15,4.02-.15,6.03"/>
    <path class="cls-1" d="M345.92,167.41c-.16,25.43,8.03,50.91,23.65,71.14,1.96,2.53,4.01,4.97,6.19,7.31,2.16,2.33,4.42,4.55,6.79,6.67,4.74,4.24,9.86,8.01,15.35,11.24,5.37,3.16,11.03,5.77,16.95,7.76,3.04,1.02,6.12,1.87,9.26,2.55,3.23.7,6.47,1.2,9.77,1.5,3.33.31,6.65.42,9.99.31,3.22-.1,6.4-.39,9.59-.87,3.09-.47,6.14-1.11,9.16-1.93,2.96-.81,5.85-1.78,8.7-2.92,5.9-2.36,11.48-5.38,16.7-9.01,2.61-1.82,5.1-3.77,7.5-5.86,2.42-2.11,4.72-4.34,6.9-6.71,8.68-9.38,15.29-20.44,19.77-32.36,4.49-11.95,6.78-24.61,6.98-37.35"/>
    <path class="cls-1" d="M529.18,178.89c.2-12.84-1.71-25.71-5.64-37.94-1.98-6.16-4.47-12.17-7.45-17.92-2.93-5.66-6.34-11.07-10.2-16.14-3.94-5.18-8.35-9.99-13.18-14.35-2.37-2.14-4.83-4.15-7.4-6.04-2.53-1.87-5.14-3.6-7.84-5.21-2.82-1.68-5.72-3.2-8.71-4.57-2.94-1.35-5.94-2.53-9.01-3.55-6.03-1.99-12.24-3.31-18.57-3.9-6.42-.6-12.88-.44-19.26.5-6.34.93-12.53,2.62-18.47,5.02-5.91,2.39-11.52,5.47-16.73,9.15-5.29,3.73-10.15,8.06-14.5,12.85-4.27,4.7-8.05,9.85-11.3,15.3-3.32,5.57-6.1,11.47-8.32,17.57-4.4,12.08-6.59,24.91-6.67,37.75"/>
    <path class="cls-1" d="M542.99,187.92c-.37,22.04-5.29,43.66-14.51,63.68-9.21,20.01-22.41,37.83-38.67,52.64-4.06,3.69-8.26,7.17-12.65,10.46-4.41,3.3-8.95,6.38-13.65,9.25-9.36,5.72-19.23,10.56-29.47,14.49-20.52,7.88-42.31,12.03-64.26,12.47"/>
    <path class="cls-1" d="M546.62,191.02c-.9-.1-1.75-.54-2.32-1.26"/>
    <path class="cls-1" d="M310.05,14.49c13.52-3.24,27.37-4.97,41.26-5.22,6.95-.12,13.85.12,20.78.73,6.96.62,13.83,1.6,20.68,2.95,27.32,5.38,53.36,16.53,76.01,32.79,5.68,4.08,11.09,8.43,16.27,13.11,5.16,4.65,10.02,9.56,14.62,14.76,9.21,10.42,17.21,21.88,23.74,34.16,13.11,24.67,20.03,52.13,19.57,80.15"/>
    <path class="cls-1" d="M169.67,175.4c.01,3.55.14,7.1.37,10.64.24,3.57.59,7.13,1.05,10.68.23,1.78.49,3.55.78,5.32.29,1.76.6,3.51.94,5.26.68,3.49,1.47,6.96,2.36,10.4,1.8,6.92,4,13.67,6.62,20.32.65,1.65,1.33,3.29,2.03,4.92.71,1.64,1.43,3.27,2.19,4.89.75,1.62,1.53,3.23,2.34,4.83.8,1.59,1.62,3.17,2.46,4.73,1.7,3.15,3.48,6.24,5.36,9.28,1.87,3.03,3.82,5.99,5.86,8.91,4.1,5.86,8.49,11.44,13.22,16.79,2.35,2.67,4.78,5.27,7.28,7.8,2.51,2.54,5.09,5.02,7.73,7.42,2.65,2.4,5.35,4.73,8.13,6.98,2.76,2.24,5.57,4.41,8.45,6.5"/>
    <path class="cls-1" d="M295.62,82.91c-6.8.49-13.6.98-20.4,1.48-6.8.5-13.6.99-20.4,1.49-6.8.5-13.6,1.01-20.4,1.51l-10.2.76c-3.4.26-6.8.51-10.2.77"/>
    <path class="cls-1" d="M295.62,82.91c-1.07-1.24-1.63-2.91-1.77-4.5-.14-1.6.14-3.33.94-4.75"/>
    <path class="cls-1" d="M269.16,166.87c0-2.65.07-5.3.18-7.95s.29-5.3.51-7.94c.22-2.65.5-5.28.84-7.91.33-2.63.72-5.25,1.16-7.87.88-5.24,1.98-10.42,3.31-15.56.66-2.57,1.38-5.12,2.16-7.65.78-2.54,1.62-5.05,2.52-7.54"/>
    <path class="cls-1" d="M541.78,187.95c.41-24.56-4.91-48.74-15.19-70.99-5.13-11.09-11.43-21.59-18.77-31.35-7.33-9.77-15.66-18.76-24.8-26.85-18.31-16.22-39.7-28.71-62.72-36.91-11.5-4.1-23.37-7.12-35.43-9.01-12.06-1.9-24.28-2.66-36.49-2.28"/>
    <path class="cls-1" d="M450.15,318.42c5.24-1.12,10.48-2.24,15.72-3.37"/>
    <path class="cls-1" d="M461.23,49.89c-2.64.06-5.28.12-7.92.18"/>
    <path class="cls-1" d="M306.29,250.68c1.1-1.72,1.67-3.73,1.73-5.75.06-2.03-.37-4.07-1.25-5.9-.88-1.82-2.2-3.44-3.88-4.59-1.68-1.15-3.66-1.81-5.72-1.72"/>
    <path class="cls-1" d="M294.25,254.17c2.04-.45,4.07-.94,6.09-1.51,2.02-.57,4-1.21,5.95-1.98"/>
    <path class="cls-1" d="M359.16,4.66c-.09.04-.16.09-.22.16"/>
    <path class="cls-1" d="M283.14,234.91c-1.01-.25-1.87-.89-2.53-1.65-.67-.78-1.16-1.71-1.47-2.68"/>
    <path class="cls-1" d="M281.86,102.78c-.34.55-.59,1.12-.79,1.73"/>
    <path class="cls-1" d="M460.48,307.67c-2.44.6-4.89,1.11-7.36,1.54-2.46.43-4.93.77-7.41,1.03-5,.52-9.98.69-15.01.52-2.51-.09-5-.26-7.49-.51-2.48-.25-4.95-.59-7.41-1.01-2.47-.42-4.91-.92-7.35-1.51-2.44-.59-4.86-1.25-7.26-2-2.38-.74-4.74-1.56-7.07-2.46-2.34-.9-4.64-1.87-6.92-2.92-2.27-1.04-4.51-2.16-6.71-3.34-2.21-1.19-4.38-2.44-6.52-3.77-2.1-1.3-4.16-2.66-6.18-4.09-2.04-1.43-4.03-2.93-5.98-4.48-1.97-1.57-3.9-3.19-5.78-4.88-1.88-1.68-3.72-3.42-5.51-5.21-1.75-1.75-3.46-3.55-5.11-5.4-1.66-1.85-3.27-3.75-4.84-5.69-1.57-1.95-3.09-3.95-4.56-5.98-1.48-2.05-2.91-4.15-4.29-6.27-1.36-2.11-2.66-4.25-3.92-6.42-1.25-2.16-2.44-4.36-3.58-6.58-2.28-4.47-4.34-9.02-6.18-13.68-.91-2.32-1.77-4.65-2.57-7.01-.81-2.37-1.56-4.76-2.25-7.17-.7-2.42-1.34-4.86-1.92-7.31-.58-2.43-1.09-4.87-1.55-7.33-.93-4.94-1.61-9.89-2.07-14.89-.46-4.98-.67-9.96-.65-14.96"/>
    <path class="cls-1" d="M356.41,7.47c.5-.02,1.01-.16,1.43-.46.41-.3.72-.74.73-1.27"/>
    <path class="cls-1" d="M404.29,352.01c-15.52,3.06-31.38,4.23-47.18,3.52"/>
    <path class="cls-1" d="M359.61,4.68c.16.24.18.82.17,1.07"/>
    <path class="cls-1" d="M423.39,337.6c-3.29.23-6.59.34-9.89.32-1.65,0-3.31-.05-4.96-.12-1.64-.07-3.28-.17-4.92-.3-3.3-.27-6.58-.66-9.86-1.18-3.25-.52-6.47-1.15-9.68-1.92s-6.37-1.64-9.5-2.64c-1.58-.5-3.14-1.03-4.7-1.59-1.56-.56-3.11-1.15-4.65-1.77-3.07-1.24-6.09-2.58-9.06-4.04-2.96-1.46-5.85-3.01-8.69-4.69-2.84-1.67-5.6-3.44-8.31-5.32-2.72-1.89-5.37-3.87-7.96-5.95-2.57-2.06-5.05-4.21-7.47-6.44-2.43-2.25-4.79-4.57-7.07-6.98-4.56-4.8-8.76-9.85-12.66-15.2-1.93-2.65-3.77-5.36-5.54-8.12-.89-1.4-1.76-2.8-2.61-4.22-.85-1.43-1.69-2.88-2.5-4.33"/>
    <path class="cls-1" d="M378.13,15.41c-2.12.43-4.23.91-6.32,1.45-2.1.54-4.18,1.13-6.24,1.78-2.07.65-4.12,1.35-6.15,2.11-2.02.75-4.01,1.56-5.99,2.42-3.97,1.73-7.82,3.67-11.58,5.82-3.76,2.15-7.38,4.49-10.89,7.03-1.75,1.26-3.47,2.57-5.15,3.92-1.69,1.35-3.34,2.75-4.96,4.19-3.24,2.88-6.32,5.89-9.26,9.07-2.94,3.18-5.71,6.49-8.32,9.94-1.3,1.71-2.56,3.45-3.78,5.22-1.23,1.79-2.42,3.61-3.58,5.45"/>
    <path class="cls-1" d="M437.42,327.43c-3.22.28-6.44.43-9.68.47-3.25.03-6.48-.06-9.73-.27-3.24-.22-6.45-.55-9.66-1.01-3.21-.46-6.38-1.03-9.55-1.72-3.15-.69-6.26-1.5-9.36-2.41-3.12-.93-6.2-1.97-9.25-3.12-1.51-.57-3.01-1.17-4.5-1.79-1.5-.63-2.98-1.28-4.46-1.96-2.94-1.35-5.82-2.81-8.66-4.36-2.83-1.55-5.6-3.19-8.33-4.93-2.74-1.75-5.41-3.59-8.03-5.51-1.29-.95-2.57-1.92-3.83-2.91-1.27-1-2.52-2.02-3.75-3.05-2.5-2.1-4.92-4.27-7.27-6.52-4.7-4.48-9.07-9.22-13.18-14.25-2.04-2.49-4-5.04-5.89-7.65-1.91-2.64-3.73-5.33-5.48-8.08"/>
    <path class="cls-1" d="M403.91,21.34c-4.75.37-9.44,1.01-14.11,1.93-2.33.46-4.65.99-6.95,1.58-2.3.59-4.58,1.25-6.84,1.98-4.53,1.46-8.95,3.17-13.28,5.14-4.34,1.98-8.52,4.18-12.6,6.64-2.03,1.22-4.02,2.5-5.98,3.83-1.97,1.34-3.9,2.74-5.79,4.19-3.78,2.9-7.37,5.98-10.82,9.27-3.44,3.29-6.69,6.74-9.77,10.37-1.53,1.8-3.01,3.64-4.44,5.52-1.45,1.9-2.85,3.83-4.2,5.8"/>
    <path class="cls-1" d="M484.87,299.05c-3.51,2.1-7.11,4.01-10.83,5.73-1.86.86-3.73,1.67-5.63,2.42s-3.82,1.46-5.75,2.11"/>
    <line class="cls-1" x1="172.32" y1="178.18" x2="171.19" y2="178.3"/>
    <path class="cls-1" d="M351.33,353.28c.17-.72.64-1.31,1.28-1.67.63-.36,1.38-.47,2.09-.36.71.12,1.38.47,1.88.99.5.53.81,1.22.82,1.95"/>
    <path class="cls-1" d="M258.01,322.66c27.85,17.94,59.96,28.62,92.95,31.14"/>
    <path class="cls-1" d="M350.49,355.12c-33.93-2.64-66.92-13.89-95.3-32.73"/>
    <path class="cls-1" d="M353.09,5.7c-26.92.24-53.65,5.95-78.2,17.13-12.24,5.57-23.85,12.47-34.55,20.61-2.68,2.04-5.3,4.15-7.86,6.34-2.55,2.18-5.02,4.43-7.44,6.75-4.86,4.67-9.4,9.58-13.67,14.8"/>
    <path class="cls-1" d="M182.66,119.29c6.08-16.81,14.85-32.47,25.93-46.48,5.56-7.02,11.58-13.51,18.15-19.58,6.58-6.08,13.52-11.57,20.94-16.58,29.74-20.11,64.84-30.87,100.55-32.01"/>
    <path class="cls-1" d="M297.81,101.87c.54.07,1.08.1,1.63.07"/>
    <line class="cls-1" x1="213.25" y1="96.17" x2="207.71" y2="96.55"/>
    <line class="cls-1" x1="213.24" y1="254.93" x2="207.9" y2="255.67"/>
    <path class="cls-1" d="M358.66.54h0"/>
    <path class="cls-1" d="M356.22,354.26c.34-.07.84-.09,1.19-.07"/>
    <path class="cls-1" d="M356.22,354.26c0,.28.08.56.23.79.14.23.37.43.66.47"/>
    <path class="cls-1" d="M359.54,5.74c-.12-.21-.25-.41-.38-.61"/>
    <path class="cls-1" d="M358.94,4.82c.08.1.15.21.22.31"/>
    <path class="cls-1" d="M359.54,5.74h.24"/>
    <path class="cls-1" d="M358.57,5.74c.32,0,.65,0,.97,0"/>
    <path class="cls-1" d="M358.94,4.82c-.25.24-.36.59-.37.92"/>
    <path class="cls-1" d="M169.59,175.36s-.03,0-.04,0c0,0-.01,0-.02,0,0,0,0,0,0,0,0,0,0,0,0,0"/>
    <path class="cls-1" d="M550.51,188.51c.08,0,.17,0,.25,0"/>
    <path class="cls-1" d="M169.59,175.36c0-3.01.06-6.01.22-9.02.15-2.98.38-5.96.69-8.92.62-5.92,1.55-11.77,2.79-17.59.62-2.92,1.33-5.81,2.11-8.69.78-2.89,1.64-5.76,2.58-8.61.94-2.84,1.95-5.65,3.03-8.44,1.08-2.77,2.23-5.5,3.45-8.2,2.46-5.44,5.19-10.71,8.21-15.86,1.51-2.57,3.08-5.1,4.72-7.59,1.65-2.5,3.36-4.96,5.13-7.37,1.78-2.42,3.62-4.79,5.52-7.11,1.89-2.31,3.84-4.56,5.85-6.77,4.01-4.41,8.21-8.59,12.64-12.58,2.21-1.99,4.47-3.92,6.77-5.8,2.32-1.88,4.68-3.71,7.08-5.48,2.41-1.77,4.87-3.49,7.37-5.14,2.48-1.65,5.01-3.23,7.57-4.75,5.13-3.05,10.37-5.84,15.77-8.38,2.7-1.27,5.42-2.48,8.18-3.63,2.77-1.15,5.56-2.23,8.38-3.25,2.8-1.02,5.63-1.96,8.48-2.85,2.86-.89,5.73-1.7,8.62-2.46,5.78-1.5,11.59-2.74,17.48-3.71,5.87-.97,11.75-1.67,17.68-2.11,2.98-.22,5.96-.37,8.95-.46,3.01-.09,6.01-.11,9.02-.06"/>
    <path class="cls-1" d="M294.48,262.79c-.37.12-.74.23-1.12.32"/>
    <path class="cls-1" d="M295.92,73.8c-.37-.08-.74-.13-1.12-.14"/>
    <path class="cls-1" d="M294.25,254.17c-.9,1.16-1.05,2.96-.96,4.3.11,1.47.53,3,1.19,4.31"/>
    <path class="cls-1" d="M280.36,230.33c-.4.09-.81.18-1.22.25"/>
    <path class="cls-1" d="M281.07,104.51c-.41-.05-.81-.08-1.22-.07"/>
    <path class="cls-1" d="M279.85,104.43c.2-.57.45-1.09.79-1.59"/>
    <path class="cls-1" d="M270.47,166.77c0,2.69.04,5.38.15,8.07s.26,5.38.47,8.06c.41,5.37,1.03,10.71,1.85,16.04.41,2.66.87,5.31,1.38,7.95.51,2.64,1.08,5.28,1.69,7.9,1.23,5.25,2.68,10.42,4.35,15.54"/>
    <path class="cls-1" d="M280.36,230.33c3.74-.83,7.49-1.59,11.29-2.17"/>
    <path class="cls-1" d="M291.83,105.46c-3.59-.26-7.18-.61-10.76-.96"/>
    <path class="cls-1" d="M306.82,258.33c-3.91,1.87-8.17,3.31-12.34,4.46"/>
    <path class="cls-1" d="M294.48,262.79c1.62,2.91,3.32,5.77,5.11,8.59,1.77,2.78,3.61,5.49,5.55,8.15,3.91,5.37,8.13,10.43,12.7,15.24,2.29,2.41,4.65,4.74,7.1,6.99,2.43,2.23,4.92,4.38,7.5,6.44,2.59,2.08,5.26,4.05,7.99,5.94,2.72,1.87,5.5,3.64,8.35,5.3,2.85,1.66,5.76,3.21,8.74,4.66,1.49.72,2.99,1.42,4.51,2.09,1.52.67,3.06,1.31,4.6,1.92,1.55.61,3.1,1.2,4.67,1.75,1.56.55,3.13,1.08,4.71,1.57,3.15.98,6.33,1.85,9.55,2.59,3.22.74,6.45,1.37,9.72,1.86,3.28.5,6.58.87,9.89,1.12,3.3.25,6.61.36,9.92.36,3.31,0,6.62-.13,9.92-.38"/>
    <path class="cls-1" d="M295.92,73.8c1.93.28,3.84.62,5.74,1.05,1.9.43,3.77.94,5.62,1.58"/>
    <path class="cls-1" d="M308.77,251.82c-.5.8-.79,1.72-.83,2.66-.04.94.19,1.89.7,2.69"/>
    <path class="cls-1" d="M297.17,232.71c.47-.09.73-.65.85-1.02.13-.44.17-.93.13-1.38"/>
    <path class="cls-1" d="M293.62,227.39c.72,1.87,2.57,3,4.53,2.92"/>
    <path class="cls-1" d="M297.17,232.71c-1.31.02-2.52-.54-3.47-1.38-.96-.84-1.65-1.97-2.05-3.17"/>
    <path class="cls-1" d="M298.44,103.87c.05-.53.02-1.42-.43-1.86"/>
    <path class="cls-1" d="M291.83,105.46c.48-1.37,1.41-2.62,2.76-3.29"/>
    <path class="cls-1" d="M298.44,103.87c-.93-.17-1.89-.07-2.75.35-.86.42-1.51,1.14-1.87,2.03"/>
    <path class="cls-1" d="M309.29,83.1c-.61.5-1.69,1.15-2.49,1.32"/>
    <path class="cls-1" d="M291.64,228.16c.63-.2,1.37-.49,1.97-.77"/>
    <path class="cls-1" d="M282.32,166.3c0,2.6.05,5.21.16,7.81.12,2.6.29,5.2.53,7.8.24,2.59.53,5.18.89,7.76s.77,5.15,1.25,7.71c.95,5.13,2.13,10.19,3.55,15.2.71,2.51,1.47,4.99,2.29,7.46.82,2.47,1.7,4.92,2.64,7.35"/>
    <path class="cls-1" d="M291.64,228.16c-.95-2.46-1.84-4.95-2.67-7.45-.83-2.5-1.6-5.02-2.32-7.56-1.43-5.08-2.63-10.21-3.59-15.4-.48-2.59-.9-5.2-1.26-7.81-.36-2.61-.66-5.23-.9-7.86-.24-2.63-.42-5.26-.53-7.89-.12-2.64-.17-5.27-.16-7.91"/>
    <path class="cls-1" d="M293.83,106.25c-.58-.34-1.34-.65-2-.79"/>
    <path class="cls-1" d="M308.63,257.17c1.72,2.7,3.52,5.34,5.39,7.93,1.85,2.56,3.78,5.07,5.78,7.51,4.04,4.94,8.33,9.58,12.95,13.99,2.31,2.21,4.69,4.34,7.14,6.4,2.42,2.04,4.9,3.99,7.44,5.87,2.57,1.9,5.19,3.7,7.88,5.42,2.67,1.71,5.39,3.33,8.17,4.85,2.79,1.53,5.62,2.97,8.5,4.3,2.89,1.34,5.81,2.58,8.79,3.71,2.99,1.14,6.01,2.17,9.07,3.09,3.03.91,6.09,1.71,9.18,2.4,6.23,1.39,12.48,2.31,18.85,2.77,3.18.23,6.36.33,9.55.32,3.18-.01,6.34-.15,9.5-.4"/>
    <path class="cls-1" d="M306.82,258.33c.61-.29,1.29-.73,1.81-1.16"/>
    <path class="cls-1" d="M307.27,76.43c1.31-1.92,2.66-3.8,4.07-5.65,1.39-1.83,2.82-3.63,4.29-5.39,2.97-3.54,6.09-6.92,9.4-10.15,3.31-3.23,6.77-6.27,10.39-9.13,1.82-1.44,3.66-2.82,5.56-4.16,1.88-1.33,3.79-2.61,5.74-3.84,3.91-2.46,7.93-4.7,12.09-6.72,4.16-2.02,8.4-3.8,12.76-5.35,2.17-.77,4.36-1.48,6.57-2.13,2.22-.65,4.46-1.24,6.71-1.76,4.51-1.05,9.04-1.84,13.63-2.38"/>
    <path class="cls-1" d="M309.12,77.6c-.5-.48-1.19-.94-1.85-1.17"/>
    <path class="cls-1" d="M309.08,165.8c-.02,5.24.22,10.45.72,15.66.5,5.24,1.26,10.42,2.29,15.58.51,2.57,1.08,5.13,1.72,7.67.64,2.56,1.35,5.1,2.12,7.63,1.53,5,3.29,9.9,5.31,14.73,1.01,2.42,2.09,4.81,3.22,7.17,1.14,2.36,2.33,4.69,3.59,7,1.26,2.3,2.58,4.57,3.96,6.81,1.37,2.22,2.8,4.41,4.29,6.55,1.51,2.18,3.08,4.31,4.71,6.4,1.61,2.07,3.28,4.09,5,6.06,1.72,1.97,3.49,3.88,5.32,5.75,1.82,1.86,3.69,3.66,5.62,5.41,1.97,1.79,4,3.52,6.08,5.18,2.05,1.65,4.15,3.23,6.31,4.74,2.13,1.5,4.3,2.93,6.52,4.3,2.2,1.35,4.44,2.63,6.72,3.84,2.33,1.23,4.69,2.39,7.09,3.46,2.41,1.08,4.84,2.07,7.32,2.98,2.46.91,4.95,1.72,7.47,2.46,2.5.73,5.01,1.37,7.55,1.92,2.56.56,5.13,1.02,7.71,1.39,2.6.37,5.2.66,7.81.84,2.63.19,5.25.28,7.88.28,2.61,0,5.22-.1,7.83-.29,2.59-.19,5.18-.47,7.75-.85,2.58-.38,5.13-.84,7.68-1.4,2.57-.57,5.1-1.22,7.62-1.97,2.55-.76,5.06-1.61,7.55-2.54"/>
    <path class="cls-1" d="M353.9,168.65c-.07,11.12,1.67,22.24,5.14,32.81.88,2.67,1.86,5.29,2.95,7.87,1.09,2.58,2.28,5.09,3.58,7.57,1.29,2.46,2.68,4.85,4.17,7.19,1.48,2.32,3.06,4.57,4.74,6.76,1.72,2.24,3.53,4.4,5.46,6.47,1.9,2.06,3.89,4.02,5.97,5.88,2.06,1.85,4.2,3.59,6.43,5.23,2.21,1.62,4.48,3.13,6.84,4.53,4.82,2.86,9.94,5.21,15.27,6.98,5.23,1.73,10.65,2.89,16.13,3.4,11.16,1.05,22.29-.55,32.7-4.72,2.54-1.02,5-2.18,7.41-3.48,2.43-1.32,4.77-2.76,7.04-4.34,2.3-1.6,4.49-3.32,6.59-5.17,2.14-1.87,4.15-3.85,6.07-5.94,1.84-2.01,3.57-4.1,5.21-6.28,1.66-2.21,3.19-4.5,4.63-6.86,1.45-2.4,2.78-4.86,4-7.39,1.23-2.56,2.34-5.16,3.33-7.83.96-2.57,1.79-5.18,2.52-7.83.74-2.67,1.35-5.37,1.86-8.1,1.03-5.54,1.56-11.08,1.65-16.72"/>
    <path class="cls-1" d="M513.57,178.69c.17-11.27-1.47-22.3-4.92-33.03-3.45-10.73-8.53-20.71-15.38-29.7-1.75-2.29-3.59-4.5-5.54-6.62-1.91-2.08-3.9-4.06-5.99-5.95-4.11-3.71-8.47-6.94-13.23-9.77-2.48-1.47-5.02-2.81-7.64-4.01-2.56-1.18-5.17-2.21-7.84-3.1-5.24-1.74-10.61-2.87-16.12-3.38-5.59-.52-11.26-.39-16.82.42-5.53.81-10.88,2.28-16.05,4.38-5.17,2.09-10.05,4.75-14.6,7.96-4.63,3.26-8.82,7.03-12.63,11.22-3.75,4.13-7,8.52-9.85,13.31-2.92,4.9-5.29,9.98-7.24,15.33-3.87,10.63-5.74,21.61-5.82,32.9"/>
    <line class="cls-1" x1="358.57" y1="5.74" x2="356.85" y2="5.79"/>
    <line class="cls-1" x1="354.53" y1="354.59" x2="356.22" y2="354.26"/>
    <path class="cls-1" d="M356.22,354.26c-.01-.65-.47-1.15-1-1.43-.54-.28-1.19-.36-1.78-.24"/>
    <line class="cls-1" x1="357.1" y1="355.53" x2="355.78" y2="355.79"/>
    <path class="cls-1" d="M357.41,354.19c0,.24-.02.47-.05.7-.02.13-.1.55-.25.64"/>
    <path class="cls-1" d="M359.78,5.75c-.04,1.37-1.04,2.46-2.33,2.78-1.28.32-2.68-.16-3.44-1.26"/>
    <line class="cls-1" x1="171.17" y1="172.6" x2="172.33" y2="172.48"/>
    <path class="cls-1" d="M541.78,187.95c.34-.04.87-.04,1.21-.03"/>
    <path class="cls-1" d="M306.8,84.43c-1.84-.43-3.69-.75-5.56-.99-1.87-.24-3.74-.41-5.62-.53"/>
    <line class="cls-1" x1="172.76" y1="176.23" x2="172.3" y2="176.14"/>
    <line class="cls-1" x1="534.67" y1="188.74" x2="535.49" y2="188.76"/>
    <path class="cls-1" d="M294.8,73.66c1.16-1.84,2.35-3.65,3.59-5.44,1.22-1.77,2.48-3.51,3.78-5.22,2.62-3.45,5.39-6.75,8.33-9.93,2.94-3.18,6.02-6.2,9.26-9.07,1.62-1.44,3.27-2.83,4.96-4.19,1.68-1.35,3.4-2.66,5.15-3.92,3.51-2.54,7.12-4.88,10.88-7.03s7.6-4.1,11.57-5.84c1.97-.86,3.97-1.67,5.99-2.43,2.03-.76,4.08-1.47,6.15-2.12,2.06-.65,4.14-1.25,6.23-1.79,2.09-.54,4.19-1.02,6.31-1.46"/>
    <path class="cls-1" d="M212.64,78.89c3.42-.22,6.85-.44,10.27-.66,3.42-.22,6.85-.44,10.27-.66,6.85-.44,13.69-.88,20.54-1.31,6.84-.44,13.69-.87,20.54-1.3,6.85-.43,13.69-.86,20.54-1.29"/>
    <path class="cls-1" d="M279.85,104.43c-6.62.26-13.24.51-19.86.76-6.62.25-13.24.5-19.87.75-6.62.25-13.24.49-19.86.74-6.62.24-13.24.48-19.86.72"/>
    <path class="cls-1" d="M279.14,230.58c-1.68-5.13-3.14-10.32-4.39-15.57-.62-2.63-1.19-5.27-1.71-7.92-.52-2.65-.98-5.3-1.4-7.97-.83-5.34-1.45-10.69-1.87-16.08-.21-2.69-.37-5.38-.47-8.08-.1-2.7-.16-5.39-.15-8.09"/>
    <path class="cls-1" d="M200.61,243.57c3.27-.55,6.54-1.09,9.82-1.64,3.27-.55,6.54-1.09,9.82-1.63,6.54-1.09,13.09-2.17,19.63-3.26,6.54-1.08,13.09-2.16,19.63-3.24,6.54-1.08,13.09-2.15,19.63-3.23"/>
    <path class="cls-1" d="M293.37,263.1c-3.35.46-6.71.91-10.07,1.37-3.35.46-6.71.91-10.06,1.37-6.71.91-13.43,1.82-20.14,2.72-6.71.9-13.43,1.81-20.14,2.71-6.71.9-13.43,1.79-20.14,2.69"/>
    <path class="cls-1" d="M293.37,263.1c-.71-1.41-1.03-3.06-.92-4.63.11-1.52.64-3.19,1.8-4.3"/>
    <path class="cls-1" d="M297.17,232.71c-1.24.16-2.48.34-3.72.53"/>
    <path class="cls-1" d="M214.19,264.38c13.35-1.68,26.69-3.37,40.04-5.08,6.67-.85,13.34-1.7,20.01-2.56,6.67-.85,13.34-1.71,20.01-2.57"/>
    <path class="cls-1" d="M253.08,320.98c-8.4-5.74-16.35-12.12-23.75-19.11-7.4-6.99-14.22-14.56-20.39-22.65"/>
  </g>
</svg>