<?xml version="1.0" encoding="UTF-8"?>
<svg xmlns="http://www.w3.org/2000/svg" viewBox="0 0 586.62 702.06">
  <defs>
    <style>
      .cls-1 {
        fill: red;
        stroke-width: 0px;
      }

      .cls-2 {
        fill: none;
        stroke: #000;
        stroke-linecap: round;
        stroke-linejoin: round;
      }
    </style>
  </defs>
  <g id="Make2D::_::_" data-name="Make2D::???::??">
    <path class="cls-2" d="M64.86,517.15s.15.17.53.59c.14.16.32.35.53.59.22.24.48.53.8.87.42.45.93,1,1.54,1.65,1.5,1.59,3.56,3.74,6.32,6.46,4.24,4.17,9.01,8.56,14.31,13,5.19,4.35,10.88,8.75,17.01,13.04,5.68,3.97,11.71,7.84,18.11,11.53,4.07,2.35,8.28,4.62,12.62,6.8,4.83,2.42,9.64,4.65,14.75,6.81"/>
    <path class="cls-2" d="M491.72,315.71c-.02-.15-.04-.3-.07-.45-.17-1.18-.36-2.37-.55-3.55-.19-1.18-.39-2.36-.6-3.55-1.24-7.03-2.82-14.12-4.68-21.07-1.86-6.94-4.04-13.82-6.51-20.59-2.47-6.76-5.24-13.43-8.29-19.95-3.05-6.52-6.38-12.91-9.98-19.14-7.19-12.42-15.47-24.23-24.7-35.23-9.24-11-19.41-21.16-30.4-30.37-11.01-9.23-22.8-17.47-35.2-24.63-5.14-2.97-10.39-5.75-15.73-8.34-4-1.94-8.07-3.77-12.17-5.49"/>
    <path class="cls-2" d="M247.38,164.45c-49.48,0-96.94,19.66-131.92,54.64-34.99,34.99-54.65,82.45-54.65,131.93,0,49.48,19.66,96.94,54.64,131.92,34.99,34.99,82.45,54.65,131.93,54.65"/>
    <path class="cls-2" d="M247.38,111.69c-63.48,0-124.35,25.22-169.24,70.1C33.26,226.67,8.04,287.55,8.04,351.03c0,63.48,25.22,124.35,70.1,169.24,44.89,44.89,105.76,70.1,169.24,70.1"/>
    <path class="cls-2" d="M247.38,590.37c63.48,0,124.35-25.22,169.24-70.1,44.89-44.89,70.1-105.76,70.1-169.24,0-63.48-25.22-124.35-70.1-169.24-44.89-44.89-105.76-70.1-169.24-70.1"/>
    <path class="cls-2" d="M27.41,463.1c4.4,8.64,9.31,17.02,14.7,25.09,8.98,13.44,19.28,25.99,30.7,37.41,11.43,11.43,23.98,21.73,37.41,30.7,13.44,8.98,27.75,16.63,42.68,22.81,14.93,6.18,30.47,10.9,46.31,14.05,15.85,3.15,32.01,4.74,48.16,4.74s32.32-1.59,48.16-4.74c15.85-3.15,31.38-7.87,46.31-14.05,5.97-2.47,11.84-5.18,17.6-8.11"/>
    <path class="cls-2" d="M494.26,351.03c0,65.48-26.01,128.27-72.31,174.57-46.3,46.3-109.1,72.31-174.57,72.31-65.48,0-128.27-26.01-174.57-72.31C26.51,479.3.5,416.51.5,351.03"/>
    <path class="cls-2" d="M.5,351.03c0-65.48,26.01-128.27,72.31-174.57,46.3-46.3,109.1-72.31,174.57-72.31,65.48,0,128.27,26.01,174.57,72.31,46.3,46.3,72.31,109.1,72.31,174.57"/>
    <path class="cls-2" d="M586.12,701.56c-13.27,0-26.53,0-39.8-.13-13.34-.13-26.63-.4-39.96-.89-13.56-.5-27.11-1.24-40.64-2.3-13.94-1.09-27.85-2.52-41.71-4.36-14.48-1.92-28.93-4.27-43.25-7.09-14.97-2.95-29.79-6.4-44.42-10.35-8.9-2.41-17.69-4.99-26.39-7.74-6.18-1.96-12.29-4-18.36-6.13-15.11-5.3-29.67-11.05-43.81-17.25-10.38-4.55-20.39-9.28-30.05-14.16-3.77-1.91-7.49-3.83-11.14-5.77-13.32-7.08-25.77-14.35-37.22-21.56-6.86-4.32-13.39-8.64-19.54-12.88-4.4-3.04-8.63-6.04-12.65-8.98-9.94-7.28-18.95-14.41-26.65-20.85-4.67-3.91-9.04-7.72-13.02-11.3-2.82-2.54-5.49-5-7.92-7.3-3-2.83-5.85-5.6-8.41-8.15-2.59-2.58-5.01-5.06-7-7.14-2-2.09-3.93-4.16-5.48-5.84-1.54-1.68-2.91-3.2-3.4-3.74-.19-.21-.33-.37-.4-.45"/>
    <path class="cls-2" d="M492.15,318.83c.16,1.19.44,3.53.6,4.99"/>
    <path class="cls-2" d="M53.43,303.17c-1.46,5.9-2.64,11.84-3.55,17.85"/>
    <path class="cls-2" d="M30.39,335.22c-.91-.15-1.82-.22-2.75-.21"/>
    <path class="cls-2" d="M27.65,367.05c.92.01,1.83-.06,2.75-.21"/>
    <path class="cls-2" d="M49.88,381.03c.91,6.01,2.09,11.95,3.55,17.85"/>
    <path class="cls-2" d="M40.86,419.46c-.9.21-1.77.5-2.62.86"/>
    <path class="cls-2" d="M50.5,449.91c.86-.34,1.67-.76,2.46-1.24"/>
    <path class="cls-2" d="M76.4,454.33c3.14,5.2,6.51,10.24,10.11,15.13"/>
    <path class="cls-2" d="M82.77,493.28c-.75.54-1.44,1.13-2.09,1.8"/>
    <path class="cls-2" d="M105.13,515.64c2.65-3.67,6.65-6.14,11.13-6.84,4.47-.7,9.04.41,12.69,3.1"/>
    <path class="cls-2" d="M128.95,511.9c4.9,3.6,9.93,6.97,15.13,10.11"/>
    <path class="cls-2" d="M144.08,522.01c3.88,2.34,6.65,6.14,7.72,10.54s.32,9.05-2.06,12.9"/>
    <path class="cls-2" d="M149.74,545.45c-.49.79-.9,1.6-1.24,2.46"/>
    <path class="cls-2" d="M189.59,583.29c-4.82-1.2-8.88-4.46-11.09-8.91-2.21-4.45-2.36-9.65-.41-14.22"/>
    <path class="cls-2" d="M178.09,560.16c.36-.85.65-1.72.86-2.62"/>
    <path class="cls-2" d="M178.95,557.55c1.04-4.41,3.8-8.22,7.66-10.58s8.51-3.08,12.91-1.99"/>
    <path class="cls-2" d="M217.37,548.53c4.48.68,8.5,3.12,11.16,6.78,2.67,3.66,3.76,8.23,3.03,12.7"/>
    <path class="cls-2" d="M231.57,568.01c-.15.91-.22,1.82-.21,2.75"/>
    <path class="cls-2" d="M282.87,587.72c-4.92.74-9.91-.72-13.66-3.98-3.75-3.26-5.88-8.01-5.82-12.98"/>
    <path class="cls-2" d="M263.4,570.76c.01-.92-.06-1.83-.21-2.75"/>
    <path class="cls-2" d="M263.19,568.01c-.73-4.47.37-9.04,3.03-12.7,2.67-3.66,6.69-6.1,11.16-6.78"/>
    <path class="cls-2" d="M277.39,548.53c6.01-.91,11.95-2.09,17.85-3.55"/>
    <path class="cls-2" d="M295.24,544.98c4.4-1.08,9.04-.37,12.91,1.99s6.62,6.17,7.66,10.58"/>
    <path class="cls-2" d="M315.81,557.55c.21.9.5,1.77.86,2.62"/>
    <path class="cls-2" d="M316.67,560.16c1.95,4.57,1.8,9.77-.41,14.22-2.21,4.45-6.27,7.71-11.09,8.91"/>
    <path class="cls-2" d="M370.75,556.12c-4.26,2.56-9.43,3.13-14.14,1.54-4.71-1.58-8.49-5.15-10.34-9.76"/>
    <path class="cls-2" d="M346.27,547.9c-.34-.86-.76-1.67-1.24-2.46"/>
    <path class="cls-2" d="M345.03,545.45c-2.38-3.85-3.12-8.5-2.06-12.9s3.84-8.2,7.72-10.54"/>
    <path class="cls-2" d="M350.68,522.01c5.2-3.14,10.24-6.51,15.13-10.11"/>
    <path class="cls-2" d="M365.82,511.9c3.65-2.68,8.22-3.8,12.69-3.1s8.48,3.17,11.13,6.84"/>
    <path class="cls-2" d="M389.63,515.64c.54.75,1.14,1.44,1.8,2.09"/>
    <path class="cls-2" d="M391.43,517.73c3.55,3.48,5.4,8.33,5.06,13.29-.34,4.96-2.84,9.52-6.84,12.47"/>
    <path class="cls-2" d="M439.85,493.3c-2.95,4-7.51,6.5-12.47,6.84s-9.82-1.51-13.29-5.06"/>
    <path class="cls-2" d="M414.08,495.07c-.65-.66-1.34-1.26-2.09-1.8"/>
    <path class="cls-2" d="M408.25,469.46c3.6-4.9,6.97-9.93,10.11-15.13"/>
    <path class="cls-2" d="M441.8,448.67c.79.49,1.6.9,2.46,1.24"/>
    <path class="cls-2" d="M444.26,449.91c4.61,1.85,8.18,5.63,9.76,10.34,1.58,4.71,1.02,9.88-1.55,14.14"/>
    <path class="cls-2" d="M479.64,408.81c-1.2,4.82-4.46,8.88-8.91,11.09-4.45,2.21-9.65,2.36-14.22.41"/>
    <path class="cls-2" d="M456.52,420.32c-.85-.36-1.72-.65-2.62-.86"/>
    <path class="cls-2" d="M441.33,398.88c1.46-5.9,2.64-11.84,3.55-17.85"/>
    <path class="cls-2" d="M467.11,367.04c4.97-.06,9.71,2.07,12.98,5.82,3.26,3.75,4.72,8.74,3.98,13.66"/>
    <path class="cls-2" d="M484.08,315.53c.74,4.92-.72,9.91-3.98,13.66-3.26,3.75-8.01,5.88-12.98,5.82"/>
    <path class="cls-2" d="M444.88,321.02c-.91-6.01-2.09-11.95-3.55-17.85"/>
    <path class="cls-2" d="M81.67,491.75c3.27-2.35,5.45-5.91,6.08-9.89.62-3.98-.37-8.04-2.75-11.28"/>
    <path class="cls-2" d="M74.78,455.3c-2.08-3.45-5.45-5.92-9.37-6.86-3.91-.94-8.04-.29-11.46,1.83"/>
    <path class="cls-2" d="M51.21,451.66c-4.1,1.65-7.27,5.01-8.68,9.19-1.41,4.19-.9,8.78,1.37,12.57"/>
    <path class="cls-2" d="M56.43,492.18c2.63,3.55,6.68,5.78,11.09,6.08,4.41.3,8.73-1.34,11.82-4.5"/>
    <path class="cls-2" d="M106.66,516.74c-.6.84-1.27,1.61-2.01,2.33"/>
    <path class="cls-2" d="M104.65,519.08c-3.16,3.09-4.8,7.41-4.5,11.82s2.53,8.46,6.08,11.09"/>
    <path class="cls-2" d="M124.98,554.51c3.79,2.28,8.38,2.78,12.57,1.37,4.19-1.41,7.55-4.58,9.19-8.68"/>
    <path class="cls-2" d="M453.9,282.6c.9-.21,1.77-.5,2.62-.86"/>
    <path class="cls-2" d="M456.52,281.74c4.57-1.95,9.77-1.8,14.22.41s7.71,6.27,8.91,11.09"/>
    <path class="cls-2" d="M217.09,550.39c-6.07-.92-12.06-2.11-18.02-3.58"/>
    <path class="cls-2" d="M190.05,581.46c7.31,1.82,14.67,3.28,22.12,4.4"/>
    <path class="cls-2" d="M212.17,585.86c4.37.65,8.81-.64,12.14-3.54,3.33-2.9,5.22-7.12,5.17-11.54"/>
    <path class="cls-2" d="M464.06,368.7c-3.97-.64-8.04.33-11.29,2.7-3.25,2.37-5.42,5.94-6.03,9.92"/>
    <path class="cls-2" d="M443.16,399.34c-.96,3.91-.33,8.04,1.77,11.47,2.1,3.43,5.48,5.89,9.4,6.81"/>
    <path class="cls-2" d="M454.33,284.43c-3.92.92-7.3,3.38-9.4,6.81-2.1,3.43-2.74,7.57-1.77,11.47"/>
    <path class="cls-2" d="M446.74,320.74c.6,3.98,2.78,7.55,6.03,9.92,3.25,2.37,7.32,3.34,11.29,2.7"/>
    <path class="cls-2" d="M452.48,227.66c2.56,4.26,3.13,9.43,1.54,14.14-1.58,4.71-5.15,8.49-9.76,10.34"/>
    <path class="cls-2" d="M444.26,252.14c-.86.34-1.67.76-2.46,1.24"/>
    <path class="cls-2" d="M199.07,155.25c5.96-1.47,11.95-2.66,18.02-3.58"/>
    <path class="cls-2" d="M229.48,131.27c.05-4.42-1.84-8.64-5.17-11.54-3.33-2.9-7.77-4.2-12.14-3.54"/>
    <path class="cls-2" d="M212.17,116.2c-7.45,1.12-14.81,2.58-22.12,4.4"/>
    <path class="cls-2" d="M104.65,182.98c.74.72,1.4,1.49,2.01,2.33"/>
    <path class="cls-2" d="M146.74,154.85c-1.65-4.1-5.01-7.27-9.19-8.68-4.19-1.41-8.78-.9-12.57,1.37"/>
    <path class="cls-2" d="M106.23,160.08c-3.55,2.63-5.78,6.68-6.08,11.09-.3,4.41,1.34,8.73,4.5,11.82"/>
    <path class="cls-2" d="M53.95,251.78c3.42,2.12,7.55,2.78,11.46,1.83,3.91-.94,7.29-3.41,9.37-6.86"/>
    <path class="cls-2" d="M84.99,231.48c2.39-3.24,3.38-7.3,2.75-11.28s-2.81-7.54-6.08-9.89"/>
    <path class="cls-2" d="M79.33,208.3c-3.09-3.16-7.41-4.8-11.82-4.5-4.41.3-8.46,2.53-11.09,6.08"/>
    <path class="cls-2" d="M43.9,228.63c-2.28,3.79-2.78,8.38-1.37,12.57,1.41,4.19,4.58,7.55,8.68,9.19"/>
    <path class="cls-2" d="M418.36,247.73c-3.14-5.2-6.51-10.24-10.11-15.13"/>
    <path class="cls-2" d="M411.99,208.78c.75-.54,1.44-1.14,2.09-1.8"/>
    <path class="cls-2" d="M30.7,333.36c3.97.65,8.04-.33,11.29-2.7s5.42-5.94,6.03-9.92"/>
    <path class="cls-2" d="M51.6,302.72c.96-3.91.33-8.04-1.77-11.47-2.1-3.43-5.48-5.89-9.4-6.81"/>
    <path class="cls-2" d="M37.5,283.47c-4.06-1.74-8.68-1.6-12.64.36-3.96,1.97-6.85,5.57-7.92,9.86"/>
    <path class="cls-2" d="M12.55,315.81c-.66,4.37.64,8.81,3.54,12.14,2.9,3.33,7.12,5.22,11.54,5.17"/>
    <path class="cls-2" d="M414.08,206.98c3.48-3.55,8.33-5.4,13.29-5.06,4.96.34,9.52,2.84,12.47,6.84"/>
    <path class="cls-2" d="M389.65,158.56c4,2.95,6.5,7.51,6.84,12.47s-1.51,9.82-5.06,13.29"/>
    <path class="cls-2" d="M40.43,417.62c3.92-.92,7.3-3.38,9.4-6.81,2.1-3.43,2.74-7.57,1.77-11.47"/>
    <path class="cls-2" d="M48.02,381.32c-.6-3.98-2.78-7.55-6.03-9.92-3.25-2.37-7.32-3.34-11.29-2.7"/>
    <path class="cls-2" d="M27.63,368.93c-4.42-.05-8.64,1.84-11.54,5.17-2.9,3.33-4.2,7.77-3.54,12.14"/>
    <path class="cls-2" d="M16.95,408.36c1.07,4.29,3.96,7.89,7.92,9.86,3.96,1.97,8.58,2.1,12.64.36"/>
    <line class="cls-2" x1="474.66" y1="354.8" x2="474.66" y2="347.26"/>
    <line class="cls-2" x1="461.09" y1="347.26" x2="461.09" y2="354.8"/>
    <line class="cls-2" x1="460.34" y1="354.8" x2="460.34" y2="347.26"/>
    <line class="cls-2" x1="475.41" y1="347.26" x2="475.41" y2="354.8"/>
    <path class="cls-2" d="M247.38,537.6c49.48,0,96.94-19.66,131.92-54.64,34.99-34.99,54.65-82.45,54.65-131.93,0-49.48-19.66-96.94-54.64-131.92-34.99-34.99-82.45-54.65-131.93-54.65"/>
    <path class="cls-2" d="M391.43,184.33c-.66.65-1.26,1.34-1.8,2.09"/>
    <path class="cls-2" d="M247.38,592.25c-63.98,0-125.33-25.41-170.57-70.65C31.57,476.36,6.15,415.01,6.15,351.03c0-63.98,25.41-125.33,70.65-170.57,45.24-45.24,106.6-70.66,170.58-70.66"/>
    <path class="cls-2" d="M247.38,109.8c63.98,0,125.33,25.41,170.57,70.65,45.24,45.24,70.66,106.6,70.66,170.58,0,63.98-25.41,125.33-70.65,170.57-45.24,45.24-106.6,70.66-170.58,70.66"/>
    <path class="cls-2" d="M586.11,351.03c0,20.36,0,40.71,0,60.78v59.05c0,19.18,0,37.74,0,55.41v50.07c0,15.63,0,30.1,0,43.21v82.01"/>
    <path class="cls-2" d="M586.11.5v82.01c0,13.11,0,27.59,0,43.21v50.05c0,17.67,0,36.26,0,55.43v59.01c0,20.07,0,40.46,0,60.82"/>
    <path class="cls-2" d="M34.42,341.61c-2.78,0-5.42,1.23-7.21,3.36-1.79,2.13-2.55,4.94-2.07,7.68s2.14,5.13,4.55,6.53c2.41,1.4,5.31,1.66,7.92.72"/>
    <path class="cls-2" d="M37.61,359.89c4.31-1.55,6.88-5.97,6.09-10.49-.79-4.51-4.7-7.8-9.28-7.8"/>
    <path class="cls-2" d="M54.24,260.83c-2.57-1.06-5.48-.94-7.95.34-2.47,1.28-4.25,3.59-4.85,6.31-.61,2.72.02,5.56,1.71,7.77,1.69,2.21,4.27,3.56,7.05,3.7"/>
    <path class="cls-2" d="M50.19,278.95c4.57.22,8.64-2.89,9.64-7.36,1-4.47-1.36-9.01-5.59-10.76"/>
    <path class="cls-2" d="M47.03,423.82c-2.57,1.06-4.54,3.21-5.38,5.86-.84,2.65-.46,5.54,1.03,7.89,1.49,2.35,3.94,3.92,6.7,4.29,2.76.37,5.54-.5,7.6-2.37"/>
    <path class="cls-2" d="M56.98,439.49c3.39-3.08,4.07-8.15,1.61-12.02s-7.33-5.41-11.56-3.66"/>
    <path class="cls-2" d="M90.13,494.95c-1.97,1.97-2.96,4.7-2.72,7.48.24,2.77,1.69,5.3,3.97,6.9,2.28,1.6,5.14,2.11,7.83,1.4,2.69-.71,4.93-2.58,6.11-5.1"/>
    <path class="cls-2" d="M157.18,544.17c-1.06,2.57-.94,5.48.34,7.95s3.59,4.25,6.31,4.85c2.72.61,5.56-.02,7.77-1.71,2.21-1.69,3.56-4.27,3.7-7.05"/>
    <path class="cls-2" d="M237.96,563.98c0,2.78,1.23,5.42,3.36,7.21,2.13,1.79,4.94,2.55,7.68,2.07,2.74-.48,5.13-2.14,6.53-4.55,1.4-2.41,1.66-5.31.72-7.93"/>
    <path class="cls-2" d="M320.17,551.38c1.06,2.57,3.21,4.54,5.86,5.38,2.65.84,5.54.46,7.89-1.03,2.35-1.49,3.92-3.94,4.29-6.7.37-2.76-.5-5.54-2.37-7.6"/>
    <path class="cls-2" d="M391.3,508.27c1.97,1.97,4.7,2.96,7.48,2.72s5.3-1.69,6.9-3.97c1.6-2.28,2.11-5.14,1.4-7.83-.71-2.69-2.58-4.93-5.1-6.11"/>
    <path class="cls-2" d="M440.52,441.23c2.57,1.07,5.48.94,7.95-.34s4.25-3.59,4.85-6.31c.61-2.72-.02-5.56-1.71-7.77-1.69-2.21-4.27-3.56-7.05-3.7"/>
    <path class="cls-2" d="M447.73,278.24c2.57-1.06,4.54-3.21,5.38-5.86.84-2.65.46-5.54-1.03-7.89-1.49-2.35-3.94-3.92-6.7-4.29-2.76-.37-5.54.5-7.6,2.37"/>
    <path class="cls-2" d="M404.63,207.11c1.97-1.97,2.96-4.7,2.72-7.48-.24-2.77-1.69-5.3-3.97-6.9s-5.14-2.11-7.83-1.4c-2.69.71-4.93,2.58-6.11,5.1"/>
    <path class="cls-2" d="M337.58,157.89c1.06-2.57.94-5.48-.34-7.95-1.28-2.47-3.59-4.25-6.31-4.85-2.72-.61-5.56.02-7.77,1.71-2.21,1.69-3.56,4.27-3.7,7.05"/>
    <path class="cls-2" d="M256.8,138.07c0-2.78-1.23-5.42-3.36-7.21-2.13-1.79-4.94-2.55-7.68-2.07s-5.13,2.14-6.53,4.55-1.66,5.31-.72,7.92"/>
    <path class="cls-2" d="M174.59,150.67c-1.06-2.57-3.21-4.54-5.86-5.38-2.65-.84-5.54-.46-7.89,1.03-2.35,1.49-3.92,3.94-4.29,6.7-.37,2.76.5,5.54,2.37,7.6"/>
    <path class="cls-2" d="M103.46,193.78c-1.97-1.97-4.7-2.96-7.48-2.72-2.77.24-5.3,1.69-6.9,3.97s-2.11,5.14-1.4,7.83c.71,2.69,2.58,4.93,5.1,6.11"/>
    <path class="cls-2" d="M247.38,539.49c-49.98,0-97.91-19.85-133.26-55.2-35.34-35.34-55.2-83.28-55.2-133.26,0-49.98,19.85-97.92,55.2-133.26,35.34-35.34,83.28-55.2,133.26-55.2"/>
    <path class="cls-2" d="M247.38,162.57c49.98,0,97.91,19.85,133.26,55.2,35.34,35.34,55.2,83.28,55.2,133.26,0,49.98-19.85,97.91-55.2,133.26-35.34,35.34-83.28,55.2-133.26,55.2"/>
    <path class="cls-2" d="M50.5,252.14c-4.61-1.85-8.18-5.63-9.76-10.34-1.58-4.71-1.02-9.88,1.55-14.14"/>
    <path class="cls-2" d="M76.4,247.73c-2.34,3.88-6.14,6.65-10.54,7.72s-9.05.32-12.9-2.06"/>
    <path class="cls-2" d="M82.77,208.78c3.67,2.65,6.14,6.65,6.84,11.13.7,4.47-.41,9.04-3.1,12.69"/>
    <path class="cls-2" d="M54.91,208.76c2.95-4,7.51-6.5,12.47-6.84,4.96-.34,9.82,1.51,13.29,5.06"/>
    <path class="cls-2" d="M103.33,184.33c-3.55-3.48-5.4-8.33-5.06-13.29.34-4.96,2.84-9.52,6.84-12.47"/>
    <path class="cls-2" d="M105.13,186.41c-.54-.75-1.13-1.44-1.8-2.09"/>
    <path class="cls-2" d="M124.01,145.93c4.26-2.56,9.43-3.13,14.14-1.55,4.71,1.58,8.49,5.15,10.34,9.76"/>
    <path class="cls-2" d="M217.37,153.53c-6.01.91-11.95,2.09-17.85,3.55"/>
    <path class="cls-2" d="M211.89,114.33c4.92-.74,9.91.72,13.66,3.98,3.75,3.26,5.88,8.01,5.82,12.98"/>
    <path class="cls-2" d="M408.25,232.59c-2.68-3.65-3.8-8.22-3.1-12.69.7-4.47,3.17-8.48,6.84-11.13"/>
    <path class="cls-2" d="M441.8,253.38c-3.85,2.38-8.5,3.12-12.9,2.06-4.4-1.06-8.2-3.84-10.54-7.72"/>
    <path class="cls-2" d="M441.33,303.17c-1.08-4.4-.37-9.04,1.99-12.91,2.36-3.86,6.17-6.62,10.58-7.66"/>
    <path class="cls-2" d="M464.37,335.21c-4.47.73-9.04-.37-12.7-3.03-3.66-2.67-6.1-6.69-6.78-11.16"/>
    <path class="cls-2" d="M467.11,335.01c-.92-.01-1.83.06-2.75.21"/>
    <path class="cls-2" d="M464.37,366.84c.91.15,1.82.22,2.75.21"/>
    <path class="cls-2" d="M444.88,381.03c.68-4.48,3.12-8.5,6.78-11.16,3.66-2.67,8.23-3.76,12.7-3.03"/>
    <path class="cls-2" d="M453.9,419.46c-4.41-1.04-8.22-3.8-10.58-7.66-2.36-3.86-3.08-8.51-1.99-12.91"/>
    <path class="cls-2" d="M418.36,454.33c2.34-3.88,6.14-6.65,10.54-7.72,4.4-1.06,9.05-.32,12.9,2.06"/>
    <path class="cls-2" d="M411.99,493.28c-3.67-2.65-6.14-6.65-6.84-11.13s.41-9.04,3.1-12.69"/>
    <path class="cls-2" d="M231.36,570.76c.06,4.97-2.07,9.71-5.82,12.98-3.75,3.26-8.74,4.72-13.66,3.98"/>
    <path class="cls-2" d="M199.52,544.98c5.9,1.46,11.84,2.64,17.85,3.55"/>
    <path class="cls-2" d="M148.49,547.9c-1.85,4.61-5.63,8.18-10.34,9.76-4.71,1.58-9.88,1.02-14.14-1.54"/>
    <path class="cls-2" d="M103.33,517.73c.66-.65,1.26-1.34,1.8-2.09"/>
    <path class="cls-2" d="M105.11,543.49c-4-2.95-6.5-7.51-6.84-12.47s1.51-9.82,5.06-13.29"/>
    <path class="cls-2" d="M80.68,495.08c-3.48,3.55-8.33,5.4-13.29,5.06-4.96-.34-9.52-2.84-12.47-6.84"/>
    <path class="cls-2" d="M86.51,469.46c2.68,3.65,3.8,8.22,3.1,12.69-.7,4.47-3.17,8.48-6.84,11.13"/>
    <path class="cls-2" d="M52.96,448.67c3.85-2.38,8.5-3.12,12.9-2.06s8.2,3.84,10.54,7.72"/>
    <path class="cls-2" d="M42.29,474.4c-2.56-4.26-3.13-9.43-1.54-14.14,1.58-4.71,5.15-8.49,9.76-10.34"/>
    <path class="cls-2" d="M38.24,420.32c-4.57,1.95-9.77,1.8-14.22-.41-4.45-2.21-7.71-6.27-8.91-11.09"/>
    <path class="cls-2" d="M53.43,398.89c1.08,4.4.37,9.04-1.99,12.91-2.36,3.86-6.17,6.62-10.58,7.66"/>
    <path class="cls-2" d="M30.39,366.84c4.47-.73,9.04.37,12.7,3.03,3.66,2.67,6.1,6.69,6.78,11.16"/>
    <path class="cls-2" d="M10.68,386.52c-.74-4.92.72-9.91,3.98-13.66,3.26-3.75,8.01-5.88,12.98-5.82"/>
    <path class="cls-2" d="M27.65,335.01c-4.97.06-9.71-2.07-12.98-5.82-3.26-3.75-4.72-8.74-3.98-13.66"/>
    <path class="cls-2" d="M49.88,321.02c-.68,4.48-3.12,8.5-6.78,11.16-3.66,2.67-8.23,3.76-12.7,3.03"/>
    <path class="cls-2" d="M40.86,282.6c4.41,1.04,8.22,3.8,10.58,7.66,2.36,3.86,3.08,8.51,1.99,12.91"/>
    <path class="cls-2" d="M15.12,293.24c1.2-4.82,4.46-8.88,8.91-11.09,4.45-2.21,9.65-2.36,14.22-.41"/>
    <path class="cls-2" d="M126.95,555.5c-.56-.49-1.12-.99-1.68-1.49"/>
    <path class="cls-2" d="M389.63,186.41c-2.65,3.67-6.65,6.14-11.13,6.84s-9.04-.41-12.69-3.1"/>
    <path class="cls-2" d="M125.28,148.04s.05-.04.07-.06c.54-.48,1.07-.96,1.61-1.43"/>
    <path class="cls-2" d="M130.23,143.69c.73-.63,1.47-1.26,2.2-1.89.78-.66,1.55-1.32,2.32-1.97"/>
    <path class="cls-2" d="M318.14,114.5s0,0,0,0"/>
    <path class="cls-2" d="M467.35,238.95s0,0,0,0"/>
    <path class="cls-2" d="M.5,351.01c.05-4.62.08-5.88.1-7.04"/>
    <path class="cls-2" d="M.61,343.75c.04-1.11.08-2.23.12-3.34"/>
    <path class="cls-2" d="M492.9,325.18s0,0,0,0"/>
    <path class="cls-2" d="M51.26,407.74c.1.36.2.71.3,1.06"/>
    <path class="cls-2" d="M43.49,348.47c-.01.85-.02,1.71-.02,2.55"/>
    <path class="cls-2" d="M413.62,266.32s0,0,0,0"/>
    <path class="cls-2" d="M365.81,190.16c-4.9-3.6-9.93-6.97-15.13-10.11"/>
    <path class="cls-2" d="M350.68,180.04c-3.88-2.34-6.65-6.14-7.72-10.54s-.32-9.05,2.06-12.9"/>
    <path class="cls-2" d="M345.02,156.61c.49-.79.9-1.6,1.24-2.46"/>
    <path class="cls-2" d="M346.27,154.15c1.85-4.61,5.63-8.18,10.34-9.76,4.71-1.58,9.88-1.02,14.14,1.55"/>
    <path class="cls-2" d="M305.17,118.77c4.82,1.2,8.88,4.46,11.09,8.91,2.21,4.45,2.36,9.65.41,14.22"/>
    <path class="cls-2" d="M316.67,141.89c-.36.85-.65,1.72-.86,2.62"/>
    <path class="cls-2" d="M315.81,144.51c-1.04,4.41-3.8,8.22-7.66,10.58-3.86,2.36-8.51,3.08-12.91,1.99"/>
    <path class="cls-2" d="M295.24,157.08c-5.9-1.46-11.84-2.64-17.85-3.55"/>
    <path class="cls-2" d="M277.39,153.53c-4.48-.68-8.5-3.12-11.16-6.78-2.67-3.66-3.76-8.23-3.03-12.7"/>
    <path class="cls-2" d="M263.19,134.04c.15-.91.22-1.82.21-2.75"/>
    <path class="cls-2" d="M263.4,131.29c-.06-4.97,2.07-9.71,5.82-12.98,3.75-3.26,8.74-4.72,13.66-3.98"/>
    <path class="cls-2" d="M231.36,131.29c-.01.92.06,1.83.21,2.75"/>
    <path class="cls-2" d="M231.57,134.04c.73,4.47-.37,9.04-3.03,12.7-2.67,3.66-6.69,6.1-11.16,6.78"/>
    <path class="cls-2" d="M199.52,157.08c-4.4,1.08-9.04.37-12.91-1.99-3.86-2.36-6.62-6.17-7.66-10.58"/>
    <path class="cls-2" d="M178.95,144.51c-.21-.9-.5-1.77-.86-2.62"/>
    <path class="cls-2" d="M178.09,141.89c-1.95-4.57-1.8-9.77.41-14.22,2.21-4.45,6.27-7.71,11.09-8.91"/>
    <path class="cls-2" d="M148.49,154.15c.34.86.76,1.67,1.24,2.46"/>
    <path class="cls-2" d="M149.73,156.61c2.38,3.85,3.12,8.5,2.06,12.9-1.06,4.4-3.84,8.2-7.72,10.54"/>
    <path class="cls-2" d="M144.08,180.05c-5.2,3.14-10.24,6.51-15.13,10.11"/>
    <path class="cls-2" d="M128.94,190.16c-3.65,2.68-8.22,3.8-12.69,3.1-4.47-.7-8.48-3.17-11.13-6.84"/>
    <path class="cls-2" d="M80.68,206.98c.65.66,1.34,1.26,2.09,1.8"/>
    <path class="cls-2" d="M86.51,232.59c-3.6,4.9-6.97,9.93-10.11,15.13"/>
    <path class="cls-2" d="M52.96,253.38c-.79-.49-1.6-.9-2.46-1.24"/>
    <path class="cls-2" d="M92.78,208.97c4.14,1.95,9.09.64,11.72-3.11,2.63-3.75,2.19-8.84-1.05-12.08"/>
    <path class="cls-2" d="M158.91,160.62c3.08,3.39,8.15,4.07,12.02,1.61s5.41-7.33,3.66-11.56"/>
    <path class="cls-2" d="M238.51,141.26c1.55,4.31,5.97,6.88,10.49,6.09s7.8-4.7,7.8-9.28"/>
    <path class="cls-2" d="M319.46,153.84c-.22,4.57,2.89,8.64,7.36,9.64,4.47,1,9.01-1.36,10.76-5.59"/>
    <path class="cls-2" d="M389.44,196.43c-1.95,4.14-.64,9.09,3.11,11.72,3.75,2.63,8.84,2.19,12.08-1.05"/>
    <path class="cls-2" d="M437.79,262.56c-3.39,3.08-4.07,8.15-1.61,12.02s7.33,5.41,11.56,3.66"/>
    <path class="cls-2" d="M444.57,423.11c-4.57-.22-8.64,2.89-9.64,7.36-1,4.47,1.36,9.01,5.59,10.76"/>
    <path class="cls-2" d="M401.98,493.08c-4.14-1.95-9.09-.64-11.72,3.11-2.63,3.75-2.19,8.84,1.05,12.08"/>
    <path class="cls-2" d="M335.85,541.43c-3.08-3.39-8.15-4.07-12.02-1.61s-5.41,7.33-3.66,11.56"/>
    <path class="cls-2" d="M256.25,560.79c-1.55-4.31-5.97-6.88-10.49-6.09-4.51.79-7.8,4.7-7.8,9.28"/>
    <path class="cls-2" d="M175.3,548.22c.22-4.57-2.89-8.64-7.36-9.64-4.47-1-9.01,1.36-10.76,5.59"/>
    <path class="cls-2" d="M105.32,505.62c1.95-4.14.64-9.09-3.11-11.72-3.75-2.63-8.84-2.19-12.08,1.05"/>
    <path class="cls-2" d="M51.57,293.22c-.1.36-.21.73-.31,1.09"/>
    <path class="cls-2" d="M43.48,351.03c0,.85,0,1.71.02,2.56"/>
    <path class="cls-2" d="M475.41,354.8c0,2.08-1.69,3.77-3.77,3.77"/>
    <path class="cls-2" d="M471.65,343.49c2.08,0,3.77,1.69,3.77,3.77"/>
    <line class="cls-2" x1="464.11" y1="343.49" x2="471.65" y2="343.49"/>
    <path class="cls-2" d="M460.34,347.26c0-2.08,1.69-3.77,3.77-3.77"/>
    <path class="cls-2" d="M464.11,358.56c-2.08,0-3.77-1.69-3.77-3.77"/>
    <line class="cls-2" x1="471.65" y1="358.56" x2="464.11" y2="358.56"/>
    <path class="cls-2" d="M461.09,354.8c0,1.67,1.35,3.02,3.02,3.02"/>
    <line class="cls-2" x1="464.11" y1="357.81" x2="471.65" y2="357.81"/>
    <path class="cls-2" d="M471.65,357.81c1.67,0,3.02-1.35,3.02-3.02"/>
    <path class="cls-2" d="M474.66,347.26c0-1.67-1.35-3.02-3.02-3.02"/>
    <line class="cls-2" x1="471.65" y1="344.24" x2="464.11" y2="344.24"/>
    <path class="cls-2" d="M464.11,344.24c-1.67,0-3.02,1.35-3.02,3.02"/>
    <line class="cls-2" x1="165.89" y1="547.77" x2="157.18" y2="544.17"/>
    <line class="cls-2" x1="328.88" y1="547.77" x2="320.17" y2="551.38"/>
    <line class="cls-2" x1="444.13" y1="432.52" x2="440.52" y2="441.23"/>
    <path class="cls-2" d="M12.55,386.24c1.12,7.45,2.58,14.81,4.4,22.12"/>
    <path class="cls-2" d="M30.7,368.7c-1.02.17-2.04.24-3.07.23"/>
    <path class="cls-2" d="M51.6,399.34c-1.47-5.96-2.66-11.95-3.58-18.02"/>
    <path class="cls-2" d="M37.5,418.58c.95-.41,1.92-.72,2.92-.96"/>
    <path class="cls-2" d="M16.95,293.7c-1.82,7.31-3.28,14.67-4.4,22.12"/>
    <path class="cls-2" d="M40.43,284.43c-1.01-.24-1.97-.56-2.92-.96"/>
    <path class="cls-2" d="M48.02,320.74c.92-6.07,2.11-12.06,3.58-18.02"/>
    <path class="cls-2" d="M27.63,333.13c1.03-.01,2.05.06,3.07.23"/>
    <path class="cls-2" d="M56.43,209.88c-4.48,6.06-8.65,12.3-12.53,18.75"/>
    <path class="cls-2" d="M81.66,210.31c-.84-.6-1.61-1.27-2.33-2.01"/>
    <path class="cls-2" d="M74.78,246.75c3.17-5.25,6.57-10.33,10.21-15.28"/>
    <path class="cls-2" d="M51.2,250.39c.96.38,1.87.84,2.75,1.39"/>
    <path class="cls-2" d="M124.98,147.55c-6.46,3.88-12.69,8.05-18.75,12.53"/>
    <path class="cls-2" d="M148.13,157.6c-.54-.88-1-1.79-1.39-2.75"/>
    <path class="cls-2" d="M143.1,178.43c3.45-2.08,5.92-5.45,6.86-9.37.94-3.91.29-8.04-1.83-11.46"/>
    <path class="cls-2" d="M127.83,188.64c4.94-3.64,10.02-7.03,15.28-10.21"/>
    <path class="cls-2" d="M106.66,185.31c2.35,3.27,5.91,5.45,9.89,6.08,3.98.62,8.04-.37,11.28-2.75"/>
    <path class="cls-2" d="M190.05,120.6c-4.29,1.07-7.89,3.96-9.86,7.92-1.97,3.96-2.1,8.58-.36,12.64"/>
    <path class="cls-2" d="M229.71,134.34c-.17-1.02-.24-2.04-.23-3.07"/>
    <path class="cls-2" d="M217.09,151.67c3.98-.6,7.55-2.78,9.92-6.03,2.37-3.25,3.34-7.32,2.7-11.29"/>
    <path class="cls-2" d="M180.78,144.07c.92,3.92,3.38,7.3,6.81,9.4,3.43,2.1,7.57,2.74,11.47,1.77"/>
    <path class="cls-2" d="M179.82,141.15c.41.95.72,1.92.96,2.92"/>
    <path class="cls-2" d="M282.59,116.2c-4.37-.66-8.81.64-12.14,3.54-3.33,2.9-5.22,7.12-5.17,11.54"/>
    <path class="cls-2" d="M304.71,120.6c-7.31-1.82-14.67-3.28-22.12-4.4"/>
    <path class="cls-2" d="M314.94,141.15c1.74-4.06,1.6-8.68-.36-12.64s-5.57-6.85-9.86-7.92"/>
    <path class="cls-2" d="M313.97,144.07c.24-1.01.56-1.97.96-2.92"/>
    <path class="cls-2" d="M295.69,155.25c3.91.96,8.04.33,11.47-1.77s5.89-5.48,6.81-9.4"/>
    <path class="cls-2" d="M277.67,151.66c6.07.92,12.06,2.11,18.02,3.58"/>
    <path class="cls-2" d="M265.05,134.34c-.64,3.97.33,8.04,2.7,11.29,2.37,3.25,5.94,5.42,9.92,6.03"/>
    <path class="cls-2" d="M265.28,131.27c.01,1.03-.06,2.05-.23,3.07"/>
    <path class="cls-2" d="M369.78,147.55c-3.79-2.28-8.38-2.78-12.57-1.37-4.19,1.41-7.55,4.58-9.19,8.68"/>
    <path class="cls-2" d="M388.53,160.08c-6.06-4.48-12.3-8.65-18.75-12.53"/>
    <path class="cls-2" d="M390.11,182.98c3.16-3.09,4.8-7.41,4.5-11.82-.3-4.41-2.53-8.46-6.08-11.09"/>
    <path class="cls-2" d="M388.1,185.31c.6-.84,1.27-1.61,2.01-2.33"/>
    <path class="cls-2" d="M366.93,188.64c3.24,2.39,7.3,3.38,11.28,2.75s7.54-2.81,9.89-6.08"/>
    <path class="cls-2" d="M351.66,178.43c5.25,3.17,10.33,6.57,15.28,10.21"/>
    <path class="cls-2" d="M346.63,157.6c-2.12,3.42-2.78,7.55-1.83,11.46.94,3.91,3.41,7.29,6.86,9.37"/>
    <path class="cls-2" d="M348.02,154.85c-.38.96-.84,1.87-1.39,2.75"/>
    <path class="cls-2" d="M438.33,209.88c-2.63-3.55-6.68-5.78-11.09-6.08-4.41-.3-8.73,1.34-11.82,4.5"/>
    <path class="cls-2" d="M450.86,228.63c-3.88-6.46-8.05-12.69-12.53-18.75"/>
    <path class="cls-2" d="M443.55,250.39c4.1-1.65,7.27-5.01,8.68-9.19,1.41-4.19.9-8.78-1.37-12.57"/>
    <path class="cls-2" d="M440.81,251.78c.88-.54,1.79-1,2.75-1.39"/>
    <path class="cls-2" d="M419.98,246.75c2.08,3.45,5.45,5.92,9.37,6.86,3.91.94,8.04.29,11.46-1.83"/>
    <path class="cls-2" d="M409.77,231.47c3.64,4.94,7.03,10.02,10.21,15.28"/>
    <path class="cls-2" d="M413.09,210.3c-3.27,2.35-5.45,5.91-6.08,9.89-.62,3.98.37,8.04,2.75,11.28"/>
    <path class="cls-2" d="M415.43,208.3c-.72.74-1.49,1.4-2.33,2.01"/>
    <path class="cls-2" d="M477.81,293.69c-1.07-4.29-3.96-7.89-7.92-9.86-3.96-1.97-8.58-2.1-12.64-.36"/>
    <path class="cls-2" d="M482.21,315.81c-1.12-7.45-2.58-14.81-4.4-22.12"/>
    <path class="cls-2" d="M467.13,333.12c4.42.05,8.64-1.84,11.54-5.17,2.9-3.33,4.2-7.77,3.54-12.14"/>
    <path class="cls-2" d="M464.06,333.35c1.02-.17,2.04-.24,3.07-.23"/>
    <path class="cls-2" d="M443.16,302.72c1.47,5.96,2.66,11.95,3.58,18.02"/>
    <path class="cls-2" d="M457.26,283.47c-.95.41-1.92.72-2.92.96"/>
    <path class="cls-2" d="M482.21,386.24c.66-4.37-.64-8.81-3.54-12.14-2.9-3.33-7.12-5.22-11.54-5.17"/>
    <path class="cls-2" d="M477.81,408.36c1.82-7.31,3.28-14.67,4.4-22.12"/>
    <path class="cls-2" d="M457.26,418.58c4.06,1.74,8.68,1.6,12.64-.36,3.96-1.97,6.85-5.57,7.92-9.86"/>
    <path class="cls-2" d="M454.33,417.62c1.01.24,1.97.56,2.92.96"/>
    <path class="cls-2" d="M446.74,381.32c-.92,6.07-2.11,12.06-3.58,18.02"/>
    <path class="cls-2" d="M467.13,368.93c-1.03.01-2.05-.06-3.07-.23"/>
    <path class="cls-2" d="M450.86,473.43c2.28-3.79,2.78-8.38,1.37-12.57-1.41-4.19-4.58-7.55-8.68-9.19"/>
    <path class="cls-2" d="M438.33,492.18c4.48-6.06,8.65-12.3,12.53-18.75"/>
    <path class="cls-2" d="M415.43,493.76c3.09,3.16,7.41,4.8,11.82,4.5,4.41-.3,8.46-2.53,11.09-6.08"/>
    <path class="cls-2" d="M413.1,491.75c.84.6,1.61,1.27,2.33,2.01"/>
    <path class="cls-2" d="M409.77,470.58c-2.39,3.24-3.38,7.3-2.75,11.28s2.81,7.54,6.08,9.89"/>
    <path class="cls-2" d="M419.98,455.3c-3.17,5.25-6.57,10.33-10.21,15.28"/>
    <path class="cls-2" d="M440.81,450.27c-3.42-2.12-7.55-2.78-11.46-1.83-3.91.94-7.29,3.41-9.37,6.86"/>
    <path class="cls-2" d="M443.56,451.66c-.96-.38-1.87-.84-2.75-1.39"/>
    <path class="cls-2" d="M388.53,541.98c3.55-2.63,5.78-6.68,6.08-11.09.3-4.41-1.34-8.73-4.5-11.82"/>
    <path class="cls-2" d="M369.78,554.51c6.46-3.88,12.69-8.05,18.75-12.53"/>
    <path class="cls-2" d="M348.02,547.2c1.65,4.1,5.01,7.27,9.19,8.68,4.19,1.41,8.78.9,12.57-1.37"/>
    <path class="cls-2" d="M346.63,544.45c.54.88,1,1.79,1.39,2.75"/>
    <path class="cls-2" d="M351.66,523.62c-3.45,2.08-5.92,5.45-6.86,9.37-.94,3.91-.29,8.04,1.83,11.46"/>
    <path class="cls-2" d="M366.93,513.42c-4.94,3.64-10.02,7.03-15.28,10.21"/>
    <path class="cls-2" d="M388.1,516.74c-2.35-3.27-5.91-5.45-9.89-6.08-3.98-.62-8.04.37-11.28,2.75"/>
    <path class="cls-2" d="M390.11,519.08c-.74-.72-1.4-1.49-2.01-2.33"/>
    <path class="cls-2" d="M304.71,581.46c4.29-1.07,7.89-3.96,9.86-7.92,1.97-3.96,2.1-8.58.36-12.64"/>
    <path class="cls-2" d="M282.59,585.86c7.45-1.12,14.81-2.58,22.12-4.4"/>
    <path class="cls-2" d="M265.28,570.78c-.05,4.42,1.84,8.64,5.17,11.54,3.33,2.9,7.77,4.2,12.14,3.54"/>
    <path class="cls-2" d="M265.05,567.71c.17,1.02.24,2.04.23,3.07"/>
    <path class="cls-2" d="M277.67,550.39c-3.98.6-7.55,2.78-9.92,6.03-2.37,3.25-3.34,7.32-2.7,11.29"/>
    <path class="cls-2" d="M295.69,546.81c-5.96,1.47-11.95,2.66-18.02,3.58"/>
    <path class="cls-2" d="M313.98,557.98c-.92-3.92-3.38-7.3-6.81-9.4-3.43-2.1-7.57-2.74-11.47-1.77"/>
    <path class="cls-2" d="M314.94,560.9c-.41-.95-.72-1.92-.96-2.92"/>
    <path class="cls-2" d="M179.82,560.9c-1.74,4.06-1.6,8.68.36,12.64,1.97,3.96,5.57,6.85,9.86,7.92"/>
    <path class="cls-2" d="M180.79,557.98c-.24,1.01-.56,1.97-.96,2.92"/>
    <path class="cls-2" d="M199.07,546.81c-3.91-.96-8.04-.33-11.47,1.77-3.43,2.1-5.89,5.48-6.81,9.4"/>
    <path class="cls-2" d="M229.71,567.71c.64-3.97-.33-8.04-2.7-11.29-2.37-3.25-5.94-5.42-9.92-6.03"/>
    <path class="cls-2" d="M229.48,570.78c-.01-1.03.06-2.05.23-3.07"/>
    <path class="cls-2" d="M106.23,541.98c6.06,4.48,12.3,8.65,18.75,12.53"/>
    <path class="cls-2" d="M127.83,513.42c-3.24-2.39-7.3-3.38-11.28-2.75s-7.54,2.81-9.89,6.08"/>
    <path class="cls-2" d="M143.1,523.62c-5.25-3.17-10.33-6.57-15.28-10.21"/>
    <path class="cls-2" d="M148.13,544.45c2.12-3.42,2.78-7.55,1.83-11.46-.94-3.91-3.41-7.29-6.86-9.37"/>
    <path class="cls-2" d="M146.75,547.2c.38-.96.84-1.87,1.39-2.75"/>
    <path class="cls-2" d="M43.9,473.43c3.88,6.46,8.05,12.69,12.53,18.75"/>
    <path class="cls-2" d="M53.95,450.28c-.88.54-1.79,1-2.75,1.39"/>
    <path class="cls-2" d="M84.99,470.58c-3.64-4.94-7.03-10.02-10.21-15.28"/>
    <path class="cls-2" d="M79.33,493.76c.72-.74,1.49-1.4,2.33-2.01"/>
    <path class="cls-2" d="M38.24,281.74c.85.36,1.72.65,2.62.86"/>
    <path class="cls-2" d="M585.13,1.06c-13.27,0-26.53,0-39.8.13-13.34.13-26.63.4-39.96.89-13.56.5-27.11,1.24-40.64,2.3-13.94,1.09-27.85,2.52-41.71,4.36-14.48,1.92-28.93,4.27-43.25,7.09-14.97,2.95-29.79,6.4-44.42,10.35-8.9,2.41-17.69,4.99-26.39,7.74-6.18,1.96-12.29,4-18.36,6.13-15.11,5.3-29.67,11.05-43.81,17.25-10.38,4.55-20.39,9.28-30.05,14.16-3.77,1.91-7.49,3.83-11.14,5.77-13.32,7.08-25.77,14.35-37.22,21.56-6.86,4.32-13.39,8.64-19.54,12.88-4.4,3.04-8.63,6.04-12.65,8.98-9.94,7.28-18.95,14.41-26.65,20.85-4.67,3.91-9.04,7.72-13.02,11.3-2.82,2.54-5.49,5-7.92,7.3-3,2.83-5.85,5.6-8.41,8.15-2.59,2.58-5.01,5.06-7,7.14-2,2.09-3.93,4.16-5.48,5.84-1.54,1.68-2.91,3.2-3.4,3.74-.19.21-.33.37-.4.45"/>
  </g>
  <g id="Make2D::_::_-2" data-name="Make2D::???::???">
    <path class="cls-2" d="M279.93,565.3c-.38-2.48-.76-4.97-1.13-7.45-.19-1.24-.38-2.49-.57-3.73-.09-.62-.19-1.24-.28-1.86-.07-.47-.14-.95-.22-1.42-.02-.11-.03-.22-.05-.33,0-.04-.02-.07-.02-.11"/>
    <path class="cls-2" d="M388.53,541.98s0,0,0,0c0,0,0-.01-.01-.02l-.05-.07c-.07-.09-.13-.18-.2-.27-.29-.39-.57-.77-.85-1.16-.37-.5-.75-1.01-1.12-1.52l-2.24-3.03c-1.49-2.02-2.99-4.04-4.48-6.06"/>
    <path class="cls-2" d="M362.01,541.59c1.3,2.15,2.59,4.31,3.89,6.46.65,1.08,1.3,2.15,1.94,3.23.32.54.65,1.08.97,1.62.25.41.49.82.74,1.23.06.1.12.19.17.29.01.02.03.05.04.07,0,0,0,.01.01.02,0,0,0,0,0,0"/>
    <path class="cls-2" d="M390.11,519.08s-.01.01-.02.02c-.02.02-.04.04-.06.06-.08.08-.16.16-.24.24-.33.34-.67.69-1.01,1.03-.44.45-.88.9-1.32,1.35-.88.9-1.76,1.8-2.63,2.69-1.76,1.8-3.51,3.59-5.27,5.39"/>
    <path class="cls-2" d="M362.01,541.59c-2.33.94-4.66,1.87-7,2.81-1.17.47-2.33.94-3.5,1.4-.58.23-1.17.47-1.75.7l-1.33.53c-.1.04-.21.08-.31.13-.02,0-.05.02-.08.03,0,0-.02,0-.02,0"/>
    <path class="cls-2" d="M388.1,516.74s-.06.04-.09.06l-.27.2c-.39.28-.78.56-1.17.84-.51.37-1.02.73-1.53,1.1-1.02.73-2.04,1.47-3.06,2.2-2.04,1.47-4.08,2.94-6.12,4.41"/>
    <path class="cls-2" d="M359.45,536.53l-6.41,3.96c-1.07.66-2.14,1.32-3.21,1.98-.53.33-1.07.66-1.6.99-.41.25-.81.5-1.22.76-.1.06-.19.12-.29.18-.02.01-.05.03-.07.04,0,0-.04.02-.02.01"/>
    <path class="cls-2" d="M366.93,513.42s0,0,0,0c0,0,0,.01.01.02l.05.07c.07.09.13.18.2.27.28.39.57.77.85,1.16.37.51.74,1.01,1.12,1.52.75,1.01,1.49,2.02,2.23,3.03,1.49,2.02,2.98,4.05,4.47,6.07"/>
    <path class="cls-2" d="M359.45,536.53c-1.3-2.15-2.6-4.3-3.9-6.45l-1.95-3.23c-.32-.54-.65-1.08-.97-1.61-.25-.41-.5-.82-.74-1.23-.06-.1-.12-.19-.17-.29-.01-.02-.03-.05-.04-.07,0,0,0-.01-.01-.02,0,0,0,0,0,0"/>
    <path class="cls-2" d="M12.55,315.81s0,0,0,0c0,0,.01,0,.02,0,.03,0,.05,0,.08.01.11.02.22.03.33.05.47.07.95.14,1.42.21.62.09,1.24.19,1.86.28,1.24.19,2.48.37,3.73.56,2.49.37,4.97.75,7.46,1.12"/>
    <path class="cls-2" d="M31.58,297.34l-7.32-1.82c-1.22-.3-2.44-.61-3.66-.91-.61-.15-1.22-.3-1.83-.46-.46-.12-.93-.23-1.39-.35-.11-.03-.22-.05-.33-.08-.03,0-.05-.01-.08-.02,0,0-.04-.01-.03,0"/>
    <path class="cls-2" d="M30.7,333.36c.02-.15.05-.29.07-.44.08-.47.15-.95.23-1.42.1-.62.2-1.24.3-1.86l.6-3.72c.4-2.48.81-4.96,1.21-7.44"/>
    <path class="cls-2" d="M36.96,299.11l1.73-7.34c.29-1.22.58-2.45.87-3.67l.43-1.83c.11-.47.22-.93.33-1.4.03-.11.05-.22.08-.33,0-.03.01-.05.02-.08,0,0,0-.01,0-.02,0,0,0,0,0,0"/>
    <path class="cls-2" d="M51.2,250.39s0,0,0,0c0,0,0-.01,0-.02.01-.03.02-.05.03-.08l.13-.31c.18-.44.36-.89.54-1.33.23-.58.47-1.17.7-1.75.47-1.17.94-2.33,1.4-3.5.94-2.33,1.87-4.67,2.81-7"/>
    <path class="cls-2" d="M68.55,218.84l5.39-5.27c.9-.88,1.8-1.76,2.7-2.64.45-.44.9-.88,1.35-1.32.34-.33.68-.67,1.03-1,.08-.08.16-.16.24-.24.02-.02.04-.04.06-.06,0,0,.02,0,.02-.02"/>
    <path class="cls-2" d="M53.95,251.78s0-.01.01-.02c.01-.02.03-.05.04-.07.06-.1.12-.19.18-.29.25-.41.5-.82.76-1.22.33-.53.66-1.07.99-1.6l1.98-3.21c1.32-2.14,2.64-4.28,3.96-6.41"/>
    <path class="cls-2" d="M72.85,222.54c1.47-2.04,2.94-4.08,4.41-6.12.73-1.02,1.47-2.04,2.2-3.06.37-.51.73-1.02,1.1-1.53.28-.39.56-.78.84-1.17.07-.09.13-.18.2-.27.02-.02.03-.04.05-.07,0,0,.02-.04.02-.02"/>
    <path class="cls-2" d="M409.77,470.58s0,0,0,0h.02s.04.04.07.06l.27.2c.39.28.77.57,1.16.85.51.37,1.01.75,1.52,1.12,1.01.74,2.02,1.49,3.04,2.23,2.02,1.49,4.05,2.98,6.07,4.47"/>
    <path class="cls-2" d="M432.88,463.1c-2.15-1.3-4.3-2.6-6.45-3.9-1.08-.65-2.15-1.3-3.23-1.95l-1.61-.97c-.41-.25-.82-.49-1.23-.74-.1-.06-.19-.12-.29-.17-.02-.01-.05-.03-.07-.04,0,0-.01,0-.02-.01,0,0,0,0,0,0"/>
    <path class="cls-2" d="M413.1,491.75s0,0,0,0v-.02s.04-.04.06-.07c.07-.09.13-.18.2-.28.28-.39.56-.78.84-1.17.37-.51.73-1.02,1.1-1.53.73-1.02,1.47-2.04,2.2-3.06,1.47-2.04,2.94-4.08,4.41-6.12"/>
    <path class="cls-2" d="M432.88,463.1c1.32-2.14,2.64-4.28,3.96-6.41.66-1.07,1.32-2.14,1.98-3.21.33-.53.66-1.07.99-1.6.25-.41.5-.81.76-1.22.06-.1.12-.19.18-.29.01-.02.03-.05.04-.07,0,0,.03-.03.01-.02"/>
    <path class="cls-2" d="M415.43,493.76s0,0,0,0c0,0,0,0,.01-.01.02-.02.04-.04.06-.06.08-.08.16-.16.24-.24.34-.33.69-.67,1.03-1.01.45-.44.9-.88,1.35-1.32.9-.88,1.8-1.76,2.69-2.63,1.8-1.76,3.59-3.51,5.39-5.27"/>
    <path class="cls-2" d="M437.94,465.65c.94-2.33,1.87-4.67,2.81-7,.47-1.17.94-2.33,1.4-3.5.23-.58.47-1.17.7-1.75.18-.44.36-.89.53-1.33.04-.1.08-.21.13-.31,0-.02.02-.05.03-.08,0,0,0-.01,0-.02,0,0,0,0,0,0"/>
    <path class="cls-2" d="M438.33,492.18s-.02-.01-.02-.02l-.07-.05c-.09-.07-.18-.13-.27-.2-.39-.28-.77-.57-1.16-.85-.51-.37-1.01-.75-1.52-1.12-1.01-.75-2.02-1.49-3.03-2.24-2.02-1.49-4.04-2.99-6.06-4.48"/>
    <path class="cls-2" d="M437.94,465.65c2.15,1.3,4.31,2.59,6.46,3.89,1.08.65,2.15,1.3,3.23,1.94.54.32,1.08.65,1.62.97.41.25.82.49,1.23.74.1.06.19.12.29.17.03.02.07.03.09.06"/>
    <path class="cls-2" d="M454.33,417.62s0-.02,0-.03c0-.03.01-.05.02-.08.03-.11.05-.22.08-.33.11-.47.22-.93.33-1.4l.43-1.83c.29-1.22.58-2.45.87-3.67.58-2.45,1.15-4.89,1.73-7.34"/>
    <path class="cls-2" d="M461.65,383.58c.4-2.48.81-4.96,1.21-7.44.2-1.24.4-2.48.6-3.72.1-.62.2-1.24.3-1.86.08-.47.15-.95.23-1.42.02-.11.04-.22.05-.33,0-.03,0-.05.01-.08,0,0,0-.02,0-.03"/>
    <path class="cls-2" d="M457.26,418.58s0-.02.01-.02c.01-.02.02-.05.03-.07.04-.1.09-.21.13-.31.19-.44.38-.88.57-1.32.25-.58.49-1.16.74-1.73.49-1.16.99-2.31,1.48-3.47.99-2.31,1.98-4.62,2.96-6.93"/>
    <path class="cls-2" d="M295.69,546.81s0,0,0,0c0,0,0,.01,0,.02,0,.03.01.05.02.08.03.11.05.22.08.33l.34,1.4c.15.61.3,1.22.45,1.83.3,1.22.6,2.44.9,3.66.6,2.44,1.2,4.88,1.81,7.32"/>
    <path class="cls-2" d="M477.81,408.36s0,0,0,0c0,0-.01,0-.02,0-.03,0-.05-.01-.08-.02-.11-.03-.22-.05-.33-.08-.46-.12-.93-.23-1.4-.35-.61-.15-1.22-.3-1.83-.46-1.22-.3-2.44-.61-3.66-.91-2.44-.61-4.88-1.21-7.32-1.82"/>
    <path class="cls-2" d="M467.3,384c2.49.37,4.97.75,7.46,1.12,1.24.19,2.49.37,3.73.56.62.09,1.24.19,1.86.28.47.07.95.14,1.42.21l.33.05h.08s.01.01.02.01c0,0,0,0,0,0"/>
    <path class="cls-2" d="M449.85,301.07c-.86-2.45-1.43-5.16-1.44-7.77"/>
    <path class="cls-2" d="M452.22,285.1c-1.56.62-2.52,2.03-3.07,3.49-.56,1.48-.75,3.15-.74,4.71"/>
    <path class="cls-2" d="M449.85,301.07c2.65-.65,5.3-1.31,7.94-1.96"/>
    <path class="cls-2" d="M457.8,299.11l-1.73-7.34c-.29-1.22-.58-2.45-.87-3.67l-.43-1.83c-.11-.47-.22-.93-.33-1.4-.03-.11-.05-.22-.08-.33,0-.03-.01-.05-.02-.08,0,0,0-.01,0-.02,0,0,0,0,0,0"/>
    <path class="cls-2" d="M463.18,297.33c-.99-2.31-1.98-4.62-2.96-6.93-.49-1.16-.99-2.31-1.48-3.47-.25-.58-.49-1.16-.74-1.73-.19-.44-.38-.88-.56-1.32-.04-.1-.09-.21-.13-.31-.01-.03-.03-.06-.04-.1"/>
    <path class="cls-2" d="M464.06,333.35s0,0,0,0v-.02s-.01-.05-.02-.08c-.02-.11-.04-.22-.05-.33-.08-.47-.15-.95-.23-1.42-.1-.62-.2-1.24-.3-1.86-.2-1.24-.4-2.48-.6-3.72-.4-2.48-.81-4.96-1.21-7.44"/>
    <path class="cls-2" d="M463.18,297.33l7.32-1.82c1.22-.3,2.44-.61,3.66-.91l1.83-.46c.46-.12.93-.23,1.39-.35.11-.03.22-.05.33-.08.03,0,.05-.01.08-.02,0,0,.01,0,.03,0"/>
    <path class="cls-2" d="M467.13,333.12s0-.07,0-.11c0-.11,0-.23,0-.34l.02-1.44c0-.63.01-1.26.02-1.88.01-1.26.03-2.51.04-3.77.03-2.51.06-5.03.08-7.54"/>
    <path class="cls-2" d="M467.3,318.05c2.49-.37,4.97-.75,7.46-1.12,1.24-.19,2.49-.37,3.73-.56.62-.09,1.24-.19,1.86-.28.62-.09,1.24-.18,1.86-.28"/>
    <path class="cls-2" d="M413.36,228.83c-1.29-2.48-2.11-5.28-2.34-8.07"/>
    <path class="cls-2" d="M413.48,210.84c-2.19,2.76-2.74,6.62-2.47,9.92"/>
    <path class="cls-2" d="M413.36,228.83c2.85-2.1,5.7-4.2,8.55-6.3"/>
    <path class="cls-2" d="M409.77,231.47s.02-.01.03-.02c.03-.02.06-.04.08-.06.11-.08.23-.17.34-.25.15-.11.3-.22.45-.33.3-.22.6-.44.9-.66.6-.44,1.2-.88,1.79-1.32"/>
    <path class="cls-2" d="M413.48,210.84l-.19-.27-.1-.13s-.03-.04-.05-.07l-.04-.05s0,0,0-.01c0,0,0,0,0,0"/>
    <path class="cls-2" d="M421.91,222.54c-2.81-3.9-5.62-7.8-8.43-11.7"/>
    <path class="cls-2" d="M419.98,246.75s.02-.01.02-.01c.02-.01.05-.03.07-.04.1-.06.19-.12.29-.17.41-.25.82-.5,1.23-.74.54-.32,1.07-.65,1.61-.97,1.08-.65,2.15-1.3,3.23-1.95,2.15-1.3,4.3-2.6,6.45-3.9"/>
    <path class="cls-2" d="M426.21,218.84c-1.8-1.76-3.59-3.51-5.39-5.27-.9-.88-1.8-1.76-2.7-2.64-.45-.44-.9-.88-1.35-1.32-.34-.33-.68-.67-1.03-1-.08-.08-.16-.16-.24-.24-.02-.02-.04-.04-.06-.06,0,0-.02-.01-.02-.02"/>
    <path class="cls-2" d="M440.81,251.78s0-.01-.01-.02c-.01-.02-.03-.05-.04-.07-.06-.1-.12-.19-.18-.29-.25-.41-.5-.82-.76-1.22-.33-.53-.66-1.07-.99-1.6-.66-1.07-1.32-2.14-1.98-3.21-1.32-2.14-2.64-4.28-3.96-6.41"/>
    <path class="cls-2" d="M426.21,218.84l6.06-4.48c1.01-.75,2.02-1.49,3.03-2.24l1.52-1.12c.38-.28.77-.57,1.15-.85.09-.07.18-.13.27-.2l.07-.05s.01,0,.02-.01c0,0,0,0,0,0"/>
    <path class="cls-2" d="M443.55,250.39s0-.02,0-.02c-.01-.03-.02-.05-.03-.08-.04-.1-.08-.21-.13-.31-.18-.44-.36-.89-.54-1.33-.23-.58-.47-1.17-.7-1.75l-1.4-3.5c-.94-2.33-1.87-4.67-2.81-7"/>
    <path class="cls-2" d="M437.94,236.4c2.15-1.3,4.31-2.59,6.46-3.89,1.08-.65,2.15-1.3,3.23-1.94.54-.32,1.08-.65,1.61-.97.41-.25.82-.49,1.23-.74.1-.06.19-.12.29-.17.02-.01.05-.03.07-.04,0,0,.03-.03.02-.01"/>
    <path class="cls-2" d="M346.63,157.6s.01,0,.02.01c.02.01.05.03.07.04.1.06.19.12.29.18.41.25.82.5,1.22.76.53.33,1.07.66,1.6.99,1.07.66,2.14,1.32,3.21,1.98,2.14,1.32,4.28,2.64,6.41,3.96"/>
    <path class="cls-2" d="M362.01,160.47c-2.33-.94-4.67-1.87-7-2.81-1.17-.47-2.33-.94-3.5-1.4-.58-.23-1.17-.47-1.75-.7-.44-.18-.89-.36-1.33-.53-.1-.04-.21-.08-.31-.13-.02,0-.05-.02-.08-.03,0,0-.01,0-.02,0,0,0,0,0,0,0"/>
    <path class="cls-2" d="M351.66,178.43s0,0,0,0c0,0,0-.01.01-.02l.04-.07.18-.29c.25-.41.5-.82.74-1.23.32-.54.65-1.08.97-1.61.65-1.07,1.3-2.15,1.95-3.23,1.3-2.15,2.6-4.3,3.9-6.45"/>
    <path class="cls-2" d="M362.01,160.47c1.3-2.15,2.59-4.31,3.89-6.46.65-1.08,1.3-2.15,1.94-3.23l.97-1.62c.25-.41.49-.82.74-1.23l.17-.29s.03-.05.04-.07c0,0,0-.01,0-.02,0,0,0,0,0,0"/>
    <path class="cls-2" d="M366.93,188.64s0,0,0,0v-.02s.04-.04.06-.07c.07-.09.13-.18.2-.27.28-.39.57-.77.85-1.16.37-.51.74-1.01,1.12-1.52l2.23-3.03c1.49-2.02,2.98-4.05,4.47-6.07"/>
    <path class="cls-2" d="M379.57,172.2c1.49-2.02,2.99-4.04,4.48-6.06.75-1.01,1.49-2.02,2.24-3.03.37-.51.75-1.01,1.12-1.52.28-.39.57-.77.85-1.16.07-.09.13-.18.2-.27l.05-.07s0-.01.01-.02c0,0,0,0,0,0"/>
    <path class="cls-2" d="M388.1,185.31s0,0,0,0h-.02s-.04-.04-.07-.06l-.27-.2c-.39-.28-.78-.56-1.17-.84-.51-.37-1.02-.73-1.53-1.1-1.02-.73-2.04-1.47-3.06-2.2-2.04-1.47-4.08-2.94-6.12-4.41"/>
    <path class="cls-2" d="M379.57,172.2c1.76,1.8,3.51,3.59,5.27,5.39l2.64,2.7c.44.45.88.9,1.32,1.35.33.34.67.68,1,1.03.08.08.16.16.24.24.02.02.04.04.06.06,0,0,.02.01.02.02"/>
    <path class="cls-2" d="M265.05,134.34s0,0,0,0c0,0,.01,0,.02,0h.08c.11.03.22.05.33.07.47.08.95.15,1.42.23.62.1,1.24.2,1.86.3,1.24.2,2.48.4,3.72.6,2.48.4,4.96.81,7.44,1.21"/>
    <path class="cls-2" d="M280.36,131.11c-2.51.03-5.03.06-7.54.08-1.26.01-2.51.03-3.77.04-.63,0-1.26.01-1.88.02-.48,0-.96.01-1.44.02-.11,0-.23,0-.34,0-.03,0-.05,0-.08,0,0,0-.01,0-.02,0,0,0,0,0,0,0"/>
    <path class="cls-2" d="M277.67,151.66s0-.02,0-.03c0-.03,0-.05.01-.08.02-.11.03-.22.05-.33l.22-1.42c.09-.62.19-1.24.28-1.86.19-1.24.38-2.48.57-3.73.38-2.48.76-4.97,1.13-7.45"/>
    <path class="cls-2" d="M280.36,131.11c.37-2.49.75-4.97,1.12-7.46.19-1.24.37-2.49.56-3.73.09-.62.19-1.24.28-1.86.07-.47.14-.95.21-1.42l.05-.33s0-.07.02-.11"/>
    <path class="cls-2" d="M295.69,155.25s0,0,0,0c0,0,0-.01,0-.02,0-.03.01-.05.02-.08.03-.11.05-.22.08-.33l.34-1.4c.15-.61.3-1.22.45-1.83.3-1.22.6-2.44.9-3.66l1.81-7.32"/>
    <path class="cls-2" d="M301.07,135.23c.61-2.44,1.21-4.88,1.82-7.32.3-1.22.61-2.44.91-3.66.15-.61.3-1.22.46-1.83.12-.46.23-.93.35-1.39.03-.11.05-.22.08-.33,0-.03.01-.05.02-.08,0,0,0-.01,0-.02,0,0,0,0,0,0"/>
    <path class="cls-2" d="M313.97,144.07s-.02,0-.03,0c-.03,0-.05-.01-.08-.02-.11-.03-.22-.05-.33-.08-.47-.11-.93-.22-1.4-.33-.61-.14-1.22-.29-1.83-.43-1.22-.29-2.45-.58-3.67-.87-2.45-.58-4.89-1.15-7.34-1.73"/>
    <path class="cls-2" d="M301.07,135.23l6.93,2.96c1.16.49,2.31.99,3.47,1.48.58.25,1.16.49,1.73.74.44.19.88.38,1.32.56.1.04.21.09.31.13.02.01.05.02.07.03,0,0,.01,0,.02,0,0,0,0,0,0,0"/>
    <path class="cls-2" d="M180.78,144.07s0,0,0,0c0,0,.01,0,.02,0,.03,0,.05-.01.08-.02.11-.03.22-.05.33-.08.47-.11.93-.22,1.4-.33.61-.14,1.22-.29,1.83-.43,1.22-.29,2.45-.58,3.67-.87,2.45-.58,4.89-1.15,7.34-1.73"/>
    <path class="cls-2" d="M193.69,135.23l-6.93,2.96c-1.16.49-2.31.99-3.47,1.48-.58.25-1.16.49-1.73.74-.44.19-.88.38-1.32.56-.1.04-.21.09-.31.13-.02.01-.05.02-.07.03,0,0-.02,0-.02,0"/>
    <path class="cls-2" d="M199.07,155.25s0,0,0,0c0,0,0-.01,0-.02,0-.03-.01-.05-.02-.08-.03-.11-.05-.22-.08-.33-.12-.47-.23-.93-.34-1.4-.15-.61-.3-1.22-.45-1.83-.3-1.22-.6-2.44-.9-3.66-.6-2.44-1.2-4.88-1.81-7.32"/>
    <path class="cls-2" d="M193.69,135.23c-.61-2.44-1.21-4.88-1.82-7.32-.3-1.22-.61-2.44-.91-3.66-.15-.61-.3-1.22-.46-1.83-.12-.46-.23-.93-.35-1.39-.03-.11-.05-.22-.08-.33,0-.03-.01-.05-.02-.08,0,0,0-.04,0-.03"/>
    <path class="cls-2" d="M214.4,131.11c-.37-2.49-.75-4.97-1.12-7.46-.19-1.24-.37-2.49-.56-3.73-.09-.62-.19-1.24-.28-1.86-.07-.47-.14-.95-.21-1.42l-.05-.33s-.01-.07-.02-.11"/>
    <path class="cls-2" d="M106.66,185.31s.01-.01.02-.02c.02-.02.04-.03.07-.05.09-.07.18-.13.27-.2.39-.28.78-.56,1.17-.84.51-.37,1.02-.73,1.53-1.1,1.02-.73,2.04-1.47,3.06-2.2,2.04-1.47,4.08-2.94,6.12-4.41"/>
    <path class="cls-2" d="M127.83,188.64s0,0,0,0v-.02s-.04-.04-.06-.07c-.07-.09-.13-.18-.2-.27-.28-.39-.57-.77-.85-1.16-.37-.51-.74-1.01-1.12-1.52-.74-1.01-1.49-2.02-2.23-3.04-1.49-2.02-2.98-4.05-4.47-6.07"/>
    <path class="cls-2" d="M143.1,178.43s0,0,0,0c0,0,0-.01-.01-.02-.01-.02-.03-.05-.04-.07-.06-.1-.12-.19-.17-.29-.25-.41-.5-.82-.74-1.23-.32-.54-.65-1.07-.97-1.61-.65-1.08-1.3-2.15-1.95-3.23-1.3-2.15-2.6-4.3-3.9-6.45"/>
    <path class="cls-2" d="M148.13,157.6s-.01,0-.02.01c-.02.01-.05.03-.07.04-.1.06-.19.12-.29.18l-1.22.76c-.53.33-1.07.66-1.6.99l-3.21,1.98c-2.14,1.32-4.28,2.64-6.41,3.96"/>
    <path class="cls-2" d="M132.75,160.47c2.33-.94,4.66-1.87,7-2.81,1.17-.47,2.33-.94,3.5-1.4.58-.23,1.17-.47,1.75-.7.44-.18.89-.36,1.33-.53.1-.04.21-.08.31-.13.03-.01.06-.03.1-.04"/>
    <path class="cls-2" d="M72.85,479.52c-3.91-5.31-7.56-10.77-10.97-16.42"/>
    <path class="cls-2" d="M68.55,483.22c1.33-1.36,2.75-2.59,4.3-3.7"/>
    <path class="cls-2" d="M56.82,465.66c3.64,6.05,7.54,11.89,11.73,17.56"/>
    <path class="cls-2" d="M61.88,463.1c-1.62,1-3.29,1.85-5.06,2.56"/>
    <path class="cls-2" d="M279.93,565.3c-2.48.4-4.96.81-7.44,1.21-1.24.2-2.48.4-3.72.6-.62.1-1.24.2-1.86.3-.47.08-.94.15-1.42.23-.11.02-.22.04-.33.05-.03,0-.05,0-.08.01,0,0-.04,0-.03,0"/>
    <path class="cls-2" d="M313.98,557.98s-.02,0-.03,0c-.03,0-.05.01-.08.02-.11.03-.22.05-.33.08-.47.11-.93.22-1.4.33-.61.14-1.22.29-1.83.43-1.22.29-2.45.58-3.67.87l-7.34,1.73"/>
    <path class="cls-2" d="M280.36,570.95c-2.51-.03-5.03-.06-7.54-.08-1.26-.01-2.51-.03-3.77-.04-.63,0-1.26-.01-1.88-.02-.48,0-.96-.01-1.44-.02-.11,0-.23,0-.34,0-.03,0-.05,0-.08,0,0,0-.02,0-.03,0"/>
    <path class="cls-2" d="M314.94,560.9s-.02,0-.02.01c-.02.01-.05.02-.07.03-.1.04-.21.09-.31.13-.44.19-.88.38-1.32.57-.58.25-1.16.49-1.73.74-1.16.49-2.31.99-3.47,1.48-2.31.99-4.62,1.98-6.93,2.96"/>
    <path class="cls-2" d="M135.31,536.53c-5.65-3.41-11.11-7.06-16.42-10.97"/>
    <path class="cls-2" d="M132.75,541.59c.71-1.77,1.55-3.44,2.56-5.06"/>
    <path class="cls-2" d="M115.19,529.85c5.67,4.19,11.51,8.1,17.56,11.73"/>
    <path class="cls-2" d="M118.89,525.56c-1.11,1.54-2.34,2.97-3.7,4.3"/>
    <path class="cls-2" d="M280.36,570.95c.37,2.49.75,4.97,1.12,7.46.19,1.24.37,2.49.56,3.73.09.62.19,1.24.28,1.86.07.47.14.95.21,1.42l.05.33s0,.05.01.08c0,0,0,.01,0,.02,0,0,0,0,0,0"/>
    <path class="cls-2" d="M304.71,581.46s-.02-.07-.03-.1c-.03-.11-.05-.22-.08-.33-.12-.46-.23-.93-.35-1.4-.15-.61-.3-1.22-.46-1.83-.3-1.22-.61-2.44-.91-3.66l-1.82-7.32"/>
    <path class="cls-2" d="M195.46,561.44c.6-2.44,1.2-4.88,1.81-7.32.3-1.22.6-2.44.9-3.66.15-.61.3-1.22.45-1.83.11-.46.23-.93.34-1.39.03-.11.05-.22.08-.33,0-.03.01-.05.02-.08,0,0,0-.02,0-.03"/>
    <path class="cls-2" d="M195.46,561.44c-2.45-.58-4.89-1.15-7.34-1.73l-3.67-.87c-.61-.14-1.22-.29-1.83-.43-.47-.11-.93-.22-1.4-.33-.11-.03-.22-.05-.33-.08-.03,0-.05-.01-.08-.02,0,0-.02,0-.03,0"/>
    <path class="cls-2" d="M193.69,566.83c-2.31-.99-4.62-1.98-6.93-2.96-1.16-.49-2.31-.99-3.47-1.48-.58-.25-1.16-.49-1.73-.74-.44-.19-.88-.38-1.32-.56-.1-.04-.21-.09-.31-.13-.02-.01-.05-.02-.07-.03,0,0-.01-.01-.02,0"/>
    <path class="cls-2" d="M214.4,570.95c-.02-1.9.12-3.77.42-5.65"/>
    <path class="cls-2" d="M195.46,561.44c-.44,1.85-1.02,3.64-1.77,5.39"/>
    <path class="cls-2" d="M193.69,566.83l-1.82,7.32c-.3,1.22-.61,2.44-.91,3.66-.15.61-.3,1.22-.46,1.83-.12.46-.23.93-.35,1.39-.03.11-.05.22-.08.33,0,.03-.01.05-.02.08,0,0-.02.04,0,.03"/>
    <path class="cls-2" d="M212.17,585.86s0,0,0,0c0,0,0-.01,0-.02v-.08c.03-.11.05-.22.06-.33.07-.47.14-.95.21-1.42.09-.62.19-1.24.28-1.86.19-1.24.37-2.48.56-3.73.37-2.49.75-4.97,1.12-7.46"/>
    <path class="cls-2" d="M118.89,525.56c1.49-2.02,2.98-4.05,4.47-6.07.75-1.01,1.49-2.02,2.24-3.04.37-.51.75-1.01,1.12-1.52.28-.39.57-.77.85-1.16.07-.09.13-.18.2-.27.02-.02.03-.04.05-.06,0,0,.02-.04.02-.02"/>
    <path class="cls-2" d="M143.1,523.62s0,.01-.01.02c-.01.02-.03.05-.04.07-.06.1-.12.19-.18.29-.25.41-.5.82-.74,1.23-.32.54-.65,1.08-.97,1.61-.65,1.08-1.3,2.15-1.95,3.23-1.3,2.15-2.6,4.3-3.9,6.45"/>
    <path class="cls-2" d="M118.89,525.56c-2.04-1.47-4.08-2.94-6.12-4.41-1.02-.73-2.04-1.47-3.06-2.2-.51-.37-1.02-.73-1.53-1.1-.39-.28-.78-.56-1.17-.84-.09-.07-.18-.13-.27-.2-.02-.02-.04-.03-.07-.05,0,0-.03-.03-.02-.02"/>
    <path class="cls-2" d="M299.3,561.44c-6.4,1.58-12.85,2.86-19.37,3.85"/>
    <path class="cls-2" d="M301.07,566.83c-.75-1.75-1.33-3.53-1.77-5.39"/>
    <path class="cls-2" d="M280.36,570.95c6.98-1.05,13.87-2.42,20.71-4.12"/>
    <path class="cls-2" d="M279.93,565.3c.31,1.88.45,3.75.42,5.65"/>
    <path class="cls-2" d="M148.13,544.45s0,0,0,0c0,0-.01,0-.02-.01-.02-.01-.05-.03-.07-.04-.1-.06-.19-.12-.29-.18-.41-.25-.82-.5-1.22-.76-.53-.33-1.07-.66-1.6-.99-1.07-.66-2.14-1.32-3.21-1.98-2.14-1.32-4.28-2.64-6.41-3.96"/>
    <path class="cls-2" d="M146.75,547.2s-.02,0-.02,0c-.03,0-.05-.02-.08-.03-.1-.04-.21-.08-.31-.13-.44-.18-.89-.36-1.33-.54-.58-.23-1.17-.47-1.75-.7-1.17-.47-2.33-.94-3.5-1.4-2.33-.94-4.67-1.87-7-2.81"/>
    <path class="cls-2" d="M61.88,463.1c-1.32-2.14-2.64-4.28-3.96-6.41-.66-1.07-1.32-2.14-1.98-3.21-.33-.53-.66-1.07-.99-1.6-.25-.41-.5-.81-.76-1.22-.06-.1-.12-.19-.18-.29-.01-.02-.03-.05-.04-.07,0,0,0-.01-.01-.02,0,0,0,0,0,0"/>
    <path class="cls-2" d="M81.67,491.75s-.01-.02-.02-.02c-.02-.02-.03-.04-.05-.07-.07-.09-.13-.18-.2-.28-.28-.39-.56-.78-.84-1.17-.37-.51-.73-1.02-1.1-1.53-.73-1.02-1.47-2.04-2.2-3.06-1.47-2.04-2.94-4.08-4.41-6.12"/>
    <path class="cls-2" d="M56.82,465.66c-.94-2.33-1.87-4.67-2.81-7-.47-1.17-.94-2.33-1.4-3.5-.23-.58-.47-1.17-.7-1.75-.18-.44-.36-.89-.53-1.33-.04-.1-.08-.21-.13-.31,0-.03-.02-.05-.03-.08,0,0,0-.01,0-.02,0,0,0,0,0,0"/>
    <path class="cls-2" d="M79.33,493.76s0,0,0,0h-.01s-.04-.05-.06-.07c-.08-.08-.16-.16-.24-.24-.34-.34-.69-.67-1.03-1.01-.45-.44-.9-.88-1.35-1.32-.9-.88-1.8-1.76-2.69-2.63-1.8-1.76-3.59-3.51-5.39-5.27"/>
    <path class="cls-2" d="M33.11,383.58c-.4-2.48-.81-4.96-1.21-7.44-.2-1.24-.4-2.48-.6-3.72-.1-.62-.2-1.24-.3-1.86-.08-.47-.15-.94-.23-1.42-.02-.11-.04-.22-.05-.33,0-.03,0-.05-.01-.08,0,0,0-.02,0-.03"/>
    <path class="cls-2" d="M40.43,417.62s0,0,0,0c0,0,0-.01,0-.02,0-.03-.01-.05-.02-.08-.03-.11-.05-.22-.08-.33l-.33-1.4c-.14-.61-.29-1.22-.43-1.83-.29-1.22-.58-2.45-.87-3.67-.58-2.45-1.15-4.89-1.73-7.34"/>
    <path class="cls-2" d="M375.87,525.56c-5.31,3.91-10.77,7.56-16.42,10.97"/>
    <path class="cls-2" d="M379.57,529.85c-1.36-1.33-2.58-2.75-3.7-4.3"/>
    <path class="cls-2" d="M362.01,541.59c6.05-3.64,11.89-7.54,17.56-11.73"/>
    <path class="cls-2" d="M359.45,536.53c1,1.62,1.85,3.29,2.56,5.06"/>
    <path class="cls-2" d="M27.46,384.01c-2.49.37-4.97.75-7.46,1.12-1.24.19-2.49.37-3.73.56-.62.09-1.24.19-1.86.28-.47.07-.95.14-1.42.21l-.33.05s-.05,0-.08.01c0,0-.02,0-.03,0"/>
    <path class="cls-2" d="M16.95,408.36s0,0,0,0c0,0,.01,0,.02,0,.03,0,.05-.01.08-.02.11-.03.22-.05.33-.08.46-.12.93-.23,1.4-.35.61-.15,1.22-.3,1.83-.46,1.22-.3,2.44-.61,3.66-.91l7.32-1.82"/>
    <line class="cls-2" x1="247.38" y1="111.69" x2="247.38" y2="109.8"/>
    <line class="cls-2" x1="247.38" y1="590.37" x2="247.38" y2="592.25"/>
    <line class="cls-2" x1="247.38" y1="164.45" x2="247.38" y2="162.57"/>
    <line class="cls-2" x1="247.38" y1="537.6" x2="247.38" y2="539.49"/>
    <line class="cls-2" x1="48.02" y1="320.74" x2="49.88" y2="321.02"/>
    <line class="cls-2" x1="30.39" y1="335.22" x2="30.7" y2="333.36"/>
    <path class="cls-2" d="M426.21,483.22c4.19-5.67,8.1-11.51,11.73-17.56"/>
    <path class="cls-2" d="M421.91,479.52c1.54,1.11,2.97,2.34,4.3,3.7"/>
    <path class="cls-2" d="M432.88,463.1c-3.41,5.65-7.06,11.11-10.97,16.42"/>
    <path class="cls-2" d="M437.94,465.65c-1.77-.71-3.44-1.55-5.06-2.56"/>
    <line class="cls-2" x1="51.6" y1="302.72" x2="53.43" y2="303.17"/>
    <line class="cls-2" x1="27.65" y1="335.01" x2="27.63" y2="333.13"/>
    <line class="cls-2" x1="40.43" y1="284.43" x2="40.86" y2="282.6"/>
    <line class="cls-2" x1="10.68" y1="315.53" x2="12.55" y2="315.81"/>
    <line class="cls-2" x1="37.5" y1="283.47" x2="38.24" y2="281.74"/>
    <line class="cls-2" x1="15.12" y1="293.24" x2="16.95" y2="293.7"/>
    <line class="cls-2" x1="52.96" y1="253.38" x2="53.95" y2="251.78"/>
    <line class="cls-2" x1="50.5" y1="252.14" x2="51.2" y2="250.39"/>
    <path class="cls-2" d="M463.18,404.72c1.7-6.85,3.07-13.74,4.12-20.71"/>
    <path class="cls-2" d="M457.8,402.95c1.85.44,3.64,1.02,5.39,1.77"/>
    <path class="cls-2" d="M461.65,383.58c-.99,6.52-2.27,12.96-3.85,19.37"/>
    <path class="cls-2" d="M467.3,384c-1.9.02-3.77-.12-5.65-.42"/>
    <line class="cls-2" x1="81.66" y1="210.31" x2="82.77" y2="208.78"/>
    <line class="cls-2" x1="42.28" y1="227.66" x2="43.9" y2="228.63"/>
    <line class="cls-2" x1="79.33" y1="208.3" x2="80.68" y2="206.98"/>
    <line class="cls-2" x1="54.91" y1="208.76" x2="56.43" y2="209.88"/>
    <line class="cls-2" x1="127.83" y1="188.64" x2="128.94" y2="190.16"/>
    <line class="cls-2" x1="105.13" y1="186.41" x2="106.66" y2="185.31"/>
    <path class="cls-2" d="M461.65,318.47c1.88-.31,3.75-.45,5.65-.42"/>
    <path class="cls-2" d="M457.8,299.11c1.58,6.4,2.86,12.85,3.85,19.37"/>
    <path class="cls-2" d="M463.18,297.33c-1.75.75-3.53,1.33-5.39,1.77"/>
    <path class="cls-2" d="M467.3,318.05c-1.05-6.98-2.42-13.87-4.12-20.71"/>
    <line class="cls-2" x1="143.1" y1="178.43" x2="144.08" y2="180.05"/>
    <line class="cls-2" x1="103.33" y1="184.33" x2="104.65" y2="182.98"/>
    <line class="cls-2" x1="148.13" y1="157.6" x2="149.73" y2="156.61"/>
    <line class="cls-2" x1="105.11" y1="158.56" x2="106.23" y2="160.08"/>
    <line class="cls-2" x1="146.74" y1="154.85" x2="148.49" y2="154.15"/>
    <line class="cls-2" x1="124.01" y1="145.93" x2="124.98" y2="147.55"/>
    <path class="cls-2" d="M432.88,238.95c1.62-1,3.29-1.85,5.06-2.56"/>
    <path class="cls-2" d="M421.91,222.54c3.91,5.31,7.56,10.77,10.97,16.42"/>
    <path class="cls-2" d="M426.21,218.84c-1.33,1.36-2.75,2.58-4.3,3.7"/>
    <path class="cls-2" d="M437.94,236.4c-3.64-6.05-7.54-11.89-11.73-17.56"/>
    <line class="cls-2" x1="199.07" y1="155.25" x2="199.52" y2="157.08"/>
    <line class="cls-2" x1="178.95" y1="144.51" x2="180.78" y2="144.07"/>
    <line class="cls-2" x1="217.09" y1="151.67" x2="217.37" y2="153.53"/>
    <line class="cls-2" x1="178.09" y1="141.89" x2="179.82" y2="141.15"/>
    <line class="cls-2" x1="229.71" y1="134.34" x2="231.57" y2="134.04"/>
    <line class="cls-2" x1="189.59" y1="118.77" x2="190.05" y2="120.6"/>
    <line class="cls-2" x1="229.48" y1="131.27" x2="231.36" y2="131.29"/>
    <line class="cls-2" x1="211.89" y1="114.33" x2="212.17" y2="116.2"/>
    <path class="cls-2" d="M375.87,176.5c1.11-1.54,2.34-2.97,3.7-4.3"/>
    <path class="cls-2" d="M359.45,165.53c5.65,3.41,11.11,7.06,16.42,10.97"/>
    <path class="cls-2" d="M362.01,160.47c-.71,1.77-1.55,3.44-2.56,5.06"/>
    <path class="cls-2" d="M379.57,172.2c-5.67-4.19-11.51-8.1-17.56-11.73"/>
    <line class="cls-2" x1="277.67" y1="151.66" x2="277.39" y2="153.53"/>
    <line class="cls-2" x1="263.19" y1="134.04" x2="265.05" y2="134.34"/>
    <line class="cls-2" x1="295.69" y1="155.25" x2="295.24" y2="157.08"/>
    <line class="cls-2" x1="263.4" y1="131.29" x2="265.28" y2="131.27"/>
    <line class="cls-2" x1="313.97" y1="144.07" x2="315.81" y2="144.51"/>
    <line class="cls-2" x1="282.87" y1="114.33" x2="282.59" y2="116.2"/>
    <line class="cls-2" x1="314.94" y1="141.15" x2="316.67" y2="141.89"/>
    <line class="cls-2" x1="305.17" y1="118.77" x2="304.71" y2="120.6"/>
    <path class="cls-2" d="M299.3,140.61c.44-1.85,1.02-3.64,1.77-5.39"/>
    <path class="cls-2" d="M279.93,136.76c6.52.99,12.96,2.27,19.37,3.85"/>
    <path class="cls-2" d="M280.36,131.11c.02,1.9-.12,3.77-.42,5.65"/>
    <path class="cls-2" d="M301.07,135.23c-6.85-1.7-13.74-3.07-20.71-4.12"/>
    <line class="cls-2" x1="351.66" y1="178.43" x2="350.68" y2="180.04"/>
    <line class="cls-2" x1="345.02" y1="156.61" x2="346.63" y2="157.6"/>
    <line class="cls-2" x1="366.93" y1="188.64" x2="365.81" y2="190.16"/>
    <line class="cls-2" x1="346.27" y1="154.15" x2="348.02" y2="154.85"/>
    <line class="cls-2" x1="388.1" y1="185.31" x2="389.63" y2="186.41"/>
    <line class="cls-2" x1="370.75" y1="145.93" x2="369.78" y2="147.55"/>
    <line class="cls-2" x1="390.11" y1="182.98" x2="391.43" y2="184.33"/>
    <line class="cls-2" x1="389.65" y1="158.56" x2="388.53" y2="160.08"/>
    <path class="cls-2" d="M214.83,136.76c-.31-1.88-.45-3.75-.42-5.65"/>
    <path class="cls-2" d="M193.69,135.23c.75,1.75,1.33,3.53,1.77,5.39"/>
    <line class="cls-2" x1="440.81" y1="251.78" x2="441.8" y2="253.38"/>
    <line class="cls-2" x1="411.99" y1="208.78" x2="413.09" y2="210.3"/>
    <line class="cls-2" x1="443.55" y1="250.39" x2="444.26" y2="252.14"/>
    <line class="cls-2" x1="414.08" y1="206.98" x2="415.43" y2="208.3"/>
    <line class="cls-2" x1="450.86" y1="228.63" x2="452.48" y2="227.66"/>
    <path class="cls-2" d="M135.31,165.53c-1-1.62-1.85-3.29-2.56-5.06"/>
    <path class="cls-2" d="M118.89,176.5c5.31-3.91,10.77-7.56,16.42-10.97"/>
    <path class="cls-2" d="M115.19,172.2c1.36,1.33,2.58,2.75,3.7,4.3"/>
    <path class="cls-2" d="M132.75,160.47c-6.05,3.64-11.89,7.54-17.56,11.73"/>
    <line class="cls-2" x1="439.85" y1="208.76" x2="438.33" y2="209.88"/>
    <line class="cls-2" x1="441.33" y1="303.17" x2="443.16" y2="302.72"/>
    <line class="cls-2" x1="446.74" y1="320.74" x2="444.88" y2="321.02"/>
    <line class="cls-2" x1="453.9" y1="282.6" x2="454.33" y2="284.43"/>
    <line class="cls-2" x1="467.13" y1="333.12" x2="467.11" y2="335.01"/>
    <path class="cls-2" d="M61.88,238.96c3.41-5.65,7.06-11.11,10.97-16.42"/>
    <path class="cls-2" d="M56.82,236.4c1.77.71,3.44,1.55,5.06,2.56"/>
    <path class="cls-2" d="M68.55,218.84c-4.19,5.67-8.1,11.51-11.73,17.56"/>
    <path class="cls-2" d="M72.85,222.54c-1.54-1.11-2.97-2.34-4.3-3.7"/>
    <line class="cls-2" x1="456.52" y1="281.74" x2="457.26" y2="283.47"/>
    <line class="cls-2" x1="482.21" y1="315.81" x2="484.08" y2="315.53"/>
    <line class="cls-2" x1="479.64" y1="293.24" x2="477.81" y2="293.69"/>
    <line class="cls-2" x1="454.33" y1="417.62" x2="453.9" y2="419.46"/>
    <path class="cls-2" d="M33.11,318.47c.99-6.52,2.27-12.96,3.85-19.37"/>
    <path class="cls-2" d="M31.58,297.34c-1.7,6.85-3.07,13.74-4.12,20.71"/>
    <line class="cls-2" x1="441.33" y1="398.88" x2="443.16" y2="399.34"/>
    <line class="cls-2" x1="457.26" y1="418.58" x2="456.52" y2="420.32"/>
    <line class="cls-2" x1="444.88" y1="381.03" x2="446.74" y2="381.32"/>
    <line class="cls-2" x1="477.81" y1="408.36" x2="479.64" y2="408.81"/>
    <path class="cls-2" d="M36.96,402.95c-1.58-6.4-2.86-12.85-3.85-19.37"/>
    <path class="cls-2" d="M27.46,384.01c1.05,6.98,2.42,13.87,4.12,20.71"/>
    <line class="cls-2" x1="482.21" y1="386.24" x2="484.08" y2="386.52"/>
    <line class="cls-2" x1="467.11" y1="367.04" x2="467.13" y2="368.93"/>
    <line class="cls-2" x1="413.1" y1="491.75" x2="411.99" y2="493.28"/>
    <line class="cls-2" x1="415.43" y1="493.76" x2="414.08" y2="495.07"/>
    <line class="cls-2" x1="96.8" y1="200.44" x2="90.13" y2="207.11"/>
    <line class="cls-2" x1="96.8" y1="200.44" x2="103.46" y2="193.78"/>
    <line class="cls-2" x1="165.88" y1="154.28" x2="157.18" y2="157.89"/>
    <line class="cls-2" x1="165.88" y1="154.28" x2="174.59" y2="150.67"/>
    <line class="cls-2" x1="247.38" y1="138.07" x2="237.96" y2="138.07"/>
    <line class="cls-2" x1="247.38" y1="138.07" x2="256.8" y2="138.07"/>
    <line class="cls-2" x1="328.87" y1="154.28" x2="320.17" y2="150.67"/>
    <line class="cls-2" x1="328.87" y1="154.28" x2="337.58" y2="157.89"/>
    <line class="cls-2" x1="397.96" y1="200.44" x2="391.3" y2="193.78"/>
    <line class="cls-2" x1="397.96" y1="200.44" x2="404.63" y2="207.11"/>
    <line class="cls-2" x1="444.13" y1="269.53" x2="440.52" y2="260.83"/>
    <line class="cls-2" x1="444.13" y1="269.53" x2="447.73" y2="278.24"/>
    <line class="cls-2" x1="444.13" y1="432.52" x2="447.73" y2="423.82"/>
    <line class="cls-2" x1="438.33" y1="492.18" x2="439.85" y2="493.3"/>
    <line class="cls-2" x1="397.96" y1="501.61" x2="404.63" y2="494.95"/>
    <line class="cls-2" x1="397.96" y1="501.61" x2="391.3" y2="508.27"/>
    <line class="cls-2" x1="328.88" y1="547.77" x2="337.58" y2="544.17"/>
    <line class="cls-2" x1="441.8" y1="448.67" x2="440.81" y2="450.27"/>
    <line class="cls-2" x1="247.38" y1="563.98" x2="256.8" y2="563.98"/>
    <line class="cls-2" x1="247.38" y1="563.98" x2="237.96" y2="563.98"/>
    <line class="cls-2" x1="165.89" y1="547.77" x2="174.59" y2="551.38"/>
    <line class="cls-2" x1="450.86" y1="473.43" x2="452.48" y2="474.4"/>
    <line class="cls-2" x1="96.8" y1="501.61" x2="103.46" y2="508.27"/>
    <line class="cls-2" x1="96.8" y1="501.61" x2="90.13" y2="494.95"/>
    <line class="cls-2" x1="50.63" y1="432.52" x2="54.24" y2="441.23"/>
    <line class="cls-2" x1="50.63" y1="432.52" x2="47.03" y2="423.82"/>
    <line class="cls-2" x1="50.63" y1="269.53" x2="47.03" y2="278.24"/>
    <line class="cls-2" x1="50.63" y1="269.53" x2="54.24" y2="260.83"/>
    <line class="cls-2" x1="34.42" y1="351.03" x2="34.42" y2="360.45"/>
    <line class="cls-2" x1="34.42" y1="351.03" x2="34.42" y2="341.61"/>
    <line class="cls-2" x1="464.11" y1="358.56" x2="464.11" y2="357.81"/>
    <line class="cls-2" x1="461.09" y1="354.8" x2="460.34" y2="354.8"/>
    <line class="cls-2" x1="471.65" y1="358.56" x2="471.65" y2="357.81"/>
    <line class="cls-2" x1="461.09" y1="347.26" x2="460.34" y2="347.26"/>
    <line class="cls-2" x1="475.41" y1="354.8" x2="474.66" y2="354.8"/>
    <line class="cls-2" x1="464.11" y1="344.24" x2="464.11" y2="343.49"/>
    <line class="cls-2" x1="471.65" y1="344.24" x2="471.65" y2="343.49"/>
    <line class="cls-2" x1="475.41" y1="347.26" x2="474.66" y2="347.26"/>
    <line class="cls-2" x1="444.26" y1="449.91" x2="443.56" y2="451.66"/>
    <line class="cls-2" x1="369.78" y1="554.51" x2="370.75" y2="556.12"/>
    <line class="cls-2" x1="346.27" y1="547.9" x2="348.02" y2="547.2"/>
    <line class="cls-2" x1="388.53" y1="541.98" x2="389.65" y2="543.49"/>
    <line class="cls-2" x1="345.03" y1="545.45" x2="346.63" y2="544.45"/>
    <line class="cls-2" x1="390.11" y1="519.08" x2="391.43" y2="517.73"/>
    <line class="cls-2" x1="350.68" y1="522.01" x2="351.66" y2="523.62"/>
    <line class="cls-2" x1="388.1" y1="516.74" x2="389.63" y2="515.64"/>
    <line class="cls-2" x1="365.82" y1="511.9" x2="366.93" y2="513.42"/>
    <line class="cls-2" x1="282.59" y1="585.86" x2="282.87" y2="587.72"/>
    <line class="cls-2" x1="263.4" y1="570.76" x2="265.28" y2="570.78"/>
    <line class="cls-2" x1="304.71" y1="581.46" x2="305.17" y2="583.29"/>
    <line class="cls-2" x1="263.19" y1="568.01" x2="265.05" y2="567.71"/>
    <line class="cls-2" x1="314.94" y1="560.9" x2="316.67" y2="560.16"/>
    <path class="cls-2" d="M203.59,351.03c-4.12,0-8.24,0-12.37,0"/>
    <line class="cls-2" x1="203.25" y1="351.03" x2="432.82" y2="351.03"/>
    <line class="cls-2" x1="277.39" y1="548.53" x2="277.67" y2="550.39"/>
    <line class="cls-2" x1="313.98" y1="557.98" x2="315.81" y2="557.55"/>
    <line class="cls-2" x1="295.24" y1="544.98" x2="295.69" y2="546.81"/>
    <line class="cls-2" x1="190.05" y1="581.46" x2="189.59" y2="583.29"/>
    <line class="cls-2" x1="178.09" y1="560.16" x2="179.82" y2="560.9"/>
    <line class="cls-2" x1="212.17" y1="585.86" x2="211.89" y2="587.72"/>
    <line class="cls-2" x1="178.95" y1="557.55" x2="180.79" y2="557.98"/>
    <line class="cls-2" x1="229.48" y1="570.78" x2="231.36" y2="570.76"/>
    <line class="cls-2" x1="199.52" y1="544.98" x2="199.07" y2="546.81"/>
    <line class="cls-2" x1="229.71" y1="567.71" x2="231.57" y2="568.01"/>
    <line class="cls-2" x1="217.37" y1="548.53" x2="217.09" y2="550.39"/>
    <line class="cls-2" x1="106.23" y1="541.98" x2="105.11" y2="543.49"/>
    <line class="cls-2" x1="103.33" y1="517.73" x2="104.65" y2="519.08"/>
    <line class="cls-2" x1="124.98" y1="554.51" x2="124.01" y2="556.12"/>
    <line class="cls-2" x1="105.13" y1="515.64" x2="106.66" y2="516.74"/>
    <line class="cls-2" x1="146.75" y1="547.2" x2="148.49" y2="547.9"/>
    <line class="cls-2" x1="128.95" y1="511.9" x2="127.83" y2="513.42"/>
    <line class="cls-2" x1="148.13" y1="544.45" x2="149.74" y2="545.45"/>
    <line class="cls-2" x1="144.08" y1="522.01" x2="143.1" y2="523.62"/>
    <line class="cls-2" x1="37.5" y1="418.58" x2="38.24" y2="420.32"/>
    <line class="cls-2" x1="15.12" y1="408.82" x2="16.95" y2="408.36"/>
    <line class="cls-2" x1="40.43" y1="417.62" x2="40.86" y2="419.46"/>
    <line class="cls-2" x1="10.68" y1="386.52" x2="12.55" y2="386.24"/>
    <line class="cls-2" x1="51.6" y1="399.34" x2="53.43" y2="398.89"/>
    <line class="cls-2" x1="27.65" y1="367.05" x2="27.63" y2="368.93"/>
    <line class="cls-2" x1="48.02" y1="381.32" x2="49.88" y2="381.03"/>
    <line class="cls-2" x1="30.39" y1="366.84" x2="30.7" y2="368.7"/>
    <line class="cls-2" x1="43.9" y1="473.43" x2="42.29" y2="474.4"/>
    <line class="cls-2" x1="50.5" y1="449.91" x2="51.21" y2="451.66"/>
    <line class="cls-2" x1="56.43" y1="492.18" x2="54.91" y2="493.3"/>
    <line class="cls-2" x1="52.96" y1="448.67" x2="53.95" y2="450.28"/>
    <line class="cls-2" x1="79.33" y1="493.76" x2="80.68" y2="495.08"/>
    <line class="cls-2" x1="81.67" y1="491.75" x2="82.77" y2="493.28"/>
    <path class="cls-2" d="M60.81,351.03h4.34c6.48,0,14.05,0,23.02,0,8.96,0,19.31,0,31.29,0,11.98,0,25.59,0,40.94,0,9.63,0,19.94,0,30.84,0"/>
    <path class="cls-2" d="M494.26,351.03h.03s.08,0,.18,0h.49c.23,0,.54,0,.97,0,.42,0,.96,0,1.65,0,.69,0,1.52,0,2.56,0,1.04,0,2.27,0,3.74,0,1.47,0,3.17,0,5.11,0,1.94,0,4.12,0,6.49,0,2.37,0,4.94,0,7.63,0,2.69,0,5.51,0,8.4,0,2.88,0,5.84,0,8.82,0,2.99,0,6.01,0,9.05,0h36.75"/>
    <path class="cls-2" d="M33.11,383.58c-1.88.31-3.75.45-5.65.42"/>
    <path class="cls-2" d="M31.58,404.72c1.75-.75,3.53-1.33,5.39-1.77"/>
    <path class="cls-2" d="M36.96,299.11c-1.85-.44-3.64-1.02-5.39-1.77"/>
    <path class="cls-2" d="M27.46,318.05c1.9-.02,3.77.12,5.65.42"/>
    <path class="cls-2" d="M214.4,131.11c-6.98,1.05-13.87,2.42-20.71,4.12"/>
    <path class="cls-2" d="M195.46,140.61c6.4-1.58,12.85-2.86,19.37-3.85"/>
    <path class="cls-2" d="M193.69,566.83c6.85,1.7,13.74,3.07,20.71,4.12"/>
    <path class="cls-2" d="M214.83,565.3c-6.52-.99-12.96-2.27-19.37-3.85"/>
    <path class="cls-2" d="M132.75,160.47c-1.3-2.15-2.59-4.31-3.89-6.46-.65-1.08-1.3-2.15-1.94-3.23-.32-.54-.65-1.08-.97-1.61-.25-.41-.49-.82-.74-1.23-.06-.1-.12-.19-.17-.29-.01-.02-.03-.05-.04-.07,0,0,0-.01-.01-.02,0,0,0,0,0,0"/>
    <path class="cls-2" d="M115.19,172.2c-1.49-2.02-2.99-4.04-4.48-6.06-.75-1.01-1.49-2.02-2.24-3.03l-1.12-1.52c-.28-.38-.57-.77-.85-1.15-.07-.09-.13-.18-.2-.27l-.05-.07v-.02s-.01,0-.02,0"/>
    <path class="cls-2" d="M115.19,172.2c-1.76,1.8-3.51,3.59-5.27,5.39-.88.9-1.76,1.8-2.64,2.7-.44.45-.88.9-1.32,1.35-.33.34-.67.68-1,1.03-.08.08-.16.16-.24.24-.02.02-.04.04-.06.06,0,0-.01,0-.02.02"/>
    <path class="cls-2" d="M214.4,131.11c2.51.03,5.03.06,7.54.08,1.26.01,2.51.03,3.77.04.63,0,1.26.01,1.88.02.48,0,.96.01,1.44.02.11,0,.23,0,.34,0,.03,0,.05,0,.08,0,0,0,.04,0,.03,0"/>
    <path class="cls-2" d="M229.71,134.34s-.02,0-.03,0h-.08c-.11.03-.22.05-.33.07-.47.08-.95.15-1.42.23-.62.1-1.24.2-1.86.3l-3.72.6c-2.48.4-4.96.81-7.44,1.21"/>
    <path class="cls-2" d="M217.09,151.67s0,0,0,0c0,0,0-.01,0-.02,0-.03,0-.05-.01-.08-.02-.11-.03-.22-.05-.33-.07-.47-.14-.95-.22-1.42l-.28-1.86c-.19-1.24-.38-2.48-.57-3.73-.38-2.48-.76-4.97-1.13-7.45"/>
    <path class="cls-2" d="M446.74,320.74s.07-.01.11-.02c.11-.02.22-.03.33-.05.47-.07.95-.14,1.42-.22.62-.09,1.24-.19,1.86-.28,1.24-.19,2.48-.38,3.73-.57,2.48-.38,4.97-.76,7.45-1.13"/>
    <path class="cls-2" d="M443.16,302.72s.03,0,.05-.01c.05-.01.1-.03.15-.04.21-.05.42-.1.63-.16.28-.07.56-.14.84-.21.56-.14,1.11-.28,1.67-.41l3.35-.83"/>
    <path class="cls-2" d="M461.65,383.58c-2.48-.38-4.97-.76-7.45-1.13-1.24-.19-2.49-.38-3.73-.57-.62-.09-1.24-.19-1.86-.28-.47-.07-.95-.14-1.42-.22-.11-.02-.22-.03-.33-.05-.03,0-.05,0-.08-.01,0,0-.02-.01-.03,0"/>
    <path class="cls-2" d="M443.16,399.34s0,0,0,0c0,0,.01,0,.02,0,.03,0,.05.01.08.02.11.03.22.05.33.08l1.4.34c.61.15,1.22.3,1.83.45,1.22.3,2.44.6,3.66.9,2.44.6,4.88,1.2,7.32,1.81"/>
    <path class="cls-2" d="M72.85,222.54c2.02,1.49,4.05,2.98,6.07,4.47,1.01.75,2.02,1.49,3.04,2.24.51.37,1.01.75,1.52,1.12.39.28.77.57,1.16.85.09.07.18.13.27.2.02.02.04.03.07.05h.02s0,.01,0,.02"/>
    <path class="cls-2" d="M74.78,246.75s0,0,0,0c0,0-.01,0-.02-.01-.02-.01-.05-.03-.07-.04-.1-.06-.19-.12-.29-.17-.41-.25-.82-.5-1.23-.74-.54-.32-1.07-.65-1.61-.97-1.07-.65-2.15-1.3-3.23-1.95-2.15-1.3-4.3-2.6-6.45-3.9"/>
    <path class="cls-2" d="M68.55,218.84c-2.02-1.49-4.04-2.99-6.06-4.48-1.01-.75-2.02-1.49-3.03-2.24-.51-.37-1.01-.75-1.52-1.12-.39-.28-.77-.57-1.15-.85-.09-.07-.18-.13-.27-.2l-.07-.05s-.01,0-.02-.01c0,0,0,0,0,0"/>
    <path class="cls-2" d="M43.9,228.63s0,0,0,0c0,0,.01,0,.02,0,.02.01.05.03.07.04.1.06.19.12.29.17.41.25.82.49,1.23.74.54.32,1.08.65,1.61.97l3.23,1.94c2.15,1.3,4.31,2.59,6.46,3.89"/>
    <path class="cls-2" d="M36.96,299.11c2.44.6,4.88,1.2,7.32,1.81,1.22.3,2.44.6,3.66.9.61.15,1.22.3,1.83.45.46.11.93.23,1.39.34.11.03.22.05.33.08.03,0,.05.01.08.02,0,0,.01,0,.02,0,0,0,0,0,0,0"/>
    <path class="cls-2" d="M48.02,320.74s-.02,0-.03,0c-.03,0-.05,0-.08-.01-.11-.02-.22-.03-.33-.05-.47-.07-.95-.14-1.42-.22-.62-.09-1.24-.19-1.86-.28-1.24-.19-2.48-.38-3.73-.57-2.48-.38-4.97-.76-7.45-1.13"/>
    <path class="cls-2" d="M31.58,297.34c.99-2.31,1.98-4.62,2.96-6.93.49-1.16.99-2.31,1.48-3.47.25-.58.49-1.16.74-1.73.19-.44.38-.88.56-1.32.04-.1.09-.21.13-.31.01-.02.02-.05.03-.07,0,0,0-.01,0-.02,0,0,0,0,0,0"/>
    <path class="cls-2" d="M27.63,333.13s0-.02,0-.03c0-.03,0-.05,0-.08,0-.11,0-.23,0-.34l-.02-1.44c0-.63-.01-1.26-.02-1.88-.01-1.26-.03-2.51-.04-3.77-.03-2.51-.06-5.03-.08-7.54"/>
    <path class="cls-2" d="M217.09,550.39s0,0,0,0c0,0,0,.01,0,.02,0,.03,0,.05-.01.08-.02.11-.03.22-.05.33l-.22,1.42c-.09.62-.19,1.24-.28,1.86-.19,1.24-.38,2.48-.57,3.73-.38,2.48-.76,4.97-1.13,7.45"/>
    <path class="cls-2" d="M229.71,567.71c-1.24-.21-2.48-.4-3.72-.6l-3.72-.6c-2.48-.4-4.96-.81-7.44-1.21"/>
    <path class="cls-2" d="M229.48,570.78s0,0,0,0c0,0-.01,0-.02,0-.03,0-.05,0-.08,0-.11,0-.23,0-.34,0l-1.44.02c-.63,0-1.26.01-1.89.02-1.26.01-2.51.03-3.77.04-2.51.03-5.03.06-7.54.08"/>
    <path class="cls-2" d="M115.19,529.85l-5.27-5.39-2.64-2.7c-.44-.45-.88-.9-1.32-1.35-.33-.34-.67-.68-1-1.03-.08-.08-.16-.16-.24-.24-.02-.02-.04-.04-.06-.06,0,0-.03-.03-.02-.02"/>
    <path class="cls-2" d="M115.19,529.85c-1.49,2.02-2.99,4.04-4.48,6.06-.75,1.01-1.49,2.02-2.24,3.03-.37.5-.75,1.01-1.12,1.52-.28.39-.57.77-.85,1.15-.07.09-.13.18-.2.27-.02.02-.03.04-.05.06,0,0-.02.04-.02.02"/>
    <path class="cls-2" d="M124.98,554.51s.04-.06.06-.09c.06-.1.12-.19.17-.29.25-.41.49-.82.74-1.23.32-.54.65-1.08.97-1.61.65-1.08,1.29-2.15,1.94-3.23,1.3-2.15,2.59-4.31,3.89-6.46"/>
    <path class="cls-2" d="M61.88,463.1c2.15-1.3,4.3-2.6,6.45-3.9,1.08-.65,2.15-1.3,3.23-1.95.54-.32,1.08-.65,1.61-.97l1.23-.74c.1-.06.19-.12.29-.17.02-.01.05-.03.07-.04,0,0,.03-.03.02-.01"/>
    <path class="cls-2" d="M84.99,470.58s-.02.01-.02.02c-.02.02-.04.03-.07.05l-.27.2c-.39.28-.77.57-1.16.85-.51.37-1.01.74-1.52,1.12-1.01.74-2.02,1.49-3.04,2.23-2.02,1.49-4.05,2.98-6.07,4.47"/>
    <path class="cls-2" d="M56.82,465.66c-2.15,1.3-4.31,2.59-6.46,3.89-1.08.65-2.15,1.3-3.23,1.94-.54.32-1.08.65-1.61.97-.41.25-.82.49-1.23.74-.1.06-.19.12-.29.17-.02.01-.05.03-.07.04,0,0-.01,0-.02.01,0,0,0,0,0,0"/>
    <path class="cls-2" d="M56.43,492.18s0,0,0,0c0,0,.01,0,.02-.01l.07-.05c.09-.07.18-.13.27-.2.39-.29.77-.57,1.16-.85.5-.37,1.01-.75,1.52-1.12,1.01-.75,2.02-1.49,3.03-2.24,2.02-1.49,4.04-2.99,6.06-4.48"/>
    <path class="cls-2" d="M33.11,383.58c2.48-.38,4.97-.76,7.45-1.13,1.24-.19,2.49-.38,3.73-.57l1.86-.28c.47-.07.95-.14,1.42-.22.11-.02.22-.03.33-.05.03,0,.05,0,.08-.01,0,0,.04-.02.03,0"/>
    <path class="cls-2" d="M51.6,399.34s0,0,0,0c0,0-.01,0-.02,0-.03,0-.05.01-.08.02-.11.03-.22.05-.33.08-.47.12-.93.23-1.4.34-.61.15-1.22.3-1.83.45-1.22.3-2.44.6-3.66.9-2.44.6-4.88,1.2-7.32,1.81"/>
    <path class="cls-2" d="M27.46,384.01c.03-2.51.06-5.03.08-7.54.01-1.26.03-2.51.04-3.77,0-.63.01-1.26.02-1.88,0-.63.02-1.25.02-1.88"/>
    <path class="cls-2" d="M37.5,418.58s0-.02-.01-.02c-.01-.02-.02-.05-.03-.07-.04-.1-.09-.21-.13-.31-.19-.44-.38-.88-.57-1.32-.25-.58-.49-1.16-.74-1.73-.49-1.16-.99-2.31-1.48-3.47-.99-2.31-1.98-4.62-2.96-6.93"/>
    <line class="cls-2" x1="74.78" y1="246.75" x2="76.4" y2="247.73"/>
    <line class="cls-2" x1="84.99" y1="231.48" x2="86.51" y2="232.59"/>
    <line class="cls-2" x1="408.25" y1="232.59" x2="409.77" y2="231.47"/>
    <line class="cls-2" x1="419.98" y1="246.75" x2="418.36" y2="247.73"/>
    <line class="cls-2" x1="464.06" y1="333.35" x2="464.37" y2="335.21"/>
    <line class="cls-2" x1="464.37" y1="366.84" x2="464.06" y2="368.7"/>
    <line class="cls-2" x1="408.25" y1="469.46" x2="409.77" y2="470.58"/>
    <line class="cls-2" x1="418.36" y1="454.33" x2="419.98" y2="455.3"/>
    <line class="cls-2" x1="76.4" y1="454.33" x2="74.78" y2="455.3"/>
    <line class="cls-2" x1="86.51" y1="469.46" x2="84.99" y2="470.58"/>
    <path class="cls-2" d="M467.3,384c-.03-2.51-.06-5.03-.08-7.54-.01-1.26-.03-2.51-.04-3.77,0-.63-.01-1.26-.02-1.88,0-.63-.02-1.25-.02-1.88"/>
  </g>
  <g id="_图层_3" data-name="图层 3">
    <path class="cls-1" d="M429.82,441.23h-3.43v-12.93c-1.25,1.17-2.73,2.04-4.43,2.6v-3.11c.9-.29,1.87-.85,2.92-1.67,1.05-.82,1.77-1.77,2.16-2.86h2.78v17.97Z"/>
    <path class="cls-1" d="M394.63,492.05v3.19h-12.02c.13-1.2.52-2.35,1.17-3.42.65-1.08,1.94-2.51,3.86-4.29,1.55-1.44,2.49-2.42,2.84-2.93.47-.71.71-1.41.71-2.1,0-.76-.21-1.35-.62-1.76s-.98-.62-1.7-.62-1.29.22-1.71.65c-.42.43-.67,1.15-.73,2.15l-3.42-.34c.2-1.89.84-3.24,1.92-4.06,1.07-.82,2.42-1.23,4.03-1.23,1.77,0,3.15.48,4.16,1.43,1.01.95,1.51,2.14,1.51,3.55,0,.81-.14,1.57-.43,2.3-.29.73-.75,1.49-1.37,2.29-.42.53-1.16,1.29-2.25,2.28-1.08.99-1.77,1.65-2.06,1.98-.29.33-.52.64-.7.95h6.81Z"/>
    <path class="cls-1" d="M317.61,532.85l3.32-.4c.11.85.39,1.49.85,1.94.46.45,1.03.67,1.68.67.71,0,1.3-.27,1.79-.81.48-.54.73-1.26.73-2.17,0-.86-.23-1.55-.7-2.05-.46-.5-1.03-.76-1.7-.76-.44,0-.96.09-1.57.26l.38-2.8c.93.02,1.64-.18,2.12-.6.49-.43.73-.99.73-1.7,0-.6-.18-1.08-.54-1.44-.36-.36-.83-.54-1.43-.54s-1.09.2-1.5.61c-.42.41-.67,1-.76,1.78l-3.16-.54c.22-1.08.55-1.95,1-2.59.44-.65,1.06-1.16,1.86-1.53.79-.37,1.68-.56,2.67-.56,1.68,0,3.04.54,4.05,1.61.84.88,1.26,1.87,1.26,2.98,0,1.57-.86,2.82-2.58,3.76,1.03.22,1.85.71,2.46,1.48.61.77.92,1.69.92,2.77,0,1.57-.57,2.91-1.72,4.02-1.15,1.11-2.58,1.66-4.28,1.66-1.62,0-2.96-.47-4.03-1.4-1.07-.93-1.68-2.15-1.86-3.66Z"/>
    <path class="cls-1" d="M245.75,553.23v-3.6h-7.32v-3l7.76-11.36h2.88v11.35h2.22v3.02h-2.22v3.6h-3.32ZM245.75,546.61v-6.12l-4.11,6.12h4.11Z"/>
    <path class="cls-1" d="M163.74,532.25l3.42-.35c.1.77.39,1.39.87,1.84.48.45,1.03.68,1.66.68.72,0,1.32-.29,1.82-.87.5-.58.74-1.46.74-2.63,0-1.1-.25-1.92-.74-2.47-.49-.55-1.13-.82-1.92-.82-.98,0-1.87.44-2.65,1.31l-2.78-.4,1.76-9.31h9.07v3.21h-6.47l-.54,3.04c.76-.38,1.55-.57,2.34-.57,1.52,0,2.81.55,3.87,1.66,1.06,1.11,1.59,2.54,1.59,4.31,0,1.47-.43,2.79-1.28,3.94-1.16,1.58-2.78,2.37-4.85,2.37-1.65,0-3-.44-4.04-1.33-1.04-.89-1.66-2.08-1.87-3.58Z"/>
    <path class="cls-1" d="M114.35,483.23l-3.32.37c-.08-.68-.29-1.19-.63-1.51-.34-.33-.79-.49-1.33-.49-.72,0-1.34.33-1.84.98-.5.65-.82,2.01-.95,4.06.85-1.01,1.92-1.51,3.19-1.51,1.43,0,2.66.55,3.68,1.64,1.02,1.09,1.53,2.5,1.53,4.22,0,1.83-.54,3.3-1.61,4.41-1.07,1.11-2.45,1.66-4.14,1.66-1.81,0-3.29-.7-4.46-2.11-1.16-1.4-1.75-3.7-1.75-6.9s.61-5.64,1.82-7.09c1.21-1.45,2.79-2.17,4.72-2.17,1.36,0,2.48.38,3.38,1.14.89.76,1.46,1.87,1.7,3.31ZM106.58,490.71c0,1.12.26,1.98.77,2.58.51.61,1.1.91,1.76.91s1.16-.25,1.59-.74c.42-.5.63-1.31.63-2.44s-.23-2.02-.68-2.56c-.46-.54-1.03-.81-1.71-.81s-1.22.26-1.67.77c-.46.52-.68,1.28-.68,2.29Z"/>
    <path class="cls-1" d="M60.41,420.35v-3.19h11.73v2.49c-.97.95-1.95,2.32-2.95,4.1s-1.76,3.68-2.29,5.68c-.52,2.01-.78,3.8-.77,5.38h-3.31c.06-2.47.57-5,1.53-7.57.96-2.57,2.25-4.87,3.86-6.9h-7.8Z"/>
    <path class="cls-1" d="M48.29,350.24c-.89-.37-1.53-.89-1.93-1.54-.4-.65-.6-1.37-.6-2.15,0-1.33.47-2.44,1.4-3.31.93-.87,2.26-1.31,3.97-1.31s3.02.44,3.96,1.31c.94.87,1.41,1.97,1.41,3.31,0,.83-.22,1.57-.65,2.22-.43.65-1.04,1.14-1.82,1.48.99.4,1.75.98,2.26,1.75.52.77.77,1.65.77,2.65,0,1.65-.53,3-1.58,4.03-1.05,1.03-2.46,1.55-4.21,1.55-1.63,0-2.98-.43-4.06-1.28-1.28-1.01-1.92-2.39-1.92-4.15,0-.97.24-1.86.72-2.67.48-.81,1.24-1.43,2.27-1.87ZM48.68,354.45c0,.94.24,1.68.73,2.21.48.53,1.09.79,1.81.79s1.29-.25,1.76-.76c.46-.51.7-1.24.7-2.2,0-.84-.24-1.51-.71-2.02-.47-.51-1.07-.76-1.79-.76-.84,0-1.46.29-1.87.87-.41.58-.62,1.2-.62,1.88ZM49,346.78c0,.68.19,1.22.58,1.6.39.38.9.57,1.54.57s1.17-.19,1.56-.58c.39-.39.59-.92.59-1.6,0-.64-.19-1.16-.58-1.54s-.9-.58-1.53-.58-1.18.2-1.57.59-.59.91-.59,1.55Z"/>
    <path class="cls-1" d="M63.02,278.47l3.32-.37c.08.68.29,1.18.63,1.5.34.33.79.49,1.35.49.71,0,1.31-.33,1.81-.98.5-.65.81-2,.95-4.05-.86,1-1.94,1.5-3.23,1.5-1.41,0-2.62-.54-3.64-1.63-1.02-1.09-1.53-2.5-1.53-4.24s.54-3.28,1.62-4.39c1.08-1.11,2.45-1.67,4.12-1.67,1.81,0,3.3.7,4.47,2.11,1.16,1.4,1.75,3.71,1.75,6.93s-.61,5.63-1.82,7.08c-1.21,1.45-2.79,2.17-4.74,2.17-1.4,0-2.53-.37-3.39-1.12-.86-.74-1.42-1.86-1.66-3.34ZM70.78,270.97c0-1.11-.25-1.97-.76-2.58-.51-.61-1.1-.92-1.76-.92s-1.16.25-1.58.75c-.42.5-.63,1.32-.63,2.46s.23,2,.68,2.54c.46.54,1.03.81,1.71.81s1.21-.26,1.67-.78c.45-.52.68-1.29.68-2.29Z"/>
    <g>
      <path class="cls-1" d="M109.34,225.2h-3.43v-12.93c-1.25,1.17-2.73,2.04-4.43,2.6v-3.11c.9-.29,1.87-.85,2.92-1.67,1.05-.82,1.77-1.77,2.16-2.86h2.78v17.97Z"/>
      <path class="cls-1" d="M120.27,207.23c1.73,0,3.09.62,4.06,1.86,1.16,1.46,1.75,3.89,1.75,7.29s-.59,5.82-1.76,7.3c-.97,1.22-2.32,1.83-4.05,1.83s-3.15-.67-4.21-2.01c-1.07-1.34-1.6-3.72-1.6-7.16s.59-5.79,1.76-7.28c.97-1.22,2.32-1.83,4.05-1.83ZM120.27,210.08c-.42,0-.79.13-1.11.4-.33.26-.58.74-.76,1.42-.24.89-.35,2.38-.35,4.48s.11,3.54.32,4.33c.21.79.48,1.31.8,1.57.32.26.69.39,1.1.39s.79-.13,1.11-.4c.33-.26.58-.74.76-1.42.24-.88.35-2.37.35-4.47s-.11-3.54-.32-4.33c-.21-.79-.48-1.31-.8-1.57-.32-.26-.69-.4-1.1-.4Z"/>
    </g>
    <g>
      <path class="cls-1" d="M167.02,182.98h-3.43v-12.93c-1.25,1.17-2.73,2.04-4.43,2.6v-3.11c.9-.29,1.87-.85,2.92-1.67,1.05-.82,1.77-1.77,2.16-2.86h2.78v17.97Z"/>
      <path class="cls-1" d="M179.54,182.98h-3.43v-12.93c-1.25,1.17-2.73,2.04-4.43,2.6v-3.11c.9-.29,1.87-.85,2.92-1.67,1.05-.82,1.77-1.77,2.16-2.86h2.78v17.97Z"/>
    </g>
    <g>
      <path class="cls-1" d="M240.48,168.33h-3.43v-12.93c-1.25,1.17-2.73,2.04-4.43,2.6v-3.11c.9-.29,1.87-.85,2.92-1.67,1.05-.82,1.77-1.77,2.16-2.86h2.78v17.97Z"/>
      <path class="cls-1" d="M257.19,165.14v3.19h-12.02c.13-1.2.52-2.35,1.17-3.42.65-1.08,1.94-2.51,3.86-4.29,1.55-1.44,2.49-2.42,2.84-2.93.47-.71.71-1.41.71-2.1,0-.76-.21-1.35-.62-1.76s-.98-.62-1.7-.62-1.29.22-1.71.65c-.42.43-.67,1.15-.73,2.15l-3.42-.34c.2-1.89.84-3.24,1.92-4.06,1.07-.82,2.42-1.23,4.03-1.23,1.77,0,3.15.48,4.16,1.43,1.01.95,1.51,2.14,1.51,3.55,0,.81-.14,1.57-.43,2.3-.29.73-.75,1.49-1.37,2.29-.42.53-1.16,1.29-2.25,2.28-1.08.99-1.77,1.65-2.06,1.98-.29.33-.52.64-.7.95h6.81Z"/>
    </g>
    <g>
      <path class="cls-1" d="M321.44,183.65h-3.43v-12.93c-1.25,1.17-2.73,2.04-4.43,2.6v-3.11c.9-.29,1.87-.85,2.92-1.67,1.05-.82,1.77-1.77,2.16-2.86h2.78v17.97Z"/>
      <path class="cls-1" d="M326.44,178.91l3.32-.4c.11.85.39,1.49.85,1.94.46.45,1.03.67,1.68.67.71,0,1.3-.27,1.79-.81.48-.54.73-1.26.73-2.17,0-.86-.23-1.55-.7-2.05-.46-.5-1.03-.76-1.7-.76-.44,0-.96.09-1.57.26l.38-2.8c.93.02,1.64-.18,2.12-.6.49-.43.73-.99.73-1.7,0-.6-.18-1.08-.54-1.44-.36-.36-.83-.54-1.43-.54s-1.09.2-1.5.61c-.42.41-.67,1-.76,1.78l-3.16-.54c.22-1.08.55-1.95,1-2.59.44-.65,1.06-1.16,1.86-1.53.79-.37,1.68-.56,2.67-.56,1.68,0,3.04.54,4.05,1.61.84.88,1.26,1.87,1.26,2.98,0,1.57-.86,2.82-2.58,3.76,1.03.22,1.85.71,2.46,1.48.61.77.92,1.69.92,2.77,0,1.57-.57,2.91-1.72,4.02-1.15,1.11-2.58,1.66-4.28,1.66-1.62,0-2.96-.47-4.03-1.4-1.07-.93-1.68-2.15-1.86-3.66Z"/>
    </g>
    <g>
      <path class="cls-1" d="M379.62,230.15h-3.43v-12.93c-1.25,1.17-2.73,2.04-4.43,2.6v-3.11c.9-.29,1.87-.85,2.92-1.67,1.05-.82,1.77-1.77,2.16-2.86h2.78v17.97Z"/>
      <path class="cls-1" d="M391.47,230.15v-3.6h-7.32v-3l7.76-11.36h2.88v11.35h2.22v3.02h-2.22v3.6h-3.32ZM391.47,223.54v-6.12l-4.11,6.12h4.11Z"/>
    </g>
    <g>
      <path class="cls-1" d="M414.79,285.1h-3.43v-12.93c-1.25,1.17-2.73,2.04-4.43,2.6v-3.11c.9-.29,1.87-.85,2.92-1.67,1.05-.82,1.77-1.77,2.16-2.86h2.78v17.97Z"/>
      <path class="cls-1" d="M419.96,280.49l3.42-.35c.1.77.39,1.39.87,1.84.48.45,1.03.68,1.66.68.72,0,1.32-.29,1.82-.87.5-.58.74-1.46.74-2.63,0-1.1-.25-1.92-.74-2.47-.49-.55-1.13-.82-1.92-.82-.98,0-1.87.44-2.65,1.31l-2.78-.4,1.76-9.31h9.07v3.21h-6.47l-.54,3.04c.76-.38,1.55-.57,2.34-.57,1.52,0,2.81.55,3.87,1.66,1.06,1.11,1.59,2.54,1.59,4.31,0,1.47-.43,2.79-1.28,3.94-1.16,1.58-2.78,2.37-4.85,2.37-1.65,0-3-.44-4.04-1.33-1.04-.89-1.66-2.08-1.87-3.58Z"/>
    </g>
  </g>
</svg>