<?xml version="1.0" encoding="UTF-8"?>
<svg xmlns="http://www.w3.org/2000/svg" viewBox="0 0 595.28 473.51">
  <defs>
    <style>
      .cls-1, .cls-2, .cls-3, .cls-4, .cls-5, .cls-6 {
        fill: none;
      }

      .cls-1, .cls-2, .cls-3, .cls-5, .cls-6 {
        stroke: red;
        stroke-width: 4px;
      }

      .cls-2 {
        stroke-dasharray: 0 0 10.88 10.88;
      }

      .cls-7 {
        fill: red;
      }

      .cls-7, .cls-8 {
        stroke-width: 0px;
      }

      .cls-3 {
        stroke-dasharray: 0 0 12.36 12.36;
      }

      .cls-4 {
        stroke: #000;
        stroke-linecap: round;
        stroke-linejoin: round;
      }

      .cls-8 {
        fill: #bfbfbf;
      }

      .cls-5 {
        stroke-dasharray: 0 0 12.53 12.53;
      }

      .cls-6 {
        stroke-dasharray: 0 0 11.61 11.61;
      }
    </style>
  </defs>
  <g id="_图层_3" data-name="图层 3">
    <polygon class="cls-8" points="64.39 69.38 61.71 67.74 59.8 68.54 57.52 70.63 56.18 73.57 55.92 75.6 56.83 76.5 58.67 77.63 60.61 76.75 61.04 76.5 95.4 99.17 96.91 97.99 98 96.28 98.15 94.72 64.17 72.12 64.42 70.99 64.39 69.38"/>
    <polygon class="cls-8" points="571.22 96.64 573.94 96.07 575.26 97.33 576.49 99.78 576.67 102.67 576.26 104.46 575.23 104.94 573.36 105.32 572.04 104 571.76 103.65 536.39 112.29 535.52 110.84 535.15 109.06 535.51 107.7 570.54 99.01 570.69 97.98 571.22 96.64"/>
    <polygon class="cls-8" points="32.16 247.98 29.06 248.69 27.52 247.28 26.04 244.51 25.76 241.22 26.19 239.17 27.36 238.59 29.49 238.11 31.04 239.6 31.36 239.99 71.68 229.4 72.72 231.04 73.18 233.06 72.8 234.62 32.88 245.26 32.73 246.44 32.16 247.98"/>
    <polygon class="cls-8" points="521.44 384.44 523.78 385.9 525.44 385.18 527.43 383.32 528.59 380.7 528.81 378.9 528.01 378.1 526.4 377.11 524.72 377.89 524.34 378.12 494.28 358.07 492.97 359.12 492.02 360.65 491.89 362.04 521.62 382.01 521.41 383.02 521.44 384.44"/>
  </g>
  <g id="Make2D::可见线::正切线">
    <line class="cls-4" x1="436.24" y1="428.48" x2="436.43" y2="490.13"/>
    <path class="cls-4" d="M408.01,27.76c-.08,1.03-.59,1.9-1.25,2.63-.42.47-.89.87-1.4,1.24-.61.44-1.24.83-1.91,1.18-.95.51-1.93.94-2.94,1.33-1.2.47-2.42.87-3.66,1.24-4.38,1.29-9.37,2.21-13.88,2.85-9.09,1.3-19.11,1.91-28.26,2.14"/>
    <path class="cls-4" d="M297.03,38.05c-12.6-1.29-26.23-3.22-38.61-5.96-6.14-1.35-12.88-3.11-18.8-5.27-1.67-.61-3.32-1.26-4.94-2-1.35-.61-2.68-1.27-3.96-2.02-.94-.55-1.84-1.13-2.69-1.8-.7-.54-1.34-1.13-1.91-1.81-.45-.53-.85-1.13-1.11-1.79-.22-.56-.33-1.14-.29-1.74"/>
    <path class="cls-4" d="M469.29,467.78c-.83-1.98-1.63-3.97-2.37-5.98-.75-2.01-1.45-4.04-2.09-6.09-1.29-4.11-2.32-8.26-3.13-12.48-.4-2.11-.75-4.23-1.05-6.35-.3-2.13-.54-4.26-.74-6.39-.4-4.28-.63-8.56-.73-12.86"/>
    <path class="cls-4" d="M230.92,437.98c-1.05,4.72-2.23,9.41-3.55,14.06-1.32,4.65-2.77,9.26-4.36,13.83-.79,2.28-1.62,4.56-2.47,6.82-.43,1.13-.86,2.26-1.3,3.39-.44,1.13-.88,2.25-1.33,3.37-1.79,4.49-3.64,8.96-5.42,13.45"/>
    <path class="cls-4" d="M280.42,2.47s0,0-.01,0"/>
    <path class="cls-4" d="M178.39,448.95c-.42-.03-.83-.07-1.25-.12-.25-.03-.99-.12-1.24-.2"/>
    <path class="cls-4" d="M178.53,447.94c-.05.34-.09.67-.14,1.01"/>
    <path class="cls-4" d="M210.57,492.11c.96-2.21,1.95-4.41,2.95-6.62.99-2.2,1.99-4.4,2.97-6.6.98-2.21,1.94-4.42,2.88-6.64.94-2.22,1.85-4.46,2.73-6.7.88-2.25,1.73-4.51,2.53-6.78.81-2.27,1.58-4.56,2.32-6.86.74-2.3,1.43-4.61,2.09-6.93.61-2.16,1.33-4.81,1.87-6.99"/>
    <path class="cls-4" d="M285.53,10.48c17.83-.36,37.7.88,55.36,3.35,8.83,1.23,18.6,2.99,27.22,5.34,2.46.67,4.89,1.4,7.29,2.25,1.95.69,3.92,1.47,5.78,2.36.81.39,1.6.8,2.37,1.26.66.39,1.29.8,1.9,1.27.51.39.98.8,1.41,1.26.36.38.67.79.92,1.25,1.04,1.94.08,3.52-1.44,4.73"/>
    <path class="cls-4" d="M242.34,23.73c-1.71-1.86-1.83-3.76.08-5.54.67-.62,1.47-1.13,2.26-1.56,1.06-.57,2.15-1.02,3.28-1.42,3.77-1.34,8.4-2.24,12.32-2.84,8.05-1.22,17.12-1.74,25.24-1.91"/>
    <path class="cls-4" d="M350.2,37.75c-3.66.09-7.32.12-10.98.1-1.9-.01-3.79-.04-5.69-.08-1.93-.04-3.85-.09-5.78-.16-7.5-.26-14.98-.72-22.45-1.37-14.36-1.25-30.31-3.38-44.4-6.59-4.08-.92-8.11-1.96-12.11-3.2-1.69-.52-3.37-1.08-5.04-1.7-1.45-.53-2.88-1.11-4.29-1.74-1.29-.58-2.54-1.2-3.76-1.92-.98-.57-1.92-1.19-2.79-1.92-.66-.55-1.3-1.18-1.79-1.9-.38-.56-.68-1.18-.78-1.86-.09-.62,0-1.22.24-1.79.28-.66.73-1.22,1.24-1.71.66-.63,1.44-1.15,2.22-1.6,1.02-.58,2.08-1.06,3.17-1.48,1.38-.54,2.78-.98,4.21-1.38,1.69-.47,3.39-.87,5.11-1.21,1.97-.4,3.95-.74,5.94-1.04,2.23-.33,4.46-.61,6.7-.85,1.73-.18,3.45-.34,5.18-.48,1.83-.15,3.66-.27,5.49-.38,3.92-.23,7.83-.37,11.75-.44"/>
    <path class="cls-4" d="M469.29,467.78c.2-.13.38-.26.55-.43.12-.12.36-.39.29-.6"/>
    <path class="cls-4" d="M190.3,452.81c-.02.21-.05.41-.08.62"/>
    <path class="cls-4" d="M178.39,448.95c-.23,1.72-.43,3.44-.6,5.17-.17,1.73-.3,3.45-.34,5.19-.04,1.62,0,3.57.37,5.17.11.46.24.91.43,1.34.16.37.36.7.62,1.01.6.71,1.39,1.01,2.31.93"/>
    <path class="cls-4" d="M280.42,2.47c-2.18.04-4.35.1-6.52.19-2.08.08-4.15.18-6.22.3-3.86.23-7.71.54-11.56.96-2.43.27-4.85.58-7.26.95-2.14.33-4.28.71-6.4,1.15-1.86.39-3.7.83-5.53,1.36-1.55.45-3.07.95-4.57,1.55-1.17.47-2.31,1-3.4,1.64-.85.5-1.69,1.09-2.4,1.78-.55.54-1.05,1.17-1.36,1.9-.27.63-.36,1.29-.28,1.97.1.74.41,1.43.81,2.04.52.79,1.2,1.49,1.91,2.09.43.37.89.72,1.35,1.05.52.37,1.06.71,1.61,1.04,1.3.78,2.63,1.45,4.01,2.08,1.53.7,3.08,1.33,4.65,1.91,1.79.67,3.61,1.28,5.44,1.84,2.05.64,4.11,1.22,6.19,1.77,2.31.61,4.62,1.16,6.95,1.68,1.85.41,3.71.8,5.57,1.18,1.95.39,3.9.76,5.86,1.1,2.04.36,4.09.7,6.14,1.03,2.13.34,4.27.65,6.41.95,1.97.27,3.94.53,5.92.78,2,.25,4.01.48,6.01.7,2.03.22,4.06.43,6.1.63,2.06.2,4.12.38,6.18.55,2.03.17,4.05.32,6.08.46,2.04.14,4.09.27,6.13.39,2.03.12,4.05.22,6.08.31,2.01.09,4.01.17,6.02.23,4.15.13,8.29.21,12.44.23,2.02,0,4.03,0,6.05-.02,1.95-.02,3.91-.05,5.86-.1"/>
    <path class="cls-4" d="M281.6,3.05c3.6-.07,7.19-.08,10.78-.04,1.85.02,3.7.05,5.55.1,1.88.05,3.75.11,5.63.18,7.33.28,14.65.75,21.96,1.4,14.06,1.26,29.63,3.37,43.43,6.5,3.96.9,7.88,1.9,11.77,3.09,1.66.51,3.32,1.05,4.95,1.65,1.44.52,2.86,1.08,4.26,1.7,1.27.56,2.52,1.16,3.74,1.85.99.56,1.95,1.16,2.85,1.86.7.54,1.38,1.16,1.92,1.85.42.54.79,1.15.97,1.83.36,1.34-.12,2.51-.99,3.49-.56.63-1.26,1.17-1.96,1.62-.93.6-1.91,1.08-2.92,1.51-1.3.56-2.63,1.01-3.99,1.42-1.63.49-3.27.9-4.93,1.27-1.93.42-3.88.78-5.83,1.09-2.21.36-4.43.65-6.65.91-3.45.4-6.91.69-10.38.92-3.85.25-7.69.41-11.55.51"/>
    <path class="cls-4" d="M354.66,40.17c2.14-.06,4.27-.13,6.41-.22,2.03-.09,4.06-.2,6.08-.34,3.74-.25,7.47-.57,11.2-1,2.41-.28,4.82-.6,7.22-.99,2.1-.34,4.19-.73,6.27-1.19,1.79-.4,3.56-.84,5.32-1.38,1.47-.45,2.91-.95,4.31-1.56,1.09-.47,2.13-.99,3.13-1.64.76-.49,1.5-1.07,2.1-1.76.93-1.07,1.44-2.34,1.04-3.79-.2-.73-.6-1.39-1.06-1.98-.6-.76-1.34-1.43-2.1-2.02-.97-.76-2.01-1.41-3.08-2.02-1.31-.74-2.65-1.39-4.03-1.99-1.52-.67-3.06-1.28-4.63-1.85-1.77-.64-3.55-1.23-5.35-1.79-4.19-1.29-8.42-2.38-12.69-3.35-1.82-.41-3.64-.81-5.46-1.18-1.9-.39-3.8-.76-5.71-1.11-1.98-.36-3.97-.71-5.96-1.04-2.07-.34-4.14-.66-6.21-.97-1.92-.28-3.84-.55-5.77-.8-1.95-.26-3.91-.5-5.86-.73-1.98-.23-3.96-.45-5.94-.65-2-.21-4.01-.4-6.02-.58-1.97-.18-3.94-.34-5.91-.49-1.99-.15-3.98-.29-5.97-.42-1.98-.13-3.95-.24-5.93-.34-1.96-.1-3.92-.19-5.88-.27-4.03-.16-8.05-.26-12.08-.3-1.97-.02-3.94-.03-5.91-.02-1.92,0-3.83.03-5.75.06"/>
    <line class="cls-4" x1="187.99" y1="452.38" x2="189.22" y2="452.43"/>
    <line class="cls-4" x1="402.02" y1="434.5" x2="402.58" y2="433.67"/>
    <path class="cls-4" d="M109.71,218.17c-.04-.08-.05-.15-.04-.24"/>
    <path class="cls-4" d="M183.81,433.81c-1.39.12-2.23,1.59-2.69,2.62-.52,1.14-.91,2.53-1.2,3.74-.58,2.39-1.04,5.33-1.38,7.75"/>
    <path class="cls-4" d="M190.05,452.7s.03.04.05.05c.02,0,.04.02.07.03.04.02.09.03.13.04"/>
    <path class="cls-4" d="M108.66,226.51c-1.13-1.83-1.89-4.42-2.04-6.55-.04-.58-.05-1.15.02-1.73.04-.33.09-.64.19-.96.08-.24.17-.47.32-.68.43-.59.99-.47,1.49-.04.2.17.36.36.52.57.19.26.36.53.51.81"/>
    <line class="cls-4" x1="61.88" y1="75.19" x2="96.65" y2="98.29"/>
    <line class="cls-4" x1="59.03" y1="74.49" x2="61.22" y2="75.95"/>
    <line class="cls-4" x1="32.19" y1="244.33" x2="73.17" y2="233.57"/>
    <path class="cls-4" d="M127.15,121.84c-.09.08-.09.13-.13.23"/>
    <line class="cls-4" x1="595.05" y1="67.76" x2="468.11" y2="71.7"/>
    <path class="cls-4" d="M237.62,519.69c0-1.37,0-2.74.05-4.11.04-1.36.11-2.72.2-4.08.18-2.69.47-5.37.86-8.04.4-2.7.91-5.36,1.56-8.01.32-1.32.68-2.63,1.07-3.94.39-1.29.82-2.56,1.29-3.82.95-2.56,2.06-5.03,3.42-7.41,1.33-2.33,2.91-4.59,4.78-6.53,1.84-1.91,3.99-3.56,6.45-4.62,2.59-1.12,5.32-1.5,8.11-1.09,2.71.39,5.23,1.5,7.48,2.98,1.15.76,2.21,1.6,3.22,2.53,1,.92,1.94,1.89,2.82,2.92,1.77,2.07,3.33,4.36,4.68,6.71,1.35,2.35,2.5,4.77,3.52,7.27.51,1.27.99,2.55,1.43,3.84.44,1.29.84,2.59,1.21,3.91.73,2.6,1.32,5.23,1.8,7.89.48,2.67.83,5.35,1.08,8.05.12,1.35.21,2.7.28,4.06.06,1.36.1,2.72.1,4.08"/>
    <line class="cls-4" x1="300.72" y1="546.07" x2="300.22" y2="440.81"/>
    <line class="cls-4" x1="230.92" y1="437.98" x2="231.49" y2="542.7"/>
    <line class="cls-4" x1="348.72" y1="398.98" x2="348.05" y2="398.58"/>
    <path class="cls-4" d="M437.79,392.6c-.58-1.14-.8-2.56-.82-3.81-.01-1.29.18-2.63.59-3.86.21-.63.47-1.22.82-1.78.33-.54.77-1.08,1.32-1.43.58-.37,1.22-.48,1.86-.13.27.15.48.35.67.58.23.28.4.59.55.92"/>
    <path class="cls-4" d="M214.39,11.08c-1.14.49-2.26,1.03-3.33,1.66-.89.52-1.73,1.1-2.5,1.78-.62.55-1.19,1.17-1.62,1.88-.37.6-.63,1.25-.74,1.95-.1.69-.05,1.36.14,2.03.21.76.59,1.45,1.04,2.09.55.78,1.22,1.48,1.92,2.11.88.79,1.82,1.48,2.8,2.13,1.22.81,2.49,1.53,3.8,2.21,1.53.79,3.09,1.51,4.68,2.19,1.82.77,3.66,1.48,5.52,2.15,2.1.75,4.22,1.45,6.36,2.11,1.63.5,3.26.97,4.9,1.43,1.73.48,3.47.94,5.22,1.38,3.77.95,7.57,1.82,11.38,2.61,3.51.73,7.03,1.41,10.56,2.04,1.86.33,3.72.65,5.58.95,1.9.31,3.79.61,5.7.89,1.78.27,3.56.53,5.35.77,1.81.25,3.63.49,5.45.72,1.85.23,3.7.46,5.55.67,1.88.22,3.77.43,5.65.63,1.84.19,3.67.38,5.51.55,1.84.18,3.69.34,5.53.5,3.68.31,7.37.58,11.05.82,3.7.24,7.39.44,11.09.6,1.84.08,3.69.15,5.53.21,1.84.06,3.69.11,5.53.15,3.78.08,7.57.13,11.35.12,1.83,0,3.65-.02,5.48-.04,1.78-.03,3.56-.06,5.34-.11"/>
    <path class="cls-4" d="M364.21,50.26c1.69-.05,3.38-.1,5.06-.17,1.64-.07,3.29-.14,4.93-.23,1.69-.09,3.38-.19,5.07-.3,1.64-.11,3.27-.23,4.91-.37,6.54-.55,13.38-1.34,19.84-2.51,3.29-.59,6.54-1.29,9.76-2.18,1.76-.49,3.5-1.03,5.21-1.67,1.42-.53,2.8-1.12,4.14-1.83.96-.51,1.89-1.07,2.75-1.73.69-.53,1.35-1.13,1.89-1.82.86-1.11,1.35-2.39,1.14-3.83-.1-.65-.31-1.22-.61-1.79-.36-.67-.8-1.26-1.3-1.82-.6-.67-1.26-1.26-1.96-1.82-.83-.66-1.7-1.26-2.6-1.82"/>
    <path class="cls-4" d="M279.99,2.27c1.96-.04,3.91-.06,5.87-.07,1.99,0,3.97,0,5.96.02,2.02.02,4.04.06,6.06.11,2.05.05,4.1.12,6.15.2,2.01.08,4.01.17,6.01.27,2.01.1,4.02.22,6.03.35,3.99.26,7.97.57,11.95.92,2.03.18,4.06.38,6.09.59,2.02.21,4.04.43,6.06.67,3.91.46,7.82.97,11.72,1.55,7.88,1.16,15.88,2.58,23.64,4.35,2.25.51,4.49,1.06,6.72,1.65,2.05.54,4.09,1.12,6.12,1.75,1.83.56,3.64,1.17,5.44,1.82,1.57.57,3.12,1.19,4.65,1.86,1.39.61,2.75,1.27,4.07,2.02,1.09.62,2.14,1.28,3.13,2.05.76.59,1.5,1.27,2.1,2.03.47.59.87,1.26,1.07,2,.41,1.47-.09,2.75-1.04,3.84-.6.69-1.35,1.28-2.11,1.78-1.01.66-2.08,1.19-3.18,1.67-1.42.61-2.87,1.12-4.35,1.57-1.77.54-3.56.99-5.37,1.39-2.12.47-4.25.87-6.4,1.21-2.42.39-4.85.72-7.28,1-1.82.21-3.65.4-5.48.56-1.95.17-3.9.32-5.86.45-4.21.28-8.42.46-12.64.57"/>
    <path class="cls-4" d="M290.55,522.21c0-1.31-.04-2.61-.09-3.92-.06-1.3-.14-2.6-.25-3.9-.21-2.59-.53-5.16-.95-7.73-.42-2.56-.95-5.09-1.6-7.61-.65-2.54-1.42-5.03-2.34-7.48-.91-2.44-1.94-4.81-3.16-7.11-1.21-2.29-2.61-4.54-4.21-6.58-.81-1.04-1.68-2.03-2.61-2.96-.94-.93-1.93-1.79-3-2.56-1.06-.76-2.16-1.41-3.36-1.94-1.18-.52-2.37-.89-3.65-1.08-2.66-.41-5.24.03-7.65,1.21-1.17.57-2.22,1.27-3.23,2.09-1.01.83-1.92,1.74-2.77,2.73-1.67,1.95-3.08,4.18-4.26,6.45-1.21,2.34-2.19,4.76-3.04,7.25-.41,1.22-.79,2.45-1.13,3.69-.35,1.26-.66,2.52-.95,3.8-.57,2.55-1.02,5.12-1.37,7.72-.35,2.56-.6,5.13-.76,7.72-.08,1.3-.14,2.61-.18,3.91-.04,1.31-.05,2.63-.04,3.94"/>
    <path class="cls-4" d="M355.14,40.47c-1.99.05-3.99.08-5.98.1-2.04.02-4.07.03-6.11.02-2.08,0-4.15-.03-6.23-.07-2.12-.04-4.23-.09-6.35-.16-2.05-.07-4.1-.14-6.15-.23-2.06-.09-4.13-.2-6.19-.31-2.06-.12-4.11-.25-6.16-.39-2.04-.14-4.09-.3-6.13-.46-4.16-.34-8.32-.74-12.47-1.19-2.04-.22-4.08-.46-6.12-.71-1.98-.24-3.96-.5-5.94-.78-2.15-.3-4.3-.62-6.45-.95-2.08-.33-4.15-.67-6.22-1.04-2-.35-3.99-.73-5.98-1.12-1.89-.37-3.77-.77-5.64-1.19-4.45-.99-8.94-2.13-13.3-3.48-1.87-.58-3.72-1.2-5.56-1.88-1.58-.59-3.14-1.22-4.68-1.93-1.38-.63-2.73-1.32-4.04-2.1-1.05-.63-2.08-1.33-3.01-2.13-.71-.61-1.39-1.31-1.91-2.11-.4-.62-.71-1.31-.81-2.06-.09-.7.02-1.37.29-2.02.31-.73.82-1.37,1.38-1.92.72-.7,1.57-1.3,2.43-1.8,1.11-.66,2.27-1.2,3.47-1.68,1.52-.61,3.06-1.12,4.63-1.58,1.84-.53,3.7-.98,5.58-1.38,2.16-.46,4.34-.85,6.52-1.19,2.44-.38,4.88-.69,7.34-.97,3.89-.43,7.79-.75,11.71-.98,2.12-.13,4.23-.23,6.35-.31,2.19-.08,4.38-.15,6.57-.19"/>
    <path class="cls-4" d="M166.44,462.25c-.65,1.86-1.34,3.7-2.06,5.53-.73,1.83-1.49,3.64-2.28,5.44"/>
    <path class="cls-4" d="M376.15,196.4s-.03,0-.04-.02"/>
    <path class="cls-4" d="M173.81,96.94c-.07,2.3.1,4.55.48,6.82.4,2.39,1.02,4.7,1.84,6.98.87,2.45,1.93,4.78,3.15,7.07,1.33,2.49,2.83,4.86,4.47,7.16,2.76,3.86,5.91,7.49,9.24,10.87,1.82,1.84,3.71,3.62,5.65,5.33,1.01.9,2.04,1.77,3.08,2.64,1.07.89,2.15,1.76,3.25,2.62.92.72,1.85,1.43,2.79,2.13.96.72,1.93,1.42,2.91,2.12,2.02,1.44,4.08,2.83,6.16,4.18,2.17,1.41,4.36,2.77,6.59,4.09,1.13.67,2.27,1.33,3.42,1.99,1.16.66,2.34,1.31,3.51,1.95,2.13,1.16,4.28,2.28,6.44,3.37,2.22,1.12,4.46,2.2,6.72,3.25,1.15.53,2.3,1.06,3.46,1.58,1.17.52,2.35,1.04,3.53,1.55,2.41,1.04,4.84,2.04,7.28,3,2.31.92,4.64,1.8,6.97,2.65,2.36.86,4.73,1.69,7.11,2.5,4.83,1.63,9.69,3.12,14.59,4.5,2.4.67,4.8,1.32,7.22,1.94,2.43.62,4.88,1.21,7.32,1.78,2.47.57,4.94,1.1,7.43,1.61,1.25.25,2.5.5,3.76.74,1.26.24,2.51.47,3.77.7,2.52.45,5.05.87,7.59,1.25,2.5.38,5.01.73,7.53,1.05,2.49.31,4.98.6,7.48.85,2.47.25,4.95.46,7.43.64,2.58.19,5.17.34,7.76.45,2.56.11,5.12.19,7.68.22,1.26.02,2.53.02,3.79.02,1.24,0,2.48-.02,3.72-.04,2.43-.05,4.87-.13,7.3-.25"/>
    <path class="cls-4" d="M147.61,45.91s0,0,0,0"/>
    <path class="cls-4" d="M42.52,181.54s0,0,0,0"/>
    <path class="cls-4" d="M428.53,75.38c.03-1.84-.14-3.83-.4-5.65-.27-1.88-.65-3.72-1.17-5.54-.52-1.83-1.15-3.59-1.96-5.31-.8-1.7-1.77-3.35-2.94-4.83"/>
    <path class="cls-4" d="M424.39,27.62c.89.6,1.74,1.24,2.53,1.96.65.59,1.25,1.22,1.77,1.94.79,1.1,1.36,2.39,1.24,3.81-.13,1.41-.9,2.58-1.84,3.53-.62.63-1.31,1.17-2.05,1.66-.9.6-1.84,1.12-2.81,1.59-1.37.66-2.77,1.22-4.21,1.73-1.69.6-3.41,1.11-5.15,1.57-3.2.85-6.44,1.52-9.71,2.1-1.58.28-3.17.53-4.76.77-1.69.25-3.38.47-5.07.68-1.6.19-3.21.37-4.81.53-1.69.17-3.37.32-5.06.46-1.62.13-3.24.25-4.86.36-1.69.11-3.37.21-5.06.3-1.63.09-3.27.16-4.9.22-1.67.07-3.35.12-5.03.17"/>
    <path class="cls-4" d="M195.7,23.84c.22-.24.45-.47.69-.7.08-.07.16-.15.25-.22.02-.02.04-.03.07-.05,0,0,.02-.01.03,0,0,.02-.01.03-.02.05-.02.03-.04.06-.06.09-.08.1-.16.2-.24.29-.43.5-.87.98-1.31,1.47-.87.98-1.72,1.97-2.55,2.99"/>
    <path class="cls-4" d="M212.25,12.04c.35-.16.7-.32,1.06-.48"/>
    <path class="cls-4" d="M196.62,23.14s-.01,0-.02,0c-.02.01-.04.03-.06.04-.08.06-.15.13-.22.21-.09.09-.19.19-.28.29-.19.19-.36.39-.54.59-.36.4-.7.81-1.03,1.23"/>
    <path class="cls-4" d="M422.55,72.5c-.67-1.32-1.34-2.64-1.99-3.96-.66-1.32-1.32-2.65-1.97-3.97-1.11-2.25-2.83-5.7-3.83-8-.31-.72-.61-1.44-.88-2.18-.24-.65-.45-1.31-.59-2-.09-.42-.15-.84-.14-1.27,0-.35.06-.71.21-1.03.34-.71,1.03-.93,1.74-.92.67,0,1.34.2,1.95.45.76.31,1.45.71,2.12,1.18,1.2.85,2.29,1.91,3.22,3.04"/>
    <path class="cls-4" d="M376.22,196.22c8.57-.44,17.29-1.41,25.72-3.06,2.16-.42,4.31-.89,6.45-1.42,2.06-.5,4.1-1.05,6.14-1.66,2.14-.64,4.25-1.33,6.34-2.09,1.97-.72,3.91-1.49,5.83-2.34,7.74-3.4,15.47-8.1,21.23-14.53,1.49-1.66,2.82-3.4,4.01-5.29,1.13-1.79,2.07-3.65,2.85-5.62.8-2.04,1.38-4.1,1.75-6.25.37-2.14.51-4.26.45-6.43"/>
    <path class="cls-4" d="M305.78,79.45c-.58,1.19-1.33,2.54-2.19,3.56-.86,1.01-2.12,2.06-3.62,1.45-1.23-.51-2.2-2-2.77-3.05-.65-1.2-1.21-2.57-1.64-3.85-.45-1.33-.82-2.67-1.13-4.04s-.55-2.74-.72-4.13c-.33-2.68-.43-5.66.06-8.35"/>
    <path class="cls-4" d="M192.55,27.76s-.07.09-.11.13"/>
    <path class="cls-4" d="M192.45,27.9c-.78.97-1.53,1.96-2.25,2.98-.72,1.01-1.41,2.05-2.08,3.1s-1.29,2.13-1.89,3.22-1.17,2.2-1.7,3.33"/>
    <path class="cls-4" d="M422.37,53.83c.92,1.11,1.71,2.29,2.41,3.55.7,1.25,1.3,2.55,1.82,3.89,1.03,2.64,1.75,5.49,2.18,8.29.22,1.42.36,2.83.42,4.27.05,1.32.03,2.97-.23,4.28-.07.36-.18.77-.34,1.11-.12.26-.32.57-.62.68-.32.11-.64-.04-.88-.21-.32-.23-.63-.57-.87-.87-.81-1-1.67-2.52-2.28-3.64"/>
    <path class="cls-4" d="M423.42,26.99c.32.2.64.41.96.63"/>
    <path class="cls-4" d="M192.68,27.97s-.06-.06-.09-.09c-.01-.02-.03-.04-.04-.05,0-.01-.02-.04,0-.06"/>
    <path class="cls-4" d="M293.77,61.05c.28-1.53.77-3.07,1.59-4.42.83-1.36,1.97-2.47,3.43-3.15,1.43-.67,3.06-.87,4.61-.58,1.58.29,2.98,1.07,4.05,2.26,1.07,1.19,1.69,2.68,2.03,4.21.34,1.53.4,3.15.33,4.7-.14,3.05-.83,6.37-1.7,9.27"/>
    <path class="cls-4" d="M349.88,404.5c1.68-.09,3.2-.94,4.22-2.26"/>
    <path class="cls-4" d="M354.09,402.23c.2.1.79.55.96.69"/>
    <path class="cls-4" d="M364.37,51.22c0-.07.02-.14.05-.2"/>
    <path class="cls-4" d="M364.62,51.01c-3.62.1-7.23.15-10.85.16-3.79,0-7.58-.03-11.37-.12-1.85-.04-3.69-.09-5.54-.15-1.85-.06-3.7-.13-5.55-.21-1.85-.08-3.7-.17-5.55-.27-1.86-.1-3.71-.21-5.56-.32-3.7-.23-7.39-.5-11.08-.81-3.69-.31-7.38-.65-11.07-1.04-1.89-.2-3.78-.4-5.67-.62-1.85-.21-3.71-.44-5.56-.67-3.61-.46-7.22-.95-10.82-1.49-1.9-.28-3.8-.58-5.7-.89-1.86-.3-3.73-.62-5.58-.94-3.54-.62-7.07-1.29-10.6-2.02-3.81-.79-7.61-1.64-11.39-2.58-3.41-.85-6.8-1.76-10.17-2.77-3.99-1.2-7.99-2.55-11.85-4.12-1.6-.65-3.19-1.35-4.74-2.12-1.34-.66-2.66-1.36-3.93-2.15-1.07-.66-2.11-1.36-3.08-2.16-.8-.65-1.54-1.34-2.19-2.14-.52-.63-.98-1.33-1.29-2.09-.26-.65-.41-1.33-.4-2.04.02-.7.19-1.36.49-1.98.34-.72.83-1.35,1.37-1.92.66-.68,1.44-1.28,2.23-1.81.99-.65,2.02-1.2,3.08-1.7"/>
    <line class="cls-4" x1="298.7" y1="82.99" x2="298.35" y2="54.05"/>
    <path class="cls-4" d="M294.17,61.23c-.14.84-.23,1.68-.28,2.53"/>
    <path class="cls-4" d="M30.86,108.66c-.18.32-.33.67-.47,1.01-.14.34-.28.69-.43,1.03-.3.68-.62,1.35-.97,2-.36.65-.73,1.29-1.12,1.93-.38.64-.78,1.27-1.14,1.91"/>
    <path class="cls-4" d="M345.59,395.52s0,0,0,0c0,0,0,0-.01-.01-.02-.02-.03-.03-.05-.04-.02-.02-.05-.04-.07-.06-.05-.04-.09-.07-.14-.11-.09-.07-.19-.15-.28-.22"/>
    <path class="cls-4" d="M42.4,181.51s.13,0,.16,0"/>
    <path class="cls-4" d="M108.05,293.51s0,0,.01,0"/>
    <path class="cls-4" d="M457,147.95c.06,2.17-.08,4.29-.45,6.43-.37,2.16-.94,4.22-1.75,6.25-1.6,4.06-3.97,7.69-6.86,10.91-5.77,6.42-13.49,11.13-21.24,14.53-1.92.85-3.87,1.62-5.85,2.34-2.09.76-4.2,1.45-6.33,2.08-2.03.6-4.07,1.15-6.12,1.65-2.14.52-4.3.99-6.46,1.42-4.25.83-8.51,1.48-12.81,1.99-4.3.5-8.6.85-12.91,1.07"/>
    <path class="cls-4" d="M346.58,403.56c.97.67,2.12.99,3.29.93"/>
    <path class="cls-4" d="M174.76,106.56c0-.1.12-.17.21-.16"/>
    <path class="cls-4" d="M352.03,393.61c.69.44,1.27,1.04,1.68,1.74"/>
    <path class="cls-4" d="M174.98,106.4c.02.09.04.18.07.27"/>
    <path class="cls-4" d="M174.76,106.56c-.41-1.76-.71-3.52-.87-5.32-.16-1.8-.18-3.59-.05-5.39"/>
    <path class="cls-4" d="M376.23,196.64c0-.05-.01-.13-.05-.18"/>
    <path class="cls-4" d="M174.83,106.83c0-.1.12-.17.21-.16"/>
    <path class="cls-4" d="M145.82,114.09s0,0,0,0"/>
    <path class="cls-4" d="M26.73,116.55c-.21.36-.4.73-.58,1.1"/>
    <path class="cls-4" d="M174.48,83.07c-2.77,2.2-5.44,4.5-8.02,6.91-1.29,1.2-2.56,2.43-3.81,3.68-1.25,1.25-2.47,2.53-3.66,3.82-1.2,1.3-2.37,2.62-3.52,3.96-1.15,1.34-2.27,2.7-3.37,4.09-2.2,2.77-4.28,5.61-6.27,8.54"/>
    <path class="cls-4" d="M174.83,106.83c-.02-.09-.04-.18-.07-.27"/>
    <path class="cls-4" d="M145.83,114.08c-1.17,1.72-2.3,3.47-3.4,5.24-1.09,1.77-2.14,3.55-3.16,5.36-1.01,1.81-1.99,3.64-2.93,5.49-.94,1.85-1.84,3.72-2.69,5.61-.85,1.88-1.67,3.77-2.44,5.68-.78,1.92-1.51,3.85-2.21,5.8-1.41,3.94-2.65,7.91-3.72,11.96-.54,2.02-1.03,4.05-1.48,6.09-.45,2.03-.86,4.07-1.22,6.12-.36,2.04-.68,4.08-.96,6.13-.28,2.05-.51,4.1-.7,6.16-.19,2.06-.34,4.13-.45,6.2-.1,2.07-.17,4.14-.19,6.22-.02,2.08,0,4.16.08,6.24s.19,4.16.35,6.23c.16,2.09.36,4.17.62,6.25.25,2.07.54,4.13.88,6.18.34,2.04.72,4.08,1.14,6.1.42,2.02.89,4.03,1.4,6.02.52,2.01,1.08,4.01,1.68,6,.61,1.99,1.26,3.96,1.95,5.92.7,1.96,1.44,3.91,2.22,5.84.78,1.92,1.6,3.81,2.47,5.69.88,1.9,1.8,3.78,2.77,5.65.96,1.84,1.96,3.66,3,5.46,1.04,1.79,2.12,3.55,3.24,5.29,1.12,1.73,2.28,3.44,3.49,5.12,1.21,1.7,2.47,3.36,3.77,4.99,1.3,1.64,2.63,3.23,4.01,4.8,1.37,1.56,2.77,3.08,4.22,4.57,1.44,1.48,2.91,2.92,4.42,4.33"/>
    <path class="cls-4" d="M174.83,106.83c.35,4.48.77,8.95,1.22,13.42.24,2.34.48,4.69.73,7.03.26,2.4.51,4.81.77,7.21.49,4.54.97,9.07,1.42,13.61.23,2.33.46,4.65.68,6.98.22,2.35.43,4.71.63,7.07.39,4.59.73,9.18,1.03,13.78.3,4.65.54,9.3.71,13.95.35,9.27.46,18.52.28,27.79-.09,4.67-.24,9.34-.47,14.01-.11,2.31-.24,4.61-.38,6.91-.14,2.28-.3,4.56-.48,6.83-.71,9.25-1.67,18.46-2.81,27.66-.3,2.42-.61,4.84-.93,7.26-.31,2.34-.63,4.68-.95,7.02-.31,2.26-.62,4.51-.93,6.77-.3,2.16-.6,4.33-.89,6.49-.67,4.95-1.32,9.99-1.81,14.96-.22,2.21-.4,4.43-.53,6.65-.12,2.01-.19,4.03-.18,6.04"/>
    <path class="cls-4" d="M376.23,196.64c-2.37.12-4.74.2-7.11.25-2.41.05-4.81.06-7.22.03-2.44-.03-4.88-.09-7.32-.19-2.48-.1-4.95-.23-7.42-.4-2.37-.16-4.74-.36-7.11-.58-2.4-.23-4.8-.48-7.19-.77-2.43-.29-4.86-.61-7.28-.96-2.43-.35-4.86-.74-7.29-1.15-2.41-.41-4.81-.85-7.2-1.31-2.38-.47-4.76-.96-7.13-1.48-4.71-1.03-9.4-2.18-14.06-3.43-4.73-1.27-9.41-2.65-14.07-4.15-2.31-.74-4.61-1.51-6.9-2.31-2.25-.78-4.48-1.59-6.71-2.43-17.78-6.69-35.95-15.57-51.52-26.64-4.15-2.95-8.14-6.06-11.95-9.43-1.77-1.56-3.5-3.18-5.18-4.84-1.6-1.59-3.14-3.22-4.63-4.92-.91-1.04-1.8-2.09-2.66-3.17-.83-1.03-1.63-2.09-2.4-3.16-1.46-2.03-2.81-4.12-4.03-6.29-1.14-2.03-2.15-4.1-3.03-6.26-.82-2.03-1.5-4.09-2.01-6.22"/>
    <path class="cls-4" d="M376.18,196.47c14.15-.72,29.16-2.91,42.67-7.54,6.77-2.32,13.56-5.39,19.52-9.43,5.93-4.02,11.33-9.18,14.75-15.66"/>
    <path class="cls-4" d="M436.23,428.48c-.42,2.93-.81,5.87-1.16,8.81-.35,2.94-.67,5.88-.93,8.83-.53,5.9-.86,11.8-.84,17.73"/>
    <path class="cls-4" d="M209.13,149.69c1.41,1.03,2.84,2.05,4.29,3.03,1.49,1.02,3,2.02,4.52,2.99,1.57,1.01,3.16,1.99,4.76,2.95,1.65.99,3.32,1.96,4.99,2.91,1.56.88,3.13,1.74,4.72,2.58,1.61.86,3.23,1.69,4.85,2.51,1.66.83,3.32,1.64,5,2.44,1.7.81,3.41,1.59,5.14,2.36,1.64.73,3.28,1.44,4.93,2.14,1.68.71,3.37,1.4,5.06,2.07,1.72.69,3.45,1.35,5.18,2.01,1.76.66,3.53,1.31,5.31,1.93,1.72.61,3.44,1.2,5.16,1.77,1.75.58,3.5,1.14,5.25,1.69,3.52,1.1,7.07,2.14,10.63,3.11,3.54.96,7.08,1.87,10.65,2.7,3.59.84,7.19,1.63,10.81,2.34,3.6.71,7.22,1.36,10.85,1.94,1.82.29,3.64.57,5.47.83,1.82.26,3.63.5,5.46.72,1.85.23,3.71.44,5.57.63,1.84.19,3.68.36,5.52.51,3.63.3,7.25.53,10.89.68,1.87.08,3.73.14,5.6.17,1.85.04,3.69.05,5.54.05,1.83,0,3.65-.03,5.48-.08,1.81-.05,3.61-.12,5.42-.21"/>
    <path class="cls-4" d="M352.03,393.61c-.6-.23-1.19-.35-1.82-.36"/>
    <path class="cls-4" d="M354.09,402.23c1-1.3,1.44-2.98,1.16-4.61-.28-1.63-1.28-3.06-2.77-3.81"/>
    <path class="cls-4" d="M345.04,395.07c1.07-1.34,2.61-2.27,4.31-2.54,1.7-.27,3.45.14,4.82,1.21,1.37,1.08,2.18,2.67,2.32,4.4.14,1.72-.39,3.44-1.44,4.79"/>
    <path class="cls-4" d="M355.06,402.92c-1.05,1.36-2.59,2.31-4.3,2.57-1.72.27-3.46-.16-4.83-1.24-1.37-1.07-2.21-2.67-2.35-4.4-.15-1.73.4-3.44,1.47-4.79"/>
    <path class="cls-4" d="M73.9,85.04c-1.31,1.68-2.58,3.38-3.8,5.12-1.26,1.78-2.47,3.59-3.64,5.43-1.15,1.81-2.25,3.64-3.32,5.5-1.08,1.88-2.11,3.78-3.1,5.7-.98,1.9-1.92,3.83-2.82,5.77-.91,1.97-1.77,3.95-2.6,5.96-.81,1.98-1.58,3.97-2.32,5.98-.74,2.04-1.44,4.09-2.1,6.16-.65,2.05-1.26,4.12-1.83,6.19-.57,2.08-1.1,4.16-1.59,6.26-.98,4.2-1.78,8.42-2.43,12.68-.32,2.12-.6,4.25-.84,6.38-.24,2.15-.44,4.3-.59,6.46-.15,2.15-.26,4.29-.33,6.44-.07,2.15-.1,4.31-.08,6.46"/>
    <path class="cls-4" d="M42.52,181.54c.02,2.25.08,4.5.19,6.75.11,2.25.27,4.49.48,6.74.21,2.24.46,4.48.77,6.71.3,2.23.66,4.45,1.06,6.67.4,2.22.85,4.42,1.36,6.62.5,2.2,1.06,4.38,1.66,6.55.61,2.17,1.26,4.33,1.97,6.47.71,2.14,1.47,4.25,2.28,6.35"/>
    <path class="cls-4" d="M42.51,181.53s0,0,0,0c0,0,0,0,0,0,0,0,0,0,.01,0,0,0,.02,0,.03,0"/>
    <path class="cls-4" d="M175.04,106.67c1.85,7.66,5.92,14.77,10.64,20.89"/>
    <path class="cls-4" d="M42.4,181.51c-.02-2.16.01-4.32.08-6.47.07-2.15.18-4.29.34-6.44.31-4.3.78-8.58,1.43-12.84.32-2.13.68-4.25,1.09-6.37.41-2.12.85-4.23,1.34-6.33.49-2.11,1.02-4.21,1.6-6.31.57-2.06,1.18-4.11,1.82-6.15.66-2.06,1.35-4.11,2.1-6.15.73-2.01,1.5-4.01,2.32-5.99.82-2,1.69-3.98,2.6-5.95.9-1.95,1.84-3.87,2.82-5.78,1-1.94,2.04-3.85,3.12-5.74,1.06-1.85,2.16-3.67,3.31-5.47,1.17-1.84,2.38-3.64,3.63-5.42,1.23-1.74,2.5-3.45,3.82-5.13"/>
    <path class="cls-4" d="M194.52,25.68c.35-.42.71-.84,1.07-1.26.18-.21.36-.42.54-.63.09-.11.18-.21.26-.32.06-.07.12-.15.18-.23.02-.02.03-.05.05-.07,0-.01.02-.02.02-.04"/>
    <path class="cls-4" d="M417.68,50.19c-.78-.42-1.86-.84-2.8-.75-.49.05-.96.24-1.25.68-.28.41-.34.94-.33,1.41"/>
    <path class="cls-4" d="M294.17,61.23c-.07-.12-.29-.18-.41-.19"/>
    <path class="cls-4" d="M422.07,54.06c.09-.08.19-.16.29-.23"/>
    <path class="cls-4" d="M422.21,72.58c.1-.05.2-.1.31-.14"/>
    <path class="cls-4" d="M423.95,75.17c-.48-.88-.95-1.78-1.41-2.67"/>
    <path class="cls-4" d="M308.1,73.33c-.6,2.03-1.39,4.21-2.32,6.12"/>
    <path class="cls-4" d="M422.07,54.06c-1.18-1.49-2.69-2.96-4.4-3.87"/>
    <path class="cls-4" d="M413.3,51.53h0"/>
    <path class="cls-4" d="M364.52,50.93s.09.05.1.08"/>
    <path class="cls-4" d="M422.6,72.44s-.02.03-.02.03c0,0-.02.02-.03.03"/>
    <path class="cls-4" d="M212.24,12.04s0,0,0,0"/>
    <path class="cls-4" d="M456.99,147.55h0"/>
    <path class="cls-4" d="M184.53,40.52s0,0,0,.01"/>
    <line class="cls-4" x1="417.82" y1="62.87" x2="417.68" y2="50.19"/>
    <path class="cls-4" d="M414.65,56.34c.86,2.11,2.21,4.97,3.18,7.03"/>
    <path class="cls-4" d="M190.22,453.43c-.24,1.79-.64,3.51-1.23,5.22-.58,1.68-1.35,3.34-2.29,4.84-.93,1.48-2.1,2.95-3.47,4.07-.77.62-1.66,1.19-2.62,1.49-.74.23-1.54.29-2.3,0-.75-.28-1.3-.85-1.71-1.51-.53-.86-.82-1.89-1.02-2.86-.16-.82-.26-1.65-.32-2.48-.07-.95-.1-1.91-.09-2.86,0-1.79.09-3.58.23-5.37.13-1.79.31-3.57.52-5.35"/>
    <path class="cls-4" d="M307.75,73.35s.06-.04.08-.04c.03,0,.06,0,.09,0,.06,0,.12.01.18.03"/>
    <path class="cls-4" d="M184.51,40.55c-.41.87-.8,1.75-1.16,2.65-.11.27-.21.54-.32.82-.04.11-.07.21-.11.32-.02.07-.05.15-.07.22,0,.03-.01.05-.01.08,0,.01,0,.02.02.01.02-.02.03-.04.05-.06.03-.04.05-.08.07-.13.08-.14.15-.28.22-.42.09-.19.18-.38.27-.57.98-2.04,1.5-3.18,2.54-5.19"/>
    <path class="cls-4" d="M181.4,48.05c-3.42-.2-6.84-.4-10.25-.66-1.71-.13-3.41-.27-5.12-.44-.85-.08-1.7-.17-2.56-.27-.56-.07-1.12-.13-1.69-.21-.18-.02-.36-.04-.53-.06-.11-.01-.22-.03-.33-.03"/>
    <path class="cls-4" d="M458.1,497.45c0-2.22-.02-4.44-.05-6.66-.03-2.17-.06-4.34-.11-6.51-.05-2.23-.11-4.45-.19-6.68-.08-2.16-.17-4.32-.3-6.48-.13-2.31-.29-4.61-.51-6.91-.2-2.03-.45-4.17-.81-6.19-.13-.73-.28-1.46-.45-2.19-.16-.64-.33-1.27-.55-1.89-.19-.52-.39-1.03-.67-1.51-.21-.35-.47-.72-.8-.97-.7-.52-1.39-.28-2,.21-.42.35-.79.81-1.09,1.25-.41.6-.76,1.23-1.09,1.89-.43.87-.81,1.76-1.16,2.66-.39,1.01-.74,2.03-1.07,3.06-.71,2.23-1.3,4.49-1.83,6.77-.49,2.11-.92,4.24-1.3,6.38-.39,2.19-.73,4.38-1.03,6.58-.59,4.35-1.02,8.72-1.3,13.1s-.41,8.77-.4,13.16"/>
    <path class="cls-4" d="M162.1,473.22c-1.85,4.23-3.82,8.41-5.71,12.62-.94,2.11-1.86,4.22-2.74,6.36-.87,2.14-1.7,4.29-2.47,6.47-.77,2.18-1.47,4.38-2.1,6.6s-1.19,4.46-1.69,6.72c-.49,2.26-.91,4.53-1.27,6.81s-.64,4.57-.87,6.87"/>
    <path class="cls-4" d="M175.91,448.63c.21-1.76.45-3.52.74-5.27.28-1.72.63-3.51,1.09-5.2.26-.97.56-1.91.96-2.83.3-.7.68-1.41,1.16-2.01,1.39-1.71,3.05-1.53,4.65-.24.61.5,1.16,1.11,1.63,1.73.59.78,1.09,1.61,1.54,2.49.8,1.57,1.42,3.26,1.87,4.97.9,3.42,1.15,7.04.76,10.55"/>
    <path class="cls-4" d="M457,147.9s0,.03,0,.04"/>
    <path class="cls-4" d="M106.93,293.1c-1.5-.56-2.99-1.17-4.45-1.82-1.48-.66-2.93-1.36-4.36-2.11-2.86-1.5-5.61-3.15-8.27-4.97-1.32-.9-2.61-1.84-3.88-2.81-1.29-.99-2.55-2.02-3.78-3.08-1.21-1.04-2.38-2.11-3.54-3.21-1.18-1.12-2.33-2.28-3.44-3.46-1.1-1.16-2.17-2.35-3.21-3.57-1.06-1.23-2.08-2.48-3.08-3.76-1.98-2.54-3.84-5.17-5.58-7.88-.87-1.34-1.7-2.7-2.51-4.08-.82-1.4-1.62-2.82-2.38-4.25-.75-1.41-1.47-2.83-2.17-4.27-.71-1.46-1.39-2.94-2.04-4.43"/>
    <path class="cls-4" d="M300.16,84.53c1.27.51,2.35-.31,3.11-1.16"/>
    <path class="cls-4" d="M315.75,497.55c-.86-4.84-1.99-9.6-3.24-14.35-.63-2.37-1.29-4.73-1.96-7.09-.67-2.36-1.36-4.71-2.06-7.06-1.39-4.7-2.8-9.4-4.19-14.1-1.39-4.7-2.75-9.41-4.07-14.14"/>
    <path class="cls-4" d="M485.15,514.01c-.49-4.08-1.17-8.1-2.11-12.11-.47-2-1-3.97-1.6-5.93s-1.25-3.9-1.97-5.82c-.72-1.92-1.49-3.82-2.31-5.7-.82-1.88-1.68-3.74-2.56-5.59-1.76-3.7-3.6-7.36-5.32-11.09"/>
    <path class="cls-4" d="M298.35,54.05c-1.25.76-2.19,1.86-2.86,3.12-.67,1.26-1.08,2.67-1.32,4.06"/>
    <path class="cls-4" d="M376.22,196.22s0,.07-.01.1c0,.02-.03.07-.06.08"/>
    <path class="cls-4" d="M309.45,63.46c.04-2.83-.42-6.27-2.66-8.48-1.11-1.09-2.52-1.74-4.05-1.91-1.53-.16-3.06.18-4.38.97"/>
    <path class="cls-4" d="M364.37,51.2c0-.06,0-.12,0-.18"/>
    <line class="cls-4" x1="469.29" y1="467.78" x2="469.43" y2="515.61"/>
    <path class="cls-4" d="M434.91,485.15c-.47-2.33-.86-4.67-1.17-7.03-.31-2.36-.53-4.72-.67-7.09-.29-4.76-.26-9.49-.03-14.24.23-4.75.66-9.48,1.21-14.2.28-2.36.58-4.72.92-7.07.33-2.35.69-4.7,1.06-7.04"/>
    <path class="cls-4" d="M355.14,40.47s-.07-.03-.11-.03"/>
    <path class="cls-4" d="M470.13,466.76c1.35,2.93,2.78,5.83,4.19,8.73,1.41,2.91,2.78,5.82,4.05,8.79"/>
    <path class="cls-4" d="M459.19,417.61c.11,4.23.36,8.45.8,12.66.22,2.1.49,4.2.81,6.29.32,2.09.7,4.17,1.14,6.24.88,4.15,2,8.21,3.39,12.21.69,2,1.45,3.97,2.25,5.93s1.66,3.89,2.55,5.81"/>
    <path class="cls-4" d="M441.61,383.72c-.28-.64-.8-1.43-1.64-1.47"/>
    <path class="cls-4" d="M439.58,393.29c.86-.23,1.44-1.15,1.77-1.85.36-.78.6-1.68.72-2.53.13-.88.17-1.74.11-2.63-.06-.84-.22-1.78-.57-2.56"/>
    <path class="cls-4" d="M441.61,383.72c.43.03.96-.23,1.16-.63"/>
    <line class="cls-4" x1="459.49" y1="518.49" x2="459.19" y2="417.61"/>
    <path class="cls-4" d="M439.97,382.25h0"/>
    <path class="cls-4" d="M440.42,506.97c-.02-4.52.13-9.03.44-13.55.31-4.51.78-9,1.43-13.48.33-2.26.7-4.51,1.13-6.76.42-2.2.89-4.38,1.43-6.55.57-2.33,1.22-4.63,1.98-6.91.66-1.96,1.45-4.05,2.41-5.89.35-.68.73-1.35,1.18-1.97.34-.48.73-.97,1.19-1.35.33-.27.71-.52,1.15-.6.37-.07.71,0,1.03.19.36.21.66.55.89.89.31.45.54.94.74,1.45.24.61.44,1.22.61,1.85.2.71.36,1.43.5,2.16.41,2.05.7,4.26.92,6.34.25,2.37.43,4.75.58,7.13.14,2.22.24,4.44.33,6.67.09,2.29.16,4.58.21,6.88.05,2.23.09,4.46.12,6.7.03,2.29.05,4.57.05,6.86"/>
    <line class="cls-4" x1="358.78" y1="373.55" x2="358.77" y2="373.17"/>
    <path class="cls-4" d="M437.78,392.05s.03.04.04.07"/>
    <line class="cls-4" x1="402.35" y1="423.46" x2="402.54" y2="423.81"/>
    <line class="cls-4" x1="122.63" y1="171.02" x2="122.25" y2="170.96"/>
    <path class="cls-4" d="M364.37,50.93c-.01-.21-.06-.48-.17-.67"/>
    <path class="cls-4" d="M146.62,45.89c-3.35-.04-6.67.15-10,.56-1.65.2-3.29.46-4.92.77-1.65.32-3.29.68-4.92,1.1-1.6.41-3.19.88-4.77,1.39-1.61.52-3.19,1.09-4.76,1.71-1.55.61-3.07,1.26-4.58,1.95-1.53.7-3.03,1.45-4.51,2.24-1.47.78-2.91,1.59-4.33,2.45-1.44.87-2.86,1.77-4.26,2.72-2.78,1.87-5.44,3.87-8.02,6-1.28,1.06-2.53,2.14-3.76,3.25-1.25,1.13-2.47,2.29-3.67,3.48-1.18,1.17-2.33,2.36-3.46,3.58-1.14,1.23-2.26,2.49-3.35,3.77"/>
    <line class="cls-4" x1="350.29" y1="397.76" x2="350.97" y2="398.16"/>
    <path class="cls-4" d="M52.19,234.41c-.82-2.1-1.58-4.22-2.29-6.36-.71-2.14-1.37-4.29-1.97-6.47-.61-2.17-1.16-4.36-1.66-6.55-.5-2.2-.96-4.4-1.36-6.62-.4-2.22-.76-4.44-1.06-6.68-.31-2.23-.56-4.47-.77-6.72-.41-4.5-.64-8.99-.67-13.5"/>
    <path class="cls-4" d="M77.23,80.8c2.17-2.55,4.44-4.99,6.82-7.35,2.38-2.36,4.85-4.6,7.44-6.73,1.3-1.07,2.63-2.11,3.98-3.12,1.33-.99,2.68-1.95,4.05-2.88,1.4-.94,2.82-1.84,4.26-2.71,1.43-.86,2.87-1.67,4.34-2.45,1.49-.79,3-1.54,4.54-2.24,1.5-.69,3.03-1.34,4.57-1.94,1.57-.62,3.16-1.18,4.76-1.7,1.58-.51,3.17-.97,4.78-1.38,1.63-.42,3.26-.78,4.91-1.09,1.64-.31,3.28-.56,4.93-.77,1.66-.2,3.33-.35,5-.44,1.67-.09,3.34-.12,5.01-.1"/>
    <path class="cls-4" d="M54.34,239.37c.65,1.49,1.33,2.96,2.03,4.42.7,1.44,1.42,2.86,2.17,4.27.76,1.43,1.55,2.84,2.37,4.24.81,1.38,1.64,2.74,2.51,4.08.88,1.36,1.78,2.7,2.71,4.02.92,1.31,1.88,2.59,2.86,3.86,1.98,2.55,4.06,4.99,6.28,7.33,1.12,1.18,2.26,2.34,3.43,3.46,1.15,1.1,2.33,2.17,3.54,3.22,1.23,1.06,2.48,2.08,3.77,3.07,1.27.98,2.55,1.92,3.87,2.82,2.66,1.83,5.4,3.49,8.26,4.99,1.44.76,2.9,1.46,4.38,2.13,1.46.65,2.93,1.26,4.42,1.82"/>
    <path class="cls-4" d="M345.19,402.14c.28.43.61.79,1,1.12"/>
    <path class="cls-4" d="M348.55,403.93c-.82-.03-1.63-.25-2.35-.66"/>
    <line class="cls-4" x1="349.12" y1="403.99" x2="349.88" y2="404.5"/>
    <line class="cls-4" x1="350.01" y1="399.53" x2="350.69" y2="399.93"/>
    <line class="cls-4" x1="178.85" y1="447.91" x2="178.53" y2="447.94"/>
    <line class="cls-4" x1="349.94" y1="400.21" x2="349.27" y2="399.8"/>
    <path class="cls-4" d="M280.41,2.47s0,0-.01,0"/>
    <path class="cls-4" d="M108.67,216.9c-.4.13-.62.64-.71.97-.12.41-.17.81-.18,1.23-.03.82.06,1.68.22,2.49"/>
    <path class="cls-4" d="M437.83,392.12c.04.08.05.16.04.25,0,.09-.05.16-.08.24"/>
    <line class="cls-4" x1="345.02" y1="396.51" x2="344.97" y2="396.48"/>
    <path class="cls-4" d="M276.01,1.29c1.41-.03,2.73.42,3.98.98"/>
    <line class="cls-4" x1="351.13" y1="398.86" x2="350.53" y2="398.51"/>
    <path class="cls-4" d="M468.11,71.7c-.83-.08-1.65-.11-2.48-.09"/>
    <path class="cls-4" d="M468.11,71.7c-5.83.18-11.65.15-17.48-.07"/>
    <path class="cls-4" d="M473.58,255.06c1.82-.11,3.58-.49,5.3-1.1,1.91-.68,3.7-1.64,5.37-2.79,1.93-1.33,3.69-2.9,5.28-4.6,1.86-1.99,3.52-4.18,5.01-6.46,2.26-3.46,4.17-7.19,5.8-10.98,1.87-4.36,3.41-8.9,4.68-13.46,2.37-8.51,3.9-17.46,4.78-26.24.45-4.49.73-8.98.86-13.49.13-4.39.1-8.77-.06-13.16-.64-17.33-3.55-35.92-9.35-52.39-1.57-4.46-3.39-8.88-5.51-13.11-1.85-3.7-3.97-7.34-6.4-10.7-1.61-2.22-3.33-4.32-5.26-6.27-1.65-1.67-3.45-3.21-5.39-4.53-1.68-1.14-3.47-2.11-5.36-2.83-1.67-.64-3.41-1.07-5.19-1.25"/>
    <line class="cls-4" x1="529.04" y1="380.42" x2="527.16" y2="379.17"/>
    <line class="cls-4" x1="525.75" y1="379.99" x2="495.19" y2="359.67"/>
    <path class="cls-4" d="M129.62,114.62c-1.11.85-2.14,2.1-2.87,3.28"/>
    <path class="cls-4" d="M129.62,114.62c-.17-.12-.32-.29-.41-.47-.09-.17-.16-.41-.11-.61"/>
    <path class="cls-4" d="M126.76,117.91c-.44.71-.83,1.51-1.09,2.31-.13.41-.23.82-.26,1.25-.02.36,0,.92.36,1.18"/>
    <line class="cls-4" x1="129.23" y1="119.54" x2="126.76" y2="117.91"/>
    <path class="cls-4" d="M127.02,122.07c-.25.21-.5.41-.77.58-.22.14-.44.26-.69.35-.64.22-1.18.08-1.35-.63-.06-.25-.07-.5-.05-.76.02-.33.08-.65.16-.97.14-.57.35-1.1.59-1.64.88-1.95,2.49-4.14,4.21-5.47"/>
    <path class="cls-4" d="M129.1,113.54c.44-.34.96-.68,1.49-.86.6-.2,1.22-.17,1.37.56.21.96-.48,2.54-.85,3.31-.49,1.01-1.13,2.05-1.79,2.96-.65.89-1.46,1.85-2.3,2.57"/>
    <line class="cls-4" x1="576.01" y1="97.83" x2="573.83" y2="98.4"/>
    <line class="cls-4" x1="573.19" y1="99.46" x2="537.68" y2="108.77"/>
    <line class="cls-4" x1="26.17" y1="242.81" x2="26.8" y2="242.65"/>
    <line class="cls-4" x1="26.53" y1="245.09" x2="26.54" y2="245.08"/>
    <line class="cls-4" x1="438.6" y1="386.84" x2="439.6" y2="386.91"/>
    <line class="cls-4" x1="440.58" y1="387.68" x2="438.65" y2="387.55"/>
    <line class="cls-4" x1="25.92" y1="243.7" x2="26.59" y2="243.52"/>
    <line class="cls-4" x1="122.25" y1="170.96" x2="118.81" y2="170.29"/>
    <line class="cls-4" x1="27.42" y1="244.84" x2="26.76" y2="245.01"/>
    <path class="cls-4" d="M442.77,383.09c.52,1.15.7,2.59.71,3.83.01,1.28-.16,2.64-.52,3.87-.32,1.08-.97,2.59-2.05,3.25-.6.36-1.24.39-1.86.04-.57-.33-.98-.91-1.26-1.46"/>
    <path class="cls-4" d="M131.76,113.89c-.34-.2-.84-.02-1.14.11-.36.17-.69.38-1,.62"/>
    <path class="cls-4" d="M280.16,2.47c-.03-.07-.09-.17-.17-.2"/>
    <line class="cls-4" x1="29.68" y1="246.66" x2="32.28" y2="245.98"/>
    <line class="cls-4" x1="297.03" y1="38.05" x2="297.03" y2="38.12"/>
    <path class="cls-4" d="M354.72,40.39c-2.41.06-4.81.1-7.22.11-1.19,0-2.39,0-3.58,0-1.21,0-2.43,0-3.64-.02-2.41-.02-4.81-.07-7.22-.13-2.41-.06-4.81-.15-7.22-.24-2.41-.1-4.81-.22-7.21-.35-2.4-.14-4.8-.29-7.21-.46s-4.8-.36-7.2-.57c-2.4-.21-4.79-.43-7.19-.68"/>
    <line class="cls-4" x1="26.82" y1="244.24" x2="26.11" y2="244.43"/>
    <path class="cls-4" d="M280.42,2.47c.39.19.78.38,1.17.58"/>
    <path class="cls-4" d="M349.74,37.64c.17,0,.31.03.46.11"/>
    <path class="cls-4" d="M354.72,40.39c0-.05,0-.18-.06-.22"/>
    <line class="cls-4" x1="362.24" y1="23.64" x2="362.25" y2="23.47"/>
    <line class="cls-4" x1="358.79" y1="23.36" x2="358.81" y2="23.19"/>
    <line class="cls-4" x1="189.22" y1="452.43" x2="190.09" y2="452.35"/>
    <line class="cls-4" x1="402.58" y1="433.67" x2="402.54" y2="423.81"/>
    <line class="cls-4" x1="110.8" y1="220.87" x2="107.99" y2="221.59"/>
    <line class="cls-4" x1="439.8" y1="386.92" x2="440.46" y2="386.97"/>
    <line class="cls-4" x1="439.95" y1="389.05" x2="439.33" y2="389.01"/>
    <path class="cls-4" d="M109.67,217.93c.53.97.96,2.14,1.25,3.19.3,1.07.54,2.26.65,3.37.08.82.19,2.57-.36,3.37-.42.61-1.02.36-1.48-.03-.43-.36-.79-.86-1.08-1.33"/>
    <path class="cls-4" d="M109.53,225.66c.21.34.45.66.73.95.23.23.64.58,1.04.51"/>
    <path class="cls-4" d="M107.99,221.59c.27,1.36.8,2.88,1.54,4.06"/>
    <path class="cls-4" d="M109.53,225.66c-.2.06-.4.17-.55.31-.14.13-.3.33-.32.54"/>
    <line class="cls-4" x1="57.55" y1="70.99" x2="58.23" y2="71.44"/>
    <line class="cls-4" x1="58.31" y1="72.35" x2="57.21" y2="71.62"/>
    <line class="cls-4" x1="58.56" y1="70.18" x2="58.93" y2="70.42"/>
    <line class="cls-4" x1="58.17" y1="72.49" x2="57.54" y2="72.08"/>
  </g>
  <g id="Make2D::可见线::曲线">
    <path class="cls-4" d="M56.56,72.72c.19-.39.4-.75.65-1.09"/>
    <path class="cls-4" d="M57.55,70.99c.05-.2.12-.38.23-.56"/>
    <path class="cls-4" d="M58.46,69.71c-.12.17-.19.36-.23.56"/>
    <path class="cls-4" d="M96.65,98.29c.45-.48.88-1.08,1.19-1.66.16-.3.3-.61.39-.94.05-.17.08-.33.09-.5,0-.15-.01-.36-.16-.46"/>
    <path class="cls-4" d="M58.24,70.34s-.02-.05-.01-.07"/>
    <line class="cls-4" x1="57.49" y1="71.99" x2="58.2" y2="72.46"/>
    <path class="cls-4" d="M57.49,71.99s.04.06.05.09"/>
    <path class="cls-4" d="M60.9,67.91c.26-.13.7-.3,1.01-.1"/>
    <line class="cls-4" x1="61.9" y1="67.81" x2="64.1" y2="69.27"/>
    <path class="cls-4" d="M56.18,76.08c-.3-.2-.31-.66-.28-.95"/>
    <path class="cls-4" d="M95.11,99.12c.13.09.32.05.44,0,.15-.06.28-.13.4-.22.25-.18.48-.38.69-.61"/>
    <path class="cls-4" d="M57.21,72.17s.07-.1.12-.14c.04-.03.11-.08.17-.05"/>
    <path class="cls-4" d="M58.46,69.71c-.24.23-.47.47-.67.72"/>
    <path class="cls-4" d="M57.55,70.99c-.04.18-.24.5-.34.63"/>
    <path class="cls-4" d="M58.56,70.18s-.1.08-.15.11c-.03.02-.13.08-.17.05"/>
    <path class="cls-4" d="M59.66,69.93c0-.18,0-.36,0-.54"/>
    <path class="cls-4" d="M56.56,72.72c-.02.18-.03.36,0,.54"/>
    <path class="cls-4" d="M58.56,70.18c.35-.29.72-.55,1.11-.79"/>
    <path class="cls-4" d="M57.76,72.94c-.1-.28-.17-.57-.22-.86"/>
    <path class="cls-4" d="M59.03,74.49c-.39.42-.8.81-1.27,1.15-.23.17-.47.32-.74.42-.23.09-.58.18-.82.02"/>
    <path class="cls-4" d="M55.9,75.12c.14-1.53.67-3,1.55-4.26.88-1.26,2.06-2.28,3.44-2.95"/>
    <path class="cls-4" d="M61.9,67.81c.12.08.19.19.23.32.06.18.07.36.06.55-.02.32-.09.63-.18.94-.18.6-.46,1.21-.76,1.76-.58,1.09-1.38,2.21-2.22,3.11"/>
    <path class="cls-4" d="M440.58,387.68c-.08-.08-.11-.25-.12-.35-.02-.12-.01-.25,0-.37"/>
    <path class="cls-4" d="M440.71,389.21c.11-.34.19-.69.26-1.04"/>
    <path class="cls-4" d="M438.87,390.01c.16.13.33.26.49.39"/>
    <line class="cls-4" x1="440.54" y1="385.59" x2="440.04" y2="385.83"/>
    <path class="cls-4" d="M440.54,385.59c-.15-.15-.32-.27-.49-.39"/>
    <path class="cls-4" d="M440.54,385.59c0,.46-.02.92-.08,1.38"/>
    <path class="cls-4" d="M440.58,387.68c.15.15.28.3.39.48"/>
    <path class="cls-4" d="M440.71,389.21c-.11-.18-.24-.34-.39-.48"/>
    <path class="cls-4" d="M439.95,389.05c-.17.46-.36.91-.59,1.34"/>
    <path class="cls-4" d="M440.96,389.52c-.1.39-.22.78-.37,1.15"/>
    <path class="cls-4" d="M440.26,388.69s.05.01.07.03"/>
    <path class="cls-4" d="M441.04,385.08c.43,1.87.27,3.82-.45,5.59"/>
    <path class="cls-4" d="M441.04,385.08c.33,1.41.26,3.05-.08,4.44"/>
    <path class="cls-4" d="M440.59,390.68c-.2.5-.48,1.01-.83,1.43-.34.4-.82.79-1.39.81"/>
    <line class="cls-4" x1="438.88" y1="390" x2="439.36" y2="390.4"/>
    <line class="cls-4" x1="438.68" y1="386.49" x2="438.67" y2="386.49"/>
    <line class="cls-4" x1="439.47" y1="388.64" x2="440.26" y2="388.69"/>
    <path class="cls-4" d="M439.95,389.05c.03-.08.06-.15.11-.22.04-.05.11-.14.2-.14"/>
    <line class="cls-4" x1="172.49" y1="420.56" x2="172.43" y2="410.93"/>
    <path class="cls-4" d="M172.43,410.93c0-.06,0-.12,0-.18"/>
    <line class="cls-4" x1="175.19" y1="424.8" x2="174.26" y2="423.94"/>
    <line class="cls-4" x1="459.5" y1="405.65" x2="459.53" y2="415.18"/>
    <line class="cls-4" x1="457.82" y1="418.59" x2="456.92" y2="419.48"/>
    <path class="cls-4" d="M183.37,445.37c.23.53-.14.94-.51,1.24-.36.29-.83.56-1.23.77"/>
    <path class="cls-4" d="M181.65,452.69c.51.37,1.08.85,1.44,1.39.39.6.48,1.24.34,1.92"/>
    <path class="cls-4" d="M183.43,456c-.57-.21-.99-.99-1.2-1.46-.27-.6-.44-1.21-.57-1.85"/>
    <path class="cls-4" d="M181.62,447.38c.11-.46.27-.98.53-1.39.25-.41.67-.82,1.22-.62"/>
    <path class="cls-4" d="M183.37,445.37c.19.07.34.18.48.32"/>
    <path class="cls-4" d="M185.22,463.63c-.79.07-1.49-.39-2-.89"/>
    <line class="cls-4" x1="183.21" y1="462.73" x2="182.42" y2="461.95"/>
    <path class="cls-4" d="M182.42,461.95c-.78-.77-1.37-1.91-1.78-2.9-.44-1.06-.77-2.14-1.02-3.26-.51-2.18-.76-4.55-.78-6.79"/>
    <line class="cls-4" x1="180.84" y1="439.75" x2="181.51" y2="438.84"/>
    <path class="cls-4" d="M181.51,438.84c.43-.59,1.05-1.17,1.85-1.24"/>
    <path class="cls-4" d="M184.01,445.88c-.21-.18-.42-.35-.65-.51"/>
    <path class="cls-4" d="M184.55,455.54c-.26.36-.64.64-1.12.47"/>
    <path class="cls-4" d="M183.43,456c.43-.23.99-.55,1.36-.88"/>
    <path class="cls-4" d="M457.34,419.04c-.13.15-.27.3-.42.45"/>
    <line class="cls-4" x1="184.69" y1="447.1" x2="181.62" y2="447.38"/>
    <path class="cls-4" d="M349.58,24.09c.15.1.69.36.85.43"/>
    <path class="cls-4" d="M370.69,23.96c-.12-.06-.24-.11-.36-.17"/>
    <line class="cls-4" x1="363.81" y1="24.11" x2="370.69" y2="23.96"/>
    <path class="cls-4" d="M362.24,23.64c.57.11,1.03.25,1.57.47"/>
    <path class="cls-4" d="M358.79,23.36c1.08-.02,2.38.07,3.45.28"/>
    <line class="cls-4" x1="358.15" y1="28.37" x2="365.14" y2="28.2"/>
    <line class="cls-4" x1="350.43" y1="24.52" x2="358.15" y2="28.37"/>
    <line class="cls-4" x1="335.31" y1="22.26" x2="337.43" y2="26.9"/>
    <line class="cls-4" x1="336.27" y1="28.87" x2="345.28" y2="28.66"/>
    <line class="cls-4" x1="313.96" y1="22.73" x2="336.27" y2="28.87"/>
    <line class="cls-4" x1="316.46" y1="29.32" x2="323.59" y2="29.16"/>
    <line class="cls-4" x1="310.93" y1="26.5" x2="316.46" y2="29.32"/>
    <line class="cls-4" x1="306.14" y1="29.55" x2="310.93" y2="26.5"/>
    <line class="cls-4" x1="297.36" y1="29.75" x2="306.14" y2="29.55"/>
    <line class="cls-4" x1="285.02" y1="23.37" x2="302.65" y2="26.25"/>
    <line class="cls-4" x1="303.97" y1="22.94" x2="308.9" y2="25.47"/>
    <line class="cls-4" x1="275.27" y1="30.29" x2="284.45" y2="30.08"/>
    <line class="cls-4" x1="275.79" y1="26.24" x2="276.56" y2="28.31"/>
    <line class="cls-4" x1="270.34" y1="26.36" x2="275.79" y2="26.24"/>
    <line class="cls-4" x1="265.53" y1="25.03" x2="270.34" y2="26.36"/>
    <line class="cls-4" x1="274.87" y1="23.6" x2="275.23" y2="24.63"/>
    <line class="cls-4" x1="275.27" y1="30.29" x2="275.28" y2="30.11"/>
    <line class="cls-4" x1="284.45" y1="30.08" x2="284.47" y2="29.9"/>
    <line class="cls-4" x1="284.47" y1="29.9" x2="282.02" y2="23.26"/>
    <line class="cls-4" x1="274.87" y1="23.6" x2="274.88" y2="23.42"/>
    <line class="cls-4" x1="282.02" y1="23.26" x2="274.88" y2="23.42"/>
    <line class="cls-4" x1="265.53" y1="25.03" x2="265.54" y2="24.85"/>
    <line class="cls-4" x1="270.34" y1="26.36" x2="270.36" y2="26.18"/>
    <line class="cls-4" x1="275.79" y1="26.24" x2="275.81" y2="26.06"/>
    <line class="cls-4" x1="270.36" y1="26.18" x2="275.81" y2="26.06"/>
    <line class="cls-4" x1="275.81" y1="26.06" x2="276.65" y2="28.33"/>
    <line class="cls-4" x1="253.02" y1="24.09" x2="253.03" y2="23.91"/>
    <line class="cls-4" x1="260.29" y1="23.75" x2="253.03" y2="23.91"/>
    <line class="cls-4" x1="303.97" y1="22.94" x2="303.98" y2="22.77"/>
    <line class="cls-4" x1="311.08" y1="22.61" x2="303.98" y2="22.77"/>
    <line class="cls-4" x1="285.02" y1="23.37" x2="285.03" y2="23.19"/>
    <line class="cls-4" x1="293.76" y1="22.99" x2="285.03" y2="23.19"/>
    <line class="cls-4" x1="297.36" y1="29.75" x2="297.38" y2="29.57"/>
    <line class="cls-4" x1="306.14" y1="29.55" x2="306.16" y2="29.37"/>
    <line class="cls-4" x1="310.93" y1="26.5" x2="310.94" y2="26.32"/>
    <line class="cls-4" x1="306.16" y1="29.37" x2="310.94" y2="26.32"/>
    <line class="cls-4" x1="316.46" y1="29.32" x2="316.47" y2="29.15"/>
    <line class="cls-4" x1="310.94" y1="26.32" x2="316.47" y2="29.15"/>
    <line class="cls-4" x1="323.59" y1="29.16" x2="323.6" y2="28.98"/>
    <line class="cls-4" x1="323.6" y1="28.98" x2="311.08" y2="22.61"/>
    <line class="cls-4" x1="325.09" y1="23.51" x2="321.02" y2="22.4"/>
    <line class="cls-4" x1="313.96" y1="22.73" x2="313.97" y2="22.55"/>
    <line class="cls-4" x1="321.02" y1="22.4" x2="313.97" y2="22.55"/>
    <line class="cls-4" x1="336.27" y1="28.87" x2="336.29" y2="28.69"/>
    <line class="cls-4" x1="345.28" y1="28.66" x2="345.29" y2="28.48"/>
    <line class="cls-4" x1="345.29" y1="28.48" x2="342.39" y2="21.92"/>
    <line class="cls-4" x1="335.31" y1="22.26" x2="335.32" y2="22.08"/>
    <line class="cls-4" x1="342.39" y1="21.92" x2="335.32" y2="22.08"/>
    <line class="cls-4" x1="335.25" y1="24.89" x2="335.27" y2="24.71"/>
    <line class="cls-4" x1="335.27" y1="24.71" x2="334.66" y2="23.3"/>
    <line class="cls-4" x1="334.66" y1="23.3" x2="325.09" y2="23.51"/>
    <line class="cls-4" x1="349.58" y1="24.09" x2="349.59" y2="23.91"/>
    <line class="cls-4" x1="350.43" y1="24.52" x2="350.44" y2="24.34"/>
    <path class="cls-4" d="M349.59,23.91c.15.1.69.36.85.43"/>
    <line class="cls-4" x1="358.15" y1="28.37" x2="358.17" y2="28.19"/>
    <line class="cls-4" x1="350.44" y1="24.34" x2="358.17" y2="28.19"/>
    <line class="cls-4" x1="365.14" y1="28.2" x2="365.15" y2="28.03"/>
    <line class="cls-4" x1="365.15" y1="28.03" x2="357.03" y2="24.01"/>
    <path class="cls-4" d="M356.73,23.6c.16-.21.8-.31,1-.34.36-.05.71-.07,1.07-.07"/>
    <path class="cls-4" d="M358.81,23.19c1.08-.02,2.38.07,3.45.28"/>
    <line class="cls-4" x1="363.81" y1="24.11" x2="363.82" y2="23.94"/>
    <path class="cls-4" d="M362.25,23.47c.57.11,1.03.25,1.57.47"/>
    <line class="cls-4" x1="370.69" y1="23.96" x2="370.7" y2="23.78"/>
    <path class="cls-4" d="M370.7,23.78c-1.01-.51-2.51-.89-3.59-1.12-1.23-.26-2.47-.46-3.72-.61-2.43-.3-5.07-.45-7.52-.4"/>
    <path class="cls-4" d="M355.86,21.65c-1.2.02-2.4.08-3.59.24-.6.08-1.18.18-1.77.35-.29.08-.57.18-.84.32-.16.08-.3.17-.42.3-.08.09-.15.2-.16.33"/>
    <path class="cls-4" d="M125.79,122.66s-.01,0-.02-.01c0,0,0,0,0,0,0,0,0,0,0,0,0,0,0,0,0,0"/>
    <path class="cls-4" d="M391.92,31.55c-.21.12-1,.64-1.2.77-.4.26-.8.51-1.2.76"/>
    <line class="cls-4" x1="351.16" y1="398.89" x2="350.47" y2="398.48"/>
    <path class="cls-4" d="M356.69,23.68s.01-.05.03-.08"/>
    <line class="cls-4" x1="349.07" y1="23.37" x2="349.08" y2="23.2"/>
    <path class="cls-4" d="M349.07,23.37c-.02.31.3.57.51.72"/>
    <path class="cls-4" d="M349.09,23.28s-.01.06-.02.09"/>
    <path class="cls-4" d="M356.72,23.77c.16-.21.79-.3,1-.33.36-.05.71-.07,1.07-.07"/>
    <line class="cls-4" x1="330.52" y1="25" x2="335.25" y2="24.89"/>
    <path class="cls-4" d="M26.17,242.81s-.04.18-.1.2"/>
    <line class="cls-4" x1="275.28" y1="30.11" x2="284.47" y2="29.9"/>
    <line class="cls-4" x1="274.88" y1="23.42" x2="275.31" y2="24.63"/>
    <line class="cls-4" x1="265.54" y1="24.85" x2="270.36" y2="26.18"/>
    <line class="cls-4" x1="303.98" y1="22.77" x2="309.44" y2="25.55"/>
    <line class="cls-4" x1="285.03" y1="23.19" x2="302.88" y2="26.1"/>
    <line class="cls-4" x1="297.38" y1="29.57" x2="306.16" y2="29.37"/>
    <line class="cls-4" x1="316.47" y1="29.15" x2="323.6" y2="28.98"/>
    <line class="cls-4" x1="313.97" y1="22.55" x2="336.29" y2="28.69"/>
    <line class="cls-4" x1="336.29" y1="28.69" x2="345.29" y2="28.48"/>
    <line class="cls-4" x1="335.32" y1="22.08" x2="337.53" y2="26.93"/>
    <line class="cls-4" x1="329.92" y1="24.84" x2="335.27" y2="24.71"/>
    <line class="cls-4" x1="358.17" y1="28.19" x2="365.15" y2="28.03"/>
    <path class="cls-4" d="M26.47,238.75c.15-.04.3,0,.44.07.2.1.37.26.52.42.26.28.46.59.64.92.36.64.66,1.38.89,2.07.43,1.32.78,3.02.73,4.43"/>
    <path class="cls-4" d="M26.07,243.01s-.06-.02-.08-.04c-.02-.02-.03-.05-.05-.08"/>
    <line class="cls-4" x1="58.33" y1="70.99" x2="57.78" y2="70.43"/>
    <line class="cls-4" x1="56.56" y1="72.72" x2="56.83" y2="72.75"/>
    <path class="cls-4" d="M439.7,386.95s-.07-.02-.1-.04"/>
    <path class="cls-4" d="M179.31,416.8c1.59.73,3.22,1.34,4.88,1.89,2.05.68,4.12,1.27,6.21,1.8,2.47.63,4.95,1.18,7.45,1.67,2.85.57,5.7,1.07,8.57,1.53,4.4.7,8.82,1.29,13.25,1.81,4.86.57,9.74,1.05,14.61,1.47,18.26,1.56,37.75,2.29,56.07,2.45,18.53.16,37.59-.23,56.09-1.17,18.24-.93,37.76-2.48,55.88-4.86"/>
    <path class="cls-4" d="M27.57,245.8c-.29-.24-.57-.5-.82-.79"/>
    <path class="cls-4" d="M26.17,242.81c.07-.39.17-.76.31-1.12"/>
    <path class="cls-4" d="M437.79,392.04s0,0,0,0"/>
    <path class="cls-4" d="M439.23,382.56c.55.11.96.56,1.23,1,.28.46.46,1,.58,1.52"/>
    <path class="cls-4" d="M459.49,405.47c0,.06,0,.12,0,.18"/>
    <line class="cls-4" x1="224.66" y1="16.5" x2="224.72" y2="15.67"/>
    <path class="cls-4" d="M402.35,370.37c9.74-1.15,20.45-2.68,30.08-4.65,4.78-.98,10.1-2.22,14.75-3.72,1.32-.43,2.63-.88,3.91-1.39,1.07-.42,2.13-.88,3.15-1.41.78-.4,1.54-.82,2.26-1.32.57-.39,1.11-.81,1.59-1.31.37-.38.7-.81.94-1.29.19-.4.31-.82.3-1.27"/>
    <path class="cls-4" d="M26.53,245.09s0-.07,0-.1c0-.03.02-.07.05-.08"/>
    <line class="cls-4" x1="415.9" y1="367.84" x2="415.9" y2="367.65"/>
    <path class="cls-4" d="M347.89,397.29c-.18.34-.35.68-.51,1.02"/>
    <path class="cls-4" d="M27.57,245.8c0-.27,0-.54.03-.81"/>
    <path class="cls-4" d="M26.9,242.35c-.15-.21-.29-.43-.42-.66"/>
    <line class="cls-4" x1="25.96" y1="242.88" x2="25.95" y2="242.89"/>
    <line class="cls-4" x1="438.9" y1="387.68" x2="440.97" y2="388.17"/>
    <line class="cls-4" x1="26.73" y1="242.87" x2="26.64" y2="242.86"/>
    <path class="cls-4" d="M438.7,386.39c.31.16.61.33.9.52"/>
    <path class="cls-4" d="M72.77,234.52c.18-.05.27-.27.32-.41.05-.18.07-.36.08-.54"/>
    <path class="cls-4" d="M28.98,248.43c-.33.09-.67-.19-.87-.39"/>
    <line class="cls-4" x1="31.58" y1="247.75" x2="28.98" y2="248.43"/>
    <line class="cls-4" x1="26.47" y1="238.75" x2="29.06" y2="238.07"/>
    <path class="cls-4" d="M25.9,239.51c.07-.27.23-.68.57-.77"/>
    <path class="cls-4" d="M28.11,248.04c-1.09-1.1-1.87-2.46-2.26-3.96-.39-1.5-.37-3.07.04-4.56"/>
    <path class="cls-4" d="M26.58,244.9c.06-.02.15.07.18.11"/>
    <path class="cls-4" d="M73.17,233.57c.04-.75-.15-1.66-.38-2.36-.13-.38-.28-.75-.48-1.1-.1-.18-.21-.34-.35-.49-.08-.09-.17-.16-.28-.22-.08-.04-.15-.06-.24-.03"/>
    <path class="cls-4" d="M32.28,245.98c-.01.34-.05.67-.14,1-.07.27-.24.69-.57.78"/>
    <path class="cls-4" d="M29.68,246.66c-.01.34-.05.67-.13,1-.07.27-.23.69-.57.78"/>
    <path class="cls-4" d="M25.92,243.7c-.13-.3-.22-.6-.28-.93"/>
    <path class="cls-4" d="M26.34,245.41c-.11-.32-.19-.64-.23-.98"/>
    <path class="cls-4" d="M26.34,245.41c.12.23.26.45.42.66"/>
    <path class="cls-4" d="M25.67,241.96c-.03.27-.04.54-.03.81"/>
    <path class="cls-4" d="M25.92,243.7c.08.2.17.52.2.73"/>
    <path class="cls-4" d="M573.08,103.06c.33-.09.49-.48.55-.75.08-.33.09-.64.06-.97-.04-.63-.22-1.31-.5-1.88"/>
    <path class="cls-4" d="M573.62,105.12c.62-.16.91-.89,1.03-1.4.14-.58.16-1.23.12-1.81-.08-1.18-.42-2.44-.94-3.5"/>
    <path class="cls-4" d="M537.68,108.77c.28.57.46,1.25.5,1.88.03.33.02.65-.05.97-.06.27-.21.67-.54.76"/>
    <path class="cls-4" d="M573.19,99.46c-.14-.29-.3-.55-.52-.79-.19-.2-.51-.45-.83-.36"/>
    <path class="cls-4" d="M573.83,98.4c-.25-.51-.58-1.05-.98-1.47-.36-.38-.94-.84-1.55-.68"/>
    <path class="cls-4" d="M571.38,103.51c.24.41.55.83.91,1.14.34.3.83.6,1.33.47"/>
    <path class="cls-4" d="M536.33,107.61c.32-.08.64.17.82.37.22.24.38.5.52.79"/>
    <path class="cls-4" d="M571.3,96.25c-.5.13-.78.64-.93,1.06-.16.45-.22.97-.23,1.44"/>
    <line class="cls-4" x1="571.3" y1="96.25" x2="573.48" y2="95.68"/>
    <path class="cls-4" d="M537.58,112.39c-.32.08-.64-.17-.82-.37-.22-.24-.38-.5-.52-.79"/>
    <path class="cls-4" d="M575.8,104.54c.4-.1.66-.45.82-.79.17-.35.25-.76.3-1.14"/>
    <line class="cls-4" x1="575.8" y1="104.54" x2="573.62" y2="105.12"/>
    <path class="cls-4" d="M576.92,102.61c.18-1.54-.24-3.41-.91-4.78"/>
    <path class="cls-4" d="M575.41,96.82c-.23-.31-.5-.62-.82-.85-.31-.22-.71-.39-1.11-.29"/>
    <path class="cls-4" d="M575.41,96.82c1.22,1.67,1.76,3.74,1.51,5.79"/>
    <path class="cls-4" d="M536.24,111.22c-.28-.57-.46-1.25-.5-1.88-.02-.33-.02-.65.06-.97.06-.27.21-.67.54-.76"/>
    <path class="cls-4" d="M576.01,97.83c-.18-.36-.37-.69-.6-1.01"/>
    <path class="cls-4" d="M131.76,113.87s.03.03.05.05"/>
    <line class="cls-4" x1="118.7" y1="170.18" x2="118.83" y2="170.2"/>
    <line class="cls-4" x1="118.69" y1="170.27" x2="118.82" y2="170.29"/>
    <path class="cls-4" d="M100.48,166.74c3.95-21.78,12.82-42.53,25.97-60.36,13.15-17.81,30.38-32.42,50.47-41.94"/>
    <path class="cls-4" d="M438.51,382.94c-.05.06-.11.11-.16.17"/>
    <path class="cls-4" d="M521.25,382.01c-.07.22-.13.45-.17.68"/>
    <path class="cls-4" d="M522.75,383c.34.23.82,0,1.09-.17.32-.21.62-.49.86-.78.47-.55.91-1.33,1.05-2.06"/>
    <path class="cls-4" d="M521.56,384.8c.32.21.71.2,1.05.12.35-.08.69-.25.99-.45.6-.38,1.16-.92,1.61-1.46.87-1.04,1.7-2.49,1.95-3.85"/>
    <path class="cls-4" d="M495.19,359.67c-.14.73-.59,1.51-1.06,2.06-.24.29-.54.58-.86.78-.27.17-.75.42-1.09.19"/>
    <path class="cls-4" d="M525.75,379.99c.06-.33.1-.89-.25-1.13"/>
    <path class="cls-4" d="M527.16,379.17c.07-.36.1-.76.05-1.13-.05-.36-.19-.75-.53-.97"/>
    <path class="cls-4" d="M494.95,358.55c.35.23.3.8.24,1.12"/>
    <path class="cls-4" d="M526.69,377.06c-.44-.29-1.01-.17-1.43,0-.45.19-.89.49-1.25.8"/>
    <line class="cls-4" x1="526.69" y1="377.06" x2="528.56" y2="378.31"/>
    <path class="cls-4" d="M492.18,362.71c-.35-.23-.3-.8-.24-1.13"/>
    <path class="cls-4" d="M523.43,386.04c.36.24.82.2,1.2.08.39-.12.77-.34,1.1-.58"/>
    <line class="cls-4" x1="523.43" y1="386.04" x2="521.56" y2="384.8"/>
    <path class="cls-4" d="M525.73,385.55c1.49-1.07,2.86-3.14,3.26-4.92"/>
    <path class="cls-4" d="M528.99,380.62c.02-.07.03-.14.04-.21"/>
    <path class="cls-4" d="M528.99,380.62c-.45,1.98-1.61,3.74-3.26,4.92"/>
    <path class="cls-4" d="M491.94,361.58c.14-.73.59-1.51,1.06-2.06.24-.29.54-.58.86-.79.27-.17.75-.41,1.09-.19"/>
    <path class="cls-4" d="M521.08,382.69c-.07.36-.1.76-.05,1.14.05.36.19.75.53.97"/>
    <path class="cls-4" d="M529.04,380.42c.07-.36.1-.76.05-1.13-.05-.36-.19-.75-.53-.97"/>
    <line class="cls-4" x1="465.64" y1="71.61" x2="594.81" y2="67.61"/>
    <path class="cls-4" d="M473.58,255.06c-4.91.31-9.8.77-14.69,1.38"/>
    <line class="cls-4" x1="594.83" y1="247.54" x2="473.58" y2="255.06"/>
    <path class="cls-4" d="M348.72,398.98c-.45-.22-.9-.44-1.35-.66"/>
    <line class="cls-4" x1="349.96" y1="397.74" x2="350.19" y2="397.85"/>
    <path class="cls-4" d="M351.65,393.74c.11.07.23.14.34.21"/>
    <line class="cls-4" x1="351.65" y1="393.74" x2="352.34" y2="394.14"/>
    <line class="cls-4" x1="346.82" y1="403.29" x2="346.13" y2="402.88"/>
    <path class="cls-4" d="M350.47,398.48s-.07-.05-.1-.07"/>
    <path class="cls-4" d="M348.22,401.02c.26-.42.5-.86.74-1.29"/>
    <path class="cls-4" d="M349.94,400.21c-.24.44-.48.87-.74,1.29"/>
    <line class="cls-4" x1="25.91" y1="242.79" x2="25.64" y2="242.77"/>
    <line class="cls-4" x1="26.34" y1="245.41" x2="26.56" y2="245.26"/>
    <line class="cls-4" x1="26.58" y1="244.9" x2="27.29" y2="244.72"/>
    <path class="cls-4" d="M351.9,400.51c-.4-.19-.81-.38-1.21-.58"/>
    <path class="cls-4" d="M108.65,216.9s0,0,0,0c0,0,0,0,0,0h.02s.02,0,.03,0"/>
    <line class="cls-4" x1="439.7" y1="386.95" x2="438.59" y2="386.87"/>
    <path class="cls-4" d="M351.2,398.91c.4.19.8.39,1.21.58"/>
    <path class="cls-4" d="M351.56,396.78c-.32-.17-.65-.33-.98-.48"/>
    <line class="cls-4" x1="348.05" y1="398.58" x2="347.37" y2="398.32"/>
    <path class="cls-4" d="M348.05,398.58s.01,0,.02,0"/>
    <line class="cls-4" x1="349.27" y1="399.8" x2="349.2" y2="401.5"/>
    <path class="cls-4" d="M348.22,401.02c.32.17.65.33.98.48"/>
    <path class="cls-4" d="M349.94,400.21c.14-.26.47-.41.75-.27"/>
    <path class="cls-4" d="M349.27,399.8s0-.1.02-.15"/>
    <path class="cls-4" d="M350.01,399.53c-.06-.03-.11-.05-.17-.07"/>
    <path class="cls-4" d="M351.9,400.51c.19-.33.36-.67.51-1.02"/>
    <line class="cls-4" x1="351.9" y1="400.51" x2="350.01" y2="399.53"/>
    <path class="cls-4" d="M459.5,415.63c.02.15.03.3.03.45"/>
    <path class="cls-4" d="M156.17,293.92s-.05.02-.07.02"/>
    <path class="cls-4" d="M229.31,372.3c-.02.09-.03.18-.04.27"/>
    <path class="cls-4" d="M52.28,234.39c-.82-2.1-1.58-4.22-2.29-6.36s-1.36-4.29-1.97-6.46c-.61-2.17-1.16-4.35-1.66-6.55-.5-2.2-.95-4.4-1.36-6.62-.81-4.44-1.41-8.89-1.82-13.38-.21-2.24-.36-4.49-.48-6.74s-.18-4.5-.19-6.75"/>
    <path class="cls-4" d="M351.2,398.91s-.03-.01-.04-.02"/>
    <path class="cls-4" d="M350.53,398.51s-.04-.02-.06-.03"/>
    <path class="cls-4" d="M392.71,36.62c.02-.05.03-.1.04-.16"/>
    <path class="cls-4" d="M391.12,15.84s-.05-.01-.08-.02"/>
    <path class="cls-4" d="M253.37,4.24s.06,0,.1,0"/>
    <path class="cls-4" d="M350.19,397.85s.06-.07.1-.09"/>
    <path class="cls-4" d="M77.37,80.89c1.14-1.33,2.3-2.63,3.49-3.91,1.17-1.26,2.37-2.49,3.6-3.7,1.25-1.23,2.53-2.43,3.83-3.59,1.28-1.15,2.59-2.26,3.92-3.35,5.39-4.38,11.2-8.23,17.4-11.37,3.1-1.57,6.27-2.96,9.54-4.15,1.65-.6,3.31-1.15,4.99-1.64,1.65-.48,3.31-.91,4.99-1.29,1.7-.38,3.42-.71,5.14-.97,1.71-.26,3.42-.47,5.14-.61,3.47-.29,6.92-.34,10.4-.14"/>
    <path class="cls-4" d="M350.19,397.85c-.05.2.01.42.17.55"/>
    <path class="cls-4" d="M156.1,293.95s.05-.02.07-.02"/>
    <path class="cls-4" d="M125.14,235.98c.11-.04.21-.07.32-.11"/>
    <path class="cls-4" d="M122.08,236.9s.07-.02.11-.03"/>
    <path class="cls-4" d="M148.52,104.64l-.09-.07"/>
    <path class="cls-4" d="M33.45,239.32c-.99-1.51-1.94-3.04-2.85-4.59"/>
    <path class="cls-4" d="M64.17,71.17c2.96-2.2,6.01-4.25,9.17-6.17,3.15-1.92,6.38-3.7,9.69-5.33,6.62-3.27,13.51-5.94,20.58-8.04,3.54-1.05,7.1-1.95,10.71-2.72,1.81-.38,3.63-.73,5.46-1.04,1.81-.31,3.62-.58,5.44-.82,1.85-.24,3.7-.45,5.56-.62,1.81-.17,3.63-.29,5.45-.39,3.68-.19,7.36-.23,11.05-.15"/>
    <path class="cls-4" d="M246.69,5.22h-.08"/>
    <path class="cls-4" d="M385.74,14.14s.06.01.08.02"/>
    <line class="cls-4" x1="349.29" y1="399.66" x2="349.02" y2="399.53"/>
    <path class="cls-4" d="M450.62,71.59c5.01.17,10,.18,15.01.02"/>
    <path class="cls-4" d="M420.72,68.88s.06,0,.08.01"/>
    <path class="cls-4" d="M349.84,399.46c-.21-.04-.42.04-.55.2"/>
    <path class="cls-4" d="M304.83,80.62c.08.07.16.14.24.21"/>
    <path class="cls-4" d="M169.78,311.21c-13.05-6.12-24.81-14.58-34.84-24.9-10.04-10.33-18.16-22.33-24.2-35.39-12.13-26.26-15.41-55.87-10.27-84.18"/>
    <line class="cls-4" x1="350.37" y1="398.41" x2="349.84" y2="399.46"/>
    <line class="cls-4" x1="186.23" y1="463.53" x2="185.22" y2="463.63"/>
    <path class="cls-4" d="M186.67,462.85c-.38.4-.87.72-1.45.78"/>
    <path class="cls-4" d="M438.6,393.2c.16.07.31.12.49.13"/>
    <path class="cls-4" d="M214.7,370.97s.01-.08.02-.12"/>
    <line class="cls-4" x1="438.73" y1="393.21" x2="439.58" y2="393.29"/>
    <line class="cls-4" x1="399.99" y1="370.07" x2="399.99" y2="369.99"/>
    <path class="cls-4" d="M439.08,393.33c.17.02.33,0,.5-.04"/>
    <path class="cls-4" d="M459.35,354.01c0-.15-.01-.3-.04-.45"/>
    <line class="cls-4" x1="459.35" y1="354.01" x2="459.5" y2="405.29"/>
    <path class="cls-4" d="M408.53,433.77c-.08-.18-.16-.36-.24-.55"/>
    <path class="cls-4" d="M399.99,369.99c.09,0,.18,0,.27.02"/>
    <path class="cls-4" d="M214.39,11.08c9.4-4.02,20.34-6.25,30.34-7.59,10.21-1.37,20.99-2.01,31.27-2.2"/>
    <path class="cls-4" d="M428.53,32.31c.56.95.92,2.01.83,3.14"/>
    <path class="cls-4" d="M429.37,35.45c-.05.72-.28,1.39-.63,2.01"/>
    <path class="cls-4" d="M436.24,428.48c-9.22,2.33-19.68,4.14-29.08,5.49-9.67,1.39-19.69,2.51-29.42,3.4"/>
    <path class="cls-4" d="M230.92,437.98c-10.05-.94-21.11-2.28-31.03-4.18-4.93-.94-10.42-2.18-15.2-3.75-1.36-.44-2.7-.92-4.02-1.47-1.1-.45-2.17-.94-3.21-1.51-.76-.42-1.5-.87-2.2-1.39-.56-.42-1.08-.87-1.55-1.4-.68-.78-1.22-1.71-1.22-2.81"/>
    <path class="cls-4" d="M377.74,437.37c-25.22,2.3-52.2,3.39-77.51,3.44"/>
    <path class="cls-4" d="M276.01,1.29c12.37-.23,25.13.11,37.48.87,6.24.38,12.47.88,18.7,1.5,3.14.31,6.28.65,9.41,1.02,3.07.36,6.15.76,9.21,1.18,12.13,1.68,24.93,3.97,36.81,6.99,3.12.79,6.23,1.65,9.31,2.59,2.9.88,5.76,1.83,8.6,2.88,2.97,1.1,5.9,2.3,8.77,3.64,1.39.65,2.77,1.34,4.13,2.07,1.36.73,2.7,1.5,4.01,2.32"/>
    <path class="cls-4" d="M30.86,108.66c3.46-6.01,7.41-11.72,11.82-17.07,4.41-5.35,9.26-10.31,14.52-14.84"/>
    <path class="cls-4" d="M107.6,293.35c-1.77-.64-3.54-1.3-5.29-1.98-1.65-.64-3.3-1.3-4.94-1.97-3.39-1.38-6.74-2.85-10.04-4.42-3.31-1.57-6.55-3.24-9.75-5.04-1.58-.89-3.14-1.81-4.68-2.75-1.58-.97-3.13-1.96-4.67-2.99-6.11-4.1-11.79-8.61-17.12-13.69-5.3-5.05-10.13-10.56-14.43-16.49"/>
    <path class="cls-4" d="M344.98,401.79s.02.02.02.03"/>
    <path class="cls-4" d="M294.27,72.78l.49.34"/>
    <path class="cls-4" d="M300.22,440.81c.57,1.83,1.64,5.17,2.23,6.99.76,2.33,1.52,4.65,2.29,6.97,1.54,4.65,3.11,9.28,4.66,13.93.77,2.32,1.54,4.64,2.29,6.97.75,2.33,1.49,4.66,2.18,7.01,1.4,4.7,2.65,9.41,3.6,14.23"/>
    <path class="cls-4" d="M205.93,434.86c-.02-.24-.03-.47-.05-.71"/>
    <path class="cls-4" d="M304.73,80.79c.08.07.16.14.24.21"/>
    <path class="cls-4" d="M317.76,440.16c-.04.15-.08.3-.12.46"/>
    <path class="cls-4" d="M269.76,44.49c.15,0,.31,0,.46-.01"/>
    <path class="cls-4" d="M422.6,72.44c.84,1.64,2.22,4.3,3.31,5.81.18.24.36.48.56.7.17.19.36.37.57.52.11.07.24.15.38.16.1,0,.17-.02.24-.07.11-.08.19-.22.26-.33.09-.17.16-.35.21-.53.3-.96.38-2.33.4-3.31"/>
    <path class="cls-4" d="M191.32,29.33c1.27-1.83,2.83-3.87,4.37-5.5"/>
    <line class="cls-4" x1="309.45" y1="63.47" x2="309.39" y2="67.8"/>
    <path class="cls-4" d="M195.7,23.84c4.8-5.06,10.26-8.85,16.55-11.8"/>
    <path class="cls-4" d="M429.36,35.53s0-.06,0-.08"/>
    <line class="cls-4" x1="433.33" y1="474.48" x2="433.3" y2="463.85"/>
    <path class="cls-4" d="M190.05,452.7c.2-1.75.23-3.48.1-5.23-.13-1.75-.42-3.46-.88-5.16-.45-1.65-1.09-3.36-1.92-4.86-.41-.76-.9-1.51-1.46-2.17-.23-.27-.48-.53-.75-.77-.2-.18-.41-.34-.64-.47-.15-.08-.29-.15-.46-.2-.08-.02-.16-.03-.24-.03"/>
    <path class="cls-4" d="M433.3,463.85c.01,3.61.17,7.2.52,10.79.35,3.6.88,7.15,1.61,10.69"/>
    <path class="cls-4" d="M169.8,311.28c-5.5-2.55-10.8-5.54-15.83-8.91-2.52-1.68-4.96-3.46-7.34-5.33-2.39-1.88-4.71-3.85-6.95-5.91-2.23-2.05-4.38-4.17-6.45-6.37-2.09-2.22-4.09-4.51-6-6.88-1.9-2.35-3.72-4.76-5.45-7.24-1.74-2.5-3.39-5.05-4.95-7.67-3.12-5.23-5.84-10.61-8.2-16.22s-4.33-11.31-5.92-17.19c-1.59-5.87-2.78-11.79-3.6-17.82-.81-6.03-1.24-12.05-1.28-18.14"/>
    <path class="cls-4" d="M181.18,467.75c.3-.03.6-.13.88-.25.43-.19.81-.43,1.18-.71.62-.46,1.16-.99,1.67-1.56,1.01-1.14,1.86-2.44,2.55-3.79,1.4-2.72,2.25-5.72,2.59-8.74"/>
    <path class="cls-4" d="M42.56,181.52c-.02-2.19.01-4.37.08-6.56.07-2.18.19-4.36.35-6.54.16-2.19.36-4.37.61-6.55.24-2.16.53-4.32.86-6.47.66-4.32,1.5-8.61,2.5-12.86,1.01-4.26,2.18-8.46,3.52-12.62.68-2.1,1.4-4.18,2.16-6.24.75-2.03,1.55-4.05,2.38-6.05.85-2.03,1.74-4.04,2.68-6.03.92-1.96,1.89-3.91,2.9-5.83,1.02-1.95,2.09-3.87,3.2-5.77,1.1-1.87,2.24-3.72,3.42-5.54,1.2-1.85,2.45-3.67,3.75-5.46,1.27-1.75,2.57-3.47,3.92-5.15"/>
    <path class="cls-4" d="M147.61,45.91c4.44.11,8.88.27,13.31.48"/>
    <path class="cls-4" d="M42.51,181.53c-.02-2.15.01-4.31.08-6.46.07-2.15.18-4.3.33-6.45.31-4.3.78-8.57,1.43-12.84.64-4.26,1.45-8.49,2.43-12.69.49-2.1,1.02-4.2,1.59-6.28.57-2.07,1.18-4.13,1.83-6.17.66-2.06,1.35-4.11,2.09-6.14.73-2.01,1.5-4.01,2.32-5.99.82-2.01,1.69-3.99,2.6-5.96.9-1.94,1.84-3.86,2.82-5.77.99-1.93,2.03-3.83,3.11-5.72,1.06-1.85,2.17-3.68,3.31-5.48,1.17-1.84,2.37-3.64,3.63-5.42,1.23-1.74,2.5-3.45,3.81-5.14"/>
    <path class="cls-4" d="M97.83,193.6c-.19-26.74,7.09-53.29,20.9-76.19,6.89-11.43,15.36-21.88,25.19-30.91,2.47-2.27,5.01-4.43,7.63-6.51,2.61-2.06,5.29-4.02,8.04-5.88,2.78-1.88,5.61-3.64,8.53-5.29,2.89-1.64,5.83-3.17,8.84-4.59"/>
    <path class="cls-4" d="M147.61,45.91c1.1.03,2.21.08,3.31.17"/>
    <path class="cls-4" d="M109.4,293.97c-.45-.15-.89-.3-1.33-.46"/>
    <path class="cls-4" d="M162.5,297.32c-.18-.16-.35-.32-.52-.49"/>
    <path class="cls-4" d="M170.23,312.95c-10.45-2.97-20.87-6-31.25-9.2-5.19-1.6-10.36-3.24-15.52-4.94-5.16-1.7-10.29-3.46-15.41-5.29"/>
    <line class="cls-4" x1="223.16" y1="371.75" x2="223.16" y2="371.98"/>
    <line class="cls-4" x1="402.46" y1="400.35" x2="402.46" y2="399.69"/>
    <path class="cls-4" d="M239.23,373.06c-.4.07-.81.15-1.21.22"/>
    <path class="cls-4" d="M172.15,358.31c-.03.15-.04.3-.04.45"/>
    <path class="cls-4" d="M235.61,373.74c-.2.04-.41.08-.61.12"/>
    <path class="cls-4" d="M227.14,372.1c-.25.07-.5.13-.75.2"/>
    <line class="cls-4" x1="217.1" y1="371.32" x2="218.01" y2="371.22"/>
    <path class="cls-4" d="M344.43,399.08s-.09.07-.14.1"/>
    <line class="cls-4" x1="214.45" y1="371" x2="215.25" y2="370.91"/>
    <line class="cls-4" x1="400.66" y1="370.07" x2="399.34" y2="370.07"/>
    <path class="cls-4" d="M172.11,358.77c0,.5.15.96.39,1.39.3.54.72,1,1.17,1.4.61.55,1.28.99,1.99,1.4.91.53,1.86.97,2.83,1.38,1.21.51,2.44.95,3.68,1.35,1.49.48,3,.91,4.52,1.31,1.77.46,3.55.87,5.34,1.25,2.04.43,4.08.82,6.13,1.18,4.47.78,8.96,1.43,13.46,1.99,5.18.65,10.36,1.18,15.55,1.65,18.91,1.68,39.43,2.48,58.41,2.72,19.3.24,39.21-.07,58.5-.91,18.99-.83,39.39-2.26,58.28-4.49"/>
    <path class="cls-4" d="M158.25,293.22c-.06.02-.12.04-.19.07"/>
    <line class="cls-4" x1="183.21" y1="467.56" x2="181.18" y2="467.75"/>
    <line class="cls-4" x1="147.38" y1="45.9" x2="147.38" y2="45.9"/>
    <path class="cls-4" d="M13.78,173.62c-.07-9.63.95-19.27,3.03-28.68,1.04-4.72,2.34-9.34,3.9-13.91,1.56-4.57,3.37-9.01,5.44-13.38"/>
    <path class="cls-4" d="M28.93,112.8c.36-.67.7-1.35,1-2.05.15-.35.29-.7.44-1.05.15-.35.29-.7.48-1.03"/>
    <line class="cls-4" x1="26.15" y1="117.65" x2="26.15" y2="117.65"/>
    <path class="cls-4" d="M29.46,232.78c.37.65.75,1.3,1.13,1.95"/>
    <path class="cls-4" d="M26.15,117.65s0,0,0,0"/>
    <path class="cls-4" d="M26.68,226.51c.25,1.05.63,2.03,1.08,3"/>
    <path class="cls-4" d="M442.6,176.62c0-.08-.01-.17-.02-.25"/>
    <line class="cls-4" x1="183.81" y1="433.81" x2="185.19" y2="433.69"/>
    <path class="cls-4" d="M172.11,357.86c-.05-9.86-.1-19.72-.15-29.59"/>
    <line class="cls-4" x1="346.58" y1="403.56" x2="345.78" y2="403.01"/>
    <path class="cls-4" d="M158.26,293.23c-2.83-2.87-5.51-5.87-8.05-9-1.28-1.57-2.52-3.18-3.72-4.81-1.21-1.64-2.37-3.31-3.5-5-1.11-1.67-2.19-3.37-3.22-5.1-1.04-1.73-2.04-3.49-3-5.27-.96-1.78-1.88-3.59-2.76-5.42-.88-1.83-1.72-3.69-2.52-5.56-.79-1.85-1.54-3.72-2.24-5.6-.71-1.89-1.38-3.79-2-5.71-.63-1.92-1.21-3.86-1.76-5.81-.55-1.96-1.05-3.94-1.51-5.92-.46-1.96-.87-3.93-1.24-5.91-.37-1.98-.7-3.98-.99-5.97-.58-4.02-.99-8.05-1.23-12.11-.12-2.01-.2-4.03-.23-6.05-.04-2.02-.03-4.04.02-6.06.05-2.03.14-4.05.27-6.07.13-2.02.3-4.04.52-6.05.21-2.01.47-4.02.76-6.02.3-2,.63-4,1.01-5.99.75-3.98,1.67-7.92,2.74-11.82.54-1.95,1.11-3.89,1.73-5.82.62-1.93,1.27-3.84,1.96-5.74.69-1.9,1.42-3.78,2.19-5.65.77-1.87,1.57-3.72,2.42-5.55.85-1.85,1.74-3.69,2.67-5.5.92-1.8,1.87-3.57,2.86-5.33.99-1.76,2.02-3.5,3.09-5.22,1.06-1.71,2.16-3.4,3.29-5.07"/>
    <path class="cls-4" d="M145.83,114.08c1.99-2.92,4.07-5.77,6.27-8.54,2.2-2.77,4.49-5.45,6.89-8.05,1.2-1.3,2.42-2.57,3.67-3.83,1.24-1.25,2.51-2.48,3.8-3.68,1.29-1.21,2.61-2.38,3.95-3.54,1.34-1.15,2.7-2.28,4.08-3.38"/>
    <path class="cls-4" d="M27.76,229.51c.5,1.09,1.07,2.15,1.65,3.19"/>
    <path class="cls-4" d="M160.92,46.38c3.5.16,7,.22,10.5.26,3.5.03,7,.03,10.5,0"/>
    <path class="cls-4" d="M350.24,393.26s-.02,0-.03,0"/>
    <path class="cls-4" d="M29.46,232.78c-2.55-4.5-4.78-9.12-6.73-13.91-1.95-4.79-3.57-9.66-4.89-14.66-2.63-9.98-3.99-20.27-4.07-30.59"/>
    <path class="cls-4" d="M376.11,196.38c-4.16.21-8.31.31-12.48.29-2.16,0-4.33-.05-6.49-.11-2.18-.07-4.36-.16-6.55-.28-4.21-.23-8.42-.57-12.62-.99-2.13-.22-4.25-.46-6.37-.72-2.14-.27-4.27-.55-6.41-.87-2.1-.31-4.2-.64-6.29-.99-2.11-.36-4.21-.73-6.31-1.13-2.09-.4-4.19-.82-6.27-1.26-2.07-.44-4.14-.9-6.2-1.38-2.09-.49-4.18-1-6.27-1.53-2.07-.53-4.13-1.08-6.19-1.65-4.07-1.13-8.12-2.34-12.14-3.64-2.06-.66-4.11-1.35-6.15-2.06-2.03-.7-4.05-1.43-6.07-2.18-1.99-.74-3.97-1.5-5.94-2.29-1.93-.77-3.85-1.56-5.76-2.37-4.01-1.7-7.97-3.5-11.89-5.41-1.89-.92-3.77-1.87-5.64-2.84-1.82-.95-3.64-1.92-5.43-2.92-1.94-1.08-3.86-2.19-5.77-3.33-1.86-1.11-3.7-2.26-5.52-3.43-1.76-1.14-3.51-2.31-5.23-3.51-1.65-1.15-3.29-2.34-4.9-3.55-3.56-2.69-6.98-5.51-10.26-8.53-1.53-1.41-3.02-2.85-4.46-4.34-1.38-1.42-2.72-2.88-4.02-4.39"/>
    <path class="cls-4" d="M232.6,372.86c0-.09,0-.18,0-.28"/>
    <line class="cls-4" x1="217.93" y1="371.42" x2="217.93" y2="371.23"/>
    <path class="cls-4" d="M193.97,368.39c-.02.08-.04.15-.06.23"/>
    <line class="cls-4" x1="172.43" y1="410.57" x2="172.11" y2="358.77"/>
    <line class="cls-4" x1="394.07" y1="370.69" x2="399.34" y2="370.07"/>
    <path class="cls-4" d="M371.55,372.69c7.52-.56,15.02-1.22,22.52-2"/>
    <path class="cls-4" d="M232.61,372.58h0"/>
    <path class="cls-4" d="M244.71,374.43c-.5-.06-1-.12-1.49-.18"/>
    <path class="cls-4" d="M387.78,37.24c.1.1.2.21.3.3"/>
    <path class="cls-4" d="M212.25,12.04c.35-.16.7-.32,1.06-.48"/>
    <path class="cls-4" d="M205.61,19.6c-.07,1.05.27,2.04.79,2.92.33.56.72,1.06,1.15,1.54.52.57,1.07,1.09,1.67,1.59,1.49,1.24,3.2,2.3,4.89,3.23,2.21,1.21,4.55,2.28,6.88,3.23,1.41.57,2.82,1.11,4.25,1.63,1.57.56,3.15,1.1,4.74,1.61,3.57,1.14,7.17,2.16,10.8,3.09,13.06,3.37,27.49,5.91,40.83,7.74,3.39.47,6.79.89,10.19,1.29,1.73.2,3.46.39,5.2.58,1.75.19,3.5.36,5.25.53,3.44.33,6.88.63,10.33.9,1.73.13,3.46.26,5.19.38s3.47.23,5.2.33c3.49.2,6.97.37,10.46.51,1.72.07,3.45.13,5.17.18,1.71.05,3.42.09,5.14.12,1.78.03,3.56.06,5.34.07,1.75.01,3.5.02,5.24.01,3.4-.01,6.8-.06,10.2-.15"/>
    <path class="cls-4" d="M307.75,73.35c.91-3.06,1.65-6.66,1.7-9.88"/>
    <path class="cls-4" d="M192.55,27.76c.62-.77,1.25-1.52,1.9-2.26"/>
    <path class="cls-4" d="M364.52,50.93c1.45-.04,2.91-.09,4.36-.14,1.42-.05,2.84-.11,4.26-.18,2.87-.14,5.74-.31,8.6-.53,5.74-.43,11.45-1,17.14-1.82,5.49-.8,11.53-1.92,16.86-3.5,1.5-.45,2.98-.93,4.44-1.5,1.22-.48,2.42-1,3.58-1.62.83-.44,1.63-.92,2.39-1.48.63-.46,1.21-.94,1.73-1.52.78-.86,1.39-1.89,1.49-3.1"/>
    <path class="cls-4" d="M423.42,26.99c.33.2.65.41.96.63"/>
    <path class="cls-4" d="M166.44,462.25c1.14-3.27,2.11-6.57,2.91-9.94.8-3.37,1.42-6.75,1.9-10.18.47-3.43.79-6.86.99-10.31s.27-6.9.25-10.35"/>
    <path class="cls-4" d="M293.87,65.92c.03,1.43.16,2.84.36,4.25.2,1.41.47,2.8.82,4.19.61,2.46,1.66,5.74,3.11,7.9.37.56.85,1.16,1.4,1.57.61.45,1.27.65,2.02.39,1.24-.44,2.32-2.02,2.92-3.01,1.37-2.28,2.51-5.34,3.26-7.86"/>
    <path class="cls-4" d="M413.3,51.52c0,.44.08.87.19,1.3.12.51.27,1,.45,1.49.32.91.69,1.78,1.08,2.66.72,1.63,1.67,3.59,2.46,5.19.84,1.72,1.7,3.43,2.55,5.14.85,1.71,1.7,3.43,2.58,5.13"/>
    <path class="cls-4" d="M214.81,29.44c-2.01-1.07-4.16-2.4-5.88-3.92-1.6-1.41-3.46-3.54-3.3-6"/>
    <path class="cls-4" d="M224.71,16.09c-.02.14-.04.27-.05.41"/>
    <path class="cls-4" d="M355.03,40.44c9.04-.23,18.9-.83,27.88-2.08,4.46-.62,9.36-1.49,13.71-2.72,1.22-.35,2.43-.72,3.62-1.16,1-.37,1.98-.77,2.94-1.24.73-.36,1.44-.75,2.11-1.21.53-.36,1.03-.76,1.49-1.22.34-.36.64-.73.86-1.18.18-.36.29-.71.32-1.11"/>
    <path class="cls-4" d="M407.96,28.52c0-.13.01-.25,0-.38"/>
    <path class="cls-4" d="M205.62,19.52c.07-1.18.6-2.22,1.32-3.12"/>
    <line class="cls-4" x1="402.35" y1="370.37" x2="402.46" y2="399.69"/>
    <path class="cls-4" d="M399.99,369.99c7.58-.89,15.53-1.99,23.05-3.33,7.02-1.24,15.86-3.07,22.62-5.46"/>
    <line class="cls-4" x1="400.26" y1="370.01" x2="402.35" y2="370.37"/>
    <path class="cls-4" d="M437.84,392.14c.14.27.29.51.5.74.18.2.45.42.75.45"/>
    <line class="cls-4" x1="348.11" y1="398.61" x2="348.6" y2="397.64"/>
    <path class="cls-4" d="M348.72,398.98s.03.01.04.02"/>
    <line class="cls-4" x1="351.56" y1="396.78" x2="350.29" y2="397.76"/>
    <path class="cls-4" d="M351.56,396.78c-.19.46-.39.92-.6,1.37"/>
    <path class="cls-4" d="M347.89,397.29c.45.22.9.44,1.35.66"/>
    <path class="cls-4" d="M349.99,397.68c.21-.45.41-.91.6-1.38"/>
    <path class="cls-4" d="M354.18,400.95c-.65,1.3-1.8,2.32-3.19,2.78-1.39.46-2.91.33-4.18-.43"/>
    <path class="cls-4" d="M345.02,396.51c.65-1.29,1.78-2.3,3.16-2.77,1.38-.47,2.89-.35,4.16.4"/>
    <path class="cls-4" d="M350.6,393.28c.37.11.71.26,1.05.46"/>
    <path class="cls-4" d="M351.16,398.89c-.25-.15-.31-.48-.2-.73"/>
    <line class="cls-4" x1="348.07" y1="398.59" x2="348.76" y2="399"/>
    <path class="cls-4" d="M348.07,398.59s.02.02.03.03"/>
    <path class="cls-4" d="M348.76,399c.25.15.33.47.19.73"/>
    <path class="cls-4" d="M346.82,403.29c-1.12-.68-1.91-1.77-2.23-3.03-.32-1.26-.15-2.6.43-3.75"/>
    <path class="cls-4" d="M352.34,394.14c1.14.67,1.94,1.76,2.26,3.03.33,1.27.16,2.61-.42,3.78"/>
    <path class="cls-4" d="M118.81,170.29c-4.4,24.34-2.7,49.65,5.46,73.08,8.15,23.41,22.56,44.32,42.3,59.58"/>
    <path class="cls-4" d="M122.25,170.96c3.11-17.2,9.24-33.8,18.11-48.88,8.87-15.07,20.41-28.5,34.15-39.36"/>
    <path class="cls-4" d="M163.81,298.71c-17.65-15.66-30.32-36.01-37.37-58.39-7.06-22.4-8.35-46.32-4.18-69.37"/>
    <line class="cls-4" x1="100.48" y1="166.74" x2="118.69" y2="170.27"/>
    <path class="cls-4" d="M127.15,121.84c1.12-.95,2.21-2.4,2.98-3.63.42-.67.79-1.35,1.1-2.08.16-.36.3-.73.4-1.11.08-.27.15-.56.15-.85,0-.08,0-.16-.01-.24,0-.02,0-.04-.01-.06h0s0-.02,0-.02"/>
    <path class="cls-4" d="M125.75,122.64c.1.01.31-.07.39-.11.12-.06.24-.13.36-.2.23-.15.45-.31.65-.49"/>
    <line class="cls-4" x1="573.08" y1="103.06" x2="537.58" y2="112.39"/>
    <line class="cls-4" x1="536.33" y1="107.61" x2="571.84" y2="98.31"/>
    <path class="cls-4" d="M26.79,244.2c-.15-.18-.24-.5-.2-.73"/>
    <path class="cls-4" d="M25.67,241.96c.06.32.15.63.28.93"/>
    <path class="cls-4" d="M26.53,245.09c.04.34.11.66.23.98"/>
    <path class="cls-4" d="M186.66,436.29c-.16.34-.31.69-.45,1.05"/>
    <line class="cls-4" x1="26.74" y1="242.83" x2="26.08" y2="243.01"/>
    <path class="cls-4" d="M311,473.51c-.13.99-.24,1.98-.35,2.97"/>
    <path class="cls-4" d="M58.22,71.36c-.02-.12.05-.26.1-.35.06-.11.14-.2.24-.28"/>
    <path class="cls-4" d="M59.66,69.93c-.39.24-.76.5-1.11.79"/>
    <path class="cls-4" d="M57.21,72.17c-.25.35-.47.71-.65,1.09"/>
    <path class="cls-4" d="M172.49,421.47c0-.15,0-.3.03-.46"/>
    <path class="cls-4" d="M61.22,75.95c-.39.42-.8.81-1.27,1.15-.23.17-.47.32-.74.42-.23.09-.58.18-.83.02"/>
    <path class="cls-4" d="M166.63,303.06c-19.8-15.25-34.26-36.17-42.45-59.61-8.19-23.46-9.91-48.81-5.5-73.19"/>
    <path class="cls-4" d="M439.97,386.58c-.01.08-.03.16-.08.24-.04.07-.11.13-.2.13"/>
    <path class="cls-4" d="M439.34,387.95c-.29-.19-.59-.36-.9-.52"/>
    <path class="cls-4" d="M439.97,386.58c.06-.46.09-.92.08-1.38"/>
    <path class="cls-4" d="M402.54,423.81c-18.91,2.48-39.36,4.07-58.4,4.99-19.32.93-39.29,1.28-58.63,1-19.01-.27-39.59-1.17-58.53-3.06-5.2-.52-10.39-1.12-15.57-1.85-4.5-.63-8.98-1.36-13.44-2.24-2.01-.4-4.02-.83-6.01-1.3-1.76-.42-3.51-.87-5.24-1.38-1.49-.43-2.97-.91-4.43-1.44-1.22-.45-2.43-.93-3.61-1.49-.96-.45-1.89-.94-2.77-1.52-.7-.45-1.35-.94-1.95-1.54-.45-.45-.86-.96-1.15-1.54-.24-.48-.38-.99-.38-1.53"/>
    <path class="cls-4" d="M402.02,434.5c-18.49,2.48-38.45,4.07-57.07,5.01-18.89.95-38.39,1.32-57.3,1.09-18.64-.23-38.65-1.07-57.21-2.85-5.06-.49-10.12-1.05-15.16-1.72-4.42-.59-8.83-1.26-13.22-2.07-3.29-.6-6.55-1.28-9.8-2.08-2.63-.65-5.22-1.37-7.78-2.26-1.05-.36-2.08-.75-3.1-1.18-.88-.37-1.74-.76-2.58-1.2-.71-.37-1.4-.77-2.06-1.21-.55-.37-1.07-.77-1.55-1.22"/>
    <path class="cls-4" d="M402.32,423.4l.22-.03"/>
    <path class="cls-4" d="M402.58,433.67c9.28-1.24,19.32-2.86,28.47-4.89,4.58-1.02,9.5-2.27,13.96-3.75,3.7-1.22,9.84-3.5,12.81-6.45"/>
    <path class="cls-4" d="M174.26,423.94c.48.46,1.01.85,1.56,1.22.67.45,1.36.85,2.07,1.22.85.44,1.71.84,2.59,1.21,1.03.43,2.07.82,3.13,1.18,2.57.89,5.19,1.62,7.83,2.27,3.27.81,6.55,1.49,9.86,2.09,4.42.81,8.86,1.49,13.31,2.08,5.08.68,10.17,1.24,15.27,1.73,18.69,1.78,38.83,2.63,57.59,2.86,19.04.23,38.67-.14,57.69-1.09,18.73-.94,38.81-2.55,57.42-5.04"/>
    <path class="cls-4" d="M459.5,405.65c0,.49-.1.92-.29,1.37-.22.52-.52.97-.88,1.39-.45.53-.95.99-1.5,1.41-.68.53-1.39.99-2.13,1.42-1.01.59-2.05,1.1-3.12,1.58-1.28.57-2.58,1.09-3.9,1.57-4.65,1.69-9.99,3.09-14.8,4.19-9.69,2.21-20.5,3.93-30.34,5.22"/>
    <path class="cls-4" d="M456.92,419.48c-2.95,2.93-9.05,5.2-12.73,6.42-4.43,1.47-9.32,2.71-13.86,3.73-9.1,2.03-19.08,3.63-28.3,4.87"/>
    <path class="cls-4" d="M181.62,447.38c.41.82.69,1.72.69,2.65,0,.92-.29,1.84-.66,2.66"/>
    <line class="cls-4" x1="185.41" y1="452.35" x2="181.65" y2="452.69"/>
    <path class="cls-4" d="M185.14,448.67c.34,1.63.42,3.68.03,5.33"/>
    <path class="cls-4" d="M185.18,454c-.12.5-.31,1.11-.63,1.54"/>
    <path class="cls-4" d="M181.65,452.69c-.34-1.62-.41-3.68-.03-5.31"/>
    <path class="cls-4" d="M189.22,452.43c.01,2.24-.2,4.76-.81,6.93"/>
    <path class="cls-4" d="M187.99,452.38c.01,2.19-.21,4.71-.87,6.83-.31.99-.83,2.25-1.65,2.99-1.04.94-2.13.65-3.06-.25"/>
    <path class="cls-4" d="M178.83,449c0-1.57.1-3.22.37-4.77.25-1.42.74-3.26,1.63-4.47"/>
    <path class="cls-4" d="M183.84,445.69c.71.7,1.11,2.09,1.3,2.98"/>
    <line class="cls-4" x1="183.36" y1="437.59" x2="187.25" y2="437.25"/>
    <path class="cls-4" d="M183.36,437.59c.33-.03.64.03.94.16.36.15.68.38.96.65.51.48.93,1.09,1.28,1.69.69,1.2,1.2,2.62,1.57,3.94.74,2.66,1.1,5.65,1.11,8.41"/>
    <path class="cls-4" d="M180.84,439.75c1.12-1.53,2.49-1.51,3.74-.14.95,1.05,1.64,2.64,2.07,3.94.91,2.74,1.33,5.96,1.34,8.83"/>
    <path class="cls-4" d="M459.53,416.08c0,.53-.13,1.05-.34,1.53"/>
    <path class="cls-4" d="M459.53,416.08c.02,5.88.31,11.71,1.02,17.55.18,1.46.38,2.92.61,4.37.23,1.44.49,2.88.78,4.31.58,2.88,1.28,5.71,2.12,8.53.83,2.81,1.79,5.58,2.86,8.31s2.25,5.41,3.48,8.07c1.23,2.66,2.52,5.3,3.78,7.94,1.26,2.64,2.51,5.29,3.68,7.98"/>
    <line class="cls-4" x1="253.02" y1="24.09" x2="275.27" y2="30.29"/>
    <line class="cls-4" x1="275.31" y1="24.63" x2="265.54" y2="24.85"/>
    <line class="cls-4" x1="276.65" y1="28.33" x2="260.29" y2="23.75"/>
    <line class="cls-4" x1="253.03" y1="23.91" x2="275.28" y2="30.11"/>
    <line class="cls-4" x1="309.44" y1="25.55" x2="293.76" y2="22.99"/>
    <line class="cls-4" x1="302.88" y1="26.1" x2="297.38" y2="29.57"/>
    <line class="cls-4" x1="337.53" y1="26.93" x2="329.92" y2="24.84"/>
    <line class="cls-4" x1="363.82" y1="23.94" x2="370.7" y2="23.78"/>
    <path class="cls-4" d="M349.74,37.64c7-.17,14.41-.59,21.37-1.38,3.55-.4,7.08-.91,10.59-1.61,1.75-.35,3.49-.75,5.21-1.24,1.19-.34,2.37-.72,3.52-1.18.37-.15.74-.31,1.11-.49.09-.05.18-.09.27-.14.03-.01.05-.03.08-.04,0,0,.02,0,.02-.01,0,0,0,0,0,0,0,0,0,0,0,0"/>
    <path class="cls-4" d="M237.17,20.99s0,0,0,0c0,0,0,0,0,0,0,0,.01.01.02.02.03.02.06.04.08.06.1.07.2.14.3.21.32.21.64.41.98.6.96.55,1.94,1.03,2.95,1.49,1.3.59,2.63,1.12,3.97,1.61,1.6.59,3.21,1.12,4.83,1.63,4.55,1.41,9.24,2.56,13.89,3.57,9.17,1.98,18.99,3.51,28.3,4.62,2.35.28,4.71.54,7.07.78,2.4.24,4.79.47,7.19.67,4.77.4,9.54.73,14.31.97,9.45.48,19.21.66,28.67.42"/>
    <path class="cls-4" d="M349.08,23.2c-.02.31.3.57.51.72"/>
    <path class="cls-4" d="M224.72,15.67c.07-1.09.59-2.03,1.29-2.82.43-.49.92-.92,1.44-1.31.62-.47,1.27-.87,1.95-1.24,1-.55,2.03-1.01,3.08-1.43,1.25-.5,2.52-.92,3.8-1.31,4.58-1.37,9.81-2.33,14.53-2.99,9.52-1.34,20.01-1.93,29.6-2.11"/>
    <path class="cls-4" d="M459.19,417.61c-.84,1.87-3.08,3.39-4.7,4.32-1.82,1.05-3.91,1.97-5.87,2.73-3.91,1.51-8.33,2.79-12.38,3.81"/>
    <path class="cls-4" d="M300.22,440.81c-22.44.04-46.95-.74-69.31-2.83"/>
    <path class="cls-4" d="M77.3,80.85c1.11-1.3,2.24-2.57,3.4-3.82,1.14-1.23,2.31-2.43,3.5-3.61,1.21-1.2,2.45-2.37,3.72-3.52,1.24-1.12,2.51-2.22,3.81-3.28,1.32-1.08,2.66-2.13,4.03-3.15,1.35-1,2.71-1.97,4.11-2.9,1.42-.95,2.86-1.86,4.33-2.73,1.44-.86,2.9-1.68,4.39-2.46,1.51-.79,3.04-1.54,4.59-2.24,1.53-.69,3.08-1.34,4.64-1.94,3.17-1.22,6.37-2.23,9.67-3.05,1.65-.41,3.31-.77,4.99-1.07,1.66-.3,3.32-.54,4.99-.73,1.69-.19,3.38-.32,5.07-.4,1.69-.07,3.37-.09,5.06-.05"/>
    <path class="cls-4" d="M108.05,293.51c-1.53-.55-3.04-1.14-4.53-1.79-1.51-.65-3-1.35-4.47-2.1-1.45-.74-2.87-1.51-4.27-2.34-1.42-.83-2.81-1.71-4.18-2.63-1.35-.9-2.66-1.84-3.96-2.82-1.31-.99-2.6-2.03-3.86-3.09-2.5-2.12-4.86-4.36-7.13-6.73-1.12-1.17-2.21-2.37-3.27-3.6-1.08-1.25-2.13-2.52-3.14-3.82-1-1.28-1.97-2.57-2.91-3.89-.96-1.34-1.88-2.7-2.78-4.09-.88-1.36-1.73-2.73-2.55-4.12-.84-1.42-1.64-2.86-2.42-4.32-.76-1.43-1.5-2.88-2.21-4.34-.72-1.48-1.4-2.98-2.06-4.49"/>
    <line class="cls-4" x1="402.54" y1="423.44" x2="402.53" y2="418.87"/>
    <line class="cls-4" x1="214.57" y1="370.83" x2="214.57" y2="371.02"/>
    <path class="cls-4" d="M172.43,410.57c0,.54.14,1.05.38,1.53.29.58.7,1.09,1.15,1.54.59.59,1.25,1.08,1.95,1.53.89.58,1.82,1.07,2.77,1.52,1.18.56,2.38,1.04,3.61,1.48,1.46.53,2.94,1,4.43,1.44,1.74.5,3.48.96,5.24,1.37,1.99.48,4,.9,6.01,1.3,4.46.88,8.94,1.6,13.45,2.23,5.18.73,10.38,1.33,15.59,1.85,18.94,1.89,39.51,2.79,58.53,3.06,19.35.27,39.31-.07,58.64-1,19.03-.92,39.47-2.51,58.38-4.99"/>
    <path class="cls-4" d="M194.19,367.67c13.28,2.92,30.58,4.64,44.07,5.62,14.57,1.06,29.82,1.65,44.42,1.88,28.84.47,60.1-.34,88.87-2.49"/>
    <path class="cls-4" d="M352.48,393.81c-1.16-.59-2.49-.7-3.74-.37-1.25.33-2.35,1.06-3.15,2.07"/>
    <path class="cls-4" d="M345.59,395.52c-.94,1.2-1.41,2.73-1.24,4.25.17,1.53.96,2.92,2.23,3.8"/>
    <path class="cls-4" d="M377.49,371.87c13.85-1.11,28.91-2.69,42.64-4.87,6.81-1.08,14.35-2.48,21.04-4.2,1.89-.49,3.76-1.01,5.62-1.6,1.56-.49,3.1-1.02,4.61-1.64,1.19-.48,2.35-1,3.48-1.61.86-.47,1.73-1,2.49-1.62.56-.46,1.11-1,1.49-1.62.3-.49.49-1.03.49-1.61"/>
    <path class="cls-4" d="M457,147.95c.49,17.09.87,34.19,1.17,51.29.3,17.09.51,34.19.67,51.28.32,34.19.41,68.39.5,102.58"/>
    <path class="cls-4" d="M172.11,357.86c0,.49.14.94.37,1.36.28.51.67.96,1.1,1.35.56.51,1.18.94,1.82,1.33.82.49,1.67.91,2.55,1.29,1.07.47,2.16.88,3.26,1.26,1.3.45,2.62.85,3.95,1.21,3.26.9,6.62,1.63,9.93,2.27,3.94.75,7.9,1.38,11.87,1.93,4.65.65,9.32,1.19,13.99,1.66,16.85,1.71,35.21,2.64,52.13,3.07,8.71.22,17.41.32,26.12.31,4.35,0,8.7-.04,13.04-.09,4.36-.06,8.72-.14,13.09-.25,4.39-.11,8.77-.25,13.16-.42,4.31-.16,8.62-.36,12.93-.57,2.23-.11,4.46-.23,6.69-.36,2.2-.13,4.39-.26,6.58-.41,4.26-.28,8.53-.59,12.79-.93"/>
    <path class="cls-4" d="M171.96,328.27c-.03-5.45-.59-11.04-1.98-16.34-.69-2.64-1.61-5.29-2.79-7.75-.6-1.24-1.26-2.45-2.02-3.6-.49-.74-1.01-1.45-1.58-2.12-.32-.37-.65-.73-1.02-1.06"/>
    <path class="cls-4" d="M194.64,25.3c.34-.38.68-.77,1.02-1.15.17-.19.34-.38.51-.57.08-.1.17-.19.25-.29.06-.07.11-.13.17-.2.02-.02.03-.04.05-.07,0,0,0-.01.01-.02,0,0,0,0,0,0s0,0,0,0"/>
    <path class="cls-4" d="M196.66,22.99s0,0,0,0c0,0,0,0,0,.01,0,0,0,.01,0,.02,0,.01,0,.02-.01.04,0,.03,0,.05,0,.07"/>
    <path class="cls-4" d="M173.81,96.94c.07-2.41.16-4.82.27-7.22.11-2.41.26-4.82.45-7.22.19-2.4.42-4.8.7-7.19.28-2.39.62-4.78,1.02-7.16.4-2.38.86-4.74,1.39-7.1.53-2.35,1.13-4.69,1.8-7,1.35-4.61,3.03-9.17,5.08-13.52"/>
    <path class="cls-4" d="M424.39,27.62c4.51,3.05,8.43,6.57,11.86,10.81,3.4,4.21,6.07,8.86,8.25,13.78.53,1.21,1.04,2.43,1.51,3.66s.93,2.51,1.36,3.78c.86,2.58,1.61,5.18,2.28,7.81.66,2.6,1.24,5.21,1.75,7.85.51,2.64.96,5.3,1.36,7.96.79,5.32,1.38,10.65,1.85,16.01.47,5.35.81,10.71,1.1,16.07.29,5.36.51,10.73.72,16.1.21,5.37.41,10.73.57,16.1"/>
    <path class="cls-4" d="M376.15,196.4c-2.44.12-4.89.21-7.33.25-2.5.05-5.01.05-7.51.02-2.55-.03-5.1-.11-7.65-.22-2.59-.11-5.18-.26-7.77-.45-2.49-.18-4.97-.4-7.46-.65-2.51-.25-5.01-.53-7.51-.85-5.04-.64-10.06-1.41-15.07-2.3-1.25-.22-2.49-.45-3.74-.69-1.25-.24-2.49-.49-3.73-.74-1.24-.25-2.48-.51-3.72-.78-1.23-.27-2.47-.54-3.7-.83-2.46-.56-4.91-1.16-7.35-1.78-2.43-.62-4.85-1.27-7.26-1.95-2.48-.7-4.94-1.43-7.4-2.19-2.43-.75-4.85-1.53-7.26-2.35-2.38-.8-4.74-1.64-7.1-2.5-2.32-.85-4.63-1.73-6.92-2.64-1.22-.49-2.44-.98-3.65-1.48-1.2-.5-2.4-1-3.59-1.51-2.35-1.01-4.68-2.06-7-3.14-2.26-1.05-4.5-2.14-6.73-3.26-2.17-1.09-4.32-2.22-6.45-3.38-1.18-.64-2.36-1.3-3.53-1.96-1.15-.65-2.29-1.32-3.43-1.99-2.21-1.32-4.4-2.68-6.56-4.08-2.07-1.35-4.12-2.74-6.14-4.18-1.93-1.38-3.84-2.8-5.71-4.27-2.17-1.7-4.28-3.46-6.34-5.28-1.94-1.73-3.83-3.51-5.66-5.36-3.32-3.37-6.44-6.99-9.19-10.85-3.12-4.38-5.81-9.16-7.61-14.26-.81-2.28-1.42-4.59-1.82-6.98-.38-2.26-.55-4.51-.48-6.81"/>
    <path class="cls-4" d="M457,147.95c.07,4.36-.69,8.59-2.33,12.63-.79,1.95-1.75,3.79-2.88,5.57-1.2,1.88-2.55,3.62-4.04,5.27-1.4,1.54-2.89,2.97-4.48,4.32-1.71,1.45-3.5,2.77-5.37,4.01-1.74,1.15-3.53,2.21-5.36,3.2-1.96,1.06-3.97,2.03-6.01,2.92-1.92.84-3.87,1.62-5.84,2.33-2.08.76-4.19,1.44-6.31,2.07-2.02.6-4.05,1.15-6.1,1.65-2.14.52-4.29.99-6.45,1.41-8.41,1.65-17.12,2.61-25.67,3.05"/>
    <path class="cls-4" d="M224.66,16.5c-.05.77.22,1.48.61,2.11.27.44.58.82.93,1.2.43.46.9.87,1.39,1.26,1.27,1.01,2.72,1.87,4.15,2.61,1.89.99,3.89,1.85,5.88,2.62,2.44.94,4.91,1.76,7.41,2.51,2.92.88,5.87,1.66,8.83,2.37,2.65.64,5.3,1.22,7.97,1.76,2.88.59,5.77,1.12,8.67,1.62,2.73.47,5.46.9,8.2,1.3,2.86.42,5.72.8,8.59,1.16,2.78.35,5.56.66,8.35.95,1.42.15,2.83.29,4.25.42,1.43.14,2.86.26,4.28.39,2.82.24,5.63.46,8.45.65,2.83.19,5.65.36,8.48.51,2.85.14,5.69.26,8.54.36,2.81.09,5.61.16,8.42.21,1.45.02,2.9.04,4.35.05,1.43,0,2.86,0,4.29,0,2.78-.01,5.56-.05,8.33-.12"/>
    <path class="cls-4" d="M422.44,26.35c1.64,1.02,3.36,2.28,4.67,3.72,1.31,1.44,2.41,3.27,2.25,5.37"/>
    <path class="cls-4" d="M205.62,19.52c.14-2.24,1.63-4.01,3.24-5.29,1.62-1.3,3.65-2.34,5.54-3.15"/>
    <line class="cls-4" x1="402.46" y1="400.35" x2="402.53" y2="418.87"/>
    <path class="cls-4" d="M402.54,423.44c9.84-1.29,20.65-3.01,30.34-5.22,4.81-1.1,10.16-2.5,14.81-4.19,1.32-.48,2.62-.99,3.9-1.57,1.07-.48,2.11-.99,3.12-1.58.74-.43,1.46-.89,2.13-1.42.55-.43,1.05-.88,1.5-1.41.36-.43.66-.87.88-1.39.19-.45.29-.88.29-1.37"/>
    <path class="cls-4" d="M439.97,382.25c-.17,0-.33.05-.47.13-.26.14-.48.35-.67.57-.31.35-.54.74-.74,1.15-.4.81-.67,1.73-.82,2.62-.15.89-.2,1.84-.12,2.75.07.88.27,1.85.68,2.65"/>
    <path class="cls-4" d="M349.99,397.68c-.13.28-.46.41-.75.27"/>
    <path class="cls-4" d="M346.13,402.88c-.35-.21-.65-.45-.94-.74"/>
    <path class="cls-4" d="M174.8,79.36c-14.74,10.81-27.15,24.54-36.67,40.11-9.52,15.58-16.06,32.87-19.31,50.83"/>
    <line class="cls-4" x1="522.75" y1="383" x2="492.18" y2="362.71"/>
    <line class="cls-4" x1="494.95" y1="358.55" x2="525.49" y2="378.86"/>
    <path class="cls-4" d="M118.69,170.27c3.25-17.98,9.81-35.3,19.36-50.9,9.54-15.59,21.98-29.33,36.77-40.14"/>
    <path class="cls-4" d="M26.9,242.35c-.13.37-.24.74-.31,1.12"/>
    <path class="cls-4" d="M26.79,244.2c.25.29.52.55.82.79"/>
    <path class="cls-4" d="M29.06,238.07c.15-.04.3,0,.44.07.2.1.37.26.52.42.26.28.46.6.64.92.36.64.66,1.38.89,2.07.43,1.32.78,3.02.73,4.43"/>
    <line class="cls-4" x1="30.93" y1="239.98" x2="71.44" y2="229.37"/>
    <line class="cls-4" x1="72.77" y1="234.52" x2="32.27" y2="245.16"/>
    <path class="cls-4" d="M57.76,72.94c.21-.25.44-.49.67-.72"/>
    <path class="cls-4" d="M58.22,71.36c.05.29.12.58.22.86"/>
    <line class="cls-4" x1="58.67" y1="70.63" x2="58.24" y2="70.34"/>
    <path class="cls-4" d="M64.1,69.27c.11.08.19.19.23.32.06.18.07.36.06.55-.02.32-.09.63-.18.94-.18.6-.46,1.21-.76,1.76-.58,1.09-1.38,2.21-2.22,3.11"/>
    <line class="cls-4" x1="63.89" y1="71.93" x2="98.15" y2="94.72"/>
    <line class="cls-4" x1="58.38" y1="77.53" x2="56.18" y2="76.08"/>
    <line class="cls-4" x1="95.11" y1="99.12" x2="60.82" y2="76.36"/>
    <line class="cls-4" x1="108.71" y1="216.89" x2="108.93" y2="216.84"/>
    <path class="cls-4" d="M109.71,218.17c-.14-.25-.28-.48-.45-.71-.08-.11-.17-.22-.27-.32-.07-.07-.24-.22-.34-.25"/>
    <path class="cls-4" d="M111.36,227.1s-.03,0-.04.02c0,0-.01,0-.02.01,0,0,0,0,0,0h0s0,0,0,0"/>
    <path class="cls-4" d="M111.28,227.14s0,0,0,0c0,0,0,0,0-.01.01-.02.02-.03.03-.05.04-.07.07-.14.09-.22.09-.27.12-.55.14-.83.03-.39.02-.77,0-1.16-.05-.78-.16-1.54-.32-2.3-.29-1.41-.81-3.11-1.51-4.38"/>
    <path class="cls-4" d="M439.34,387.95c.11.07.16.22.17.34.01.13,0,.25-.05.38"/>
    <path class="cls-4" d="M438.7,386.39c-.07.35-.16.7-.26,1.04"/>
    <path class="cls-4" d="M438.87,390.01c.23-.43.42-.88.59-1.34"/>
    <path class="cls-4" d="M172.49,420.56c0,1.37.87,2.52,1.78,3.37"/>
    <path class="cls-4" d="M457.82,418.59c.88-.88,1.72-2.04,1.71-3.4"/>
    <path class="cls-4" d="M357.03,24.01c-.1-.05-.35-.17-.34-.33"/>
    <line class="cls-4" x1="408.01" y1="27.76" x2="407.96" y2="28.52"/>
    <path class="cls-4" d="M280.41,2.47c2.74-.05,5.48-.07,8.23-.07,1.4,0,2.81.02,4.21.03,1.42.02,2.84.04,4.26.08,2.77.06,5.54.15,8.3.27,2.8.12,5.6.26,8.39.42,5.56.33,11.11.76,16.66,1.29,2.8.27,5.6.56,8.4.88,1.38.16,2.75.32,4.13.5,1.36.17,2.72.35,4.07.53,10.72,1.45,22.34,3.46,32.83,6.14,2.91.74,5.8,1.55,8.67,2.46,2.45.78,4.87,1.62,7.25,2.6,1.83.75,3.62,1.56,5.35,2.51,1.34.73,2.69,1.57,3.87,2.55.87.72,1.73,1.57,2.31,2.56.46.78.74,1.64.67,2.56"/>
  </g>
  <g id="_图层_4" data-name="图层 4">
    <g>
      <line class="cls-1" x1="47.5" y1="64.51" x2="52.53" y2="67.78"/>
      <line class="cls-3" x1="62.9" y1="74.51" x2="119.91" y2="111.57"/>
      <line class="cls-1" x1="125.1" y1="114.94" x2="130.13" y2="118.21"/>
      <polygon class="cls-7" points="45.11 72.47 37.87 58.25 53.8 59.09 45.11 72.47"/>
    </g>
    <g>
      <line class="cls-1" x1="13.89" y1="246.79" x2="19.7" y2="245.29"/>
      <line class="cls-5" x1="31.83" y1="242.14" x2="98.54" y2="224.83"/>
      <line class="cls-1" x1="104.61" y1="223.25" x2="110.41" y2="221.75"/>
      <polygon class="cls-7" points="18.15 253.93 2.77 249.68 14.14 238.48 18.15 253.93"/>
    </g>
    <g>
      <line class="cls-1" x1="583.75" y1="96.21" x2="577.97" y2="97.83"/>
      <line class="cls-2" x1="567.5" y1="100.76" x2="468.01" y2="128.61"/>
      <line class="cls-1" x1="462.77" y1="130.07" x2="456.99" y2="131.69"/>
      <polygon class="cls-7" points="579.35 89.16 594.81 93.12 583.65 104.53 579.35 89.16"/>
    </g>
    <g>
      <line class="cls-1" x1="539.06" y1="391.42" x2="534.05" y2="388.12"/>
      <line class="cls-6" x1="524.35" y1="381.73" x2="471.02" y2="346.56"/>
      <line class="cls-1" x1="466.17" y1="343.37" x2="461.16" y2="340.06"/>
      <polygon class="cls-7" points="541.5 383.48 548.65 397.74 532.72 396.8 541.5 383.48"/>
    </g>
  </g>
</svg>