<?xml version="1.0" encoding="UTF-8"?>
<svg xmlns="http://www.w3.org/2000/svg" viewBox="0 0 537 536.62">
  <defs>
    <style>
      .cls-1 {
        fill: red;
        stroke-width: 0px;
      }

      .cls-2 {
        fill: none;
        stroke: #000;
        stroke-linecap: round;
        stroke-linejoin: round;
      }
    </style>
  </defs>
  <g id="Make2D::可见线::曲线">
    <line class="cls-2" x1="321.1" y1="489.34" x2="316.96" y2="489.34"/>
    <line class="cls-2" x1="319.56" y1="485.28" x2="319.56" y2="489.34"/>
    <line class="cls-2" x1="444.32" y1="148.97" x2="433.36" y2="148.97"/>
    <line class="cls-2" x1="495.46" y1="155.46" x2="444.32" y2="155.46"/>
    <line class="cls-2" x1="495.43" y1="148.97" x2="444.32" y2="148.97"/>
    <path class="cls-2" d="M495.54,150.1c0-3.14-2.39-5.77-5.52-6.06-3.13-.29-5.96,1.84-6.55,4.93"/>
    <path class="cls-2" d="M509.76,187.22c0-3.14-2.39-5.77-5.52-6.06-3.13-.29-5.96,1.84-6.55,4.93"/>
    <line class="cls-2" x1="140.33" y1="118.12" x2="104.17" y2="81.96"/>
    <line class="cls-2" x1="135.74" y1="122.71" x2="99.58" y2="86.55"/>
    <line class="cls-2" x1="104.17" y1="81.96" x2="96.42" y2="74.21"/>
    <line class="cls-2" x1="344.44" y1="10.93" x2="259.21" y2="10.93"/>
    <line class="cls-2" x1="344.44" y1="23.29" x2="344.44" y2="10.93"/>
    <line class="cls-2" x1="486.45" y1="246.8" x2="518.11" y2="246.8"/>
    <line class="cls-2" x1="536.5" y1="268.25" x2="317.33" y2="268.25"/>
    <line class="cls-2" x1="359.13" y1="257.74" x2="368.06" y2="257.74"/>
    <line class="cls-2" x1="433.3" y1="252.13" x2="461.71" y2="252.13"/>
    <line class="cls-2" x1="458.54" y1="186.08" x2="447.58" y2="186.08"/>
    <line class="cls-2" x1="509.68" y1="192.57" x2="458.54" y2="192.57"/>
    <line class="cls-2" x1="509.68" y1="186.08" x2="458.54" y2="186.08"/>
    <line class="cls-2" x1="168.79" y1="91.11" x2="132.62" y2="54.95"/>
    <line class="cls-2" x1="164.19" y1="95.7" x2="128.03" y2="59.54"/>
    <line class="cls-2" x1="132.62" y1="54.95" x2="124.88" y2="47.2"/>
    <path class="cls-2" d="M269.15,473.95v.81"/>
    <path class="cls-2" d="M309.74,473.95v.81"/>
    <path class="cls-2" d="M301.62,473.95v.81"/>
    <path class="cls-2" d="M293.51,473.95v.81"/>
    <path class="cls-2" d="M285.39,473.95v.81"/>
    <path class="cls-2" d="M277.27,473.95v.81"/>
    <path class="cls-2" d="M275.65,474.77v-.81"/>
    <path class="cls-2" d="M267.53,474.77v-.81"/>
    <line class="cls-2" x1="256.17" y1="514.51" x2="256.17" y2="489.34"/>
    <line class="cls-2" x1="321.1" y1="489.34" x2="321.1" y2="514.51"/>
    <line class="cls-2" x1="315.02" y1="479.6" x2="262.25" y2="479.6"/>
    <line class="cls-2" x1="260.31" y1="480.41" x2="260.31" y2="489.34"/>
    <line class="cls-2" x1="256.17" y1="489.34" x2="260.31" y2="489.34"/>
    <line class="cls-2" x1="316.96" y1="480.41" x2="316.96" y2="489.34"/>
    <path class="cls-2" d="M308.12,474.77v-.81"/>
    <path class="cls-2" d="M300,474.77v-.81"/>
    <path class="cls-2" d="M291.88,474.77v-.81"/>
    <path class="cls-2" d="M283.77,474.77v-.81"/>
    <line class="cls-2" x1="495.46" y1="148.97" x2="495.46" y2="155.46"/>
    <line class="cls-2" x1="495.46" y1="148.97" x2="487.34" y2="150.59"/>
    <path class="cls-2" d="M301.83,28.62c-3.57,0-6.86,1.92-8.62,5.02-1.76,3.1-1.72,6.91.1,9.97"/>
    <path class="cls-2" d="M306.9,30.01c-1.53-.91-3.29-1.4-5.07-1.4"/>
    <path class="cls-2" d="M168.76,91.1c.69-1.01,1.06-2.21,1.06-3.43"/>
    <path class="cls-2" d="M454.19,148.97c-.55-2.87-3.06-4.95-5.98-4.95s-5.44,2.08-5.98,4.95"/>
    <path class="cls-2" d="M343.99,10.99c79.03,23.23,142.98,81.52,173.41,158.07,30.43,76.54,23.96,162.83-17.54,233.98"/>
    <path class="cls-2" d="M405.82,498.06c-76.2,45.51-169.99,50.34-250.46,12.88C74.89,473.49,18.19,398.61,3.96,311"/>
    <path class="cls-2" d="M273.41,28.62c-3.57,0-6.86,1.92-8.62,5.02-1.76,3.1-1.72,6.91.1,9.97"/>
    <path class="cls-2" d="M273.41,28.62c1.79,0,3.54.48,5.07,1.4"/>
    <line class="cls-2" x1="140.33" y1="118.12" x2="133.45" y2="113.53"/>
    <path class="cls-2" d="M330.24,49.9c6.28,0,11.37-5.09,11.37-11.36s-5.09-11.37-11.37-11.37"/>
    <path class="cls-2" d="M330.24,27.17c-6.28,0-11.36,5.09-11.36,11.37s5.09,11.36,11.36,11.36"/>
    <path class="cls-2" d="M301.83,27.17c-6.28,0-11.37,5.09-11.37,11.37s5.09,11.36,11.37,11.36"/>
    <path class="cls-2" d="M273.41,49.9c6.28,0,11.37-5.09,11.37-11.36s-5.09-11.37-11.37-11.37"/>
    <path class="cls-2" d="M273.41,27.17c-6.28,0-11.36,5.09-11.36,11.37s5.09,11.36,11.36,11.36"/>
    <line class="cls-2" x1="259.21" y1="53.77" x2="259.21" y2="66.13"/>
    <path class="cls-2" d="M301.83,49.9c6.28,0,11.36-5.09,11.36-11.36s-5.09-11.37-11.36-11.37"/>
    <line class="cls-2" x1="482.48" y1="245.99" x2="482.48" y2="233.97"/>
    <line class="cls-2" x1="522.09" y1="245.99" x2="522.09" y2="233.97"/>
    <path class="cls-2" d="M70.23,88.26C10.9,153.67-12.39,244.12,7.98,330.05c20.37,85.93,81.79,156.29,164.18,188.1,82.39,31.8,175.15,20.95,247.98-29,72.83-49.95,116.35-132.59,116.36-220.9"/>
    <path class="cls-2" d="M322.14,43.18c-1.66-2.89-1.65-6.44.02-9.32,1.67-2.88,4.75-4.66,8.08-4.66"/>
    <path class="cls-2" d="M330.24,29.2c1.63,0,3.23.43,4.65,1.24"/>
    <line class="cls-2" x1="334.88" y1="30.44" x2="322.14" y2="43.18"/>
    <line class="cls-2" x1="325.59" y1="46.63" x2="338.33" y2="33.88"/>
    <line class="cls-2" x1="125.42" y1="220.98" x2="131.1" y2="214.74"/>
    <line class="cls-2" x1="192.71" y1="270.59" x2="150.68" y2="232.35"/>
    <line class="cls-2" x1="183.46" y1="196.32" x2="225.49" y2="234.56"/>
    <line class="cls-2" x1="152.56" y1="245.47" x2="158.25" y2="239.23"/>
    <line class="cls-2" x1="359.13" y1="261.88" x2="359.13" y2="257.74"/>
    <line class="cls-2" x1="345.33" y1="213.17" x2="345.33" y2="261.88"/>
    <line class="cls-2" x1="359.13" y1="213.17" x2="359.13" y2="217.31"/>
    <line class="cls-2" x1="359.13" y1="217.31" x2="368.06" y2="217.31"/>
    <line class="cls-2" x1="366.03" y1="219.67" x2="366.03" y2="255.38"/>
    <line class="cls-2" x1="368.87" y1="219.26" x2="368.87" y2="255.79"/>
    <line class="cls-2" x1="106.64" y1="134.67" x2="84.74" y2="158.65"/>
    <line class="cls-2" x1="84.74" y1="158.65" x2="73.35" y2="148.25"/>
    <line class="cls-2" x1="106.64" y1="134.67" x2="95.25" y2="124.27"/>
    <line class="cls-2" x1="461.71" y1="223.72" x2="433.3" y2="223.72"/>
    <line class="cls-2" x1="461.71" y1="252.13" x2="461.71" y2="223.72"/>
    <line class="cls-2" x1="458.54" y1="192.57" x2="458.54" y2="186.08"/>
    <line class="cls-2" x1="466.66" y1="190.95" x2="458.54" y2="192.57"/>
    <line class="cls-2" x1="509.68" y1="186.08" x2="509.68" y2="192.57"/>
    <line class="cls-2" x1="509.68" y1="192.57" x2="501.56" y2="190.95"/>
    <line class="cls-2" x1="509.68" y1="186.08" x2="501.56" y2="187.7"/>
    <line class="cls-2" x1="501.56" y1="190.95" x2="466.66" y2="190.95"/>
    <line class="cls-2" x1="501.56" y1="187.7" x2="466.66" y2="187.7"/>
    <line class="cls-2" x1="164.57" y1="256.4" x2="170.25" y2="250.15"/>
    <line class="cls-2" x1="104.52" y1="201.97" x2="110.21" y2="195.72"/>
    <line class="cls-2" x1="144.67" y1="227.08" x2="102.64" y2="188.84"/>
    <line class="cls-2" x1="135.42" y1="152.82" x2="177.45" y2="191.06"/>
    <line class="cls-2" x1="173.46" y1="264.48" x2="179.14" y2="258.24"/>
    <line class="cls-2" x1="128.54" y1="223.82" x2="134.22" y2="217.57"/>
    <line class="cls-2" x1="116.53" y1="212.89" x2="122.21" y2="206.65"/>
    <line class="cls-2" x1="442.87" y1="258.83" x2="436.79" y2="258.83"/>
    <path class="cls-2" d="M436.95,213.57c-.9,0-1.62.73-1.62,1.62"/>
    <line class="cls-2" x1="457" y1="255.99" x2="442.87" y2="255.99"/>
    <line class="cls-2" x1="438" y1="252.13" x2="438" y2="258.83"/>
    <line class="cls-2" x1="438" y1="217.02" x2="438" y2="223.72"/>
    <line class="cls-2" x1="436.79" y1="217.02" x2="442.87" y2="217.02"/>
    <line class="cls-2" x1="442.87" y1="219.87" x2="457" y2="219.87"/>
    <line class="cls-2" x1="458.05" y1="213.57" x2="436.95" y2="213.57"/>
    <line class="cls-2" x1="436.95" y1="262.28" x2="458.05" y2="262.28"/>
    <path class="cls-2" d="M435.33,260.66c0,.9.73,1.62,1.62,1.62"/>
    <line class="cls-2" x1="168.79" y1="91.11" x2="164.19" y2="95.7"/>
    <line class="cls-2" x1="164.19" y1="95.7" x2="159.6" y2="88.82"/>
    <line class="cls-2" x1="159.6" y1="88.82" x2="134.92" y2="64.14"/>
    <line class="cls-2" x1="168.79" y1="91.11" x2="161.9" y2="86.52"/>
    <line class="cls-2" x1="161.9" y1="86.52" x2="137.22" y2="61.84"/>
    <line class="cls-2" x1="134.92" y1="64.14" x2="128.03" y2="59.54"/>
    <line class="cls-2" x1="128.03" y1="59.54" x2="132.62" y2="54.95"/>
    <line class="cls-2" x1="113.41" y1="210.05" x2="119.09" y2="203.81"/>
    <path class="cls-2" d="M445.32,155.46c1.8.97,3.98.97,5.78,0"/>
    <path class="cls-2" d="M128.74,60.25c.59,1.96,2.12,3.5,4.09,4.09"/>
    <path class="cls-2" d="M139.61,61.94c.69-1.01,1.05-2.2,1.05-3.42"/>
    <path class="cls-2" d="M157.9,89.41c.59,1.97,2.13,3.5,4.09,4.09"/>
    <path class="cls-2" d="M459.55,192.57c1.8.97,3.98.97,5.78,0"/>
    <path class="cls-2" d="M500.78,192.57c1.8.97,3.98.97,5.78,0"/>
    <line class="cls-2" x1=".76" y1="269.74" x2=".53" y2="269.32"/>
    <path class="cls-2" d="M468.42,186.08c-.55-2.87-3.06-4.95-5.98-4.95s-5.44,2.08-5.98,4.95"/>
    <line class="cls-2" x1="306.47" y1="30.44" x2="293.73" y2="43.18"/>
    <path class="cls-2" d="M293.73,43.18c-1.66-2.89-1.65-6.44.02-9.32,1.67-2.88,4.75-4.66,8.08-4.66"/>
    <path class="cls-2" d="M301.83,29.2c1.63,0,3.23.43,4.65,1.24"/>
    <line class="cls-2" x1="297.17" y1="46.63" x2="309.92" y2="33.88"/>
    <path class="cls-2" d="M140.31,118.11c.69-1.01,1.06-2.21,1.06-3.43"/>
    <line class="cls-2" x1="268.76" y1="46.63" x2="281.51" y2="33.88"/>
    <line class="cls-2" x1="278.06" y1="30.44" x2="265.32" y2="43.18"/>
    <line class="cls-2" x1="140.33" y1="118.12" x2="135.74" y2="122.71"/>
    <line class="cls-2" x1="135.74" y1="122.71" x2="131.15" y2="115.83"/>
    <line class="cls-2" x1="131.15" y1="115.83" x2="106.47" y2="91.14"/>
    <line class="cls-2" x1="133.45" y1="113.53" x2="108.76" y2="88.85"/>
    <line class="cls-2" x1="106.47" y1="91.14" x2="99.58" y2="86.55"/>
    <line class="cls-2" x1="99.58" y1="86.55" x2="104.17" y2="81.96"/>
    <path class="cls-2" d="M100.29,87.26c.59,1.97,2.12,3.5,4.09,4.09"/>
    <path class="cls-2" d="M111.16,88.94c.69-1.01,1.05-2.2,1.05-3.42"/>
    <path class="cls-2" d="M129.45,116.42c.59,1.96,2.12,3.5,4.09,4.09"/>
    <path class="cls-2" d="M343.63,10.93s.03-.04.06-.03"/>
    <line class="cls-2" x1="326.99" y1="27.64" x2="326.99" y2="29.78"/>
    <line class="cls-2" x1="298.58" y1="38.33" x2="298.58" y2="38.33"/>
    <line class="cls-2" x1="277.27" y1="479.6" x2="277.27" y2="478.37"/>
    <line class="cls-2" x1="275.65" y1="479.6" x2="275.65" y2="478.37"/>
    <line class="cls-2" x1="283.77" y1="479.6" x2="283.77" y2="478.37"/>
    <line class="cls-2" x1="293.51" y1="479.6" x2="293.51" y2="478.37"/>
    <line class="cls-2" x1="291.88" y1="479.6" x2="291.88" y2="478.37"/>
    <line class="cls-2" x1="301.62" y1="479.6" x2="301.62" y2="478.37"/>
    <line class="cls-2" x1="300" y1="479.6" x2="300" y2="478.37"/>
    <line class="cls-2" x1="308.12" y1="479.6" x2="308.12" y2="478.37"/>
    <line class="cls-2" x1="267.53" y1="479.6" x2="267.53" y2="478.37"/>
    <line class="cls-2" x1="285.39" y1="479.6" x2="285.39" y2="478.37"/>
    <line class="cls-2" x1="309.74" y1="479.6" x2="309.74" y2="478.37"/>
    <line class="cls-2" x1="269.15" y1="479.6" x2="269.15" y2="478.37"/>
    <line class="cls-2" x1="275.65" y1="473.95" x2="277.27" y2="473.95"/>
    <line class="cls-2" x1="267.53" y1="473.95" x2="269.15" y2="473.95"/>
    <line class="cls-2" x1="308.12" y1="473.95" x2="309.74" y2="473.95"/>
    <line class="cls-2" x1="300" y1="473.95" x2="301.62" y2="473.95"/>
    <line class="cls-2" x1="291.88" y1="473.95" x2="293.51" y2="473.95"/>
    <line class="cls-2" x1="283.77" y1="473.95" x2="285.39" y2="473.95"/>
    <line class="cls-2" x1="277.27" y1="477.32" x2="277.27" y2="474.77"/>
    <path class="cls-2" d="M277.27,478.37v-1.05"/>
    <line class="cls-2" x1="277.27" y1="478.37" x2="275.65" y2="478.37"/>
    <line class="cls-2" x1="275.65" y1="477.32" x2="275.65" y2="474.77"/>
    <path class="cls-2" d="M275.65,478.37v-1.05"/>
    <line class="cls-2" x1="269.15" y1="477.32" x2="269.15" y2="474.77"/>
    <line class="cls-2" x1="267.53" y1="477.32" x2="267.53" y2="474.77"/>
    <line class="cls-2" x1="321.1" y1="514.51" x2="256.17" y2="514.51"/>
    <line class="cls-2" x1="315.02" y1="480.41" x2="316.96" y2="480.41"/>
    <line class="cls-2" x1="315.02" y1="480.41" x2="315.02" y2="479.6"/>
    <line class="cls-2" x1="262.25" y1="479.6" x2="262.25" y2="480.41"/>
    <line class="cls-2" x1="260.31" y1="480.41" x2="262.25" y2="480.41"/>
    <line class="cls-2" x1="264.28" y1="499.08" x2="264.28" y2="500.3"/>
    <line class="cls-2" x1="312.99" y1="499.08" x2="312.99" y2="500.3"/>
    <line class="cls-2" x1="312.99" y1="499.08" x2="264.28" y2="499.08"/>
    <line class="cls-2" x1="264.28" y1="505.98" x2="264.28" y2="500.3"/>
    <line class="cls-2" x1="312.99" y1="500.3" x2="264.28" y2="500.3"/>
    <line class="cls-2" x1="312.99" y1="500.3" x2="312.99" y2="505.98"/>
    <line class="cls-2" x1="312.99" y1="505.98" x2="264.28" y2="505.98"/>
    <line class="cls-2" x1="258.52" y1="484.47" x2="260.31" y2="484.47"/>
    <line class="cls-2" x1="258.52" y1="484.47" x2="258.52" y2="489.34"/>
    <line class="cls-2" x1="257.71" y1="489.34" x2="257.71" y2="485.28"/>
    <line class="cls-2" x1="256.17" y1="489.34" x2="256.17" y2="485.28"/>
    <line class="cls-2" x1="256.17" y1="485.28" x2="256.17" y2="483.66"/>
    <line class="cls-2" x1="258.52" y1="483.66" x2="258.52" y2="484.47"/>
    <line class="cls-2" x1="258.52" y1="484.47" x2="257.71" y2="485.28"/>
    <line class="cls-2" x1="256.17" y1="485.28" x2="257.71" y2="485.28"/>
    <line class="cls-2" x1="256.17" y1="483.66" x2="258.52" y2="483.66"/>
    <line class="cls-2" x1="258.52" y1="483.66" x2="260.31" y2="483.66"/>
    <line class="cls-2" x1="256.17" y1="480.41" x2="256.17" y2="483.66"/>
    <line class="cls-2" x1="256.17" y1="480.41" x2="260.31" y2="480.41"/>
    <line class="cls-2" x1="318.75" y1="484.47" x2="318.75" y2="489.34"/>
    <line class="cls-2" x1="321.1" y1="480.41" x2="321.1" y2="483.66"/>
    <line class="cls-2" x1="321.1" y1="480.41" x2="316.96" y2="480.41"/>
    <line class="cls-2" x1="316.96" y1="484.47" x2="318.75" y2="484.47"/>
    <line class="cls-2" x1="316.96" y1="483.66" x2="318.75" y2="483.66"/>
    <line class="cls-2" x1="321.1" y1="483.66" x2="321.1" y2="485.28"/>
    <line class="cls-2" x1="318.75" y1="484.47" x2="319.56" y2="485.28"/>
    <line class="cls-2" x1="318.75" y1="484.47" x2="318.75" y2="483.66"/>
    <line class="cls-2" x1="318.75" y1="483.66" x2="321.1" y2="483.66"/>
    <line class="cls-2" x1="321.1" y1="489.34" x2="321.1" y2="485.28"/>
    <line class="cls-2" x1="319.56" y1="485.28" x2="321.1" y2="485.28"/>
    <line class="cls-2" x1="309.74" y1="477.32" x2="309.74" y2="474.77"/>
    <line class="cls-2" x1="308.12" y1="477.32" x2="308.12" y2="474.77"/>
    <line class="cls-2" x1="301.62" y1="477.32" x2="301.62" y2="474.77"/>
    <line class="cls-2" x1="300" y1="477.32" x2="300" y2="474.77"/>
    <line class="cls-2" x1="293.51" y1="477.32" x2="293.51" y2="474.77"/>
    <line class="cls-2" x1="291.88" y1="477.32" x2="291.88" y2="474.77"/>
    <line class="cls-2" x1="285.39" y1="477.32" x2="285.39" y2="474.77"/>
    <line class="cls-2" x1="283.77" y1="477.32" x2="283.77" y2="474.77"/>
    <path class="cls-2" d="M283.77,478.37v-1.05"/>
    <line class="cls-2" x1="285.39" y1="478.37" x2="283.77" y2="478.37"/>
    <path class="cls-2" d="M285.39,478.37v-1.05"/>
    <path class="cls-2" d="M291.88,478.37v-1.05"/>
    <line class="cls-2" x1="293.51" y1="478.37" x2="291.88" y2="478.37"/>
    <path class="cls-2" d="M293.51,478.37v-1.05"/>
    <path class="cls-2" d="M300,478.37v-1.05"/>
    <line class="cls-2" x1="301.62" y1="478.37" x2="300" y2="478.37"/>
    <path class="cls-2" d="M301.62,478.37v-1.05"/>
    <path class="cls-2" d="M308.12,478.37v-1.05"/>
    <line class="cls-2" x1="309.74" y1="478.37" x2="308.12" y2="478.37"/>
    <path class="cls-2" d="M309.74,478.37v-1.05"/>
    <path class="cls-2" d="M267.53,478.37v-1.05"/>
    <line class="cls-2" x1="269.15" y1="478.37" x2="267.53" y2="478.37"/>
    <path class="cls-2" d="M269.15,478.37v-1.05"/>
    <line class="cls-2" x1="444.32" y1="155.46" x2="444.32" y2="148.97"/>
    <line class="cls-2" x1="452.43" y1="153.84" x2="444.32" y2="155.46"/>
    <line class="cls-2" x1="495.46" y1="155.46" x2="487.34" y2="153.84"/>
    <line class="cls-2" x1="487.34" y1="153.84" x2="452.43" y2="153.84"/>
    <line class="cls-2" x1="487.34" y1="150.59" x2="452.43" y2="150.59"/>
    <path class="cls-2" d="M486.56,155.46c1.8.97,3.98.97,5.78,0"/>
    <line class="cls-2" x1="463.74" y1="232.85" x2="461.71" y2="232.85"/>
    <line class="cls-2" x1="463.74" y1="232.85" x2="463.74" y2="234.88"/>
    <line class="cls-2" x1="463.74" y1="234.88" x2="461.71" y2="234.88"/>
    <line class="cls-2" x1="464.55" y1="234.88" x2="463.74" y2="234.88"/>
    <line class="cls-2" x1="463.74" y1="249.09" x2="461.71" y2="249.09"/>
    <line class="cls-2" x1="463.74" y1="251.12" x2="461.71" y2="251.12"/>
    <line class="cls-2" x1="464.55" y1="249.09" x2="463.74" y2="249.09"/>
    <line class="cls-2" x1="464.55" y1="249.09" x2="464.55" y2="251.12"/>
    <line class="cls-2" x1="464.55" y1="251.12" x2="463.74" y2="251.12"/>
    <line class="cls-2" x1="463.74" y1="249.09" x2="463.74" y2="251.12"/>
    <line class="cls-2" x1="506.41" y1="148.97" x2="495.46" y2="148.97"/>
    <line class="cls-2" x1="506.41" y1="155.46" x2="495.46" y2="155.46"/>
    <line class="cls-2" x1="506.41" y1="155.46" x2="506.41" y2="148.97"/>
    <line class="cls-2" x1="444.32" y1="155.46" x2="433.36" y2="155.46"/>
    <line class="cls-2" x1="433.36" y1="155.46" x2="433.36" y2="148.97"/>
    <line class="cls-2" x1="452.43" y1="150.59" x2="444.32" y2="148.97"/>
    <line class="cls-2" x1="452.43" y1="150.59" x2="452.43" y2="153.84"/>
    <line class="cls-2" x1="487.34" y1="153.84" x2="487.34" y2="150.59"/>
    <path class="cls-2" d="M309.92,33.88l.43-.43"/>
    <path class="cls-2" d="M297.17,46.63c-.08.07-.14.14-.18.18l-.1.1-.08.08s-.05.05-.06.06"/>
    <path class="cls-2" d="M306.47,30.44c.07-.08.14-.14.18-.19.04-.04.07-.07.1-.1.03-.03.06-.06.08-.08l.06-.06"/>
    <path class="cls-2" d="M293.73,43.18c-.24.24-.38.38-.43.43"/>
    <path class="cls-2" d="M293.31,43.61c.84,1.42,2.03,2.6,3.44,3.44"/>
    <path class="cls-2" d="M310.34,33.46c-.84-1.42-2.03-2.6-3.45-3.44"/>
    <path class="cls-2" d="M309.92,33.88c1.66,2.89,1.65,6.44-.02,9.33-1.67,2.88-4.75,4.66-8.08,4.66"/>
    <path class="cls-2" d="M301.83,47.87c-1.63,0-3.24-.43-4.65-1.24"/>
    <path class="cls-2" d="M223.98,268.25c0,11.84,4.7,23.2,13.08,31.57,8.37,8.37,19.73,13.08,31.57,13.08s23.2-4.7,31.57-13.08c8.37-8.37,13.08-19.73,13.08-31.57"/>
    <path class="cls-2" d="M207.38,25.01c0,7.62,6.18,13.8,13.8,13.8s13.8-6.18,13.8-13.8"/>
    <path class="cls-2" d="M253.98.5s.04,0,.05.02"/>
    <path class="cls-2" d="M254.03.52s.04.02.05.04"/>
    <path class="cls-2" d="M343.69,10.9s.06.02.09.03"/>
    <path class="cls-2" d="M3.96,311c-.06.05-.16.02-.17-.06"/>
    <line class="cls-2" x1="3.79" y1="310.94" x2="3.35" y2="307.69"/>
    <path class="cls-2" d="M3.35,307.69s0-.07.03-.1"/>
    <line class="cls-2" x1="3.38" y1="307.59" x2="3.63" y2="307.36"/>
    <path class="cls-2" d="M.53,269.32s-.03-.03-.02-.05"/>
    <path class="cls-2" d="M.5,269.27C.19,200.5,26.33,134.24,73.51,84.21,120.69,34.18,185.31,4.21,253.98.5"/>
    <path class="cls-2" d="M234.98,25.01c0-7.62-6.18-13.8-13.8-13.8s-13.8,6.18-13.8,13.8"/>
    <path class="cls-2" d="M169.82,87.67c0-2.26-1.25-4.33-3.24-5.38-1.99-1.05-4.41-.92-6.27.35"/>
    <path class="cls-2" d="M141.37,114.68c0-2.26-1.25-4.33-3.24-5.38s-4.41-.92-6.27.35"/>
    <path class="cls-2" d="M140.66,58.51c0-2.26-1.25-4.33-3.24-5.38-1.99-1.05-4.41-.92-6.27.35"/>
    <path class="cls-2" d="M112.21,85.52c0-2.26-1.25-4.33-3.24-5.38-1.99-1.05-4.41-.92-6.27.35"/>
    <path class="cls-2" d="M313.27,268.25c0-11.84-4.7-23.2-13.08-31.57-8.37-8.37-19.73-13.08-31.57-13.08s-23.2,4.7-31.57,13.08c-8.37,8.37-13.08,19.73-13.08,31.57"/>
    <line class="cls-2" x1="254.08" y1=".57" x2="261.34" y2="10.93"/>
    <path class="cls-2" d="M343.78,10.93c0-.15.22-.15.22,0"/>
    <path class="cls-2" d="M265.32,43.18c-1.66-2.89-1.65-6.44.02-9.32,1.67-2.88,4.75-4.66,8.08-4.66"/>
    <path class="cls-2" d="M273.41,29.2c1.63,0,3.23.43,4.65,1.24"/>
    <line class="cls-2" x1="259.21" y1="25.14" x2="259.21" y2="29.2"/>
    <line class="cls-2" x1="259.21" y1="10.93" x2="259.21" y2="23.29"/>
    <line class="cls-2" x1="464.55" y1="240.97" x2="463.74" y2="240.97"/>
    <line class="cls-2" x1="464.55" y1="240.97" x2="464.55" y2="243"/>
    <line class="cls-2" x1="464.55" y1="243" x2="463.74" y2="243"/>
    <line class="cls-2" x1="463.74" y1="240.97" x2="461.71" y2="240.97"/>
    <line class="cls-2" x1="463.74" y1="240.97" x2="463.74" y2="243"/>
    <line class="cls-2" x1="463.74" y1="243" x2="461.71" y2="243"/>
    <path class="cls-2" d="M273.41,48.45c3.57,0,6.86-1.92,8.62-5.02,1.76-3.1,1.72-6.91-.1-9.97"/>
    <path class="cls-2" d="M268.34,47.05c1.53.92,3.29,1.4,5.08,1.4"/>
    <path class="cls-2" d="M268.76,46.63c-.08.07-.14.14-.18.18-.04.04-.07.07-.1.1-.03.03-.06.06-.08.08-.03.03-.05.05-.06.06"/>
    <path class="cls-2" d="M281.93,33.46l-.14.14c-.07.07-.17.17-.28.28"/>
    <path class="cls-2" d="M281.51,33.88c1.66,2.89,1.65,6.44-.01,9.33s-4.75,4.66-8.08,4.66"/>
    <path class="cls-2" d="M273.41,47.87c-1.63,0-3.23-.43-4.65-1.24"/>
    <path class="cls-2" d="M281.93,33.46c-.84-1.42-2.03-2.6-3.44-3.44"/>
    <path class="cls-2" d="M264.89,43.61c.84,1.42,2.03,2.6,3.44,3.44"/>
    <path class="cls-2" d="M278.06,30.44c.08-.08.14-.14.18-.19.04-.04.07-.07.1-.1.03-.03.06-.06.08-.08.03-.03.05-.05.06-.06"/>
    <path class="cls-2" d="M265.32,43.18c-.24.24-.38.38-.43.43"/>
    <line class="cls-2" x1="176.58" y1="267.32" x2="182.26" y2="261.08"/>
    <line class="cls-2" x1="176.58" y1="267.32" x2="179.46" y2="269.95"/>
    <line class="cls-2" x1="179.46" y1="269.95" x2="185.14" y2="263.7"/>
    <line class="cls-2" x1="354.91" y1="240.77" x2="354.91" y2="242.4"/>
    <line class="cls-2" x1="351.82" y1="240.77" x2="351.82" y2="242.4"/>
    <path class="cls-2" d="M351.82,242.4s-.01,0-.02,0h-.02"/>
    <line class="cls-2" x1="354.91" y1="242.4" x2="351.82" y2="242.4"/>
    <line class="cls-2" x1="355.64" y1="242.4" x2="354.91" y2="242.4"/>
    <line class="cls-2" x1="354.91" y1="240.77" x2="351.82" y2="240.77"/>
    <line class="cls-2" x1="355.64" y1="240.77" x2="354.91" y2="240.77"/>
    <path class="cls-2" d="M351.82,240.77s-.01,0-.02,0h-.02"/>
    <line class="cls-2" x1="355.64" y1="232.65" x2="354.91" y2="232.66"/>
    <path class="cls-2" d="M351.82,232.65s-.01,0-.02,0h-.02"/>
    <line class="cls-2" x1="354.91" y1="232.66" x2="351.82" y2="232.66"/>
    <line class="cls-2" x1="354.91" y1="232.66" x2="354.91" y2="234.28"/>
    <line class="cls-2" x1="351.82" y1="232.66" x2="351.82" y2="234.28"/>
    <path class="cls-2" d="M351.82,234.28s-.01,0-.02,0h-.02"/>
    <line class="cls-2" x1="354.91" y1="234.28" x2="351.82" y2="234.28"/>
    <line class="cls-2" x1="355.64" y1="234.28" x2="354.91" y2="234.28"/>
    <path class="cls-2" d="M351.82,248.89s-.01,0-.02,0h-.02"/>
    <line class="cls-2" x1="354.91" y1="248.89" x2="351.82" y2="248.89"/>
    <line class="cls-2" x1="355.64" y1="248.89" x2="354.91" y2="248.89"/>
    <line class="cls-2" x1="148.08" y1="125.87" x2="140.33" y2="118.12"/>
    <line class="cls-2" x1="143.49" y1="130.46" x2="135.74" y2="122.71"/>
    <line class="cls-2" x1="99.58" y1="86.55" x2="91.83" y2="78.8"/>
    <line class="cls-2" x1="131.15" y1="115.83" x2="133.45" y2="113.53"/>
    <line class="cls-2" x1="108.76" y1="88.85" x2="104.17" y2="81.96"/>
    <line class="cls-2" x1="108.76" y1="88.85" x2="106.47" y2="91.14"/>
    <line class="cls-2" x1="91.83" y1="78.8" x2="96.42" y2="74.21"/>
    <line class="cls-2" x1="143.49" y1="130.46" x2="148.08" y2="125.87"/>
    <line class="cls-2" x1="323.88" y1="271.36" x2="393.69" y2="271.36"/>
    <line class="cls-2" x1="393.69" y1="290.6" x2="393.69" y2="271.36"/>
    <line class="cls-2" x1="388.42" y1="290.6" x2="388.42" y2="293.85"/>
    <line class="cls-2" x1="323.88" y1="290.6" x2="323.88" y2="271.36"/>
    <line class="cls-2" x1="329.16" y1="290.6" x2="329.16" y2="293.85"/>
    <line class="cls-2" x1="329.16" y1="293.85" x2="379.49" y2="293.85"/>
    <line class="cls-2" x1="379.49" y1="293.85" x2="381.52" y2="290.33"/>
    <line class="cls-2" x1="381.52" y1="290.33" x2="383.55" y2="293.85"/>
    <line class="cls-2" x1="383.55" y1="293.85" x2="388.42" y2="293.85"/>
    <line class="cls-2" x1="388.42" y1="290.6" x2="393.69" y2="290.6"/>
    <line class="cls-2" x1="329.16" y1="290.6" x2="323.88" y2="290.6"/>
    <line class="cls-2" x1="379.49" y1="293.85" x2="383.55" y2="293.85"/>
    <line class="cls-2" x1="463.74" y1="226.76" x2="461.71" y2="226.76"/>
    <line class="cls-2" x1="464.55" y1="226.76" x2="463.74" y2="226.76"/>
    <line class="cls-2" x1="259.21" y1="53.39" x2="259.21" y2="29.2"/>
    <line class="cls-2" x1="259.21" y1="25.14" x2="259.21" y2="23.67"/>
    <path class="cls-2" d="M259.21,23.29v.38"/>
    <line class="cls-2" x1="344.44" y1="66.13" x2="344.44" y2="53.77"/>
    <line class="cls-2" x1="333.48" y1="27.64" x2="333.48" y2="29.78"/>
    <line class="cls-2" x1="305.07" y1="27.64" x2="305.07" y2="29.16"/>
    <line class="cls-2" x1="298.58" y1="27.64" x2="298.58" y2="29.16"/>
    <line class="cls-2" x1="276.66" y1="27.64" x2="276.66" y2="29.16"/>
    <line class="cls-2" x1="270.17" y1="27.64" x2="270.17" y2="29.16"/>
    <line class="cls-2" x1="261.73" y1="24.46" x2="259.21" y2="25.14"/>
    <line class="cls-2" x1="259.21" y1="29.2" x2="261.73" y2="29.87"/>
    <path class="cls-2" d="M261.73,29.87c.77.21,1.53-.38,1.53-1.18"/>
    <line class="cls-2" x1="263.27" y1="28.7" x2="263.27" y2="25.64"/>
    <path class="cls-2" d="M263.27,25.64c0-.8-.76-1.38-1.53-1.18"/>
    <path class="cls-2" d="M344.44,23.67v-.38"/>
    <line class="cls-2" x1="344.44" y1="25.14" x2="344.44" y2="23.67"/>
    <line class="cls-2" x1="344.44" y1="53.39" x2="344.44" y2="29.2"/>
    <line class="cls-2" x1="259.21" y1="60.04" x2="256.68" y2="60.72"/>
    <line class="cls-2" x1="256.68" y1="55.31" x2="259.21" y2="55.98"/>
    <path class="cls-2" d="M256.68,55.31c-.77-.21-1.53.38-1.53,1.18"/>
    <line class="cls-2" x1="255.15" y1="56.48" x2="255.15" y2="59.54"/>
    <path class="cls-2" d="M255.15,59.54c0,.8.76,1.38,1.53,1.18"/>
    <line class="cls-2" x1="344.44" y1="66.13" x2="259.21" y2="66.13"/>
    <path class="cls-2" d="M344.44,53.77v-.38"/>
    <path class="cls-2" d="M259.21,53.39v.38"/>
    <line class="cls-2" x1="344.44" y1="25.14" x2="346.97" y2="24.46"/>
    <path class="cls-2" d="M348.5,25.64c0-.8-.76-1.38-1.53-1.18"/>
    <line class="cls-2" x1="348.5" y1="25.64" x2="348.5" y2="28.7"/>
    <path class="cls-2" d="M346.97,29.87c.77.21,1.53-.38,1.53-1.18"/>
    <line class="cls-2" x1="346.97" y1="29.87" x2="344.44" y2="29.2"/>
    <line class="cls-2" x1="150.68" y1="232.35" x2="183.46" y2="196.32"/>
    <line class="cls-2" x1="366.03" y1="250.51" x2="360.75" y2="250.51"/>
    <line class="cls-2" x1="366.03" y1="248.89" x2="360.75" y2="248.89"/>
    <line class="cls-2" x1="366.03" y1="242.4" x2="360.75" y2="242.4"/>
    <line class="cls-2" x1="366.03" y1="240.77" x2="360.75" y2="240.77"/>
    <line class="cls-2" x1="366.03" y1="234.28" x2="360.75" y2="234.28"/>
    <line class="cls-2" x1="366.03" y1="232.65" x2="360.75" y2="232.65"/>
    <line class="cls-2" x1="366.03" y1="226.16" x2="360.75" y2="226.16"/>
    <line class="cls-2" x1="102.64" y1="188.84" x2="135.42" y2="152.82"/>
    <line class="cls-2" x1="177.45" y1="191.06" x2="144.67" y2="227.08"/>
    <line class="cls-2" x1="435.33" y1="252.13" x2="435.33" y2="260.66"/>
    <line class="cls-2" x1="459.68" y1="223.72" x2="459.68" y2="215.2"/>
    <line class="cls-2" x1="459.68" y1="260.66" x2="459.68" y2="252.13"/>
    <line class="cls-2" x1="445.07" y1="213.57" x2="445.07" y2="213.01"/>
    <line class="cls-2" x1="436.14" y1="213.79" x2="436.14" y2="213.01"/>
    <line class="cls-2" x1="177.45" y1="191.06" x2="178.54" y2="189.86"/>
    <line class="cls-2" x1="172.64" y1="186.69" x2="173.74" y2="185.49"/>
    <line class="cls-2" x1="140.22" y1="157.19" x2="141.32" y2="155.99"/>
    <line class="cls-2" x1="135.42" y1="152.82" x2="136.51" y2="151.62"/>
    <line class="cls-2" x1="100.62" y1="141.26" x2="105.41" y2="145.64"/>
    <line class="cls-2" x1="445.07" y1="262.28" x2="445.07" y2="262.85"/>
    <line class="cls-2" x1="188.26" y1="200.69" x2="189.36" y2="199.49"/>
    <line class="cls-2" x1="183.46" y1="196.32" x2="184.55" y2="195.12"/>
    <line class="cls-2" x1="497.61" y1="250.45" x2="497.61" y2="248.39"/>
    <line class="cls-2" x1="477.93" y1="241.12" x2="477.93" y2="233.97"/>
    <line class="cls-2" x1="477.93" y1="233.97" x2="477.93" y2="216.36"/>
    <line class="cls-2" x1="490.71" y1="248.39" x2="490.71" y2="250.45"/>
    <line class="cls-2" x1="489.5" y1="250.45" x2="489.5" y2="248.39"/>
    <line class="cls-2" x1="498.83" y1="248.39" x2="498.83" y2="250.45"/>
    <line class="cls-2" x1="506.95" y1="248.39" x2="506.95" y2="250.45"/>
    <line class="cls-2" x1="505.73" y1="250.45" x2="505.73" y2="248.39"/>
    <line class="cls-2" x1="513.85" y1="250.45" x2="513.85" y2="248.39"/>
    <line class="cls-2" x1="515.07" y1="248.39" x2="515.07" y2="250.45"/>
    <line class="cls-2" x1="497.61" y1="248.39" x2="498.83" y2="248.39"/>
    <path class="cls-2" d="M497.61,246.97v1.42"/>
    <path class="cls-2" d="M526.63,216.36c0-.67-.55-1.22-1.22-1.22"/>
    <path class="cls-2" d="M479.15,215.14c.01.1,0,.2,0,.3v.91"/>
    <line class="cls-2" x1="521.68" y1="245.99" x2="521.68" y2="233.57"/>
    <line class="cls-2" x1="482.88" y1="233.57" x2="482.88" y2="245.99"/>
    <line class="cls-2" x1="486.45" y1="246.8" x2="485.64" y2="245.99"/>
    <line class="cls-2" x1="477.93" y1="246.8" x2="486.45" y2="246.8"/>
    <line class="cls-2" x1="482.88" y1="245.99" x2="485.64" y2="245.99"/>
    <line class="cls-2" x1="482.48" y1="245.99" x2="482.88" y2="245.99"/>
    <line class="cls-2" x1="477.93" y1="245.99" x2="482.48" y2="245.99"/>
    <line class="cls-2" x1="482.48" y1="243.96" x2="477.93" y2="243.96"/>
    <line class="cls-2" x1="477.93" y1="243.96" x2="477.93" y2="241.12"/>
    <line class="cls-2" x1="477.93" y1="243.96" x2="477.93" y2="245.99"/>
    <line class="cls-2" x1="477.93" y1="245.99" x2="477.93" y2="246.8"/>
    <path class="cls-2" d="M479.15,215.14c-.67,0-1.22.55-1.22,1.22"/>
    <line class="cls-2" x1="498.83" y1="250.45" x2="497.61" y2="250.45"/>
    <line class="cls-2" x1="479.15" y1="215.14" x2="525.42" y2="215.14"/>
    <line class="cls-2" x1="477.93" y1="241.12" x2="482.48" y2="241.12"/>
    <line class="cls-2" x1="478.24" y1="233.97" x2="482.48" y2="233.97"/>
    <line class="cls-2" x1="482.48" y1="233.97" x2="482.88" y2="233.57"/>
    <line class="cls-2" x1="479.15" y1="233.57" x2="482.88" y2="233.57"/>
    <path class="cls-2" d="M478.24,233.97c.23-.26.56-.41.91-.41"/>
    <path class="cls-2" d="M477.93,233.97s0,0,.01,0h.3"/>
    <path class="cls-2" d="M477.93,216.36s0,0,0,0h1.21"/>
    <line class="cls-2" x1="526.63" y1="246.8" x2="518.11" y2="246.8"/>
    <line class="cls-2" x1="526.63" y1="245.99" x2="526.63" y2="246.8"/>
    <line class="cls-2" x1="518.11" y1="246.8" x2="518.92" y2="245.99"/>
    <line class="cls-2" x1="521.68" y1="245.99" x2="518.92" y2="245.99"/>
    <line class="cls-2" x1="522.09" y1="245.99" x2="521.68" y2="245.99"/>
    <line class="cls-2" x1="526.63" y1="241.12" x2="526.63" y2="233.97"/>
    <line class="cls-2" x1="526.63" y1="233.97" x2="526.63" y2="216.36"/>
    <path class="cls-2" d="M526.32,233.97h.3s.01,0,.01,0"/>
    <line class="cls-2" x1="522.09" y1="233.97" x2="521.68" y2="233.57"/>
    <line class="cls-2" x1="525.42" y1="233.57" x2="521.68" y2="233.57"/>
    <path class="cls-2" d="M526.32,233.97c-.23-.26-.56-.41-.91-.41"/>
    <line class="cls-2" x1="526.32" y1="233.97" x2="522.09" y2="233.97"/>
    <line class="cls-2" x1="526.63" y1="241.12" x2="522.09" y2="241.12"/>
    <line class="cls-2" x1="526.63" y1="243.96" x2="526.63" y2="241.12"/>
    <line class="cls-2" x1="522.09" y1="243.96" x2="526.63" y2="243.96"/>
    <line class="cls-2" x1="526.63" y1="245.99" x2="522.09" y2="245.99"/>
    <line class="cls-2" x1="526.63" y1="243.96" x2="526.63" y2="245.99"/>
    <path class="cls-2" d="M489.5,246.97v1.42"/>
    <path class="cls-2" d="M490.71,246.97v1.42"/>
    <line class="cls-2" x1="489.5" y1="246.97" x2="489.5" y2="246.8"/>
    <line class="cls-2" x1="489.5" y1="246.97" x2="490.71" y2="246.97"/>
    <line class="cls-2" x1="490.71" y1="246.97" x2="490.71" y2="246.8"/>
    <line class="cls-2" x1="490.71" y1="250.45" x2="489.5" y2="250.45"/>
    <line class="cls-2" x1="489.5" y1="248.39" x2="490.71" y2="248.39"/>
    <line class="cls-2" x1="497.61" y1="246.97" x2="497.61" y2="246.8"/>
    <line class="cls-2" x1="497.61" y1="246.97" x2="498.83" y2="246.97"/>
    <path class="cls-2" d="M498.83,246.97v1.42"/>
    <line class="cls-2" x1="498.83" y1="246.97" x2="498.83" y2="246.8"/>
    <line class="cls-2" x1="505.73" y1="246.97" x2="505.73" y2="246.8"/>
    <line class="cls-2" x1="506.95" y1="246.97" x2="506.95" y2="246.8"/>
    <path class="cls-2" d="M506.95,246.97v1.42"/>
    <path class="cls-2" d="M505.73,246.97v1.42"/>
    <line class="cls-2" x1="506.95" y1="250.45" x2="505.73" y2="250.45"/>
    <line class="cls-2" x1="515.07" y1="250.45" x2="513.85" y2="250.45"/>
    <path class="cls-2" d="M513.85,246.97v1.42"/>
    <path class="cls-2" d="M515.07,246.97v1.42"/>
    <line class="cls-2" x1="513.85" y1="246.97" x2="513.85" y2="246.8"/>
    <line class="cls-2" x1="515.07" y1="246.97" x2="515.07" y2="246.8"/>
    <line class="cls-2" x1="436.14" y1="213.01" x2="445.07" y2="213.01"/>
    <line class="cls-2" x1="436.14" y1="213.01" x2="436.14" y2="212.6"/>
    <line class="cls-2" x1="436.14" y1="212.6" x2="445.07" y2="212.6"/>
    <line class="cls-2" x1="173.74" y1="185.49" x2="178.54" y2="189.86"/>
    <line class="cls-2" x1="136.51" y1="151.62" x2="141.32" y2="155.99"/>
    <path class="cls-2" d="M23.49,210.83c-4.48,0-8.12,3.63-8.12,8.12s3.63,8.12,8.12,8.12"/>
    <path class="cls-2" d="M23.49,227.07c4.48,0,8.12-3.64,8.12-8.12s-3.63-8.12-8.12-8.12"/>
    <path class="cls-2" d="M520.18,277.01c-4.48,0-8.12,3.63-8.12,8.12s3.64,8.12,8.12,8.12"/>
    <path class="cls-2" d="M520.18,293.25c4.48,0,8.12-3.63,8.12-8.12s-3.63-8.12-8.12-8.12"/>
    <path class="cls-2" d="M317.33,268.25c0,16.05-7.91,31.08-21.15,40.16-13.24,9.08-30.11,11.05-45.08,5.27-14.98-5.78-26.15-18.57-29.85-34.19-3.71-15.62.53-32.07,11.31-43.96"/>
    <line class="cls-2" x1="232.55" y1="235.53" x2="70.23" y2="88.26"/>
    <path class="cls-2" d="M338.33,33.88l.43-.43"/>
    <path class="cls-2" d="M325.59,46.63c-.08.07-.14.14-.18.18-.04.04-.07.07-.1.1-.03.03-.06.06-.08.08-.03.03-.05.05-.06.06"/>
    <path class="cls-2" d="M321.72,43.61c.84,1.42,2.03,2.6,3.44,3.44"/>
    <path class="cls-2" d="M338.75,33.46c-.84-1.42-2.03-2.6-3.44-3.44"/>
    <path class="cls-2" d="M322.14,43.18c-.24.24-.38.38-.43.43"/>
    <path class="cls-2" d="M334.88,30.44c.08-.08.14-.14.18-.19.04-.04.07-.07.1-.1.03-.03.06-.06.08-.08.03-.03.05-.05.06-.06"/>
    <path class="cls-2" d="M338.33,33.88c1.66,2.89,1.65,6.44-.01,9.33s-4.75,4.66-8.08,4.66"/>
    <path class="cls-2" d="M330.24,47.87c-1.63,0-3.23-.43-4.65-1.24"/>
    <line class="cls-2" x1="364" y1="259.52" x2="359.13" y2="259.52"/>
    <path class="cls-2" d="M374.51,242.4s-.02,0-.02,0h-.79"/>
    <line class="cls-2" x1="364" y1="257.74" x2="364" y2="259.52"/>
    <line class="cls-2" x1="225.49" y1="234.56" x2="192.71" y2="270.59"/>
    <line class="cls-2" x1="155.45" y1="248.09" x2="161.13" y2="241.85"/>
    <line class="cls-2" x1="220.68" y1="230.19" x2="221.78" y2="228.99"/>
    <line class="cls-2" x1="225.49" y1="234.56" x2="226.58" y2="233.36"/>
    <line class="cls-2" x1="122.54" y1="218.36" x2="128.22" y2="212.11"/>
    <line class="cls-2" x1="122.54" y1="218.36" x2="125.42" y2="220.98"/>
    <line class="cls-2" x1="221.78" y1="228.99" x2="226.58" y2="233.36"/>
    <line class="cls-2" x1="152.56" y1="245.47" x2="155.45" y2="248.09"/>
    <line class="cls-2" x1="367.25" y1="218.45" x2="367.25" y2="256.6"/>
    <line class="cls-2" x1="370.95" y1="250.51" x2="368.87" y2="250.51"/>
    <line class="cls-2" x1="370.95" y1="248.89" x2="368.87" y2="248.89"/>
    <line class="cls-2" x1="370.95" y1="242.4" x2="368.87" y2="242.4"/>
    <line class="cls-2" x1="370.95" y1="240.77" x2="368.87" y2="240.77"/>
    <line class="cls-2" x1="370.95" y1="234.28" x2="368.87" y2="234.28"/>
    <line class="cls-2" x1="370.95" y1="232.65" x2="368.87" y2="232.65"/>
    <line class="cls-2" x1="370.95" y1="226.16" x2="368.87" y2="226.16"/>
    <line class="cls-2" x1="345.33" y1="253.76" x2="342.08" y2="253.76"/>
    <line class="cls-2" x1="342.08" y1="221.29" x2="342.08" y2="253.76"/>
    <line class="cls-2" x1="342.08" y1="221.29" x2="345.33" y2="221.29"/>
    <line class="cls-2" x1="363.19" y1="260.34" x2="359.13" y2="260.34"/>
    <line class="cls-2" x1="363.19" y1="261.88" x2="359.13" y2="261.88"/>
    <line class="cls-2" x1="368.06" y1="261.88" x2="364.81" y2="261.88"/>
    <line class="cls-2" x1="364.81" y1="257.74" x2="364.81" y2="259.52"/>
    <line class="cls-2" x1="364.81" y1="261.88" x2="363.19" y2="261.88"/>
    <line class="cls-2" x1="363.19" y1="261.88" x2="363.19" y2="260.34"/>
    <line class="cls-2" x1="363.19" y1="260.34" x2="364" y2="259.52"/>
    <line class="cls-2" x1="364" y1="259.52" x2="364.81" y2="259.52"/>
    <line class="cls-2" x1="364.81" y1="261.88" x2="364.81" y2="259.52"/>
    <line class="cls-2" x1="368.06" y1="261.88" x2="368.06" y2="257.74"/>
    <line class="cls-2" x1="364.81" y1="215.53" x2="364.81" y2="217.31"/>
    <line class="cls-2" x1="368.06" y1="217.31" x2="368.06" y2="219.26"/>
    <line class="cls-2" x1="368.06" y1="255.79" x2="368.06" y2="257.74"/>
    <line class="cls-2" x1="345.33" y1="261.88" x2="359.13" y2="261.88"/>
    <line class="cls-2" x1="345.33" y1="213.17" x2="359.13" y2="213.17"/>
    <line class="cls-2" x1="346.95" y1="256.6" x2="346.95" y2="218.45"/>
    <line class="cls-2" x1="348.17" y1="219.67" x2="346.95" y2="218.45"/>
    <line class="cls-2" x1="346.95" y1="218.45" x2="352.23" y2="218.45"/>
    <line class="cls-2" x1="357.51" y1="219.67" x2="352.23" y2="219.67"/>
    <line class="cls-2" x1="348.17" y1="219.67" x2="352.23" y2="219.67"/>
    <line class="cls-2" x1="348.17" y1="255.38" x2="348.17" y2="219.67"/>
    <line class="cls-2" x1="357.51" y1="255.38" x2="352.23" y2="255.38"/>
    <line class="cls-2" x1="352.23" y1="256.6" x2="352.23" y2="258.22"/>
    <line class="cls-2" x1="352.23" y1="258.22" x2="357.51" y2="258.22"/>
    <line class="cls-2" x1="357.51" y1="258.22" x2="357.51" y2="256.6"/>
    <line class="cls-2" x1="357.51" y1="256.6" x2="357.51" y2="255.38"/>
    <line class="cls-2" x1="366.03" y1="255.38" x2="357.51" y2="255.38"/>
    <line class="cls-2" x1="367.25" y1="256.6" x2="357.51" y2="256.6"/>
    <line class="cls-2" x1="366.03" y1="255.38" x2="367.25" y2="256.6"/>
    <line class="cls-2" x1="357.51" y1="218.45" x2="367.25" y2="218.45"/>
    <line class="cls-2" x1="366.03" y1="219.67" x2="367.25" y2="218.45"/>
    <line class="cls-2" x1="357.51" y1="219.67" x2="366.03" y2="219.67"/>
    <line class="cls-2" x1="357.51" y1="218.45" x2="357.51" y2="216.83"/>
    <line class="cls-2" x1="357.51" y1="219.67" x2="357.51" y2="218.45"/>
    <line class="cls-2" x1="357.51" y1="216.83" x2="352.23" y2="216.83"/>
    <line class="cls-2" x1="352.23" y1="216.83" x2="352.23" y2="218.45"/>
    <line class="cls-2" x1="352.23" y1="218.45" x2="352.23" y2="219.67"/>
    <line class="cls-2" x1="352.23" y1="255.38" x2="352.23" y2="256.6"/>
    <line class="cls-2" x1="352.23" y1="256.6" x2="346.95" y2="256.6"/>
    <line class="cls-2" x1="348.17" y1="255.38" x2="346.95" y2="256.6"/>
    <line class="cls-2" x1="352.23" y1="255.38" x2="348.17" y2="255.38"/>
    <line class="cls-2" x1="368.06" y1="255.79" x2="368.87" y2="255.79"/>
    <line class="cls-2" x1="368.06" y1="219.26" x2="368.87" y2="219.26"/>
    <line class="cls-2" x1="364" y1="215.53" x2="364" y2="217.31"/>
    <line class="cls-2" x1="364" y1="215.53" x2="359.13" y2="215.53"/>
    <line class="cls-2" x1="363.19" y1="213.17" x2="359.13" y2="213.17"/>
    <line class="cls-2" x1="359.13" y1="214.71" x2="363.19" y2="214.71"/>
    <line class="cls-2" x1="363.19" y1="213.17" x2="364.81" y2="213.17"/>
    <line class="cls-2" x1="364.81" y1="215.53" x2="364.81" y2="213.17"/>
    <line class="cls-2" x1="364.81" y1="215.53" x2="364" y2="215.53"/>
    <line class="cls-2" x1="364" y1="215.53" x2="363.19" y2="214.71"/>
    <line class="cls-2" x1="363.19" y1="214.71" x2="363.19" y2="213.17"/>
    <line class="cls-2" x1="368.06" y1="213.17" x2="364.81" y2="213.17"/>
    <line class="cls-2" x1="368.06" y1="213.17" x2="368.06" y2="217.31"/>
    <path class="cls-2" d="M373.7,250.51h.8s.01,0,.01,0,0,0-.01,0h-.8"/>
    <line class="cls-2" x1="373.7" y1="248.89" x2="373.7" y2="250.51"/>
    <line class="cls-2" x1="373.7" y1="250.51" x2="371.81" y2="250.51"/>
    <path class="cls-2" d="M371.81,250.51h-.86"/>
    <path class="cls-2" d="M371.81,248.89h-.86"/>
    <line class="cls-2" x1="373.7" y1="248.89" x2="371.81" y2="248.89"/>
    <path class="cls-2" d="M373.7,248.89h.8s.01,0,.01,0c0,0,0,0-.01,0h-.8"/>
    <line class="cls-2" x1="373.7" y1="240.77" x2="373.7" y2="242.4"/>
    <line class="cls-2" x1="373.7" y1="242.4" x2="371.81" y2="242.4"/>
    <path class="cls-2" d="M371.81,242.4h-.86"/>
    <path class="cls-2" d="M371.81,240.77h-.86"/>
    <line class="cls-2" x1="373.7" y1="240.77" x2="371.81" y2="240.77"/>
    <path class="cls-2" d="M373.7,240.77h.8s.01,0,.01,0,0,0-.01,0h-.8"/>
    <path class="cls-2" d="M373.7,234.28h.8s.01,0,.01,0,0,0-.01,0h-.8"/>
    <line class="cls-2" x1="373.7" y1="232.65" x2="373.7" y2="234.28"/>
    <line class="cls-2" x1="373.7" y1="234.28" x2="371.81" y2="234.28"/>
    <path class="cls-2" d="M371.81,234.28h-.86"/>
    <path class="cls-2" d="M371.81,232.65h-.86"/>
    <line class="cls-2" x1="373.7" y1="232.65" x2="371.81" y2="232.65"/>
    <path class="cls-2" d="M373.7,232.65h.8s.01,0,.01,0c0,0,0,0-.01,0h-.8"/>
    <path class="cls-2" d="M371.81,226.16h-.86"/>
    <path class="cls-2" d="M373.7,226.16h.8s.01,0,.01,0c0,0,0,0-.01,0h-.8"/>
    <line class="cls-2" x1="373.7" y1="224.54" x2="371.81" y2="224.54"/>
    <line class="cls-2" x1="373.7" y1="224.54" x2="373.7" y2="226.16"/>
    <line class="cls-2" x1="373.7" y1="226.16" x2="371.81" y2="226.16"/>
    <line class="cls-2" x1="371.81" y1="224.54" x2="371.81" y2="226.16"/>
    <line class="cls-2" x1="370.95" y1="224.54" x2="368.87" y2="224.54"/>
    <line class="cls-2" x1="370.95" y1="224.54" x2="370.95" y2="226.16"/>
    <line class="cls-2" x1="119.41" y1="215.52" x2="125.1" y2="209.27"/>
    <line class="cls-2" x1="457" y1="252.13" x2="457" y2="255.99"/>
    <line class="cls-2" x1="458.22" y1="252.13" x2="458.22" y2="257.2"/>
    <line class="cls-2" x1="436.79" y1="252.13" x2="436.79" y2="258.83"/>
    <path class="cls-2" d="M351.82,226.16s-.01,0-.02,0h-.02"/>
    <line class="cls-2" x1="355.64" y1="226.16" x2="354.91" y2="226.16"/>
    <line class="cls-2" x1="354.91" y1="224.54" x2="351.82" y2="224.54"/>
    <line class="cls-2" x1="354.91" y1="224.54" x2="354.91" y2="226.16"/>
    <line class="cls-2" x1="354.91" y1="226.16" x2="351.82" y2="226.16"/>
    <line class="cls-2" x1="351.82" y1="224.54" x2="351.82" y2="226.16"/>
    <line class="cls-2" x1="73.41" y1="98.83" x2="46.04" y2="128.8"/>
    <line class="cls-2" x1="78.41" y1="158.36" x2="82.01" y2="161.64"/>
    <line class="cls-2" x1="84.74" y1="158.65" x2="82.01" y2="161.64"/>
    <line class="cls-2" x1="70.62" y1="151.24" x2="46.04" y2="128.8"/>
    <line class="cls-2" x1="97.98" y1="121.27" x2="73.41" y2="98.83"/>
    <line class="cls-2" x1="106.64" y1="134.67" x2="109.37" y2="131.67"/>
    <line class="cls-2" x1="105.78" y1="128.39" x2="109.37" y2="131.67"/>
    <line class="cls-2" x1="103.04" y1="131.39" x2="105.78" y2="128.39"/>
    <line class="cls-2" x1="97.98" y1="121.27" x2="105.78" y2="128.39"/>
    <line class="cls-2" x1="95.25" y1="124.27" x2="97.98" y2="121.27"/>
    <line class="cls-2" x1="73.35" y1="148.25" x2="70.62" y2="151.24"/>
    <line class="cls-2" x1="70.62" y1="151.24" x2="78.41" y2="158.36"/>
    <line class="cls-2" x1="81.15" y1="155.36" x2="78.41" y2="158.36"/>
    <line class="cls-2" x1="89.67" y1="153.25" x2="94.46" y2="157.63"/>
    <line class="cls-2" x1="95.56" y1="156.43" x2="94.46" y2="157.63"/>
    <line class="cls-2" x1="90.76" y1="152.05" x2="95.56" y2="156.43"/>
    <line class="cls-2" x1="106.51" y1="144.44" x2="105.41" y2="145.64"/>
    <line class="cls-2" x1="101.71" y1="140.06" x2="106.51" y2="144.44"/>
    <line class="cls-2" x1="433.3" y1="223.72" x2="433.3" y2="252.13"/>
    <line class="cls-2" x1="520.64" y1="186.08" x2="509.68" y2="186.08"/>
    <line class="cls-2" x1="520.64" y1="192.57" x2="509.68" y2="192.57"/>
    <line class="cls-2" x1="520.64" y1="192.57" x2="520.64" y2="186.08"/>
    <line class="cls-2" x1="458.54" y1="192.57" x2="447.58" y2="192.57"/>
    <line class="cls-2" x1="447.58" y1="192.57" x2="447.58" y2="186.08"/>
    <line class="cls-2" x1="466.66" y1="187.7" x2="458.54" y2="186.08"/>
    <line class="cls-2" x1="466.66" y1="187.7" x2="466.66" y2="190.95"/>
    <line class="cls-2" x1="501.56" y1="190.95" x2="501.56" y2="187.7"/>
    <path class="cls-2" d="M391.01,413.52c.34,0,.61-.27.61-.61s-.27-.61-.61-.61"/>
    <path class="cls-2" d="M391.01,412.3c-.34,0-.61.27-.61.61s.27.61.61.61"/>
    <line class="cls-2" x1="164.57" y1="256.4" x2="167.45" y2="259.02"/>
    <line class="cls-2" x1="167.45" y1="259.02" x2="173.14" y2="252.77"/>
    <line class="cls-2" x1="158.57" y1="250.94" x2="164.25" y2="244.69"/>
    <line class="cls-2" x1="158.57" y1="250.94" x2="161.45" y2="253.56"/>
    <line class="cls-2" x1="161.45" y1="253.56" x2="167.13" y2="247.31"/>
    <line class="cls-2" x1="131.42" y1="226.44" x2="137.1" y2="220.2"/>
    <line class="cls-2" x1="107.41" y1="204.59" x2="113.09" y2="198.35"/>
    <line class="cls-2" x1="104.52" y1="201.97" x2="107.41" y2="204.59"/>
    <line class="cls-2" x1="436.14" y1="262.85" x2="445.07" y2="262.85"/>
    <line class="cls-2" x1="436.14" y1="263.25" x2="445.07" y2="263.25"/>
    <line class="cls-2" x1="445.07" y1="263.25" x2="445.07" y2="262.85"/>
    <line class="cls-2" x1="436.14" y1="262.85" x2="436.14" y2="262.06"/>
    <line class="cls-2" x1="436.14" y1="263.25" x2="436.14" y2="262.85"/>
    <line class="cls-2" x1="170.58" y1="261.86" x2="173.46" y2="264.48"/>
    <line class="cls-2" x1="170.58" y1="261.86" x2="176.26" y2="255.62"/>
    <line class="cls-2" x1="128.54" y1="223.82" x2="131.42" y2="226.44"/>
    <line class="cls-2" x1="116.53" y1="212.89" x2="119.41" y2="215.52"/>
    <line class="cls-2" x1="184.55" y1="195.12" x2="189.36" y2="199.49"/>
    <line class="cls-2" x1="457" y1="219.87" x2="457" y2="223.72"/>
    <line class="cls-2" x1="435.33" y1="215.2" x2="435.33" y2="223.72"/>
    <line class="cls-2" x1="458.22" y1="257.2" x2="442.87" y2="257.2"/>
    <line class="cls-2" x1="442.87" y1="218.65" x2="458.22" y2="218.65"/>
    <line class="cls-2" x1="448.8" y1="219.87" x2="448.8" y2="220.88"/>
    <line class="cls-2" x1="438" y1="255.99" x2="442.87" y2="255.99"/>
    <line class="cls-2" x1="438" y1="219.87" x2="442.87" y2="219.87"/>
    <line class="cls-2" x1="442.87" y1="218.65" x2="442.87" y2="217.02"/>
    <line class="cls-2" x1="442.87" y1="258.83" x2="442.87" y2="257.2"/>
    <line class="cls-2" x1="458.22" y1="218.65" x2="458.22" y2="223.72"/>
    <line class="cls-2" x1="442.87" y1="257.2" x2="442.87" y2="255.99"/>
    <line class="cls-2" x1="458.22" y1="257.2" x2="457" y2="255.99"/>
    <line class="cls-2" x1="436.79" y1="217.02" x2="436.79" y2="223.72"/>
    <line class="cls-2" x1="442.87" y1="219.87" x2="442.87" y2="218.65"/>
    <line class="cls-2" x1="458.22" y1="218.65" x2="457" y2="219.87"/>
    <path class="cls-2" d="M459.68,215.2c0-.9-.73-1.62-1.62-1.62"/>
    <path class="cls-2" d="M458.05,262.28c.9,0,1.62-.73,1.62-1.62"/>
    <line class="cls-2" x1="448.8" y1="254.97" x2="448.8" y2="255.99"/>
    <line class="cls-2" x1="171.94" y1="103.45" x2="164.19" y2="95.7"/>
    <line class="cls-2" x1="128.03" y1="59.54" x2="120.28" y2="51.79"/>
    <line class="cls-2" x1="176.53" y1="98.86" x2="168.79" y2="91.11"/>
    <line class="cls-2" x1="159.6" y1="88.82" x2="161.9" y2="86.52"/>
    <line class="cls-2" x1="137.22" y1="61.84" x2="132.62" y2="54.95"/>
    <line class="cls-2" x1="137.22" y1="61.84" x2="134.92" y2="64.14"/>
    <line class="cls-2" x1="120.28" y1="51.79" x2="124.88" y2="47.2"/>
    <line class="cls-2" x1="171.94" y1="103.45" x2="176.53" y2="98.86"/>
    <line class="cls-2" x1="110.53" y1="207.43" x2="113.41" y2="210.05"/>
    <line class="cls-2" x1="110.53" y1="207.43" x2="116.21" y2="201.19"/>
    <line class="cls-2" x1="376.8" y1="410.48" x2="376.8" y2="434.83"/>
    <line class="cls-2" x1="376.8" y1="434.83" x2="393.04" y2="434.83"/>
    <line class="cls-2" x1="393.04" y1="434.83" x2="393.04" y2="410.48"/>
    <line class="cls-2" x1="393.04" y1="410.48" x2="376.8" y2="410.48"/>
  </g>
  <g id="Make2D::可见线::正切线">
    <line class="cls-2" x1="371.81" y1="232.65" x2="371.81" y2="234.28"/>
    <line class="cls-2" x1="370.95" y1="240.77" x2="370.95" y2="242.4"/>
    <line class="cls-2" x1="371.81" y1="240.77" x2="371.81" y2="242.4"/>
    <line class="cls-2" x1="370.95" y1="248.89" x2="370.95" y2="250.51"/>
    <line class="cls-2" x1="371.81" y1="248.89" x2="371.81" y2="250.51"/>
    <line class="cls-2" x1="513.85" y1="246.97" x2="515.07" y2="246.97"/>
    <line class="cls-2" x1="513.85" y1="248.39" x2="515.07" y2="248.39"/>
    <line class="cls-2" x1="505.73" y1="248.39" x2="506.95" y2="248.39"/>
    <line class="cls-2" x1="505.73" y1="246.97" x2="506.95" y2="246.97"/>
    <line class="cls-2" x1="525.42" y1="233.57" x2="525.42" y2="216.36"/>
    <path class="cls-2" d="M525.42,216.36h1.21s0,0,0,0"/>
    <line class="cls-2" x1="479.15" y1="233.57" x2="479.15" y2="216.36"/>
    <line class="cls-2" x1="479.15" y1="216.36" x2="525.42" y2="216.36"/>
    <path class="cls-2" d="M525.42,215.14c.01.1,0,.2,0,.3v.91"/>
    <line class="cls-2" x1="344.44" y1="53.77" x2="259.21" y2="53.77"/>
    <line class="cls-2" x1="259.21" y1="53.39" x2="344.44" y2="53.39"/>
    <line class="cls-2" x1="259.21" y1="23.29" x2="344.44" y2="23.29"/>
    <line class="cls-2" x1="344.44" y1="23.67" x2="259.21" y2="23.67"/>
    <line class="cls-2" x1="269.15" y1="477.32" x2="267.53" y2="477.32"/>
    <line class="cls-2" x1="309.74" y1="477.32" x2="308.12" y2="477.32"/>
    <line class="cls-2" x1="301.62" y1="477.32" x2="300" y2="477.32"/>
    <line class="cls-2" x1="293.51" y1="477.32" x2="291.88" y2="477.32"/>
    <line class="cls-2" x1="285.39" y1="477.32" x2="283.77" y2="477.32"/>
    <line class="cls-2" x1="285.39" y1="474.77" x2="283.77" y2="474.77"/>
    <line class="cls-2" x1="293.51" y1="474.77" x2="291.88" y2="474.77"/>
    <line class="cls-2" x1="301.62" y1="474.77" x2="300" y2="474.77"/>
    <line class="cls-2" x1="309.74" y1="474.77" x2="308.12" y2="474.77"/>
    <line class="cls-2" x1="269.15" y1="474.77" x2="267.53" y2="474.77"/>
    <line class="cls-2" x1="277.27" y1="474.77" x2="275.65" y2="474.77"/>
    <line class="cls-2" x1="277.27" y1="477.32" x2="275.65" y2="477.32"/>
    <line class="cls-2" x1="370.95" y1="232.65" x2="370.95" y2="234.28"/>
  </g>
  <g id="_图层_3" data-name="图层 3">
    <path class="cls-1" d="M154.5,86.52h-4.94v-18.62c-1.8,1.69-3.93,2.94-6.38,3.74v-4.48c1.29-.42,2.69-1.22,4.2-2.4s2.55-2.55,3.11-4.12h4.01v25.88Z"/>
    <path class="cls-1" d="M128.74,110.09v4.59h-17.31c.19-1.73.75-3.38,1.69-4.93s2.79-3.61,5.55-6.18c2.23-2.07,3.59-3.48,4.1-4.22.68-1.02,1.02-2.03,1.02-3.02,0-1.1-.3-1.95-.89-2.54s-1.41-.89-2.45-.89-1.85.31-2.46.93-.96,1.65-1.05,3.09l-4.92-.49c.29-2.72,1.21-4.67,2.76-5.85s3.48-1.78,5.8-1.78c2.54,0,4.54.69,5.99,2.06s2.18,3.08,2.18,5.12c0,1.16-.21,2.26-.62,3.31s-1.08,2.15-1.98,3.3c-.6.76-1.68,1.86-3.23,3.29s-2.55,2.38-2.96,2.85-.75.93-1.01,1.37h9.81Z"/>
    <path class="cls-1" d="M461.03,157.61l4.78-.58c.15,1.22.56,2.15,1.23,2.79s1.48.97,2.43.97c1.02,0,1.88-.39,2.58-1.16s1.05-1.82,1.05-3.13c0-1.24-.33-2.23-1-2.95s-1.48-1.09-2.44-1.09c-.63,0-1.39.12-2.27.37l.54-4.03c1.34.04,2.36-.25,3.06-.87s1.05-1.43,1.05-2.45c0-.87-.26-1.56-.77-2.07s-1.2-.77-2.06-.77-1.56.29-2.16.88-.96,1.44-1.09,2.57l-4.55-.77c.32-1.56.79-2.8,1.43-3.74s1.53-1.66,2.67-2.2,2.42-.8,3.84-.8c2.43,0,4.37.77,5.84,2.32,1.21,1.27,1.81,2.7,1.81,4.29,0,2.26-1.24,4.07-3.71,5.41,1.48.32,2.66,1.03,3.54,2.13s1.33,2.43,1.33,3.99c0,2.26-.83,4.19-2.48,5.78s-3.71,2.39-6.17,2.39c-2.33,0-4.27-.67-5.8-2.01s-2.43-3.1-2.67-5.26Z"/>
    <path class="cls-1" d="M486.56,201.97v-5.19h-10.55v-4.32l11.18-16.37h4.15v16.35h3.2v4.34h-3.2v5.19h-4.78ZM486.56,192.44v-8.81l-5.92,8.81h5.92Z"/>
    <path class="cls-1" d="M131.93,197.96l4.92-.51c.14,1.11.56,2,1.25,2.65s1.49.98,2.39.98c1.03,0,1.9-.42,2.62-1.26s1.07-2.1,1.07-3.79c0-1.58-.35-2.77-1.06-3.56s-1.63-1.19-2.77-1.19c-1.42,0-2.69.63-3.81,1.88l-4.01-.58,2.53-13.41h13.06v4.62h-9.32l-.77,4.38c1.1-.55,2.23-.83,3.38-.83,2.19,0,4.05.8,5.57,2.39s2.29,3.66,2.29,6.21c0,2.12-.62,4.01-1.85,5.68-1.68,2.27-4,3.41-6.98,3.41-2.38,0-4.32-.64-5.82-1.92s-2.4-2.99-2.69-5.15Z"/>
    <path class="cls-1" d="M196.8,228.22l-4.78.53c-.12-.98-.42-1.71-.91-2.18s-1.13-.7-1.92-.7c-1.04,0-1.92.47-2.65,1.41s-1.17,2.89-1.36,5.85c1.23-1.45,2.76-2.18,4.59-2.18,2.06,0,3.83.79,5.3,2.36s2.21,3.6,2.21,6.08c0,2.64-.77,4.75-2.32,6.35s-3.53,2.39-5.96,2.39c-2.6,0-4.74-1.01-6.42-3.03s-2.51-5.33-2.51-9.94.87-8.13,2.62-10.21,4.01-3.13,6.8-3.13c1.96,0,3.58.55,4.86,1.64s2.1,2.69,2.45,4.77ZM185.6,238.99c0,1.61.37,2.84,1.11,3.72s1.58,1.31,2.53,1.31,1.68-.36,2.29-1.07.91-1.89.91-3.52-.33-2.9-.98-3.68-1.48-1.17-2.46-1.17-1.75.37-2.41,1.12-.98,1.84-.98,3.3Z"/>
    <path class="cls-1" d="M281.08,489.41v-4.59h16.89v3.59c-1.39,1.37-2.81,3.34-4.25,5.91s-2.54,5.29-3.3,8.18-1.13,5.47-1.12,7.74h-4.76c.08-3.56.82-7.2,2.21-10.9s3.24-7.01,5.56-9.93h-11.23Z"/>
  </g>
</svg>