<?xml version="1.0" encoding="UTF-8"?>
<svg xmlns="http://www.w3.org/2000/svg" viewBox="0 0 571.34 479.44">
  <defs>
    <style>
      .cls-1, .cls-2 {
        stroke: red;
        stroke-miterlimit: 10;
        stroke-width: 4px;
      }

      .cls-1, .cls-2, .cls-3 {
        fill: none;
      }

      .cls-4 {
        fill: red;
      }

      .cls-4, .cls-5 {
        stroke-width: 0px;
      }

      .cls-2 {
        stroke-dasharray: 0 0 13.87 13.87;
      }

      .cls-3 {
        stroke: #000;
        stroke-linecap: round;
        stroke-linejoin: round;
      }

      .cls-5 {
        fill: #bfbfbf;
      }
    </style>
  </defs>
  <g id="_图层_3" data-name="图层 3">
    <path class="cls-5" d="M286.47,324.12l1.11,1.11,2.34.68,2.58.19,2.67-.92,1.17-1.01.02-1.06-.06-2.28-1.43-1.07-.92-.59-.66-29.23s-.49-.61-.51-.69-1.61-.47-1.61-.47l-1.96.2-1.05.62-.15.41.63,29.31-1.6.77-.61.79.04,3.23Z"/>
  </g>
  <g id="Make2D::可见线::曲线">
    <path class="cls-3" d="M371.58,100.32c12.4,4.15,24.87,8.09,37.41,11.81"/>
    <path class="cls-3" d="M435.49,124.18c-.2-5.7-.33-11.41-.36-17.12,0-1.45-.01-2.91,0-4.36,0-1.4.01-2.8.03-4.2.04-2.85.1-5.7.2-8.55.2-5.5.56-11.6,1.23-17.07.19-1.54.41-3.08.68-4.62.22-1.28.48-2.55.79-3.81.24-.99.52-1.96.86-2.92.27-.75.57-1.47.95-2.17.28-.51.62-1.03,1.05-1.44.33-.32.71-.59,1.16-.71"/>
    <path class="cls-3" d="M467.22,303.15c-.41.12-.82.11-1.23-.02-.47-.14-.89-.42-1.26-.73-.48-.41-.91-.91-1.28-1.41-.49-.66-.92-1.36-1.32-2.09-.5-.9-.94-1.82-1.36-2.75-.5-1.12-.97-2.27-1.4-3.42-1.09-2.87-2.03-5.84-2.89-8.78-.99-3.38-1.87-6.79-2.7-10.22-.47-1.95-.92-3.9-1.36-5.85-.47-2.11-.92-4.22-1.36-6.33-3.03-14.65-5.58-30.68-7.58-45.5-.25-1.86-.5-3.73-.74-5.59-.24-1.9-.48-3.79-.72-5.69-.24-1.92-.47-3.85-.69-5.77-.23-1.94-.45-3.89-.66-5.84-.42-3.81-.82-7.62-1.2-11.43-.38-3.84-.74-7.68-1.08-11.52-.17-1.93-.33-3.86-.49-5.79-.16-1.92-.31-3.85-.45-5.77-.15-1.91-.28-3.83-.42-5.74-.13-1.89-.26-3.79-.38-5.68-.13-1.97-.24-3.94-.35-5.92-.11-1.94-.21-3.88-.31-5.82-.09-1.9-.18-3.81-.26-5.71-.08-1.86-.15-3.72-.21-5.58"/>
    <path class="cls-3" d="M476.26,53.25s0,0,0,0c0,0,0,0,0,0,.01,0,.02.01.03.02.04.02.07.03.11.04.11.04.21.08.32.11.16.05.32.1.49.14.32.09.65.18.98.26.65.17,1.31.34,1.96.52"/>
    <path class="cls-3" d="M203.26,216.22h0"/>
    <path class="cls-3" d="M295.57,249.33c-.02-.64-.38-1.25-.79-1.71"/>
    <path class="cls-3" d="M505,98.76s0,0,0,0c0,0,0,0,0,0,0,0,0,0,0,.01,0,.01,0,.02-.02.04-.01.04-.03.07-.04.11-.04.1-.08.21-.12.31-.1.28-.2.57-.29.86-.26.81-.49,1.62-.69,2.44-.32,1.28-.58,2.57-.81,3.88-.45,2.61-.75,5.22-.94,7.86-.39,5.2-.38,10.63-.14,15.83"/>
    <path class="cls-3" d="M245.23,259.53c.33.17.66.34.98.51"/>
    <path class="cls-3" d="M501.93,130.1c.09,2,.22,4,.39,6,.17,2.07.37,4.14.61,6.2.23,2.01.49,4.02.78,6.02.29,2.04.62,4.07.97,6.1,1.39,7.99,3.24,16.07,5.5,23.87,2.24,7.73,5.03,15.69,8.34,23.05,1.66,3.71,3.52,7.41,5.59,10.91,1.27,2.14,2.61,4.22,4.12,6.2.6.79,1.21,1.55,1.87,2.29.25.29.51.57.78.85.11.11.22.22.33.34.04.04.08.08.13.13.01.01.03.02.04.04h.01s0,.02,0,.01"/>
    <line class="cls-3" x1="295.58" y1="249.33" x2="295.58" y2="249.33"/>
    <line class="cls-3" x1="213.55" y1="376.49" x2="214.85" y2="375.98"/>
    <path class="cls-3" d="M213.96,374.89c-.31-.25-.63-.49-.97-.71"/>
    <path class="cls-3" d="M213.51,376.45c.21.2.41.39.62.59"/>
    <line class="cls-3" x1="213.73" y1="376.12" x2="213.55" y2="376.49"/>
    <line class="cls-3" x1="-139.04" y1="408.87" x2="48.18" y2="477.36"/>
    <path class="cls-3" d="M291.81,325.27s-.05-.03-.05-.06"/>
    <path class="cls-3" d="M291.47,325.61c.31-.04.61-.09.92-.17"/>
    <line class="cls-3" x1="74.61" y1="508.77" x2="-147.07" y2="429.7"/>
    <path class="cls-3" d="M290.21,325.35c.17,0,.52,0,.68.08"/>
    <path class="cls-3" d="M288.57,324.99c.14.13.28.24.44.33"/>
    <path class="cls-3" d="M181.2,223.58c1.74,14.91,5.27,29.87,10.24,44.04,4.96,14.15,11.56,28.12,19.73,40.76,8,12.39,18.25,24.64,30.38,33.49,3.22,2.35,6.56,4.46,10.12,6.29,3.23,1.66,6.6,3.06,10.08,4.1,3.82,1.14,7.75,1.84,11.75,1.95,3.65.1,7.27-.29,10.8-1.22"/>
    <path class="cls-3" d="M290.21,325.35c-.4.02-.8.01-1.2-.03"/>
    <path class="cls-3" d="M289.52,289.27c-.29.05-.58.13-.85.25-.21.1-.58.31-.58.61"/>
    <line class="cls-3" x1="291.76" y1="325.21" x2="291.75" y2="324.64"/>
    <path class="cls-3" d="M290.05,324.87c0,.06-.07.1-.11.12-.06.02-.11.03-.17.03"/>
    <path class="cls-3" d="M287.02,324.76c-.34-.17-.88-.51-.88-.99"/>
    <line class="cls-3" x1="286.14" y1="323.77" x2="286.12" y2="321.35"/>
    <line class="cls-3" x1="295.63" y1="321.29" x2="295.65" y2="323.71"/>
    <path class="cls-3" d="M295.65,323.71c0,.48-.53.82-.86,1"/>
    <path class="cls-3" d="M293.16,290.1c0-.33-.45-.55-.69-.64-.31-.12-.63-.19-.97-.23-.64-.08-1.35-.07-1.98.05"/>
    <line class="cls-3" x1="203.67" y1="216.72" x2="181.2" y2="223.58"/>
    <line class="cls-3" x1="284.05" y1="353.06" x2="277.61" y2="354.76"/>
    <line class="cls-3" x1="291.47" y1="325.61" x2="291.26" y2="324.73"/>
    <path class="cls-3" d="M293.24,324.55c-.15-.1-.3-.21-.44-.33"/>
    <path class="cls-3" d="M293.24,324.55c-.39.18-.78.34-1.19.47"/>
    <path class="cls-3" d="M291.81,325.27c.18.09.37.15.58.18"/>
    <path class="cls-3" d="M291.47,325.61c-.21-.03-.39-.09-.58-.18"/>
    <path class="cls-3" d="M290,324.78c-.21-.21-.4-.44-.58-.68"/>
    <path class="cls-3" d="M288.82,322.21c1.18-.21,2.52-.24,3.71-.09.6.08,1.24.21,1.81.42.29.11.57.24.82.42.14.11.27.22.36.37.08.12.12.24.12.38"/>
    <path class="cls-3" d="M27.33,410.32c1.46-1.19,2.98-2.27,4.58-3.28,1.84-1.16,3.74-2.21,5.68-3.19,2.22-1.11,4.48-2.12,6.78-3.04,2.58-1.04,5.19-1.98,7.84-2.84,4.21-1.38,8.47-2.55,12.78-3.58,4.77-1.14,9.56-2.11,14.39-2.94,9.15-1.57,18.52-2.65,27.78-3.33,4.68-.35,9.36-.59,14.04-.74,4.64-.15,9.28-.21,13.92-.18,18.36.11,37.62,1.63,55.71,4.85,4.81.85,9.58,1.84,14.32,2.98,4.33,1.04,8.62,2.22,12.86,3.56,4.91,1.56,9.82,3.37,14.5,5.51,2,.92,3.97,1.89,5.89,2.96,1.7.94,3.35,1.94,4.96,3.03"/>
    <path class="cls-3" d="M291.76,325.21c0-.05.09-.1.12-.12.05-.03.11-.05.17-.06"/>
    <path class="cls-3" d="M294.79,324.71c-2.43,1.26-5.32,1.28-7.77.05"/>
    <path class="cls-3" d="M286.14,323.77c0-.29.19-.52.39-.69.21-.18.45-.31.71-.42.49-.22,1.06-.36,1.58-.46"/>
    <path class="cls-3" d="M27.03,410.56c-3.95,3.24-7.9,7.82-8.12,13.45"/>
    <path class="cls-3" d="M254.48,4.91c13.57,8.45,28.58,13.94,44.07,17.47"/>
    <line class="cls-3" x1="247" y1=".25" x2="254.48" y2="4.91"/>
    <path class="cls-3" d="M255.57,427.32c0-5.6-3.74-10.27-7.57-13.62"/>
    <path class="cls-3" d="M27.24,241.18c.15-2.25.43-4.47.85-6.68.43-2.31.99-4.58,1.67-6.83.65-2.16,1.4-4.27,2.24-6.37.88-2.18,1.84-4.31,2.89-6.41,1.01-2.02,2.09-4,3.24-5.95,1.19-2.02,2.44-3.99,3.76-5.93,1.28-1.88,2.6-3.72,3.98-5.52,1.42-1.86,2.89-3.67,4.41-5.46,1.48-1.74,2.99-3.43,4.55-5.1,1.59-1.7,3.23-3.37,4.9-5,1.64-1.6,3.3-3.16,5-4.69,1.73-1.56,3.5-3.08,5.29-4.57,1.77-1.46,3.56-2.89,5.38-4.29,1.84-1.42,3.72-2.8,5.61-4.15,1.87-1.33,3.77-2.63,5.68-3.89,1.94-1.28,3.9-2.53,5.88-3.74"/>
    <line class="cls-3" x1="372.47" y1="39.07" x2="374.33" y2="40.27"/>
    <path class="cls-3" d="M372.47,39.07c-10.4-6.68-22.18-10.31-34.48-11.13"/>
    <path class="cls-3" d="M298.56,22.38c5.12,1.17,10.27,2.12,15.46,2.9"/>
    <path class="cls-3" d="M379.68,43.7c-.87-.56-1.75-1.09-2.64-1.61"/>
    <path class="cls-3" d="M202.97,215.89c-3.28-4.05-6.69-7.99-10.27-11.79"/>
    <path class="cls-3" d="M249.16,261.44c.9.51,1.81.99,2.73,1.45"/>
    <path class="cls-3" d="M219.89,230.53s0,0,0,0"/>
    <path class="cls-3" d="M214,226.59c.04.07.07.14.11.22"/>
    <path class="cls-3" d="M19.32,457.83c.82-1.86,1.56-3.74,2.2-5.67.64-1.93,1.17-3.87,1.6-5.86.43-1.98.75-3.98.98-5.99.23-2.01.37-4.03.45-6.05"/>
    <path class="cls-3" d="M15.81,465.52c1.17-2.56,2.37-5.11,3.5-7.69"/>
    <path class="cls-3" d="M254.75,436.41c0,2.72.1,5.42.34,8.13.12,1.35.26,2.7.45,4.05s.41,2.68.68,4.01c.54,2.67,1.24,5.28,2.11,7.86.44,1.29.91,2.56,1.43,3.82.51,1.26,1.06,2.5,1.62,3.74"/>
    <line class="cls-3" x1="18.92" y1="423.72" x2="20.48" y2="383.51"/>
    <path class="cls-3" d="M255.59,435.55c0-1.47-.27-2.89-.75-4.27"/>
    <line class="cls-3" x1="211.99" y1="371.31" x2="212.72" y2="371"/>
    <path class="cls-3" d="M199.07,477.55c-.1.29-.19.58-.28.87"/>
    <path class="cls-3" d="M243.64,410.05c2.92,1.99,5.82,4.39,8.05,7.16,2.23,2.79,3.88,6.11,3.89,9.82"/>
    <line class="cls-3" x1="243.64" y1="410.05" x2="243.36" y2="410.09"/>
    <path class="cls-3" d="M255.05,404.73c.03.53.07,1.07.12,1.6.02.27.05.53.08.8.02.13.03.27.05.4.01.09.03.19.04.28,0,.03,0,.06.02.08,0,0,0,.02,0,.02,0,0,0,0,0,0,0,0,0,0,0,0"/>
    <path class="cls-3" d="M255.37,407.91s0,0,0,0c0,0,0,0,0,0,0,0,0,0,0,0,0,0,0-.01,0-.02,0-.01,0-.02-.01-.03"/>
    <path class="cls-3" d="M230.23,411.62c-7.89-3.33-16.59-5.93-24.9-7.92-8.43-2.02-17.15-3.57-25.74-4.74"/>
    <path class="cls-3" d="M255.07,398.17s.03-.05.04-.07"/>
    <line class="cls-3" x1="371.02" y1="100.5" x2="371.58" y2="100.32"/>
    <path class="cls-3" d="M373.46,39.73c.29.18.58.36.87.55"/>
    <path class="cls-3" d="M328.57,29.25h0"/>
    <line class="cls-3" x1="408.99" y1="112.13" x2="410.87" y2="113.29"/>
    <path class="cls-3" d="M314.45,25.37c.86.13,1.72.28,2.57.44"/>
    <path class="cls-3" d="M416.24,115.29l-.04.02"/>
    <path class="cls-3" d="M419.25,116.95c-.94-.53-1.86-1.08-2.78-1.65"/>
    <path class="cls-3" d="M419.25,116.95c.02.49.05.99.07,1.48"/>
    <path class="cls-3" d="M419.32,118.43c.02.49.04.99.05,1.49"/>
    <path class="cls-3" d="M416.34,118.26c.06-.01.17-.02.23.02"/>
    <path class="cls-3" d="M416.47,115.3c-.06-.04-.17-.03-.23,0"/>
    <path class="cls-3" d="M419.25,116.95c-.87.23-1.52,1.23-1.4,2.1"/>
    <path class="cls-3" d="M24.35,421.02c-3,2.96-5.58,6.76-5.76,11.24"/>
    <path class="cls-3" d="M239.35,284.47c4.09,7.84,8.78,15.51,14.04,22.65,1.34,1.82,2.72,3.61,4.14,5.36,1.38,1.7,2.8,3.37,4.26,5.01,2.97,3.33,6.09,6.48,9.44,9.45,3.32,2.95,6.87,5.71,10.6,8.15,3.72,2.43,7.7,4.57,11.85,6.22,8.31,3.3,17.4,4.61,26.3,2.26"/>
    <path class="cls-3" d="M435.5,124.19c.05,1.55.11,3.11.17,4.66.06,1.58.13,3.16.21,4.74.08,1.6.16,3.21.24,4.81.09,1.63.18,3.26.27,4.9.19,3.16.39,6.33.61,9.49.11,1.6.23,3.2.35,4.79.12,1.6.24,3.2.37,4.8.51,6.36,1.08,12.71,1.7,19.06.32,3.19.65,6.39.99,9.58.34,3.15.7,6.3,1.07,9.45.19,1.61.39,3.23.59,4.85.2,1.59.4,3.19.6,4.78.4,3.12.82,6.24,1.25,9.36.45,3.23.92,6.45,1.4,9.67.47,3.08.95,6.17,1.46,9.25.27,1.65.55,3.31.83,4.96.27,1.6.55,3.19.84,4.79.55,3.03,1.11,6.06,1.71,9.09,1.23,6.25,2.58,12.51,4.13,18.69"/>
    <path class="cls-3" d="M255.11,398.1s0,0,0,0c0,0,0,0,0,.01,0,.02,0,.04-.01.05-.01.06-.02.12-.03.18-.03.19-.05.38-.06.57-.02.28-.04.55-.05.83-.02.55-.03,1.11-.02,1.66,0,1.11.05,2.21.12,3.32"/>
    <path class="cls-3" d="M466.92,303.24c-12.18,3.6-24.38,7.12-36.6,10.56-6.11,1.72-12.23,3.43-18.35,5.12-6.12,1.69-12.24,3.37-18.37,5.04-24.51,6.67-49.07,13.14-73.63,19.62"/>
    <line class="cls-3" x1="328.91" y1="29.39" x2="328.91" y2="29.39"/>
    <path class="cls-3" d="M335.32,32.47s0,0,0,0"/>
    <path class="cls-3" d="M416.29,118.26s.03,0,.04,0"/>
    <path class="cls-3" d="M222.98,242.47c.49,1.81,1.01,3.62,1.55,5.42.54,1.8,1.11,3.6,1.7,5.38,1.18,3.58,2.45,7.12,3.81,10.63,2.73,7.03,5.82,13.87,9.31,20.57"/>
    <path class="cls-3" d="M220.11,230.66c.02.08.03.15.05.22"/>
    <path class="cls-3" d="M220.28,230.96c-.05-.09-.1-.19-.15-.28"/>
    <path class="cls-3" d="M211.9,371.6c-.61.7-.82,1.69-.8,2.57.02.91.27,1.83.68,2.65.4.81,1,1.58,1.74,2.12.69.51,1.69.93,2.6.6"/>
    <path class="cls-3" d="M20.48,383.51c.07-1.85.52-3.63,1.27-5.33.88-1.99,2.12-3.79,3.55-5.41,1.76-2,3.83-3.76,5.98-5.32,2.64-1.91,5.51-3.58,8.42-5.05,4.12-2.08,8.48-3.84,12.84-5.36,5.08-1.76,10.23-3.21,15.45-4.46,19-4.54,40.08-6.6,59.53-6.94,19.68-.35,40.4.98,59.83,4.28,5.17.88,10.31,1.9,15.41,3.11,4.64,1.1,9.24,2.34,13.78,3.79,5.3,1.68,10.59,3.65,15.63,6.01,2.13,1,4.22,2.06,6.26,3.23,1.79,1.02,3.52,2.11,5.2,3.3"/>
    <path class="cls-3" d="M317.03,25.81c11.5,2.28,21.87,7.52,30.42,15.5,2.03,1.9,3.92,3.9,5.69,6.04,1.81,2.18,3.45,4.46,4.97,6.84,1.56,2.45,2.96,4.98,4.23,7.6,1.31,2.71,2.44,5.47,3.44,8.31,3.8,10.84,5.37,22.37,5.26,33.77-.03,2.81-.16,5.62-.38,8.42-.23,2.84-.55,5.66-.97,8.48-.85,5.75-2.07,11.39-3.64,17-6.14,21.93-17.59,42.82-32.67,59.96-3.86,4.39-7.94,8.52-12.31,12.42-2.13,1.91-4.32,3.74-6.57,5.51-2.22,1.74-4.48,3.41-6.81,5.01-9.46,6.5-19.92,11.78-31.01,15.05"/>
    <path class="cls-3" d="M179.59,398.96c-19.92-2.71-41.03-3.59-61.1-2.8"/>
    <path class="cls-3" d="M50.08,470.94c.35-.08.73-.08,1.07.05"/>
    <line class="cls-3" x1="374.47" y1="40.36" x2="379.68" y2="43.7"/>
    <path class="cls-3" d="M91.75,473.98c.11,0,.2.02.3.06"/>
    <path class="cls-3" d="M206.11,478.85c.12-.03.24-.04.36-.03"/>
    <path class="cls-3" d="M276.67,235.72c-6.25,1.84-12.69,3.04-19.21,3.41-3.27.19-6.51.17-9.77-.08-3.26-.24-6.47-.71-9.66-1.42-12.98-2.89-24.3-9.55-33.09-19.43"/>
    <line class="cls-3" x1="251.89" y1="262.9" x2="246.37" y2="260.11"/>
    <path class="cls-3" d="M311.27,267c5.45-1.55,10.69-3.51,15.84-5.85,5.6-2.55,10.93-5.49,16.1-8.8,9.88-6.34,18.96-13.95,27.06-22.39,16.16-16.83,28.86-37.35,36.8-59.18,3.98-10.94,6.82-22.37,8.23-33.93,1.41-11.55,1.41-23.37-.41-34.9-1.82-11.5-5.45-22.77-11.34-32.93-3.04-5.25-6.66-10.15-10.86-14.56-3.9-4.09-8.24-7.7-13.01-10.76"/>
    <path class="cls-3" d="M410.87,113.29c-.42-14.05-3.24-28.23-9.25-41.11-6.02-12.9-15.1-24.09-27.29-31.91"/>
    <path class="cls-3" d="M192.7,204.11c-10.83-11.5-23.14-21.61-37.31-29.01"/>
    <line class="cls-3" x1="155.39" y1="175.1" x2=".16" y2="94.06"/>
    <path class="cls-3" d="M232.15,416.78c-.62-.28-1.25-.55-1.88-.81"/>
    <path class="cls-3" d="M298.56,22.38c10.64,2.43,20.11,7.61,27.82,15.28,3.68,3.66,6.84,7.77,9.49,12.21,2.83,4.73,5.07,9.79,6.76,15.03,3.28,10.15,4.53,20.92,4.26,31.51-.27,10.62-2.08,21.25-5.04,31.44-5.91,20.34-16.65,39.7-30.71,55.62-7.06,7.99-15.07,15.26-23.89,21.33-4.62,3.18-9.47,6.05-14.53,8.5-4.59,2.23-9.35,4.12-14.24,5.59"/>
    <path class="cls-3" d="M258.48,218.9c-11.33,3.41-23.43,4.55-35.2,2.17-11.86-2.4-22.32-8.19-30.58-16.96"/>
    <path class="cls-3" d="M290.34,323.93c.18.24.37.47.58.68"/>
    <path class="cls-3" d="M290.34,323.93c-.3.07-.61.12-.92.17"/>
    <path class="cls-3" d="M246.22,260.03c9.71,4.9,20.26,7.39,31.09,7.74,10.82.35,21.57-1.43,31.81-4.73,10.25-3.3,19.99-8.13,28.99-13.96,4.49-2.91,8.78-6.06,12.92-9.45,2.07-1.69,4.08-3.44,6.06-5.24,2.02-1.84,3.98-3.73,5.9-5.67,15.03-15.19,27.18-33.51,35.48-53.09,8.26-19.48,13.05-41.04,12.41-62.34"/>
    <polyline class="cls-3" points="217.27 235.07 216.22 233.54 215.14 231.98 214.04 230.42 212.92 228.85 211.77 227.27 210.6 225.68 209.41 224.09 208.19 222.49 206.96 220.88 205.7 219.27 204.41 217.65 203.26 216.22"/>
    <path class="cls-3" d="M480.15,54.35c2.87.77,5.28,1.53,8.09,2.5,1.34.46,2.66.94,4,1.4.67.23,1.34.45,2.02.64.44.12.87.24,1.32.3.16.02.31.04.47.04.1,0,.19,0,.28-.03"/>
    <path class="cls-3" d="M486.66,230.75c-.76.83-1.55,1.8-2.12,2.77-.29.48-.57,1.04-.71,1.59-.15.54-.2,1.17.15,1.68.64.94,2.32,1.03,3.23,1.02,1.15-.02,2.37-.23,3.47-.52"/>
    <line class="cls-3" x1="496.35" y1="59.2" x2="496.11" y2="59.27"/>
    <path class="cls-3" d="M530.77,211.47c.58-.11.94-.68,1.14-1.14.22-.5.36-1.07.45-1.6.18-1.07.2-2.25.15-3.33"/>
    <path class="cls-3" d="M442.07,57.21c2.06-.58,4.13-1.14,6.21-1.66,2.2-.54,4.41-1.04,6.64-1.45,4.64-.87,9.29-1.42,14.01-1.63,2.33-.1,4.66-.12,7-.05,2.32.07,4.62.23,6.93.48,4.43.49,8.84,1.33,13.11,2.61,4.69,1.4,9.13,3.32,13.31,5.86,3.66,2.22,6.94,4.81,10.01,7.77,1.57,1.52,3.06,3.11,4.49,4.77,1.44,1.68,2.81,3.42,4.12,5.21,1.35,1.85,2.63,3.74,3.85,5.67,1.27,2.01,2.48,4.05,3.63,6.12,8.54,15.33,14.98,33.66,19.37,50.5,2.27,8.71,4.15,17.62,5.59,26.5.37,2.27.71,4.55,1.02,6.83.31,2.26.59,4.51.84,6.78.49,4.42.87,8.85,1.13,13.3"/>
    <path class="cls-3" d="M476.3,53.3s-.01-.02-.02-.03h-.01s0-.01,0-.02c0,0,0,0,0,0,0,0,0,0,0,0"/>
    <path class="cls-3" d="M497.74,223c-2.09.63-4.27,1.97-5.99,3.23-1.78,1.3-3.61,2.9-5.09,4.52"/>
    <path class="cls-3" d="M529.31,210.72c.38.38.98.85,1.61.73"/>
    <line class="cls-3" x1="529.79" y1="182.82" x2="529.36" y2="174.43"/>
    <path class="cls-3" d="M91.68,473.98c-.33.03-.72.24-.98.41-.3.2-.58.42-.84.67"/>
    <line class="cls-3" x1="531.76" y1="187.23" x2="523.95" y2="173.58"/>
    <line class="cls-3" x1="524.74" y1="154.28" x2="520.26" y2="149.78"/>
    <line class="cls-3" x1="525.03" y1="148.58" x2="519.48" y2="133.43"/>
    <line class="cls-3" x1="524.91" y1="127.54" x2="521.32" y2="121.16"/>
    <path class="cls-3" d="M435.45,122.68c-.34-10.45-.46-21.74-.11-32.2.18-5.22.5-10.87,1.08-16.07.29-2.65.66-5.34,1.2-7.96.31-1.53.69-3.11,1.2-4.59.2-.58.42-1.14.67-1.7.21-.45.44-.88.71-1.29"/>
    <path class="cls-3" d="M465.06,302.59c-.59-.4-1.1-.97-1.53-1.53-.61-.79-1.14-1.68-1.61-2.55-.63-1.17-1.17-2.37-1.69-3.58-.64-1.51-1.21-3.04-1.74-4.59-.71-2.04-1.35-4.09-1.96-6.16-.71-2.42-1.37-4.86-1.99-7.31-2.25-8.81-4.22-18.5-5.85-27.44-.41-2.25-.8-4.49-1.19-6.74-.4-2.36-.79-4.73-1.17-7.1-.36-2.28-.72-4.55-1.06-6.83-.35-2.34-.7-4.69-1.03-7.04-.33-2.29-.64-4.58-.95-6.87-.31-2.35-.62-4.7-.92-7.05-.29-2.3-.57-4.61-.85-6.91-.28-2.34-.55-4.68-.81-7.02"/>
    <path class="cls-3" d="M211.74,371.82c.73-.6,1.66-.62,2.5-.28.81.34,1.49.99,1.96,1.7.48.72.81,1.57.94,2.43.12.84.06,1.77-.33,2.56"/>
    <path class="cls-3" d="M207.09,468.3c-.13.07-.26.14-.39.21"/>
    <path class="cls-3" d="M96.65,473.59s-.02.06-.03.09"/>
    <path class="cls-3" d="M216.8,378.22c-.37.74-1.01,1.29-1.87,1.39"/>
    <path class="cls-3" d="M214.76,374.18c.11-.26.2-.53.27-.81"/>
    <path class="cls-3" d="M213.51,376.45c.21-.3.41-.61.59-.93"/>
    <path class="cls-3" d="M215.84,376.9c-.2-.29-.41-.57-.64-.83"/>
    <path class="cls-3" d="M215.53,375.4c.23.27.45.54.64.83"/>
    <path class="cls-3" d="M215.65,373.97c-.07.28-.16.54-.27.81"/>
    <line class="cls-3" x1="215.65" y1="373.97" x2="214.14" y2="375.15"/>
    <path class="cls-3" d="M17.64,461.54c0-2.13,0-4.9.09-7.03"/>
    <path class="cls-3" d="M213.96,374.89c.18.14.26.42.14.63"/>
    <path class="cls-3" d="M214.72,376.11c.04-.06.08-.11.15-.14"/>
    <line class="cls-3" x1="215.25" y1="376.14" x2="216.17" y2="376.24"/>
    <path class="cls-3" d="M215.84,376.9c.12-.22.24-.44.33-.67"/>
    <path class="cls-3" d="M215.31,266.64c.41-.83.49-1.8.35-2.69-.14-.9-.51-1.79-1.04-2.53-.53-.74-1.25-1.38-2.1-1.75-.86-.37-1.82-.44-2.7-.04"/>
    <path class="cls-3" d="M214.05,267.98c.56-.3.99-.78,1.27-1.34"/>
    <path class="cls-3" d="M214.38,265.52c.68-.2,1.13-.75,1.31-1.41"/>
    <path class="cls-3" d="M214.94,267.07c.07-.02.13-.04.19-.06"/>
    <path class="cls-3" d="M206.59,478.83c.67.12,1.39.76,1.8,1.23"/>
    <line class="cls-3" x1="289.16" y1="325.03" x2="289.01" y2="325.32"/>
    <path class="cls-3" d="M19.49,428.02c-.04-.12-.07-.24-.11-.36"/>
    <path class="cls-3" d="M24.55,436.03s-.05-.05-.08-.08"/>
    <path class="cls-3" d="M204.93,218.21c-.43-.49-.85-.99-1.26-1.49"/>
    <path class="cls-3" d="M290,324.78s.05.05.05.1"/>
    <line class="cls-3" x1="290.05" y1="323.99" x2="290.05" y2="324.87"/>
    <line class="cls-3" x1="105.77" y1="149.19" x2="105.77" y2="149.19"/>
    <path class="cls-3" d="M255.57,427.03s0,.09,0,.14"/>
    <path class="cls-3" d="M206.47,478.82s.08,0,.12.02"/>
    <path class="cls-3" d="M92.98,156.43c-.13.08-.27.16-.4.25"/>
    <path class="cls-3" d="M232.51,359.53c-.23-.12-.52-.05-.73.05-.24.11-.43.26-.61.44-.35.35-.62.8-.82,1.25"/>
    <path class="cls-3" d="M232.81,360.42c0-.07.01-.14.01-.22"/>
    <path class="cls-3" d="M232.22,362.13c.23-.49.53-1.15.6-1.7"/>
    <path class="cls-3" d="M229.77,361.63s-.01.05-.01.07"/>
    <path class="cls-3" d="M230.35,361.28c-.16.04-.5.15-.58.35"/>
    <path class="cls-3" d="M229.76,361.7s0,.02,0,.03"/>
    <path class="cls-3" d="M20.51,382.78c.92-23.61,1.83-47.22,2.9-70.82.53-11.8,1.11-23.6,1.74-35.4.63-11.8,1.32-23.59,2.09-35.38"/>
    <path class="cls-3" d="M324.96,206.43s.02.05.02.08"/>
    <path class="cls-3" d="M330.5,201.01s-.1-.05-.15-.07"/>
    <path class="cls-3" d="M340.23,189.35l-.04-.08"/>
    <path class="cls-3" d="M224.49,335.03c6.98,6.7,15.17,12.82,24.19,16.71,9.05,3.91,19.07,5.62,28.93,3.02"/>
    <path class="cls-3" d="M146.4,345.1c7.17.26,14.31.75,21.45,1.47,7.14.73,14.23,1.69,21.29,2.93,1.79.32,3.57.65,5.35,1,1.73.35,3.47.71,5.19,1.09,3.5.78,6.97,1.63,10.43,2.59,6.81,1.88,13.79,4.22,20.25,7.09"/>
    <path class="cls-3" d="M243.36,410.09c1.52,1.03,2.98,2.14,4.36,3.35"/>
    <path class="cls-3" d="M284.05,353.06c-3.53.93-7.15,1.32-10.8,1.22-4-.11-7.93-.81-11.75-1.95-3.48-1.04-6.85-2.44-10.08-4.1-3.56-1.83-6.89-3.93-10.12-6.28-12.13-8.85-22.39-21.1-30.39-33.5-8.16-12.64-14.76-26.61-19.72-40.75-4.97-14.17-8.5-29.13-10.24-44.04"/>
    <line class="cls-3" x1="255.57" y1="427.32" x2="255.58" y2="434.83"/>
    <path class="cls-3" d="M255.58,434.83c0,.12,0,.24,0,.36"/>
    <line class="cls-3" x1="18.62" y1="431.55" x2="18.91" y2="424.01"/>
    <line class="cls-3" x1="247.72" y1="413.44" x2="248" y2="413.69"/>
    <line class="cls-3" x1="27.03" y1="410.56" x2="27.33" y2="410.32"/>
    <path class="cls-3" d="M174.34,225.93c-1.47-12.71-1.69-25.93-.07-38.66"/>
    <path class="cls-3" d="M312.75,217.01s-.02-.05-.02-.07"/>
    <path class="cls-3" d="M224.02,334.58c-7.3-7.01-13.75-15.12-19.28-23.52-5.56-8.45-10.38-17.49-14.45-26.73-8.09-18.35-13.64-38.49-15.95-58.4"/>
    <path class="cls-3" d="M174.47,225.64c2.33,20.04,7.92,40.32,16.06,58.8,4.1,9.3,8.96,18.41,14.55,26.91,5.56,8.46,12.06,16.63,19.4,23.68"/>
    <line class="cls-3" x1="224.49" y1="335.03" x2="224.02" y2="334.58"/>
    <path class="cls-3" d="M18.62,431.55c.07-1.82.54-3.55,1.3-5.19.91-1.95,2.21-3.7,3.68-5.26,1.84-1.96,3.99-3.67,6.21-5.17,2.75-1.86,5.73-3.48,8.73-4.9,4.18-1.98,8.59-3.64,12.99-5.07,5.13-1.67,10.31-3.04,15.57-4.22,9.71-2.18,19.81-3.72,29.71-4.76,9.95-1.04,20.05-1.62,30.05-1.78,19.73-.32,40.51.96,60.01,4.11,5.2.84,10.36,1.82,15.49,2.97,4.67,1.05,9.28,2.24,13.86,3.62,5.35,1.61,10.71,3.51,15.81,5.78,2.15.96,4.26,1.98,6.33,3.11,1.81.98,3.56,2.03,5.26,3.18"/>
    <line class="cls-3" x1="46.75" y1="472.34" x2="40.17" y2="473.83"/>
    <path class="cls-3" d="M40.17,473.83c-.3.07-.59.16-.88.28"/>
    <path class="cls-3" d="M254.85,439.1l-.07.2"/>
    <line class="cls-3" x1="49.27" y1="472.48" x2="52.08" y2="473.54"/>
    <path class="cls-3" d="M49.27,472.48c-.81-.3-1.68-.33-2.52-.14"/>
    <path class="cls-3" d="M243.64,410.33c-1.61-1.09-3.27-2.1-4.97-3.04-1.93-1.07-3.9-2.05-5.91-2.97-4.7-2.15-9.62-3.96-14.54-5.53-4.25-1.35-8.55-2.53-12.89-3.57-4.75-1.15-9.54-2.13-14.35-2.99-18.14-3.23-37.44-4.75-55.85-4.87-4.65-.03-9.31.03-13.96.18-4.7.15-9.4.4-14.09.74-9.28.68-18.68,1.77-27.85,3.34-4.85.83-9.66,1.8-14.44,2.94-4.32,1.04-8.59,2.21-12.82,3.59-2.65.87-5.27,1.81-7.86,2.85-2.31.93-4.57,1.94-6.8,3.05-1.95.98-3.85,2.03-5.7,3.2-1.6,1.01-3.13,2.09-4.59,3.29"/>
    <path class="cls-3" d="M46.32,476.12c-.74-.27-1.51-.36-2.29-.28"/>
    <path class="cls-3" d="M243.63,417.97c2.91,1.97,5.82,4.35,8.05,7.1,2.23,2.77,3.9,6.07,3.9,9.77"/>
    <path class="cls-3" d="M232.83,360.21c0-.25-.06-.54-.31-.67"/>
    <path class="cls-3" d="M212.58,260.55c-.1.03-.2.07-.3.11"/>
    <path class="cls-3" d="M92.97,156.37s0,.03,0,.03c0,.01,0,.02.01.03"/>
    <path class="cls-3" d="M92.57,156.61s0,.03,0,.03c0,.01,0,.02.01.03"/>
    <path class="cls-3" d="M282.66,353.39c-1.59,1.06-3.16,2.15-4.7,3.3s-3.04,2.32-4.5,3.56c-2.91,2.46-5.69,5.14-8.16,8.03-1.24,1.45-2.41,2.96-3.49,4.54-1.08,1.58-2.06,3.21-2.92,4.91-.86,1.71-1.6,3.45-2.2,5.27-.6,1.82-1.06,3.65-1.38,5.53"/>
    <path class="cls-3" d="M214.94,267.07s.02.08.03.12"/>
    <line class="cls-3" x1="319.36" y1="343.74" x2="284.3" y2="352.99"/>
    <path class="cls-3" d="M319.36,343.74c.09-.02.17-.05.26-.07"/>
    <path class="cls-3" d="M20.51,382.81c.1-2.63.96-5.08,2.3-7.31.77-1.29,1.66-2.45,2.66-3.57,1.13-1.26,2.35-2.4,3.65-3.48,2.05-1.69,4.29-3.2,6.57-4.54,2.69-1.58,5.46-2.96,8.31-4.22,10.3-4.54,22.25-7.68,33.23-9.8,2.79-.54,5.59-1.02,8.39-1.46,2.91-.46,5.83-.86,8.76-1.22,2.84-.35,5.69-.66,8.54-.92,2.92-.27,5.83-.51,8.75-.7,5.78-.38,11.56-.6,17.36-.68s11.58-.01,17.37.2"/>
    <path class="cls-3" d="M212.28,260.66c-.57.28-.92.83-1.04,1.42-.13.6-.03,1.23.21,1.78.25.55.65,1.05,1.17,1.37.52.32,1.15.47,1.76.29"/>
    <path class="cls-3" d="M93,156.38s-.02-.02-.03-.02"/>
    <path class="cls-3" d="M92.6,156.63s-.02-.02-.03-.02"/>
    <path class="cls-3" d="M213.96,260.64c-.44-.18-.92-.23-1.38-.1"/>
    <line class="cls-3" x1="214.96" y1="265.23" x2="214.38" y2="265.52"/>
    <path class="cls-3" d="M213.99,376c-.06,0-.11-.01-.17-.03"/>
    <path class="cls-3" d="M215.53,375.4c-.13-.15-.22-.43-.14-.63"/>
    <line class="cls-3" x1="213.99" y1="376" x2="214.61" y2="376.07"/>
    <line class="cls-3" x1="213.32" y1="373.51" x2="213.03" y2="374.2"/>
    <path class="cls-3" d="M213.32,373.51c-.11.22-.22.44-.33.67"/>
    <path class="cls-3" d="M214.76,374.18c-.03.06-.06.1-.12.13"/>
    <path class="cls-3" d="M215.65,373.97c-.19-.21-.4-.41-.62-.59"/>
    <path class="cls-3" d="M214.87,375.97c.12-.05.24.01.32.1"/>
    <line class="cls-3" x1="214.64" y1="374.31" x2="213.7" y2="374.68"/>
    <path class="cls-3" d="M51.14,470.99c.43.16.73.5.89.92.15.41.16.87.1,1.3"/>
    <path class="cls-3" d="M214.72,376.11c-.18.32-.38.63-.59.93"/>
    <path class="cls-3" d="M213.32,373.51c.33.22.66.46.97.71"/>
    <path class="cls-3" d="M214.64,374.31c-.12.05-.26-.02-.35-.09"/>
    <path class="cls-3" d="M48.18,477.36c-.52-.55-1.15-.97-1.86-1.24"/>
    <path class="cls-3" d="M188.98,261.03l.22-.14"/>
    <path class="cls-3" d="M91.68,473.98c18.97-1.6,38.6-1.97,57.62-1.21,4.8.19,9.6.46,14.39.79,4.8.34,9.58.75,14.36,1.25,9.57.99,19.07,2.3,28.54,4.01"/>
    <path class="cls-3" d="M529.16,210.75c.38.38.98.85,1.61.73"/>
    <line class="cls-3" x1="528.85" y1="204.58" x2="529.16" y2="210.75"/>
    <path class="cls-3" d="M529.6,204.8s-.03.02-.04.02"/>
    <path class="cls-3" d="M530.02,202.87c.02.34.02.68-.03,1.02-.04.25-.13.74-.39.92"/>
    <path class="cls-3" d="M529.34,199.85c.39.9.64,2.04.69,3.02"/>
    <path class="cls-3" d="M528.68,198.79c.29.28.51.71.66,1.06"/>
    <line class="cls-3" x1="522.2" y1="192.51" x2="528.68" y2="198.79"/>
    <line class="cls-3" x1="521.9" y1="186.29" x2="522.2" y2="192.51"/>
    <line class="cls-3" x1="527.35" y1="178.83" x2="529.63" y2="182.85"/>
    <line class="cls-3" x1="527.12" y1="174.15" x2="527.35" y2="178.83"/>
    <line class="cls-3" x1="521.34" y1="174.93" x2="531.93" y2="193.51"/>
    <line class="cls-3" x1="520.95" y1="167.03" x2="521.34" y2="174.93"/>
    <line class="cls-3" x1="520.41" y1="155.99" x2="530.54" y2="166.1"/>
    <line class="cls-3" x1="520.11" y1="149.81" x2="520.41" y2="155.99"/>
    <line class="cls-3" x1="519.7" y1="140.98" x2="524.48" y2="154.02"/>
    <line class="cls-3" x1="519.32" y1="133.46" x2="519.7" y2="140.98"/>
    <line class="cls-3" x1="529.39" y1="143.69" x2="525" y2="148.49"/>
    <line class="cls-3" x1="518.36" y1="114.64" x2="518.74" y2="122.4"/>
    <line class="cls-3" x1="524.53" y1="122.97" x2="524.74" y2="127.24"/>
    <line class="cls-3" x1="518.74" y1="122.4" x2="529.24" y2="141.1"/>
    <path class="cls-3" d="M261.39,468.02c1.4,3.05,2.9,6.04,4.33,9.07,1.45,3.08,2.73,6.05,3.86,9.27.56,1.58,1.06,3.17,1.51,4.79.45,1.61.85,3.23,1.2,4.87.35,1.64.65,3.28.91,4.93.26,1.65.47,3.31.64,4.98"/>
    <path class="cls-3" d="M254.75,436.41c0,1.63.04,3.26.11,4.9"/>
    <line class="cls-3" x1="24.54" y1="434.3" x2="24.38" y2="438.38"/>
    <line class="cls-3" x1="518.36" y1="114.64" x2="518.51" y2="114.61"/>
    <line class="cls-3" x1="518.74" y1="122.4" x2="518.89" y2="122.37"/>
    <line class="cls-3" x1="529.24" y1="141.1" x2="529.39" y2="141.06"/>
    <line class="cls-3" x1="529.39" y1="141.06" x2="529.08" y2="135"/>
    <line class="cls-3" x1="529.08" y1="135" x2="527.17" y2="131.59"/>
    <line class="cls-3" x1="527.17" y1="131.59" x2="526.75" y2="123.35"/>
    <line class="cls-3" x1="524.53" y1="122.97" x2="524.68" y2="122.94"/>
    <line class="cls-3" x1="526.75" y1="123.35" x2="524.68" y2="122.94"/>
    <line class="cls-3" x1="528.3" y1="122.72" x2="528.45" y2="122.69"/>
    <line class="cls-3" x1="528.45" y1="122.69" x2="528.14" y2="116.6"/>
    <line class="cls-3" x1="528.14" y1="116.6" x2="518.51" y2="114.61"/>
    <line class="cls-3" x1="530.54" y1="166.1" x2="530.69" y2="166.07"/>
    <line class="cls-3" x1="530.69" y1="166.07" x2="530.38" y2="159.93"/>
    <line class="cls-3" x1="530.38" y1="159.93" x2="525.96" y2="155.5"/>
    <line class="cls-3" x1="525.96" y1="155.5" x2="529.92" y2="151.12"/>
    <line class="cls-3" x1="529.39" y1="143.69" x2="529.54" y2="143.66"/>
    <line class="cls-3" x1="529.92" y1="151.12" x2="529.54" y2="143.66"/>
    <line class="cls-3" x1="519.32" y1="133.46" x2="519.48" y2="133.43"/>
    <line class="cls-3" x1="519.7" y1="140.98" x2="519.85" y2="140.95"/>
    <line class="cls-3" x1="519.85" y1="140.95" x2="524.74" y2="154.28"/>
    <line class="cls-3" x1="520.11" y1="149.81" x2="520.26" y2="149.78"/>
    <line class="cls-3" x1="520.41" y1="155.99" x2="520.57" y2="155.96"/>
    <line class="cls-3" x1="530.97" y1="174.73" x2="531.12" y2="174.69"/>
    <line class="cls-3" x1="531.12" y1="174.69" x2="530.8" y2="168.55"/>
    <line class="cls-3" x1="520.95" y1="167.03" x2="521.1" y2="167"/>
    <line class="cls-3" x1="530.8" y1="168.55" x2="521.1" y2="167"/>
    <line class="cls-3" x1="521.34" y1="174.93" x2="521.5" y2="174.9"/>
    <line class="cls-3" x1="531.93" y1="193.51" x2="532.08" y2="193.48"/>
    <line class="cls-3" x1="532.08" y1="193.48" x2="531.76" y2="187.23"/>
    <line class="cls-3" x1="527.12" y1="174.15" x2="527.27" y2="174.12"/>
    <line class="cls-3" x1="523.95" y1="173.58" x2="527.27" y2="174.12"/>
    <line class="cls-3" x1="527.35" y1="178.83" x2="527.51" y2="178.8"/>
    <line class="cls-3" x1="527.27" y1="174.12" x2="527.51" y2="178.8"/>
    <line class="cls-3" x1="529.63" y1="182.85" x2="529.79" y2="182.82"/>
    <path class="cls-3" d="M528.92,192.98c-.13-.17-.53-.55-.69-.69"/>
    <line class="cls-3" x1="521.9" y1="186.29" x2="522.05" y2="186.26"/>
    <line class="cls-3" x1="528.23" y1="192.29" x2="522.05" y2="186.26"/>
    <line class="cls-3" x1="522.2" y1="192.51" x2="522.36" y2="192.48"/>
    <line class="cls-3" x1="522.36" y1="192.48" x2="528.83" y2="198.76"/>
    <line class="cls-3" x1="17.73" y1="454.51" x2="18.59" y2="432.26"/>
    <path class="cls-3" d="M528.83,198.76c.28.28.51.71.66,1.06"/>
    <line class="cls-3" x1="255.59" y1="435.55" x2="255.61" y2="449.91"/>
    <path class="cls-3" d="M529.49,199.82c.39.9.64,2.04.69,3.02"/>
    <path class="cls-3" d="M530.18,202.84c.02.34.01.68-.03,1.02-.04.26-.13.74-.39.92"/>
    <line class="cls-3" x1="528.85" y1="204.58" x2="529" y2="204.55"/>
    <path class="cls-3" d="M529.75,204.77s-.07.04-.12.05"/>
    <line class="cls-3" x1="529.16" y1="210.75" x2="529.31" y2="210.72"/>
    <path class="cls-3" d="M532.65,205.37c-.09-2.13-.48-4.39-1.06-6.45-.52-1.86-1.43-4.37-2.68-5.94"/>
    <path class="cls-3" d="M91.75,473.98s-.05,0-.07,0"/>
    <line class="cls-3" x1="529.64" y1="204.82" x2="529.49" y2="204.85"/>
    <line class="cls-3" x1="530.92" y1="211.44" x2="530.77" y2="211.47"/>
    <path class="cls-3" d="M530.92,211.44c.58-.11.94-.68,1.14-1.14.22-.49.36-1.07.45-1.6.18-1.07.2-2.25.15-3.33"/>
    <path class="cls-3" d="M154.87,473.11c-.1-.31-.19-.62-.29-.92"/>
    <path class="cls-3" d="M230.23,411.62c0,1.45,0,2.9.04,4.34"/>
    <path class="cls-3" d="M232.15,416.78c-.03-1.45-.05-2.89-.04-4.34"/>
    <line class="cls-3" x1="529.36" y1="174.48" x2="530.97" y2="174.73"/>
    <line class="cls-3" x1="523.98" y1="173.64" x2="527.12" y2="174.15"/>
    <line class="cls-3" x1="521.36" y1="121.23" x2="528.3" y2="122.72"/>
    <path class="cls-3" d="M254.84,431.27c-.06,1.71-.09,3.42-.09,5.13"/>
    <path class="cls-3" d="M254.84,431.27c-1.65-4.73-5.73-8.61-9.55-11.42-4-2.94-8.67-5.41-13.19-7.42"/>
    <line class="cls-3" x1="495.75" y1="223.6" x2="497.67" y2="223.02"/>
    <path class="cls-3" d="M526.24,216.69c-.18-.23-.37-.46-.55-.69"/>
    <line class="cls-3" x1="490.55" y1="237.33" x2="486.71" y2="238.32"/>
    <path class="cls-3" d="M232.11,412.44c-.55.14-1.33.14-1.88,0"/>
    <line class="cls-3" x1="518.51" y1="114.61" x2="518.89" y2="122.37"/>
    <line class="cls-3" x1="518.89" y1="122.37" x2="529.39" y2="141.06"/>
    <line class="cls-3" x1="524.68" y1="122.94" x2="524.91" y2="127.54"/>
    <line class="cls-3" x1="521.32" y1="121.16" x2="528.45" y2="122.69"/>
    <line class="cls-3" x1="529.54" y1="143.66" x2="525.03" y2="148.58"/>
    <line class="cls-3" x1="519.48" y1="133.43" x2="519.85" y2="140.95"/>
    <line class="cls-3" x1="520.26" y1="149.78" x2="520.57" y2="155.96"/>
    <line class="cls-3" x1="520.57" y1="155.96" x2="530.69" y2="166.07"/>
    <line class="cls-3" x1="529.36" y1="174.43" x2="531.12" y2="174.69"/>
    <line class="cls-3" x1="521.1" y1="167" x2="521.5" y2="174.9"/>
    <line class="cls-3" x1="521.5" y1="174.9" x2="532.08" y2="193.48"/>
    <line class="cls-3" x1="527.51" y1="178.8" x2="529.79" y2="182.82"/>
    <line class="cls-3" x1="522.05" y1="186.26" x2="522.36" y2="192.48"/>
    <line class="cls-3" x1="529" y1="204.55" x2="529.31" y2="210.72"/>
    <path class="cls-3" d="M563.31,194.79c.75,13.12.35,27.47-2.52,40.43-.37,1.66-.78,3.31-1.24,4.94-.46,1.62-.96,3.23-1.51,4.81-1.13,3.22-2.45,6.32-4.05,9.33-1.52,2.87-3.25,5.57-5.22,8.16-1.06,1.38-2.17,2.71-3.35,4-1.23,1.35-2.52,2.63-3.87,3.86-1.22,1.11-2.47,2.17-3.76,3.2-1.34,1.06-2.71,2.07-4.11,3.04-2.86,1.97-5.82,3.76-8.87,5.41-3.03,1.64-6.12,3.15-9.27,4.56-3.09,1.38-6.22,2.67-9.38,3.88-3.25,1.25-6.52,2.43-9.81,3.56-3.17,1.09-6.35,2.13-9.55,3.15-1.65.53-3.29,1.04-4.94,1.56-1.63.51-3.27,1.02-4.9,1.52-3.24,1-6.49,1.99-9.74,2.95"/>
    <path class="cls-3" d="M93,156.38c2.09-1.27,4.19-2.51,6.32-3.7s4.28-2.36,6.45-3.48"/>
    <path class="cls-3" d="M232.22,362.13c2.7,1.26,5.32,2.63,7.87,4.18,1.27.77,2.51,1.58,3.72,2.45,1.21.87,2.37,1.77,3.49,2.75,4.23,3.7,8.35,8.87,8.2,15.08"/>
    <path class="cls-3" d="M92.97,156.37c2.09-1.27,4.19-2.51,6.32-3.7,2.13-1.2,4.28-2.36,6.45-3.48"/>
    <path class="cls-3" d="M248,413.69c-1.39-1.22-2.85-2.32-4.37-3.36"/>
    <path class="cls-3" d="M180.95,223.66c-1.22-10.43-1.59-21.13-.84-31.62"/>
    <path class="cls-3" d="M381.7,46.15c-2.05-1.75-4.18-3.36-6.42-4.87"/>
    <path class="cls-3" d="M38.38,473.78c3.87-1.05,7.77-1.99,11.7-2.84"/>
    <path class="cls-3" d="M18.92,423.87s0-.09,0-.14"/>
    <path class="cls-3" d="M254.96,430.94c-.04.12-.08.24-.12.36"/>
    <path class="cls-3" d="M230.84,362.21c.43.05.95.03,1.38-.08"/>
    <path class="cls-3" d="M18.61,431.9c0-.12,0-.24,0-.36"/>
    <path class="cls-3" d="M321.68,258.28s0-.09-.02-.14"/>
    <path class="cls-3" d="M354.29,237.07c0-.06-.02-.12-.03-.18"/>
    <path class="cls-3" d="M355.31,243.74s0-.06-.01-.08"/>
    <path class="cls-3" d="M51.85,475.13c-.49-1.17-1.34-2.18-2.59-2.65"/>
    <line class="cls-3" x1="338.42" y1="248.87" x2="338.89" y2="248.74"/>
    <path class="cls-3" d="M231.37,412.54c-.38-.17-.76-.33-1.14-.5"/>
    <path class="cls-3" d="M221.99,241.32c3.26,12.27,7.65,24.42,13.06,35.93,5.38,11.45,11.99,22.7,19.75,32.76,7.62,9.88,17.04,19.48,27.84,26.18,5.42,3.37,11.35,6.1,17.63,7.58,6.31,1.48,12.77,1.64,19.1-.03"/>
    <path class="cls-3" d="M223.76,232.63s0,0,0,0"/>
    <path class="cls-3" d="M20.5,383.14c0-.11,0-.22,0-.33"/>
    <path class="cls-3" d="M174.32,187.31c-1.55,12.63-1.32,25.73.14,38.33"/>
    <path class="cls-3" d="M180.34,192.23c-.73,10.4-.35,21.01.86,31.35"/>
    <path class="cls-3" d="M371.58,100.32c.24,10.57-.99,21.18-3.37,31.46-2.39,10.3-5.95,20.37-10.47,29.93-8.98,19.02-22.04,36.66-38.1,50.48-2.09,1.8-4.24,3.54-6.44,5.21-2.12,1.61-4.28,3.15-6.49,4.62-4.36,2.91-8.86,5.51-13.57,7.82-9.54,4.67-19.86,8.02-30.49,9.28-10.64,1.26-21.41.41-31.6-3.17-10.21-3.59-19.04-9.65-26.12-17.74"/>
    <path class="cls-3" d="M217.27,235.07c6.87,10.12,15.93,18.39,26.97,23.96"/>
    <line class="cls-3" x1="246.22" y1="260.03" x2="244.24" y2="259.04"/>
    <path class="cls-3" d="M244.24,259.04c9.71,4.9,20.27,7.39,31.11,7.73,10.83.35,21.58-1.45,31.83-4.76,10.25-3.31,20-8.15,29-13.99,4.5-2.92,8.78-6.07,12.92-9.47,2.07-1.7,4.09-3.44,6.06-5.24,2.02-1.84,3.99-3.73,5.91-5.67,15.04-15.2,27.19-33.54,35.5-53.13,8.27-19.49,13.07-41.07,12.43-62.38"/>
    <path class="cls-3" d="M294.78,247.62c-.61-.69-1.46-1.21-2.29-1.56-.86-.36-1.78-.59-2.71-.69-.9-.09-1.9-.05-2.79.19-.44.12-.89.3-1.27.58-.38.28-.67.65-.68,1.16"/>
    <path class="cls-3" d="M172.16,475.19c-2.76-1.09-5.51-2.18-8.27-3.26"/>
    <path class="cls-3" d="M291.6,324.69c-.12.04-.23.05-.35.04-.1,0-.25-.04-.33-.12"/>
    <path class="cls-3" d="M288.57,324.99c.4.05.8.06,1.2.03"/>
    <path class="cls-3" d="M291.6,324.69c.41-.13.81-.28,1.19-.47"/>
    <path class="cls-3" d="M288.8,319.79c1.18-.21,2.52-.24,3.71-.09.6.08,1.24.21,1.81.42.29.11.57.24.82.43.14.1.27.22.36.37.08.12.12.24.12.38"/>
    <path class="cls-3" d="M286.12,321.35c0-.29.19-.52.39-.69.21-.18.45-.31.71-.42.49-.22,1.06-.36,1.58-.46"/>
    <line class="cls-3" x1="288.32" y1="319.89" x2="288.09" y2="290.13"/>
    <line class="cls-3" x1="293.16" y1="290.1" x2="293.41" y2="319.85"/>
    <path class="cls-3" d="M92.97,156.39c-.13.08-.27.16-.4.25"/>
    <path class="cls-3" d="M27.25,240.88c.16-2.51.34-5.03.51-7.54.18-2.61.35-5.23.52-7.84.33-5.13.63-10.26,1.01-15.38.09-1.26.19-2.51.29-3.77.1-1.27.21-2.55.33-3.82.24-2.59.5-5.18.81-7.76.61-5.11,1.38-10.18,2.43-15.22,2.1-10.12,5.27-19.85,10.39-28.95,2.54-4.53,5.46-8.71,8.83-12.68,1.67-1.97,3.43-3.85,5.27-5.66,1.84-1.81,3.76-3.53,5.75-5.19"/>
    <path class="cls-3" d="M65.2,176.6c.06.04.12.08.18.13"/>
    <path class="cls-3" d="M51.22,480.73c.23-2.52.53-5.02.91-7.52"/>
    <path class="cls-3" d="M20.43,456.49c.04-.54.07-1.08.11-1.62"/>
    <path class="cls-3" d="M118.49,396.16c-16.17.64-33.26,2.42-49.12,5.8-7.93,1.69-16.18,3.91-23.77,6.79-7.11,2.7-15.65,6.75-21.25,12.27"/>
    <path class="cls-3" d="M408.99,112.13c-.42-14.05-3.23-28.24-9.24-41.13-6.02-12.91-15.1-24.11-27.29-31.93"/>
    <path class="cls-3" d="M314.45,25.37c7.82,1.17,15.65,2.05,23.53,2.57"/>
    <path class="cls-3" d="M317.04,25.81c17.09,3.25,31.17,12.86,40.73,27.13,4.67,6.96,8.03,14.68,10.27,22.69,2.24,8.03,3.35,16.37,3.54,24.68"/>
    <path class="cls-3" d="M305.8,264.17c-9.76,2.78-19.96,4.16-30.15,3.6-10.21-.56-20.14-3.04-29.28-7.66"/>
    <path class="cls-3" d="M370.41,114.26c-1.28,13.35-4.7,26.56-9.7,38.98-5.02,12.45-11.72,24.32-19.78,35.09-8.05,10.75-17.59,20.57-28.35,28.72-10.7,8.1-22.85,14.73-35.85,18.56"/>
    <line class="cls-3" x1="20.18" y1="455.78" x2="20.12" y2="457.33"/>
    <line class="cls-3" x1="254.84" y1="431.27" x2="254.86" y2="441.24"/>
    <path class="cls-3" d="M467.08,303.18c-.05.02-.11.04-.16.05"/>
    <path class="cls-3" d="M251.89,262.9c9.14,4.62,19.06,7.1,29.26,7.67,10.18.57,20.37-.79,30.13-3.57"/>
    <path class="cls-3" d="M246.22,260.03c-.31-.16-.61-.31-.91-.47"/>
    <path class="cls-3" d="M374.83,40.66c5.36,2.28,10.77,4.41,16.27,6.34,2.75.97,5.51,1.88,8.3,2.74,2.78.86,5.58,1.66,8.4,2.39,2.82.73,5.65,1.4,8.5,2,2.86.6,5.72,1.11,8.6,1.55,2.88.43,5.77.78,8.67,1.03,1.44.13,2.89.22,4.33.3,1.47.08,2.93.13,4.4.16"/>
    <path class="cls-3" d="M374.47,40.36c4.78,3.07,9.13,6.69,13.03,10.79,4.21,4.43,7.82,9.34,10.87,14.61,5.89,10.19,9.51,21.49,11.31,33.02,1.8,11.54,1.78,23.37.36,34.93-1.43,11.59-4.28,23.04-8.28,34-7.97,21.87-20.71,42.44-36.9,59.3-8.11,8.45-17.2,16.09-27.09,22.44-5.18,3.33-10.51,6.27-16.12,8.83-5.15,2.35-10.4,4.32-15.86,5.88"/>
    <line class="cls-3" x1="243.64" y1="410.05" x2="243.64" y2="369.36"/>
    <path class="cls-3" d="M416.57,118.28c.92.56,1.85,1.11,2.8,1.63"/>
    <path class="cls-3" d="M215.15,379.57s-.06.07-.09.1"/>
    <path class="cls-3" d="M18.92,423.72c.07-1.82.53-3.56,1.3-5.21.91-1.96,2.2-3.72,3.66-5.29,1.83-1.97,3.96-3.69,6.17-5.2,2.73-1.87,5.69-3.5,8.68-4.92,4.18-1.99,8.57-3.68,12.97-5.12,5.12-1.68,10.3-3.07,15.55-4.26,9.7-2.2,19.8-3.75,29.69-4.8,9.94-1.05,20.04-1.63,30.03-1.8,19.72-.32,40.49.97,59.98,4.14,5.19.85,10.35,1.83,15.48,3,4.66,1.06,9.28,2.26,13.85,3.65,5.34,1.63,10.69,3.53,15.79,5.82,2.15.96,4.26,1.99,6.32,3.13,1.8.99,3.56,2.04,5.25,3.2"/>
    <path class="cls-3" d="M212.72,371c-.33.14-.58.34-.82.6"/>
    <path class="cls-3" d="M335.62,32.65c.11,0,.22-.01.33-.02"/>
    <path class="cls-3" d="M211.84,371.62c.05,0,.11,0,.16.01"/>
    <path class="cls-3" d="M243.64,369.36c2.94,2.09,5.84,4.59,8.04,7.48,2.22,2.91,3.8,6.32,3.81,10.1"/>
    <path class="cls-3" d="M454.38,276.2c1.16,4.62,2.57,9.68,4.13,14.18.78,2.25,1.72,4.7,2.75,6.86.53,1.1,1.12,2.21,1.81,3.23.39.58.84,1.16,1.35,1.65.37.35.8.69,1.29.88"/>
    <path class="cls-3" d="M435.32,118.36c.05,1.94.11,3.88.18,5.82"/>
    <line class="cls-3" x1="255.5" y1="386.94" x2="255.57" y2="427.03"/>
    <path class="cls-3" d="M440.26,58.78c-1.19,1.72-1.97,4.59-2.41,6.54-.51,2.23-.89,4.63-1.18,6.89"/>
    <path class="cls-3" d="M529.64,204.82c-.21.04-.5-.17-.64-.27"/>
  </g>
  <g id="Make2D::可见线::正切线">
    <path class="cls-3" d="M255.5,401.18c.02,1.37.03,3.87.02,5.24,0,.44,0,.87-.02,1.31,0,.13,0,.25-.03.38,0,.03-.02.11-.05.06-.02-.03-.02-.06-.03-.09-.01-.05-.02-.11-.04-.17-.03-.18-.06-.37-.08-.55-.11-.87-.17-1.74-.23-2.61"/>
    <path class="cls-3" d="M255.05,404.75c-.11-1.63-.17-3.63-.09-5.26.02-.43.05-.88.11-1.31.02-.12.04-.25.08-.36.02-.04.05-.1.09-.06.02.03.03.06.04.09.02.05.03.11.04.16.03.18.05.36.07.54.07.76.09,1.88.1,2.63"/>
    <path class="cls-3" d="M310.17,267.31c1.57-.43,3.14-.89,4.69-1.39,1.57-.5,3.12-1.04,4.67-1.61,3.08-1.14,6.09-2.41,9.06-3.8,2.97-1.39,5.87-2.9,8.71-4.52,2.85-1.62,5.62-3.34,8.34-5.16,1.35-.91,2.69-1.84,4.01-2.79,1.33-.96,2.64-1.94,3.94-2.94,1.29-1,2.56-2.01,3.81-3.05,1.26-1.05,2.51-2.11,3.74-3.2,1.22-1.08,2.42-2.17,3.6-3.28,1.19-1.13,2.37-2.27,3.53-3.43,2.31-2.31,4.54-4.69,6.7-7.13"/>
    <path class="cls-3" d="M211.9,371.6c.09-.1.1-.24.07-.36-.03-.13-.09-.24-.17-.34"/>
    <path class="cls-3" d="M467.08,303.19c-.05.02-.1.04-.16.05"/>
    <path class="cls-3" d="M375.14,225.14c-.97,1.1-1.96,2.19-2.96,3.26-.99,1.07-2,2.12-3.02,3.16-2.02,2.05-4.09,4.04-6.22,5.98-1.08.99-2.18,1.96-3.29,2.91-1.1.95-2.22,1.88-3.35,2.79-1.13.91-2.26,1.81-3.42,2.69-1.14.87-2.3,1.73-3.47,2.56-1.2.86-2.41,1.7-3.63,2.51-1.22.82-2.45,1.61-3.69,2.39-1.23.77-2.47,1.51-3.72,2.24-1.23.71-2.48,1.41-3.73,2.08-1.31.7-2.62,1.38-3.96,2.03-1.31.65-2.63,1.27-3.97,1.86-2.63,1.18-5.29,2.25-8,3.23-2.77,1-5.57,1.89-8.42,2.66-2.78.75-5.59,1.39-8.43,1.9-1.47.26-2.94.49-4.42.69-1.46.19-2.92.35-4.38.47-2.86.24-5.72.33-8.6.28-1.48-.03-2.95-.09-4.42-.2-1.46-.11-2.92-.25-4.37-.44-2.87-.37-5.7-.9-8.51-1.59-1.43-.35-2.85-.75-4.26-1.19-1.39-.43-2.76-.91-4.12-1.43-2.71-1.03-5.34-2.22-7.9-3.58"/>
    <path class="cls-3" d="M218.08,379.23c-.86,1.03-2.12,1.22-3.33.78-1.15-.42-2.11-1.33-2.75-2.31-.66-1-1.09-2.2-1.18-3.4-.08-1.17.16-2.47.98-3.41"/>
    <path class="cls-3" d="M454.2,276.34c.08,0,.18-.06.18-.14"/>
    <path class="cls-3" d="M454.13,276.04c.07,0,.16-.05.17-.13"/>
    <path class="cls-3" d="M202.97,215.89c8.64,10.66,20.11,18.05,33.54,21.37,13.31,3.29,27.15,2.25,40.09-1.57"/>
    <line class="cls-3" x1="305.6" y1="263.76" x2="305.8" y2="264.17"/>
    <path class="cls-3" d="M276.6,235.69c5.33-1.57,10.5-3.61,15.49-6.01,5.51-2.66,10.8-5.78,15.82-9.25,9.58-6.62,18.26-14.55,25.88-23.3,15.16-17.4,26.61-38.61,32.58-60.84,2.99-11.14,4.67-22.74,4.6-34.3-.07-11.52-1.89-23.18-6.02-34.03-2.13-5.58-4.86-10.93-8.26-15.87-3.2-4.64-6.94-8.87-11.24-12.56-8.98-7.71-19.73-12.48-31.44-14.26"/>
    <line class="cls-3" x1="23.49" y1="443.69" x2="24.35" y2="421.02"/>
    <path class="cls-3" d="M123.42,460.43c.05-2.27.2-4.52.45-6.78.26-2.25.61-4.48,1.09-6.69.47-2.21,1.05-4.38,1.75-6.53.71-2.17,1.53-4.28,2.51-6.34.97-2.04,2.06-3.99,3.35-5.86,1.29-1.87,2.78-3.66,4.46-5.2,1.65-1.5,3.52-2.81,5.58-3.7,2.15-.93,4.43-1.38,6.78-1.23,2.34.15,4.54.89,6.55,2.03,1.96,1.12,3.71,2.6,5.22,4.25,1.55,1.69,2.9,3.58,4.06,5.54,1.15,1.94,2.12,3.95,2.96,6.04.86,2.12,1.58,4.28,2.18,6.49.59,2.17,1.07,4.36,1.44,6.58.38,2.24.65,4.48.82,6.74.17,2.26.24,4.51.21,6.78"/>
    <line class="cls-3" x1="172.85" y1="462.55" x2="172.7" y2="474.3"/>
    <line class="cls-3" x1="178.73" y1="474.89" x2="179.59" y2="398.96"/>
    <line class="cls-3" x1="118.49" y1="396.16" x2="116.82" y2="472.58"/>
    <line class="cls-3" x1="123.17" y1="472.45" x2="123.42" y2="460.43"/>
    <path class="cls-3" d="M89.85,475.07c.18-1.66.38-3.32.62-4.97.24-1.65.52-3.3.84-4.94.32-1.64.68-3.27,1.08-4.89.41-1.62.86-3.23,1.35-4.82,1.02-3.26,2.16-6.25,3.48-9.4,1.3-3.08,2.69-6.12,3.97-9.21"/>
    <path class="cls-3" d="M101.21,436.84c1.35-3.24,3.09-6.88,4.59-10.06.79-1.67,1.58-3.34,2.35-5.01.77-1.67,1.53-3.35,2.28-5.03.75-1.69,1.47-3.38,2.19-5.08.71-1.7,1.4-3.41,2.07-5.12.67-1.72,1.33-3.44,1.96-5.17.57-1.55,1.31-3.65,1.84-5.21"/>
    <path class="cls-3" d="M24.35,421.02c.21,3.11.35,6.21.36,9.32,0,1.56-.03,3.11-.1,4.66-.07,1.56-.18,3.11-.35,4.65-.33,3.11-.86,6.15-1.67,9.17-.4,1.51-.87,2.99-1.39,4.46s-1.11,2.91-1.73,4.34"/>
    <path class="cls-3" d="M27.25,240.88c.17-2.53.51-5.03,1.01-7.52.26-1.29.56-2.57.9-3.85.35-1.31.74-2.61,1.16-3.9.8-2.43,1.72-4.8,2.75-7.13.53-1.2,1.09-2.39,1.67-3.57.6-1.21,1.22-2.4,1.87-3.58,1.23-2.24,2.54-4.42,3.94-6.56,1.45-2.24,2.98-4.42,4.58-6.56,1.55-2.06,3.16-4.08,4.82-6.05,1.71-2.02,3.47-3.99,5.29-5.92.88-.93,1.77-1.85,2.67-2.76.91-.92,1.84-1.83,2.78-2.73.95-.91,1.91-1.81,2.88-2.7.98-.9,1.98-1.79,2.99-2.67,1.96-1.71,3.95-3.37,5.98-5,2.06-1.64,4.15-3.24,6.28-4.8,2.1-1.54,4.23-3.03,6.39-4.49,2.19-1.47,4.4-2.89,6.64-4.28,2.22-1.37,4.46-2.69,6.73-3.98,1.14-.65,2.29-1.28,3.45-1.91,1.16-.63,2.33-1.25,3.51-1.85"/>
    <path class="cls-3" d="M105.8,149.21c-1.09.56-2.17,1.14-3.25,1.72-1.08.58-2.15,1.17-3.22,1.78-2.14,1.2-4.25,2.44-6.34,3.72"/>
    <path class="cls-3" d="M27.26,240.88c0,.06,0,.12-.01.17"/>
    <path class="cls-3" d="M435.49,124.19h0"/>
    <line class="cls-3" x1="181.2" y1="223.64" x2="180.95" y2="223.66"/>
    <line class="cls-3" x1="243.25" y1="418.43" x2="243.63" y2="417.97"/>
    <path class="cls-3" d="M173.89,186.97c-.17,1.31-.31,2.62-.44,3.94-.13,1.34-.24,2.69-.34,4.03-.09,1.38-.17,2.75-.23,4.13-.06,1.4-.1,2.8-.12,4.19-.04,2.69,0,5.38.09,8.07.1,2.75.26,5.49.48,8.23.11,1.33.23,2.67.37,4,.14,1.35.29,2.69.46,4.04.17,1.36.35,2.71.55,4.06.2,1.37.42,2.74.65,4.1.45,2.68.96,5.36,1.52,8.02.28,1.33.57,2.66.88,3.99.31,1.33.63,2.65.96,3.97.67,2.64,1.38,5.26,2.15,7.87.38,1.31.78,2.61,1.19,3.91.41,1.3.83,2.6,1.27,3.9.87,2.59,1.79,5.16,2.77,7.71.49,1.28.99,2.55,1.5,3.81.51,1.25,1.03,2.5,1.56,3.75.54,1.27,1.1,2.53,1.67,3.79.56,1.25,1.14,2.48,1.73,3.72,1.17,2.44,2.38,4.85,3.65,7.24.65,1.22,1.31,2.43,1.99,3.63.67,1.19,1.35,2.38,2.05,3.56,1.38,2.33,2.81,4.63,4.3,6.89"/>
    <path class="cls-3" d="M435.49,124.19s-.08-.05-.12-.05"/>
    <line class="cls-3" x1="213.54" y1="371.34" x2="214.52" y2="370.93"/>
    <line class="cls-3" x1="295.57" y1="249.33" x2="295.57" y2="249.33"/>
    <path class="cls-3" d="M486.66,230.75s-.08,0-.1,0c-.03-.01-.06-.03-.09-.05"/>
    <path class="cls-3" d="M501.61,129.4c-.16-3.56-.22-7.12-.13-10.68.08-3.2.28-6.38.64-9.57.23-2.04.53-4.06.93-6.07.35-1.78.77-3.53,1.3-5.27.46-1.5.99-2.97,1.65-4.4.56-1.22,1.2-2.38,1.97-3.48.96-1.36,2.15-2.62,3.63-3.47,1.29-.75,2.7-1.12,4.2-1.08,1.64.05,3.2.58,4.62,1.32,1.8.94,3.44,2.25,4.89,3.64,2.18,2.09,4.13,4.53,5.85,6.99,2.12,3.05,4.03,6.33,5.74,9.62,3.1,5.96,5.74,12.34,7.99,18.65.55,1.55,1.08,3.11,1.6,4.67.52,1.6,1.03,3.2,1.51,4.81.99,3.29,1.9,6.6,2.73,9.93,3.22,12.85,5.5,26.77,6.24,40.01"/>
    <path class="cls-3" d="M502.77,107.96c.4-1.47.86-2.9,1.45-4.31.5-1.19,1.06-2.33,1.77-3.41.58-.9,1.27-1.75,2.07-2.47.69-.62,1.46-1.14,2.33-1.5,2-.82,4.04-.59,5.95.22,1.16.49,2.25,1.18,3.24,1.94,1.22.93,2.3,1.97,3.34,3.1,1.49,1.62,2.85,3.41,4.08,5.22,1.47,2.15,2.78,4.38,4.01,6.67,2.26,4.2,4.24,8.65,5.97,13.08,3.44,8.81,6.17,18.32,8.16,27.55,1.99,9.23,3.41,19,3.92,28.44"/>
    <path class="cls-3" d="M549.05,182.46c.13,2.42.21,4.84.21,7.26,0,2.42-.06,4.84-.22,7.26-.3,4.65-.97,9.81-2.36,14.31-.38,1.25-.83,2.46-1.37,3.65-.47,1.03-.99,2.01-1.63,2.94-.73,1.07-1.61,2.07-2.68,2.83-.93.66-1.96,1.11-3.1,1.28-1.12.17-2.23.04-3.31-.28-1.27-.38-2.47-1.02-3.55-1.77-.94-.64-1.8-1.37-2.62-2.15-.95-.9-1.83-1.86-2.66-2.86"/>
    <path class="cls-3" d="M502.79,228.42c.33-.76.56-1.62.57-2.47,0-.84-.2-1.71-.79-2.36-.61-.66-1.44-.93-2.3-.97-.85-.04-1.73.13-2.53.37"/>
    <path class="cls-3" d="M480.2,54.37s-.03-.02-.04-.02"/>
    <path class="cls-3" d="M102.81,437.6c-1.21,2.95-2.52,5.85-3.76,8.79-.62,1.47-1.22,2.94-1.79,4.43-.57,1.49-1.1,2.99-1.59,4.51-.49,1.52-.94,3.04-1.34,4.59-.4,1.54-.76,3.09-1.08,4.65-.32,1.56-.6,3.12-.85,4.7-.25,1.57-.46,3.15-.65,4.73"/>
    <line class="cls-3" x1="101.94" y1="473.24" x2="102.81" y2="437.6"/>
    <line class="cls-3" x1="194.57" y1="441.62" x2="194.27" y2="476.83"/>
    <path class="cls-3" d="M206.47,478.82c-.33-3.26-.81-6.49-1.48-9.7-.67-3.21-1.54-6.36-2.61-9.46-1.09-3.15-2.32-6.07-3.7-9.1-1.36-2.98-2.79-5.93-4.11-8.93"/>
    <line class="cls-3" x1="491.26" y1="57.9" x2="494.2" y2="56.99"/>
    <path class="cls-3" d="M194.57,441.62c-.69-1.75-1.42-3.5-2.14-5.24-.73-1.74-1.45-3.48-2.17-5.23-.71-1.75-1.42-3.5-2.1-5.25-.68-1.76-1.35-3.53-1.99-5.3-2.57-7.11-4.74-14.31-6.59-21.64"/>
    <path class="cls-3" d="M118.49,396.16c-.54,1.76-1.1,3.52-1.68,5.28-.58,1.76-1.17,3.5-1.78,5.25-.61,1.74-1.24,3.48-1.88,5.21-.64,1.73-1.31,3.46-1.98,5.18s-1.37,3.43-2.07,5.14c-.7,1.71-1.41,3.41-2.13,5.11-1.36,3.24-2.94,6.97-4.16,10.27"/>
    <line class="cls-3" x1="484.55" y1="233.5" x2="502.79" y2="228.42"/>
    <path class="cls-3" d="M490.67,237.29c2-.52,4.01-1.35,5.79-2.39,1.78-1.04,3.49-2.37,4.79-3.98"/>
    <path class="cls-3" d="M496.35,59.2c.16-.05.27-.14.24-.32-.02-.14-.12-.28-.21-.38-.18-.22-.43-.43-.66-.59-.48-.36-.99-.65-1.52-.92"/>
    <path class="cls-3" d="M261.36,467.97c-1.31-2.86-2.49-5.76-3.45-8.77-.48-1.5-.89-3.01-1.25-4.54-.36-1.53-.66-3.07-.91-4.62-.5-3.11-.78-6.22-.92-9.36-.07-1.57-.09-3.14-.09-4.71s.04-3.14.1-4.71"/>
    <path class="cls-3" d="M273.83,506.15c-.17-1.68-.38-3.35-.63-5.01-.25-1.67-.55-3.32-.89-4.97-.35-1.65-.74-3.28-1.19-4.91-.45-1.63-.96-3.23-1.51-4.82-.56-1.59-1.17-3.16-1.82-4.71-.65-1.56-1.34-3.09-2.06-4.62-1.43-3.05-2.95-6.07-4.36-9.13"/>
    <path class="cls-3" d="M480.15,54.35s-.03,0-.05,0"/>
    <path class="cls-3" d="M208.4,480.06c-15.83-2.93-32.41-4.8-48.47-5.79"/>
    <path class="cls-3" d="M196.23,441.01c1.4,3.14,2.91,6.22,4.33,9.35.71,1.56,1.39,3.14,2.03,4.73.64,1.59,1.24,3.2,1.78,4.83.54,1.63,1.03,3.27,1.47,4.93.44,1.66.81,3.33,1.14,5.01.33,1.68.61,3.37.84,5.07.23,1.7.42,3.4.58,5.11"/>
    <path class="cls-3" d="M179.59,398.96c.26.91.52,1.81.79,2.72.27.9.54,1.8.82,2.7.56,1.8,1.15,3.59,1.76,5.38.61,1.78,1.25,3.56,1.91,5.33.66,1.77,1.35,3.53,2.06,5.28.71,1.75,1.45,3.48,2.2,5.21.76,1.73,1.54,3.45,2.33,5.16.79,1.71,1.6,3.42,2.4,5.13.8,1.71,1.6,3.42,2.37,5.14"/>
    <path class="cls-3" d="M501.25,230.92s.06-.08.1-.12"/>
    <line class="cls-3" x1="532.5" y1="205.4" x2="532.65" y2="205.37"/>
    <line class="cls-3" x1="529.6" y1="204.8" x2="529.75" y2="204.77"/>
    <path class="cls-3" d="M170.73,462.41c.03-2.17-.03-4.33-.18-6.49-.15-2.16-.38-4.31-.71-6.46-.33-2.13-.74-4.24-1.27-6.33-.53-2.12-1.16-4.2-1.92-6.25-.75-2.03-1.62-3.99-2.65-5.9-1.03-1.91-2.24-3.76-3.63-5.43-1.38-1.65-3-3.17-4.85-4.32-1.86-1.16-3.93-1.92-6.15-2.07-2.24-.15-4.39.34-6.39,1.3-1.96.94-3.7,2.3-5.22,3.82-1.53,1.55-2.87,3.31-4.02,5.14-1.16,1.84-2.14,3.75-3.01,5.74-.87,2-1.6,4.04-2.23,6.12-.62,2.07-1.14,4.17-1.55,6.29-.42,2.12-.74,4.26-.96,6.41-.23,2.16-.36,4.32-.41,6.49"/>
    <path class="cls-3" d="M170.73,462.41c-15.07-.31-30.11-.95-45.15-1.93"/>
    <line class="cls-3" x1="125.58" y1="460.48" x2="125.34" y2="472.42"/>
    <line class="cls-3" x1="170.58" y1="474.11" x2="170.73" y2="462.41"/>
    <line class="cls-3" x1="530.02" y1="202.87" x2="530.18" y2="202.84"/>
    <line class="cls-3" x1="529.34" y1="199.85" x2="529.49" y2="199.82"/>
    <line class="cls-3" x1="528.68" y1="198.79" x2="528.83" y2="198.76"/>
    <path class="cls-3" d="M493.78,56.45c.24.12.47.24.7.36"/>
    <path class="cls-3" d="M501.66,231.03s-.06.08-.1.13"/>
    <path class="cls-3" d="M24.48,423.58c-.04-.85-.08-1.71-.13-2.56"/>
    <path class="cls-3" d="M493.51,56.65c.05-.08.15-.22.27-.2"/>
    <path class="cls-3" d="M501.35,230.8c.1.09.2.16.31.23"/>
    <path class="cls-3" d="M501.35,230.8c.57-.72,1.08-1.53,1.44-2.38"/>
    <path class="cls-3" d="M501.61,129.4c.19.19.32.42.33.7"/>
    <path class="cls-3" d="M494.2,56.99c-.23-.12-.46-.23-.69-.33"/>
    <path class="cls-3" d="M215.31,266.64c-.06.11,0,.24.06.33.07.1.15.18.25.25"/>
    <path class="cls-3" d="M215.63,267.21c-.61,1.22-1.73,2.02-3.11,2.13-1.35.1-2.64-.46-3.63-1.3-1-.86-1.71-2.03-2.03-3.3-.32-1.25-.25-2.65.36-3.83"/>
    <path class="cls-3" d="M19.32,457.83c.04-.08.09-.15.15-.21"/>
    <path class="cls-3" d="M207.21,260.91c.61-1.19,1.72-2.02,3.1-2.15,1.35-.12,2.63.46,3.6,1.32.97.87,1.68,2.06,2.01,3.31.32,1.24.3,2.63-.28,3.82"/>
    <line class="cls-3" x1="174.47" y1="225.64" x2="180.95" y2="223.66"/>
    <path class="cls-3" d="M214.7,267.49c-1.11.25-2.23-.09-3.12-.72-.89-.63-1.57-1.56-1.94-2.58"/>
    <line class="cls-3" x1="213.5" y1="374.53" x2="214.29" y2="374.22"/>
    <line class="cls-3" x1="214.16" y1="375.25" x2="215.38" y2="374.77"/>
    <line class="cls-3" x1="214.72" y1="376.11" x2="213.61" y2="376.54"/>
    <line class="cls-3" x1="215.53" y1="375.4" x2="213.99" y2="376"/>
    <path class="cls-3" d="M209.82,259.63s0,0,0,0"/>
    <path class="cls-3" d="M210.62,259.38c-.28.05-.54.13-.8.24"/>
    <path class="cls-3" d="M211.23,259.36c-.83.55-1.29,1.45-1.43,2.39-.14.95.05,1.93.47,2.78.41.85,1.07,1.61,1.9,2.1.82.49,1.82.71,2.78.43"/>
    <path class="cls-3" d="M92.58,156.68c-1.98,1.21-3.93,2.45-5.87,3.73-1.91,1.26-3.8,2.55-5.67,3.88-1.9,1.35-3.77,2.73-5.61,4.14-1.81,1.39-3.59,2.81-5.35,4.26-1.79,1.48-3.55,3-5.28,4.55-1.7,1.52-3.36,3.07-4.99,4.66-1.66,1.62-3.29,3.27-4.88,4.97-1.56,1.66-3.08,3.35-4.56,5.08-1.52,1.78-2.99,3.59-4.41,5.45-1.37,1.79-2.7,3.62-3.97,5.48-1.32,1.93-2.57,3.89-3.76,5.9-1.15,1.94-2.23,3.91-3.25,5.93-1.05,2.09-2.02,4.21-2.9,6.37-.85,2.09-1.6,4.19-2.26,6.35-.68,2.24-1.25,4.5-1.7,6.81-.42,2.2-.72,4.41-.88,6.65"/>
    <path class="cls-3" d="M209.82,259.63c-.71.32-1.25.88-1.61,1.56"/>
    <path class="cls-3" d="M214.05,267.98c.25-.13.47-.29.67-.49"/>
    <path class="cls-3" d="M214.04,267.98s0,0,0,0"/>
    <path class="cls-3" d="M209.64,264.19c-.29-.81-.4-1.7-.26-2.56.14-.85.54-1.66,1.22-2.24"/>
    <path class="cls-3" d="M278.35,354.56c-1.31.4-2.63.73-3.98.99-1.35.25-2.7.43-4.07.54-1.37.11-2.73.14-4.1.11-1.37-.03-2.73-.14-4.09-.3-5.45-.67-10.73-2.34-15.67-4.64"/>
    <path class="cls-3" d="M208.22,261.19c-.07.03-.19.04-.27.03-.09-.01-.18-.03-.26-.06-.09-.03-.17-.06-.25-.11-.08-.04-.15-.1-.23-.14"/>
    <path class="cls-3" d="M208.22,261.19c-.61,1.17-.6,2.57-.16,3.78"/>
    <line class="cls-3" x1="209.64" y1="264.19" x2="208.05" y2="264.97"/>
    <line class="cls-3" x1="243.63" y1="417.97" x2="243.64" y2="410.33"/>
    <path class="cls-3" d="M208.05,264.97c.43,1.17,1.26,2.21,2.36,2.83,1.09.62,2.46.8,3.63.17"/>
    <line class="cls-3" x1="174.34" y1="225.93" x2="174.47" y2="225.64"/>
    <line class="cls-3" x1="243.36" y1="410.09" x2="243.64" y2="410.33"/>
    <path class="cls-3" d="M246.43,351.26c-1.09-.51-2.17-1.05-3.24-1.61-1.09-.58-2.16-1.19-3.22-1.82-2.1-1.26-4.12-2.61-6.09-4.05s-3.87-2.96-5.72-4.54c-1.85-1.59-3.64-3.24-5.38-4.95-1.74-1.71-3.41-3.47-5.04-5.28-1.63-1.81-3.2-3.66-4.73-5.56-3.06-3.8-5.9-7.73-8.58-11.79"/>
    <path class="cls-3" d="M204.42,311.65c-1.5-2.27-2.93-4.57-4.31-6.9-.7-1.18-1.39-2.37-2.06-3.57-.68-1.21-1.34-2.42-1.99-3.64-1.28-2.39-2.5-4.81-3.67-7.26-.59-1.24-1.17-2.48-1.74-3.73-.57-1.26-1.13-2.53-1.68-3.8-1.07-2.51-2.1-5.03-3.07-7.58-.98-2.56-1.9-5.13-2.78-7.72-.44-1.3-.86-2.6-1.28-3.9-.41-1.3-.81-2.61-1.19-3.92-.38-1.31-.76-2.63-1.12-3.94-.36-1.31-.7-2.63-1.04-3.95-.33-1.32-.65-2.65-.96-3.98-.31-1.33-.6-2.67-.88-4-.56-2.67-1.07-5.35-1.52-8.04-.23-1.37-.45-2.74-.65-4.11-.2-1.36-.38-2.71-.55-4.07-.33-2.68-.61-5.36-.83-8.05-.22-2.75-.38-5.5-.48-8.25-.09-2.7-.12-5.4-.08-8.1.02-1.4.06-2.8.12-4.2.06-1.38.14-2.76.23-4.13.19-2.67.45-5.33.79-7.98"/>
    <path class="cls-3" d="M204.57,311.53c2.68,4.06,5.52,7.99,8.57,11.78,1.53,1.89,3.1,3.74,4.73,5.55,1.63,1.81,3.3,3.57,5.04,5.27,1.74,1.71,3.52,3.35,5.37,4.94,1.85,1.59,3.75,3.1,5.72,4.54,1.97,1.44,3.99,2.79,6.09,4.04,1.06.63,2.13,1.24,3.22,1.82,1.07.57,2.14,1.1,3.24,1.61"/>
    <line class="cls-3" x1="232.81" y1="360.02" x2="232.81" y2="360.42"/>
    <line class="cls-3" x1="27.24" y1="241.18" x2="27.24" y2="241.19"/>
    <path class="cls-3" d="M204.42,311.65c.05-.02.12-.07.15-.12"/>
    <path class="cls-3" d="M246.43,351.26c.07-.02.12-.1.12-.17"/>
    <path class="cls-3" d="M92.98,156.43c9.11,1.6,19.4,1.57,28.54.99"/>
    <path class="cls-3" d="M246.55,351.08c1.86.87,3.75,1.64,5.69,2.3,1.94.67,3.9,1.22,5.91,1.66,2.01.43,4.03.73,6.08.89,2.05.15,4.09.16,6.14,0"/>
    <path class="cls-3" d="M159.93,474.26c-23-1.43-47.11-1.22-70.07.81"/>
    <path class="cls-3" d="M454.13,276.04c-1.55-6.18-2.89-12.46-4.11-18.71-.59-3.03-1.16-6.06-1.7-9.1-.29-1.6-.56-3.2-.84-4.8-.28-1.65-.56-3.31-.83-4.97-.25-1.52-.49-3.04-.73-4.56-.24-1.57-.48-3.13-.72-4.7-.48-3.23-.95-6.45-1.4-9.69-.43-3.12-.85-6.24-1.25-9.37-.2-1.59-.4-3.19-.6-4.78-.2-1.62-.39-3.23-.58-4.85-.37-3.15-.73-6.31-1.07-9.46-.35-3.19-.67-6.39-.99-9.59-.63-6.36-1.19-12.71-1.7-19.08-.13-1.6-.25-3.2-.37-4.81-.12-1.6-.23-3.2-.35-4.8-.22-3.17-.42-6.33-.61-9.5-.1-1.63-.19-3.27-.28-4.9-.09-1.61-.17-3.21-.25-4.82-.08-1.58-.15-3.17-.22-4.75-.07-1.56-.13-3.11-.18-4.67"/>
    <path class="cls-3" d="M435.38,124.13c-.19-5.41-.32-11.76-.35-17.18-.02-2.86,0-5.72.03-8.59.04-2.86.1-5.72.2-8.59.2-5.52.56-11.64,1.24-17.13.19-1.56.41-3.11.69-4.66.22-1.27.48-2.54.79-3.8.26-1.03.55-2.04.91-3.03.27-.74.6-1.5,1.02-2.18.29-.48.66-.97,1.11-1.33.34-.27.73-.45,1.18-.48"/>
    <line class="cls-3" x1="-143.75" y1="429.77" x2="77.88" y2="508.91"/>
    <path class="cls-3" d="M19.47,457.63c-1.16,2.66-2.4,5.27-3.6,7.91"/>
    <path class="cls-3" d="M19.37,457.7c-.12-1.17-.29-2.6-.51-3.76-.07-.41-.15-.81-.27-1.21-.04-.13-.08-.26-.13-.39-.03-.07-.07-.16-.13-.21-.05-.04-.09-.05-.14,0-.03.03-.05.06-.07.1-.03.06-.04.11-.06.17-.05.19-.08.38-.11.57-.04.28-.07.56-.09.84-.16,2.01-.16,5.58-.16,7.59"/>
    <path class="cls-3" d="M261.38,468.01s-.01-.03-.02-.04"/>
    <line class="cls-3" x1="51.89" y1="471.62" x2="50.08" y2="470.94"/>
    <path class="cls-3" d="M493.51,56.65c-2.43-1.11-5.36-1.85-7.97-2.3-1.37-.24-2.74-.42-4.12-.55-1.26-.12-2.89-.22-4.16-.21"/>
    <path class="cls-3" d="M556.96,185.04c.2,3.61.29,7.22.24,10.84-.05,3.28-.21,6.55-.54,9.81-.21,2.05-.48,4.09-.84,6.12-.32,1.82-.72,3.61-1.21,5.39-.43,1.56-.94,3.08-1.57,4.57-.54,1.28-1.15,2.51-1.91,3.68-.93,1.45-2.1,2.83-3.56,3.81-1.26.85-2.66,1.34-4.19,1.4-1.65.06-3.24-.4-4.7-1.09-1.86-.89-3.56-2.2-5.04-3.59-1.06-.98-2.04-2.03-2.97-3.13-1.06-1.25-2.05-2.55-2.99-3.89-2.2-3.12-4.16-6.49-5.91-9.86-6.16-11.85-10.86-26-14.03-38.86-3.23-13.11-5.5-27.34-6.13-40.84"/>
    <path class="cls-3" d="M486.47,230.69c1.5-1.64,3.34-3.25,5.13-4.56,1.75-1.28,3.92-2.61,6.03-3.28,1.04-.33,2.28-.57,3.4-.34,1.21.24,2.07.99,2.44,2.16.35,1.1.18,2.32-.16,3.36-.36,1.08-.95,2.1-1.63,3"/>
    <path class="cls-3" d="M480.1,54.34c-.91-.24-1.82-.47-2.72-.72-.27-.07-.54-.15-.81-.23-.1-.03-.2-.07-.3-.11-.07-.03-.13-.05-.19-.1-.13-.1.08-.14.18-.16.15-.03.31-.04.46-.04.22-.01.43-.01.65-.01,1.72,0,3.92.22,5.61.46,1.87.26,3.7.62,5.52,1.11,1.76.47,3.64,1.11,5.28,1.92"/>
    <path class="cls-3" d="M435.58,124.12c.06,1.87.14,3.74.22,5.61.08,1.9.17,3.81.26,5.71.1,1.94.2,3.87.31,5.8.11,1.97.23,3.93.35,5.9.12,1.89.24,3.77.38,5.66.13,1.91.27,3.83.42,5.74.15,1.93.3,3.87.46,5.8s.32,3.87.49,5.8c.17,1.92.34,3.84.52,5.77.18,1.91.36,3.83.55,5.74.38,3.81.78,7.62,1.2,11.42.22,1.95.44,3.89.66,5.84.23,1.93.46,3.86.69,5.79.23,1.9.47,3.79.72,5.68.24,1.86.49,3.71.74,5.57,2.01,14.81,4.56,30.83,7.59,45.48.44,2.11.89,4.22,1.36,6.33.44,1.97.89,3.93,1.37,5.88.83,3.42,1.72,6.83,2.7,10.21.86,2.96,1.81,5.95,2.9,8.84.44,1.17.91,2.32,1.42,3.46.42.94.87,1.87,1.37,2.77.4.72.83,1.42,1.32,2.08.37.5.79.99,1.27,1.4.35.3.76.57,1.21.72.38.12.77.13,1.16.02"/>
    <path class="cls-3" d="M501.57,231.16c-1.41,1.81-3.31,3.3-5.29,4.42-1.96,1.11-4.25,2.01-6.48,2.45-1.09.22-2.33.36-3.46.27-1.02-.09-2.47-.41-2.84-1.62-.33-1.08.35-2.42.85-3.25.58-.96,1.36-1.91,2.11-2.73"/>
    <path class="cls-3" d="M494.48,56.82c.43.24.85.49,1.24.78.3.22.61.48.85.76.17.2.46.62.13.82-.08.05-.16.07-.24.08-.12.02-.24.02-.36.02-.35-.01-.69-.08-1.03-.16-1.35-.31-3.68-1.15-4.98-1.61-1.65-.58-3.3-1.15-4.96-1.68-1.66-.53-3.34-1.02-5.03-1.48"/>
    <path class="cls-3" d="M17.73,454.51c.03-.75.08-1.77.19-2.51.03-.19.06-.37.1-.55.03-.11.06-.23.12-.33.07-.14.16-.17.27-.04.04.05.07.11.1.17.04.08.07.17.11.26.09.25.15.5.21.75.34,1.42.6,3.54.76,4.98"/>
    <path class="cls-3" d="M172.85,462.55c-.7-.08-1.41-.12-2.12-.13"/>
    <path class="cls-3" d="M123.42,460.43c.72-.02,1.44,0,2.16.05"/>
    <path class="cls-3" d="M442.07,57.21c-.43.12-.79.38-1.1.68-.42.41-.75.92-1.03,1.42-.39.71-.69,1.44-.96,2.2-.35.98-.62,1.97-.87,2.97-.31,1.26-.56,2.53-.78,3.81-.26,1.53-.48,3.06-.67,4.6-.67,5.47-1.03,11.54-1.23,17.04-.39,11.06-.24,23.12.14,34.17"/>
    <path class="cls-3" d="M435.49,124.18s.06-.06.08-.06"/>
    <path class="cls-3" d="M194.57,441.62c.43-.36,1.08-.62,1.65-.61"/>
    <path class="cls-3" d="M102.81,437.6c-.38-.43-1.03-.72-1.6-.75"/>
    <line class="cls-3" x1="305.8" y1="264.17" x2="311.27" y2="267"/>
    <line class="cls-3" x1="289.76" y1="319.65" x2="289.52" y2="289.27"/>
    <path class="cls-3" d="M378.59,43c3.05,1.86,5.92,3.93,8.65,6.23,1.35,1.14,2.65,2.32,3.91,3.55,1.28,1.25,2.51,2.55,3.7,3.89,2.36,2.67,4.5,5.48,6.46,8.44.97,1.47,1.89,2.96,2.76,4.49.89,1.55,1.72,3.13,2.5,4.73.77,1.58,1.49,3.17,2.17,4.79.69,1.65,1.33,3.32,1.92,5.01.58,1.66,1.12,3.33,1.61,5.01.5,1.71.95,3.44,1.36,5.17.4,1.71.76,3.42,1.07,5.15.32,1.75.6,3.51.84,5.28.47,3.51.77,7.02.93,10.56"/>
    <path class="cls-3" d="M416.57,118.28c.05,2.42.02,4.84-.07,7.25-.09,2.46-.25,4.9-.47,7.35-.45,4.87-1.15,9.68-2.09,14.47-.47,2.39-.99,4.76-1.57,7.12-.29,1.18-.6,2.37-.91,3.54-.32,1.18-.65,2.36-1,3.54-.69,2.33-1.43,4.64-2.23,6.94-.8,2.32-1.66,4.62-2.56,6.9-.9,2.26-1.84,4.5-2.84,6.72-1,2.24-2.05,4.45-3.15,6.64-1.09,2.19-2.24,4.35-3.43,6.49-1.19,2.13-2.41,4.24-3.69,6.31-1.28,2.09-2.6,4.14-3.97,6.17-1.37,2.03-2.78,4.03-4.23,5.99-2.91,3.94-5.98,7.74-9.22,11.42"/>
    <path class="cls-3" d="M374.97,224.99c3.24-3.67,6.31-7.46,9.21-11.4,1.45-1.97,2.86-3.96,4.22-5.99,1.37-2.03,2.68-4.08,3.96-6.16,1.28-2.08,2.5-4.18,3.69-6.31,1.19-2.14,2.33-4.3,3.42-6.48,1.1-2.19,2.15-4.4,3.15-6.64.99-2.22,1.94-4.45,2.83-6.71.9-2.28,1.75-4.57,2.55-6.89.79-2.29,1.53-4.6,2.22-6.93.35-1.17.68-2.35,1-3.53.32-1.18.62-2.36.91-3.54.58-2.36,1.1-4.73,1.57-7.11.94-4.79,1.63-9.6,2.08-14.47.22-2.44.38-4.89.47-7.34.09-2.42.11-4.83.07-7.24"/>
    <path class="cls-3" d="M416.24,115.29c-.2-4.62-.66-9.2-1.4-13.77-.37-2.28-.81-4.54-1.33-6.79-.52-2.25-1.11-4.48-1.78-6.69"/>
    <path class="cls-3" d="M466.92,303.24c-.55.16-1.09.06-1.58-.19-.31-.16-.57-.35-.83-.58-.31-.27-.59-.57-.86-.89-.37-.45-.7-.93-1.02-1.42-.38-.6-.73-1.22-1.05-1.85-1.14-2.2-2.17-4.8-3-7.13-1.67-4.68-3.16-10.03-4.38-14.83"/>
    <path class="cls-3" d="M374.97,224.99c.05.06.11.11.17.14"/>
    <path class="cls-3" d="M419.32,118.43c2.5,1.4,5.05,2.65,7.75,3.67,1.34.51,2.7.94,4.09,1.29,1.39.35,2.79.6,4.22.75"/>
    <path class="cls-3" d="M454.2,276.34c-.02-.1-.05-.2-.08-.3"/>
    <path class="cls-3" d="M254.93,401.43c.11-.01.22-.03.32-.06.07-.02.24-.08.25-.19"/>
    <path class="cls-3" d="M212.57,371.07c-.22.11-.42.25-.6.43"/>
    <path class="cls-3" d="M215.06,379.68c.35.03.71,0,1.05-.13"/>
    <path class="cls-3" d="M216.11,379.55c.4-.14.74-.4,1.01-.72"/>
    <path class="cls-3" d="M217.12,378.83c.18-.07.38-.02.54.05.17.08.32.2.42.35"/>
    <path class="cls-3" d="M214.52,370.93c-.59-.18-1.22-.18-1.8.07"/>
    <path class="cls-3" d="M217.12,378.83c.51-.61.73-1.43.77-2.19.05-.78-.07-1.58-.32-2.32-.25-.74-.63-1.45-1.13-2.05-.5-.59-1.15-1.1-1.92-1.33"/>
    <path class="cls-3" d="M211.8,370.9c.86-.99,2.11-1.26,3.34-.84,1.17.4,2.1,1.33,2.73,2.33.64,1.02,1.04,2.23,1.12,3.42.08,1.14-.12,2.49-.91,3.43"/>
    <path class="cls-3" d="M276.67,235.72s-.06,0-.07-.03"/>
    <path class="cls-3" d="M292.45,246.04c-.95.18-1.98.24-2.94.19-.94-.05-2-.21-2.89-.54"/>
    <line class="cls-3" x1="289.18" y1="322.21" x2="289.16" y2="319.79"/>
    <line class="cls-3" x1="290.89" y1="324.58" x2="290.89" y2="325.43"/>
    <line class="cls-3" x1="292.04" y1="324.54" x2="292.05" y2="325.02"/>
    <line class="cls-3" x1="290" y1="324.78" x2="290" y2="324"/>
    <line class="cls-3" x1="290.21" y1="325.35" x2="290.2" y2="323.96"/>
    <path class="cls-3" d="M294.78,247.62c.13.15.35.14.52.09"/>
    <path class="cls-3" d="M285.95,249.39c.09.1.18.2.27.29"/>
    <line class="cls-3" x1="286.25" y1="245.84" x2="286.22" y2="249.69"/>
    <path class="cls-3" d="M295.3,247.71c.43.48.78,1.05.92,1.69.15.64.07,1.3-.28,1.87-.34.57-.87.97-1.46,1.24-.59.27-1.24.42-1.89.48-1.28.12-2.64-.1-3.85-.51-1.2-.4-2.43-1.06-3.36-1.93"/>
    <path class="cls-3" d="M285.08,250.22c-.43-.47-.82-1.05-.97-1.69-.16-.67-.03-1.31.4-1.86.41-.52,1.02-.87,1.62-1.1.61-.23,1.28-.36,1.93-.41,1.3-.1,2.68.08,3.91.49,1.21.4,2.46,1.08,3.33,2.05"/>
    <path class="cls-3" d="M287.4,245.47c1.3.36,2.87.42,4.2.26"/>
    <path class="cls-3" d="M285.05,247.3c0,.79.42,1.53.9,2.09"/>
    <path class="cls-3" d="M285.95,249.39c-.09.38-.49.75-.87.83"/>
    <path class="cls-3" d="M286.22,249.69c1.29,1.31,3.29,2.19,5.11,2.36.92.08,1.95,0,2.8-.44.89-.45,1.48-1.24,1.45-2.27"/>
    <path class="cls-3" d="M285.39,250.54c-.11-.1-.21-.21-.31-.32"/>
    <path class="cls-3" d="M255.04,404.73s0,.02,0,.02"/>
  </g>
  <g id="_图层_4" data-name="图层 4">
    <g>
      <line class="cls-1" x1="291.61" y1="339.54" x2="291.48" y2="333.54"/>
      <line class="cls-2" x1="291.19" y1="319.67" x2="290.18" y2="271.12"/>
      <line class="cls-1" x1="290.03" y1="264.19" x2="289.91" y2="258.19"/>
      <polygon class="cls-4" points="297.93 260.36 289.67 246.71 281.98 260.69 297.93 260.36"/>
    </g>
  </g>
</svg>