<?xml version="1.0" encoding="UTF-8"?>
<svg xmlns="http://www.w3.org/2000/svg" viewBox="0 0 590.26 510.35">
  <defs>
    <style>
      .cls-1 {
        fill: red;
      }

      .cls-1, .cls-2 {
        stroke-width: 0px;
      }

      .cls-3 {
        fill: none;
        stroke: #000;
        stroke-linecap: round;
        stroke-linejoin: round;
      }

      .cls-2 {
        fill: #bfbfbf;
      }
    </style>
  </defs>
  <g id="_图层_3" data-name="图层 3">
    <path class="cls-2" d="M310.32,234.09c-.14.04-.58.13-.58.13l-6.89,7.24.18,55.01-3.67,3.27-6.63-.9-8.45,14.8-.39,17.5-9.68-1.72-8.82,10.55v7.26l-9.82-1.74-7.57,7.53-2.16,1.36h-3.76s-7.03-4.41-7.03-4.41l-15.99-13.8-.04-2.27-1.35-2.9-4.24-1.08-11.53-15.57.17-27.24-12.35-7.42-8.71-4.98-2.94.54-14.85-5.65-1.11,1.2-.06,5.6-2.16,1.02.61,17.08,1.17,10.26,2.93,14.84,5,15.56,3.93,8.71,4.59,7.98,3.86,5.44,2.9,3.51,6.37,6.27,6.46,4.57,5.8,3.58,5.67,3.55,18.45,11.63,10.23,5.81,9.49,3.16,9.52,1.81,13.56-.62,11.86-2.78,11.03-5.15,7.64-4.72,7.18-5.44,6.7-6.02,12.23-13.26,7.48-10.9,10.29-17.85,7.59-16.98,5.82-16.92,3.51-12.78,3.22-15.95,1.58-12.36,1.35-18.35.05-7.35-45.73-4.89-5.27-.57-1.56.49-1.13,1.28-2.35-.2-1.26.27-.39,3.98Z"/>
  </g>
  <g id="Make2D::可见线::曲线">
    <path class="cls-3" d="M201.11,430.86c-21.03-.59-43.27-.22-64.27,1.29"/>
    <path class="cls-3" d="M262.65,435.86c-19.73-2.93-41.64-4.45-61.55-5.01"/>
    <path class="cls-3" d="M265.25,441.1c-.85-.13-1.7-.26-2.55-.39"/>
    <line class="cls-3" x1="310.21" y1="453.94" x2="310.34" y2="481.85"/>
    <path class="cls-3" d="M60.43,452.65c-.01.6.1,1.15.32,1.7"/>
    <path class="cls-3" d="M52.47,494.15s.01-.05.02-.07"/>
    <line class="cls-3" x1="302.05" y1="469.11" x2="302.03" y2="463.65"/>
    <line class="cls-3" x1="308.53" y1="496.72" x2="308.53" y2="496.36"/>
    <path class="cls-3" d="M250.62,44.64c6.35-.65,12.66-.04,18.74,1.93,6.28,2.03,11.92,5.38,16.89,9.67,4.6,3.97,8.53,8.65,11.85,13.7,3.74,5.67,6.74,11.85,9.14,18.19,2.18,5.78,3.88,11.77,5.17,17.8,1.4,6.55,2.32,13.12,2.85,19.79,1.02,12.78.59,25.81-1.01,38.51-1.6,12.72-4.42,25.4-8.34,37.61-3.92,12.19-9.03,24.16-15.34,35.32-3.3,5.84-6.91,11.42-10.94,16.78-3.71,4.93-7.76,9.65-12.16,13.98-4.82,4.75-10.13,9.11-15.88,12.72-5.12,3.21-10.63,5.86-16.44,7.59"/>
    <path class="cls-3" d="M372.15,116.03c-2.81-15.23-7.99-30.83-16.48-44.03-4.25-6.61-9.41-12.72-15.54-17.71-6.15-5.01-13.13-8.75-20.85-10.79"/>
    <path class="cls-3" d="M524.96,228.74c.69.25,1.42.33,2.14.18"/>
    <line class="cls-3" x1="524.77" y1="221.49" x2="524.96" y2="228.74"/>
    <path class="cls-3" d="M526.12,221.32c-.11.09-.24.14-.37.18"/>
    <path class="cls-3" d="M527.01,218.75c.01.48-.03.93-.16,1.4-.12.43-.35.9-.73,1.18"/>
    <path class="cls-3" d="M524.82,214.6c.47.16.85.52,1.13.89"/>
    <line class="cls-3" x1="513.46" y1="210.78" x2="524.82" y2="214.6"/>
    <line class="cls-3" x1="513.28" y1="203.46" x2="513.46" y2="210.78"/>
    <line class="cls-3" x1="523.64" y1="191.28" x2="527.53" y2="194.81"/>
    <line class="cls-3" x1="523.49" y1="185.75" x2="523.64" y2="191.28"/>
    <line class="cls-3" x1="512.97" y1="190.06" x2="531.05" y2="206.36"/>
    <line class="cls-3" x1="512.73" y1="180.73" x2="512.97" y2="190.06"/>
    <line class="cls-3" x1="512.42" y1="167.68" x2="530.21" y2="174.01"/>
    <line class="cls-3" x1="512.24" y1="160.37" x2="512.42" y2="167.68"/>
    <line class="cls-3" x1="512.03" y1="149.9" x2="520.05" y2="163.09"/>
    <line class="cls-3" x1="511.81" y1="140.99" x2="512.03" y2="149.9"/>
    <line class="cls-3" x1="529.5" y1="147.49" x2="521.09" y2="156.02"/>
    <line class="cls-3" x1="511.19" y1="118.68" x2="511.42" y2="127.9"/>
    <line class="cls-3" x1="521.92" y1="125.16" x2="522.05" y2="130.46"/>
    <line class="cls-3" x1="511.42" y1="127.9" x2="529.39" y2="144.43"/>
    <path class="cls-3" d="M235.17,288.23c-6.37,1.9-12.98,2.66-19.62,1.93-3.3-.36-6.53-1.09-9.66-2.17-3.16-1.09-6.11-2.48-8.97-4.21"/>
    <path class="cls-3" d="M248.48,308.7c-12.47-2.33-22.96-9.16-31.25-18.4"/>
    <path class="cls-3" d="M250.73,312.74c-7.13-1.32-13.75-4.11-19.77-8.1-6-3.98-11.2-9.03-15.62-14.66"/>
    <path class="cls-3" d="M576.42,255.9c.11.07.22.22.15.37"/>
    <path class="cls-3" d="M298.51,389.55c2.39,1.05,4.99,2.38,7.11,3.95,1.94,1.44,4.35,3.72,4.36,6.54"/>
    <path class="cls-3" d="M238.4,396.41c-.67,1.73-.27,3.74.83,5.17.55.72,1.29,1.31,2.14,1.65.85.34,1.79.41,2.67.11"/>
    <path class="cls-3" d="M61.51,398.63c.02-1,.34-1.93.84-2.79.64-1.09,1.55-2.03,2.5-2.83,1.29-1.09,2.78-2.02,4.26-2.82,1.94-1.05,3.99-1.95,6.04-2.74,2.64-1.02,5.32-1.88,8.04-2.67,3.22-.93,6.46-1.72,9.73-2.44,11.68-2.57,24.68-4.31,36.57-5.46,12.17-1.17,24.7-1.88,36.91-2.2,12.34-.32,24.66-.27,36.99.15"/>
    <path class="cls-3" d="M243.93,403.05c-.2.18-.4.34-.63.48"/>
    <path class="cls-3" d="M241.63,398.5c-.37-.23-.75-.45-1.13-.65"/>
    <line class="cls-3" x1="-163.47" y1="496.03" x2="67.2" y2="522.75"/>
    <line class="cls-3" x1="511.19" y1="118.68" x2="511.33" y2="118.65"/>
    <line class="cls-3" x1="511.42" y1="127.9" x2="511.56" y2="127.86"/>
    <line class="cls-3" x1="529.39" y1="144.43" x2="529.54" y2="144.39"/>
    <line class="cls-3" x1="529.54" y1="144.39" x2="529.35" y2="137.2"/>
    <line class="cls-3" x1="529.35" y1="137.2" x2="526.08" y2="134.18"/>
    <line class="cls-3" x1="526.08" y1="134.18" x2="525.82" y2="124.39"/>
    <line class="cls-3" x1="521.92" y1="125.16" x2="522.06" y2="125.13"/>
    <line class="cls-3" x1="525.82" y1="124.39" x2="522.06" y2="125.13"/>
    <line class="cls-3" x1="528.81" y1="122.62" x2="528.96" y2="122.59"/>
    <line class="cls-3" x1="528.96" y1="122.59" x2="528.76" y2="115.35"/>
    <line class="cls-3" x1="528.76" y1="115.35" x2="511.33" y2="118.65"/>
    <line class="cls-3" x1="530.21" y1="174.01" x2="530.36" y2="173.98"/>
    <line class="cls-3" x1="530.36" y1="173.98" x2="530.16" y2="166.72"/>
    <line class="cls-3" x1="530.16" y1="166.72" x2="522.4" y2="163.93"/>
    <line class="cls-3" x1="522.4" y1="163.93" x2="529.88" y2="156.3"/>
    <line class="cls-3" x1="529.5" y1="147.49" x2="529.64" y2="147.46"/>
    <line class="cls-3" x1="529.88" y1="156.3" x2="529.64" y2="147.46"/>
    <line class="cls-3" x1="511.81" y1="140.99" x2="511.95" y2="140.96"/>
    <line class="cls-3" x1="512.03" y1="149.9" x2="512.18" y2="149.87"/>
    <line class="cls-3" x1="512.18" y1="149.87" x2="520.26" y2="163.17"/>
    <line class="cls-3" x1="512.24" y1="160.37" x2="512.39" y2="160.34"/>
    <line class="cls-3" x1="512.42" y1="167.68" x2="512.57" y2="167.65"/>
    <line class="cls-3" x1="530.6" y1="184.17" x2="530.41" y2="176.92"/>
    <line class="cls-3" x1="512.73" y1="180.73" x2="512.88" y2="180.7"/>
    <line class="cls-3" x1="512.97" y1="190.06" x2="513.11" y2="190.03"/>
    <line class="cls-3" x1="512.88" y1="180.7" x2="513.11" y2="190.03"/>
    <line class="cls-3" x1="531.05" y1="206.36" x2="531.19" y2="206.32"/>
    <line class="cls-3" x1="531.19" y1="206.32" x2="531" y2="198.96"/>
    <line class="cls-3" x1="531" y1="198.96" x2="517.64" y2="187.01"/>
    <line class="cls-3" x1="523.49" y1="185.75" x2="523.49" y2="185.75"/>
    <line class="cls-3" x1="523.64" y1="191.28" x2="523.78" y2="191.25"/>
    <line class="cls-3" x1="523.64" y1="185.72" x2="523.78" y2="191.25"/>
    <line class="cls-3" x1="527.53" y1="194.81" x2="527.68" y2="194.78"/>
    <line class="cls-3" x1="527.68" y1="194.78" x2="527.42" y2="184.87"/>
    <path class="cls-3" d="M525.49,207.55c-.25-.13-.95-.36-1.22-.43"/>
    <line class="cls-3" x1="513.28" y1="203.46" x2="513.42" y2="203.43"/>
    <line class="cls-3" x1="524.27" y1="207.12" x2="513.42" y2="203.43"/>
    <line class="cls-3" x1="513.46" y1="210.78" x2="513.61" y2="210.75"/>
    <line class="cls-3" x1="513.61" y1="210.75" x2="524.97" y2="214.57"/>
    <line class="cls-3" x1="109.64" y1="248.05" x2=".93" y2="226.76"/>
    <path class="cls-3" d="M524.97,214.57c.47.16.85.52,1.13.89"/>
    <path class="cls-3" d="M227.38,46.3c5.67-.22,11.21.67,16.51,2.72,5.91,2.28,11.12,5.83,15.63,10.22,4.01,3.9,7.4,8.39,10.26,13.17,3.23,5.4,5.81,11.22,7.85,17.16,3.84,11.2,5.88,23.2,6.61,34.96.37,5.93.42,11.85.18,17.79-.12,2.94-.31,5.87-.57,8.79-.27,3-.6,6-1.01,8.99-3.15,23.18-10.64,46.89-22.21,67.34-3.07,5.42-6.41,10.61-10.14,15.59-3.4,4.54-7.11,8.89-11.14,12.89-4.57,4.54-9.59,8.7-15.07,12.14-4.59,2.88-9.5,5.26-14.69,6.85"/>
    <path class="cls-3" d="M209.58,274.92c-11.11,3.41-22.49,2.89-32.96-2.57"/>
    <path class="cls-3" d="M527.16,218.72c.01.48-.03.93-.16,1.4-.12.43-.35.9-.73,1.18"/>
    <line class="cls-3" x1="524.77" y1="221.49" x2="524.92" y2="221.46"/>
    <path class="cls-3" d="M526.27,221.29c-.14.1-.28.17-.45.2"/>
    <line class="cls-3" x1="524.96" y1="228.74" x2="525.11" y2="228.71"/>
    <path class="cls-3" d="M218.74,291.57c.04.15.07.31.1.46"/>
    <path class="cls-3" d="M303.61,409.45c1.62,2.42,1.81,5.53.5,8.13"/>
    <path class="cls-3" d="M581.3,243.51s.04-.01.06-.03"/>
    <line class="cls-3" x1="304.51" y1="412.6" x2="303.85" y2="412.64"/>
    <path class="cls-3" d="M459.39,54.36s0,.02.01.03c0,.03.02.05.04.07.05.08.12.15.19.21.1.09.21.17.32.25.22.15.45.29.68.42.47.26.95.49,1.43.72"/>
    <path class="cls-3" d="M304.69,414.34s.04.03.05.04c0,.02.02.04.02.06"/>
    <path class="cls-3" d="M588.23,193.39c.07,2.13.1,4.27.09,6.4-.01,2.14-.06,4.27-.15,6.4-.19,4.27-.54,8.51-1.08,12.75-.54,4.24-1.26,8.44-2.18,12.61-.93,4.18-2.05,8.28-3.39,12.34"/>
    <path class="cls-3" d="M304.28,413.25c-.16-.28-.35-.53-.56-.77"/>
    <path class="cls-3" d="M400.73,150.66c-.06-4.28-.03-8.56.11-12.84.07-2.17.16-4.33.28-6.49.12-2.11.26-4.22.44-6.33.18-2.17.39-4.34.63-6.5.23-2.09.5-4.18.79-6.26.31-2.17.65-4.33,1.04-6.48.37-2.06.77-4.11,1.22-6.15,1.79-8.18,4.35-16.75,8.03-24.33.99-2.03,2.05-4,3.25-5.92,1.07-1.73,2.23-3.38,3.51-4.97,1.43-1.77,2.97-3.39,4.72-4.86,1.56-1.31,3.2-2.44,5.02-3.36"/>
    <line class="cls-3" x1="525.82" y1="221.49" x2="525.68" y2="221.52"/>
    <path class="cls-3" d="M527.25,228.89c1.78-.37,2.88-2,3.46-3.51.61-1.58.82-3.38.79-5.05"/>
    <line class="cls-3" x1="479.02" y1="60.78" x2="478.37" y2="61"/>
    <path class="cls-3" d="M349.41,172.48c.08-.05.17-.1.25-.15"/>
    <path class="cls-3" d="M348.73,188.8c-1.14-.26-2.01-1.06-2.59-2.02"/>
    <line class="cls-3" x1="516.07" y1="124.96" x2="528.81" y2="122.62"/>
    <path class="cls-3" d="M576.92,255.54c-2.13,4.62-4.57,9.03-7.37,13.27-2.81,4.26-5.92,8.22-9.38,11.96-3.46,3.74-7.16,7.15-11.16,10.31-1.98,1.57-4.02,3.06-6.11,4.49-2.1,1.44-4.25,2.8-6.43,4.1-4.37,2.6-8.86,4.92-13.47,7.05-4.61,2.13-9.3,4.06-14.05,5.84-4.75,1.79-9.54,3.43-14.36,5-2.36.77-4.72,1.52-7.08,2.26-2.47.77-4.94,1.53-7.42,2.27"/>
    <line class="cls-3" x1="470.14" y1="270.54" x2="466.07" y2="271.56"/>
    <path class="cls-3" d="M525.95,215.5c.67.9,1.03,2.15,1.06,3.25"/>
    <line class="cls-3" x1="511.33" y1="118.65" x2="511.56" y2="127.86"/>
    <line class="cls-3" x1="511.56" y1="127.86" x2="529.54" y2="144.39"/>
    <line class="cls-3" x1="516.06" y1="124.95" x2="528.96" y2="122.59"/>
    <line class="cls-3" x1="529.64" y1="147.46" x2="521.14" y2="156.09"/>
    <line class="cls-3" x1="511.95" y1="140.96" x2="512.18" y2="149.87"/>
    <line class="cls-3" x1="512.39" y1="160.34" x2="512.57" y2="167.65"/>
    <line class="cls-3" x1="512.57" y1="167.65" x2="530.36" y2="173.98"/>
    <line class="cls-3" x1="527.42" y1="184.87" x2="530.6" y2="184.17"/>
    <line class="cls-3" x1="530.41" y1="176.92" x2="512.88" y2="180.7"/>
    <line class="cls-3" x1="513.11" y1="190.03" x2="531.19" y2="206.32"/>
    <line class="cls-3" x1="517.64" y1="187.01" x2="523.64" y2="185.72"/>
    <line class="cls-3" x1="523.78" y1="191.25" x2="527.68" y2="194.78"/>
    <line class="cls-3" x1="513.42" y1="203.43" x2="513.61" y2="210.75"/>
    <path class="cls-3" d="M526.1,215.47c.67.9,1.03,2.15,1.06,3.25"/>
    <path class="cls-3" d="M531.5,220.34c-.04-2.42-.57-4.92-1.51-7.14-.88-2.06-2.39-4.5-4.5-5.64"/>
    <path class="cls-3" d="M367.08,144.94c-.11-10.44-1.03-20.98-2.94-31.25-1.9-10.24-4.83-20.47-9.05-30.02-4.19-9.5-9.8-18.64-17.09-26.18-7.33-7.57-16.22-13.34-26.54-16.07"/>
    <line class="cls-3" x1="522.06" y1="125.13" x2="521.92" y2="125.16"/>
    <path class="cls-3" d="M356.99,144.59c1.54.16,3.07.32,4.61.48"/>
    <path class="cls-3" d="M379.5,146.13c-1.36-.3-2.71-.61-4.07-.94"/>
    <path class="cls-3" d="M379.5,146.13c.02.58.03,1.17.04,1.75"/>
    <path class="cls-3" d="M63.29,438.86c1.09-1.02,2.38-1.87,3.66-2.6,1.75-.99,3.62-1.84,5.48-2.57,2.4-.95,4.85-1.75,7.32-2.48,3.01-.88,6.04-1.64,9.1-2.32,4.22-.94,8.47-1.73,12.74-2.43,4.84-.79,9.7-1.46,14.57-2.04,17.92-2.14,37.21-3.19,55.24-3.48,18.22-.29,37.17.16,55.34,1.44,17.3,1.22,37.84,3.47,54.82,7.39"/>
    <path class="cls-3" d="M379.53,147.88c.01.58.02,1.17.02,1.75"/>
    <path class="cls-3" d="M62.97,439.16c-1.18,1.11-2.32,2.6-2.35,4.37"/>
    <path class="cls-3" d="M375.21,148.7c.07-.01.19-.02.26,0"/>
    <path class="cls-3" d="M375.43,145.19c-.07-.02-.19-.02-.26.02"/>
    <path class="cls-3" d="M379.5,146.13c-.31.08-.57.33-.75.58-.19.27-.32.55-.4.87s-.11.63-.08.96c.03.31.13.64.35.88"/>
    <path class="cls-3" d="M60.8,453.67c-.24-.57-.36-1.18-.35-1.8"/>
    <path class="cls-3" d="M310.17,444.84c0-1.77-1.11-3.27-2.27-4.39"/>
    <line class="cls-3" x1="247.39" y1="353.95" x2="247.41" y2="353.01"/>
    <path class="cls-3" d="M253.63,400.48c9.38,1.52,18.72.45,27.65-2.55,8.89-2.98,17.09-7.77,24.44-13.49,14.66-11.42,26.52-27.01,35.44-43,9.07-16.25,15.82-34.12,20.27-52.14,4.45-18.05,6.77-36.95,6.58-55.56"/>
    <path class="cls-3" d="M479.82,322.19c-22.25,6.61-44.61,12.82-67.04,18.81-22.42,5.99-44.91,11.75-67.39,17.5"/>
    <path class="cls-3" d="M228.85,391.19c6.65,4.49,14.02,7.55,21.98,8.84"/>
    <path class="cls-3" d="M228.85,391.19c-9.66-6.52-19.52-12.66-29.61-18.49"/>
    <path class="cls-3" d="M313.95,251.4c.3-2.64.54-5.28.73-7.93"/>
    <path class="cls-3" d="M246.95,354.19c2.39-2.61,4.77-5.22,7.15-7.83"/>
    <path class="cls-3" d="M163.5,301.37c1.32,9.89,3.61,19.83,7.11,29.2"/>
    <line class="cls-3" x1="159.93" y1="277.4" x2="161.87" y2="276.79"/>
    <path class="cls-3" d="M219.1,333.41c-.48-.8-.95-1.6-1.4-2.42"/>
    <line class="cls-3" x1="172.43" y1="281.99" x2="171.05" y2="282.42"/>
    <line class="cls-3" x1="162.71" y1="269.76" x2="163.26" y2="269.59"/>
    <line class="cls-3" x1="162.71" y1="269.76" x2="162.15" y2="270.79"/>
    <line class="cls-3" x1="162.09" y1="276.38" x2="162.15" y2="270.79"/>
    <path class="cls-3" d="M162.09,276.38c0,.13-.07.36-.23.41"/>
    <line class="cls-3" x1="315.23" y1="228.83" x2="314.61" y2="229.93"/>
    <line class="cls-3" x1="310.71" y1="230.25" x2="311.96" y2="229.85"/>
    <line class="cls-3" x1="304.37" y1="241.22" x2="302.83" y2="241.7"/>
    <path class="cls-3" d="M266.92,338.37c-.5.53-1,1.06-1.51,1.59"/>
    <path class="cls-3" d="M188.95,360.53c3.36,3.36,7.1,6.33,11.22,8.71"/>
    <line class="cls-3" x1="255.59" y1="345.48" x2="265.4" y2="347.22"/>
    <line class="cls-3" x1="224.28" y1="349.23" x2="224.24" y2="358.7"/>
    <path class="cls-3" d="M272.55,331.14c.51-.57,1.01-1.14,1.51-1.72"/>
    <path class="cls-3" d="M254.1,346.35c.5-.28,1-.57,1.49-.87"/>
    <path class="cls-3" d="M229.96,352.44c.48.03.97.05,1.46.06"/>
    <path class="cls-3" d="M212.21,346.5c.47.3.95.6,1.43.88"/>
    <path class="cls-3" d="M194.85,326.9c.45.82.91,1.63,1.39,2.43"/>
    <path class="cls-3" d="M242.1,354.36c1.77.04,3.52-.04,5.28-.25"/>
    <line class="cls-3" x1="302.83" y1="241.7" x2="309.91" y2="234.22"/>
    <path class="cls-3" d="M313.16,252.35c-.17-.02-.29-.13-.36-.27-.08-.15-.1-.3-.1-.46"/>
    <path class="cls-3" d="M200.18,369.24c1.56.9,3.15,1.71,4.79,2.43"/>
    <line class="cls-3" x1="253.63" y1="400.48" x2="250.83" y2="400.03"/>
    <path class="cls-3" d="M247.41,353.01c0-.25.41-.44.57-.52.25-.11.5-.2.76-.27"/>
    <path class="cls-3" d="M260.02,388.39c0-.19-.16-.45-.27-.59-.13-.18-.28-.33-.44-.48-.32-.3-.67-.55-1.05-.78"/>
    <path class="cls-3" d="M226.11,349.55c2.71,1.59,5.58,2.84,8.6,3.71"/>
    <line class="cls-3" x1="248.62" y1="385.13" x2="248.63" y2="384.81"/>
    <path class="cls-3" d="M170.86,303.05c-2.43-.68-4.88-1.23-7.36-1.68"/>
    <path class="cls-3" d="M204.98,370.47c.07.05.14.09.21.14"/>
    <path class="cls-3" d="M187.64,347.47c-5.25-4.46-10.49-8.93-15.69-13.45"/>
    <path class="cls-3" d="M204.98,370.84c-5.31-3.49-10.65-6.92-16.02-10.31"/>
    <path class="cls-3" d="M252.23,400.23c.46.09.93.17,1.4.25"/>
    <path class="cls-3" d="M217.2,378.44c.09.11.18.21.27.32"/>
    <path class="cls-3" d="M205.04,359.44c.07.14.14.29.21.43"/>
    <line class="cls-3" x1="310.73" y1="234.51" x2="304.37" y2="241.22"/>
    <line class="cls-3" x1="314.61" y1="230.76" x2="312.59" y2="230.56"/>
    <line class="cls-3" x1="260.02" y1="388.39" x2="260.02" y2="388.39"/>
    <line class="cls-3" x1="274.06" y1="329.41" x2="284.13" y2="331.25"/>
    <line class="cls-3" x1="236.61" y1="353.41" x2="236.61" y2="351.38"/>
    <line class="cls-3" x1="171.96" y1="334.02" x2="172.43" y2="281.99"/>
    <line class="cls-3" x1="163.81" y1="270.26" x2="163.5" y2="301.37"/>
    <line class="cls-3" x1="163.81" y1="270.26" x2="163.26" y2="269.59"/>
    <line class="cls-3" x1="312.59" y1="230.56" x2="311.96" y2="229.85"/>
    <line class="cls-3" x1="266.92" y1="355.18" x2="266.92" y2="338.37"/>
    <path class="cls-3" d="M224.27,360.28c-.49,0-.97-.01-1.46-.03"/>
    <path class="cls-3" d="M206.5,356.03c-.48-.24-.96-.49-1.43-.75"/>
    <path class="cls-3" d="M189.1,340.97c-.48-.64-.94-1.28-1.39-1.93"/>
    <line class="cls-3" x1="212.21" y1="346.5" x2="222.85" y2="348.35"/>
    <line class="cls-3" x1="194.85" y1="326.9" x2="205.44" y2="328.8"/>
    <path class="cls-3" d="M255.59,345.48c-2.38,2.63-4.76,5.25-7.15,7.88"/>
    <line class="cls-3" x1="224.28" y1="349.23" x2="213.64" y2="347.38"/>
    <line class="cls-3" x1="206.83" y1="331.22" x2="196.24" y2="329.33"/>
    <path class="cls-3" d="M236.61,351.38c-.49-.28-.96-.58-1.44-.88"/>
    <path class="cls-3" d="M231.42,352.5c-2.38,2.59-4.76,5.19-7.15,7.78"/>
    <path class="cls-3" d="M213.64,347.38c-2.36,2.9-4.74,5.78-7.14,8.65"/>
    <path class="cls-3" d="M196.24,329.33c-2.28,3.95-4.67,7.82-7.14,11.64"/>
    <line class="cls-3" x1="179.5" y1="274.81" x2="172.43" y2="281.99"/>
    <path class="cls-3" d="M248.62,385.15s0,0,0,0,0,0,0,0c0,0,0-.01,0,0"/>
    <path class="cls-3" d="M242.31,296.15c.31-1.37.8-2.64,1.41-3.9"/>
    <path class="cls-3" d="M243.72,292.24c.61-.6,1.29-1.07,2.03-1.48"/>
    <line class="cls-3" x1="256.4" y1="295.53" x2="253.14" y2="290.3"/>
    <path class="cls-3" d="M252.03,294.69c-.61,1.26-1.1,2.55-1.41,3.92"/>
    <path class="cls-3" d="M245.12,305.48c-.76-.83-1.52-1.75-2.11-2.72"/>
    <path class="cls-3" d="M243.01,302.76c-.49-.8-.86-1.62-1.12-2.53"/>
    <line class="cls-3" x1="201.92" y1="317.17" x2="202.11" y2="286.51"/>
    <line class="cls-3" x1="251.14" y1="306.87" x2="249.76" y2="306.61"/>
    <path class="cls-3" d="M249.76,306.61c-.43-.08-.81-.24-1.17-.48"/>
    <line class="cls-3" x1="252.9" y1="290" x2="254.29" y2="290.27"/>
    <path class="cls-3" d="M254.29,290.27c1.2.23,2.08,1.12,2.64,2.12.57,1.01.87,2.19,1,3.33"/>
    <path class="cls-3" d="M245.86,290.7c.91-.49,1.95-.9,2.92-1.24"/>
    <path class="cls-3" d="M251.65,290.01c.43-.09.83-.09,1.26-.01"/>
    <path class="cls-3" d="M248.78,289.46c.26.9.63,1.72,1.13,2.52"/>
    <path class="cls-3" d="M247.16,304.01c-.75.41-1.42.88-2.04,1.47"/>
    <path class="cls-3" d="M247.16,304.01c-1.65.9-3.21.29-4.15-1.25"/>
    <path class="cls-3" d="M242.31,296.15c.24-1.06.64-2.11,1.19-3.05.54-.91,1.3-1.82,2.25-2.34"/>
    <path class="cls-3" d="M252.9,290c1.2.23,2.08,1.12,2.64,2.12.57,1.01.87,2.2.99,3.33"/>
    <path class="cls-3" d="M317,228.28c16.05,1.75,32.12,3.37,48.2,4.86"/>
    <path class="cls-3" d="M281.56,429.76c4.48,1.03,9.25,2.31,13.6,3.84,3.82,1.34,9.35,3.59,12.42,6.55"/>
    <path class="cls-3" d="M242.48,310.16c.46.65.93,1.29,1.4,1.93"/>
    <line class="cls-3" x1="310.17" y1="444.84" x2="310.21" y2="453.16"/>
    <path class="cls-3" d="M310.21,453.16c0,.13,0,.26-.02.39"/>
    <line class="cls-3" x1="307.58" y1="440.15" x2="307.9" y2="440.45"/>
    <line class="cls-3" x1="60.45" y1="451.87" x2="60.61" y2="443.53"/>
    <line class="cls-3" x1="62.97" y1="439.16" x2="63.29" y2="438.86"/>
    <path class="cls-3" d="M307.9,440.45c-3.08-2.96-8.62-5.22-12.45-6.56-4.36-1.53-9.14-2.81-13.64-3.85"/>
    <path class="cls-3" d="M356.47,144.5c.17.04.35.07.52.09"/>
    <line class="cls-3" x1="353.94" y1="143.9" x2="356.47" y2="144.5"/>
    <path class="cls-3" d="M352.65,143.94c.35-.12.94-.12,1.3-.04"/>
    <line class="cls-3" x1="352.57" y1="143.96" x2="352.65" y2="143.94"/>
    <line class="cls-3" x1="362.13" y1="145.16" x2="363.98" y2="145.6"/>
    <line class="cls-3" x1="333.94" y1="150.34" x2="332.41" y2="150.86"/>
    <line class="cls-3" x1="318.99" y1="149.42" x2="321.94" y2="148.4"/>
    <path class="cls-3" d="M352.57,143.96c-.17.06-.25.29-.25.44"/>
    <line class="cls-3" x1="352.32" y1="144.4" x2="352.37" y2="150.22"/>
    <line class="cls-3" x1="352.37" y1="150.22" x2="351.75" y2="151.32"/>
    <line class="cls-3" x1="351.12" y1="151.53" x2="351.75" y2="151.32"/>
    <path class="cls-3" d="M315.98,147.68s0-.04,0-.07"/>
    <path class="cls-3" d="M315.98,147.68c0,.27.05.55.17.8.11.24.31.47.59.54"/>
    <path class="cls-3" d="M318.99,149.42c-.14.05-.28.06-.43.03"/>
    <line class="cls-3" x1="308.74" y1="40.71" x2="311.46" y2="41.43"/>
    <path class="cls-3" d="M308.74,40.71c-7.55-2-15.29-2.2-22.95-.87"/>
    <path class="cls-3" d="M311.46,41.43c-.45-.12-.91-.23-1.37-.34"/>
    <line class="cls-3" x1="318.56" y1="149.45" x2="316.74" y2="149.02"/>
    <path class="cls-3" d="M318.56,149.45c-.15-.04-.26-.11-.37-.22"/>
    <path class="cls-3" d="M316.74,149.02c.15.04.28.02.43-.03"/>
    <line class="cls-3" x1="316.53" y1="138.9" x2="315.82" y2="139.15"/>
    <line class="cls-3" x1="319.9" y1="148.05" x2="317.17" y2="148.99"/>
    <line class="cls-3" x1="178.03" y1="275.32" x2="163.81" y2="270.26"/>
    <line class="cls-3" x1="206.4" y1="372.27" x2="206.5" y2="356.03"/>
    <path class="cls-3" d="M480.08,322.11c-1.86.55-3.76.84-5.69.86-2,.02-3.97-.24-5.9-.73-2.12-.54-4.11-1.33-6.05-2.33-1.05-.54-2.06-1.12-3.06-1.76-1.06-.67-2.08-1.4-3.08-2.16-1.49-1.14-2.9-2.35-4.27-3.63-1.49-1.4-2.9-2.86-4.26-4.38-1.48-1.65-2.88-3.35-4.23-5.11-1.46-1.9-2.85-3.84-4.18-5.83-1.1-1.64-2.15-3.3-3.18-4.98-1.08-1.78-2.12-3.57-3.12-5.39-2.16-3.91-4.15-7.9-6.02-11.96-3.55-7.71-6.65-15.7-9.36-23.74-.66-1.96-1.3-3.92-1.91-5.89-.63-2.01-1.24-4.03-1.83-6.06-.6-2.06-1.17-4.13-1.73-6.21-.57-2.11-1.11-4.23-1.63-6.35-.5-2.04-.98-4.08-1.44-6.12-.47-2.07-.91-4.14-1.34-6.22-.87-4.21-1.66-8.43-2.37-12.66-.35-2.1-.68-4.19-1-6.3-.31-2.11-.61-4.22-.89-6.33s-.53-4.22-.77-6.34c-.24-2.11-.45-4.23-.65-6.34-.4-4.28-.72-8.56-.95-12.86-.11-2.12-.21-4.24-.28-6.35-.07-2.09-.12-4.18-.15-6.28"/>
    <path class="cls-3" d="M242.06,297.54s.01.01.02.02"/>
    <path class="cls-3" d="M433.24,54.73c2.2-.68,4.4-1.34,6.63-1.95,2.5-.68,5.02-1.29,7.55-1.82,2.6-.54,5.21-.99,7.85-1.36,2.65-.37,5.31-.65,7.98-.85,5.17-.37,10.3-.42,15.47-.13,2.55.15,5.08.38,7.61.7,2.5.32,4.97.72,7.44,1.22,2.62.53,5.21,1.16,7.78,1.9,2.49.72,4.94,1.54,7.36,2.47,2.35.9,4.65,1.89,6.91,2.98,2.21,1.07,4.37,2.22,6.48,3.46,4.42,2.59,8.55,5.52,12.49,8.78,1.97,1.63,3.87,3.32,5.71,5.09,1.86,1.78,3.66,3.62,5.4,5.53,3.4,3.72,6.54,7.63,9.49,11.72,1.51,2.09,2.95,4.22,4.34,6.39,1.41,2.2,2.77,4.44,4.07,6.71,1.25,2.18,2.44,4.38,3.59,6.62,1.16,2.26,2.27,4.55,3.34,6.86,2.16,4.7,4.11,9.48,5.87,14.35,1.74,4.79,3.28,9.64,4.63,14.55,1.37,4.95,2.54,9.94,3.52,14.98.98,5.05,1.77,10.12,2.35,15.23.58,5.06.95,10.12,1.12,15.2"/>
    <path class="cls-3" d="M581.3,243.51s-.05.03-.06.05c-.04.04-.06.07-.09.11-.1.15-.18.3-.26.46-.12.23-.22.45-.32.69-.2.46-.37.94-.54,1.41-.34.95-.64,1.91-.94,2.88"/>
    <path class="cls-3" d="M581.36,243.49s0,0,0,0,0,0,0,0c0,0-.01.01-.02.02-.02.02-.04.05-.06.07-.07.09-.12.18-.17.27-.19.34-.35.69-.5,1.05-.21.49-.39,1-.57,1.51-.35,1.01-.66,2.04-.97,3.07-.61,2.01-1.25,4.14-2.14,6.06"/>
    <path class="cls-3" d="M310.34,481.85c0,1.56,0,3.12-.03,4.68-.02,1.56-.05,3.12-.08,4.68-.06,3.12-.14,6.24-.2,9.35"/>
    <line class="cls-3" x1="163.26" y1="269.59" x2="178.66" y2="275.07"/>
    <path class="cls-3" d="M250.2,302.72c-1.01.35-2.1.78-3.04,1.29"/>
    <line class="cls-3" x1="249.48" y1="306.3" x2="254.56" y2="303.54"/>
    <path class="cls-3" d="M249.91,291.98c-.95-1.53-2.51-2.13-4.16-1.22"/>
    <path class="cls-3" d="M256.54,295.45c.26,2.37-.22,4.99-1.26,7.13-.52,1.07-1.24,2.13-2.16,2.92-.91.78-2.1,1.35-3.36,1.11"/>
    <path class="cls-3" d="M524.92,221.51c-.05,0-.1-.02-.15-.03"/>
    <path class="cls-3" d="M52.49,494.08c.69-1.53,1.34-3.08,1.96-4.64.62-1.56,1.2-3.14,1.72-4.73,1.06-3.2,1.91-6.43,2.58-9.73.66-3.3,1.13-6.61,1.46-9.96.32-3.35.5-6.69.56-10.05"/>
    <line class="cls-3" x1="333.94" y1="149.62" x2="333.94" y2="150.34"/>
    <path class="cls-3" d="M264.52,436.34c-.62-.1-1.24-.19-1.86-.29"/>
    <path class="cls-3" d="M265.25,441.1c-.03-1.62-.05-3.23-.05-4.85"/>
    <path class="cls-3" d="M450.83,311.14c-8.33-8.22-15.22-19.29-20.45-29.55"/>
    <path class="cls-3" d="M306.19,489.74c1.19,3.48,2.47,6.92,3.68,10.38.6,1.73,1.19,3.47,1.74,5.22.55,1.75,1.07,3.52,1.54,5.29.47,1.78.9,3.56,1.28,5.36.38,1.8.72,3.6,1.02,5.41.3,1.81.56,3.63.78,5.45s.41,3.65.56,5.48"/>
    <path class="cls-3" d="M310.21,453.94c0-1.93-1.37-3.54-2.66-4.67-1.36-1.18-3.05-2.2-4.64-3.01"/>
    <path class="cls-3" d="M262.65,435.86c0,1.62.01,3.24.05,4.85"/>
    <path class="cls-3" d="M60.16,466.01c.35-3.68.54-7.35.61-11.04"/>
    <line class="cls-3" x1="521.14" y1="156.09" x2="511.95" y2="140.96"/>
    <line class="cls-3" x1="475.07" y1="255.61" x2="477.1" y2="254.98"/>
    <path class="cls-3" d="M60.81,450.96c-.24.55-.37,1.09-.38,1.7"/>
    <path class="cls-3" d="M257.37,313.95c-.87-.19-1.72-.4-2.58-.63"/>
    <path class="cls-3" d="M283.29,335.41c.28-.29.56-.59.84-.89"/>
    <path class="cls-3" d="M224.28,349.23c2.3,1.35,4.67,2.44,7.21,3.28"/>
    <line class="cls-3" x1="311.96" y1="229.85" x2="314.61" y2="230.12"/>
    <line class="cls-3" x1="309.91" y1="234.22" x2="310.72" y2="233.97"/>
    <path class="cls-3" d="M344.12,186.35c-.7-.16-1.39-.33-2.09-.49"/>
    <path class="cls-3" d="M342.03,185.85c-.45-1.31-.81-2.61-.97-3.99"/>
    <path class="cls-3" d="M341.06,181.86c-.15-1.27-.13-2.5.03-3.76"/>
    <path class="cls-3" d="M341.08,178.1c.41-1.2.92-2.32,1.61-3.4"/>
    <path class="cls-3" d="M345.31,171.54c.7.16,1.4.31,2.1.47"/>
    <line class="cls-3" x1="355.86" y1="181.48" x2="354.89" y2="173.72"/>
    <path class="cls-3" d="M349.66,172.32c.89-.51,1.91-.77,2.95-.53"/>
    <line class="cls-3" x1="352.61" y1="171.79" x2="354" y2="172.11"/>
    <line class="cls-3" x1="350.12" y1="189.11" x2="348.73" y2="188.8"/>
    <line class="cls-3" x1="354.89" y1="173.72" x2="350.51" y2="172.71"/>
    <path class="cls-3" d="M350.51,172.71c-.16,1.26-.17,2.5-.02,3.77"/>
    <path class="cls-3" d="M347.41,172.01c.98.22,1.71.92,2.21,1.74.49.82.76,1.8.88,2.73"/>
    <path class="cls-3" d="M342.7,174.71c-1.31,2.03-1.93,4.76-1.64,7.16"/>
    <path class="cls-3" d="M344.12,186.35c-.98-.23-1.71-.93-2.2-1.75-.49-.82-.75-1.8-.87-2.73"/>
    <path class="cls-3" d="M304.89,413.7c-.04-.18-.06-.49-.06-.68"/>
    <path class="cls-3" d="M304.83,415.25c.06-.25.1-.5.12-.75"/>
    <path class="cls-3" d="M304.58,412.42s0,.07-.01.1c0,.03-.02.07-.06.08"/>
    <line class="cls-3" x1="304.75" y1="412.05" x2="304.58" y2="412.13"/>
    <path class="cls-3" d="M304.75,412.05c-.06-.21-.14-.41-.24-.6"/>
    <path class="cls-3" d="M304.75,412.05c.06.32.09.64.08.97"/>
    <path class="cls-3" d="M304.89,413.7c.06.26.08.53.07.8"/>
    <path class="cls-3" d="M304.83,415.25c.01-.27-.02-.53-.07-.8"/>
    <line class="cls-3" x1="304.76" y1="414.44" x2="304.96" y2="414.49"/>
    <path class="cls-3" d="M304.5,412.59s0,0,0,0"/>
    <path class="cls-3" d="M303.93,414.92c.09.2.17.4.24.6"/>
    <path class="cls-3" d="M303.84,411.72c-.03.25-.07.5-.12.75"/>
    <path class="cls-3" d="M304.58,414.52c-.11.35-.24.68-.41,1"/>
    <path class="cls-3" d="M303.84,411.72c.21.24.4.5.56.77"/>
    <path class="cls-3" d="M309.97,399.25c0,.13,0,.27-.01.4"/>
    <path class="cls-3" d="M309.95,396.88c0,.76,0,1.53.01,2.29"/>
    <line class="cls-3" x1="351.61" y1="188.05" x2="347.22" y2="187.06"/>
    <path class="cls-3" d="M348.84,183.66c-.69,1.07-1.21,2.2-1.62,3.4"/>
    <line class="cls-3" x1="351.61" y1="188.05" x2="355.86" y2="181.48"/>
    <path class="cls-3" d="M348.84,183.66c-.51.79-1.18,1.55-1.98,2.08-.8.53-1.76.83-2.74.61"/>
    <path class="cls-3" d="M351.64,188.28c-.88.5-1.89.75-2.91.52"/>
    <path class="cls-3" d="M352.61,171.79c.82.19,1.5.66,2.04,1.28.54.62.92,1.36,1.18,2.12.52,1.53.61,3.25.43,4.83-.18,1.6-.66,3.22-1.41,4.66-.72,1.39-1.81,2.8-3.22,3.6"/>
    <line class="cls-3" x1="218.6" y1="294.22" x2="217.83" y2="294.74"/>
    <path class="cls-3" d="M176.62,272.35c-5.29-2.76-10.64-5.36-16.08-7.8-5.44-2.44-10.94-4.7-16.54-6.76-5.6-2.06-11.25-3.92-16.99-5.55s-11.52-3.03-17.37-4.17"/>
    <line class="cls-3" x1=".37" x2="156.43" y2="39.62"/>
    <path class="cls-3" d="M298.24,279.99c.84,1.31,1.19,2.98,1.25,4.49.06,1.56-.17,3.17-.65,4.65-.47,1.46-1.23,2.94-2.28,4.08-.53.57-1.16,1.08-1.87,1.41-.72.34-1.5.49-2.29.33"/>
    <path class="cls-3" d="M284.13,291.73c-.44-1.3-.78-2.61-.93-3.98"/>
    <path class="cls-3" d="M283.2,287.75c-.14-1.27-.1-2.51.07-3.78"/>
    <path class="cls-3" d="M283.26,283.97c.39-1.16.88-2.24,1.55-3.27"/>
    <path class="cls-3" d="M284.81,280.7c.73-1.13,1.6-2.13,2.55-3.07"/>
    <path class="cls-3" d="M287.35,277.63c.66.22,1.32.42,1.99.6"/>
    <line class="cls-3" x1="297.61" y1="287.67" x2="296.72" y2="279.9"/>
    <line class="cls-3" x1="293.5" y1="294.01" x2="297.61" y2="287.67"/>
    <path class="cls-3" d="M286.11,292.35c-.67-.19-1.33-.4-1.99-.62"/>
    <path class="cls-3" d="M289.34,278.23c-.93-.26-1.86,0-2.63.49-.77.49-1.41,1.22-1.9,1.98"/>
    <line class="cls-3" x1="292.39" y1="294.95" x2="290.99" y2="294.68"/>
    <path class="cls-3" d="M292.39,294.95c-.24-.05-.46-.11-.68-.21"/>
    <path class="cls-3" d="M290.99,294.68c-1.02-.2-1.83-.85-2.41-1.66"/>
    <line class="cls-3" x1="294.28" y1="277.81" x2="295.67" y2="278.08"/>
    <path class="cls-3" d="M295.67,278.08c1.12.22,1.98.99,2.56,1.9"/>
    <path class="cls-3" d="M291.44,278.43c.84-.53,1.83-.82,2.84-.62"/>
    <path class="cls-3" d="M289.34,278.23c.99.28,1.99.54,2.99.8"/>
    <line class="cls-3" x1="296.72" y1="279.9" x2="292.34" y2="279.03"/>
    <line class="cls-3" x1="296.72" y1="279.9" x2="291.74" y2="278.49"/>
    <path class="cls-3" d="M292.34,279.03c-.17,1.27-.2,2.51-.06,3.79"/>
    <path class="cls-3" d="M290.66,289.89c-.67,1.03-1.17,2.11-1.56,3.27"/>
    <line class="cls-3" x1="293.5" y1="294.01" x2="289.1" y2="293.16"/>
    <path class="cls-3" d="M286.11,292.35c-.96-.28-1.65-1.03-2.1-1.85-.46-.84-.71-1.81-.81-2.75"/>
    <path class="cls-3" d="M290.66,289.89c-.49.76-1.13,1.48-1.91,1.98-.78.49-1.71.75-2.64.48"/>
    <path class="cls-3" d="M289.34,278.23c.96.27,1.66,1.02,2.11,1.85.46.84.71,1.81.82,2.75"/>
    <path class="cls-3" d="M283.2,287.75c-.26-2.35.32-5.05,1.61-7.05"/>
    <path class="cls-3" d="M294.28,277.81c1.12.22,1.98.99,2.56,1.9"/>
    <line class="cls-3" x1="104.47" y1="380.09" x2="104.47" y2="380.12"/>
    <line class="cls-3" x1="151.54" y1="375.07" x2="151.54" y2="375.27"/>
    <line class="cls-3" x1="242.27" y1="399.16" x2="241.92" y2="399.85"/>
    <path class="cls-3" d="M241.85,399.99h0"/>
    <line class="cls-3" x1="241.41" y1="400.09" x2="241.31" y2="400.03"/>
    <path class="cls-3" d="M242.14,398.66c-.04.17.01.37.13.5"/>
    <path class="cls-3" d="M242.14,398.66s.08-.09.13-.14"/>
    <path class="cls-3" d="M242.45,399.19c-.06,0-.12-.02-.18-.04"/>
    <path class="cls-3" d="M243.59,398.75c-.15-.11-.23-.31-.22-.5"/>
    <path class="cls-3" d="M244.07,400.31c.15-.26.29-.53.41-.81"/>
    <line class="cls-3" x1="242.45" y1="399.19" x2="244.48" y2="399.49"/>
    <path class="cls-3" d="M241.44,400.15s-.02-.03-.03-.05"/>
    <path class="cls-3" d="M241.16,400.28c.26.18.51.36.77.53"/>
    <line class="cls-3" x1="241.44" y1="400.15" x2="241.93" y2="400.81"/>
    <path class="cls-3" d="M241.63,398.5c.23.14.31.44.18.67"/>
    <path class="cls-3" d="M243.59,398.75c.31.24.6.48.89.74"/>
    <path class="cls-3" d="M244.07,400.31c-.29-.26-.58-.51-.89-.74"/>
    <path class="cls-3" d="M241.56,399.99c-.06.02-.11.06-.15.11"/>
    <path class="cls-3" d="M242.81,399.51c.13-.05.26-.02.37.06"/>
    <path class="cls-3" d="M241.19,398.21c.06-.02.11-.06.15-.11"/>
    <path class="cls-3" d="M241.17,398.22s.01,0,.02,0"/>
    <line class="cls-3" x1="241.39" y1="398.14" x2="242.14" y2="398.66"/>
    <line class="cls-3" x1="241.85" y1="399.99" x2="241.85" y2="399.99"/>
    <path class="cls-3" d="M242.59,399.71c-.21.37-.43.74-.66,1.11"/>
    <line class="cls-3" x1="60.62" y1="443.22" x2="61.51" y2="398.63"/>
    <path class="cls-3" d="M281.81,429.72c5.22,1.2,11,2.78,16.01,4.73,2.49.97,5.23,2.21,7.49,3.68,1.96,1.28,4.84,3.54,4.85,6.39"/>
    <line class="cls-3" x1="281.81" y1="429.72" x2="281.56" y2="429.76"/>
    <path class="cls-3" d="M304.19,408.78c-.06-.04-.13-.07-.2-.08"/>
    <line class="cls-3" x1="309.97" y1="400.04" x2="310.17" y2="444.53"/>
    <path class="cls-3" d="M310.17,444.53c0,.05,0,.1,0,.16"/>
    <path class="cls-3" d="M304.65,418.33s0,0,0,0"/>
    <line class="cls-3" x1="303.91" y1="408.8" x2="304.19" y2="408.78"/>
    <path class="cls-3" d="M281.79,415.7h0"/>
    <line class="cls-3" x1="281.79" y1="415.7" x2="281.81" y2="429.72"/>
    <path class="cls-3" d="M284.02,312.78c.35-.1.69-.2,1.04-.3"/>
    <path class="cls-3" d="M227.38,46.3c7.77-.3,15.51-.88,23.24-1.66"/>
    <path class="cls-3" d="M222.19,290.39s0,.01.01.02"/>
    <path class="cls-3" d="M276.33,49.47s-.01,0-.02.01"/>
    <path class="cls-3" d="M219.38,290.41s0,.01.01.02"/>
    <path class="cls-3" d="M273.79,48.26s-.01,0-.02,0"/>
    <path class="cls-3" d="M108.71,379.46s.09-.03.13-.04"/>
    <path class="cls-3" d="M61.53,398.24c0-.13-.01-.26,0-.39"/>
    <path class="cls-3" d="M305.44,202.94h.12"/>
    <path class="cls-3" d="M218.34,290.37s0,.01,0,.01"/>
    <path class="cls-3" d="M342.84,174.5s0,0,0,0"/>
    <path class="cls-3" d="M241.93,310.28c3.63,5.09,7.53,9.92,11.78,14.52,4.25,4.6,8.74,8.87,13.59,12.83"/>
    <path class="cls-3" d="M218.44,290.39s0-.01,0-.02"/>
    <path class="cls-3" d="M218.82,292.02c0-.06-.01-.11-.02-.16"/>
    <line class="cls-3" x1="137.63" y1="376.18" x2="137.63" y2="376"/>
    <line class="cls-3" x1="193.01" y1="374.57" x2="193.01" y2="374.35"/>
    <path class="cls-3" d="M353.03,188.59c-.88.5-1.89.75-2.91.52"/>
    <path class="cls-3" d="M342.84,174.5c.72-1.08,1.56-2.04,2.47-2.96"/>
    <path class="cls-3" d="M350.49,176.48c.17,1.38.53,2.69.98,4"/>
    <line class="cls-3" x1="355.86" y1="181.48" x2="351.47" y2="180.48"/>
    <path class="cls-3" d="M351.47,180.48c-.98.98-1.87,2.01-2.62,3.18"/>
    <path class="cls-3" d="M350.49,176.48c.3,2.41-.33,5.14-1.64,7.18"/>
    <path class="cls-3" d="M354,172.11c.82.19,1.5.65,2.04,1.27.54.62.92,1.36,1.18,2.12.52,1.53.61,3.25.43,4.83-.18,1.6-.66,3.22-1.41,4.66-.72,1.39-1.81,2.8-3.22,3.59"/>
    <path class="cls-3" d="M218.52,293.77c.01.19.14.36.29.46"/>
    <path class="cls-3" d="M156.43,39.62c23.29,5.91,47.09,7.61,70.95,6.69"/>
    <path class="cls-3" d="M292.28,282.82c.15,1.38.5,2.68.94,3.99"/>
    <line class="cls-3" x1="297.61" y1="287.67" x2="293.22" y2="286.81"/>
    <path class="cls-3" d="M293.22,286.81c-.95.95-1.82,1.95-2.56,3.08"/>
    <path class="cls-3" d="M292.28,282.82c.27,2.36-.32,5.07-1.62,7.07"/>
    <line class="cls-3" x1="281.79" y1="415.7" x2="281.76" y2="397.77"/>
    <path class="cls-3" d="M273.19,306.9c11.06-3.16,21.15-9.3,29.82-16.6"/>
    <path class="cls-3" d="M275.97,310.92c4.47-1.27,8.8-3.02,12.94-5.12"/>
    <path class="cls-3" d="M275.97,307.78c5.41-1.54,10.6-3.8,15.49-6.55"/>
    <path class="cls-3" d="M372.19,116.26c3.57,19.31,3.67,39.65,1.27,59.04-2.41,19.5-7.46,39.03-14.93,57.21"/>
    <path class="cls-3" d="M358.49,232.51c7.47-18.22,12.52-37.79,14.93-57.32,2.4-19.43,2.29-39.81-1.28-59.16"/>
    <path class="cls-3" d="M196.91,283.78c-6.65-4.02-13.4-7.85-20.29-11.44"/>
    <path class="cls-3" d="M311.67,41.48c4.15,1.1,8.11,2.7,11.87,4.75,4.11,2.25,7.9,5,11.37,8.13,3.19,2.88,6.04,6.01,8.68,9.4,2.88,3.71,5.39,7.61,7.65,11.72,8.57,15.59,13.13,33.76,14.99,51.19.95,8.88,1.25,17.87.97,26.79-.14,4.5-.42,8.98-.84,13.46-.21,2.21-.45,4.42-.72,6.63-.27,2.21-.58,4.41-.92,6.61-2.72,17.59-7.57,35.12-14.38,51.57"/>
    <line class="cls-3" x1="311.67" y1="41.48" x2="319.28" y2="43.49"/>
    <path class="cls-3" d="M215.64,290.17c7.07,8.85,16.05,16.12,26.92,20.01,10.95,3.92,22.36,3.87,33.42.73"/>
    <path class="cls-3" d="M108.84,379.42c.2-.05.4-.11.6-.16"/>
    <path class="cls-3" d="M270.12,46.83c.12-.06.23-.11.35-.17"/>
    <path class="cls-3" d="M164.79,373.93c12.22-.35,24.42-.34,36.64.04"/>
    <line class="cls-3" x1="344.87" y1="358.63" x2="326.66" y2="363.3"/>
    <path class="cls-3" d="M217.44,290.33c6.93,7.61,15.43,13.6,25.42,16.65,10.03,3.06,20.36,2.77,30.33-.08"/>
    <path class="cls-3" d="M242.59,399.71c.05-.09.12-.16.22-.2"/>
    <path class="cls-3" d="M271.78,47.44s.01,0,.02,0"/>
    <path class="cls-3" d="M250.97,309.17c8.4,1.57,16.85.93,25-1.39"/>
    <line class="cls-3" x1="250.97" y1="309.17" x2="248.48" y2="308.7"/>
    <path class="cls-3" d="M258.46,314.17c8.58,1.59,17.22.96,25.56-1.39"/>
    <line class="cls-3" x1="258.46" y1="314.17" x2="250.73" y2="312.74"/>
    <line class="cls-3" x1="284.29" y1="312.48" x2="284.02" y2="312.78"/>
    <path class="cls-3" d="M268.01,315.05c.05.03.11.05.16.08"/>
    <path class="cls-3" d="M233.56,288.65s.02.02.03.03"/>
    <line class="cls-3" x1="375.09" y1="148.74" x2="375.06" y2="148.74"/>
    <line class="cls-3" x1="182.22" y1="275.33" x2="179.5" y2="274.81"/>
    <path class="cls-3" d="M273.47,307.3c-8.15,2.33-16.6,2.96-24.99,1.4"/>
    <path class="cls-3" d="M107.19,379.62l-.4.12"/>
    <line class="cls-3" x1="366.77" y1="145.05" x2="367.08" y2="144.94"/>
    <path class="cls-3" d="M480,322.13c-.06.02-.12.04-.18.06"/>
    <path class="cls-3" d="M161.64,374.62c-2.87.16-5.74.35-8.61.57"/>
    <path class="cls-3" d="M222.49,290.4l-.02-.02"/>
    <path class="cls-3" d="M249.73,308.92c.41.09.83.17,1.24.25"/>
    <path class="cls-3" d="M349.79,231.67c11.22-27.03,17.3-57.5,16.98-86.8"/>
    <path class="cls-3" d="M267.57,267.75c-8.96,8.84-19.95,16.65-32.31,20.34"/>
    <path class="cls-3" d="M301.25,75.27c.53.95,1.04,1.91,1.54,2.89"/>
    <path class="cls-3" d="M276.25,311.32c-8.32,2.36-16.95,3-25.52,1.41"/>
    <path class="cls-3" d="M61.53,397.8c.52-26.39,1.05-52.78,1.72-79.17.34-13.19.71-26.39,1.14-39.58.43-13.19.92-26.38,1.48-39.57"/>
    <path class="cls-3" d="M304.02,408.65s0,0,0,0c0,0,0,0-.01,0-.01.01-.02.03-.03.04-.04.05-.07.11-.1.16-.11.2-.18.41-.25.63-.09.3-.15.61-.2.92-.1.62-.14,1.25-.14,1.88,0,1.22.13,2.55.41,3.74"/>
    <path class="cls-3" d="M303.69,416.03c.1.41.21.81.36,1.21.07.2.15.39.25.58.05.09.1.18.15.27.04.06.08.12.13.18.02.02.04.05.07.06"/>
    <line class="cls-3" x1="240.91" y1="397.41" x2="240.9" y2="398.06"/>
    <path class="cls-3" d="M240.75,397.35c-.08.16-.16.33-.25.49"/>
    <line class="cls-3" x1="242.76" y1="398.06" x2="242.27" y2="398.52"/>
    <path class="cls-3" d="M60.62,443.38c0-.05,0-.11,0-.16"/>
    <line class="cls-3" x1="244.05" y1="403.35" x2="242.6" y2="403.85"/>
    <path class="cls-3" d="M60.62,443.22c.03-1.31.64-2.44,1.43-3.4.54-.65,1.14-1.2,1.8-1.72.81-.64,1.67-1.2,2.56-1.72,1.08-.63,2.19-1.18,3.33-1.7,1.34-.61,2.71-1.15,4.1-1.66,3.39-1.24,6.92-2.25,10.42-3.13,4.27-1.07,8.58-1.96,12.91-2.75,4.99-.9,9.99-1.65,15.02-2.3,18.3-2.37,38.2-3.55,56.63-3.91,18.68-.37,38.13.04,56.77,1.31,17.72,1.21,38.85,3.49,56.24,7.5"/>
    <line class="cls-3" x1="242.13" y1="397.85" x2="241.19" y2="398.21"/>
    <path class="cls-3" d="M328.54,360.86c5.52-.13,10.98-.86,16.33-2.23"/>
    <path class="cls-3" d="M299.23,389.08c2.07.95,4.27,2.1,6.13,3.44,1.73,1.25,3.77,3.09,4.41,5.33"/>
    <path class="cls-3" d="M344.39,231.13c11.34-26.73,17.49-57,17.19-86.07"/>
    <line class="cls-3" x1="241.56" y1="399.99" x2="242.77" y2="399.52"/>
    <path class="cls-3" d="M245.61,401.35c-.76,1.51-2.33,2.32-4,1.97"/>
    <path class="cls-3" d="M298.67,299.98c1.43-.98,2.82-1.99,4.2-3.04"/>
    <path class="cls-3" d="M347.56,231.45c11.26-26.68,17.36-56.87,17.04-85.87"/>
    <path class="cls-3" d="M294.82,299.24c2.84-1.78,5.57-3.7,8.21-5.76"/>
    <path class="cls-3" d="M241.16,400.28c.23-.36.45-.73.66-1.11"/>
    <path class="cls-3" d="M303.03,78.64c1.75,3.49,3.27,7.07,4.61,10.74"/>
    <path class="cls-3" d="M364.63,215.72c.02.07.05.15.07.22"/>
    <path class="cls-3" d="M219.09,335.64c6.59,6.96,13.94,13.26,21.96,18.54"/>
    <path class="cls-3" d="M201.94,313.62c3.77,5.89,7.88,11.47,12.43,16.78"/>
    <path class="cls-3" d="M247.4,353.26c-9.58-6.19-18.22-13.84-25.77-22.34-7.57-8.52-14.13-17.97-19.62-27.94"/>
    <path class="cls-3" d="M246.08,399.03c.04.8-.11,1.6-.47,2.32"/>
    <path class="cls-3" d="M288.47,306.57c-3.92,1.94-8.01,3.56-12.22,4.76"/>
    <path class="cls-3" d="M302.55,297.81c-1.05.79-2.11,1.56-3.19,2.3"/>
    <path class="cls-3" d="M303.01,290.96c-8.61,7.18-18.61,13.22-29.55,16.34"/>
    <path class="cls-3" d="M362.11,145.15c.29,29.06-5.86,59.31-17.17,86.04"/>
    <line class="cls-3" x1="60.66" y1="458.91" x2="60.81" y2="450.96"/>
    <path class="cls-3" d="M296.84,279.71c.84,1.31,1.19,2.98,1.25,4.49.06,1.56-.17,3.17-.65,4.65-.47,1.46-1.23,2.94-2.28,4.08-.53.57-1.15,1.08-1.87,1.42-.72.34-1.5.49-2.29.33"/>
    <path class="cls-3" d="M289.1,293.16c-1-.26-2-.53-2.99-.82"/>
    <line class="cls-3" x1="291.74" y1="278.49" x2="287.35" y2="277.63"/>
    <path class="cls-3" d="M136.84,432.14c-12.9.93-26.89,2.4-39.64,4.65-6.35,1.12-13.28,2.59-19.46,4.47-1.72.52-3.43,1.09-5.12,1.72-1.43.54-2.84,1.12-4.22,1.79-.98.47-1.93.97-2.85,1.54-.77.47-1.51.98-2.21,1.55-.57.47-1.1.97-1.57,1.55-.39.48-.71.97-.96,1.54"/>
    <path class="cls-3" d="M217.83,294.74c.35-.23.56-.6.68-.99"/>
    <path class="cls-3" d="M52.53,494.02c-1.9,4.25-3.98,8.43-5.86,12.69-.94,2.13-1.84,4.28-2.66,6.47-.82,2.18-1.57,4.39-2.23,6.63"/>
    <path class="cls-3" d="M218.87,293.96c-.02.09-.04.19-.06.28"/>
    <path class="cls-3" d="M265.21,436.25c-.66.15-1.9.15-2.55,0"/>
    <path class="cls-3" d="M302.91,446.26c-5.39-2.77-12.68-4.87-18.49-6.27-6.24-1.51-12.88-2.75-19.21-3.74"/>
    <path class="cls-3" d="M202.01,302.56c5.51,10.08,12.11,19.63,19.74,28.22,7.61,8.58,16.33,16.3,26,22.52"/>
    <path class="cls-3" d="M94.37,382.08c16.85-3.77,36.86-5.82,54.02-6.84,17.91-1.06,36.56-1.25,54.48-.65"/>
    <path class="cls-3" d="M314.5,376.79c-3.11,6.29-4.59,13.04-4.55,20.04"/>
    <path class="cls-3" d="M61.53,397.85c.02-.84.24-1.63.61-2.37.44-.88,1.06-1.66,1.74-2.35.86-.87,1.85-1.63,2.87-2.31,1.28-.85,2.61-1.58,3.99-2.25,1.87-.91,3.79-1.7,5.75-2.41,2.33-.85,4.68-1.6,7.07-2.28,8.48-2.42,18.06-4.2,26.77-5.49,17.58-2.6,36.73-3.96,54.47-4.47"/>
    <path class="cls-3" d="M309.77,397.86c.13.46.2.92.2,1.4"/>
    <path class="cls-3" d="M304.61,414.35v.11"/>
    <path class="cls-3" d="M304.51,412.6s-.1-.07-.11-.1"/>
    <line class="cls-3" x1="304.18" y1="414.37" x2="304.69" y2="414.34"/>
    <path class="cls-3" d="M304.58,412.42c0-.33-.02-.64-.08-.97"/>
    <path class="cls-3" d="M303.93,414.92c.16-.32.3-.65.41-1"/>
    <path class="cls-3" d="M304.28,413.25c.11.18.12.49.06.68"/>
    <path class="cls-3" d="M304.58,414.52s.02-.07.04-.1c.01-.02.04-.08.07-.08"/>
    <line class="cls-3" x1="304.21" y1="414.29" x2="304.46" y2="414.36"/>
    <line class="cls-3" x1="60.16" y1="466.01" x2="60.43" y2="452.65"/>
    <path class="cls-3" d="M302.03,463.63c0,2.22.08,4.43.23,6.64.15,2.21.39,4.41.73,6.6s.77,4.36,1.31,6.51c.54,2.15,1.17,4.27,1.89,6.37"/>
    <path class="cls-3" d="M310.25,489.26c.5,2.79,1.12,5.55,1.87,8.29.75,2.74,1.61,5.43,2.58,8.09"/>
    <path class="cls-3" d="M314.7,505.64c1.75,4.82,3.65,9.57,5.36,14.4,1.75,4.94,3.18,9.62,4.35,14.73"/>
    <path class="cls-3" d="M52.49,494.08s.02-.04.04-.06"/>
    <path class="cls-3" d="M60.78,454.97c.03-1.34.04-2.68.04-4.01"/>
    <path class="cls-3" d="M430.35,281.53c-1.25-2.45-2.43-4.92-3.57-7.42-.59-1.3-1.17-2.61-1.74-3.92-.58-1.34-1.14-2.68-1.7-4.03-1.05-2.56-2.05-5.14-3.01-7.73-.49-1.33-.98-2.67-1.45-4.01-.48-1.37-.95-2.73-1.41-4.11-.44-1.3-.86-2.61-1.28-3.92-.42-1.33-.84-2.66-1.24-4-.41-1.36-.81-2.72-1.21-4.09-.4-1.39-.79-2.78-1.17-4.17-.74-2.7-1.43-5.41-2.1-8.13-.67-2.75-1.31-5.51-1.91-8.28-.6-2.74-1.16-5.48-1.68-8.23-.27-1.39-.52-2.78-.77-4.17-.25-1.4-.49-2.8-.73-4.2-.46-2.78-.89-5.56-1.29-8.35-.4-2.79-.76-5.59-1.09-8.39-.33-2.81-.63-5.62-.89-8.44-.26-2.79-.48-5.59-.67-8.39-.19-2.82-.34-5.65-.46-8.48-.06-1.4-.11-2.81-.14-4.21-.04-1.4-.07-2.8-.09-4.2"/>
    <path class="cls-3" d="M400.75,150.68c-.02-1.48-.03-2.97-.03-4.45,0-1.46.02-2.93.04-4.39.05-2.95.14-5.89.29-8.84.07-1.49.16-2.97.26-4.46.1-1.45.21-2.91.33-4.36.25-2.94.56-5.87.93-8.79,1.44-11.35,3.94-23.58,8.18-34.31"/>
    <path class="cls-3" d="M580.02,246.24c.28-.43.54-.87.79-1.33.12-.23.24-.46.34-.69.05-.12.1-.24.14-.36.03-.09.06-.17.06-.27,0-.03,0-.09-.04-.08"/>
    <path class="cls-3" d="M342.7,174.71c.51-.79,1.17-1.55,1.97-2.08.8-.53,1.76-.84,2.74-.62"/>
    <path class="cls-3" d="M347.41,172.01c1.03.23,2.07.47,3.1.7"/>
    <path class="cls-3" d="M347.22,187.06c-1.03-.24-2.06-.48-3.1-.72"/>
    <path class="cls-3" d="M252.69,44.47c10.93-.8,21.15,2.17,30.07,8.45,8.76,6.17,15.41,14.9,20.28,24.21,4.91,9.39,8.23,19.76,10.34,30.08,2.12,10.38,3.09,21.11,3.14,31.69"/>
    <path class="cls-3" d="M251.26,44.6c11.57-1.19,23.07-2.77,34.54-4.76"/>
    <line class="cls-3" x1="522.06" y1="125.13" x2="522.2" y2="130.59"/>
    <line class="cls-3" x1="522.2" y1="130.59" x2="516.06" y2="124.95"/>
    <line class="cls-3" x1="520.26" y1="163.17" x2="512.39" y2="160.34"/>
    <line class="cls-3" x1="524.92" y1="221.46" x2="525.11" y2="228.71"/>
    <path class="cls-3" d="M525.11,228.71c.69.25,1.42.33,2.14.18"/>
    <line class="cls-3" x1="459.14" y1="54.35" x2="459.81" y2="54.09"/>
    <path class="cls-3" d="M581.51,243.91c-.36,1.09-1.25,2.54-1.88,3.48"/>
    <line class="cls-3" x1="315.71" y1="146.13" x2="352.37" y2="150.22"/>
    <path class="cls-3" d="M477.11,254.98c-2.34.72-4.68,2.25-6.55,3.76-1.89,1.53-3.83,3.47-5.26,5.45"/>
    <path class="cls-3" d="M459.81,54.09c-.08.03-.16.07-.23.11-.04.02-.07.04-.11.07-.02.01-.08.07-.08.09"/>
    <line class="cls-3" x1="315.66" y1="147.58" x2="351.12" y2="151.53"/>
    <line class="cls-3" x1="351.75" y1="151.32" x2="315.67" y2="147.29"/>
    <line class="cls-3" x1="332.41" y1="150.86" x2="321.94" y2="148.4"/>
    <path class="cls-3" d="M525.82,221.49c-.29.06-.63.02-.91-.03"/>
    <line class="cls-3" x1="527.25" y1="228.89" x2="527.1" y2="228.92"/>
    <path class="cls-3" d="M527.1,228.92c1.78-.37,2.88-2,3.46-3.5.61-1.58.82-3.38.79-5.05"/>
    <path class="cls-3" d="M465.31,264.19c-.62.85-1.25,1.87-1.64,2.86-.36.92-.68,2.26.2,3.1.78.74,2.18.85,3.12.84,1.08-.02,2.22-.21,3.26-.47"/>
    <path class="cls-3" d="M462.05,56.05c2.31,1.08,5.87,2.47,8.28,3.3,1.36.47,2.87.93,4.28,1.25,1.19.26,3.15.6,4.41.18"/>
    <path class="cls-3" d="M413.49,74.87c-2.83,5.73-5,12.02-6.65,18.16-.84,3.12-1.56,6.27-2.19,9.44-.63,3.17-1.17,6.35-1.63,9.54-.46,3.2-.84,6.41-1.15,9.62-.15,1.59-.29,3.19-.41,4.78-.12,1.63-.23,3.25-.32,4.88-.18,3.23-.3,6.45-.36,9.68-.06,3.23-.07,6.46-.02,9.69"/>
    <path class="cls-3" d="M400.74,150.68c.02,1.68.06,3.37.11,5.05.05,1.7.12,3.4.19,5.1.16,3.43.37,6.85.64,10.27.26,3.39.58,6.78.95,10.17.18,1.7.38,3.4.59,5.1.21,1.69.43,3.38.66,5.06.47,3.39.99,6.77,1.56,10.15.56,3.35,1.17,6.68,1.83,10.01.33,1.69.68,3.37,1.04,5.05.36,1.67.73,3.35,1.11,5.01.38,1.66.78,3.32,1.18,4.97.4,1.63.82,3.26,1.24,4.88.88,3.35,1.82,6.69,2.81,10.01.48,1.62.98,3.23,1.49,4.84.5,1.58,1.02,3.16,1.55,4.73.56,1.66,1.14,3.32,1.74,4.98.58,1.62,1.18,3.24,1.8,4.85.61,1.58,1.23,3.15,1.86,4.72.62,1.52,1.26,3.04,1.91,4.55,2.7,6.24,5.71,12.41,9.08,18.31.9,1.59,1.84,3.15,2.8,4.7.92,1.49,1.88,2.95,2.86,4.4,1.83,2.68,3.75,5.28,5.82,7.77"/>
    <path class="cls-3" d="M375.17,145.21c-.05.03-.1.06-.15.09"/>
    <line class="cls-3" x1="328.11" y1="148.96" x2="333.94" y2="150.34"/>
    <line class="cls-3" x1="363.98" y1="145.6" x2="365.27" y2="145.56"/>
    <line class="cls-3" x1="367.08" y1="144.94" x2="364.3" y2="144.28"/>
    <path class="cls-3" d="M243.88,312.09c3.45,4.69,7.14,9.15,11.13,13.4,3.99,4.25,8.19,8.21,12.7,11.9"/>
    <path class="cls-3" d="M328.64,360.74c2.83-.05,5.63-.26,8.44-.63s5.57-.91,8.31-1.61"/>
    <path class="cls-3" d="M361.6,145.07c.18.02.35.04.53.09"/>
    <path class="cls-3" d="M364.3,144.28c-.1-10.44-1.02-20.98-2.93-31.26-1.9-10.24-4.82-20.47-9.03-30.03-4.18-9.51-9.78-18.66-17.07-26.2-7.32-7.57-16.21-13.36-26.54-16.09"/>
    <path class="cls-3" d="M375.47,148.71c1.36.32,2.72.63,4.09.92"/>
    <path class="cls-3" d="M364.3,144.28c-15.94-1.65-31.86-3.44-47.77-5.38"/>
    <path class="cls-3" d="M60.45,451.87c.03-1.3.64-2.42,1.44-3.36.54-.64,1.15-1.19,1.81-1.7.81-.63,1.67-1.19,2.57-1.7,1.09-.62,2.2-1.17,3.34-1.68,1.35-.6,2.73-1.14,4.12-1.64,3.41-1.22,6.96-2.22,10.47-3.09,4.28-1.06,8.59-1.93,12.93-2.7,4.99-.88,10-1.62,15.02-2.26,18.31-2.33,38.21-3.49,56.64-3.84,18.68-.36,38.14.04,56.78,1.29,17.72,1.19,38.87,3.43,56.26,7.38"/>
    <path class="cls-3" d="M317.87,43.15c3.84.87,7.68,1.71,11.54,2.52,3.85.81,7.71,1.6,11.57,2.35,7.73,1.5,15.48,2.87,23.27,4.05,15.15,2.28,31.65,4.02,47.03,3.86"/>
    <path class="cls-3" d="M281.81,430.04c-17.02-3.92-37.62-6.19-54.97-7.4-18.22-1.28-37.23-1.74-55.49-1.44-18.08.29-37.41,1.35-55.38,3.49-4.89.58-9.75,1.25-14.61,2.05-4.28.7-8.54,1.49-12.77,2.44-3.06.68-6.11,1.44-9.12,2.32-2.48.73-4.93,1.53-7.34,2.48-1.87.74-3.75,1.58-5.5,2.58-1.29.73-2.58,1.59-3.67,2.61"/>
    <path class="cls-3" d="M276.76,318.61s0,0,0,0c0,0,0,0,0,0-.01,0-.02,0-.03-.01-.04-.01-.08-.02-.12-.04-.16-.05-.31-.09-.47-.14-.58-.17-1.17-.33-1.76-.48-.8-.21-1.61-.42-2.41-.62-1.61-.41-3.22-.8-4.84-1.18-3.23-.76-6.47-1.48-9.72-2.18"/>
    <path class="cls-3" d="M281.83,438.57c5.21,1.18,10.98,2.73,15.99,4.64,2.49.96,5.23,2.17,7.49,3.61,1.95,1.24,4.89,3.48,4.9,6.32"/>
    <path class="cls-3" d="M411.28,55.93c2.07-.02,4.14-.07,6.21-.15s4.13-.2,6.2-.35c4.13-.3,8.24-.74,12.34-1.33"/>
    <path class="cls-3" d="M375.06,148.72c.05,0,.1,0,.16-.01"/>
    <path class="cls-3" d="M317,228.28c.09,18.06-2.39,36.46-7.06,53.89-4.65,17.37-11.71,34.66-21.21,50-4.77,7.7-10.24,15.06-16.46,21.66-6.19,6.57-13.27,12.53-21.14,17.04-4.09,2.35-8.41,4.3-12.92,5.72-4.17,1.31-8.47,2.14-12.85,2.39-9.26.52-18.1-1.65-26.12-6.28"/>
    <path class="cls-3" d="M313.95,251.4c-.03.22-.1.45-.23.63-.12.17-.32.35-.56.33"/>
    <line class="cls-3" x1="178.11" y1="275.24" x2="179.5" y2="274.81"/>
    <line class="cls-3" x1="219.05" y1="344.36" x2="219.1" y2="333.41"/>
    <line class="cls-3" x1="170.6" y1="330.57" x2="171.05" y2="282.42"/>
    <line class="cls-3" x1="315.23" y1="228.83" x2="317" y2="228.28"/>
    <line class="cls-3" x1="314.67" y1="243.46" x2="314.61" y2="229.93"/>
    <line class="cls-3" x1="312.69" y1="251.62" x2="312.59" y2="230.56"/>
    <line class="cls-3" x1="310.88" y1="267.77" x2="310.71" y2="230.25"/>
    <path class="cls-3" d="M304.57,291.98c2.61-7.95,4.7-15.99,6.31-24.2"/>
    <line class="cls-3" x1="304.57" y1="291.98" x2="304.37" y2="241.22"/>
    <line class="cls-3" x1="303.03" y1="296.47" x2="302.83" y2="241.7"/>
    <path class="cls-3" d="M285.66,332.23c7.17-11.11,12.95-23.33,17.37-35.76"/>
    <line class="cls-3" x1="285.66" y1="332.23" x2="285.62" y2="311.4"/>
    <path class="cls-3" d="M285.62,311.4c-.5.95-1.01,1.9-1.53,2.85"/>
    <line class="cls-3" x1="284.13" y1="334.56" x2="284.09" y2="314.25"/>
    <path class="cls-3" d="M266.92,355.18c6.49-6.16,12.24-13.22,17.21-20.62"/>
    <line class="cls-3" x1="265.41" y1="356.59" x2="265.4" y2="339.96"/>
    <path class="cls-3" d="M248.41,368.7c6.17-3.25,11.86-7.44,16.99-12.11"/>
    <line class="cls-3" x1="248.41" y1="368.7" x2="248.44" y2="353.36"/>
    <path class="cls-3" d="M248.44,353.36c-.49.28-.99.56-1.49.82"/>
    <line class="cls-3" x1="246.92" y1="369.46" x2="246.95" y2="354.19"/>
    <path class="cls-3" d="M224.21,375.42c7.97-.21,15.64-2.46,22.71-5.96"/>
    <line class="cls-3" x1="224.21" y1="375.42" x2="224.27" y2="360.28"/>
    <line class="cls-3" x1="222.75" y1="375.44" x2="222.82" y2="360.26"/>
    <path class="cls-3" d="M206.4,372.27c5.23,2.08,10.72,3.14,16.35,3.17"/>
    <line class="cls-3" x1="204.97" y1="371.67" x2="205.07" y2="355.27"/>
    <line class="cls-3" x1="188.95" y1="360.53" x2="189.1" y2="340.97"/>
    <line class="cls-3" x1="187.55" y1="359.08" x2="187.71" y2="339.04"/>
    <path class="cls-3" d="M171.96,334.02c3.73,9.05,8.83,17.84,15.6,25.06"/>
    <line class="cls-3" x1="365.2" y1="233.14" x2="368" y2="233.74"/>
    <path class="cls-3" d="M222.82,360.26c2.38-2.6,4.77-5.21,7.15-7.81"/>
    <path class="cls-3" d="M205.07,355.27c2.4-2.91,4.78-5.83,7.14-8.78"/>
    <line class="cls-3" x1="236.61" y1="351.38" x2="226.11" y2="349.55"/>
    <path class="cls-3" d="M187.71,339.04c2.49-3.98,4.89-8.02,7.15-12.14"/>
    <line class="cls-3" x1="219.1" y1="333.41" x2="208.65" y2="331.55"/>
    <path class="cls-3" d="M274.06,329.41c-2.36,3-4.74,5.99-7.14,8.96"/>
    <line class="cls-3" x1="292.74" y1="298.84" x2="301.54" y2="300.53"/>
    <path class="cls-3" d="M292.74,298.84c-2.25,4.26-4.63,8.43-7.12,12.56"/>
    <path class="cls-3" d="M193.82,281.94c.29,8.08,1.28,16.24,3.13,24.12,1.84,7.84,4.58,15.66,8.48,22.74"/>
    <line class="cls-3" x1="189.97" y1="279.69" x2="189.56" y2="336.05"/>
    <path class="cls-3" d="M195.65,283.03c.33,7.95,1.35,15.97,3.19,23.73,1.84,7.71,4.56,15.39,8.4,22.37"/>
    <path class="cls-3" d="M206.83,331.22c4.04,6.7,9.33,12.83,16.01,17.13"/>
    <line class="cls-3" x1="206.83" y1="331.22" x2="206.71" y2="353.28"/>
    <path class="cls-3" d="M208.65,331.55c4.05,6.69,9.34,12.83,16.02,17.13"/>
    <line class="cls-3" x1="242.1" y1="354.36" x2="242.07" y2="371.63"/>
    <line class="cls-3" x1="207.25" y1="329.12" x2="217.7" y2="330.99"/>
    <line class="cls-3" x1="224.67" y1="348.67" x2="235.17" y2="350.51"/>
    <line class="cls-3" x1="242.1" y1="354.36" x2="231.42" y2="352.5"/>
    <line class="cls-3" x1="171.05" y1="282.42" x2="178.11" y2="275.24"/>
    <path class="cls-3" d="M265.4,339.96c2.4-2.93,4.78-5.86,7.15-8.82"/>
    <path class="cls-3" d="M199.24,372.7c-7.83-4.52-14.27-11.03-19.39-18.34-5.14-7.32-9.07-15.57-11.99-23.98-5.85-16.82-8.11-35.33-7.93-52.98"/>
    <path class="cls-3" d="M250.83,400.03c9.38,1.52,18.73.44,27.66-2.56,8.9-2.99,17.09-7.79,24.43-13.52,14.66-11.44,26.51-27.05,35.43-43.05,9.06-16.26,15.81-34.14,20.26-52.17,4.46-18.06,6.78-36.97,6.59-55.59"/>
    <path class="cls-3" d="M258.26,386.54c-1.38-.85-3.15-1.42-4.72-1.7-.83-.15-1.66-.24-2.51-.23-.42,0-.84.03-1.26.1-.29.05-.61.12-.88.25-.07.04-.15.08-.21.13-.02.02-.05.04-.07.06"/>
    <path class="cls-3" d="M257.93,295.71c.26,2.37-.21,4.98-1.26,7.13-.52,1.07-1.24,2.13-2.16,2.92-.91.78-2.1,1.34-3.36,1.11"/>
    <path class="cls-3" d="M241.89,300.24c0-1.39.11-2.74.42-4.09"/>
    <line class="cls-3" x1="253.14" y1="290.3" x2="248.78" y2="289.46"/>
    <path class="cls-3" d="M249.91,291.98c.6.96,1.36,1.88,2.12,2.71"/>
    <line class="cls-3" x1="256.4" y1="295.53" x2="252.03" y2="294.69"/>
    <path class="cls-3" d="M250.62,298.61c-.31,1.36-.42,2.72-.42,4.11"/>
    <line class="cls-3" x1="254.56" y1="303.54" x2="250.2" y2="302.72"/>
    <line class="cls-3" x1="254.56" y1="303.54" x2="256.4" y2="295.53"/>
    <line class="cls-3" x1="249.48" y1="306.3" x2="245.12" y2="305.48"/>
    <path class="cls-3" d="M243.01,302.76c-.59-.96-.87-2.14-.96-3.24-.09-1.12,0-2.29.26-3.38"/>
    <path class="cls-3" d="M250.62,298.61c-.24,1.06-.64,2.12-1.2,3.05-.54.91-1.3,1.82-2.26,2.34"/>
    <path class="cls-3" d="M249.91,291.98c.6.96.88,2.14.97,3.24.09,1.13,0,2.29-.26,3.39"/>
  </g>
  <g id="Make2D::可见线::正切线">
    <path class="cls-3" d="M249.73,388.4c-.54-.32-1.1-.71-1.55-1.16-.25-.25-.51-.56-.63-.91-.09-.26-.1-.54.04-.79.13-.24.36-.41.59-.54.33-.18.71-.28,1.07-.35.64-.13,1.28-.16,1.93-.14,2.39.05,5.31.79,7.38,2.06"/>
    <line class="cls-3" x1="281.83" y1="438.57" x2="281.81" y2="430.04"/>
    <path class="cls-3" d="M244.08,311.04c-.05.35-.12.7-.2,1.05"/>
    <path class="cls-3" d="M317.87,43.15c1.72.39,3.41.86,5.08,1.42,1.67.56,3.3,1.2,4.91,1.93,1.61.72,3.17,1.52,4.7,2.4,1.53.87,3.01,1.82,4.45,2.83"/>
    <path class="cls-3" d="M400.73,150.67s-.1-.02-.15-.02"/>
    <path class="cls-3" d="M375.47,148.71c0,3.58-.08,7.16-.26,10.74-.18,3.58-.45,7.15-.8,10.72-.18,1.78-.38,3.55-.6,5.33-.22,1.78-.47,3.56-.73,5.34-.27,1.77-.55,3.54-.86,5.31-.31,1.76-.63,3.52-.98,5.28-.35,1.76-.72,3.52-1.11,5.27-.39,1.75-.8,3.49-1.23,5.23-.43,1.74-.88,3.47-1.35,5.2-.47,1.73-.97,3.45-1.48,5.17-1.03,3.43-2.14,6.84-3.33,10.22-1.19,3.38-2.46,6.73-3.82,10.05"/>
    <path class="cls-3" d="M284.93,312.71c-2.23.65-4.48,1.18-6.78,1.57-2.29.4-4.59.66-6.91.77-2.33.12-4.63.09-6.95-.09-2.32-.18-4.6-.52-6.88-1.01"/>
    <line class="cls-3" x1="315.82" y1="139.83" x2="352.57" y2="143.96"/>
    <path class="cls-3" d="M272.46,331.25c-10.47-4.93-20.06-11.31-28.58-19.16"/>
    <path class="cls-3" d="M358.68,232.53c1.36-3.32,2.63-6.66,3.82-10.04,1.19-3.38,2.3-6.78,3.33-10.22.51-1.71,1.01-3.44,1.48-5.16.47-1.73.92-3.46,1.35-5.2.43-1.74.84-3.48,1.23-5.23.39-1.75.76-3.51,1.11-5.27.35-1.76.67-3.51.98-5.28.31-1.77.59-3.54.86-5.31.26-1.78.51-3.56.73-5.34.22-1.77.42-3.55.6-5.33.36-3.57.62-7.14.8-10.72.18-3.58.26-7.16.25-10.74"/>
    <path class="cls-3" d="M400.73,150.66s.04-.03.05-.04"/>
    <line class="cls-3" x1="317.17" y1="148.99" x2="318.99" y2="149.42"/>
    <path class="cls-3" d="M433.24,54.73c-2.02.63-3.91,1.55-5.68,2.69-1.96,1.27-3.74,2.8-5.35,4.48-1.45,1.51-2.75,3.13-3.96,4.84-1.36,1.93-2.57,3.93-3.68,6-4.11,7.69-6.94,16.59-8.88,25-.49,2.12-.93,4.24-1.33,6.38-.42,2.22-.79,4.45-1.13,6.69-.66,4.39-1.16,8.79-1.54,13.21-.19,2.17-.34,4.34-.47,6.52-.13,2.25-.24,4.51-.31,6.76-.15,4.43-.18,8.86-.12,13.3"/>
    <path class="cls-3" d="M459.61,54.17c-.13.07-.29.17-.36.31"/>
    <path class="cls-3" d="M576.92,255.54c.95-2.06,1.63-4.38,2.28-6.53.33-1.11.67-2.21,1.07-3.3.2-.54.41-1.08.67-1.59.11-.23.23-.45.39-.65.04-.05.08-.1.13-.15.02-.02.06-.05.09-.04.07,0,.06.14.05.18-.01.16-.06.3-.11.45"/>
    <line class="cls-3" x1="352.32" y1="144.4" x2="315.82" y2="140.3"/>
    <path class="cls-3" d="M478.81,56.92c.42.34.79.7,1.1,1.14.24.34.46.76.51,1.2.05.43-.08.81-.39,1.11-.19.18-.39.3-.63.39-.3.12-.6.18-.91.22-1.73.23-4.13-.36-5.73-.82-1.8-.52-3.76-1.22-5.51-1.89-1.64-.63-3.78-1.5-5.37-2.24"/>
    <path class="cls-3" d="M482.52,262.96c-1.29,2.03-3.2,3.74-5.17,5.05-1.99,1.31-4.3,2.37-6.6,3-1.14.31-2.4.55-3.59.58-1.06.03-2.55-.07-3.46-.85-1.05-.9-.85-2.28-.46-3.37.39-1.1,1.09-2.23,1.77-3.17"/>
    <path class="cls-3" d="M400.78,150.62c.06,4.22.21,8.45.43,12.66.23,4.28.55,8.54.95,12.81.2,2.1.41,4.21.65,6.31.24,2.11.49,4.22.77,6.33.28,2.12.57,4.24.89,6.36.31,2.1.65,4.21,1,6.31.36,2.13.73,4.25,1.13,6.37.39,2.1.8,4.2,1.24,6.29.85,4.13,1.78,8.23,2.78,12.33.52,2.12,1.06,4.24,1.63,6.35.56,2.08,1.14,4.16,1.74,6.23.59,2.03,1.19,4.04,1.82,6.06.61,1.96,1.25,3.92,1.9,5.87,2.71,8.03,5.8,16.03,9.35,23.74,1.87,4.07,3.86,8.06,6.02,11.98,1.95,3.54,4.02,6.99,6.27,10.35,1.33,1.99,2.72,3.94,4.18,5.84,1.35,1.76,2.76,3.47,4.24,5.13,2.58,2.88,5.4,5.63,8.48,7.99,1.95,1.49,3.96,2.82,6.15,3.95,1.93,1,3.97,1.81,6.08,2.36,1.92.5,3.89.76,5.87.75,1.93-.01,3.82-.29,5.67-.83"/>
    <path class="cls-3" d="M461.89,56.04c-.5-.23-1-.47-1.48-.74-.36-.2-.78-.45-1.08-.73-.21-.19-.46-.5-.24-.79.07-.09.15-.15.24-.2.13-.08.27-.14.41-.19.41-.14.83-.22,1.25-.29,1.81-.27,4.13-.22,5.93-.06,1.95.17,3.96.51,5.84,1.04,1.82.51,3.84,1.28,5.42,2.37"/>
    <path class="cls-3" d="M465.02,264.2c1.4-1.92,3.26-3.81,5.08-5.32,1.82-1.5,4.03-2.98,6.27-3.83,1.12-.42,2.38-.73,3.6-.69,1.24.05,2.44.48,3.23,1.52.77,1.02.91,2.32.73,3.51-.18,1.21-.69,2.39-1.32,3.42"/>
    <path class="cls-3" d="M306.19,489.74c-.04-.11-.12-.19-.21-.24"/>
    <line class="cls-3" x1="191.59" y1="519.26" x2="191.71" y2="502.09"/>
    <path class="cls-3" d="M191.71,502.09c-15.76.47-31.52.74-47.29.83"/>
    <path class="cls-3" d="M191.71,502.09c.02-2.36-.06-4.72-.23-7.07-.17-2.34-.44-4.67-.81-6.99-.37-2.32-.84-4.61-1.42-6.89-.59-2.29-1.29-4.53-2.13-6.74-.84-2.2-1.81-4.33-2.97-6.39-1.14-2.04-2.49-4.02-4.05-5.78-1.55-1.74-3.36-3.33-5.43-4.45-2.09-1.13-4.37-1.76-6.77-1.67-2.39.09-4.62.89-6.62,2.13-2,1.24-3.76,2.9-5.25,4.7-1.5,1.8-2.8,3.81-3.91,5.87-1.12,2.08-2.07,4.21-2.9,6.42-.83,2.21-1.53,4.46-2.12,6.75-.59,2.27-1.07,4.56-1.46,6.88-.39,2.32-.68,4.65-.89,6.99-.21,2.35-.32,4.7-.35,7.05"/>
    <path class="cls-3" d="M201.11,430.86c.52,1.73,1.28,4.16,1.83,5.88.63,1.95,1.28,3.9,1.94,5.84s1.35,3.88,2.05,5.81c.7,1.93,1.42,3.86,2.15,5.78.73,1.92,1.47,3.83,2.22,5.74.75,1.91,1.5,3.82,2.25,5.73,1.46,3.73,3.01,7.74,4.25,11.56"/>
    <path class="cls-3" d="M217.79,477.2c1.18,3.63,2.45,7.22,3.64,10.84.59,1.81,1.17,3.63,1.7,5.46.53,1.83,1.03,3.67,1.48,5.52.45,1.85.85,3.72,1.21,5.59.36,1.87.67,3.75.95,5.64.27,1.89.5,3.78.7,5.67.2,1.9.36,3.8.48,5.7"/>
    <path class="cls-3" d="M316.65,532.94c-.15-1.87-.33-3.73-.54-5.59s-.47-3.71-.77-5.56c-.3-1.85-.63-3.69-1.02-5.52s-.81-3.65-1.29-5.46c-.47-1.81-1-3.61-1.55-5.4-.56-1.79-1.15-3.56-1.77-5.33-1.23-3.54-2.54-7.04-3.74-10.59"/>
    <path class="cls-3" d="M305.98,489.49c-1.19-3.51-2.11-6.92-2.78-10.56-.66-3.6-1.04-7.2-1.2-10.85-.17-3.65-.13-7.28.05-10.93.09-1.82.21-3.64.35-5.45.15-1.82.32-3.63.51-5.44"/>
    <path class="cls-3" d="M182.01,357.28c-6.36,4.85-12.23,10.35-17.22,16.64"/>
    <path class="cls-3" d="M164.79,373.93c-3.37-1.01-6.71-2.1-10.01-3.31-1.62-.59-3.22-1.21-4.82-1.86-1.57-.64-3.13-1.31-4.67-2.01-3.22-1.46-6.36-3.05-9.43-4.8-1.49-.85-2.96-1.74-4.41-2.66-1.42-.91-2.82-1.86-4.19-2.84-1.44-1.03-2.84-2.1-4.22-3.22-1.35-1.1-2.67-2.23-3.95-3.41-2.53-2.32-4.9-4.78-7.12-7.39-4.52-5.31-8.28-11.09-11.41-17.32-1.55-3.08-2.92-6.22-4.14-9.43-1.25-3.28-2.33-6.59-3.28-9.97-.46-1.64-.89-3.29-1.29-4.95-.4-1.68-.77-3.36-1.11-5.05-.69-3.44-1.26-6.9-1.72-10.38-.45-3.41-.8-6.82-1.06-10.25-.26-3.5-.44-6.99-.52-10.5-.08-3.44-.08-6.88,0-10.33.08-3.49.24-6.98.48-10.46"/>
    <path class="cls-3" d="M136.84,432.14c-1.07,4.08-2.24,8.12-3.5,12.15-1.26,4.02-2.63,8.01-4.08,11.96-1.46,3.95-3.01,7.87-4.61,11.77-1.43,3.47-3.42,8.2-4.8,11.69"/>
    <path class="cls-3" d="M216.1,477.94c-1.11-3.87-2.51-7.95-3.82-11.75-.67-1.95-1.35-3.89-2.02-5.84-.67-1.95-1.34-3.9-2-5.85-2.67-7.97-4.98-15.53-7.15-23.65"/>
    <path class="cls-3" d="M302.91,446.26c-.27,2.89-.49,5.78-.65,8.67-.15,2.9-.24,5.79-.23,8.69"/>
    <path class="cls-3" d="M313.86,377.41c-.77,1.59-1.44,3.2-2,4.87s-1.01,3.36-1.35,5.09c-.34,1.73-.57,3.46-.69,5.22s-.14,3.51-.06,5.27"/>
    <path class="cls-3" d="M309.95,396.83c0,.34-.04.7-.19,1.02"/>
    <path class="cls-3" d="M226.03,520.28c-.28-3.63-.68-7.24-1.24-10.84-.28-1.8-.6-3.59-.96-5.37-.36-1.78-.76-3.56-1.21-5.32s-.93-3.51-1.45-5.26c-.52-1.74-1.07-3.48-1.64-5.21-1.14-3.45-2.34-6.88-3.45-10.35"/>
    <line class="cls-3" x1="216.1" y1="477.94" x2="215.91" y2="519.84"/>
    <path class="cls-3" d="M60.81,450.96c.02,3.69-.08,7.37-.34,11.05-.13,1.84-.3,3.67-.52,5.51-.22,1.83-.49,3.65-.81,5.47-.65,3.64-1.51,7.21-2.63,10.73-1.13,3.57-2.46,6.89-3.99,10.31"/>
    <path class="cls-3" d="M118.11,479.03c1.54-3.51,3.66-8,5.27-11.49,1.76-3.83,3.47-7.67,5.08-11.57,1.61-3.9,3.11-7.83,4.51-11.8.7-1.99,1.37-3.98,2.02-5.99.59-1.83,1.32-4.19,1.86-6.04"/>
    <path class="cls-3" d="M156.43,39.62c4.62,1.17,8.85,3.27,12.67,6.09,4.49,3.31,8.23,7.49,11.34,12.07,2.72,4,4.97,8.34,6.83,12.8,2.08,5,3.69,10.22,4.92,15.49,2.32,9.96,3.34,20.37,3.4,30.56.03,5.16-.19,10.3-.62,15.45-.22,2.54-.49,5.07-.81,7.6-.33,2.54-.7,5.07-1.13,7.6-3.39,19.92-10.19,40.24-20.28,57.86-2.67,4.66-5.57,9.14-8.78,13.45-2.95,3.95-6.1,7.68-9.56,11.19-3.91,3.96-8.21,7.6-12.88,10.65-3.92,2.55-8.12,4.69-12.58,6.17"/>
    <line class="cls-3" x1="136.84" y1="432.14" x2="135.74" y2="520.26"/>
    <line class="cls-3" x1="200.56" y1="519.4" x2="201.11" y2="430.86"/>
    <line class="cls-3" x1="193.97" y1="502.07" x2="193.86" y2="519.29"/>
    <path class="cls-3" d="M142.2,502.98c.03-2.46.16-4.91.39-7.36.23-2.45.56-4.87,1-7.29.44-2.41.98-4.79,1.64-7.15.67-2.38,1.45-4.71,2.39-7,1.81-4.44,4.3-8.95,7.58-12.54,1.63-1.79,3.52-3.4,5.65-4.6,2.17-1.22,4.54-1.98,7.05-2.08,2.52-.09,4.94.5,7.19,1.6,2.19,1.08,4.13,2.6,5.83,4.33,1.73,1.76,3.23,3.77,4.52,5.86,1.29,2.09,2.37,4.26,3.31,6.52.96,2.28,1.75,4.61,2.42,6.99.66,2.36,1.2,4.74,1.62,7.15.42,2.42.72,4.84.92,7.29.2,2.46.29,4.91.27,7.38"/>
    <line class="cls-3" x1="302.91" y1="446.26" x2="303.03" y2="477.08"/>
    <path class="cls-3" d="M335.11,149.75c.82,26.65-5.93,55.33-18.77,78.74"/>
    <path class="cls-3" d="M302.85,248.25c-4.21,4.95-8.96,9.56-14.21,13.43-5.23,3.85-11.06,7.05-17.33,8.94"/>
    <path class="cls-3" d="M316.89,228.31c12.74-23.38,19.43-51.95,18.63-78.52"/>
    <path class="cls-3" d="M340.52,150.35c.55,26.58-5.98,54.89-18.25,78.5"/>
    <path class="cls-3" d="M302.88,256.61c-8.05,8.5-18.18,16.11-29.72,19.56"/>
    <path class="cls-3" d="M201.94,314.34c1.8,2.79,3.68,5.51,5.66,8.17,1.98,2.66,4.04,5.26,6.19,7.78"/>
    <path class="cls-3" d="M242.41,403.53c.56.06,1.1,0,1.64-.18"/>
    <path class="cls-3" d="M219.09,336.17c.11.12.22.23.34.35"/>
    <path class="cls-3" d="M247.86,399.46c-.06,1.12-.43,2.24-1.15,3.13"/>
    <path class="cls-3" d="M303.69,416.03s-.01.09-.02.13"/>
    <line class="cls-3" x1="276.25" y1="311.32" x2="284.02" y2="312.78"/>
    <path class="cls-3" d="M239.85,353.97c-1.09-.73-2.17-1.48-3.24-2.24"/>
    <path class="cls-3" d="M234.87,350.45c-1.39-1.04-2.76-2.11-4.11-3.2-1.35-1.1-2.67-2.22-3.97-3.37-1.3-1.15-2.58-2.33-3.83-3.53-1.25-1.2-2.48-2.43-3.69-3.68"/>
    <path class="cls-3" d="M213.46,330.24c-2.09-2.46-4.09-4.97-6.01-7.56-1.92-2.59-3.76-5.23-5.51-7.93"/>
    <path class="cls-3" d="M233.03,46.46c8.92-.34,17.81-.99,26.69-1.87"/>
    <path class="cls-3" d="M235.08,288.22c5.49-1.64,10.69-4.08,15.56-7.06,5.77-3.52,11.09-7.79,15.94-12.48,4.29-4.14,8.25-8.65,11.89-13.37,3.99-5.17,7.57-10.56,10.86-16.19,12.44-21.31,20.58-46.08,24.2-70.37.92-6.17,1.55-12.34,1.9-18.56.34-6.25.39-12.48.1-18.74-.57-12.37-2.46-24.97-6.14-36.84-1.95-6.28-4.42-12.45-7.53-18.25-2.77-5.18-6.07-10.11-9.98-14.51-4.41-4.97-9.55-9.23-15.48-12.32-5.22-2.72-10.8-4.39-16.66-4.94"/>
    <path class="cls-3" d="M236.61,351.48c1.23.89,2.48,1.75,3.75,2.58"/>
    <path class="cls-3" d="M161.5,374.62c-2.86.16-5.72.35-8.58.57"/>
    <path class="cls-3" d="M111.98,378.96c.28-.07.56-.14.84-.21"/>
    <path class="cls-3" d="M259.73,44.59c-3.05-.29-6.06-.26-9.1.05"/>
    <line class="cls-3" x1="242.59" y1="399.71" x2="241.44" y2="400.15"/>
    <path class="cls-3" d="M196.91,283.78c11.85,7.16,25.08,8.34,38.16,4.44"/>
    <path class="cls-3" d="M271.53,270.93c6.21-1.87,11.99-5.02,17.19-8.82,5.21-3.81,9.94-8.37,14.13-13.25"/>
    <path class="cls-3" d="M267.7,267.71c5.63-1.75,10.85-4.55,15.62-7.94,4.78-3.4,9.12-7.42,13.04-11.76,7.81-8.67,14.17-18.92,19.07-29.43,9.76-20.89,14.95-45.24,14.4-68.31"/>
    <path class="cls-3" d="M306.1,410.75c.34,1.8.44,4.23.21,6.05-.06.48-.16,1.02-.33,1.48-.18.49-.53,1.06-1.07.62-.17-.14-.29-.31-.4-.49-.15-.25-.28-.52-.39-.79-.19-.47-.33-.96-.44-1.45"/>
    <path class="cls-3" d="M303.67,416.16c-.44-1.84-.58-4.2-.26-6.08.09-.49.21-1.01.42-1.47.2-.43.6-1.04,1.13-.65.66.48,1.02,2.14,1.14,2.79"/>
    <path class="cls-3" d="M219.28,336.66c-.06.03-.13.05-.19.08"/>
    <path class="cls-3" d="M214.53,290.04c.36.71.85,1.39,1.43,1.94.56.54,1.28,1.03,2.06,1.23"/>
    <path class="cls-3" d="M218.5,293.75c-1-.05-1.95-.62-2.66-1.24-.74-.65-1.36-1.49-1.79-2.37"/>
    <path class="cls-3" d="M211.28,289.48c.09.71.31,1.36.62,2"/>
    <path class="cls-3" d="M262.35,272.66c3.12-.23,6.19-.83,9.18-1.72"/>
    <path class="cls-3" d="M235.17,288.23s-.06,0-.09-.01"/>
    <line class="cls-3" x1="275.97" y1="310.92" x2="276.25" y2="311.32"/>
    <line class="cls-3" x1="273.19" y1="306.9" x2="273.47" y2="307.3"/>
    <line class="cls-3" x1="275.97" y1="307.78" x2="273.47" y2="307.3"/>
    <path class="cls-3" d="M271.53,270.93c1.04,1.51,1.63,3.39,1.63,5.23"/>
    <path class="cls-3" d="M271.32,270.62c-.88-1.27-2.18-2.4-3.75-2.78"/>
    <path class="cls-3" d="M271.32,270.62c-2.81.84-5.62,1.41-8.54,1.67"/>
    <line class="cls-3" x1="271.32" y1="270.62" x2="271.53" y2="270.93"/>
    <path class="cls-3" d="M273.16,276.16c-5.61,1.67-11.44,2.32-17.29,1.61"/>
    <path class="cls-3" d="M304.59,418.28c.12-.04.21-.14.27-.24.1-.15.17-.32.23-.49.1-.29.16-.59.2-.89.09-.61.13-1.21.14-1.83.02-1.16-.06-2.5-.27-3.65"/>
    <path class="cls-3" d="M305.17,411.18c.18,0,.35-.04.52-.11.13-.05.35-.16.41-.32"/>
    <path class="cls-3" d="M305.17,411.18c-.1-.55-.4-2.01-.98-2.4"/>
    <path class="cls-3" d="M246.7,402.58c-.81,1-1.98,1.59-3.27,1.64-1.28.04-2.51-.44-3.48-1.23-.98-.79-1.7-1.88-2.07-3.09-.37-1.2-.39-2.51.02-3.71"/>
    <path class="cls-3" d="M244.05,403.35c.67-.23,1.25-.65,1.69-1.2"/>
    <path class="cls-3" d="M245.74,402.15c.16-.06.39.04.52.1.16.09.31.2.43.33"/>
    <path class="cls-3" d="M245.74,402.15c.67-.84.98-1.9.99-2.95"/>
    <line class="cls-3" x1="240.96" y1="398.1" x2="241.86" y2="397.75"/>
    <line class="cls-3" x1="243.59" y1="398.75" x2="242.45" y2="399.19"/>
    <line class="cls-3" x1="242.27" y1="398.52" x2="243.14" y2="398.18"/>
    <line class="cls-3" x1="150.52" y1="375.12" x2="150.52" y2="375.32"/>
    <line class="cls-3" x1="298.24" y1="279.99" x2="296.84" y2="279.71"/>
    <path class="cls-3" d="M128.94,246.58c-6.23,2.06-12.78,2.75-19.3,1.47"/>
    <path class="cls-3" d="M217.82,294.74s0,0,0,0"/>
    <path class="cls-3" d="M214.05,290.14c-.03-.06-.06-.12-.08-.18"/>
    <line class="cls-3" x1="214.05" y1="290.14" x2="211.9" y2="291.49"/>
    <path class="cls-3" d="M211.9,291.49c.54,1.1,1.38,2.13,2.41,2.82.51.34,1.1.62,1.71.73.61.11,1.26.06,1.8-.3"/>
    <path class="cls-3" d="M218.81,294.24c-.31,1.2-1.16,1.97-2.43,2-1.14.02-2.27-.56-3.11-1.22-.89-.69-1.64-1.6-2.19-2.58-.55-.98-.93-2.1-1.01-3.22"/>
    <path class="cls-3" d="M219.28,336.66c-.06-.07-.13-.13-.19-.2"/>
    <path class="cls-3" d="M219.43,336.52c1.27,1.32,2.56,2.61,3.88,3.87,1.32,1.26,2.67,2.5,4.04,3.7,1.37,1.21,2.77,2.38,4.2,3.53,1.43,1.14,2.87,2.26,4.35,3.34"/>
    <path class="cls-3" d="M309.72,395.29c.12.49.23,1.03.23,1.54"/>
    <path class="cls-3" d="M219.28,336.66c.06-.03.12-.09.15-.14"/>
    <line class="cls-3" x1="303.76" y1="412.53" x2="304.4" y2="412.49"/>
    <line class="cls-3" x1="304.89" y1="413.7" x2="304.37" y2="413.73"/>
    <line class="cls-3" x1="304.16" y1="413.06" x2="304.83" y2="413.02"/>
    <line class="cls-3" x1="304.58" y1="414.52" x2="304.1" y2="414.55"/>
    <line class="cls-3" x1="353.03" y1="188.59" x2="351.64" y2="188.28"/>
    <path class="cls-3" d="M479.03,60.78c.87-.29,1.33-.92.98-1.83-.28-.72-.95-1.36-1.53-1.79"/>
    <path class="cls-3" d="M475.88,149.36c-.18-8.49.46-17.19,2.26-25.52.95-4.42,2.24-8.81,3.96-13,.79-1.93,1.66-3.8,2.65-5.64.92-1.72,1.93-3.38,3.05-4.98,2.57-3.68,5.71-7,9.49-9.5,1.73-1.15,3.52-2.08,5.46-2.83,1.89-.72,3.8-1.21,5.81-1.48,1.97-.27,3.92-.31,5.9-.14,2.07.17,4.06.56,6.05,1.13,4.36,1.26,8.44,3.39,12.14,5.97,3.33,2.32,6.41,5.03,9.22,7.94,1.53,1.58,2.98,3.23,4.37,4.93,1.46,1.78,2.84,3.62,4.16,5.51,4.89,6.99,8.93,14.7,12.18,22.56.81,1.95,1.57,3.92,2.28,5.91.72,2.01,1.4,4.04,2.03,6.08,1.28,4.12,2.37,8.29,3.28,12.51.91,4.23,1.64,8.48,2.17,12.77.52,4.22.86,8.43.99,12.68"/>
    <path class="cls-3" d="M573.33,184.25c.27,8.59-.3,17.41-2.03,25.86-.91,4.46-2.17,8.91-3.84,13.16-1.49,3.79-3.36,7.49-5.65,10.87-2.54,3.74-5.66,7.15-9.42,9.74-1.73,1.19-3.53,2.18-5.49,2.96-1.91.77-3.85,1.29-5.89,1.6-4.06.6-8.11.23-12.04-.88-2.15-.61-4.19-1.41-6.2-2.39-2.17-1.06-4.21-2.28-6.18-3.65-3.36-2.34-6.46-5.07-9.29-8.01-3.16-3.29-6.04-6.88-8.64-10.62-4.93-7.09-8.99-14.91-12.24-22.89-1.63-3.99-3.05-8.04-4.31-12.17-1.27-4.18-2.35-8.4-3.24-12.68-.9-4.29-1.6-8.61-2.1-12.96-.25-2.15-.45-4.29-.6-6.45-.15-2.12-.24-4.24-.29-6.37"/>
    <line class="cls-3" x1="471.26" y1="59.66" x2="478.48" y2="57.16"/>
    <path class="cls-3" d="M478.08,152.74c-.16-7.39.4-14.96,1.96-22.21.83-3.84,1.95-7.66,3.45-11.31,1.32-3.23,2.96-6.37,4.97-9.24,2.24-3.2,4.97-6.09,8.25-8.27,1.5-1,3.06-1.82,4.75-2.46,1.65-.63,3.31-1.06,5.06-1.3,1.72-.24,3.41-.28,5.14-.14,1.8.14,3.53.48,5.27.98,3.8,1.09,7.36,2.94,10.58,5.17,2.9,2.01,5.59,4.37,8.04,6.9,1.33,1.38,2.6,2.81,3.81,4.29,1.27,1.55,2.48,3.15,3.63,4.79,4.26,6.08,7.78,12.78,10.61,19.62.7,1.7,1.36,3.41,1.99,5.15.63,1.75,1.22,3.51,1.77,5.29,1.11,3.59,2.06,7.21,2.85,10.88.79,3.68,1.42,7.38,1.88,11.12.45,3.67.74,7.34.85,11.03"/>
    <path class="cls-3" d="M562.93,183.02c.22,7.47-.28,15.14-1.79,22.48-.8,3.88-1.9,7.74-3.36,11.43-1.31,3.29-2.93,6.5-4.93,9.43-2.22,3.25-4.93,6.2-8.2,8.44-1.51,1.03-3.07,1.89-4.77,2.56-1.66.66-3.35,1.12-5.12,1.38-3.53.52-7.06.2-10.47-.76-3.87-1.09-7.47-2.95-10.76-5.23-2.92-2.02-5.62-4.4-8.09-6.95-2.75-2.85-5.26-5.97-7.52-9.21-2.1-3.01-3.99-6.13-5.73-9.37-.9-1.68-1.76-3.39-2.57-5.12-.83-1.77-1.61-3.56-2.35-5.37-1.42-3.47-2.66-6.99-3.75-10.57-1.11-3.63-2.05-7.3-2.82-11.02-.78-3.73-1.39-7.48-1.83-11.27-.43-3.7-.69-7.41-.77-11.14"/>
    <path class="cls-3" d="M314.7,505.64s-.06.1-.08.11c-.04.03-.08.06-.12.08-.08.05-.17.1-.26.14"/>
    <line class="cls-3" x1="281.34" y1="439.27" x2="281.83" y2="438.57"/>
    <path class="cls-3" d="M250.56,387.46c.13.08.25.16.38.24"/>
    <line class="cls-3" x1="250.98" y1="384.61" x2="250.95" y2="387.7"/>
    <path class="cls-3" d="M446.5,306.86c-2.14-2.48-4.11-5.07-5.99-7.75-2.08-2.98-4.02-6.04-5.85-9.18-1.67-2.87-3.25-5.8-4.74-8.76-1.61-3.19-3.12-6.42-4.55-9.7-.67-1.52-1.31-3.04-1.95-4.58-.65-1.58-1.28-3.17-1.9-4.76-1.27-3.29-2.47-6.6-3.61-9.94-1.09-3.21-2.13-6.43-3.11-9.68-.5-1.66-.99-3.33-1.46-5.01-.48-1.7-.95-3.41-1.4-5.11-.44-1.64-.86-3.29-1.27-4.93-.42-1.67-.82-3.35-1.21-5.03-.79-3.38-1.52-6.78-2.2-10.18-.67-3.37-1.3-6.74-1.87-10.13-.58-3.41-1.11-6.83-1.58-10.26-.48-3.42-.9-6.85-1.28-10.28-.19-1.71-.36-3.43-.52-5.15-.16-1.71-.31-3.42-.44-5.13-.14-1.74-.26-3.47-.37-5.21-.11-1.72-.21-3.45-.29-5.18-.15-3.23-.28-7.03-.33-10.26"/>
    <path class="cls-3" d="M400.58,150.65c-.03-2.27-.04-4.53-.01-6.8.02-2.21.07-4.43.15-6.64.08-2.27.18-4.53.32-6.79.13-2.21.29-4.41.49-6.62.77-8.83,2.07-17.9,4.09-26.54,1.98-8.47,4.89-17.5,9.12-25.2,1.14-2.08,2.38-4.08,3.79-5.99,1.25-1.71,2.6-3.32,4.12-4.82,1.68-1.66,3.53-3.15,5.57-4.35,1.83-1.08,3.78-1.9,5.84-2.42"/>
    <path class="cls-3" d="M446.5,306.86c.07,0,.14-.05.17-.11"/>
    <line class="cls-3" x1="281.56" y1="429.76" x2="281.81" y2="430.04"/>
    <line class="cls-3" x1="257.93" y1="295.71" x2="256.54" y2="295.45"/>
    <path class="cls-3" d="M250.95,387.7c1.39.84,3.12,1.53,4.71,1.87.79.17,1.71.28,2.53.2.41-.04.85-.13,1.21-.35.38-.23.63-.57.63-1.03"/>
    <path class="cls-3" d="M258.55,386.57c.53.32,1.06.72,1.48,1.18.23.26.45.55.58.88.1.26.15.54.09.82s-.23.5-.44.68c-.28.22-.63.36-.97.45-.6.16-1.27.19-1.88.17-2.35-.08-5.2-.98-7.24-2.09"/>
    <path class="cls-3" d="M248.62,385.14c0,.51.42,1.02.73,1.34.37.37.78.68,1.22.97"/>
    <path class="cls-3" d="M258.26,386.54c.09.05.19.05.28.03"/>
    <path class="cls-3" d="M250.56,387.46c-.06.21-.17.42-.3.58-.12.15-.32.33-.53.36"/>
    <line class="cls-3" x1="312.69" y1="251.62" x2="313.87" y2="251.74"/>
    <path class="cls-3" d="M250.17,388.65c-.15-.08-.3-.16-.44-.25"/>
    <path class="cls-3" d="M479.82,322.19c-6.49,1.93-12.85.43-18.52-2.69-5.55-3.05-10.5-7.68-14.58-12.38"/>
    <path class="cls-3" d="M446.72,307.11c.07,0,.14-.05.17-.11"/>
    <path class="cls-3" d="M337.02,51.72c1.77,1.24,3.45,2.56,5.08,3.97,1.67,1.45,3.26,2.98,4.78,4.58,1.47,1.55,2.87,3.17,4.21,4.84,1.39,1.74,2.7,3.53,3.94,5.37,1.2,1.78,2.33,3.59,3.4,5.45,1.11,1.92,2.15,3.88,3.13,5.87.95,1.93,1.84,3.88,2.67,5.87.86,2.04,1.66,4.09,2.4,6.18,5.85,16.32,8.46,34.14,8.8,51.34"/>
    <path class="cls-3" d="M446.72,307.11l-.22-.25"/>
    <path class="cls-3" d="M375.17,145.21c-.04-1.96-.11-3.91-.21-5.86-.1-1.93-.22-3.85-.38-5.77-.16-1.95-.34-3.89-.57-5.83-.22-1.91-.47-3.82-.75-5.73-.28-1.93-.6-3.86-.96-5.78-.35-1.89-.73-3.78-1.15-5.66-.43-1.92-.89-3.83-1.39-5.73-.49-1.85-1.02-3.69-1.58-5.52-.58-1.88-1.2-3.74-1.87-5.59-.65-1.8-1.34-3.59-2.07-5.36-.75-1.81-1.55-3.61-2.4-5.38-.83-1.73-1.7-3.44-2.62-5.12-1.87-3.41-3.92-6.69-6.22-9.84-1.16-1.6-2.38-3.14-3.66-4.65-1.24-1.46-2.52-2.86-3.87-4.21"/>
    <path class="cls-3" d="M411.27,55.93c-23.99.25-50.44-1.72-74.25-4.2"/>
    <path class="cls-3" d="M337.02,51.72c-.06,0-.13.03-.16.08"/>
    <path class="cls-3" d="M379.53,147.88c1.73.38,3.47.73,5.21,1.06,1.74.32,3.49.62,5.25.87,3.48.5,7.06.86,10.59.84"/>
    <path class="cls-3" d="M465.31,264.19c-.07.09-.22.05-.29.01"/>
    <line class="cls-3" x1="464.55" y1="265.32" x2="483.43" y2="260.01"/>
    <path class="cls-3" d="M470.26,270.51c2.3-.58,4.64-1.61,6.64-2.87,1.99-1.26,3.94-2.93,5.27-4.92"/>
    <path class="cls-3" d="M480.08,322.11s0,0,0,0"/>
    <path class="cls-3" d="M462.05,56.05c-.05-.03-.1-.03-.16-.01"/>
    <path class="cls-3" d="M581.51,243.91c-.33,1-1.14,2.35-1.71,3.21"/>
    <path class="cls-3" d="M482.16,262.71s.06-.09.09-.13"/>
    <line class="cls-3" x1="531.35" y1="220.37" x2="531.5" y2="220.34"/>
    <line class="cls-3" x1="526.12" y1="221.32" x2="526.27" y2="221.29"/>
    <line class="cls-3" x1="527.01" y1="218.75" x2="527.16" y2="218.72"/>
    <line class="cls-3" x1="525.95" y1="215.5" x2="526.1" y2="215.47"/>
    <line class="cls-3" x1="524.82" y1="214.6" x2="524.97" y2="214.57"/>
    <path class="cls-3" d="M478.18,56.44c.22.15.43.31.63.47"/>
    <path class="cls-3" d="M482.6,262.82l-.09.14"/>
    <path class="cls-3" d="M477.86,56.72c.05-.13.18-.26.33-.28"/>
    <path class="cls-3" d="M482.25,262.58c.09.1.23.19.36.24"/>
    <path class="cls-3" d="M482.25,262.58c.51-.79.93-1.66,1.18-2.57"/>
    <path class="cls-3" d="M478.48,57.16c-.2-.15-.41-.3-.62-.43"/>
    <path class="cls-3" d="M477.86,56.72c-1.27-.82-2.82-1.43-4.25-1.86-1.49-.45-3-.75-4.55-.97-1.54-.21-3.08-.32-4.64-.32-.78,0-1.55.02-2.33.09-.42.04-.84.09-1.26.16-.35.06-.69.13-1.02.26"/>
    <path class="cls-3" d="M483.43,260.01c.23-.83.32-1.74.14-2.6-.18-.87-.64-1.64-1.38-2.16-1.49-1.04-3.54-.75-5.07-.28"/>
    <path class="cls-3" d="M309.92,500.28c.07-3.3.15-6.59.21-9.89.06-2.86.13-7.03.06-9.89-.02-.73-.05-1.45-.1-2.18-.02-.29-.05-.57-.09-.85-.03-.22-.06-.43-.11-.65-.14-.6-.36-.88-.69-.25-.13.24-.22.5-.3.76-.12.36-.22.73-.31,1.09-.24.97-.44,1.95-.61,2.93-.55,3.09-.99,6.68-1.3,9.8"/>
    <line class="cls-3" x1="144.42" y1="502.91" x2="144.22" y2="519.89"/>
    <line class="cls-3" x1="119.26" y1="521.23" x2="119.84" y2="479.71"/>
    <path class="cls-3" d="M119.84,479.71c-1.5,3.44-3.1,6.83-4.63,10.26-.77,1.71-1.51,3.43-2.22,5.17-.71,1.74-1.38,3.49-2,5.26-.62,1.77-1.19,3.56-1.71,5.36-.52,1.81-.98,3.62-1.39,5.45-.83,3.67-1.44,7.36-1.89,11.09"/>
    <path class="cls-3" d="M103.92,523.69c.43-3.91,1.02-7.79,1.84-11.64.82-3.86,1.85-7.63,3.12-11.36.63-1.86,1.32-3.7,2.05-5.52.73-1.82,1.51-3.63,2.31-5.43,1.6-3.59,3.29-7.13,4.87-10.73"/>
    <line class="cls-3" x1="142" y1="519.98" x2="142.2" y2="502.98"/>
    <path class="cls-3" d="M306.43,490.43c.37-3.49.93-7.83,1.66-11.26.11-.51.22-1.01.35-1.51.11-.42.22-.83.36-1.24.11-.32.22-.63.37-.93.05-.1.11-.19.18-.28.05-.06.09-.1.17-.13.15-.05.25.12.3.22.06.11.09.23.12.35.04.17.08.34.11.51.24,1.47.27,4.21.28,5.68"/>
    <path class="cls-3" d="M323.76,534.35c-.57-2.43-1.22-4.84-1.94-7.23-.72-2.39-1.51-4.75-2.35-7.1-1.68-4.7-3.53-9.34-5.23-14.03"/>
    <path class="cls-3" d="M193.97,502.07c-.75-.01-1.51,0-2.26.02"/>
    <path class="cls-3" d="M142.2,502.98c.74-.04,1.48-.06,2.21-.06"/>
    <path class="cls-3" d="M216.1,477.94c.42-.42,1.12-.68,1.69-.75"/>
    <path class="cls-3" d="M119.84,479.71c-.47-.34-1.15-.63-1.73-.68"/>
    <path class="cls-3" d="M314.23,505.98c-.86-2.58-1.63-5.19-2.3-7.83-.67-2.64-1.23-5.3-1.69-7.98"/>
    <line class="cls-3" x1="314.23" y1="505.98" x2="314.28" y2="515.28"/>
  </g>
  <g id="_图层_4" data-name="图层 4">
    <polygon class="cls-1" points="264.91 353.01 291.66 343.82 284.87 272.85 259.82 285.91 264.91 353.01"/>
    <polygon class="cls-1" points="242.87 306.32 302.26 280.9 269.84 255.99 242.87 306.32"/>
  </g>
</svg>