<?xml version="1.0" encoding="UTF-8"?>
<svg xmlns="http://www.w3.org/2000/svg" viewBox="0 0 677 302.53">
  <defs>
    <style>
      .cls-1 {
        fill: red;
        stroke-width: 0px;
      }

      .cls-2 {
        fill: none;
        stroke: #000;
        stroke-linecap: round;
        stroke-linejoin: round;
      }
    </style>
  </defs>
  <g id="Make2D::可见线::曲线">
    <line class="cls-2" x1="576.41" y1="80.4" x2="508.19" y2="80.4"/>
    <line class="cls-2" x1="525.15" y1="80.4" x2="525.15" y2="90.53"/>
    <line class="cls-2" x1="588.43" y1="196.4" x2="588.43" y2="207.12"/>
    <line class="cls-2" x1="604.51" y1="207.12" x2="570.88" y2="207.12"/>
    <line class="cls-2" x1="115.2" y1="113.04" x2="137.62" y2="113.04"/>
    <line class="cls-2" x1="114.96" y1="121.81" x2="114.96" y2="107.19"/>
    <line class="cls-2" x1="140.54" y1="107.19" x2="140.54" y2="121.81"/>
    <line class="cls-2" x1="112.28" y1="121.81" x2="112.28" y2="107.19"/>
    <line class="cls-2" x1="216.17" y1="299.19" x2="204.48" y2="299.19"/>
    <line class="cls-2" x1="170.37" y1="121.81" x2="229.43" y2="121.81"/>
    <line class="cls-2" x1="214.81" y1="113.04" x2="192.39" y2="113.04"/>
    <line class="cls-2" x1="211.3" y1="269.95" x2="216.17" y2="282.62"/>
    <line class="cls-2" x1="83.04" y1="299.19" x2="83.04" y2="127.66"/>
    <line class="cls-2" x1="113.84" y1="299.19" x2="113.84" y2="282.62"/>
    <line class="cls-2" x1="312.5" y1="113.04" x2="334.92" y2="113.04"/>
    <line class="cls-2" x1="356.95" y1="121.81" x2="297.88" y2="121.81"/>
    <path class="cls-2" d="M285.21,299.19h-4.87"/>
    <line class="cls-2" x1="337.84" y1="107.19" x2="337.84" y2="121.81"/>
    <line class="cls-2" x1="309.58" y1="121.81" x2="309.58" y2="107.19"/>
    <line class="cls-2" x1="413.47" y1="299.19" x2="401.78" y2="299.19"/>
    <line class="cls-2" x1="367.67" y1="121.81" x2="426.73" y2="121.81"/>
    <line class="cls-2" x1="412.11" y1="113.04" x2="389.69" y2="113.04"/>
    <line class="cls-2" x1="413.47" y1="299.19" x2="439.4" y2="299.19"/>
    <line class="cls-2" x1="270.69" y1="230.97" x2="280.34" y2="230.97"/>
    <line class="cls-2" x1="280.34" y1="299.19" x2="280.34" y2="127.66"/>
    <path class="cls-2" d="M153.06,67.41h1.8"/>
    <line class="cls-2" x1="153.06" y1="67.41" x2="151.93" y2="67.41"/>
    <path class="cls-2" d="M392.69,16.53v-.38h0"/>
    <path class="cls-2" d="M392.69,31.93h0v-.39"/>
    <line class="cls-2" x1="392.69" y1="16.53" x2="392.69" y2="31.54"/>
    <line class="cls-2" x1="508.19" y1="21.92" x2="576.41" y2="21.92"/>
    <path class="cls-2" d="M414.14,31.54v.38h0"/>
    <path class="cls-2" d="M414.14,16.14h0v.39"/>
    <line class="cls-2" x1="414.14" y1="31.54" x2="414.14" y2="16.53"/>
    <line class="cls-2" x1="485.6" y1="206.63" x2="485.6" y2="242.2"/>
    <line class="cls-2" x1="608.41" y1="242.2" x2="608.41" y2="206.63"/>
    <line class="cls-2" x1="615.23" y1="276.32" x2="570.88" y2="276.32"/>
    <line class="cls-2" x1="523.13" y1="276.32" x2="478.78" y2="276.32"/>
    <line class="cls-2" x1="570.88" y1="207.12" x2="523.13" y2="207.12"/>
    <line class="cls-2" x1="523.13" y1="207.12" x2="489.5" y2="207.12"/>
    <line class="cls-2" x1="159.65" y1="121.81" x2="100.59" y2="121.81"/>
    <line class="cls-2" x1="100.59" y1="68.17" x2="100.59" y2="114.09"/>
    <line class="cls-2" x1="246.97" y1="127.66" x2="246.97" y2="299.19"/>
    <line class="cls-2" x1="229.43" y1="68.17" x2="229.43" y2="114.09"/>
    <line class="cls-2" x1="229.43" y1="120.95" x2="229.43" y2="127.66"/>
    <line class="cls-2" x1="83.04" y1="127.66" x2="246.97" y2="127.66"/>
    <line class="cls-2" x1="100.59" y1="120.95" x2="100.59" y2="127.66"/>
    <path class="cls-2" d="M261.49,294.32c0,.64-.13,1.27-.37,1.86-.25.59-.6,1.13-1.06,1.58s-.99.81-1.58,1.06c-.59.24-1.22.37-1.86.37"/>
    <line class="cls-2" x1="204.48" y1="284.57" x2="125.54" y2="284.57"/>
    <line class="cls-2" x1="297.88" y1="68.17" x2="297.88" y2="114.09"/>
    <line class="cls-2" x1="390.57" y1="284.57" x2="390.57" y2="291.39"/>
    <line class="cls-2" x1="444.27" y1="127.66" x2="444.27" y2="299.19"/>
    <line class="cls-2" x1="426.73" y1="68.17" x2="426.73" y2="114.09"/>
    <line class="cls-2" x1="426.73" y1="120.95" x2="426.73" y2="127.66"/>
    <line class="cls-2" x1="280.34" y1="127.66" x2="444.27" y2="127.66"/>
    <line class="cls-2" x1="297.88" y1="120.95" x2="297.88" y2="127.66"/>
    <line class="cls-2" x1="401.78" y1="284.57" x2="322.83" y2="284.57"/>
    <line class="cls-2" x1="390.5" y1="40" x2="390.5" y2="55.59"/>
    <line class="cls-2" x1="413.89" y1="55.59" x2="413.89" y2="40"/>
    <line class="cls-2" x1="153.06" y1="60.59" x2="153.06" y2="67.41"/>
    <line class="cls-2" x1="151.93" y1="60.59" x2="151.93" y2="67.41"/>
    <line class="cls-2" x1="188.68" y1="60.59" x2="187.56" y2="60.59"/>
    <line class="cls-2" x1="151.93" y1="67.41" x2="150.82" y2="67.41"/>
    <path class="cls-2" d="M87.92,299.19h-4.87"/>
    <line class="cls-2" x1="157.05" y1="56.17" x2="156.1" y2="55.23"/>
    <line class="cls-2" x1="156.1" y1="55.23" x2="156.1" y2="60.59"/>
    <path class="cls-2" d="M394.88,113.04c.7-1.26,1.71-2.3,2.95-3.03,1.24-.73,2.65-1.11,4.08-1.11s2.84.38,4.08,1.11c1.24.73,2.26,1.77,2.95,3.03"/>
    <path class="cls-2" d="M317.69,113.04c.7-1.26,1.72-2.3,2.95-3.03,1.24-.73,2.65-1.11,4.08-1.11s2.84.38,4.08,1.11c1.24.73,2.26,1.77,2.95,3.03"/>
    <line class="cls-2" x1="193.27" y1="291.39" x2="136.74" y2="291.39"/>
    <line class="cls-2" x1="87.92" y1="299.19" x2="98.15" y2="299.19"/>
    <line class="cls-2" x1="156.1" y1="67.41" x2="156.1" y2="72.77"/>
    <line class="cls-2" x1="156.1" y1="72.77" x2="157.05" y2="71.83"/>
    <line class="cls-2" x1="216.17" y1="299.19" x2="242.1" y2="299.19"/>
    <path class="cls-2" d="M120.39,113.04c.7-1.26,1.72-2.3,2.95-3.03,1.24-.73,2.65-1.11,4.08-1.11s2.84.38,4.08,1.11c1.24.73,2.26,1.77,2.95,3.03"/>
    <path class="cls-2" d="M197.58,113.04c.7-1.26,1.72-2.3,2.95-3.03,1.24-.73,2.65-1.11,4.08-1.11s2.84.38,4.08,1.11c1.24.73,2.26,1.77,2.95,3.03"/>
    <line class="cls-2" x1="182.45" y1="71.83" x2="157.05" y2="71.83"/>
    <line class="cls-2" x1="156.1" y1="72.77" x2="183.39" y2="72.77"/>
    <line class="cls-2" x1="183.39" y1="72.77" x2="182.45" y2="71.83"/>
    <path class="cls-2" d="M387.82,16.53c0-.1.04-.2.11-.28.07-.07.17-.11.28-.11"/>
    <path class="cls-2" d="M388.21,31.93c-.1,0-.2-.04-.28-.11-.07-.07-.11-.17-.11-.28"/>
    <line class="cls-2" x1="183.39" y1="55.23" x2="182.45" y2="56.17"/>
    <line class="cls-2" x1="387.82" y1="31.54" x2="387.82" y2="16.53"/>
    <line class="cls-2" x1="182.45" y1="56.17" x2="182.45" y2="71.83"/>
    <line class="cls-2" x1="183.39" y1="72.77" x2="183.39" y2="67.41"/>
    <line class="cls-2" x1="183.39" y1="60.59" x2="183.39" y2="55.23"/>
    <line class="cls-2" x1="388.21" y1="31.93" x2="392.69" y2="31.93"/>
    <line class="cls-2" x1="392.69" y1="16.14" x2="388.21" y2="16.14"/>
    <path class="cls-2" d="M656.6,145.77c0,.48-.02.96-.06,1.45-.04.5-.11.99-.2,1.48-.19,1.02-.48,2.03-.86,2.99-.4,1.01-.9,1.97-1.49,2.88-.61.93-1.31,1.79-2.09,2.57-.78.78-1.64,1.48-2.57,2.09-.91.59-1.87,1.09-2.88,1.49-.97.38-1.97.67-2.99.86-.49.09-.98.16-1.48.2-.48.04-.96.07-1.45.07s-.96-.02-1.44-.07c-.5-.04-.99-.11-1.48-.2-1.02-.19-2.03-.48-2.99-.86-1.01-.4-1.97-.9-2.88-1.49-.93-.61-1.79-1.31-2.57-2.09-.78-.78-1.48-1.64-2.09-2.57-.59-.91-1.09-1.87-1.49-2.88-.38-.97-.67-1.97-.86-2.99-.09-.49-.16-.98-.2-1.48-.04-.48-.06-.96-.06-1.45s.02-.96.06-1.44c.04-.5.11-.99.2-1.48.19-1.02.48-2.03.86-2.99.4-1.01.9-1.97,1.49-2.88.61-.93,1.31-1.79,2.09-2.57s1.64-1.48,2.57-2.09c.91-.59,1.87-1.09,2.88-1.49.97-.38,1.97-.67,2.99-.86.49-.09.98-.16,1.48-.2.48-.04.96-.06,1.44-.06s.96.02,1.45.06c.5.04.99.11,1.48.2,1.02.19,2.03.48,2.99.86,1.01.4,1.97.9,2.88,1.49.93.61,1.79,1.31,2.57,2.09s1.48,1.64,2.09,2.57c.59.91,1.09,1.87,1.49,2.88.38.97.67,1.97.86,2.99.09.49.16.98.2,1.48.04.48.07.96.07,1.44Z"/>
    <path class="cls-2" d="M52.34,145.77c0,.48-.02.96-.06,1.45-.04.5-.11.99-.2,1.48-.19,1.02-.48,2.03-.86,2.99-.4,1.01-.9,1.97-1.49,2.88-.61.93-1.31,1.79-2.09,2.57-.78.78-1.64,1.48-2.57,2.09-.91.59-1.87,1.09-2.88,1.49-.97.38-1.97.67-2.99.86-.49.09-.98.16-1.48.2-.48.04-.96.07-1.45.07s-.96-.02-1.45-.07c-.5-.04-.99-.11-1.48-.2-1.02-.19-2.03-.48-2.99-.86-1.01-.4-1.97-.9-2.88-1.49-.93-.61-1.79-1.31-2.57-2.09s-1.48-1.64-2.09-2.57c-.59-.91-1.09-1.87-1.49-2.88-.38-.97-.67-1.97-.86-2.99-.09-.49-.16-.98-.2-1.48-.04-.48-.07-.96-.07-1.45s.02-.96.07-1.44c.04-.5.11-.99.2-1.48.19-1.02.48-2.03.86-2.99.4-1.01.9-1.97,1.49-2.88.61-.93,1.31-1.79,2.09-2.57.78-.78,1.64-1.48,2.57-2.09.91-.59,1.87-1.09,2.88-1.49.97-.38,1.97-.67,2.99-.86.49-.09.98-.16,1.48-.2.48-.04.96-.06,1.45-.06s.96.02,1.44.06c.5.04.99.11,1.48.2,1.02.19,2.03.48,2.99.86,1.01.4,1.97.9,2.88,1.49.93.61,1.79,1.31,2.57,2.09s1.48,1.64,2.09,2.57c.59.91,1.09,1.87,1.49,2.88.38.97.67,1.97.86,2.99.09.49.16.98.2,1.48.04.48.06.96.06,1.44Z"/>
    <path class="cls-2" d="M45.51,301.68c-5.04.67-10.17.37-15.09-.88-4.93-1.26-9.58-3.45-13.68-6.45-4.11-3.01-7.6-6.77-10.29-11.09-2.69-4.32-4.52-9.11-5.4-14.12"/>
    <path class="cls-2" d="M45.81,301.71c-.1,0-.2-.01-.3-.03"/>
    <line class="cls-2" x1="644.39" y1="301.71" x2="45.81" y2="301.71"/>
    <path class="cls-2" d="M645.5,301.01c-.1.21-.26.38-.46.51-.2.12-.42.19-.65.19"/>
    <path class="cls-2" d="M676.07,257.22c.62,4.85.33,9.78-.84,14.53-1.17,4.75-3.21,9.25-6.01,13.26-2.8,4.01-6.32,7.47-10.38,10.21-4.05,2.74-8.58,4.7-13.35,5.79"/>
    <line class="cls-2" x1="676.07" y1="146.48" x2="676.07" y2="257.22"/>
    <path class="cls-2" d="M676.11,146.27c0,.07-.01.15-.04.21"/>
    <path class="cls-2" d="M556.4.93c17.26,2.03,33.97,7.35,49.23,15.67,15.27,8.33,28.8,19.5,39.85,32.93,11.06,13.42,19.44,28.84,24.68,45.42,5.24,16.57,7.26,33.99,5.95,51.32"/>
    <line class="cls-2" x1="146.05" y1=".93" x2="556.4" y2=".93"/>
    <path class="cls-2" d="M145.83.89c.07,0,.15.01.21.04"/>
    <path class="cls-2" d="M1.2,115.56c2.6-16.75,8.32-32.87,16.85-47.51,8.53-14.66,19.74-27.59,33.03-38.13,13.29-10.54,28.44-18.49,44.66-23.46C111.94,1.49,128.93-.39,145.83.89"/>
    <path class="cls-2" d="M.71,116.54c0-.19.04-.38.13-.55.08-.17.21-.32.36-.43"/>
    <line class="cls-2" x1=".71" y1="118.95" x2=".71" y2="116.54"/>
    <path class="cls-2" d="M.51,120.6c.06-.55.13-1.11.2-1.66"/>
    <path class="cls-2" d="M354.47,38.56c0,.48-.02.96-.06,1.44-.04.5-.11.99-.2,1.48-.19,1.02-.48,2.03-.86,2.99-.4,1.01-.9,1.97-1.49,2.88-.61.93-1.31,1.79-2.09,2.57s-1.64,1.48-2.57,2.09c-.91.59-1.87,1.09-2.88,1.49-.97.38-1.97.67-2.99.86-.49.09-.98.16-1.48.2-.48.04-.96.06-1.44.06s-.96-.02-1.45-.06c-.5-.04-.99-.11-1.48-.2-1.02-.19-2.03-.48-2.99-.86-1.01-.4-1.97-.9-2.88-1.49-.93-.61-1.79-1.31-2.57-2.09-.78-.78-1.48-1.64-2.09-2.57-.59-.91-1.09-1.87-1.49-2.88-.38-.97-.67-1.97-.86-2.99-.09-.49-.16-.98-.2-1.48-.04-.48-.07-.96-.07-1.44s.02-.96.07-1.45c.04-.5.11-.99.2-1.48.19-1.02.48-2.03.86-2.99.4-1.01.9-1.97,1.49-2.88.61-.93,1.31-1.79,2.09-2.57.78-.78,1.64-1.48,2.57-2.09.91-.59,1.87-1.09,2.88-1.49.97-.38,1.97-.67,2.99-.86.49-.09.98-.16,1.48-.2.48-.04.96-.06,1.45-.06s.96.02,1.44.06c.5.04.99.11,1.48.2,1.02.19,2.03.48,2.99.86,1.01.4,1.97.9,2.88,1.49.93.61,1.79,1.31,2.57,2.09.78.78,1.48,1.64,2.09,2.57.59.91,1.09,1.87,1.49,2.88.38.97.67,1.97.86,2.99.09.49.16.98.2,1.48.04.48.06.96.06,1.45Z"/>
    <path class="cls-2" d="M.71,121.44c-.16-.25-.24-.54-.2-.84"/>
    <line class="cls-2" x1=".71" y1="268.29" x2=".71" y2="121.44"/>
    <path class="cls-2" d="M1.03,269.13c-.21-.23-.33-.53-.32-.84"/>
    <line class="cls-2" x1="510.46" y1="207.12" x2="510.46" y2="196.4"/>
    <line class="cls-2" x1="534.9" y1="80.4" x2="534.9" y2="90.53"/>
    <line class="cls-2" x1="559.46" y1="80.4" x2="559.46" y2="90.53"/>
    <line class="cls-2" x1="508.19" y1="80.4" x2="508.19" y2="21.92"/>
    <line class="cls-2" x1="576.41" y1="21.92" x2="576.41" y2="80.4"/>
    <line class="cls-2" x1="520.47" y1="80.4" x2="520.47" y2="90.53"/>
    <line class="cls-2" x1="544.64" y1="80.4" x2="544.64" y2="90.53"/>
    <line class="cls-2" x1="539.96" y1="80.4" x2="539.96" y2="90.53"/>
    <line class="cls-2" x1="554.39" y1="80.4" x2="554.39" y2="90.53"/>
    <line class="cls-2" x1="564.13" y1="80.4" x2="564.13" y2="90.53"/>
    <line class="cls-2" x1="530.22" y1="80.4" x2="530.22" y2="90.53"/>
    <line class="cls-2" x1="549.71" y1="80.4" x2="549.71" y2="90.53"/>
    <line class="cls-2" x1="549.71" y1="90.53" x2="554.39" y2="90.53"/>
    <line class="cls-2" x1="386.6" y1="40" x2="386.6" y2="55.59"/>
    <line class="cls-2" x1="387.09" y1="40.68" x2="387.09" y2="40"/>
    <line class="cls-2" x1="390.5" y1="40.68" x2="387.09" y2="40.68"/>
    <line class="cls-2" x1="387.09" y1="54.91" x2="390.5" y2="54.91"/>
    <line class="cls-2" x1="387.09" y1="55.59" x2="387.09" y2="54.91"/>
    <line class="cls-2" x1="387.09" y1="40" x2="386.6" y2="40"/>
    <line class="cls-2" x1="387.09" y1="55.59" x2="386.6" y2="55.59"/>
    <line class="cls-2" x1="559.46" y1="90.53" x2="564.13" y2="90.53"/>
    <line class="cls-2" x1="530.22" y1="90.53" x2="534.9" y2="90.53"/>
    <line class="cls-2" x1="520.47" y1="90.53" x2="525.15" y2="90.53"/>
    <line class="cls-2" x1="413.89" y1="54.91" x2="417.3" y2="54.91"/>
    <line class="cls-2" x1="417.3" y1="40.68" x2="413.89" y2="40.68"/>
    <line class="cls-2" x1="417.3" y1="40" x2="417.3" y2="40.68"/>
    <line class="cls-2" x1="417.79" y1="55.59" x2="417.79" y2="40"/>
    <line class="cls-2" x1="417.3" y1="54.91" x2="417.3" y2="55.59"/>
    <line class="cls-2" x1="417.79" y1="40" x2="417.3" y2="40"/>
    <line class="cls-2" x1="417.79" y1="55.59" x2="417.3" y2="55.59"/>
    <line class="cls-2" x1="539.96" y1="90.53" x2="544.64" y2="90.53"/>
    <line class="cls-2" x1="568.62" y1="19.97" x2="576.41" y2="19.97"/>
    <line class="cls-2" x1="576.41" y1="19.97" x2="576.41" y2="21.92"/>
    <line class="cls-2" x1="568.62" y1="19.97" x2="568.62" y2="21.92"/>
    <line class="cls-2" x1="508.19" y1="19.97" x2="515.99" y2="19.97"/>
    <line class="cls-2" x1="515.99" y1="19.97" x2="515.99" y2="21.92"/>
    <line class="cls-2" x1="508.19" y1="19.97" x2="508.19" y2="21.92"/>
    <line class="cls-2" x1="157.05" y1="56.17" x2="182.45" y2="56.17"/>
    <line class="cls-2" x1="183.39" y1="55.23" x2="156.1" y2="55.23"/>
    <line class="cls-2" x1="188.68" y1="67.41" x2="188.68" y2="60.59"/>
    <path class="cls-2" d="M419.01,31.54c0,.1-.04.2-.11.28-.07.07-.17.11-.28.11"/>
    <path class="cls-2" d="M418.62,16.14c.1,0,.2.04.28.11.07.07.11.17.11.28"/>
    <line class="cls-2" x1="188.82" y1="60.59" x2="188.82" y2="67.41"/>
    <line class="cls-2" x1="419.01" y1="16.53" x2="419.01" y2="31.54"/>
    <line class="cls-2" x1="187.56" y1="67.41" x2="187.56" y2="60.59"/>
    <line class="cls-2" x1="186.43" y1="60.59" x2="186.43" y2="67.41"/>
    <line class="cls-2" x1="184.63" y1="60.59" x2="184.63" y2="67.41"/>
    <line class="cls-2" x1="418.62" y1="16.14" x2="414.14" y2="16.14"/>
    <line class="cls-2" x1="414.14" y1="31.93" x2="418.62" y2="31.93"/>
    <line class="cls-2" x1="478.78" y1="223.69" x2="478.78" y2="242.2"/>
    <line class="cls-2" x1="615.23" y1="223.69" x2="615.23" y2="242.2"/>
    <line class="cls-2" x1="570.88" y1="276.32" x2="570.88" y2="207.12"/>
    <line class="cls-2" x1="523.13" y1="207.12" x2="523.13" y2="276.32"/>
    <line class="cls-2" x1="604.51" y1="206.63" x2="608.41" y2="206.63"/>
    <line class="cls-2" x1="539.21" y1="267.06" x2="554.8" y2="267.06"/>
    <line class="cls-2" x1="554.8" y1="249.03" x2="554.8" y2="267.06"/>
    <line class="cls-2" x1="554.8" y1="249.03" x2="539.21" y2="249.03"/>
    <line class="cls-2" x1="539.21" y1="249.03" x2="539.21" y2="267.06"/>
    <line class="cls-2" x1="489.5" y1="206.63" x2="485.6" y2="206.63"/>
    <line class="cls-2" x1="478.78" y1="223.69" x2="485.6" y2="223.69"/>
    <line class="cls-2" x1="496.33" y1="276.32" x2="496.33" y2="293.86"/>
    <line class="cls-2" x1="597.69" y1="293.86" x2="597.69" y2="276.32"/>
    <line class="cls-2" x1="615.23" y1="223.69" x2="608.41" y2="223.69"/>
    <line class="cls-2" x1="604.51" y1="207.12" x2="604.51" y2="206.63"/>
    <line class="cls-2" x1="608.41" y1="242.2" x2="615.23" y2="242.2"/>
    <line class="cls-2" x1="604.51" y1="207.12" x2="604.51" y2="261.7"/>
    <line class="cls-2" x1="604.51" y1="261.7" x2="608.41" y2="261.7"/>
    <line class="cls-2" x1="608.41" y1="261.7" x2="608.41" y2="242.2"/>
    <line class="cls-2" x1="570.88" y1="276.32" x2="523.13" y2="276.32"/>
    <line class="cls-2" x1="485.6" y1="242.2" x2="485.6" y2="261.7"/>
    <line class="cls-2" x1="485.6" y1="261.7" x2="489.5" y2="261.7"/>
    <line class="cls-2" x1="489.5" y1="261.7" x2="489.5" y2="207.12"/>
    <line class="cls-2" x1="478.78" y1="242.2" x2="485.6" y2="242.2"/>
    <line class="cls-2" x1="489.5" y1="206.63" x2="489.5" y2="207.12"/>
    <line class="cls-2" x1="505.58" y1="207.12" x2="505.58" y2="196.4"/>
    <line class="cls-2" x1="505.58" y1="196.4" x2="510.46" y2="196.4"/>
    <line class="cls-2" x1="525.08" y1="207.12" x2="525.08" y2="196.4"/>
    <line class="cls-2" x1="525.08" y1="196.4" x2="529.95" y2="196.4"/>
    <line class="cls-2" x1="529.95" y1="207.12" x2="529.95" y2="196.4"/>
    <line class="cls-2" x1="544.57" y1="207.12" x2="544.57" y2="196.4"/>
    <line class="cls-2" x1="544.57" y1="196.4" x2="549.44" y2="196.4"/>
    <line class="cls-2" x1="549.44" y1="207.12" x2="549.44" y2="196.4"/>
    <line class="cls-2" x1="564.06" y1="207.12" x2="564.06" y2="196.4"/>
    <line class="cls-2" x1="564.06" y1="196.4" x2="568.93" y2="196.4"/>
    <line class="cls-2" x1="568.93" y1="207.12" x2="568.93" y2="196.4"/>
    <line class="cls-2" x1="583.55" y1="207.12" x2="583.55" y2="196.4"/>
    <line class="cls-2" x1="583.55" y1="196.4" x2="588.43" y2="196.4"/>
    <line class="cls-2" x1="478.78" y1="242.2" x2="478.78" y2="276.32"/>
    <line class="cls-2" x1="478.78" y1="207.12" x2="478.78" y2="223.69"/>
    <line class="cls-2" x1="485.6" y1="276.32" x2="485.6" y2="293.86"/>
    <line class="cls-2" x1="496.33" y1="293.86" x2="508.02" y2="293.86"/>
    <line class="cls-2" x1="485.6" y1="293.86" x2="496.33" y2="293.86"/>
    <line class="cls-2" x1="508.02" y1="293.86" x2="508.02" y2="281.19"/>
    <line class="cls-2" x1="508.02" y1="281.19" x2="522.64" y2="281.19"/>
    <line class="cls-2" x1="522.64" y1="281.19" x2="522.64" y2="276.32"/>
    <line class="cls-2" x1="571.37" y1="276.32" x2="571.37" y2="281.19"/>
    <line class="cls-2" x1="571.37" y1="281.19" x2="585.99" y2="281.19"/>
    <line class="cls-2" x1="585.99" y1="281.19" x2="585.99" y2="293.86"/>
    <line class="cls-2" x1="597.69" y1="293.86" x2="608.41" y2="293.86"/>
    <line class="cls-2" x1="585.99" y1="293.86" x2="597.69" y2="293.86"/>
    <line class="cls-2" x1="608.41" y1="293.86" x2="608.41" y2="276.32"/>
    <line class="cls-2" x1="615.23" y1="242.2" x2="615.23" y2="276.32"/>
    <line class="cls-2" x1="615.23" y1="207.12" x2="615.23" y2="223.69"/>
    <line class="cls-2" x1="615.23" y1="207.12" x2="608.41" y2="207.12"/>
    <line class="cls-2" x1="485.6" y1="207.12" x2="478.78" y2="207.12"/>
    <path class="cls-2" d="M115.2,121.81v-8.76h0v-.02h0"/>
    <line class="cls-2" x1="159.65" y1="84.78" x2="159.65" y2="107.19"/>
    <path class="cls-2" d="M261.49,235.84c0-.64-.13-1.27-.37-1.86-.25-.59-.6-1.13-1.06-1.58-.45-.45-.99-.81-1.58-1.06-.59-.24-1.22-.37-1.86-.37"/>
    <path class="cls-2" d="M184.63,67.41h1.8"/>
    <line class="cls-2" x1="159.65" y1="84.78" x2="170.37" y2="84.78"/>
    <line class="cls-2" x1="183.39" y1="67.41" x2="183.39" y2="60.59"/>
    <line class="cls-2" x1="211.3" y1="233.79" x2="118.71" y2="233.79"/>
    <path class="cls-2" d="M192.39,121.81v-8.76h0v-.02h0"/>
    <line class="cls-2" x1="184.63" y1="67.41" x2="183.39" y2="67.41"/>
    <line class="cls-2" x1="246.97" y1="299.19" x2="256.62" y2="299.19"/>
    <line class="cls-2" x1="211.3" y1="202.7" x2="118.71" y2="202.7"/>
    <line class="cls-2" x1="118.71" y1="218.18" x2="211.3" y2="218.18"/>
    <path class="cls-2" d="M137.62,113.04h0v8.77"/>
    <line class="cls-2" x1="140.54" y1="107.19" x2="140.54" y2="107.19"/>
    <line class="cls-2" x1="193.27" y1="284.57" x2="193.27" y2="291.39"/>
    <line class="cls-2" x1="145.66" y1="107.19" x2="140.54" y2="107.19"/>
    <line class="cls-2" x1="216.17" y1="299.19" x2="216.17" y2="299.19"/>
    <line class="cls-2" x1="125.54" y1="299.19" x2="204.48" y2="299.19"/>
    <line class="cls-2" x1="98.15" y1="299.19" x2="113.84" y2="299.19"/>
    <line class="cls-2" x1="217.73" y1="107.19" x2="217.73" y2="121.81"/>
    <line class="cls-2" x1="229.43" y1="107.19" x2="217.73" y2="107.19"/>
    <line class="cls-2" x1="137.86" y1="107.19" x2="140.54" y2="107.19"/>
    <line class="cls-2" x1="114.96" y1="107.19" x2="112.28" y2="107.19"/>
    <line class="cls-2" x1="159.65" y1="107.19" x2="159.65" y2="121.81"/>
    <line class="cls-2" x1="170.37" y1="84.78" x2="170.37" y2="107.19"/>
    <line class="cls-2" x1="159.65" y1="107.19" x2="170.37" y2="107.19"/>
    <line class="cls-2" x1="83.04" y1="114.09" x2="83.04" y2="68.17"/>
    <path class="cls-2" d="M118.71,247.31v-8.43"/>
    <path class="cls-2" d="M211.3,238.87v8.43"/>
    <path class="cls-2" d="M73.39,230.97c-.64,0-1.27.13-1.86.37-.59.25-1.13.6-1.58,1.06s-.81.99-1.06,1.58c-.24.59-.37,1.22-.37,1.86"/>
    <path class="cls-2" d="M246.97,114.09v6.86"/>
    <path class="cls-2" d="M229.43,114.09v6.86"/>
    <path class="cls-2" d="M68.52,294.32c0,.64.13,1.27.37,1.86.25.59.6,1.13,1.06,1.58s.99.81,1.58,1.06c.59.24,1.22.37,1.86.37"/>
    <path class="cls-2" d="M246.97,127.66s0,0-.02.02h0s0,0,0,0c-.02.02-.04.04-.07.07h0s0,0,0,0c-.03.03-.07.07-.11.11h0s0,0,0,0c-.05.05-.1.1-.16.16,0,0,0,0,0,0s0,0,0,0c-.06.06-.13.13-.2.2,0,0,0,0,0,0s0,0,0,0c-.07.07-.16.16-.24.24,0,0,0,0,0,0h0c-.09.09-.18.18-.28.28h0s0,0,0,0c-.1.1-.21.21-.32.32,0,0,0,0,0,0s0,0,0,0c-.11.11-.23.23-.35.35h0s0,0,0,0c-.12.12-.25.25-.38.38,0,0,0,0,0,0,0,0,0,0,0,0l-.4.4h0s0,0,0,0l-.42.42h0s0,0,0,0c-.14.14-.29.29-.44.44,0,0,0,0,0,0s0,0,0,0l-.45.45s0,0,0,0h0c-.15.16-.3.31-.45.46l-.02.02s-.01.01-.02.02c-.15.15-.31.31-.46.46"/>
    <path class="cls-2" d="M87.92,132.53l-.46-.46-.02-.02s-.01-.01-.02-.02c-.15-.15-.3-.3-.45-.45h0s0-.01,0-.02l-.45-.45s0,0,0,0,0,0,0,0l-.44-.44s0,0,0,0h0c-.14-.15-.29-.29-.42-.43,0,0,0,0,0,0h0c-.14-.14-.27-.28-.4-.41h0s0,0,0,0c-.13-.13-.26-.26-.38-.38h0s0,0,0,0l-.35-.35s0,0,0,0,0,0,0,0c-.11-.11-.22-.22-.32-.32,0,0,0,0,0,0h0c-.1-.1-.19-.2-.28-.28h0s0,0,0,0c-.09-.09-.17-.17-.24-.24,0,0,0,0,0,0s0,0,0,0l-.2-.2s0,0,0,0h0c-.06-.06-.11-.11-.16-.16,0,0,0,0,0,0h0s-.08-.08-.11-.11h0s0,0,0,0l-.07-.07h0s0,0,0,0c-.01-.02-.02-.02-.02-.02"/>
    <path class="cls-2" d="M246.97,299.19h-4.87"/>
    <line class="cls-2" x1="188.82" y1="60.59" x2="188.68" y2="60.59"/>
    <path class="cls-2" d="M83.04,120.95v-6.86"/>
    <line class="cls-2" x1="188.68" y1="67.41" x2="188.82" y2="67.41"/>
    <path class="cls-2" d="M100.59,114.09v6.86"/>
    <line class="cls-2" x1="204.48" y1="299.19" x2="204.48" y2="284.57"/>
    <line class="cls-2" x1="136.74" y1="291.39" x2="136.74" y2="284.57"/>
    <line class="cls-2" x1="189.47" y1="121.81" x2="189.47" y2="107.19"/>
    <line class="cls-2" x1="189.47" y1="107.19" x2="170.37" y2="107.19"/>
    <line class="cls-2" x1="159.65" y1="107.19" x2="145.66" y2="107.19"/>
    <line class="cls-2" x1="112.28" y1="107.19" x2="100.59" y2="107.19"/>
    <line class="cls-2" x1="211.3" y1="233.79" x2="211.3" y2="238.87"/>
    <line class="cls-2" x1="118.71" y1="238.87" x2="118.71" y2="233.79"/>
    <line class="cls-2" x1="125.54" y1="284.57" x2="125.54" y2="299.19"/>
    <line class="cls-2" x1="170.37" y1="107.19" x2="170.37" y2="121.81"/>
    <line class="cls-2" x1="125.54" y1="299.19" x2="113.84" y2="299.19"/>
    <path class="cls-2" d="M214.81,121.81v-8.76h0v-.02h0"/>
    <line class="cls-2" x1="113.84" y1="282.62" x2="113.84" y2="282.62"/>
    <line class="cls-2" x1="113.84" y1="282.62" x2="118.71" y2="269.95"/>
    <line class="cls-2" x1="118.71" y1="269.95" x2="118.71" y2="247.31"/>
    <line class="cls-2" x1="118.71" y1="233.79" x2="118.71" y2="218.18"/>
    <line class="cls-2" x1="216.17" y1="282.62" x2="216.17" y2="299.19"/>
    <line class="cls-2" x1="73.39" y1="299.19" x2="83.04" y2="299.19"/>
    <line class="cls-2" x1="73.39" y1="230.97" x2="83.04" y2="230.97"/>
    <line class="cls-2" x1="211.3" y1="247.31" x2="211.3" y2="269.95"/>
    <line class="cls-2" x1="211.3" y1="218.18" x2="211.3" y2="233.79"/>
    <line class="cls-2" x1="246.97" y1="114.09" x2="246.97" y2="68.17"/>
    <line class="cls-2" x1="156.1" y1="60.59" x2="156.1" y2="67.41"/>
    <line class="cls-2" x1="150.82" y1="67.41" x2="150.82" y2="60.59"/>
    <line class="cls-2" x1="246.97" y1="127.66" x2="246.97" y2="120.95"/>
    <line class="cls-2" x1="68.52" y1="294.32" x2="68.52" y2="235.84"/>
    <line class="cls-2" x1="83.04" y1="127.66" x2="83.04" y2="120.95"/>
    <line class="cls-2" x1="137.86" y1="121.81" x2="137.86" y2="107.19"/>
    <line class="cls-2" x1="211.3" y1="218.18" x2="211.3" y2="202.7"/>
    <line class="cls-2" x1="118.71" y1="202.7" x2="118.71" y2="218.18"/>
    <line class="cls-2" x1="261.49" y1="235.84" x2="261.49" y2="294.32"/>
    <line class="cls-2" x1="246.97" y1="230.97" x2="256.62" y2="230.97"/>
    <line class="cls-2" x1="192.15" y1="107.19" x2="189.47" y2="107.19"/>
    <line class="cls-2" x1="192.15" y1="121.81" x2="192.15" y2="107.19"/>
    <line class="cls-2" x1="217.73" y1="121.81" x2="217.73" y2="121.81"/>
    <line class="cls-2" x1="217.73" y1="107.19" x2="215.05" y2="107.19"/>
    <path class="cls-2" d="M100.59,68.17v-2.88h0"/>
    <line class="cls-2" x1="150.67" y1="60.59" x2="150.67" y2="67.41"/>
    <path class="cls-2" d="M83.04,65.28h0v2.89"/>
    <path class="cls-2" d="M246.97,68.17v-2.88h0"/>
    <line class="cls-2" x1="154.87" y1="67.41" x2="154.87" y2="60.59"/>
    <path class="cls-2" d="M229.43,65.28h0v2.89"/>
    <line class="cls-2" x1="229.43" y1="65.28" x2="246.97" y2="65.28"/>
    <line class="cls-2" x1="215.05" y1="121.81" x2="215.05" y2="107.19"/>
    <line class="cls-2" x1="83.04" y1="65.28" x2="100.59" y2="65.28"/>
    <line class="cls-2" x1="415.03" y1="107.19" x2="415.03" y2="121.81"/>
    <line class="cls-2" x1="390.57" y1="291.39" x2="334.04" y2="291.39"/>
    <path class="cls-2" d="M412.11,121.81v-8.76h0v-.02h0"/>
    <line class="cls-2" x1="408.6" y1="269.95" x2="413.47" y2="282.62"/>
    <line class="cls-2" x1="285.21" y1="299.19" x2="295.45" y2="299.19"/>
    <line class="cls-2" x1="444.27" y1="299.19" x2="453.92" y2="299.19"/>
    <line class="cls-2" x1="311.14" y1="299.19" x2="311.14" y2="282.62"/>
    <path class="cls-2" d="M312.5,121.81v-8.76h0v-.02h0"/>
    <line class="cls-2" x1="356.95" y1="84.78" x2="356.95" y2="107.19"/>
    <path class="cls-2" d="M458.79,235.84c0-.64-.13-1.27-.37-1.86-.24-.59-.6-1.13-1.06-1.58s-.99-.81-1.58-1.06c-.59-.24-1.22-.37-1.86-.37"/>
    <path class="cls-2" d="M154.87,60.59h-1.8"/>
    <line class="cls-2" x1="356.95" y1="84.78" x2="367.67" y2="84.78"/>
    <line class="cls-2" x1="154.87" y1="60.59" x2="156.1" y2="60.59"/>
    <line class="cls-2" x1="408.6" y1="233.79" x2="316.01" y2="233.79"/>
    <path class="cls-2" d="M389.69,121.81v-8.76h0v-.02h0"/>
    <line class="cls-2" x1="150.82" y1="67.41" x2="150.67" y2="67.41"/>
    <line class="cls-2" x1="408.6" y1="202.7" x2="316.01" y2="202.7"/>
    <line class="cls-2" x1="316.01" y1="218.18" x2="408.6" y2="218.18"/>
    <path class="cls-2" d="M458.79,294.32c0,.64-.13,1.27-.37,1.86-.25.59-.6,1.13-1.06,1.58-.45.45-.99.81-1.58,1.06s-1.22.37-1.86.37"/>
    <path class="cls-2" d="M334.92,113.04h0v8.77"/>
    <line class="cls-2" x1="342.96" y1="107.19" x2="337.84" y2="107.19"/>
    <line class="cls-2" x1="413.47" y1="299.19" x2="413.47" y2="299.19"/>
    <line class="cls-2" x1="322.83" y1="299.19" x2="401.78" y2="299.19"/>
    <line class="cls-2" x1="295.45" y1="299.19" x2="311.14" y2="299.19"/>
    <line class="cls-2" x1="426.73" y1="107.19" x2="415.03" y2="107.19"/>
    <line class="cls-2" x1="335.16" y1="107.19" x2="337.84" y2="107.19"/>
    <line class="cls-2" x1="312.26" y1="107.19" x2="309.58" y2="107.19"/>
    <line class="cls-2" x1="312.26" y1="121.81" x2="312.26" y2="107.19"/>
    <line class="cls-2" x1="356.95" y1="107.19" x2="356.95" y2="121.81"/>
    <line class="cls-2" x1="367.67" y1="84.78" x2="367.67" y2="107.19"/>
    <line class="cls-2" x1="356.95" y1="107.19" x2="367.67" y2="107.19"/>
    <line class="cls-2" x1="280.34" y1="114.09" x2="280.34" y2="68.17"/>
    <path class="cls-2" d="M316.01,247.31v-8.43"/>
    <path class="cls-2" d="M408.6,238.87v8.43"/>
    <path class="cls-2" d="M270.69,230.97c-.64,0-1.27.13-1.86.37-.59.25-1.13.6-1.58,1.06-.45.45-.81.99-1.06,1.58-.24.59-.37,1.22-.37,1.86"/>
    <path class="cls-2" d="M444.27,114.09v6.86"/>
    <path class="cls-2" d="M426.73,114.09v6.86"/>
    <path class="cls-2" d="M265.82,294.32c0,.64.13,1.27.37,1.86s.6,1.13,1.06,1.58c.45.45.99.81,1.58,1.06.59.24,1.22.37,1.86.37"/>
    <path class="cls-2" d="M444.27,127.66s0,0-.02.02h0s0,0,0,0c-.02.02-.04.04-.07.07h0s0,0,0,0c-.03.03-.07.07-.11.11,0,0,0,0,0,0h0s-.1.1-.16.16c0,0,0,0,0,0h0c-.06.06-.13.13-.2.2,0,0,0,0,0,0,0,0,0,0,0,0-.07.07-.16.16-.24.24,0,0,0,0,0,0,0,0,0,0,0,0l-.28.28s0,0,0,0c0,0,0,0,0,0-.1.1-.21.21-.32.32,0,0,0,0,0,0,0,0,0,0,0,0-.11.11-.23.23-.35.35h0s0,0,0,0c-.12.12-.25.25-.38.38,0,0,0,0,0,0,0,0,0,0,0,0-.13.13-.27.27-.4.4,0,0,0,0,0,0,0,0,0,0,0,0-.14.14-.28.28-.42.42,0,0,0,0,0,0,0,0,0,0,0,0-.14.14-.29.29-.44.44h0s0,0,0,.01l-.45.45s0,0,0,0c0,0,0,0,0,0-.15.15-.3.3-.45.45,0,0-.01.01-.02.02,0,0-.01.01-.02.02-.15.15-.31.31-.46.46"/>
    <path class="cls-2" d="M285.21,132.53c-.15-.15-.31-.31-.46-.46,0,0-.01-.01-.02-.02,0,0-.01-.01-.02-.02-.15-.15-.3-.3-.45-.45h0s0-.01,0-.02l-.45-.45s0,0,0,0c0,0,0,0,0,0-.15-.15-.3-.3-.44-.44h0s0,0,0,0c-.14-.14-.29-.29-.42-.42,0,0,0,0,0,0,0,0,0,0,0,0l-.4-.4s0,0,0,0c0,0,0,0,0,0l-.38-.38h0s0,0,0,0c-.12-.12-.24-.24-.35-.35,0,0,0,0,0,0,0,0,0,0,0,0-.11-.11-.22-.22-.32-.32,0,0,0,0,0,0,0,0,0,0,0,0l-.28-.28s0,0,0,0c0,0,0,0,0,0-.09-.09-.17-.17-.24-.24,0,0,0,0,0,0,0,0,0,0,0,0-.07-.07-.14-.14-.2-.2,0,0,0,0,0,0s0,0,0,0c-.06-.06-.11-.11-.16-.16h0s0,0,0,0l-.11-.11h0s0,0,0,0c-.03-.03-.05-.05-.07-.07,0,0,0,0,0,0h0s-.02-.02-.02-.02"/>
    <path class="cls-2" d="M444.27,299.19h-4.87"/>
    <line class="cls-2" x1="150.67" y1="60.59" x2="150.82" y2="60.59"/>
    <path class="cls-2" d="M280.34,120.95v-6.86"/>
    <line class="cls-2" x1="163.49" y1="62.39" x2="163.39" y2="62.23"/>
    <path class="cls-2" d="M297.88,114.09v6.86"/>
    <line class="cls-2" x1="401.78" y1="299.19" x2="401.78" y2="284.57"/>
    <line class="cls-2" x1="334.04" y1="291.39" x2="334.04" y2="284.57"/>
    <line class="cls-2" x1="386.77" y1="121.81" x2="386.77" y2="107.19"/>
    <line class="cls-2" x1="386.77" y1="107.19" x2="367.67" y2="107.19"/>
    <line class="cls-2" x1="356.95" y1="107.19" x2="342.96" y2="107.19"/>
    <line class="cls-2" x1="309.58" y1="107.19" x2="297.88" y2="107.19"/>
    <line class="cls-2" x1="408.6" y1="233.79" x2="408.6" y2="238.87"/>
    <line class="cls-2" x1="316.01" y1="238.87" x2="316.01" y2="233.79"/>
    <line class="cls-2" x1="322.83" y1="284.57" x2="322.83" y2="299.19"/>
    <line class="cls-2" x1="367.67" y1="107.19" x2="367.67" y2="121.81"/>
    <line class="cls-2" x1="358.9" y1="291.39" x2="358.9" y2="291.39"/>
    <line class="cls-2" x1="322.83" y1="299.19" x2="311.14" y2="299.19"/>
    <line class="cls-2" x1="311.14" y1="282.62" x2="311.14" y2="282.62"/>
    <line class="cls-2" x1="311.14" y1="282.62" x2="316.01" y2="269.95"/>
    <line class="cls-2" x1="316.01" y1="269.95" x2="316.01" y2="247.31"/>
    <line class="cls-2" x1="316.01" y1="233.79" x2="316.01" y2="218.18"/>
    <line class="cls-2" x1="413.47" y1="299.19" x2="413.47" y2="299.19"/>
    <line class="cls-2" x1="413.47" y1="282.62" x2="413.47" y2="299.19"/>
    <line class="cls-2" x1="270.69" y1="299.19" x2="280.34" y2="299.19"/>
    <line class="cls-2" x1="408.6" y1="247.31" x2="408.6" y2="269.95"/>
    <line class="cls-2" x1="408.6" y1="218.18" x2="408.6" y2="233.79"/>
    <line class="cls-2" x1="444.27" y1="114.09" x2="444.27" y2="68.17"/>
    <line class="cls-2" x1="163.58" y1="61.87" x2="163.49" y2="62.39"/>
    <line class="cls-2" x1="163.66" y1="61.88" x2="163.58" y2="61.87"/>
    <line class="cls-2" x1="444.27" y1="127.66" x2="444.27" y2="120.95"/>
    <line class="cls-2" x1="265.82" y1="294.32" x2="265.82" y2="235.84"/>
    <line class="cls-2" x1="280.34" y1="127.66" x2="280.34" y2="120.95"/>
    <line class="cls-2" x1="335.16" y1="121.81" x2="335.16" y2="107.19"/>
    <line class="cls-2" x1="408.6" y1="218.18" x2="408.6" y2="202.7"/>
    <line class="cls-2" x1="316.01" y1="202.7" x2="316.01" y2="218.18"/>
    <line class="cls-2" x1="458.79" y1="235.84" x2="458.79" y2="294.32"/>
    <line class="cls-2" x1="444.27" y1="230.97" x2="453.92" y2="230.97"/>
    <line class="cls-2" x1="389.45" y1="107.19" x2="386.77" y2="107.19"/>
    <line class="cls-2" x1="389.45" y1="121.81" x2="389.45" y2="107.19"/>
    <line class="cls-2" x1="415.03" y1="121.81" x2="415.03" y2="121.81"/>
    <line class="cls-2" x1="415.03" y1="107.19" x2="412.35" y2="107.19"/>
    <path class="cls-2" d="M297.88,68.17v-2.88h0"/>
    <line class="cls-2" x1="163.66" y1="63.98" x2="163.66" y2="61.88"/>
    <path class="cls-2" d="M280.34,65.28h0v2.89"/>
    <path class="cls-2" d="M444.27,68.17v-2.88h0"/>
    <line class="cls-2" x1="163.56" y1="63.99" x2="163.66" y2="63.98"/>
    <path class="cls-2" d="M426.73,65.28h0v2.89"/>
    <line class="cls-2" x1="426.73" y1="65.28" x2="444.27" y2="65.28"/>
    <line class="cls-2" x1="412.35" y1="121.81" x2="412.35" y2="107.19"/>
    <line class="cls-2" x1="280.34" y1="65.28" x2="297.88" y2="65.28"/>
    <line class="cls-2" x1="453.92" y1="299.19" x2="453.92" y2="299.19"/>
    <path class="cls-2" d="M399.96,23.1s.05,0,.07,0c.02,0,.04,0,.07,0,.02,0,.04,0,.06.01.02,0,.04.01.06.02.02,0,.04.01.05.02s.03.02.05.03c.02,0,.03.02.04.03.01.01.03.02.04.04.01.01.02.03.04.04.01.02.02.03.03.05,0,.02.02.03.03.05,0,.02.02.04.02.06,0,.02.01.04.02.06,0,.02.01.04.01.07,0,.02,0,.05.01.07,0,.03,0,.05,0,.08"/>
    <path class="cls-2" d="M399.4,23.76s0-.05,0-.08c0-.02,0-.05.01-.07,0-.02,0-.04.01-.07,0-.02.01-.04.02-.06,0-.02.01-.04.02-.06,0-.02.02-.04.03-.05,0-.02.02-.03.03-.05.01-.02.02-.03.03-.04.01-.01.02-.03.04-.04.01-.01.03-.02.04-.03.01-.01.03-.02.04-.03s.03-.02.05-.02c.02,0,.03-.01.05-.02.02,0,.04-.01.06-.02.02,0,.04,0,.06-.01.02,0,.04,0,.06,0"/>
    <path class="cls-2" d="M399.98,24.36s-.04,0-.07,0c-.02,0-.04,0-.06,0-.02,0-.04,0-.06-.01-.02,0-.04-.01-.05-.02-.02,0-.03-.01-.05-.02-.02,0-.03-.02-.05-.03-.01,0-.03-.02-.04-.03-.01-.01-.03-.02-.04-.04s-.02-.03-.03-.04c-.01-.01-.02-.03-.03-.04,0-.02-.02-.03-.03-.05s-.02-.04-.02-.05c0-.02-.01-.04-.02-.06,0-.02,0-.04-.01-.06,0-.02,0-.04-.01-.07,0-.02,0-.05,0-.07"/>
    <path class="cls-2" d="M400.57,23.74s0,.05,0,.07c0,.02,0,.05,0,.07,0,.02,0,.04-.01.06,0,.02-.01.04-.02.06,0,.02-.01.04-.02.06,0,.02-.02.03-.03.05,0,.02-.02.03-.03.05-.01.01-.02.03-.04.04-.01.01-.03.03-.04.04-.01.01-.03.02-.04.03s-.03.02-.05.03c-.02,0-.03.02-.05.02-.02,0-.04.01-.06.02-.02,0-.04,0-.06.01-.02,0-.04,0-.06,0-.02,0-.05,0-.07,0"/>
    <path class="cls-2" d="M400.98,24.19c0,.06,0,.12,0,.18,0,.06,0,.11-.02.17,0,.05-.01.11-.02.16,0,.05-.02.1-.03.15-.01.05-.02.09-.04.14-.01.04-.03.08-.05.13-.02.04-.03.08-.05.11-.02.04-.04.07-.06.1-.02.03-.04.06-.07.09-.02.03-.05.05-.08.08-.03.02-.06.05-.09.07-.03.02-.06.04-.09.06-.03.02-.07.03-.1.04-.04.01-.07.02-.11.03-.04,0-.08.02-.12.02-.04,0-.08,0-.12,0"/>
    <path class="cls-2" d="M400.78,23.2s.03.06.05.09c.02.03.03.07.04.1.01.04.03.07.04.11.01.04.02.08.03.12,0,.04.02.09.02.13,0,.05.01.09.02.14,0,.05,0,.1.01.15,0,.05,0,.1,0,.16"/>
    <path class="cls-2" d="M400.02,22.81s.08,0,.12,0c.04,0,.08.01.11.02.04,0,.07.02.11.03.03.01.07.03.1.04.03.02.06.03.09.05.03.02.06.04.08.06.03.02.05.05.07.08.02.03.05.06.07.09"/>
    <path class="cls-2" d="M399.31,23.05s.04-.04.06-.06c.02-.02.04-.04.07-.05.02-.02.05-.03.08-.04.03-.01.06-.02.09-.03.03-.01.06-.02.09-.03.03,0,.07-.01.1-.02.04,0,.08,0,.11,0,.04,0,.08,0,.12,0"/>
    <path class="cls-2" d="M399.02,23.77s0-.07,0-.1c0-.03,0-.07.01-.1s.01-.06.02-.1c0-.03.02-.06.03-.09.01-.03.03-.06.04-.09.02-.03.03-.06.05-.08.02-.03.04-.05.06-.08.02-.03.04-.05.07-.08"/>
    <path class="cls-2" d="M399.93,24.68s-.07,0-.11-.01c-.03,0-.07,0-.1-.02-.03,0-.06-.01-.09-.02-.03,0-.06-.02-.09-.03-.03-.01-.05-.02-.08-.04-.03-.01-.05-.03-.07-.04-.02-.01-.04-.03-.07-.05-.02-.02-.04-.03-.06-.05s-.04-.04-.05-.06c-.02-.02-.03-.04-.05-.07-.01-.02-.03-.05-.04-.07s-.02-.05-.03-.08c0-.03-.02-.06-.03-.08,0-.03-.01-.06-.02-.09,0-.03-.01-.06-.01-.1,0-.03,0-.07,0-.1"/>
    <path class="cls-2" d="M400.6,24.33s-.03.06-.05.08c-.02.03-.04.05-.06.07-.02.02-.05.04-.07.06-.03.02-.05.04-.08.05-.03.01-.06.03-.09.04-.03.01-.06.02-.1.03-.04,0-.07.01-.11.02-.04,0-.08,0-.12,0"/>
    <line class="cls-2" x1="400.62" y1="24.35" x2="400.6" y2="24.33"/>
    <path class="cls-2" d="M399.93,25.4s.05,0,.08,0c.02,0,.05,0,.07-.02.02,0,.05-.01.07-.02.02,0,.04-.02.06-.03.02-.01.04-.02.06-.04.02-.01.04-.03.05-.05.02-.02.03-.04.05-.05.02-.02.03-.04.05-.06.01-.02.03-.05.04-.07.01-.03.03-.05.04-.08.01-.03.02-.06.03-.09.01-.03.02-.06.03-.09,0-.03.02-.07.02-.1,0-.04.01-.07.02-.11,0-.04.01-.08.01-.12,0-.04,0-.08,0-.12"/>
    <path class="cls-2" d="M399.43,24.97s.02.07.03.1c0,.03.02.06.04.09.01.03.03.05.05.07.02.02.04.04.06.06.02.02.04.03.07.05.02.01.05.02.08.03.03,0,.06.02.09.02.03,0,.07,0,.1,0"/>
    <path class="cls-2" d="M399.93,25.74s-.06,0-.09,0c-.03,0-.06,0-.09-.01-.03,0-.06-.01-.08-.02-.03,0-.05-.02-.08-.02-.02,0-.05-.02-.07-.03-.02-.01-.04-.02-.07-.04-.02-.01-.04-.03-.06-.04-.02-.01-.04-.03-.06-.04-.02-.02-.03-.03-.05-.05-.02-.02-.03-.04-.04-.06-.01-.02-.03-.04-.04-.06-.01-.02-.02-.04-.03-.07-.01-.02-.02-.05-.03-.07,0-.03-.02-.05-.02-.08,0-.03-.01-.05-.02-.08,0-.03,0-.06-.01-.09"/>
    <path class="cls-2" d="M402.28,25.4s-.05,0-.07,0c-.02,0-.05,0-.07-.01s-.04-.01-.06-.02c-.02,0-.04-.02-.06-.03-.02-.01-.04-.03-.05-.04-.02-.02-.03-.03-.05-.05-.02-.02-.03-.04-.04-.06-.01-.02-.03-.04-.04-.07-.01-.02-.02-.05-.04-.08-.01-.03-.02-.06-.03-.09,0-.03-.02-.06-.03-.09,0-.03-.02-.07-.02-.1,0-.04-.01-.07-.02-.11,0-.04,0-.08-.01-.12,0-.04,0-.09,0-.13,0-.05,0-.09,0-.14"/>
    <path class="cls-2" d="M402.87,24.25s0,.09,0,.14c0,.04,0,.09,0,.13,0,.04,0,.08-.01.12,0,.04,0,.07-.02.11,0,.03-.01.07-.02.1,0,.03-.02.06-.03.09,0,.03-.02.06-.03.09-.01.03-.02.05-.04.08-.01.02-.02.05-.04.07-.01.02-.03.04-.04.06-.01.02-.03.03-.05.05-.02.01-.03.03-.05.04-.02.01-.04.02-.06.03-.02,0-.04.02-.06.02-.02,0-.04.01-.07.01-.02,0-.05,0-.07,0"/>
    <path class="cls-2" d="M402.28,23.1s.05,0,.07,0c.02,0,.04,0,.07.01.02,0,.04.01.06.02.02,0,.04.02.06.03.02.01.04.03.05.04.02.02.03.03.05.05.02.02.03.04.04.06.01.02.03.04.04.07.01.03.02.05.04.08.01.03.02.06.03.09,0,.03.02.06.03.09,0,.03.02.07.02.1,0,.04.01.07.02.11,0,.04,0,.08.01.12,0,.04,0,.09,0,.13,0,.05,0,.09,0,.14"/>
    <path class="cls-2" d="M401.67,24.25s0-.09,0-.14c0-.04,0-.09,0-.13,0-.04,0-.08.01-.12,0-.04,0-.07.02-.11,0-.03.01-.07.02-.1,0-.03.02-.06.03-.09,0-.03.02-.06.03-.09.01-.03.02-.05.04-.08.01-.02.03-.05.04-.07.01-.02.03-.04.04-.06.02-.02.03-.04.05-.05.02-.01.04-.03.05-.04.02-.01.04-.02.06-.03.02,0,.04-.02.06-.02.02,0,.05-.01.07-.01.02,0,.05,0,.07,0"/>
    <path class="cls-2" d="M403.27,24.25c0,.06,0,.12,0,.18,0,.06,0,.11-.01.17,0,.05-.01.1-.02.15,0,.05-.02.1-.03.14-.01.04-.02.09-.04.13-.01.04-.03.08-.04.12-.02.04-.03.07-.05.11-.02.03-.04.07-.06.1-.02.03-.04.06-.07.09-.02.03-.05.05-.07.08-.03.02-.05.04-.08.06-.03.02-.06.04-.09.05-.03.02-.06.03-.09.04-.03.01-.07.02-.1.03-.04,0-.07.02-.11.02-.04,0-.08,0-.12,0"/>
    <path class="cls-2" d="M402.28,22.81s.08,0,.12,0c.04,0,.07,0,.11.02.03,0,.07.02.1.03.03.01.06.03.09.04.03.02.06.03.09.05.03.02.05.04.08.06.03.02.05.05.07.07.02.03.04.06.07.08.02.03.04.06.06.1.02.03.04.07.05.11.02.04.03.08.04.12.01.04.03.09.04.13.01.05.02.09.03.14,0,.05.02.1.02.15,0,.05.01.11.01.16,0,.06,0,.11,0,.17"/>
    <path class="cls-2" d="M401.29,24.25c0-.06,0-.11,0-.17,0-.05,0-.11.01-.16,0-.05.01-.1.02-.15,0-.05.02-.09.03-.14.01-.04.02-.09.04-.13.01-.04.03-.08.04-.12.02-.04.03-.07.05-.11.02-.03.04-.06.06-.1.02-.03.04-.06.07-.08.02-.03.05-.05.07-.07.03-.02.05-.04.08-.06.03-.02.06-.04.09-.05.03-.02.06-.03.09-.04.03-.01.07-.02.1-.03.04,0,.07-.01.11-.02.04,0,.08,0,.12,0"/>
    <path class="cls-2" d="M402.28,25.74s-.08,0-.11,0c-.04,0-.07-.01-.11-.02-.03,0-.07-.02-.1-.03-.03-.01-.06-.03-.09-.04-.03-.02-.06-.03-.09-.05s-.05-.04-.08-.06c-.03-.02-.05-.05-.07-.08-.02-.03-.05-.06-.07-.09-.02-.03-.04-.06-.06-.1-.02-.04-.04-.07-.05-.11-.02-.04-.03-.08-.04-.12-.01-.04-.03-.09-.04-.13-.01-.05-.02-.09-.03-.14,0-.05-.02-.1-.02-.15,0-.05-.01-.11-.02-.17,0-.06,0-.12,0-.18"/>
    <path class="cls-2" d="M403.99,24.89s0,.04,0,.06c0,.02,0,.04,0,.06,0,.02,0,.03.01.05,0,.02.01.03.02.05,0,.02.01.03.02.04,0,.01.02.03.03.04,0,.01.02.03.03.04s.02.02.03.03.02.02.04.03c.01,0,.03.02.04.03.02,0,.03.02.05.02.02,0,.03.01.05.02.02,0,.04.01.05.01.02,0,.04,0,.06.01.02,0,.04,0,.06,0,.02,0,.04,0,.07,0"/>
    <path class="cls-2" d="M404.52,24.22s-.04.02-.07.04c-.02.01-.04.02-.06.04-.02.01-.04.02-.06.04-.02.01-.04.03-.05.04-.02.01-.03.03-.05.04-.02.01-.03.03-.04.04-.01.01-.03.03-.04.04-.01.01-.02.03-.03.04-.01.01-.02.03-.03.04,0,.01-.02.03-.03.04,0,.01-.01.03-.02.04,0,.01-.01.03-.02.04,0,.01,0,.03-.01.05,0,.02,0,.03,0,.05s0,.03,0,.05c0,.02,0,.03,0,.05"/>
    <line class="cls-2" x1="404.9" y1="23.99" x2="404.52" y2="24.22"/>
    <path class="cls-2" d="M405.58,22.86s0,.06,0,.1c0,.03,0,.06,0,.09,0,.03,0,.06-.01.09,0,.03-.01.06-.02.09,0,.03-.02.06-.02.08,0,.03-.02.05-.03.08-.01.03-.02.05-.03.08s-.03.05-.04.07c-.01.02-.03.05-.04.07-.02.02-.03.04-.05.07s-.04.04-.05.06c-.02.02-.04.04-.06.06-.02.02-.04.04-.06.06-.02.02-.05.04-.07.05-.02.02-.05.03-.07.05-.03.02-.05.03-.08.05"/>
    <path class="cls-2" d="M404.7,23.74s.07-.04.1-.06c.03-.02.06-.04.09-.06.03-.02.05-.04.08-.07.02-.02.04-.04.07-.07.02-.02.04-.04.05-.07.02-.02.03-.05.04-.07.01-.02.02-.05.03-.07,0-.02.01-.05.02-.08"/>
    <line class="cls-2" x1="404.39" y1="23.91" x2="404.7" y2="23.74"/>
    <path class="cls-2" d="M403.61,24.87s0-.05,0-.07,0-.05,0-.07,0-.05.01-.07c0-.02.01-.05.02-.07,0-.02.02-.04.03-.07,0-.02.02-.04.03-.06.01-.02.03-.04.04-.06.01-.02.03-.04.05-.06.02-.02.03-.04.05-.06.02-.02.04-.04.06-.06.02-.02.04-.04.07-.06.02-.02.05-.04.07-.05.03-.02.05-.04.08-.05.03-.02.06-.03.09-.05.03-.02.06-.03.09-.05.03-.02.07-.03.1-.05"/>
    <path class="cls-2" d="M404.52,25.74s-.07,0-.1,0c-.03,0-.07,0-.1-.02-.03,0-.06-.01-.09-.02-.03,0-.06-.02-.09-.03-.03,0-.05-.02-.08-.03-.03-.01-.05-.03-.07-.04-.02-.01-.04-.03-.07-.04-.02-.02-.04-.03-.06-.05-.02-.02-.04-.04-.05-.06-.02-.02-.03-.04-.05-.06-.01-.02-.03-.05-.04-.07-.01-.02-.02-.05-.03-.07-.01-.03-.02-.05-.03-.08,0-.03-.02-.06-.02-.09,0-.03-.01-.06-.02-.09,0-.03,0-.07,0-.1"/>
    <path class="cls-2" d="M405.51,24.7s0,.08,0,.12c0,.04,0,.08-.01.11,0,.04-.01.07-.02.11,0,.03-.02.07-.03.1-.01.03-.02.06-.04.09-.01.03-.03.06-.04.08-.02.03-.03.05-.05.08-.02.02-.04.05-.06.07s-.04.04-.07.06-.05.04-.07.05c-.03.02-.05.03-.08.05-.03.01-.06.03-.09.04-.03.01-.06.02-.1.03-.03,0-.07.02-.1.02-.04,0-.07.01-.11.02-.04,0-.08,0-.12,0"/>
    <path class="cls-2" d="M404.57,25.4s.05,0,.07,0c.02,0,.04,0,.06,0,.02,0,.04,0,.06-.01.02,0,.04-.01.05-.02.02,0,.03-.02.05-.03.02,0,.03-.02.05-.03.01-.01.03-.02.04-.04.01-.01.03-.03.04-.04.01-.02.02-.03.03-.05.01-.02.02-.03.03-.05,0-.02.02-.04.02-.06,0-.02.02-.04.02-.06,0-.02.01-.05.02-.07,0-.02,0-.05.01-.07,0-.03,0-.05,0-.08,0-.03,0-.06,0-.09"/>
    <path class="cls-2" d="M407.56,25.18s-.06,0-.09,0c-.03,0-.05,0-.08,0-.03,0-.05,0-.08,0-.02,0-.05,0-.07.01-.02,0-.04.01-.07.02-.02,0-.04.01-.06.02-.02,0-.04.02-.06.03-.02,0-.04.02-.05.03s-.03.02-.05.04c-.01.01-.03.03-.04.04-.01.02-.03.03-.04.05-.01.02-.02.03-.03.05s-.02.04-.03.06c0,.02-.02.04-.02.06,0,.02-.01.04-.02.07,0,.02,0,.05-.01.07"/>
    <line class="cls-2" x1="414.14" y1="16.24" x2="392.69" y2="16.24"/>
    <line class="cls-2" x1="392.69" y1="31.84" x2="414.14" y2="31.84"/>
    <line class="cls-2" x1="399.08" y1="24.97" x2="399.43" y2="24.97"/>
    <line class="cls-2" x1="403.61" y1="22.86" x2="405.58" y2="22.86"/>
    <line class="cls-2" x1="403.61" y1="23.2" x2="403.61" y2="22.86"/>
    <line class="cls-2" x1="405.18" y1="23.2" x2="403.61" y2="23.2"/>
    <line class="cls-2" x1="405.14" y1="24.7" x2="405.51" y2="24.7"/>
    <line class="cls-2" x1="163.5" y1="63.1" x2="163.56" y2="63.99"/>
    <path class="cls-2" d="M162.73,62.13s.1.01.14.02c.05.01.09.04.14.06.04.02.09.05.12.08.04.03.07.07.11.1.03.04.06.08.09.12.03.04.05.08.07.13.01.03.02.05.03.08.01.03.02.07.03.1,0,.04.02.08.03.12,0,.05.02.1.03.15"/>
    <line class="cls-2" x1="407.56" y1="24.89" x2="407.56" y2="25.18"/>
    <line class="cls-2" x1="406.87" y1="24.89" x2="407.56" y2="24.89"/>
    <line class="cls-2" x1="406.87" y1="22.86" x2="406.87" y2="24.89"/>
    <line class="cls-2" x1="406.51" y1="22.86" x2="406.87" y2="22.86"/>
    <line class="cls-2" x1="406.51" y1="25.74" x2="406.51" y2="22.86"/>
    <line class="cls-2" x1="406.78" y1="25.74" x2="406.51" y2="25.74"/>
    <path class="cls-2" d="M405.06,47.47s.04,0,.05,0c.02,0,.03,0,.05,0,.02,0,.03,0,.05.01.02,0,.03,0,.04.01.01,0,.03.01.04.02.01,0,.03.01.04.02.01,0,.02.02.04.03.01,0,.02.02.03.03,0,.01.02.02.03.03,0,.01.02.02.03.04,0,.01.02.03.02.04,0,.01.01.03.02.04,0,.02.01.03.01.05,0,.02,0,.03.01.05,0,.02,0,.04,0,.06,0,.02,0,.04,0,.06"/>
    <path class="cls-2" d="M405.54,47.98s0,.04,0,.06c0,.02,0,.04,0,.06,0,.02,0,.04-.01.06,0,.02,0,.03-.01.05,0,.02-.01.03-.02.05,0,.01-.01.03-.02.04,0,.01-.02.03-.02.04,0,.01-.02.02-.03.04,0,.01-.02.02-.03.03-.01,0-.02.02-.03.03-.01,0-.02.02-.04.02s-.03.01-.04.02c-.01,0-.03.01-.04.02-.02,0-.03,0-.05.01-.02,0-.03,0-.05,0-.02,0-.04,0-.05,0"/>
    <path class="cls-2" d="M405.07,48.52s-.04,0-.06,0c-.02,0-.04,0-.05,0-.02,0-.03,0-.05-.01-.02,0-.03,0-.05-.02-.02,0-.03-.01-.04-.02-.01,0-.03-.02-.04-.02-.01,0-.03-.02-.04-.03s-.02-.02-.03-.03c-.01-.01-.02-.02-.03-.04,0-.01-.02-.03-.03-.04,0-.01-.02-.03-.02-.04,0-.02-.01-.03-.02-.05,0-.02-.01-.03-.02-.05,0-.02,0-.04-.01-.06,0-.02,0-.04,0-.06,0-.02,0-.04,0-.06"/>
    <path class="cls-2" d="M404.57,47.99s0-.04,0-.06c0-.02,0-.04,0-.06,0-.02,0-.04.01-.05,0-.02,0-.03.02-.05,0-.02.01-.03.02-.05,0-.01.01-.03.02-.04,0-.01.02-.03.03-.04,0-.01.02-.02.03-.03.01-.01.02-.02.03-.03s.02-.02.04-.03c.01,0,.03-.02.04-.02.01,0,.03-.01.04-.02.02,0,.03-.01.05-.02.02,0,.03,0,.05-.01.02,0,.04,0,.05,0,.02,0,.04,0,.06,0"/>
    <path class="cls-2" d="M405.1,46.61s.06,0,.08,0c.03,0,.05,0,.07.02.02,0,.04.02.06.03.02.01.04.02.06.04.02.02.03.03.05.05.01.02.03.04.04.06.01.02.02.05.03.07,0,.03.02.06.02.08"/>
    <path class="cls-2" d="M404.53,47.49s0-.07,0-.1c0-.03,0-.06.01-.1,0-.03,0-.06.02-.09,0-.03.01-.06.02-.08,0-.03.01-.05.02-.08,0-.02.02-.05.03-.07,0-.02.02-.04.03-.06.01-.02.02-.04.03-.06.01-.02.02-.03.04-.05.01-.02.03-.03.04-.05s.03-.03.04-.04c.02-.01.03-.02.05-.03.02,0,.03-.02.05-.03.02,0,.04-.01.06-.02.02,0,.04-.01.06-.01.02,0,.04,0,.06,0"/>
    <line class="cls-2" x1="404.54" y1="47.5" x2="404.53" y2="47.49"/>
    <path class="cls-2" d="M405.1,47.21s-.06,0-.1,0c-.03,0-.06,0-.09.01-.03,0-.05.01-.08.02-.03,0-.05.02-.07.03s-.05.03-.07.04c-.02.02-.04.03-.06.05-.02.02-.04.04-.05.06-.02.02-.03.05-.04.07"/>
    <path class="cls-2" d="M405.86,47.96s0-.06,0-.09c0-.03,0-.05-.01-.08,0-.03-.01-.05-.02-.08,0-.02-.01-.05-.02-.07,0-.02-.02-.04-.03-.07-.01-.02-.02-.04-.03-.06-.01-.02-.03-.04-.04-.06s-.03-.03-.04-.05c-.02-.02-.03-.03-.05-.04-.02-.01-.04-.03-.06-.04-.02-.01-.04-.02-.06-.03-.02-.01-.04-.02-.07-.03-.02,0-.05-.02-.07-.02-.03,0-.05-.01-.08-.02-.03,0-.06-.01-.08-.01-.03,0-.06,0-.09,0"/>
    <path class="cls-2" d="M405.62,48.56s.04-.04.06-.06c.02-.02.03-.04.05-.07.01-.02.03-.05.04-.07.01-.02.02-.05.03-.07,0-.03.02-.05.03-.08,0-.03.01-.05.02-.08,0-.03,0-.05.01-.08,0-.03,0-.06,0-.09"/>
    <path class="cls-2" d="M405.02,48.76s.07,0,.1,0c.03,0,.06,0,.09,0,.03,0,.06,0,.09-.01.03,0,.05-.01.08-.02.02,0,.05-.02.07-.03.02-.01.04-.02.06-.04.02-.01.04-.03.05-.04.02-.02.03-.03.05-.05"/>
    <path class="cls-2" d="M404.4,48.44s.04.05.06.07c.02.02.04.04.06.06.02.02.04.04.07.05.02.02.05.03.07.04.03.01.05.03.08.04.03.01.06.02.09.03.03,0,.06.01.09.02.03,0,.07,0,.1,0"/>
    <path class="cls-2" d="M404.22,47.62s0,.09,0,.13c0,.04,0,.08,0,.12,0,.04,0,.08.01.11,0,.04.01.07.02.11,0,.03.02.07.02.1,0,.03.02.06.03.09.01.03.02.06.04.08.01.03.03.05.04.08"/>
    <path class="cls-2" d="M405.1,46.33s-.07,0-.1,0c-.03,0-.06,0-.1.02-.03,0-.06.02-.09.03-.03.01-.06.02-.08.04s-.05.03-.08.05c-.03.02-.05.04-.07.06s-.04.04-.06.07c-.02.02-.04.05-.06.08-.02.03-.04.06-.05.09-.02.03-.03.06-.05.1-.01.03-.03.07-.04.11-.01.04-.02.08-.03.11,0,.04-.02.08-.03.12,0,.04-.01.09-.02.13,0,.05,0,.1-.01.14,0,.05,0,.1,0,.15"/>
    <path class="cls-2" d="M405.81,46.97s0-.05-.01-.07c0-.02,0-.05-.02-.07,0-.02-.01-.04-.02-.06,0-.02-.02-.04-.02-.06,0-.02-.02-.04-.03-.06,0-.02-.02-.03-.03-.05-.01-.02-.02-.03-.04-.05s-.03-.03-.04-.04c-.01-.01-.03-.03-.05-.04-.02-.01-.03-.02-.05-.03-.02-.01-.04-.02-.06-.03-.02,0-.04-.02-.06-.02-.02,0-.04-.01-.06-.02-.02,0-.05-.01-.07-.02-.02,0-.05,0-.07-.01-.03,0-.05,0-.08,0"/>
    <line class="cls-2" x1="405.51" y1="46.97" x2="405.81" y2="46.97"/>
    <path class="cls-2" d="M403.14,48.52s-.04,0-.06,0c-.02,0-.04,0-.06-.01-.02,0-.04-.01-.05-.02-.02,0-.03-.02-.05-.03-.02,0-.03-.02-.04-.03-.01-.01-.03-.03-.04-.04-.01-.02-.03-.03-.04-.05-.01-.02-.02-.04-.03-.06-.01-.02-.02-.04-.03-.06,0-.02-.02-.05-.03-.07,0-.03-.01-.05-.02-.08,0-.03-.01-.06-.02-.09,0-.03,0-.06-.01-.09,0-.03,0-.07,0-.1,0-.04,0-.07,0-.11,0-.04,0-.08,0-.12"/>
    <path class="cls-2" d="M402.65,47.57s0-.08,0-.12c0-.04,0-.07,0-.11,0-.03,0-.07,0-.1,0-.03,0-.06.01-.09,0-.03.01-.06.02-.09,0-.03.01-.05.02-.08,0-.02.02-.05.03-.07,0-.02.02-.04.03-.06,0-.02.02-.04.03-.06.01-.02.02-.03.04-.05.01-.01.03-.03.04-.04.01-.01.03-.02.04-.03.02,0,.03-.02.05-.03.02,0,.03-.01.05-.02.02,0,.04,0,.06-.01.02,0,.04,0,.06,0"/>
    <path class="cls-2" d="M403.14,46.61s.04,0,.06,0c.02,0,.04,0,.06.01.02,0,.04.01.05.02s.03.02.05.03c.02.01.03.02.05.03.01.01.03.03.04.04.01.02.03.03.04.05.01.02.02.04.03.06.01.02.02.04.03.06,0,.02.02.05.03.07,0,.03.02.05.02.08,0,.03.01.06.02.09,0,.03,0,.06.01.09,0,.03,0,.07,0,.1,0,.04,0,.07,0,.11,0,.04,0,.08,0,.12"/>
    <path class="cls-2" d="M403.65,47.57s0,.08,0,.11c0,.04,0,.07,0,.11,0,.03,0,.07,0,.1,0,.03,0,.06-.01.09,0,.03-.01.06-.02.09,0,.03-.01.05-.02.08,0,.02-.02.05-.03.07,0,.02-.02.04-.03.06-.01.02-.02.04-.03.06-.01.02-.02.03-.04.05-.01.02-.03.03-.04.04-.01.01-.03.02-.05.03-.02.01-.03.02-.05.03s-.04.01-.05.02c-.02,0-.04,0-.06.01-.02,0-.04,0-.06,0"/>
    <path class="cls-2" d="M403.14,48.76s.06,0,.1,0c.03,0,.06,0,.09-.02.03,0,.06-.01.08-.02.03,0,.05-.02.08-.03.03-.01.05-.03.07-.04.02-.02.05-.03.07-.05.02-.02.04-.04.06-.06.02-.02.04-.05.05-.07.02-.03.03-.05.05-.08.02-.03.03-.06.04-.09.01-.03.03-.06.04-.1.01-.04.02-.07.03-.11,0-.04.02-.08.02-.12,0-.04.01-.08.02-.13,0-.04,0-.09.01-.13,0-.05,0-.1,0-.14"/>
    <path class="cls-2" d="M402.32,47.57s0,.1,0,.14c0,.04,0,.09.01.13,0,.04.01.08.02.13,0,.04.02.08.02.12,0,.04.02.07.03.11.01.03.02.07.04.1.01.03.03.06.04.09.02.03.03.05.05.08.02.02.03.05.05.07.02.02.04.04.06.06.02.02.04.04.07.05.02.02.05.03.07.04.03.01.05.02.08.03.03,0,.06.02.08.02.03,0,.06.01.09.02.03,0,.06,0,.1,0"/>
    <path class="cls-2" d="M403.14,46.33s-.06,0-.1,0c-.03,0-.06,0-.09.02-.03,0-.06.02-.08.03-.03,0-.05.02-.08.03-.03.01-.05.03-.07.04s-.05.03-.07.05c-.02.02-.04.04-.06.06-.02.02-.04.05-.05.07-.02.03-.03.05-.05.08-.02.03-.03.06-.04.09-.01.03-.03.07-.04.1-.01.04-.02.07-.03.11,0,.04-.02.08-.02.12,0,.04-.01.09-.02.13,0,.05,0,.09-.01.14,0,.05,0,.1,0,.15"/>
    <path class="cls-2" d="M403.97,47.57s0-.1,0-.15c0-.05,0-.09-.01-.14,0-.04-.01-.09-.02-.13,0-.04-.02-.08-.03-.12,0-.04-.02-.07-.03-.11-.01-.03-.02-.07-.04-.1-.01-.03-.03-.06-.04-.09-.01-.03-.03-.06-.05-.08-.02-.03-.04-.05-.05-.07-.02-.02-.04-.04-.06-.06-.02-.02-.04-.04-.07-.05-.02-.02-.05-.03-.07-.04-.03-.01-.05-.03-.08-.04-.03-.01-.05-.02-.08-.03-.03,0-.06-.01-.09-.02-.03,0-.06,0-.1,0"/>
    <line class="cls-2" x1="400.75" y1="47.19" x2="400.45" y2="47.19"/>
    <path class="cls-2" d="M400.45,47.19s0-.07,0-.1c0-.03,0-.06.01-.1,0-.03,0-.06.02-.09,0-.03.01-.06.02-.08,0-.03.02-.05.03-.08.01-.02.02-.05.04-.07.01-.02.03-.04.04-.06.02-.02.03-.04.05-.06.02-.02.04-.04.05-.05s.04-.03.06-.04c.02-.01.04-.03.07-.04s.05-.02.07-.03c.03,0,.05-.02.08-.03.03,0,.06-.01.09-.02.03,0,.06,0,.09-.01.03,0,.07,0,.1,0"/>
    <path class="cls-2" d="M401.27,46.33s.06,0,.09,0c.03,0,.05,0,.08.01.03,0,.05.01.08.02.02,0,.05.01.07.02.02,0,.04.02.07.03.02,0,.04.02.06.03.02.01.04.02.06.04.02.01.03.03.05.04s.03.03.04.05c.01.02.03.03.04.05.01.02.02.04.03.06s.02.04.03.06c0,.02.02.04.02.07,0,.02.01.05.02.07,0,.03,0,.05.01.08,0,.03,0,.05,0,.08"/>
    <path class="cls-2" d="M402.03,47.05s0,.04,0,.06c0,.02,0,.04,0,.06,0,.02,0,.04-.01.06s0,.04-.02.06c0,.02-.01.04-.02.05,0,.02-.02.04-.03.05,0,.02-.02.04-.03.05-.01.02-.02.03-.04.05-.01.02-.03.03-.04.05-.02.02-.03.03-.05.05-.02.02-.04.03-.05.05-.02.02-.04.03-.06.04-.02.02-.04.03-.07.04-.02.01-.05.03-.07.04-.03.01-.05.03-.08.04-.03.01-.05.03-.08.04"/>
    <line class="cls-2" x1="401.38" y1="47.84" x2="401.13" y2="47.99"/>
    <path class="cls-2" d="M401.13,47.99s-.06.03-.08.05c-.03.02-.05.03-.07.05-.02.02-.04.04-.07.05-.02.02-.04.04-.05.06-.02.02-.03.04-.04.06-.01.02-.02.04-.04.06,0,.02-.02.04-.03.06,0,.02-.01.04-.01.06"/>
    <line class="cls-2" x1="400.73" y1="48.44" x2="402.03" y2="48.44"/>
    <line class="cls-2" x1="402.03" y1="48.44" x2="402.03" y2="48.72"/>
    <line class="cls-2" x1="402.03" y1="48.72" x2="400.4" y2="48.72"/>
    <path class="cls-2" d="M400.4,48.72s0-.05,0-.08c0-.03,0-.05,0-.08,0-.02,0-.05.01-.07,0-.02,0-.05.02-.07,0-.02.01-.05.02-.07,0-.02.02-.04.02-.07s.02-.04.03-.06.02-.04.03-.06c.01-.02.02-.04.04-.06.01-.02.03-.04.04-.05.01-.02.03-.04.05-.05.02-.02.03-.03.05-.05.02-.02.04-.03.05-.05.02-.02.04-.03.06-.04.02-.01.04-.03.06-.04.02-.01.04-.03.07-.04"/>
    <line class="cls-2" x1="400.95" y1="47.78" x2="401.27" y2="47.59"/>
    <path class="cls-2" d="M401.27,47.59s.04-.02.06-.03c.02,0,.04-.02.05-.03.02-.01.03-.02.05-.03.02-.01.03-.02.04-.03.01-.01.03-.02.04-.03.01-.01.02-.02.04-.03.01-.01.02-.02.03-.03,0-.01.02-.02.03-.04,0-.01.02-.02.03-.04,0-.01.02-.02.02-.04,0-.01.01-.02.02-.04,0-.01,0-.02.01-.04,0-.01,0-.03,0-.04,0-.01,0-.03,0-.04,0-.01,0-.03,0-.04,0-.01,0-.03,0-.04"/>
    <path class="cls-2" d="M401.71,47.03s0-.03,0-.05c0-.02,0-.03,0-.05,0-.01,0-.03-.01-.04,0-.01,0-.03-.02-.04,0-.01-.01-.03-.02-.04s-.01-.02-.02-.03c0-.01-.02-.02-.03-.03s-.02-.02-.03-.03-.02-.02-.03-.02c-.01,0-.02-.02-.04-.02-.01,0-.03-.01-.04-.02-.01,0-.03-.01-.04-.02-.01,0-.03,0-.04-.01-.02,0-.03,0-.05,0-.02,0-.03,0-.05,0-.02,0-.04,0-.05,0"/>
    <path class="cls-2" d="M401.23,46.61s-.04,0-.06,0c-.02,0-.04,0-.05,0-.02,0-.03,0-.05.01-.02,0-.03,0-.05.02-.01,0-.03.01-.04.02-.01,0-.03.02-.04.03-.01,0-.02.02-.04.03-.01.01-.02.02-.03.03-.01.01-.02.03-.03.04,0,.01-.02.03-.02.04,0,.02-.01.03-.02.05,0,.02-.01.03-.02.05,0,.02-.01.04-.01.06,0,.02,0,.04-.01.06,0,.02,0,.04,0,.07,0,.02,0,.05,0,.07"/>
    <line class="cls-2" x1="399.62" y1="46.33" x2="399.62" y2="48.72"/>
    <line class="cls-2" x1="399.62" y1="48.72" x2="399.31" y2="48.72"/>
    <line class="cls-2" x1="399.31" y1="48.72" x2="399.31" y2="47.03"/>
    <line class="cls-2" x1="399.31" y1="47.03" x2="398.74" y2="47.03"/>
    <line class="cls-2" x1="398.74" y1="47.03" x2="398.74" y2="46.79"/>
    <path class="cls-2" d="M398.74,46.79s.05,0,.07,0c.02,0,.05,0,.07,0,.02,0,.04,0,.06,0,.02,0,.04,0,.06-.01.02,0,.04,0,.06-.01.02,0,.04-.01.05-.02.02,0,.03-.01.05-.02.01,0,.03-.02.04-.03.01,0,.03-.02.04-.03.01-.01.02-.02.03-.04s.02-.03.03-.04c0-.01.02-.03.03-.04,0-.02.02-.03.02-.05,0-.02.01-.03.02-.05,0-.02,0-.04.01-.06,0-.02,0-.04,0-.06"/>
    <line class="cls-2" x1="399.39" y1="46.33" x2="399.62" y2="46.33"/>
    <line class="cls-2" x1="387.09" y1="55.59" x2="390.5" y2="55.59"/>
    <line class="cls-2" x1="413.89" y1="55.59" x2="417.3" y2="55.59"/>
    <line class="cls-2" x1="417.3" y1="40" x2="413.89" y2="40"/>
    <line class="cls-2" x1="390.5" y1="40" x2="387.09" y2="40"/>
    <line class="cls-2" x1="413.89" y1="40" x2="390.5" y2="40"/>
    <line class="cls-2" x1="390.5" y1="55.59" x2="413.89" y2="55.59"/>
    <line class="cls-2" x1="156.1" y1="67.41" x2="154.87" y2="67.41"/>
    <line class="cls-2" x1="151.93" y1="60.59" x2="153.06" y2="60.59"/>
    <line class="cls-2" x1="150.82" y1="60.59" x2="151.93" y2="60.59"/>
    <line class="cls-2" x1="184.63" y1="60.59" x2="183.39" y2="60.59"/>
    <path class="cls-2" d="M186.43,60.59h-1.8"/>
    <line class="cls-2" x1="187.56" y1="60.59" x2="186.43" y2="60.59"/>
    <line class="cls-2" x1="186.43" y1="67.41" x2="187.56" y2="67.41"/>
    <line class="cls-2" x1="187.56" y1="67.41" x2="188.68" y2="67.41"/>
    <path class="cls-2" d="M164.67,64.47c0-.07,0-.14.01-.2,0-.07.01-.15.02-.22,0-.08.02-.16.03-.24.01-.09.03-.17.04-.26s.03-.17.05-.25c.02-.08.04-.16.07-.23.02-.07.05-.14.08-.21.03-.06.06-.13.1-.19.03-.06.07-.11.1-.16.03-.04.06-.09.09-.13.03-.03.06-.07.09-.1.03-.02.05-.04.08-.06.03-.02.05-.03.08-.04.02-.01.05-.02.07-.03.02,0,.05-.01.07-.02.02,0,.04,0,.06,0"/>
    <path class="cls-2" d="M165.73,62.13s.04,0,.07.01c.02,0,.05.01.07.03.03.01.05.03.07.04.03.02.05.03.08.05.03.02.05.05.08.07.03.03.05.06.07.09.02.03.05.07.07.11.02.04.04.08.06.13.04.09.08.18.11.28.03.09.06.19.08.28.01.05.02.1.04.15.01.05.02.11.03.16,0,.06.02.11.03.17,0,.06.02.12.02.18"/>
    <path class="cls-2" d="M166.6,63.87c0,.07.01.13.02.2,0,.06,0,.13,0,.19,0,.06,0,.11,0,.17,0,.05,0,.1,0,.16,0,.1-.01.21-.02.31-.01.11-.03.22-.04.34-.02.12-.04.23-.06.34-.02.11-.05.22-.09.33-.02.05-.03.11-.05.16-.02.05-.04.1-.06.15-.02.05-.04.1-.07.15-.02.05-.05.1-.07.14-.02.04-.05.09-.08.13-.02.04-.05.07-.08.1-.02.03-.05.06-.08.08-.02.02-.05.04-.08.06-.03.02-.05.03-.08.04-.02,0-.05.02-.07.03-.02,0-.05.01-.07.01-.02,0-.05,0-.07,0"/>
    <path class="cls-2" d="M165.56,66.96s-.04,0-.07-.01c-.02,0-.05-.02-.07-.03-.03-.01-.05-.02-.07-.04-.03-.02-.05-.03-.08-.05-.03-.02-.05-.04-.08-.07-.03-.03-.05-.06-.07-.09-.03-.04-.05-.07-.07-.11-.02-.04-.05-.09-.07-.13-.02-.05-.04-.1-.06-.15-.02-.05-.04-.11-.05-.16-.02-.06-.03-.11-.05-.17-.02-.06-.03-.12-.04-.18-.03-.12-.05-.24-.06-.36-.02-.12-.03-.23-.03-.35,0-.05,0-.11,0-.17,0-.05,0-.1,0-.15,0-.05,0-.09,0-.14,0-.04,0-.08,0-.12"/>
    <line class="cls-2" x1="167.87" y1="66.83" x2="167.87" y2="62.38"/>
    <line class="cls-2" x1="167.87" y1="62.38" x2="168.03" y2="62.31"/>
    <path class="cls-2" d="M168.03,62.31s.04-.01.05-.02c.02,0,.05-.01.07-.02.03,0,.06-.01.09-.02.04,0,.07-.01.11-.02.04,0,.08-.01.11-.02.04,0,.07,0,.11-.01.03,0,.06,0,.1,0,.03,0,.06,0,.09,0"/>
    <path class="cls-2" d="M168.76,62.2s.09.01.13.02c.05.01.1.03.16.04.03,0,.05.02.08.03.03.01.05.03.07.04.02.02.05.04.07.06.02.02.04.05.06.07.02.03.04.05.05.08.02.03.03.06.05.09.01.03.03.07.04.1.01.04.02.07.03.11.01.04.02.08.03.12,0,.05.02.09.02.14,0,.05.01.1.02.16,0,.06,0,.12.01.17,0,.06,0,.12,0,.18,0,.05,0,.11,0,.16,0,.05,0,.1,0,.15,0,.05,0,.1,0,.14"/>
    <path class="cls-2" d="M169.61,64.08c0,.13,0,.26,0,.39,0,.12,0,.23,0,.35,0,.11,0,.21,0,.32,0,.1-.01.19-.02.29,0,.09-.02.17-.04.26-.01.08-.03.16-.05.23,0,.04-.02.08-.03.11-.01.04-.02.08-.04.11-.01.04-.03.08-.05.12-.02.04-.04.08-.06.12-.02.04-.04.08-.06.11-.02.03-.05.06-.07.09-.03.03-.05.05-.08.07-.03.02-.06.04-.09.05-.03.01-.07.02-.11.03-.04.01-.08.02-.12.03-.04,0-.09.02-.13.02-.05,0-.1.01-.14.02"/>
    <line class="cls-2" x1="168.5" y1="66.78" x2="168.13" y2="66.83"/>
    <path class="cls-2" d="M168.13,66.83s-.03,0-.05,0c-.02,0-.04,0-.06,0-.02,0-.05,0-.07,0-.03,0-.05,0-.08,0"/>
    <line class="cls-2" x1="177.41" y1="63.92" x2="177.34" y2="63.94"/>
    <path class="cls-2" d="M177.34,63.94s0,.03,0,.04c0,.02.01.03.02.05"/>
    <line class="cls-2" x1="177.36" y1="64.03" x2="177.49" y2="64.29"/>
    <path class="cls-2" d="M177.49,64.29s.01.03.02.04c0,0,.01.02.02.03,0,0,0,.01.01.02,0,0,0,0,0,0,0,0,0,0,.01,0,0,0,0-.01.01-.02,0,0,.01-.02.02-.03,0-.01.02-.03.02-.04"/>
    <line class="cls-2" x1="177.62" y1="64.27" x2="177.68" y2="64.16"/>
    <line class="cls-2" x1="177.68" y1="64.16" x2="177.81" y2="64.14"/>
    <path class="cls-2" d="M177.81,64.14s.04,0,.06,0c.02,0,.04,0,.07.02.02.01.05.02.07.04.03.02.05.04.07.06.02.02.05.05.07.07.02.03.04.06.06.09.02.03.04.06.05.1.02.04.03.07.05.11.03.08.05.15.07.23.02.08.03.16.05.25"/>
    <path class="cls-2" d="M178.44,65.1c0,.08.02.15.02.23,0,.08,0,.16,0,.23,0,.08,0,.16-.01.24,0,.08-.02.16-.03.24-.01.08-.03.16-.05.24-.02.07-.04.15-.08.22-.01.03-.03.07-.05.1-.02.03-.04.06-.06.09-.02.03-.04.05-.07.07-.02.02-.05.04-.07.06s-.05.03-.08.05c-.03.01-.06.03-.09.04-.03,0-.06.02-.1.02-.03,0-.07,0-.1.01"/>
    <path class="cls-2" d="M177.67,66.94s-.08,0-.13,0c-.04,0-.09-.01-.13-.03-.04-.01-.09-.03-.13-.05-.04-.02-.08-.05-.12-.09-.04-.04-.07-.08-.1-.12-.03-.05-.06-.1-.09-.15-.03-.06-.05-.11-.07-.17-.02-.06-.04-.13-.05-.2,0-.04-.01-.07-.02-.11,0-.04-.01-.08-.02-.12,0-.04-.01-.09-.02-.13,0-.05-.01-.1-.02-.15"/>
    <line class="cls-2" x1="176.79" y1="65.62" x2="176.7" y2="65.62"/>
    <line class="cls-2" x1="176.7" y1="65.62" x2="176.7" y2="65.94"/>
    <path class="cls-2" d="M176.7,65.94c0,.09,0,.18.02.26.01.09.03.18.05.27.01.04.02.09.04.13.01.04.03.08.05.12.02.04.04.07.06.11.02.04.04.07.07.1.02.03.05.06.08.09.02.03.05.05.08.07.02.02.05.04.08.06.03.02.05.03.08.04.03.01.05.02.08.03.03,0,.06.01.09.02.03,0,.07,0,.1,0,.04,0,.07,0,.11,0"/>
    <path class="cls-2" d="M177.69,67.25s.09,0,.13,0c.04,0,.09-.01.13-.02.02,0,.05-.01.07-.02.02,0,.05-.02.07-.03.02-.01.05-.03.07-.05.02-.02.05-.04.07-.06.02-.02.05-.05.07-.07.02-.03.04-.05.06-.08.02-.03.04-.06.06-.09.02-.03.04-.06.05-.1.03-.07.06-.14.09-.22.03-.08.05-.16.07-.24.01-.05.02-.09.03-.14,0-.05.02-.11.02-.16,0-.06.01-.12.02-.19,0-.07,0-.14.01-.21"/>
    <path class="cls-2" d="M178.7,65.56c0-.09,0-.18,0-.26,0-.09-.01-.18-.02-.27-.01-.09-.03-.18-.05-.27-.02-.09-.05-.17-.08-.26-.02-.04-.03-.08-.05-.12-.02-.04-.03-.07-.05-.1-.02-.03-.03-.06-.05-.09-.02-.03-.04-.05-.05-.07-.02-.02-.04-.04-.05-.06-.02-.02-.04-.04-.05-.05-.02-.01-.04-.03-.06-.04-.02-.01-.04-.02-.06-.03-.03-.02-.07-.03-.1-.04-.03,0-.06-.01-.09-.01-.03,0-.05,0-.08,0-.03,0-.06,0-.09,0"/>
    <line class="cls-2" x1="177.74" y1="63.89" x2="177.99" y2="63.41"/>
    <path class="cls-2" d="M177.99,63.41s.02-.04.03-.06c.01-.03.03-.06.04-.08.02-.03.03-.07.05-.1.02-.04.04-.08.05-.12.02-.05.04-.1.06-.14.02-.05.04-.11.07-.16.03-.06.05-.12.07-.18l.08-.2"/>
    <line class="cls-2" x1="178.44" y1="62.34" x2="178.54" y2="62.27"/>
    <path class="cls-2" d="M178.54,62.27s.03-.02.04-.03c.01,0,.02-.02.03-.03,0,0,.01-.01.02-.02,0,0,0-.01,0-.02,0-.01,0-.02,0-.04,0-.02-.02-.03-.03-.04"/>
    <line class="cls-2" x1="178.6" y1="62.09" x2="178.44" y2="61.89"/>
    <path class="cls-2" d="M178.44,61.89s-.03-.04-.04-.06c-.01-.01-.02-.03-.03-.04,0,0-.01-.02-.02-.02,0,0,0,0,0,0"/>
    <line class="cls-2" x1="178.33" y1="61.76" x2="178.27" y2="61.83"/>
    <line class="cls-2" x1="178.27" y1="61.83" x2="178.18" y2="61.91"/>
    <line class="cls-2" x1="178.18" y1="61.91" x2="177.12" y2="62.03"/>
    <line class="cls-2" x1="177.12" y1="62.03" x2="176.85" y2="62.04"/>
    <path class="cls-2" d="M176.85,62.04s-.04,0-.05,0c-.01,0-.03,0-.04,0-.01,0-.02,0-.03,0,0,0-.02,0-.03-.01-.01,0-.02-.01-.04-.02,0,0-.02,0-.03,0,0,0,0,0,0,.01,0,0,0,.01,0,.02,0,0,0,.02.01.03,0,.01.02.03.02.04"/>
    <line class="cls-2" x1="176.67" y1="62.11" x2="176.88" y2="62.42"/>
    <line class="cls-2" x1="176.88" y1="62.42" x2="176.96" y2="62.39"/>
    <path class="cls-2" d="M176.96,62.39s.07-.02.11-.03c.03,0,.05-.01.08-.02.02,0,.04-.01.06-.02.01,0,.02,0,.03,0"/>
    <line class="cls-2" x1="177.24" y1="62.31" x2="177.49" y2="62.27"/>
    <path class="cls-2" d="M177.49,62.27s.05,0,.07,0c.03,0,.05,0,.08,0,.03,0,.06,0,.09,0,.04,0,.07,0,.1,0,.07,0,.14,0,.21-.01.06,0,.12-.01.18-.02"/>
    <line class="cls-2" x1="178.23" y1="62.21" x2="177.96" y2="62.92"/>
    <path class="cls-2" d="M177.96,62.92s0,.02-.01.03c0,.02-.02.03-.02.05-.01.03-.02.05-.03.08-.01.03-.03.06-.04.1l-.03.06s-.02.04-.03.07c-.01.02-.02.05-.04.07-.01.03-.03.05-.04.08-.01.03-.03.06-.04.09-.02.03-.03.07-.05.1-.02.04-.03.07-.05.11l-.06.12"/>
    <line class="cls-2" x1="177.52" y1="63.88" x2="177.41" y2="63.92"/>
    <path class="cls-2" d="M173.76,63.72c0-.09,0-.18.02-.27,0-.08.02-.16.03-.24.01-.07.03-.15.04-.22.02-.06.03-.13.06-.19.02-.06.04-.11.07-.17.03-.05.06-.1.09-.14.03-.04.07-.08.11-.12.04-.03.08-.07.13-.09.02-.01.05-.02.07-.03.02,0,.05-.02.07-.02.02,0,.05,0,.07-.01.03,0,.05,0,.07,0"/>
    <path class="cls-2" d="M174.61,62.22s.09,0,.14.02c.04,0,.08.03.12.05.04.02.07.04.1.07.03.03.06.06.08.1.02.04.04.07.06.11.02.04.04.08.06.12.02.04.03.09.05.13.01.05.03.09.04.14"/>
    <path class="cls-2" d="M175.25,62.96c.02.09.03.19.04.28,0,.09.01.18.01.27,0,.09,0,.18-.02.27-.01.09-.03.18-.06.27-.01.04-.02.08-.04.13-.01.04-.03.07-.04.11-.01.03-.03.06-.04.09-.01.02-.03.05-.05.07-.02.02-.03.04-.05.06-.02.02-.04.04-.06.06-.02.02-.05.04-.07.06-.03.02-.05.04-.08.06"/>
    <line class="cls-2" x1="174.79" y1="64.66" x2="174.45" y2="64.88"/>
    <path class="cls-2" d="M174.45,64.88c-.06.04-.11.08-.17.13-.05.04-.1.09-.15.13-.02.02-.05.05-.07.08-.03.03-.05.06-.07.09-.03.04-.05.07-.08.11-.03.04-.06.08-.08.13-.01.02-.03.05-.04.07-.01.03-.03.05-.04.08-.01.03-.02.06-.03.09-.01.03-.02.07-.03.1-.01.04-.02.07-.03.11,0,.04-.02.08-.03.12,0,.04-.02.09-.02.13,0,.05-.01.09-.02.14"/>
    <path class="cls-2" d="M173.59,66.4c0,.08-.01.16-.02.24,0,.07,0,.15,0,.22,0,.03,0,.06,0,.1,0,.03,0,.05,0,.08,0,.02,0,.04,0,.06,0,.01,0,.03.01.04.01.02.03.03.04.04.02,0,.04,0,.06,0"/>
    <line class="cls-2" x1="173.7" y1="67.17" x2="175.37" y2="67.13"/>
    <path class="cls-2" d="M175.37,67.13s.06,0,.1,0c.02,0,.05,0,.07,0,.02,0,.03,0,.05,0,0,0,.02,0,.02-.01,0,0,.01-.02.01-.03,0,0,0-.02,0-.03,0,0,0-.01,0-.02,0-.01,0-.02,0-.04,0-.02,0-.03,0-.05,0-.02,0-.04,0-.06"/>
    <line class="cls-2" x1="175.62" y1="66.88" x2="175.58" y2="65.77"/>
    <line class="cls-2" x1="175.58" y1="65.77" x2="175.47" y2="65.77"/>
    <line class="cls-2" x1="175.47" y1="65.77" x2="175.43" y2="66.5"/>
    <path class="cls-2" d="M175.43,66.5s0,.07-.01.1c0,.03,0,.05-.01.08,0,.02,0,.04-.01.05,0,.01,0,.02,0,.03,0,.01-.02.02-.03.03-.02,0-.04,0-.05.01"/>
    <line class="cls-2" x1="175.3" y1="66.8" x2="173.8" y2="66.85"/>
    <line class="cls-2" x1="173.8" y1="66.85" x2="173.82" y2="66.5"/>
    <path class="cls-2" d="M173.82,66.5s0-.04,0-.06c0-.02,0-.04,0-.07,0-.03,0-.05.01-.08,0-.03.01-.06.02-.09.01-.06.02-.11.04-.17.01-.05.03-.09.04-.14.02-.04.04-.09.05-.13.02-.04.04-.09.07-.13.03-.04.05-.09.09-.13.03-.04.07-.08.11-.11.04-.04.09-.08.13-.11.05-.04.1-.07.16-.11"/>
    <line class="cls-2" x1="174.54" y1="65.18" x2="174.95" y2="64.92"/>
    <path class="cls-2" d="M174.95,64.92c.05-.04.1-.08.15-.12.04-.04.08-.08.12-.13.02-.02.04-.05.05-.07.02-.03.03-.05.05-.08.02-.03.03-.06.04-.09.01-.03.03-.07.04-.1.03-.07.05-.15.07-.22.02-.07.03-.15.04-.22"/>
    <path class="cls-2" d="M175.52,63.88c0-.07.01-.15.02-.22,0-.08,0-.16,0-.24,0-.08,0-.16-.01-.24,0-.08-.02-.15-.03-.23-.01-.07-.03-.15-.04-.22-.02-.07-.04-.14-.07-.21-.01-.03-.03-.07-.04-.1-.01-.03-.03-.06-.05-.09-.02-.03-.03-.05-.05-.08-.02-.03-.04-.05-.05-.07-.04-.04-.08-.09-.12-.12-.05-.04-.09-.07-.15-.1-.03-.01-.05-.03-.08-.04s-.05-.02-.08-.03c-.03,0-.06-.01-.08-.02-.03,0-.06,0-.09,0"/>
    <path class="cls-2" d="M174.59,61.87s-.05,0-.07,0c-.03,0-.05,0-.08.01-.03,0-.06.01-.09.02-.03,0-.06.02-.09.03-.03.01-.07.03-.1.04-.03.02-.06.04-.09.07-.03.03-.06.06-.09.09-.03.04-.06.07-.08.11-.03.04-.05.08-.07.12-.02.04-.04.08-.06.12-.02.04-.03.07-.05.11-.01.04-.02.07-.03.11s-.02.07-.03.11c0,.04-.01.08-.02.12,0,.04-.01.09-.02.13,0,.05,0,.09-.01.14"/>
    <path class="cls-2" d="M173.62,63.22c0,.06,0,.13-.01.19,0,.06,0,.12,0,.17,0,.03,0,.06,0,.09,0,.03,0,.07,0,.1,0,.04,0,.07,0,.11,0,.04,0,.08,0,.12"/>
    <line class="cls-2" x1="173.62" y1="64" x2="173.75" y2="64"/>
    <line class="cls-2" x1="173.75" y1="64" x2="173.76" y2="63.72"/>
    <path class="cls-2" d="M171.52,62.02c-.03.05-.07.11-.1.16-.03.05-.06.1-.1.14-.02.03-.04.05-.06.07-.02.03-.05.06-.07.09-.03.03-.06.07-.09.1-.04.04-.07.07-.11.11"/>
    <line class="cls-2" x1="171" y1="62.69" x2="171.03" y2="62.83"/>
    <line class="cls-2" x1="171.03" y1="62.83" x2="171.47" y2="62.45"/>
    <line class="cls-2" x1="171.47" y1="62.45" x2="171.46" y2="65.75"/>
    <path class="cls-2" d="M171.46,65.75v.12s0,.07,0,.1c0,.03,0,.06,0,.08,0,.02,0,.05,0,.07,0,.04,0,.07,0,.11,0,.03,0,.06,0,.09,0,.03,0,.06-.01.08,0,.03-.01.05-.02.08,0,.03-.01.05-.02.07,0,.02-.01.04-.02.06,0,.02,0,.03-.02.05,0,0-.01.02-.01.03,0,0,0,.01,0,.02,0,.01,0,.03.01.04,0,.02.01.04.02.06,0,.03.02.06.03.09"/>
    <line class="cls-2" x1="171.4" y1="66.93" x2="171.49" y2="67.23"/>
    <line class="cls-2" x1="171.49" y1="67.23" x2="171.53" y2="67.34"/>
    <path class="cls-2" d="M171.53,67.34s.01.03.02.05c0,.01.01.02.02.03,0,0,.01,0,.02.01,0,0,0,0,0,0"/>
    <path class="cls-2" d="M171.59,67.43s.01,0,.02,0c0,0,.01-.01.02-.02,0-.02.01-.03.01-.04,0-.02,0-.04.01-.07,0-.05.01-.11.02-.16,0-.06,0-.11.01-.17,0-.02,0-.03,0-.05v-.06s0-.05,0-.07c0-.03,0-.05,0-.08,0-.03,0-.06,0-.09,0-.03,0-.07,0-.1,0-.04,0-.07,0-.11,0-.04,0-.08,0-.12"/>
    <line class="cls-2" x1="171.7" y1="66.3" x2="171.71" y2="61.83"/>
    <line class="cls-2" x1="171.71" y1="61.83" x2="171.62" y2="61.83"/>
    <line class="cls-2" x1="171.62" y1="61.83" x2="171.52" y2="62.02"/>
    <line class="cls-2" x1="167.64" y1="66.84" x2="167.39" y2="66.84"/>
    <path class="cls-2" d="M167.39,66.84s-.03,0-.04,0c0,0-.02,0-.02,0,0,0,0,0,0,.02,0,0,0,.01,0,.02,0,.01,0,.02.01.03.01.02.03.04.04.05"/>
    <line class="cls-2" x1="167.36" y1="66.97" x2="167.46" y2="67.08"/>
    <path class="cls-2" d="M167.46,67.08s.01.01.02.02c0,0,.02.02.03.03.01.01.02.02.03.03.01.01.03.03.04.04.01.01.03.03.04.04.01,0,.02.02.04.03,0,0,.02.01.03.02,0,0,.01,0,.02,0"/>
    <path class="cls-2" d="M167.71,67.28s0,0,0,0c0,0,.01,0,.02,0,0,0,.02,0,.02-.02,0,0,.02-.01.03-.02.03-.02.05-.03.08-.04.03-.01.07-.02.1-.02"/>
    <line class="cls-2" x1="167.97" y1="67.17" x2="168.34" y2="67.13"/>
    <path class="cls-2" d="M168.34,67.13c.06,0,.12-.01.18-.02.05,0,.1-.01.15-.02.04,0,.09-.01.13-.02.04,0,.07-.01.11-.02.03,0,.06-.02.09-.03.03-.01.06-.02.09-.04s.06-.03.08-.05c.03-.02.05-.04.08-.06.03-.02.05-.05.07-.07.02-.03.05-.06.07-.09.02-.03.05-.07.07-.1.02-.04.05-.08.07-.11.02-.04.04-.08.06-.13.02-.04.04-.09.05-.13.02-.05.03-.09.04-.14s.02-.1.04-.14c.02-.1.04-.2.05-.3.01-.1.02-.21.03-.31,0-.05,0-.1.01-.15,0-.05,0-.09,0-.14,0-.04,0-.08,0-.12,0-.04,0-.07,0-.11"/>
    <path class="cls-2" d="M169.84,64.82s0-.07,0-.1c0-.04,0-.08,0-.11,0-.04,0-.08,0-.13,0-.05,0-.09,0-.14,0-.1,0-.19-.01-.29,0-.09,0-.19,0-.28,0-.09,0-.19-.01-.28,0-.1-.02-.19-.03-.29,0-.05-.01-.1-.02-.14,0-.04-.01-.09-.02-.13,0-.04-.02-.08-.03-.12,0-.04-.02-.08-.03-.11,0-.04-.02-.07-.03-.1-.01-.03-.02-.06-.04-.1-.01-.03-.03-.06-.04-.09-.01-.03-.03-.05-.04-.08-.03-.05-.06-.09-.1-.13-.03-.04-.07-.07-.11-.1-.04-.03-.08-.06-.13-.08-.05-.02-.09-.04-.14-.05-.03,0-.05-.01-.08-.02-.03,0-.06,0-.09-.01-.03,0-.06,0-.1,0-.04,0-.07,0-.11,0"/>
    <path class="cls-2" d="M168.67,61.91s-.07,0-.1,0c-.03,0-.06,0-.1.01-.03,0-.06,0-.09.01-.03,0-.05.01-.08.02"/>
    <line class="cls-2" x1="168.3" y1="61.96" x2="167.98" y2="62.05"/>
    <line class="cls-2" x1="167.98" y1="62.05" x2="167.81" y2="62.07"/>
    <path class="cls-2" d="M167.81,62.07s-.04,0-.06.01c-.02,0-.03,0-.04,0,0,0-.02,0-.03,0,0,0,0,0,0,0"/>
    <line class="cls-2" x1="167.66" y1="62.09" x2="167.49" y2="62.09"/>
    <line class="cls-2" x1="167.49" y1="62.09" x2="167.33" y2="62.07"/>
    <path class="cls-2" d="M167.33,62.07s-.02.01-.02.02,0,.02-.01.03,0,.02,0,.03c0,.01,0,.02,0,.04,0,.01.02.03.03.04.01.01.03.02.04.03"/>
    <line class="cls-2" x1="167.38" y1="62.25" x2="167.53" y2="62.38"/>
    <path class="cls-2" d="M167.53,62.38s.03.02.04.03c.02.01.04.02.06.03"/>
    <line class="cls-2" x1="167.64" y1="62.44" x2="167.64" y2="66.84"/>
    <path class="cls-2" d="M165.55,67.27s.05,0,.08,0c.03,0,.06,0,.09-.01.03,0,.06-.02.09-.03.03-.01.07-.03.1-.04.04-.02.07-.04.1-.06.04-.03.07-.06.1-.09.04-.04.07-.07.1-.11.03-.04.07-.09.1-.14.03-.05.06-.1.09-.16.03-.05.06-.11.08-.17.03-.06.05-.12.07-.18.02-.06.04-.12.06-.19.04-.13.08-.25.11-.38.03-.13.05-.25.07-.38,0-.06.02-.12.03-.19,0-.06.02-.12.02-.18,0-.06.01-.11.01-.17,0-.05,0-.1,0-.16"/>
    <path class="cls-2" d="M166.87,64.64c0-.14,0-.28,0-.41,0-.14-.02-.28-.04-.42,0-.07-.02-.14-.03-.21,0-.07-.02-.13-.03-.2-.01-.06-.02-.12-.04-.18-.01-.06-.03-.12-.04-.18-.03-.11-.07-.22-.11-.33-.04-.11-.08-.21-.13-.31-.02-.05-.05-.09-.08-.14-.03-.04-.05-.08-.08-.12-.03-.03-.06-.07-.09-.1-.03-.03-.06-.06-.1-.08-.03-.02-.06-.04-.1-.06-.03-.02-.06-.03-.09-.05-.03-.01-.06-.02-.08-.03-.03,0-.05-.01-.08-.02"/>
    <path class="cls-2" d="M165.75,61.81s-.05,0-.08,0c-.03,0-.06.01-.09.02-.03,0-.06.02-.09.03-.03.01-.07.03-.1.05-.04.02-.07.05-.11.07-.04.03-.08.07-.11.11-.04.05-.08.1-.12.15-.04.06-.08.12-.12.18-.04.07-.08.14-.12.21-.04.08-.07.15-.1.23-.03.08-.06.17-.08.26-.03.09-.05.18-.06.28-.02.09-.04.19-.05.28-.01.09-.03.18-.04.27-.01.08-.02.17-.03.26,0,.08-.01.16-.02.24"/>
    <path class="cls-2" d="M164.43,64.45c0,.05,0,.1,0,.15,0,.05,0,.11,0,.16,0,.06,0,.11,0,.17,0,.06,0,.12,0,.18,0,.06,0,.13.02.19,0,.07.02.13.03.19.01.07.02.13.04.2.01.07.03.14.04.21s.04.14.05.2c.02.06.04.13.06.19.02.06.04.12.07.18.02.06.05.12.08.17.03.05.05.1.08.15.03.04.06.09.09.13.03.04.06.07.09.1.03.03.06.06.1.08.03.02.06.04.1.06.03.02.06.03.09.04.03.01.06.02.09.03.03,0,.05,0,.08.01"/>
    <path class="cls-2" d="M163.39,62.23s-.03-.05-.05-.07c-.02-.02-.04-.05-.06-.07-.02-.02-.05-.04-.08-.06-.03-.02-.06-.04-.09-.06-.03-.02-.06-.04-.1-.05-.03-.02-.07-.03-.1-.04-.03-.01-.07-.02-.1-.03-.04,0-.07-.01-.11-.02"/>
    <path class="cls-2" d="M162.7,61.82s-.06,0-.1,0c-.03,0-.06,0-.09.01-.03,0-.05.01-.08.02-.02,0-.05.02-.07.03-.04.02-.08.05-.12.08-.04.03-.08.06-.11.1-.04.04-.07.08-.1.13-.03.05-.06.1-.09.16-.03.06-.05.12-.07.18-.02.06-.04.12-.06.19,0,.03-.01.07-.02.1,0,.04-.01.07-.01.11,0,.04,0,.08,0,.12,0,.04,0,.08,0,.13"/>
    <path class="cls-2" d="M161.78,63.17s0,.1,0,.15c0,.04,0,.09,0,.13,0,.04,0,.08.01.12,0,.04.01.07.02.11.02.07.04.13.06.19.02.06.05.11.08.17.03.05.07.1.1.14.04.04.08.08.13.12.05.04.1.07.15.1.05.03.11.05.17.08"/>
    <line class="cls-2" x1="162.52" y1="64.47" x2="162.88" y2="64.61"/>
    <path class="cls-2" d="M162.88,64.61s.07.03.11.05c.03.02.07.03.1.05.03.02.06.04.09.05.03.02.05.04.08.06.02.02.05.04.07.06.02.02.04.05.06.07s.04.05.05.08c.02.03.04.06.05.09.02.03.03.07.04.11.01.04.02.09.03.13.01.05.02.11.03.16,0,.06.01.12.02.18"/>
    <path class="cls-2" d="M163.6,65.7s0,.08,0,.12c0,.04,0,.07,0,.11,0,.03,0,.07,0,.1,0,.03,0,.06-.01.09,0,.03-.01.06-.02.09,0,.03-.02.06-.03.09-.01.03-.02.06-.04.1-.01.03-.03.07-.05.1-.02.03-.03.06-.05.09-.02.03-.04.06-.06.08-.02.03-.04.05-.07.07-.02.02-.05.04-.07.06-.03.02-.05.04-.08.05-.03.01-.06.03-.09.04-.03,0-.07.02-.1.02-.04,0-.08,0-.11,0"/>
    <path class="cls-2" d="M162.8,66.92s-.09,0-.13,0c-.04,0-.09-.02-.13-.03-.02,0-.05-.02-.07-.03-.02-.01-.04-.03-.06-.04-.02-.02-.04-.03-.07-.05-.02-.02-.04-.04-.06-.06-.04-.05-.08-.09-.11-.15-.04-.05-.07-.11-.09-.17-.03-.06-.05-.13-.07-.2-.02-.07-.04-.15-.05-.22,0-.04-.02-.08-.02-.12,0-.05-.02-.09-.02-.14,0-.05-.02-.1-.02-.15,0-.05-.01-.11-.02-.16"/>
    <line class="cls-2" x1="161.86" y1="65.41" x2="161.74" y2="65.41"/>
    <line class="cls-2" x1="161.74" y1="65.41" x2="161.78" y2="65.85"/>
    <path class="cls-2" d="M161.78,65.85c0,.09.01.17.03.26.01.09.03.18.06.27.01.04.03.09.04.13.02.04.03.08.05.12.02.04.04.07.06.11.02.04.04.07.06.1.02.03.05.06.07.09.02.03.05.06.08.08.03.03.05.05.08.07.03.02.06.04.09.06.03.02.06.03.1.05.03.01.07.02.1.03.04,0,.07.01.11.02.04,0,.08,0,.11,0"/>
    <path class="cls-2" d="M162.82,67.24s.07,0,.1,0c.03,0,.06,0,.1-.01.03,0,.06-.01.09-.02.03,0,.06-.02.08-.03.05-.02.1-.05.14-.08.04-.03.08-.06.11-.09.02-.02.03-.04.05-.06.02-.02.03-.04.05-.07.02-.03.03-.05.05-.08.02-.03.03-.06.05-.09.03-.06.06-.13.09-.2.03-.07.04-.15.06-.22"/>
    <path class="cls-2" d="M163.8,66.29c.01-.07.03-.15.04-.23,0-.08,0-.16,0-.24,0-.08,0-.16,0-.23,0-.07-.01-.14-.02-.21,0-.06-.02-.13-.03-.19-.01-.06-.03-.12-.04-.18-.02-.06-.04-.11-.06-.16-.02-.05-.05-.09-.09-.14-.03-.04-.07-.08-.11-.12-.04-.04-.09-.08-.13-.11-.03-.02-.05-.04-.08-.05-.03-.02-.06-.04-.09-.05-.03-.02-.07-.03-.1-.05-.04-.02-.07-.03-.11-.05"/>
    <line class="cls-2" x1="162.97" y1="64.28" x2="162.68" y2="64.16"/>
    <path class="cls-2" d="M162.68,64.16s-.09-.04-.13-.05c-.05-.02-.11-.05-.16-.08-.03-.02-.06-.03-.08-.05-.03-.02-.05-.04-.07-.07-.02-.03-.04-.05-.06-.08-.02-.03-.04-.06-.05-.09"/>
    <path class="cls-2" d="M162.11,63.73s-.03-.07-.04-.1c-.01-.04-.02-.07-.03-.11,0-.04-.01-.08-.02-.12,0-.04,0-.08,0-.12,0-.04,0-.08,0-.12,0-.04,0-.07,0-.11,0-.03,0-.06,0-.09,0-.03,0-.06.01-.08,0-.05.02-.11.04-.16.02-.05.04-.11.06-.16.01-.03.02-.05.04-.08.01-.02.03-.05.05-.07.02-.02.03-.04.05-.06.02-.02.04-.04.06-.06.02-.02.04-.03.06-.05.02-.01.04-.03.06-.04.02-.01.03-.02.05-.03.01,0,.03-.01.05-.02.03,0,.06-.02.09-.02.03,0,.06,0,.08,0"/>
    <line class="cls-2" x1="157.05" y1="71.83" x2="157.05" y2="56.17"/>
  </g>
  <g id="Make2D::可见线::正切线">
    <line class="cls-2" x1="414.14" y1="16.63" x2="392.69" y2="16.63"/>
    <line class="cls-2" x1="426.73" y1="68.17" x2="444.27" y2="68.17"/>
    <line class="cls-2" x1="280.34" y1="68.17" x2="297.88" y2="68.17"/>
    <line class="cls-2" x1="444.27" y1="120.95" x2="426.73" y2="120.95"/>
    <line class="cls-2" x1="426.73" y1="114.09" x2="444.27" y2="114.09"/>
    <line class="cls-2" x1="297.88" y1="114.09" x2="280.34" y2="114.09"/>
    <line class="cls-2" x1="280.34" y1="120.95" x2="297.88" y2="120.95"/>
    <line class="cls-2" x1="439.4" y1="132.53" x2="285.21" y2="132.53"/>
    <line class="cls-2" x1="316.01" y1="238.87" x2="408.6" y2="238.87"/>
    <line class="cls-2" x1="408.6" y1="247.31" x2="316.01" y2="247.31"/>
    <line class="cls-2" x1="229.43" y1="68.17" x2="246.97" y2="68.17"/>
    <line class="cls-2" x1="83.04" y1="68.17" x2="100.59" y2="68.17"/>
    <line class="cls-2" x1="246.97" y1="120.95" x2="229.43" y2="120.95"/>
    <line class="cls-2" x1="229.43" y1="114.09" x2="246.97" y2="114.09"/>
    <line class="cls-2" x1="100.59" y1="114.09" x2="83.04" y2="114.09"/>
    <line class="cls-2" x1="83.04" y1="120.95" x2="100.59" y2="120.95"/>
    <line class="cls-2" x1="242.1" y1="132.53" x2="87.92" y2="132.53"/>
    <line class="cls-2" x1="118.71" y1="238.87" x2="211.3" y2="238.87"/>
    <line class="cls-2" x1="211.3" y1="247.31" x2="118.71" y2="247.31"/>
    <line class="cls-2" x1="418.62" y1="31.54" x2="414.14" y2="31.54"/>
    <line class="cls-2" x1="418.62" y1="16.53" x2="418.62" y2="31.54"/>
    <line class="cls-2" x1="414.14" y1="16.53" x2="418.62" y2="16.53"/>
    <path class="cls-2" d="M418.62,16.53v-.38h0"/>
    <path class="cls-2" d="M418.62,31.93h0v-.39"/>
    <path class="cls-2" d="M418.62,16.53h.39"/>
    <path class="cls-2" d="M419.01,31.54h-.39"/>
    <line class="cls-2" x1="388.21" y1="16.53" x2="392.69" y2="16.53"/>
    <line class="cls-2" x1="388.21" y1="31.54" x2="388.21" y2="16.53"/>
    <line class="cls-2" x1="392.69" y1="31.54" x2="388.21" y2="31.54"/>
    <path class="cls-2" d="M388.21,31.54v.38h0"/>
    <path class="cls-2" d="M388.21,16.14s0,0,0,0h0v.39"/>
    <path class="cls-2" d="M388.21,31.54h-.39"/>
    <path class="cls-2" d="M387.82,16.53h.39"/>
    <line class="cls-2" x1="242.1" y1="299.19" x2="242.1" y2="132.53"/>
    <line class="cls-2" x1="87.92" y1="132.53" x2="87.92" y2="299.19"/>
    <line class="cls-2" x1="439.4" y1="299.19" x2="439.4" y2="132.53"/>
    <line class="cls-2" x1="285.21" y1="132.53" x2="285.21" y2="299.19"/>
    <line class="cls-2" x1="392.69" y1="31.45" x2="414.14" y2="31.45"/>
  </g>
  <g id="_图层_3" data-name="图层 3">
    <g>
      <path class="cls-1" d="M354.98,163.62h3.46v10.88c0,1.42-.12,2.52-.38,3.28-.34,1-.95,1.8-1.83,2.41s-2.05.91-3.49.91c-1.7,0-3-.47-3.91-1.42s-1.38-2.34-1.38-4.18l3.27-.38c.04.98.18,1.68.43,2.09.38.62.95.93,1.71.93s1.32-.22,1.64-.66.48-1.36.48-2.75v-11.1Z"/>
      <path class="cls-1" d="M369.83,180.8h-3.29v-12.41c-1.2,1.12-2.62,1.96-4.25,2.5v-2.99c.86-.28,1.79-.81,2.8-1.6s1.7-1.7,2.07-2.75h2.67v17.25Z"/>
    </g>
    <g>
      <path class="cls-1" d="M158.62,163.62h3.46v10.88c0,1.42-.12,2.52-.38,3.28-.34,1-.95,1.8-1.83,2.41s-2.05.91-3.49.91c-1.7,0-3-.47-3.91-1.42s-1.38-2.34-1.38-4.18l3.27-.38c.04.98.18,1.68.43,2.09.38.62.95.93,1.71.93s1.32-.22,1.64-.66.48-1.36.48-2.75v-11.1Z"/>
      <path class="cls-1" d="M176.16,177.74v3.06h-11.54c.12-1.16.5-2.25,1.12-3.29s1.86-2.41,3.7-4.12c1.48-1.38,2.39-2.32,2.73-2.81.45-.68.68-1.35.68-2.02,0-.73-.2-1.3-.59-1.69s-.94-.59-1.63-.59-1.23.21-1.64.62-.64,1.1-.7,2.06l-3.28-.33c.2-1.81.81-3.11,1.84-3.9s2.32-1.18,3.87-1.18c1.7,0,3.03.46,4,1.37.97.91,1.45,2.05,1.45,3.41,0,.77-.14,1.51-.42,2.21s-.72,1.43-1.32,2.2c-.4.51-1.12,1.24-2.16,2.19s-1.7,1.59-1.97,1.9-.5.62-.67.91h6.54Z"/>
    </g>
    <g>
      <path class="cls-1" d="M535.46,44.58h3.46v10.88c0,1.42-.12,2.52-.38,3.28-.34,1-.95,1.8-1.83,2.41s-2.05.91-3.49.91c-1.7,0-3-.47-3.91-1.42s-1.38-2.34-1.38-4.18l3.27-.38c.04.98.18,1.68.43,2.09.38.62.95.93,1.71.93s1.32-.22,1.64-.66.48-1.36.48-2.75v-11.1Z"/>
      <path class="cls-1" d="M541.76,57.2l3.19-.39c.1.81.38,1.43.82,1.86s.98.64,1.62.64c.68,0,1.25-.26,1.72-.77s.7-1.21.7-2.09c0-.83-.22-1.48-.67-1.97s-.99-.73-1.63-.73c-.42,0-.93.08-1.51.25l.36-2.68c.89.02,1.57-.17,2.04-.58s.7-.96.7-1.63c0-.58-.17-1.04-.52-1.38s-.8-.52-1.37-.52-1.04.2-1.44.59-.64.96-.73,1.71l-3.04-.52c.21-1.04.53-1.87.96-2.49s1.02-1.11,1.78-1.46,1.62-.53,2.56-.53c1.62,0,2.91.52,3.89,1.55.8.84,1.21,1.8,1.21,2.86,0,1.51-.82,2.71-2.47,3.61.98.21,1.77.68,2.36,1.42s.88,1.62.88,2.66c0,1.51-.55,2.79-1.65,3.86s-2.47,1.59-4.11,1.59c-1.55,0-2.84-.45-3.87-1.34s-1.62-2.06-1.78-3.51Z"/>
    </g>
    <g>
      <path class="cls-1" d="M540.5,219.46h3.46v10.88c0,1.42-.12,2.52-.38,3.28-.34,1-.95,1.8-1.83,2.41s-2.05.91-3.49.91c-1.7,0-3-.47-3.91-1.42s-1.38-2.34-1.38-4.18l3.27-.38c.04.98.18,1.68.43,2.09.38.62.95.93,1.71.93s1.32-.22,1.64-.66.48-1.36.48-2.75v-11.1Z"/>
      <path class="cls-1" d="M553.38,236.64v-3.46h-7.03v-2.88l7.45-10.91h2.77v10.9h2.13v2.89h-2.13v3.46h-3.19ZM553.38,230.29v-5.87l-3.95,5.87h3.95Z"/>
    </g>
  </g>
</svg>