<?xml version="1.0" encoding="UTF-8"?>
<svg xmlns="http://www.w3.org/2000/svg" viewBox="0 0 594.08 434.3">
  <defs>
    <style>
      .cls-1 {
        stroke-miterlimit: 10;
      }

      .cls-1, .cls-2 {
        stroke: #000;
      }

      .cls-1, .cls-3 {
        fill: #fff;
      }

      .cls-4 {
        fill: red;
      }

      .cls-4, .cls-3 {
        stroke-width: 0px;
      }

      .cls-2, .cls-5 {
        fill: none;
        stroke-linecap: round;
        stroke-linejoin: round;
      }

      .cls-5 {
        stroke: #bfbfbf;
        stroke-width: 4px;
      }
    </style>
  </defs>
  <g id="_图层_3" data-name="图层 3">
    <g>
      <path class="cls-5" d="M588.94,259.88c.44-7.79.4-15.65-.2-23.43-.56-7.26-1.62-14.53-3.29-21.62-.94-4.01-2.07-7.94-3.44-11.82-1.29-3.66-2.76-7.23-4.47-10.71-3.14-6.38-7.06-12.42-11.9-17.68-5.17-5.62-11.27-10.21-18.3-13.31-3.4-1.49-6.93-2.6-10.57-3.32-3.73-.73-7.52-1.05-11.32-.98-7.12.13-14.11,1.58-20.79,3.94-7.56,2.67-14.71,6.49-21.33,10.97-5.99,4.05-11.61,8.69-16.84,13.68-5.68,5.42-10.96,11.33-15.81,17.5-4.59,5.84-8.78,11.91-12.68,18.23-2.01,3.26-3.92,6.56-5.75,9.93-1.85,3.4-3.61,6.84-5.28,10.33-3.27,6.82-6.18,13.76-8.76,20.86-1.3,3.57-2.5,7.16-3.63,10.78-1.12,3.62-2.15,7.26-3.09,10.93-3.73,14.55-6.08,29.69-6.62,44.73"/>
      <path class="cls-5" d="M592.08,260.64c-1.67,29.58-10.14,59.82-23.21,86.28-6.6,13.37-14.62,26.29-23.98,37.93-4.96,6.16-10.34,12.04-16.14,17.42-5.17,4.8-10.71,9.24-16.6,13.13-6.49,4.28-13.45,7.93-20.82,10.51-6.78,2.38-13.88,3.84-21.1,3.98-7.34.14-14.53-1.09-21.35-3.85-7.21-2.92-13.53-7.35-18.94-12.88-5.01-5.12-9.11-11.04-12.43-17.35-3.65-6.94-6.38-14.39-8.36-21.95-3.79-14.44-5-29.81-4.47-44.64"/>
    </g>
  </g>
  <g id="Make2D::可见线::曲线">
    <line class="cls-2" x1="480.13" y1="238.71" x2="478.31" y2="241.02"/>
    <path class="cls-2" d="M402.54,330.44c.54-15.43,2.98-30.96,6.85-45.88,1.96-7.53,4.28-14.92,6.97-22.22,2.68-7.26,5.7-14.35,9.1-21.31,1.74-3.57,3.58-7.1,5.51-10.57,1.91-3.44,3.91-6.81,6-10.14,4.06-6.44,8.43-12.61,13.21-18.54,5.05-6.26,10.55-12.23,16.47-17.68,5.45-5.02,11.32-9.67,17.57-13.68,3.54-2.28,7.18-4.33,10.97-6.16,3.58-1.72,7.23-3.21,11.02-4.43,1.82-.58,3.65-1.1,5.5-1.55,1.8-.43,3.62-.8,5.45-1.09,3.55-.56,7.09-.83,10.69-.79,3.89.05,7.75.49,11.55,1.33,3.73.83,7.35,2.05,10.82,3.64,7.15,3.28,13.37,8.02,18.67,13.78,5,5.43,9.07,11.66,12.33,18.25,3.61,7.29,6.26,15.06,8.14,22.95,1.74,7.28,2.84,14.74,3.43,22.2.62,7.97.66,16.01.21,23.99"/>
    <path class="cls-2" d="M588.98,262.32c.43-7.71.4-15.48-.2-23.18-.56-7.18-1.6-14.37-3.26-21.39-.93-3.96-2.05-7.86-3.4-11.7-1.27-3.62-2.73-7.15-4.43-10.6-3.11-6.31-6.99-12.29-11.77-17.49-5.12-5.56-11.15-10.1-18.12-13.16-3.36-1.48-6.86-2.57-10.46-3.28-3.7-.73-7.44-1.04-11.21-.97-7.05.13-13.97,1.57-20.58,3.9-7.48,2.64-14.56,6.42-21.11,10.85-5.93,4.01-11.5,8.6-16.67,13.53-5.63,5.37-10.85,11.21-15.65,17.31-4.54,5.78-8.69,11.78-12.55,18.03-1.99,3.22-3.88,6.49-5.69,9.82-1.83,3.36-3.57,6.77-5.23,10.22-3.23,6.75-6.11,13.61-8.67,20.64-1.28,3.53-2.48,7.08-3.59,10.67-1.11,3.58-2.13,7.18-3.06,10.81-3.69,14.4-6.02,29.37-6.55,44.25"/>
    <path class="cls-2" d="M593.02,262.55c-.85,15.09-3.47,30.22-7.45,44.78-3.99,14.58-9.44,28.9-16.18,42.43-6.73,13.5-14.91,26.53-24.46,38.24-2.53,3.1-5.15,6.11-7.89,9.02-1.34,1.42-2.7,2.82-4.09,4.2-1.36,1.35-2.75,2.68-4.17,3.97-5.36,4.92-11.13,9.46-17.26,13.4-3.43,2.2-6.94,4.2-10.6,5.99-3.49,1.7-7.05,3.17-10.73,4.39-3.51,1.16-7.06,2.07-10.71,2.7-3.5.6-7,.92-10.55.94-3.81.01-7.53-.33-11.27-1.06-3.69-.73-7.2-1.81-10.66-3.27-7.13-3.02-13.4-7.49-18.79-13-5.03-5.15-9.16-11.09-12.53-17.42-3.74-7.05-6.54-14.61-8.58-22.31-1.86-7.05-3.11-14.28-3.84-21.52-.79-7.82-1-15.72-.73-23.57"/>
    <path class="cls-2" d="M406.78,330.6c-.27,7.58-.08,15.22.67,22.78.36,3.57.83,7.12,1.46,10.66.59,3.39,1.31,6.74,2.18,10.08,1.95,7.48,4.63,14.84,8.25,21.7.84,1.59,1.72,3.14,2.66,4.67.91,1.48,1.88,2.93,2.89,4.35.99,1.38,2.02,2.71,3.11,4.01,1.06,1.26,2.16,2.48,3.31,3.66,2.66,2.71,5.49,5.12,8.64,7.25,3,2.03,6.19,3.75,9.56,5.1,3.35,1.35,6.75,2.31,10.32,2.92,1.79.31,3.59.51,5.4.63,1.85.12,3.69.14,5.54.08,6.93-.25,13.74-1.75,20.23-4.1,7.25-2.63,14.12-6.32,20.48-10.62,5.82-3.93,11.29-8.42,16.38-13.24,5.51-5.22,10.63-10.9,15.35-16.84,4.48-5.64,8.59-11.5,12.41-17.6,3.96-6.32,7.55-12.82,10.84-19.52,6.42-13.1,11.61-26.95,15.41-41.03,3.79-14.05,6.28-28.66,7.1-43.21"/>
    <path class="cls-2" d="M375.62,96.91c2.1-.22,4.86-.8,6.9-1.28,1.14-.27,2.27-.56,3.4-.86.56-.15,1.13-.31,1.69-.48.39-.12.78-.24,1.16-.37.12-.04.24-.08.35-.13.03-.01.07-.03.1-.05.01,0,.02,0,.03-.01,0,0,0,0,0,0,0,0,0,0,0,0"/>
    <path class="cls-2" d="M375.84,94.02c-4.91.4-9.76,1.29-14.51,2.58-5.17,1.4-10.2,3.28-15.05,5.53-9.33,4.31-18.03,9.98-25.99,16.42-15.9,12.87-29.37,29.25-40.07,46.51-10.78,17.4-19.27,36.52-25.18,56.09-5.9,19.54-9.42,40.22-9.78,60.68"/>
    <path class="cls-2" d="M419.58,265.97c.28.14.57.26.87.36"/>
    <path class="cls-2" d="M245.26,281.83c-.29,16.77,1.55,34.07,6.45,50.23,4.84,15.98,12.95,31.66,25.44,43.34"/>
    <path class="cls-2" d="M415.96,263.47c-1.75-1.69-3.01-3.77-3.81-6.04"/>
    <path class="cls-2" d="M457.6,129.78c-12.42-3.8-25.31-3-37.48.77"/>
    <path class="cls-2" d="M453.67,92.21c-15.05-4.45-30.63-3.57-45.41.83"/>
    <path class="cls-2" d="M278.39,312.63c.37,21.92,4.1,44.91,13.14,65.22,4.52,10.16,10.45,19.81,18.04,28.04,7.61,8.26,16.68,14.87,27.16,19.1"/>
    <path class="cls-2" d="M357.11,328.51c4.38,9.03,11.23,17.21,21.1,20.93"/>
    <path class="cls-2" d="M449.3,398.45c14.74-13.02,27.45-28.74,37.9-45.29,10.51-16.64,19.13-34.73,25.67-53.28,6.54-18.55,11.16-38.05,13.41-57.62,2.23-19.44,2.18-39.66-1.16-59.03"/>
    <path class="cls-2" d="M306.02,299.52c-.5-.18-1.02-.15-1.51.02"/>
    <line class="cls-2" x1="462.72" y1="99.62" x2="464.93" y2="100.27"/>
    <path class="cls-2" d="M408.26,93.04c-14.14,4.21-27.35,11.57-39.04,20.35-11.77,8.83-22.41,19.39-31.75,30.7"/>
    <line class="cls-2" x1="477.58" y1="247.18" x2="473.2" y2="245.7"/>
    <path class="cls-2" d="M329.34,98.37c-5.85,1.71-11.49,4.06-16.88,6.87-6.08,3.17-11.85,6.94-17.28,11.12-10.24,7.89-19.38,17.31-27.33,27.45-15.87,20.23-27.78,44.26-35.15,68.78-1.85,6.17-3.43,12.38-4.73,18.69-1.32,6.4-2.34,12.82-3.04,19.32-1.39,12.8-1.56,25.9-.14,38.73.73,6.67,1.9,13.32,3.57,19.83,1.55,6.02,3.53,11.95,6.03,17.65,2.75,6.29,6.12,12.32,10.21,17.85,3.62,4.89,7.76,9.35,12.49,13.2"/>
    <path class="cls-2" d="M483.38,242.71c-.42,1.25-1.14,2.48-2.12,3.39-.49.45-1.07.83-1.71,1.05-.64.22-1.33.25-1.98.03"/>
    <path class="cls-2" d="M482.17,236c1.05.7,1.52,1.96,1.65,3.12.14,1.2-.05,2.46-.44,3.59"/>
    <path class="cls-2" d="M473.2,245.7c-.64-.21-1.11-.69-1.44-1.25-.32-.56-.5-1.21-.59-1.84-.16-1.27.04-2.64.45-3.84"/>
    <line class="cls-2" x1="291.9" y1="300.21" x2="294.07" y2="301.02"/>
    <line class="cls-2" x1="293.77" y1="314.09" x2="291.6" y2="313.28"/>
    <path class="cls-2" d="M291.9,300.21c-.21-.08-.49-.3-.64-.46"/>
    <line class="cls-2" x1="482.02" y1="242.25" x2="481.98" y2="239.33"/>
    <line class="cls-2" x1="479.85" y1="241.53" x2="482.02" y2="242.25"/>
    <line class="cls-2" x1="478.31" y1="241.02" x2="478.35" y2="243.94"/>
    <line class="cls-2" x1="481.98" y1="239.33" x2="480.13" y2="238.71"/>
    <path class="cls-2" d="M290.94,313.7c.07-.12.16-.22.27-.31.09-.07.25-.16.38-.11"/>
    <line class="cls-2" x1="292.85" y1="310.46" x2="301.79" y2="307.35"/>
    <path class="cls-2" d="M373.85,96.95s0,0,0,0h.01s.03,0,.05,0c.05,0,.11.01.16.02.07,0,.15,0,.22,0,.15,0,.29,0,.44-.01.29-.01.59-.04.88-.07"/>
    <path class="cls-2" d="M375.84,94.02c13.73-1.12,27.38-2.72,40.99-4.83"/>
    <line class="cls-2" x1="295.35" y1="311.4" x2="304.3" y2="308.28"/>
    <line class="cls-2" x1="292.85" y1="310.46" x2="295.35" y2="311.4"/>
    <path class="cls-2" d="M278.16,304.09c.54-25.54,5.38-51.41,13.33-75.61,7.97-24.24,19.42-47.9,33.98-68.92,3.73-5.39,7.67-10.61,11.85-15.67,2.01-2.43,4.07-4.82,6.19-7.15,2.1-2.32,4.25-4.59,6.45-6.8,9.02-9.07,19.05-17.36,29.95-24.11,5.66-3.5,11.59-6.61,17.75-9.17,5.71-2.37,11.61-4.27,17.66-5.56,6.53-1.39,13.19-2.07,19.88-1.86,6.18.19,12.28,1.14,18.21,2.9"/>
    <line class="cls-2" x1="278.41" y1="304" x2="278.16" y2="304.09"/>
    <line class="cls-2" x1="278.16" y1="304.09" x2="274.85" y2="302.85"/>
    <line class="cls-2" x1="305.14" y1="301.89" x2="305.14" y2="301.83"/>
    <line class="cls-2" x1="307.64" y1="302.82" x2="307.64" y2="302.75"/>
    <path class="cls-2" d="M274.85,302.85c.47-22.77,4.37-45.77,10.81-67.56,6.46-21.83,15.69-43.19,27.37-62.74,11.6-19.41,26.16-37.92,43.34-52.84,8.61-7.47,18.03-14.17,28.15-19.49,5.27-2.77,10.75-5.17,16.4-7.09,5.18-1.76,10.5-3.1,15.91-3.94"/>
    <path class="cls-2" d="M431.71,229.15c-2.71.51-5.17,2.13-7.1,3.97-1.98,1.88-3.63,4.18-4.91,6.58"/>
    <path class="cls-2" d="M432.22,228.24c-1.63-.25-3.27,0-4.79.57-1.52.57-2.93,1.45-4.18,2.46-2.5,2.04-4.54,4.76-6.04,7.57"/>
    <line class="cls-2" x1="466.08" y1="249.24" x2="474.75" y2="246.22"/>
    <line class="cls-2" x1="466.9" y1="234.98" x2="464.11" y2="235.94"/>
    <path class="cls-2" d="M305.14,301.83c.02-.77-.12-1.63-.54-2.31"/>
    <path class="cls-2" d="M458.75,236.66c1.2.4,2.66.59,3.92.61,1.22.03,2.75-.08,3.93-.49"/>
    <path class="cls-2" d="M307.64,302.75c.02-.63-.07-1.3-.32-1.89-.25-.59-.68-1.11-1.31-1.34"/>
    <line class="cls-2" x1="455.99" y1="234.22" x2="460.97" y2="235.89"/>
    <line class="cls-2" x1="458.24" y1="249.11" x2="453.27" y2="247.42"/>
    <path class="cls-2" d="M455.99,234.22c-1.2-.4-2.66-.58-3.91-.61-1.22-.03-2.75.08-3.92.49"/>
    <path class="cls-2" d="M450.13,247.37c.87-.3,2.28-.24,3.13.05"/>
    <path class="cls-2" d="M419.84,265.24c.88.87,1.91,1.54,3.08,1.95"/>
    <path class="cls-2" d="M336.49,424.89c-11.16-4.5-20.7-11.7-28.58-20.67-7.85-8.94-13.84-19.4-18.28-30.35-4.45-10.97-7.43-22.61-9.24-34.28-1.81-11.71-2.49-23.67-2.24-35.5"/>
    <path class="cls-2" d="M306.12,404.54c-12.39-13.4-20.35-30.5-25.09-47.75-4.79-17.44-6.55-35.95-6.18-53.94"/>
    <path class="cls-2" d="M306.12,404.54c-9.31-10.07-18.95-19.77-28.97-29.14"/>
    <path class="cls-2" d="M344.31,427.52c-2.58-.7-5.1-1.54-7.58-2.53"/>
    <path class="cls-2" d="M444.48,238.48c1.15,3.33,1.29,6.98.73,10.42-.56,3.45-1.83,6.85-3.7,9.8-1.86,2.95-4.39,5.57-7.51,7.25-3.12,1.68-6.69,2.33-10.21,1.51"/>
    <path class="cls-2" d="M419.6,265.99c.26.12.53.23.81.33"/>
    <path class="cls-2" d="M431.68,229.2c-3.1.63-5.86,2.68-7.92,4.89-2.14,2.29-3.84,5.07-5.09,7.92-1.25,2.87-2.1,5.99-2.43,9.1-.33,3.06-.17,6.38.82,9.35"/>
    <path class="cls-2" d="M436.85,229.73c1.82.84,3.42,2.06,4.72,3.58,1.3,1.52,2.26,3.28,2.91,5.17"/>
    <path class="cls-2" d="M439.38,239.93c-.96-.32-1.96-.29-2.91-.02-.95.27-1.83.77-2.6,1.37-1.54,1.2-2.78,2.87-3.67,4.58-.9,1.74-1.52,3.67-1.79,5.61-.26,1.89-.22,4,.43,5.84"/>
    <path class="cls-2" d="M432.23,228.23c-1.73-.29-3.45,0-5.06.63-1.6.63-3.07,1.59-4.37,2.7-2.59,2.22-4.67,5.17-6.15,8.2-1.51,3.06-2.55,6.45-2.98,9.83-.42,3.32-.3,6.97.83,10.19"/>
    <path class="cls-2" d="M412.14,257.42c-1.16-3.29-1.34-6.9-.82-10.3.52-3.42,1.74-6.8,3.55-9.75,1.8-2.94,4.26-5.57,7.3-7.31,1.51-.87,3.15-1.5,4.87-1.82,1.72-.33,3.47-.34,5.19-.01"/>
    <path class="cls-2" d="M414.51,259.78c.4,1.13.93,2.23,1.62,3.21"/>
    <path class="cls-2" d="M419.86,265.21c1.09,1.1,2.42,1.89,3.94,2.25"/>
    <line class="cls-2" x1="295.56" y1="302.65" x2="293.05" y2="301.71"/>
    <path class="cls-2" d="M375.1,94.05c.67-.05,1.35-.1,2.02-.13"/>
    <path class="cls-2" d="M519.35,156.89c-3.45-10.43-8.15-20.57-14.37-29.68-6.23-9.11-13.95-17.15-23.29-23.2-9.37-6.08-19.79-9.76-30.9-10.94-11.06-1.17-22.12.21-32.69,3.38"/>
    <path class="cls-2" d="M524.99,179.69c-1.1-6.35-2.53-12.59-4.37-18.77"/>
    <path class="cls-2" d="M493.5,169.82c4.67,9.43,7.71,19.7,9.53,30.01,1.83,10.35,2.46,20.98,2.17,31.46-.07,2.61-.2,5.21-.39,7.81-.19,2.62-.43,5.22-.72,7.83-.59,5.28-1.4,10.51-2.41,15.72-2,10.32-4.79,20.54-8.29,30.46-3.49,9.92-7.72,19.63-12.64,28.93-1.24,2.35-2.53,4.68-3.86,6.98-1.33,2.3-2.71,4.57-4.13,6.82-2.8,4.41-5.76,8.69-8.92,12.85-6.34,8.36-13.5,16.24-21.4,23.17-7.87,6.9-16.67,13-26.21,17.45"/>
    <path class="cls-2" d="M456.03,135.46c3.84,1.18,7.52,2.78,11,4.78,1.74,1,3.42,2.09,5.05,3.27,1.63,1.18,3.18,2.43,4.68,3.77,6.01,5.36,10.9,11.83,14.79,18.83"/>
    <path class="cls-2" d="M455.28,135.24c-.25-.08-.5-.16-.74-.24"/>
    <path class="cls-2" d="M356.6,327.42c1.42-.73,2.8-1.52,4.15-2.36,1.44-.89,2.84-1.83,4.21-2.82,2.98-2.15,5.77-4.48,8.45-6.99,5.06-4.74,9.64-10.07,13.72-15.66,2.02-2.77,3.92-5.62,5.72-8.54,1.85-3,3.57-6.06,5.19-9.19,1.59-3.07,3.06-6.19,4.43-9.37,1.38-3.21,2.65-6.45,3.81-9.75,2.31-6.58,4.16-13.24,5.54-20.07,1.37-6.79,2.27-13.73,2.59-20.65.32-6.91.08-13.94-.91-20.79-.52-3.65-1.25-7.24-2.24-10.79-.88-3.16-1.95-6.22-3.28-9.22"/>
    <line class="cls-2" x1="295.56" y1="302.65" x2="295.64" y2="302.14"/>
    <line class="cls-2" x1="293.05" y1="301.71" x2="291.26" y2="299.75"/>
    <path class="cls-2" d="M295.64,302.14s.02-.01.03-.02"/>
    <path class="cls-2" d="M439.58,391.16c.78.3,1.28.98,1.57,1.72.29.74.37,1.58.34,2.36"/>
    <path class="cls-2" d="M309.62,336.57c.84.32,1.41,1.03,1.74,1.82.33.79.45,1.69.43,2.54"/>
    <path class="cls-2" d="M295.41,313.06l-.02-.02"/>
    <path class="cls-2" d="M293.77,314.09c.54-.35,1.08-.7,1.62-1.05"/>
    <path class="cls-2" d="M278.08,376.28c-.5-.45-1-.9-1.49-1.36"/>
    <path class="cls-2" d="M347.1,388.53s-.01,0-.02,0"/>
    <path class="cls-2" d="M278.39,312.37c-.51-30.05,5.2-60.86,15.1-89.07,9.9-28.22,24.69-55.83,43.83-79"/>
    <path class="cls-2" d="M337.48,144.09c-19.19,23.23-34.02,50.93-43.95,79.22-9.92,28.29-15.65,59.19-15.14,89.32"/>
    <path class="cls-2" d="M337.48,144.09c8.31-10.04,17.62-19.45,27.83-27.58,10.16-8.1,21.48-15.13,33.61-19.99"/>
    <path class="cls-2" d="M420.11,130.55c-6.19,1.92-12.15,4.58-17.78,7.75-6.18,3.47-12.01,7.58-17.47,12.09-10.44,8.62-19.67,18.86-27.61,29.76-15.85,21.74-27.51,47.4-34.26,73.35-3.41,13.09-5.66,26.61-6.49,40.13-.43,6.99-.48,13.94-.09,20.93.37,6.6,1.11,13.11,2.33,19.61,1.3,6.96,3.14,13.86,5.63,20.5,1.17,3.11,2.47,6.15,3.93,9.13,1.4,2.84,2.93,5.59,4.62,8.27,1.94,3.06,4.05,5.96,6.4,8.71,2.24,2.63,4.64,5.06,7.26,7.32,4.97,4.28,10.53,7.71,16.64,10.11"/>
    <path class="cls-2" d="M410.62,391.69c-7.17,2.75-14.74,4.52-22.46,4.82-7.74.31-15.37-.86-22.61-3.69"/>
    <line class="cls-2" x1="290.94" y1="313.7" x2="292.85" y2="310.46"/>
    <path class="cls-2" d="M438.69,177.4c-1.85-.59-3.71-1.01-5.63-1.26-1.99-.26-3.97-.34-5.97-.26-4.39.18-8.69,1.13-12.8,2.6-3.69,1.32-7.23,3.06-10.58,5.08-3.74,2.25-7.28,4.87-10.59,7.71-6.28,5.39-11.86,11.69-16.7,18.36-2.41,3.32-4.64,6.73-6.72,10.26-2.14,3.62-4.11,7.32-5.92,11.12-7.08,14.82-11.85,31.27-13.53,47.65-.84,8.21-.92,16.61.01,24.83.49,4.33,1.26,8.58,2.38,12.79,1.01,3.81,2.32,7.57,3.97,11.15"/>
    <line class="cls-2" x1="295.39" y1="313.04" x2="295.35" y2="311.4"/>
    <path class="cls-2" d="M435.24,402.46c-.78-.3-1.28-.98-1.56-1.72-.28-.74-.37-1.57-.34-2.35"/>
    <path class="cls-2" d="M512.48,273.87c-.83-.28-1.36-1.01-1.65-1.78-.29-.78-.38-1.65-.34-2.47"/>
    <path class="cls-2" d="M516.14,198.84c-.88-.28-1.43-1.04-1.73-1.84-.31-.81-.4-1.72-.36-2.57"/>
    <line class="cls-2" x1="501.93" y1="194.29" x2="501.8" y2="194.25"/>
    <line class="cls-2" x1="305.1" y1="309.67" x2="295.41" y2="313.06"/>
    <path class="cls-2" d="M518.24,157.03c-2.74-7.47-6.17-14.74-10.4-21.5-4.02-6.42-8.77-12.39-14.31-17.59-11.59-10.88-25.73-17.51-41.66-18.9-7.62-.67-15.26-.09-22.73,1.46-7.76,1.62-15.29,4.28-22.44,7.66-6.58,3.12-12.87,6.86-18.83,11.03-6.77,4.74-13.14,10.06-19.11,15.77-11.21,10.72-21.12,22.94-29.69,35.83-8.58,12.92-15.98,26.76-22.09,41-12.13,28.25-19.85,59.51-21.32,90.33"/>
    <path class="cls-2" d="M427.66,414.68c-11.4,7.01-24.07,12.45-37.4,14.76-13.41,2.32-26.96,1.38-39.73-3.75"/>
    <line class="cls-2" x1="309.29" y1="302.78" x2="309.29" y2="302.85"/>
    <path class="cls-2" d="M350.54,425.69c-10.39-4.18-19.34-10.77-26.82-19-7.45-8.2-13.23-17.81-17.6-27.91-8.75-20.19-12.2-43-12.35-64.69"/>
    <path class="cls-2" d="M464.93,100.27c13.21,3.92,24.42,11.62,33.47,21.82,8.99,10.13,15.49,22.31,20,34.92"/>
    <path class="cls-2" d="M305.37,298.77c1.14-.4,2.27-.14,3.03.83.7.89.91,2.12.89,3.19"/>
    <line class="cls-2" x1="350.54" y1="425.69" x2="348.4" y2="424.83"/>
    <path class="cls-2" d="M345.89,428.68c-7.39-2.98-14.12-7.17-20.15-12.35-6.84-5.87-12.58-12.83-17.36-20.43-4.28-6.81-7.76-14.11-10.57-21.63-3.09-8.29-5.37-16.89-6.98-25.58-3.07-16.56-3.76-33.73-2.71-50.48.53-8.46,1.5-16.84,2.88-25.2,1.37-8.33,3.14-16.55,5.28-24.72,8.47-32.26,23.07-64.18,42.9-91.16,5.19-7.07,10.73-13.79,16.73-20.18,5.57-5.93,11.51-11.55,17.82-16.7,6.98-5.7,14.45-10.85,22.36-15.18,6.9-3.77,14.14-6.91,21.69-9.17"/>
    <path class="cls-2" d="M489.18,340.62c-.08,1.71-.7,3.5-1.68,4.9-.49.7-1.12,1.37-1.86,1.83-.73.45-1.63.72-2.5.4"/>
    <path class="cls-2" d="M485.46,336.55c.57-.22,1.2-.28,1.8-.06"/>
    <path class="cls-2" d="M417.78,95.9c14.77-4.42,30.35-5.32,45.39-.87"/>
    <path class="cls-2" d="M441.48,395.24c-.07,1.75-.73,3.59-1.74,5.01-.51.71-1.16,1.39-1.93,1.84-.75.45-1.69.71-2.57.37"/>
    <path class="cls-2" d="M437.64,391.22c.62-.24,1.3-.31,1.94-.06"/>
    <path class="cls-2" d="M386.76,416.47c-.06,1.8-.75,3.69-1.8,5.14-.53.73-1.21,1.41-2.01,1.87-.78.45-1.75.69-2.65.34"/>
    <path class="cls-2" d="M480.59,236.55c-1.42.49-3.26.62-4.73.59-1.51-.03-3.27-.25-4.71-.74"/>
    <line class="cls-2" x1="466.15" y1="234.73" x2="471.15" y2="236.4"/>
    <path class="cls-2" d="M382.75,412.43c.65-.25,1.38-.33,2.06-.06"/>
    <path class="cls-2" d="M339.02,397.29c-.05,1.84-.76,3.78-1.85,5.25-.55.74-1.25,1.44-2.07,1.89-.81.45-1.79.68-2.71.31"/>
    <line class="cls-2" x1="488.1" y1="233.95" x2="480.59" y2="236.55"/>
    <path class="cls-2" d="M334.86,393.14c.68-.26,1.43-.32,2.13-.05"/>
    <path class="cls-2" d="M307.5,336.6c.68-.24,1.42-.3,2.12-.03"/>
    <path class="cls-2" d="M313.76,261.93c-.05,1.86-.73,3.81-1.83,5.3-.55.75-1.26,1.45-2.09,1.9-.82.45-1.8.67-2.74.34"/>
    <path class="cls-2" d="M309.44,257.42c.65-.22,1.35-.26,2.02-.02"/>
    <path class="cls-2" d="M345.09,182.96c-.05,1.82-.7,3.74-1.77,5.22-.53.74-1.22,1.43-2.03,1.89-.8.45-1.76.69-2.69.38"/>
    <path class="cls-2" d="M340.83,178.3c.61-.19,1.25-.23,1.86-.02"/>
    <path class="cls-2" d="M396.55,127.17c-.06,1.77-.68,3.64-1.7,5.1-.51.73-1.17,1.41-1.95,1.87-.77.46-1.7.7-2.61.42"/>
    <path class="cls-2" d="M392.43,122.45c.56-.17,1.14-.2,1.71-.02"/>
    <path class="cls-2" d="M452.9,109.9c-.07,1.73-.66,3.54-1.64,4.97-.49.71-1.12,1.39-1.87,1.85-.74.46-1.64.72-2.53.45"/>
    <path class="cls-2" d="M448.95,105.22c.52-.16,1.07-.19,1.6-.03"/>
    <path class="cls-2" d="M518.29,187.38c.51-.17,1.06-.21,1.59-.05"/>
    <path class="cls-2" d="M518.37,266.79c-.08,1.68-.68,3.45-1.63,4.83-.48.69-1.09,1.36-1.81,1.81-.71.45-1.6.73-2.46.43"/>
    <path class="cls-2" d="M514.71,262.58c.54-.19,1.12-.24,1.68-.06"/>
    <path class="cls-2" d="M488.1,233.95c.4-.14.82-.17,1.23-.04"/>
    <path class="cls-2" d="M510.49,269.62c.07-1.41.5-2.87,1.18-4.1.64-1.16,1.69-2.45,3.03-2.93"/>
    <path class="cls-2" d="M521.98,191.75c-.08,1.67-.67,3.43-1.61,4.82-.47.69-1.08,1.36-1.79,1.81-.71.45-1.59.73-2.45.45"/>
    <path class="cls-2" d="M514.04,194.43c.07-1.42.5-2.89,1.18-4.13.64-1.16,1.71-2.47,3.07-2.92"/>
    <path class="cls-2" d="M494.71,129.66c.51-.16,1.04-.19,1.56-.04"/>
    <path class="cls-2" d="M498.5,134.21c-.08,1.69-.66,3.47-1.61,4.87-.48.7-1.09,1.37-1.81,1.83-.72.45-1.6.73-2.47.46"/>
    <path class="cls-2" d="M490.39,136.79c.06-1.44.5-2.93,1.19-4.19.65-1.18,1.74-2.5,3.13-2.94"/>
    <path class="cls-2" d="M444.52,112.46c.06-1.47.5-2.99,1.21-4.28.67-1.21,1.79-2.53,3.22-2.97"/>
    <path class="cls-2" d="M387.89,129.82c.05-1.5.5-3.05,1.23-4.36.69-1.23,1.84-2.57,3.3-3.01"/>
    <path class="cls-2" d="M336.22,185.78c.04-1.53.5-3.1,1.25-4.42.71-1.26,1.88-2.59,3.36-3.05"/>
    <path class="cls-2" d="M304.81,264.95c.04-1.53.51-3.12,1.26-4.44.72-1.26,1.89-2.59,3.36-3.09"/>
    <path class="cls-2" d="M311.79,340.92c-.05,1.86-.75,3.83-1.86,5.32-.56.75-1.27,1.45-2.1,1.9-.83.45-1.82.67-2.75.31"/>
    <path class="cls-2" d="M302.91,344.11c.04-1.52.51-3.1,1.26-4.41.72-1.26,1.88-2.58,3.33-3.09"/>
    <path class="cls-2" d="M330.36,400.56c.04-1.5.51-3.05,1.25-4.34.7-1.24,1.84-2.55,3.25-3.08"/>
    <path class="cls-2" d="M378.36,419.73c.05-1.47.51-2.98,1.23-4.25.68-1.21,1.78-2.51,3.16-3.04"/>
    <path class="cls-2" d="M433.34,398.39c.06-1.44.51-2.92,1.21-4.17.66-1.18,1.74-2.47,3.09-2.99"/>
    <path class="cls-2" d="M481.22,343.62c.06-1.42.51-2.88,1.19-4.12.65-1.17,1.7-2.45,3.04-2.96"/>
    <line class="cls-2" x1="490.61" y1="242.26" x2="490.84" y2="237.09"/>
    <path class="cls-2" d="M490.61,242.26c-.05,1.04-.37,2.11-.87,3.02-.47.85-1.25,1.8-2.24,2.14"/>
    <line class="cls-2" x1="480" y1="250.05" x2="487.5" y2="247.43"/>
    <path class="cls-2" d="M418.1,96.44c-8.53,2.56-16.67,6.24-24.36,10.69-9.09,5.26-17.57,11.59-25.39,18.58-6.95,6.2-13.42,12.97-19.42,20.09-6.48,7.7-12.45,15.88-17.89,24.35-20.7,32.26-34.79,70.46-40.22,108.37-2.74,19.07-3.39,38.8-1.16,58,1.15,9.89,3.09,19.77,5.98,29.31,2.73,8.99,6.33,17.79,11,25.97,5.02,8.82,11.29,16.95,18.95,23.69,6.99,6.15,14.93,10.94,23.74,14.04,9.23,3.25,18.86,4.45,28.59,3.86,9.72-.59,19.23-2.94,28.25-6.48"/>
    <path class="cls-2" d="M431.83,413.02c5.3-3.66,10.32-7.63,15.15-11.89"/>
    <path class="cls-2" d="M466.15,234.73c0,.17,0,.34,0,.51"/>
    <path class="cls-2" d="M470.57,249.9c1.45.49,3.2.71,4.71.74,1.46.03,3.31-.1,4.72-.59"/>
    <path class="cls-2" d="M295.41,313.06c.03,17.5,2.2,35.5,7.45,52.31,5.19,16.63,13.69,32.94,26.65,45.18,6.46,6.1,13.83,11,22.09,14.35,8.27,3.35,16.97,4.98,25.87,5,8.88.03,17.64-1.53,26.06-4.23,8.42-2.7,16.47-6.54,24.02-11.1"/>
    <line class="cls-2" x1="470.57" y1="249.9" x2="467.33" y2="248.81"/>
    <line class="cls-2" x1="345.89" y1="428.68" x2="336.73" y2="424.98"/>
    <line class="cls-2" x1="363.23" y1="398.21" x2="361.78" y2="397.64"/>
    <path class="cls-2" d="M294.07,301.02c2.49-47.98,20.07-98.21,47.9-137.34,3.64-5.11,7.46-10.06,11.52-14.84,1.95-2.3,3.94-4.55,5.99-6.76,2.03-2.19,4.1-4.33,6.23-6.42,8.71-8.57,18.38-16.4,28.86-22.75,5.44-3.3,11.13-6.21,17.03-8.6,5.47-2.22,11.13-3.99,16.92-5.18,6.25-1.29,12.61-1.89,18.99-1.66,5.91.21,11.74,1.13,17.42,2.82"/>
    <path class="cls-2" d="M499.09,184.07s.05-.07.08-.1"/>
    <path class="cls-2" d="M305.07,348.45c-.84-.32-1.4-1.03-1.73-1.82-.33-.79-.45-1.68-.43-2.53"/>
    <path class="cls-2" d="M328.36,364.39c.07-.03.13-.06.2-.09"/>
    <path class="cls-2" d="M412.34,257.95s.01-.03.02-.05"/>
    <line class="cls-2" x1="320.77" y1="343.93" x2="320.97" y2="344"/>
    <path class="cls-2" d="M409.15,134.8c-.03-.06-.07-.13-.1-.19"/>
    <path class="cls-2" d="M267.45,364.74c.12.06.24.12.35.19"/>
    <path class="cls-2" d="M511.16,158.42h0"/>
    <line class="cls-2" x1="469.4" y1="235.82" x2="466.6" y2="236.78"/>
    <path class="cls-2" d="M505.09,218.59s-.08-.01-.12-.02"/>
    <path class="cls-2" d="M419.58,265.98h0"/>
    <path class="cls-2" d="M412.4,390.98c-.58.24-1.17.47-1.76.7"/>
    <path class="cls-2" d="M446.86,117.16c-.95-.29-1.56-1.08-1.91-1.94-.35-.86-.46-1.84-.43-2.76"/>
    <path class="cls-2" d="M492.61,141.36c-.92-.28-1.5-1.07-1.83-1.9-.33-.84-.43-1.79-.39-2.68"/>
    <path class="cls-2" d="M519.76,161.02c2.26,6.99,3.98,14.18,5.22,21.42"/>
    <path class="cls-2" d="M390.3,134.56c-.95-.3-1.58-1.09-1.95-1.95-.37-.87-.49-1.86-.46-2.79"/>
    <path class="cls-2" d="M278.37,306.01s0,.01,0,.02"/>
    <path class="cls-2" d="M338.61,190.45c-.93-.31-1.55-1.08-1.92-1.93-.37-.86-.49-1.83-.47-2.74"/>
    <path class="cls-2" d="M307.11,269.47c-.89-.32-1.49-1.06-1.84-1.88-.35-.83-.48-1.76-.46-2.65"/>
    <path class="cls-2" d="M332.39,404.74c-.8-.32-1.33-1-1.64-1.76-.31-.76-.42-1.62-.39-2.42"/>
    <path class="cls-2" d="M431.14,412.32c6.39-4.14,12.46-8.83,18.16-13.86"/>
    <path class="cls-2" d="M380.3,423.81c-.78-.31-1.29-.98-1.58-1.72-.29-.74-.39-1.58-.36-2.36"/>
    <path class="cls-2" d="M387.94,94.18s0,0,0,0"/>
    <line class="cls-2" x1="398.97" y1="96.3" x2="398.97" y2="96.3"/>
    <path class="cls-2" d="M428.35,415.41c-7.09,4.62-14.63,8.65-22.53,11.75"/>
    <path class="cls-2" d="M520.66,160.92c1.8,6.08,3.2,12.21,4.28,18.46"/>
    <path class="cls-2" d="M349.11,95.31c8.68-.11,17.33-.56,25.99-1.25"/>
    <path class="cls-2" d="M349.11,95.31c-6.71.09-13.35,1.19-19.77,3.07"/>
    <line class="cls-2" x1="365.55" y1="392.82" x2="364.1" y2="392.25"/>
    <line class="cls-2" x1="480.21" y1="244.56" x2="482.02" y2="242.25"/>
    <line class="cls-2" x1="478.35" y1="243.94" x2="480.21" y2="244.56"/>
    <line class="cls-2" x1="478.35" y1="243.94" x2="480.21" y2="244.56"/>
    <path class="cls-2" d="M417.4,240.38c-.29-.1-.38-.45-.39-.71,0-.28.07-.58.2-.83"/>
    <path class="cls-2" d="M489.33,233.91c.63.21,1.02.75,1.25,1.32.22.58.29,1.24.26,1.85"/>
    <path class="cls-2" d="M361.96,96.43c-.13-.03-.26-.05-.4-.08"/>
    <path class="cls-2" d="M416.19,262.83c-.09-.49.14-1.12.53-1.43"/>
    <path class="cls-2" d="M418.15,243.3c-.26.66-.49,1.33-.7,2.01"/>
    <path class="cls-2" d="M419.58,265.98s.01,0,.02.01"/>
    <line class="cls-2" x1="453.67" y1="92.21" x2="463.17" y2="95.02"/>
    <path class="cls-2" d="M463.17,95.02c14.22,4.2,26.17,12.66,35.67,23.82,9.43,11.08,16.08,24.37,20.56,38.04"/>
    <line class="cls-2" x1="456.1" y1="129.33" x2="457.6" y2="129.78"/>
    <path class="cls-2" d="M450.55,105.19c.95.28,1.57,1.08,1.92,1.94.35.87.46,1.85.43,2.77"/>
    <path class="cls-2" d="M496.28,129.62c.92.28,1.51,1.07,1.84,1.9.33.84.43,1.8.39,2.69"/>
    <path class="cls-2" d="M519.88,187.33c.88.28,1.44,1.04,1.74,1.84.31.81.4,1.73.36,2.58"/>
    <path class="cls-2" d="M516.38,262.53c.84.28,1.36,1.01,1.65,1.78.29.78.38,1.66.34,2.48"/>
    <line class="cls-2" x1=".6" y1=".5" x2="277.71" y2="86.22"/>
    <path class="cls-2" d="M257.09,357.85c-9.3-7.58-19.04-14.68-29.27-20.99-2.56-1.58-5.14-3.1-7.76-4.57-2.62-1.47-5.27-2.89-7.95-4.25-2.68-1.36-5.39-2.65-8.13-3.88s-5.51-2.39-8.31-3.48"/>
    <line class="cls-2" x1="195.67" y1="320.68" x2=".5" y2="244.74"/>
    <path class="cls-2" d="M277.71,86.22c23.08,7.14,47.5,9.39,71.41,9.08"/>
    <path class="cls-2" d="M394.14,122.43c.95.3,1.59,1.09,1.95,1.95.37.87.49,1.86.46,2.8"/>
    <line class="cls-2" x1="479.83" y1="240.07" x2="479.85" y2="241.53"/>
    <path class="cls-2" d="M342.7,178.28c.93.31,1.56,1.08,1.93,1.93.37.86.49,1.83.47,2.75"/>
    <path class="cls-2" d="M479.61,241.44c.15-.44.24-.91.23-1.38"/>
    <line class="cls-2" x1="479.82" y1="239.1" x2="479.83" y2="240.07"/>
    <path class="cls-2" d="M478.34,243.26c.24-.16.43-.36.61-.58"/>
    <path class="cls-2" d="M311.46,257.39c.89.32,1.49,1.05,1.85,1.88.36.83.48,1.77.46,2.65"/>
    <path class="cls-2" d="M471.62,238.77c.24-.71.55-1.36.94-2"/>
    <path class="cls-2" d="M478.95,242.68c.29-.37.51-.8.66-1.23"/>
    <line class="cls-2" x1="479.85" y1="241.53" x2="478.95" y2="242.68"/>
    <line class="cls-2" x1="478.95" y1="242.68" x2="478.34" y2="243.44"/>
    <path class="cls-2" d="M479.83,240.07c0-.28-.04-.55-.13-.83"/>
    <path class="cls-2" d="M336.98,393.1c.8.32,1.34,1,1.65,1.76.31.76.42,1.62.39,2.43"/>
    <path class="cls-2" d="M384.81,412.37c.78.31,1.29.98,1.59,1.73.29.74.39,1.58.36,2.37"/>
    <path class="cls-2" d="M487.25,336.48c.8.29,1.31.99,1.59,1.74.28.75.37,1.6.33,2.4"/>
    <path class="cls-2" d="M276.59,374.92c-6.32-5.9-12.8-11.61-19.5-17.07"/>
    <path class="cls-2" d="M436.85,229.73c-.15-.07-.31-.14-.46-.19"/>
    <line class="cls-2" x1="454.53" y1="135" x2="456.03" y2="135.46"/>
    <path class="cls-2" d="M374,97.03s-.09-.05-.14-.07"/>
    <path class="cls-2" d="M389.26,93.72s-.06.04-.08.06"/>
    <path class="cls-2" d="M446.98,401.13c7.78-6.87,14.99-14.45,21.58-22.44"/>
    <line class="cls-2" x1="450.04" y1="91.14" x2="453.42" y2="92.14"/>
    <path class="cls-2" d="M416.83,89.19c11.11-1.72,22.35-1.26,33.21,1.95"/>
    <path class="cls-2" d="M432.1,260.97c.96.33,1.95.3,2.91.03.95-.27,1.83-.77,2.6-1.36,1.55-1.19,2.79-2.87,3.68-4.57.9-1.73,1.53-3.67,1.8-5.6.27-1.89.22-3.99-.41-5.84"/>
    <path class="cls-2" d="M428.84,257.32c.54,1.56,1.58,3.07,3.27,3.65"/>
    <path class="cls-2" d="M446.74,401.34c-4.75,4.19-9.68,8.1-14.88,11.71"/>
    <path class="cls-2" d="M501.68,193.17s-.07.04-.11.06"/>
    <path class="cls-2" d="M442.68,243.62c-.54-1.58-1.59-3.11-3.3-3.69"/>
    <line class="cls-2" x1="419.15" y1="240.97" x2="417.4" y2="240.38"/>
    <line class="cls-2" x1="445.18" y1="249.09" x2="450.13" y2="247.37"/>
    <line class="cls-2" x1="453.77" y1="234.98" x2="458.75" y2="236.66"/>
    <path class="cls-2" d="M453.77,234.98c-.85-.29-2.27-.35-3.14-.05"/>
    <path class="cls-2" d="M365.21,429.55c-.36,0-.71.01-1.07.02"/>
    <path class="cls-2" d="M512.21,264.7s.01-.04.02-.06"/>
    <path class="cls-2" d="M419.7,239.69c-.09.17-.15.34-.18.54"/>
    <line class="cls-2" x1="463.82" y1="99.95" x2="463.82" y2="99.95"/>
    <line class="cls-2" x1="450.64" y1="234.93" x2="443.98" y2="237.21"/>
    <line class="cls-2" x1="422.93" y1="267.2" x2="420.45" y2="266.33"/>
    <path class="cls-2" d="M466.08,249.24c-1.18.41-2.71.52-3.93.49-1.26-.03-2.71-.21-3.91-.62"/>
    <path class="cls-2" d="M460.97,235.89c.85.29,2.27.35,3.14.05"/>
    <line class="cls-2" x1="474.99" y1="332.05" x2="475.09" y2="332.08"/>
    <path class="cls-2" d="M395.77,142.2s.04.05.06.07"/>
    <path class="cls-2" d="M404.88,182.86c1.89,12.75,1.8,25.94.27,38.7-1.54,12.8-4.57,25.53-8.84,37.68-4.27,12.16-9.87,24-16.68,34.95-6.78,10.91-14.95,21.24-24.4,30.02"/>
    <line class="cls-2" x1="448.15" y1="234.1" x2="443.27" y2="235.77"/>
    <path class="cls-2" d="M333.23,423.57c-10.45-4.22-19.51-10.81-27.12-19.03"/>
    <line class="cls-2" x1="336.49" y1="424.89" x2="333.23" y2="423.57"/>
    <path class="cls-2" d="M376.74,401.71s-.06-.04-.09-.07"/>
    <path class="cls-2" d="M527.75,210.72c-.13-10.37-1-20.81-2.76-31.03"/>
    <path class="cls-2" d="M391.44,145.08s.06.1.1.15"/>
    <path class="cls-2" d="M423.74,385.19s.1.07.15.11"/>
    <line class="cls-2" x1="423.82" y1="385.14" x2="424.03" y2="385.22"/>
    <path class="cls-2" d="M438.87,127.31s0,0,0,.01"/>
    <path class="cls-2" d="M417.9,388.51c.04-.09.09-.18.14-.27"/>
    <path class="cls-2" d="M483.14,347.75c-.8-.29-1.3-.99-1.59-1.74-.28-.75-.37-1.6-.33-2.39"/>
    <path class="cls-2" d="M525.12,183.24c-1.29-7.5-3.09-14.96-5.49-22.2"/>
    <path class="cls-2" d="M448.7,398.98c-5.5,4.86-11.34,9.39-17.47,13.42"/>
    <path class="cls-2" d="M301.79,307.35c1.06-.37,1.9-1.33,2.43-2.24.55-.96.89-2.1.92-3.21"/>
    <path class="cls-2" d="M296.71,387.74c-7.57-13.28-12.4-28.2-15.17-43.11"/>
    <path class="cls-2" d="M304.3,308.28c1.06-.37,1.91-1.33,2.43-2.25.55-.96.89-2.1.92-3.22"/>
    <line class="cls-2" x1="304.51" y1="299.54" x2="295.56" y2="302.65"/>
    <path class="cls-2" d="M333.34,149.26s-.01,0-.02.01"/>
    <path class="cls-2" d="M295.64,302.14c-.52-.38-1.05-.75-1.57-1.13"/>
    <path class="cls-2" d="M406.17,426.88c7.75-3.05,15.17-6.99,22.15-11.51"/>
    <path class="cls-2" d="M309.29,302.85c-.03,1.39-.46,2.82-1.15,4.02-.66,1.15-1.71,2.35-3.04,2.81"/>
    <line class="cls-2" x1="295.67" y1="302.13" x2="305.37" y2="298.77"/>
    <path class="cls-2" d="M405.83,427.16c-9.52,3.74-19.59,6.16-29.87,6.58-10.31.42-20.46-1.18-30.07-5.06"/>
  </g>
  <g id="Make2D::可见线::正切线">
    <path class="cls-2" d="M410.79,391.4c.51-.2,1.02-.4,1.53-.61"/>
    <path class="cls-2" d="M480,250.05c-2.12,22.36-9.8,45.13-21.49,64.28-5.88,9.64-13.06,18.82-21.41,26.49-8.22,7.55-18.16,14.14-29.1,17.31"/>
    <path class="cls-2" d="M420.32,130.22c0,.13-.06.29-.21.33"/>
    <line class="cls-2" x1="304.51" y1="299.54" x2="305.37" y2="298.77"/>
    <path class="cls-2" d="M410.25,397.01c1.39-.54,2.77-1.11,4.14-1.71"/>
    <path class="cls-2" d="M410.62,391.69c.12-.05.16-.18.17-.29"/>
    <path class="cls-2" d="M456.85,129.56c8.51,2.74,16.04,7.41,22.48,13.55,6.42,6.12,11.52,13.47,15.49,21.33"/>
    <path class="cls-2" d="M442.68,243.62c.66-.66,1.26-1.46,1.63-2.34.36-.88.49-1.86.17-2.8"/>
    <line class="cls-2" x1="448.15" y1="234.1" x2="450.64" y2="234.93"/>
    <line class="cls-2" x1="453.77" y1="234.98" x2="455.99" y2="234.22"/>
    <line class="cls-2" x1="460.97" y1="235.89" x2="458.75" y2="236.66"/>
    <path class="cls-2" d="M438.79,127.31s-.03,0-.05,0"/>
    <line class="cls-2" x1="450.13" y1="247.37" x2="450.64" y2="234.93"/>
    <path class="cls-2" d="M463.82,99.95c-.37-.12-.73-.23-1.1-.34"/>
    <path class="cls-2" d="M361.16,324.81c9.13-8.72,17.05-18.91,23.63-29.63,6.61-10.77,12.07-22.37,16.26-34.28,2.11-5.99,3.89-12.05,5.36-18.23,1.47-6.17,2.61-12.38,3.4-18.68,1.57-12.49,1.76-25.39.09-37.9"/>
    <line class="cls-2" x1="453.27" y1="247.42" x2="453.77" y2="234.98"/>
    <line class="cls-2" x1="458.75" y1="236.66" x2="458.24" y2="249.11"/>
    <path class="cls-2" d="M376.79,395.86c-3.85-.61-7.61-1.62-11.24-3.04"/>
    <line class="cls-2" x1="434.5" y1="240.84" x2="442.68" y2="243.62"/>
    <path class="cls-2" d="M428.84,257.32c-1.93,1.89-4.73,3.12-7.35,3.52"/>
    <path class="cls-2" d="M375.62,96.91c-.05,0-.1.02-.15.03"/>
    <path class="cls-2" d="M456.03,135.46c3.73,1.15,7.31,2.7,10.71,4.62"/>
    <path class="cls-2" d="M376,96.88c-.18.02-.35.04-.53.06"/>
    <path class="cls-2" d="M406.59,330.91c.09-.07.19-.17.19-.3"/>
    <path class="cls-2" d="M593.02,262.55c-.01.19-.25.32-.39.37-.18.07-.36.12-.55.15"/>
    <path class="cls-2" d="M592.08,263.07c-.53.09-1.16.08-1.69,0-.28-.04-.55-.11-.82-.21-.13-.05-.26-.11-.38-.19-.1-.07-.23-.19-.22-.34"/>
    <path class="cls-2" d="M402.54,330.44c0,.08.02.15.07.21.07.09.15.16.24.21.16.1.33.17.51.22.36.11.72.17,1.09.2.37.03.74.02,1.1-.03.31-.04.77-.14,1.04-.35"/>
    <path class="cls-2" d="M483.38,242.71s0,0,0,0c0,0-.01,0-.02,0,0,0-.01,0-.02,0-.01,0-.03,0-.04-.01-.03,0-.05-.02-.08-.03"/>
    <line class="cls-2" x1="478.31" y1="241.01" x2="479.61" y2="241.44"/>
    <path class="cls-2" d="M476,240.24c.37.12.74.25,1.11.37"/>
    <path class="cls-2" d="M242.63,86.31c-5.44,1.54-10.7,3.69-15.71,6.29-5.67,2.94-11.04,6.47-16.08,10.39-9.48,7.39-17.87,16.27-25.08,25.83-14.39,19.1-24.78,41.87-30.47,65-.72,2.92-1.36,5.86-1.93,8.82-.57,2.94-1.06,5.88-1.48,8.84-.85,6-1.38,12-1.57,18.05-.38,11.98.6,24.18,3.36,35.89,1.44,6.1,3.37,12.11,5.87,17.86,2.3,5.28,5.09,10.37,8.43,15.08,3.67,5.18,7.97,9.86,12.96,13.81,4.48,3.55,9.41,6.42,14.75,8.5"/>
    <path class="cls-2" d="M277.71,86.22c-11.57-3.58-23.6-3.15-35.08.09"/>
    <line class="cls-2" x1="417.22" y1="238.84" x2="419.7" y2="239.69"/>
    <path class="cls-2" d="M364.1,392.25c.24.09.48.19.73.28"/>
    <path class="cls-2" d="M476,240.24c.39-1.14,1.01-2.27,1.83-3.16"/>
    <path class="cls-2" d="M375.1,94.05c.67-.05,1.35-.1,2.02-.13"/>
    <line class="cls-2" x1="483.86" y1="240.01" x2="490.61" y2="242.26"/>
    <path class="cls-2" d="M358.91,97.29c-.03-.07-.09-.16-.18-.15"/>
    <path class="cls-2" d="M278.08,376.28c-.5-.45-1-.9-1.49-1.36"/>
    <path class="cls-2" d="M414.66,395.85c-1.35.6-2.72,1.17-4.1,1.7"/>
    <path class="cls-2" d="M494.26,164.71c-4.92-9.76-11.6-18.74-20.36-25.52-8.83-6.85-19.07-10.89-30.22-11.81"/>
    <line class="cls-2" x1="407.06" y1="348.63" x2="407.32" y2="348.73"/>
    <path class="cls-2" d="M495.82,163.96c-4.03-7.78-9.2-15.02-15.67-21.01-6.49-6.02-14.05-10.56-22.56-13.16"/>
    <path class="cls-2" d="M407.07,348.82c.08-.03.17-.06.25-.09"/>
    <path class="cls-2" d="M413.91,394.31c-1.68.77-3.38,1.48-5.11,2.15"/>
    <line class="cls-2" x1="408.26" y1="93.04" x2="417.78" y2="95.9"/>
    <path class="cls-2" d="M291.6,313.28c.15,21.68,3.62,44.49,12.37,64.67,4.38,10.1,10.17,19.7,17.62,27.9,7.48,8.22,16.43,14.81,26.81,18.98"/>
    <path class="cls-2" d="M291.26,299.75c1.36-25.46,6.94-51.12,15.62-75.03,8.68-23.9,20.9-47.18,36.28-67.51,7.71-10.2,16.35-19.82,25.88-28.37,5.02-4.5,10.25-8.68,15.8-12.52,5.03-3.48,10.21-6.6,15.67-9.36,5.96-3.01,12.18-5.52,18.61-7.36,1.48-.43,2.98-.82,4.48-1.17,1.5-.35,3-.66,4.51-.93,3.02-.54,6.04-.92,9.1-1.13,12.96-.87,25.62,1.51,37.22,7.52"/>
    <line class="cls-2" x1="418.1" y1="96.44" x2="417.78" y2="95.9"/>
    <line class="cls-2" x1="406.17" y1="426.88" x2="405.83" y2="427.16"/>
    <line class="cls-2" x1="307.64" y1="302.75" x2="309.29" y2="302.78"/>
    <line class="cls-2" x1="307.64" y1="302.82" x2="309.29" y2="302.85"/>
    <line class="cls-2" x1="304.3" y1="308.28" x2="305.1" y2="309.67"/>
    <path class="cls-2" d="M410.56,397.55c0-.2-.11-.46-.31-.54"/>
    <path class="cls-2" d="M419.76,136.2c.22.07.33.34.32.54"/>
    <path class="cls-2" d="M417.94,135.2c0,.2.11.47.32.54"/>
    <path class="cls-2" d="M408.8,396.45c-.2-.08-.32-.34-.31-.54"/>
    <path class="cls-2" d="M358.37,330.45c-.11-.04-.22-.08-.33-.12"/>
    <path class="cls-2" d="M358.37,330.45c-.07.03-.15.05-.22.08"/>
    <path class="cls-2" d="M407.32,348.73c9.58-3.55,18.22-9.78,25.43-16.79,7.31-7.1,13.6-15.44,18.78-24.18,10.29-17.35,17.08-37.76,19.04-57.86"/>
    <path class="cls-2" d="M360.2,428.76c-12.09-2.38-22.93-7.86-32.22-15.87-9.23-7.96-16.41-17.97-21.82-28.75-5.43-10.81-9.17-22.53-11.57-34.34-2.41-11.84-3.54-24.03-3.65-36.09"/>
    <path class="cls-2" d="M408.8,396.45c-7.36,2.83-15.13,4.67-23.05,5.03-7.94.37-15.78-.76-23.25-3.57"/>
    <path class="cls-2" d="M350.66,391.33c3.9,2.81,8.09,5.13,12.57,6.88"/>
    <path class="cls-2" d="M410.56,397.55c-7.29,2.81-14.98,4.64-22.82,5.05-7.85.4-15.6-.64-23.01-3.34-7.07-2.57-13.42-6.49-19.01-11.49-6.13-5.48-11.12-12.05-15.13-19.17-3.72-6.62-6.6-13.73-8.77-20.99-2.3-7.69-3.84-15.65-4.75-23.62-.86-7.56-1.17-15.22-1-22.82.04-1.92.11-3.84.21-5.76.1-1.97.24-3.94.4-5.91.34-4.1.81-8.18,1.39-12.25,4.4-30.53,15.73-61.28,32.35-87.3,4.38-6.86,9.13-13.4,14.36-19.64,4.82-5.76,10.02-11.23,15.6-16.25,6.27-5.65,13.07-10.78,20.37-15.07,6.18-3.63,12.72-6.65,19.58-8.77"/>
    <line class="cls-2" x1="487.5" y1="247.43" x2="481.82" y2="245.51"/>
    <path class="cls-2" d="M420.32,130.22c7.26-2.25,14.82-3.46,22.45-3.25,7.65.22,15.07,1.86,22.06,5.03,6.97,3.16,13.13,7.67,18.43,13.15,5.3,5.47,9.64,11.8,13.13,18.53"/>
    <path class="cls-2" d="M498.23,167.45c4.55,9.8,7.51,20.41,9.25,31.03,1.74,10.67,2.3,21.61,1.93,32.39-.74,21.51-5.19,43.28-12.33,63.51-7.13,20.25-17.32,40-30.22,57.23-6.47,8.64-13.74,16.8-21.78,24.03-4.24,3.82-8.67,7.35-13.37,10.59-4.25,2.92-8.63,5.54-13.25,7.83"/>
    <line class="cls-2" x1="490.84" y1="237.09" x2="484.83" y2="235.08"/>
    <line class="cls-2" x1="498.5" y1="134.21" x2="491.82" y2="132.18"/>
    <line class="cls-2" x1="418.26" y1="135.74" x2="419.76" y2="136.2"/>
    <line class="cls-2" x1="386.76" y1="416.47" x2="380.6" y2="414.03"/>
    <line class="cls-2" x1="339.02" y1="397.29" x2="332.64" y2="394.77"/>
    <line class="cls-2" x1="313.76" y1="261.93" x2="306.8" y2="259.43"/>
    <line class="cls-2" x1="345.09" y1="182.96" x2="337.96" y2="180.6"/>
    <line class="cls-2" x1="396.55" y1="127.17" x2="389.43" y2="124.96"/>
    <line class="cls-2" x1="518.37" y1="266.79" x2="512.21" y2="264.7"/>
    <line class="cls-2" x1="452.9" y1="109.9" x2="445.96" y2="107.81"/>
    <line class="cls-2" x1="311.79" y1="340.92" x2="305.1" y2="338.37"/>
    <line class="cls-2" x1="521.98" y1="191.75" x2="515.58" y2="189.72"/>
    <line class="cls-2" x1="441.48" y1="395.24" x2="435.44" y2="392.92"/>
    <line class="cls-2" x1="489.18" y1="340.62" x2="483.12" y2="338.42"/>
    <path class="cls-2" d="M341.55,104.45c-4.9,2.52-9.55,5.38-14.06,8.54-4.96,3.48-9.64,7.25-14.13,11.32-8.53,7.73-16.25,16.42-23.14,25.62-13.73,18.36-24.55,39.36-32.12,60.94-7.57,21.58-12.25,44.74-12.98,67.66-.09,2.88-.12,5.76-.09,8.64.03,2.88.13,5.76.3,8.64.34,5.75.95,11.46,1.87,17.15,1.84,11.32,4.94,22.6,9.67,33.09"/>
    <path class="cls-2" d="M358.72,97.14c5.34-1.57,10.82-2.65,16.38-3.09"/>
    <path class="cls-2" d="M417.41,391.92c4.53-2.31,8.82-4.94,12.98-7.85,4.6-3.22,8.92-6.73,13.07-10.5,7.87-7.16,14.99-15.22,21.33-23.74,12.65-17,22.64-36.44,29.66-56.37,7.02-19.92,11.41-41.32,12.21-62.49.4-10.61-.11-21.37-1.76-31.87-1.65-10.46-4.47-20.92-8.84-30.62"/>
    <path class="cls-2" d="M350.87,391.47c8.48,5.66,18.02,8.83,28.19,9.43,10.1.59,20.08-1.39,29.43-4.98"/>
    <path class="cls-2" d="M376.79,395.86c-6.6-.81-12.9-2.77-18.78-5.88-6.25-3.31-11.73-7.75-16.44-12.99-4.38-4.88-8.03-10.38-11.02-16.19-3.24-6.28-5.74-12.96-7.61-19.76-3.61-13.08-5.01-26.94-4.85-40.44.08-6.54.52-13.02,1.28-19.51.83-7.06,2.04-14.02,3.6-20.96,5.91-26.24,17.06-52.34,32.54-74.44,4.07-5.82,8.44-11.35,13.19-16.63,4.39-4.88,9.03-9.44,14.04-13.69,5.58-4.74,11.58-9.03,17.96-12.64,5.47-3.09,11.23-5.68,17.24-7.55"/>
    <path class="cls-2" d="M417.94,135.2c8.03-2.5,16.44-3.67,24.88-2.96,8.48.72,16.49,3.32,23.76,7.75"/>
    <path class="cls-2" d="M418.26,135.74c-5.79,1.8-11.36,4.28-16.65,7.23-6.07,3.38-11.79,7.39-17.13,11.81-10.01,8.27-18.85,18.09-26.47,28.54-15.18,20.85-26.35,45.46-32.8,70.33-1.63,6.3-2.97,12.63-4.01,19.05-1.04,6.44-1.77,12.9-2.16,19.42-.77,12.91-.19,26.14,2.23,38.89,1.27,6.68,3.06,13.3,5.47,19.67,2.19,5.79,4.91,11.39,8.25,16.62,3.71,5.82,8.17,11.13,13.47,15.6,4.69,3.95,9.91,7.12,15.63,9.36"/>
    <path class="cls-2" d="M416.17,389.12c4.54-2.1,8.84-4.54,13.01-7.29,4.65-3.07,9.01-6.44,13.2-10.1,7.91-6.92,15.05-14.79,21.4-23.14,12.66-16.66,22.61-35.85,29.54-55.52,6.93-19.66,11.2-40.85,11.78-61.76.29-10.47-.35-21.11-2.19-31.44-1.83-10.29-4.89-20.56-9.58-29.97"/>
    <path class="cls-2" d="M491.37,166.2c-6.85-12.24-16.77-22.74-30.07-28.36-13.38-5.65-27.7-5.3-41.22-1.1"/>
    <path class="cls-2" d="M420.08,136.74c-6.53,2.03-12.75,4.92-18.63,8.38-6.94,4.08-13.4,8.97-19.37,14.35-5.31,4.79-10.26,10-14.84,15.48-4.97,5.95-9.49,12.17-13.66,18.7-15.82,24.77-26.6,54.06-30.79,83.13-1.09,7.56-1.74,15.12-1.91,22.76-.16,7.24.13,14.53.95,21.72.86,7.58,2.32,15.16,4.51,22.48,2.06,6.91,4.8,13.68,8.34,19.98,3.81,6.79,8.56,13.05,14.39,18.27,5.32,4.76,11.37,8.51,18.1,10.96,7.04,2.57,14.42,3.57,21.88,3.2,7.46-.37,14.77-2.11,21.72-4.77"/>
    <path class="cls-2" d="M403.88,359.16c-6.01,1.22-12.17,1.32-18.2-.06-6.28-1.44-11.92-4.37-16.8-8.53-4.52-3.85-8.19-8.57-11.1-13.7-3.23-5.7-5.54-11.93-7.13-18.25-3.01-12.02-3.54-24.88-2.44-37.12,1.1-12.38,3.9-24.71,8.02-36.41,4.12-11.69,9.69-23.07,16.57-33.39,3.63-5.45,7.68-10.67,12.12-15.49,3.99-4.33,8.34-8.37,13.04-11.93,5.28-4.01,11.05-7.45,17.25-9.9,5.39-2.13,11.1-3.48,16.93-3.68,6.12-.2,12.11.89,17.71,3.43,5.9,2.67,10.91,6.71,15.03,11.64"/>
    <path class="cls-2" d="M467.47,189.13c4.8,6.8,8.03,14.71,10.07,22.7,2.05,8.04,2.97,16.45,3.05,24.73"/>
    <path class="cls-2" d="M471.15,236.4c-.1-7.02-.86-14.13-2.48-20.98-1.61-6.81-4.11-13.56-7.78-19.59"/>
    <path class="cls-2" d="M458.48,192.22c-4.98-6.82-11.59-12.19-19.78-14.82"/>
    <line class="cls-2" x1="358.37" y1="330.45" x2="402.71" y2="347.01"/>
    <path class="cls-2" d="M418.18,393.52c4.62-2.3,9-4.92,13.24-7.85,4.66-3.22,9.05-6.72,13.26-10.51,8.01-7.21,15.26-15.34,21.71-23.95,12.86-17.17,23-36.85,30.11-57.03,3.58-10.16,6.45-20.62,8.53-31.19.52-2.62.98-5.25,1.4-7.89.42-2.66.79-5.32,1.1-7.99.64-5.39,1.06-10.79,1.25-16.22.37-10.75-.18-21.65-1.92-32.28-1.73-10.58-4.66-21.13-9.2-30.9"/>
    <path class="cls-2" d="M419.76,136.2c11.77-3.66,24.25-4.44,36.27-.74"/>
    <path class="cls-2" d="M462.72,99.62c-5.68-1.69-11.5-2.61-17.42-2.82-6.38-.23-12.74.37-18.99,1.65-5.79,1.19-11.44,2.96-16.91,5.17-5.9,2.39-11.59,5.3-17.03,8.59-10.48,6.34-20.15,14.16-28.86,22.72-2.13,2.09-4.2,4.23-6.23,6.42-2.05,2.21-4.04,4.47-5.99,6.76-4.06,4.79-7.89,9.73-11.53,14.85-27.82,39.1-45.39,89.3-47.86,137.25"/>
    <path class="cls-2" d="M348.4,424.83c.36.14.71.28,1.07.42"/>
    <path class="cls-2" d="M363.23,398.21c7.55,2.97,15.51,4.19,23.59,3.86,8.05-.33,15.95-2.18,23.43-5.06"/>
    <line class="cls-2" x1="408.8" y1="396.45" x2="410.25" y2="397.01"/>
    <path class="cls-2" d="M365.55,392.82c-5.73-2.24-10.95-5.41-15.64-9.37-5.3-4.47-9.77-9.8-13.48-15.62-3.33-5.23-6.05-10.84-8.24-16.63-2.41-6.37-4.19-12.99-5.46-19.68-2.41-12.75-2.99-25.98-2.21-38.88.39-6.52,1.12-12.97,2.16-19.42,1.04-6.42,2.38-12.76,4.01-19.06,6.45-24.88,17.63-49.5,32.81-70.35,7.62-10.46,16.46-20.28,26.47-28.56,5.35-4.42,11.07-8.44,17.13-11.82,5.29-2.95,10.86-5.43,16.65-7.23"/>
    <path class="cls-2" d="M378.22,349.43c8.05,3.03,16.56,2.94,24.71.72"/>
    <path class="cls-2" d="M276.59,374.92c-4.74-4.42-8.86-9.44-12.42-14.84-4.03-6.12-7.31-12.71-9.96-19.53-2.4-6.19-4.29-12.58-5.72-19.06-1.56-7.01-2.59-14.06-3.19-21.21-1.15-13.71-.7-27.67,1.02-41.3.87-6.91,2.06-13.74,3.56-20.53.74-3.36,1.55-6.7,2.44-10.03.88-3.29,1.82-6.56,2.84-9.81,8.14-26.04,21-51.56,37.99-73.06,8.51-10.77,18.27-20.8,29.19-29.2,5.79-4.45,11.93-8.47,18.41-11.86,5.74-3,11.75-5.51,17.98-7.35"/>
    <path class="cls-2" d="M496.62,168.21c4.39,9.74,7.23,20.22,8.89,30.73,1.66,10.54,2.17,21.34,1.78,31.99-.2,5.38-.63,10.74-1.27,16.08-.32,2.65-.69,5.29-1.11,7.92-.42,2.62-.88,5.22-1.4,7.82-2.07,10.48-4.93,20.84-8.47,30.91-7.05,20-17.08,39.52-29.78,56.58-6.37,8.55-13.52,16.64-21.42,23.82-4.15,3.78-8.48,7.28-13.08,10.5-4.19,2.94-8.52,5.58-13.08,7.91"/>
    <path class="cls-2" d="M454.53,135c-12.02-3.7-24.5-2.92-36.27.74"/>
    <path class="cls-2" d="M411.13,179.72c4.63,7.46,7.47,16.04,9.01,24.59,1.55,8.61,1.85,17.54,1.23,26.25"/>
    <path class="cls-2" d="M415.01,262.46c-4.68,14.32-11.81,28.32-21.1,40.25-4.65,5.97-9.97,11.57-15.87,16.35-5.87,4.75-12.51,8.81-19.66,11.39"/>
    <path class="cls-2" d="M414.51,259.78c-1.03-.46-1.97-1.23-2.36-2.35"/>
    <line class="cls-2" x1="464.11" y1="235.94" x2="466.6" y2="236.78"/>
    <line class="cls-2" x1="466.08" y1="249.24" x2="466.6" y2="236.78"/>
    <path class="cls-2" d="M375.47,96.94c-.44.05-.89.08-1.33.08-.16,0-.32,0-.48-.02-.12-.01-.23-.02-.35-.05-.28-.07-.35-.21-.11-.4.15-.13.35-.22.53-.3.29-.13.59-.24.9-.34,1.26-.42,2.9-.8,4.2-1.06,2.54-.52,5.98-1.05,8.56-1.33"/>
    <line class="cls-2" x1="307.64" y1="302.75" x2="305.14" y2="301.83"/>
    <path class="cls-2" d="M387.38,93.52c.42-.05.84-.09,1.26-.12.27-.02.54-.04.81-.03.07,0,.13,0,.2.02.03,0,.07.02.1.04.05.05-.08.12-.12.14-.16.1-.36.17-.53.23-.31.11-.62.22-.94.31-1.21.38-2.78.8-4.01,1.11-2.44.62-5.65,1.34-8.15,1.65"/>
    <line class="cls-2" x1="305.14" y1="301.89" x2="307.64" y2="302.82"/>
    <path class="cls-2" d="M386.73,94.54c0-.21.05-.44.16-.62.11-.19.27-.35.5-.4"/>
    <path class="cls-2" d="M382.88,95.55c-1.56.3-3.12.62-4.67.99"/>
    <line class="cls-2" x1="304.3" y1="308.28" x2="301.79" y2="307.35"/>
    <path class="cls-2" d="M592.08,263.07c-1.65,29.27-10.04,59.18-22.97,85.36-6.54,13.23-14.47,26.01-23.74,37.53-4.91,6.1-10.23,11.91-15.98,17.23-5.12,4.75-10.6,9.14-16.43,12.99-6.42,4.24-13.32,7.84-20.61,10.4-6.71,2.35-13.74,3.8-20.88,3.94-7.26.14-14.38-1.08-21.14-3.81-7.13-2.89-13.39-7.27-18.74-12.75-4.96-5.06-9.02-10.92-12.3-17.17-3.61-6.87-6.32-14.23-8.28-21.72-3.75-14.29-4.94-29.49-4.42-44.16"/>
    <path class="cls-2" d="M406.59,330.91c.26-7.26.93-14.45,1.98-21.63,1.14-7.84,2.71-15.56,4.69-23.23,3.78-14.63,9.05-29.03,15.62-42.64,6.56-13.58,14.58-26.7,23.99-38.52,4.99-6.27,10.42-12.24,16.28-17.71,5.2-4.86,10.79-9.35,16.74-13.28,6.7-4.42,13.92-8.15,21.56-10.72,3.41-1.14,6.84-2.04,10.38-2.67,3.49-.62,6.97-.95,10.52-.95,7.44-.02,14.7,1.4,21.53,4.4,7.2,3.16,13.44,7.85,18.73,13.6,4.92,5.35,8.91,11.5,12.09,18,3.48,7.09,6.03,14.67,7.85,22.33,3.47,14.67,4.37,30.21,3.52,45.18"/>
    <path class="cls-2" d="M477.11,240.62c.35-1.04.93-2.09,1.72-2.87.39-.39.85-.75,1.37-.96.52-.22,1.09-.3,1.65-.12.56.18.97.58,1.25,1.07.28.48.44,1.05.51,1.6.14,1.1-.03,2.29-.39,3.32"/>
    <path class="cls-2" d="M483.22,242.65c-.35,1.04-.93,2.09-1.72,2.87-.39.39-.85.75-1.37.96-.52.22-1.09.3-1.65.12s-.97-.58-1.25-1.07c-.28-.48-.44-1.05-.51-1.6-.14-1.1.03-2.29.39-3.32"/>
    <line class="cls-2" x1="471.62" y1="238.77" x2="476" y2="240.24"/>
    <path class="cls-2" d="M477.58,247.18c-.64-.21-1.11-.69-1.44-1.25-.32-.56-.5-1.21-.58-1.84-.16-1.27.04-2.64.45-3.84"/>
    <path class="cls-2" d="M408.49,395.92c1.74-.67,3.46-1.39,5.16-2.17"/>
  </g>
  <g id="_图层_4" data-name="图层 4">
    <polygon class="cls-4" points="357.03 212.29 422.18 237 408.61 272.21 342.19 247.13 357.03 212.29"/>
    <polygon class="cls-4" points="369.07 207.51 346.56 261.71 333.8 220.68 369.07 207.51"/>
  </g>
  <g id="_图层_6" data-name="图层 6">
    <polygon class="cls-3" points="433.82 243.95 432.23 243.42 431.29 244.98 430.57 246.31 430.12 247.21 429.43 249.6 428.8 254.02 571.32 295.3 575.29 284.25 433.82 243.95"/>
  </g>
  <g id="_图层_5" data-name="图层 5">
    <line class="cls-1" x1="432.23" y1="243.26" x2="575.29" y2="284.25"/>
    <line class="cls-1" x1="428.26" y1="254.31" x2="571.32" y2="295.3"/>
  </g>
</svg>