<?xml version="1.0" encoding="UTF-8"?>
<svg xmlns="http://www.w3.org/2000/svg" viewBox="0 0 589.67 469.93">
  <defs>
    <style>
      .cls-1 {
        stroke-miterlimit: 10;
      }

      .cls-1, .cls-2 {
        stroke: #000;
      }

      .cls-1, .cls-3 {
        fill: #fff;
      }

      .cls-4 {
        stroke: red;
        stroke-width: 3px;
      }

      .cls-4, .cls-2 {
        fill: none;
        stroke-linecap: round;
        stroke-linejoin: round;
      }

      .cls-5 {
        fill: #bfbfbf;
      }

      .cls-5, .cls-3 {
        stroke-width: 0px;
      }
    </style>
  </defs>
  <g id="_图层_4" data-name="图层 4">
    <ellipse class="cls-4" cx="387.07" cy="311.5" rx="131.98" ry="101.56" transform="translate(-76.23 490.96) rotate(-60)"/>
  </g>
  <g id="_图层_3" data-name="图层 3">
    <polygon class="cls-5" points="504.55 270.61 499.67 265.05 498.15 265.21 496.45 266.31 496.13 267.48 500.34 274.72 498.8 277.9 498.39 279.34 498.47 280.84 499.91 283.3 539.57 341.28 538.74 341.97 536.69 343.19 535.27 344.49 534.41 346.15 534.41 346.87 535.44 348.69 538.52 349.23 548.57 349.91 550.13 349.39 569.34 377.22 569.5 377.54 569.09 378.55 567.98 380.67 567.74 382.17 567.84 383.4 569.1 385.34 569.97 386.24 571.39 386.79 573.82 386.67 577.46 385.58 581.47 383.33 585.35 380.11 587.9 377.22 589.08 374.53 588.91 372.45 587.72 370.49 586.4 369.57 584.13 369.25 581.15 369.93 562.88 343.33 568.4 340.26 571.01 338.27 571.99 336.34 571.82 335.17 570.58 333.72 561.12 332.82 517.21 268.97 516 267.95 514.05 267.62 510.67 267.95 505.86 270.4 504.55 270.61"/>
  </g>
  <g id="Make2D::可见线::曲线">
    <path class="cls-2" d="M587.58,370.49c-.71-1.03-2.09-1.25-3.17-1.24-1.16,0-2.38.28-3.47.63"/>
    <line class="cls-2" x1="569.75" y1="377.63" x2="546.21" y2="343.19"/>
    <line class="cls-2" x1="557.53" y1="335.41" x2="581.15" y2="369.81"/>
    <path class="cls-2" d="M580.94,369.87c-3.16,1.01-6.38,3.02-8.81,5.23-1.23,1.12-2.46,2.47-3.33,3.91-.44.72-.83,1.53-1.02,2.36-.1.46-.15.93-.09,1.4.05.39.18.76.4,1.08"/>
    <path class="cls-2" d="M430.64,287.26c.83,1.69,1.35,3.51,1.59,5.37.24,1.86.19,3.75-.11,5.6-.6,3.7-2.2,7.23-4.55,10.15-1.18,1.46-2.54,2.77-4.07,3.86-1.52,1.09-3.2,1.97-4.98,2.56-1.78.59-3.65.9-5.53.86-1.88-.03-3.73-.41-5.48-1.12"/>
    <path class="cls-2" d="M354.16,152.9c1.01-.03,2.56-.28,3.55-.44,1.18-.2,2.35-.43,3.52-.67,1.17-.24,2.34-.49,3.5-.75.58-.13,1.16-.27,1.74-.41.4-.1.79-.19,1.19-.31.12-.03.25-.07.37-.11.06-.02.11-.04.17-.06"/>
    <path class="cls-2" d="M369.38,148.81c-21.08.23-41.59,6.73-59.72,16.93-9.11,5.13-17.69,11.22-25.61,18.04-3.98,3.42-7.78,7.02-11.43,10.79-3.64,3.76-7.09,7.66-10.38,11.72-13.16,16.21-23.59,34.79-30.59,54.47-6.97,19.62-10.64,40.68-9.84,61.59"/>
    <path class="cls-2" d="M221.81,322.34c.75,19.68,5.48,39.41,15.27,56.75"/>
    <line class="cls-2" x1="464.37" y1="297.86" x2="461.27" y2="296.14"/>
    <path class="cls-2" d="M498.8,281.54c-.5-.73-.59-1.6-.47-2.43"/>
    <line class="cls-2" x1="499.67" y1="265.05" x2="504.77" y2="270.86"/>
    <line class="cls-2" x1="539.7" y1="341.47" x2="498.8" y2="281.54"/>
    <path class="cls-2" d="M498.33,279.12c.28-1.94,1.69-3.9,2.94-5.24,1.36-1.47,3.01-2.79,4.72-3.82,1.68-1.02,3.65-1.92,5.6-2.33.97-.21,2.03-.31,3.03-.17.99.14,1.99.54,2.59,1.42"/>
    <line class="cls-2" x1="500.17" y1="275.22" x2="496.13" y2="267.48"/>
    <line class="cls-2" x1="517.21" y1="268.97" x2="561.12" y2="332.82"/>
    <path class="cls-2" d="M545.67,344.19c-.45.96-.86,2.37-.15,3.4"/>
    <line class="cls-2" x1="559.85" y1="332.7" x2="570.08" y2="333.61"/>
    <line class="cls-2" x1="552.24" y1="334.78" x2="537.92" y2="342.41"/>
    <path class="cls-2" d="M451.08,194.02c-9.57-4.89-19.91-7.78-30.59-8.77-10.67-.99-21.39-.07-31.79,2.37"/>
    <path class="cls-2" d="M406.84,314.23c-8.52,17.09-20.61,32.65-35.4,44.83"/>
    <path class="cls-2" d="M454.86,158.93c-11.66-5.78-24.21-9.19-37.14-10.38-12.92-1.19-25.92-.13-38.53,2.73"/>
    <path class="cls-2" d="M379.18,151.28c-7.37,1.67-14.6,3.96-21.62,6.77-7.59,3.03-14.92,6.67-21.96,10.8-13.56,7.97-26.03,17.8-37.15,28.89-22.2,22.14-39.42,49.69-49.84,79.23-1.31,3.71-2.51,7.44-3.6,11.21-1.09,3.76-2.07,7.54-2.93,11.36-1.75,7.72-3.03,15.47-3.82,23.35-1.55,15.61-1.12,31.51,1.76,46.98,2.88,15.46,8.2,30.45,16.35,43.99,4.2,6.97,9.11,13.48,14.73,19.38,5.25,5.5,11.05,10.41,17.37,14.63"/>
    <path class="cls-2" d="M325.17,150.64c-11.1,2.49-21.76,6.66-31.74,12.08-9.98,5.42-19.28,12.09-27.73,19.67-16.89,15.14-30.56,34.01-40.01,54.57-4.74,10.31-8.45,21.12-10.97,32.19-2.52,11.06-3.86,22.43-3.8,33.79.06,11.35,1.5,22.71,4.59,33.65,3.08,10.94,7.77,21.37,14.24,30.76"/>
    <path class="cls-2" d="M575.92,386.15c3.15-1.01,6.37-3.03,8.79-5.23,1.23-1.12,2.46-2.47,3.33-3.91.43-.72.82-1.53,1.01-2.36.1-.45.15-.93.09-1.4-.05-.39-.18-.76-.4-1.08"/>
    <path class="cls-2" d="M411.18,303.07c4.44-2.11,7.44-7.46,6.94-12.35"/>
    <path class="cls-2" d="M414.71,309.05c1.92,1.09,4.16,1.05,6.15.3,1.99-.74,3.72-2.15,5-3.8,1.3-1.66,2.22-3.66,2.61-5.74.38-2.05.26-4.29-.68-6.21"/>
    <path class="cls-2" d="M403.09,312c.41.31.83.59,1.27.84"/>
    <path class="cls-2" d="M426.01,281.64c-3.32-2.46-7.44-2.77-11.25-1.62-3.78,1.15-7.08,3.65-9.54,6.64-2.49,3.02-4.27,6.7-5.03,10.55-.75,3.78-.55,7.96,1.23,11.52"/>
    <path class="cls-2" d="M425.05,290.66c-1.93-1.08-4.16-1.01-6.15-.26-1.99.75-3.71,2.16-4.99,3.82-1.29,1.67-2.21,3.66-2.59,5.74-.38,2.05-.25,4.29.71,6.21"/>
    <path class="cls-2" d="M421.54,279.16c-3.54-1.39-7.4-.9-10.73.61-3.36,1.52-6.23,4.08-8.36,7.02-2.15,2.96-3.65,6.47-4.25,10.09-.59,3.57-.3,7.45,1.36,10.78"/>
    <path class="cls-2" d="M398.69,306.64c-.84-1.68-1.38-3.49-1.63-5.34-.26-1.86-.22-3.74.06-5.59.57-3.7,2.14-7.24,4.46-10.16,1.16-1.47,2.51-2.78,4.03-3.89,1.51-1.11,3.17-2,4.95-2.61,3.56-1.23,7.44-1.28,10.99.12"/>
    <path class="cls-2" d="M412.03,306.16c.6,1.2,1.5,2.22,2.68,2.9"/>
    <path class="cls-2" d="M401.42,308.73c1.3,2.61,3.37,4.69,6.11,5.82"/>
    <line class="cls-2" x1="247.88" y1="343.74" x2="249.34" y2="344.66"/>
    <path class="cls-2" d="M247.88,343.74c-.16-.1-.46-.34-.6-.46"/>
    <path class="cls-2" d="M247.72,356.21c.07-.1.15-.19.24-.26.07-.06.23-.16.33-.09"/>
    <path class="cls-2" d="M422.92,279.82c-.45-.25-.9-.47-1.38-.65"/>
    <path class="cls-2" d="M423.8,280.36c-.28-.19-.56-.37-.85-.53"/>
    <line class="cls-2" x1="249.78" y1="353.25" x2="260.1" y2="350.56"/>
    <path class="cls-2" d="M353.61,152.88c.12.02.43.02.55.02"/>
    <path class="cls-2" d="M353.74,152.93s-.08-.04-.12-.05"/>
    <path class="cls-2" d="M454.86,158.93c2.76,1.37,5.45,2.87,8.07,4.49"/>
    <path class="cls-2" d="M369.38,148.81c7.29-.08,14.69-.49,21.94-1.29"/>
    <line class="cls-2" x1="251.46" y1="354.32" x2="261.8" y2="351.63"/>
    <path class="cls-2" d="M237.32,346.43c-1-27.97,5-56.18,15.86-81.77,10.89-25.67,26.98-49.46,47.03-68.91,10.02-9.73,21.1-18.44,33.05-25.7,11.95-7.26,24.81-13.09,38.28-16.95,13.46-3.85,27.46-5.7,41.49-4.97,14.04.73,27.72,4.03,40.44,10.12"/>
    <line class="cls-2" x1="249.78" y1="353.25" x2="251.46" y2="354.32"/>
    <line class="cls-2" x1="263.72" y1="345.57" x2="263.72" y2="345.51"/>
    <path class="cls-2" d="M235.1,345.02c-.82-22.84,3.03-45.85,10.36-67.39,7.35-21.6,18.31-42.09,32.13-60.23,3.46-4.54,7.09-8.93,10.92-13.17,3.84-4.26,7.84-8.34,12.03-12.26,8.34-7.8,17.37-14.89,27-21.04,19.15-12.23,40.95-20.91,63.79-23.41"/>
    <path class="cls-2" d="M235.1,345.02c-4-7.83-8.44-15.35-13.29-22.68"/>
    <path class="cls-2" d="M424.7,280.8c-1.86-1.03-3.93-1.5-6.04-1.46-2.11.04-4.17.58-6.07,1.45-3.82,1.75-7.01,4.82-9.21,8.32"/>
    <path class="cls-2" d="M422.95,279.83c-1.86-1.03-3.93-1.5-6.04-1.46-2.11.04-4.17.58-6.07,1.44-3.82,1.74-7.01,4.81-9.21,8.31"/>
    <line class="cls-2" x1="406.13" y1="313.86" x2="404.39" y2="312.86"/>
    <line class="cls-2" x1="453.68" y1="299.61" x2="463.11" y2="297.16"/>
    <line class="cls-2" x1="456.63" y1="287.17" x2="453.65" y2="287.93"/>
    <line class="cls-2" x1="454.86" y1="286.19" x2="451.88" y2="286.96"/>
    <path class="cls-2" d="M453.68,299.61c-1.16.3-2.5.39-3.69.33-1.11-.06-2.58-.28-3.59-.84"/>
    <path class="cls-2" d="M448.97,286.75c.4.22,1,.31,1.44.33.48.02,1.01-.01,1.48-.13"/>
    <line class="cls-2" x1="445.43" y1="284.8" x2="448.97" y2="286.75"/>
    <path class="cls-2" d="M430.93,287.58s-.1.02-.15.02"/>
    <path class="cls-2" d="M401.86,310.88c-.17-.17-.23-.42-.21-.65.01-.23.1-.47.23-.66"/>
    <line class="cls-2" x1="430.74" y1="287.47" x2="430.93" y2="287.58"/>
    <line class="cls-2" x1="438.16" y1="284.3" x2="430.16" y2="286.35"/>
    <path class="cls-2" d="M401.86,310.88c.76.78,1.59,1.43,2.53,1.98"/>
    <path class="cls-2" d="M288.32,447.77c-16.57-11.07-29.17-26.53-37.66-44.36-8.48-17.81-12.63-37.41-13.33-56.97"/>
    <path class="cls-2" d="M246.94,398.68c-7.48-16.91-11.18-35.3-11.85-53.67"/>
    <path class="cls-2" d="M246.94,398.68c-2.94-6.66-6.29-13.26-9.87-19.6"/>
    <path class="cls-2" d="M296.37,452.62c-2.7-1.46-5.32-3.04-7.88-4.74"/>
    <path class="cls-2" d="M299.72,405.29c.38.01.77.02,1.15.03"/>
    <path class="cls-2" d="M368.07,150.21c-.4-.09-.8-.17-1.2-.26"/>
    <path class="cls-2" d="M461.27,296.14c-1.06-.59-1.67-1.66-1.88-2.8-.21-1.15-.04-2.36.37-3.43"/>
    <line class="cls-2" x1="265.42" y1="346.63" x2="265.42" y2="346.57"/>
    <path class="cls-2" d="M471.6,294.1c-.54,1.41-1.54,2.7-2.85,3.49-1.31.78-2.95,1.05-4.37.27"/>
    <path class="cls-2" d="M469.92,287.73c1.09.6,1.75,1.67,2,2.84.25,1.18.09,2.42-.33,3.53"/>
    <path class="cls-2" d="M263.72,345.51c-.02-.73-.23-1.45-.68-2.04"/>
    <path class="cls-2" d="M265.42,346.57c-.03-1.07-.48-2.13-1.43-2.73"/>
    <line class="cls-2" x1="467.8" y1="295.79" x2="469.86" y2="293.66"/>
    <line class="cls-2" x1="466.26" y1="294.94" x2="467.8" y2="295.79"/>
    <line class="cls-2" x1="465.55" y1="295.17" x2="467.8" y2="295.79"/>
    <line class="cls-2" x1="465.35" y1="292.42" x2="465.55" y2="295.17"/>
    <line class="cls-2" x1="467.4" y1="290.3" x2="465.35" y2="292.42"/>
    <line class="cls-2" x1="469.66" y1="290.92" x2="467.4" y2="290.3"/>
    <path class="cls-2" d="M545.87,343.78c.23-.02.45-.06.68-.1"/>
    <path class="cls-2" d="M534.41,347.22c-.32-.47-.14-1.1.06-1.54.22-.48.56-.93.91-1.32.7-.78,1.62-1.46,2.53-1.95"/>
    <path class="cls-2" d="M561.9,336.34c-.21-.31-.5-.54-.83-.71-.41-.21-.87-.31-1.32-.36-.82-.08-1.68.02-2.47.2-1.58.35-3.2,1.06-4.59,1.86-1.42.81-2.8,1.82-4,2.94-1.15,1.08-2.34,2.46-3.02,3.92"/>
    <line class="cls-2" x1="251.19" y1="346.2" x2="249.5" y2="345.14"/>
    <path class="cls-2" d="M542.47,339.99s0,.02-.01.03"/>
    <line class="cls-2" x1="251.19" y1="346.2" x2="250.83" y2="345.79"/>
    <path class="cls-2" d="M535.51,344.19c.07-.15.25-.29.39-.35"/>
    <path class="cls-2" d="M541.69,340.27c.1.04.2.07.31.08"/>
    <line class="cls-2" x1="249.5" y1="345.14" x2="247.28" y2="343.28"/>
    <path class="cls-2" d="M250.83,345.79s.01,0,.02-.01"/>
    <path class="cls-2" d="M496.17,266.77c.21-.48.66-.92,1.06-1.21.41-.31.95-.58,1.46-.69"/>
    <path class="cls-2" d="M552.24,334.78c1.16-.62,2.41-1.16,3.68-1.55,1.22-.37,2.64-.65,3.93-.53"/>
    <path class="cls-2" d="M251.19,355.91s-.02-.01-.02-.02"/>
    <line class="cls-2" x1="266.92" y1="346.68" x2="266.92" y2="346.74"/>
    <path class="cls-2" d="M448.82,199.13c11.05,5.68,20.4,13.82,27.77,23.78,3.59,4.85,6.65,10.06,9.21,15.53,1.32,2.82,2.49,5.68,3.54,8.61,1.07,2.98,1.99,6,2.79,9.06,1.52,5.85,2.56,11.83,3.15,17.85.3,3.1.49,6.2.57,9.31.08,3.15.04,6.28-.1,9.43-.57,12.28-2.78,24.49-6.35,36.24-3.57,11.76-8.51,23.13-14.61,33.78-6.1,10.65-13.41,20.68-21.74,29.71-8.33,9.02-17.74,17.11-28.05,23.82-10.29,6.69-21.52,12.03-33.36,15.39"/>
    <path class="cls-2" d="M333.63,379.9s-.03,0-.05.01"/>
    <path class="cls-2" d="M419.36,275.91c-.14.86-.3,1.73-.46,2.58"/>
    <path class="cls-2" d="M419.18,278.53c.69-8.39.25-16.97-1.63-25.21-1.88-8.21-5.22-16.16-10.35-22.94"/>
    <path class="cls-2" d="M348.68,369.43c6.73-1.81,13.2-4.65,19.2-8.17,6.02-3.53,11.63-7.78,16.73-12.53,2.56-2.38,4.99-4.88,7.3-7.5,2.31-2.62,4.49-5.34,6.54-8.16,4.1-5.64,7.69-11.68,10.68-17.97"/>
    <path class="cls-2" d="M423.57,431.88c1.01-.29,2.12-.24,3.05.33"/>
    <path class="cls-2" d="M364.68,453.95c.03,2.01-.99,4.03-2.47,5.32-.75.66-1.66,1.17-2.65,1.38-.99.21-2.03.1-2.91-.47"/>
    <path class="cls-2" d="M359.73,450.11c1.08-.31,2.25-.25,3.23.38"/>
    <path class="cls-2" d="M307.33,434.96c.05,2.07-1,4.13-2.54,5.45-.78.67-1.72,1.18-2.74,1.38-1.02.2-2.09.06-2.98-.53"/>
    <line class="cls-2" x1="447.76" y1="198.58" x2="448.82" y2="199.13"/>
    <path class="cls-2" d="M480.47,382.44c1.29.75,1.8,2.22,1.8,3.6"/>
    <path class="cls-2" d="M426.61,432.21c1.22.76,1.72,2.15,1.73,3.49"/>
    <path class="cls-2" d="M511.51,313.82c.66.36,1.15.93,1.47,1.61.31.67.44,1.42.44,2.15"/>
    <path class="cls-2" d="M424.43,164.43c.76.39,1.35,1.01,1.73,1.77.38.75.55,1.6.56,2.43"/>
    <path class="cls-2" d="M302.19,431.02c1.13-.31,2.35-.24,3.36.42"/>
    <path class="cls-2" d="M266.77,378.01c1.14-.3,2.37-.22,3.4.44"/>
    <path class="cls-2" d="M269.83,308.79c.06,2.1-.96,4.21-2.52,5.56-.79.68-1.74,1.2-2.78,1.4-1.04.2-2.12.07-3.04-.5"/>
    <path class="cls-2" d="M246.21,392.52l-.23-.29"/>
    <path class="cls-2" d="M388.7,187.62c-12.37,2.9-24.18,7.93-35.06,14.41-10.9,6.49-20.91,14.48-29.84,23.47-4.45,4.48-8.6,9.18-12.51,14.13-1.99,2.52-3.9,5.08-5.74,7.71-1.85,2.63-3.62,5.31-5.32,8.04-6.69,10.76-12.23,22.28-16.4,34.24s-7.01,24.46-8.23,37.09c-.31,3.22-.51,6.44-.61,9.67-.09,3.2-.08,6.39.05,9.59.25,6.28.94,12.47,2.12,18.65,2.38,12.46,6.74,24.56,13.4,35.43,3.36,5.48,7.27,10.6,11.74,15.23,4.35,4.52,9.18,8.53,14.45,11.95"/>
    <path class="cls-2" d="M391.62,431.61c-11.93,3.39-24.43,4.73-36.83,3.36-3.09-.34-6.14-.85-9.17-1.53-3.03-.68-6-1.53-8.94-2.56-5.87-2.05-11.45-4.78-16.67-8.16"/>
    <path class="cls-2" d="M264.47,304.5c1.11-.28,2.3-.18,3.31.43"/>
    <path class="cls-2" d="M302.31,235.64c.05,2.06-.91,4.15-2.43,5.51-.76.68-1.7,1.21-2.71,1.43-1.02.22-2.08.11-3-.42"/>
    <path class="cls-2" d="M427.36,236.24c-4.26-2.28-8.79-3.9-13.51-4.89-4.94-1.04-9.99-1.35-15.03-1.05-9.87.6-19.46,3.57-28.2,8.02-8.78,4.47-16.77,10.46-23.74,17.37-3.48,3.45-6.69,7.1-9.67,10.99-3.03,3.95-5.77,8.06-8.25,12.37-2.48,4.31-4.65,8.73-6.54,13.32-1.87,4.55-3.42,9.17-4.66,13.92-2.47,9.49-3.63,19.42-3.1,29.25.53,9.79,2.77,19.57,7.18,28.42,1.15,2.29,2.42,4.5,3.85,6.62,1.39,2.07,2.9,4.02,4.56,5.87,3.21,3.6,6.88,6.72,10.98,9.27"/>
    <path class="cls-2" d="M297,231.2c1.05-.25,2.15-.16,3.11.38"/>
    <path class="cls-2" d="M474.72,392.24c-1.28-.75-1.79-2.21-1.79-3.58"/>
    <path class="cls-2" d="M420.57,441.9c-1.21-.76-1.71-2.14-1.72-3.48"/>
    <path class="cls-2" d="M360.31,184.08c.03,2.01-.88,4.04-2.33,5.4-.73.68-1.63,1.22-2.61,1.46-.99.24-2.02.16-2.94-.33"/>
    <path class="cls-2" d="M263.99,343.84c-.74-.47-1.62-.53-2.45-.32"/>
    <path class="cls-2" d="M299.24,449.93c-15.36-10.23-27.25-24.35-35.52-40.7-8.26-16.32-12.67-34.34-13.96-52.45"/>
    <path class="cls-2" d="M519.42,311.76c-2.36,12.39-5.95,24.56-10.61,36.27-2.35,5.91-4.96,11.69-7.84,17.36-2.84,5.59-5.91,11.03-9.24,16.35-13.32,21.3-30.65,40.47-51.02,55.32-10.19,7.43-21.18,13.8-32.79,18.74-11.6,4.93-23.83,8.42-36.36,10.02-12.53,1.59-25.24,1.26-37.64-1.36-12.41-2.63-24.12-7.48-34.69-14.52"/>
    <path class="cls-2" d="M462.03,167.29c20.1,10,35.55,26.21,45.75,45.94,10.17,19.65,14.67,41.78,14.86,63.64"/>
    <path class="cls-2" d="M355.14,179.57c.97-.22,1.98-.15,2.88.33"/>
    <path class="cls-2" d="M294.73,452.05c-6.34-4.24-12.16-9.16-17.41-14.68-5.63-5.92-10.55-12.45-14.75-19.46-8.15-13.58-13.45-28.62-16.31-44.12-2.86-15.51-3.27-31.45-1.69-47.1.8-7.89,2.09-15.65,3.85-23.39.87-3.82,1.86-7.61,2.95-11.38,1.1-3.78,2.3-7.52,3.61-11.23,10.47-29.6,27.73-57.21,49.99-79.41,11.14-11.12,23.63-20.98,37.22-28.97,7.05-4.15,14.4-7.8,22-10.85,7.03-2.82,14.26-5.11,21.65-6.8"/>
    <path class="cls-2" d="M482.72,192.3c0,1.9-.86,3.83-2.21,5.15-.68.66-1.51,1.2-2.44,1.46-.93.26-1.92.23-2.8-.22"/>
    <path class="cls-2" d="M477.93,187.94c.87-.21,1.79-.15,2.61.26"/>
    <path class="cls-2" d="M385.84,154.67c12.63-2.88,25.64-3.95,38.58-2.77,12.95,1.18,25.52,4.6,37.19,10.38"/>
    <path class="cls-2" d="M475.44,286.13c.67-.17,1.38-.14,2,.2"/>
    <line class="cls-2" x1="478.87" y1="293.98" x2="478.88" y2="289.13"/>
    <path class="cls-2" d="M478.87,293.98c0,1.05-.38,2.1-.97,2.95-.59.84-1.46,1.57-2.48,1.84"/>
    <path class="cls-2" d="M457.82,300.47c1.22.67,2.99.94,4.32,1.01,1.43.07,3.04-.04,4.44-.4"/>
    <path class="cls-2" d="M466.58,288.42c-1.4.36-3.01.47-4.45.4-1.33-.07-3.11-.34-4.33-1.01"/>
    <line class="cls-2" x1="454.25" y1="285.86" x2="457.8" y2="287.81"/>
    <line class="cls-2" x1="466.58" y1="301.08" x2="475.42" y2="298.77"/>
    <line class="cls-2" x1="475.44" y1="286.13" x2="466.58" y2="288.42"/>
    <path class="cls-2" d="M454.25,285.86c.01.16.02.32.03.48"/>
    <line class="cls-2" x1="457.82" y1="300.47" x2="455.45" y2="299.15"/>
    <line class="cls-2" x1="294.73" y1="452.05" x2="288.48" y2="447.88"/>
    <path class="cls-2" d="M288.48,447.88c1.04.7,2.09,1.37,3.16,2.03"/>
    <line class="cls-2" x1="460.46" y1="166.51" x2="462.03" y2="167.29"/>
    <line class="cls-2" x1="299.24" y1="449.93" x2="297.78" y2="448.96"/>
    <path class="cls-2" d="M263.69,388.5c-1.25-.81-1.83-2.22-1.88-3.64"/>
    <path class="cls-2" d="M419.08,175.11c-.76-.39-1.33-1.01-1.71-1.76-.38-.75-.55-1.59-.55-2.42"/>
    <path class="cls-2" d="M475.28,198.7c-.74-.38-1.3-.99-1.66-1.73-.36-.73-.52-1.55-.51-2.36"/>
    <path class="cls-2" d="M506.55,253.35c-.7-.37-1.23-.96-1.56-1.67-.34-.7-.48-1.49-.47-2.26"/>
    <path class="cls-2" d="M506.01,323.81c-.66-.36-1.14-.93-1.46-1.6-.31-.67-.44-1.41-.44-2.14"/>
    <path class="cls-2" d="M352.43,190.61c-.75-.4-1.32-1.02-1.7-1.76-.38-.74-.56-1.57-.57-2.4"/>
    <path class="cls-2" d="M294.16,242.16c-1.47-.84-2.14-2.45-2.19-4.04"/>
    <path class="cls-2" d="M261.49,315.25c-1.35-.83-1.99-2.34-2.03-3.84"/>
    <path class="cls-2" d="M508.8,313.56c.9-.24,1.86-.2,2.71.27"/>
    <path class="cls-2" d="M513.42,317.58c-.01,1.88-.9,3.78-2.24,5.06-.67.65-1.5,1.18-2.42,1.43-.92.25-1.9.21-2.75-.26"/>
    <path class="cls-2" d="M504.11,320.07c0-1.42.52-2.85,1.33-4,.8-1.14,1.98-2.14,3.36-2.51"/>
    <path class="cls-2" d="M509.26,242.85c.87-.22,1.8-.17,2.61.25"/>
    <path class="cls-2" d="M513.92,247.04c-.01,1.88-.87,3.78-2.2,5.08-.67.65-1.49,1.19-2.41,1.45-.92.26-1.89.23-2.76-.22"/>
    <path class="cls-2" d="M504.51,249.42c0-1.44.52-2.89,1.33-4.05.8-1.15,2-2.16,3.41-2.52"/>
    <path class="cls-2" d="M473.11,194.61c0-1.47.51-2.94,1.34-4.13.82-1.17,2.04-2.2,3.48-2.54"/>
    <path class="cls-2" d="M421.73,164.15c.91-.21,1.85-.14,2.7.28"/>
    <path class="cls-2" d="M426.71,168.63c.01,1.95-.86,3.93-2.25,5.27-.7.67-1.56,1.21-2.51,1.47-.96.25-1.96.2-2.86-.25"/>
    <path class="cls-2" d="M416.81,170.93c-.01-1.49.5-3,1.35-4.21.84-1.2,2.09-2.23,3.57-2.57"/>
    <path class="cls-2" d="M350.15,186.44c-.03-1.52.49-3.05,1.35-4.28.86-1.22,2.14-2.25,3.63-2.59"/>
    <path class="cls-2" d="M291.98,238.12c-.04-1.53.48-3.07,1.36-4.31.87-1.23,2.16-2.25,3.67-2.61"/>
    <path class="cls-2" d="M259.46,311.41c-.05-1.53.48-3.07,1.36-4.3.87-1.22,2.16-2.24,3.66-2.61"/>
    <path class="cls-2" d="M261.81,384.86c-.05-1.51.49-3.03,1.36-4.24.86-1.21,2.13-2.21,3.6-2.6"/>
    <path class="cls-2" d="M297.31,437.76c-.04-1.49.5-2.97,1.35-4.16.85-1.18,2.09-2.18,3.52-2.58"/>
    <path class="cls-2" d="M354.94,456.74c-.03-1.46.51-2.92,1.34-4.08.83-1.16,2.04-2.15,3.44-2.55"/>
    <path class="cls-2" d="M428.34,435.71c.01,1.95-.97,3.91-2.38,5.2-.72.65-1.6,1.17-2.55,1.39-.96.22-1.97.14-2.84-.4"/>
    <path class="cls-2" d="M418.85,438.43c-.01-1.43.52-2.87,1.33-4.02.81-1.14,2-2.13,3.38-2.53"/>
    <path class="cls-2" d="M477.61,382.15c.95-.27,1.98-.22,2.86.29"/>
    <path class="cls-2" d="M482.27,386.04c0,1.9-.93,3.83-2.3,5.11-.69.65-1.54,1.17-2.47,1.41-.93.24-1.93.18-2.78-.32"/>
    <path class="cls-2" d="M299.08,441.26c-1.19-.79-1.73-2.15-1.76-3.5"/>
    <path class="cls-2" d="M356.65,460.18c-1.18-.77-1.69-2.12-1.71-3.44"/>
    <line class="cls-2" x1="250.85" y1="345.77" x2="262.07" y2="342.87"/>
    <path class="cls-2" d="M266.92,346.74c.04,1.38-.44,2.77-1.24,3.87-.79,1.1-1.95,2.02-3.29,2.37"/>
    <line class="cls-2" x1="262.39" y1="352.99" x2="251.19" y2="355.91"/>
    <path class="cls-2" d="M386.09,155.21c-9.14,2.08-18.03,5.1-26.6,8.89-9.57,4.23-18.71,9.41-27.33,15.33-16.35,11.23-30.85,25.15-43.09,40.7-12.25,15.56-22.36,32.91-29.86,51.24-3.89,9.5-7.09,19.29-9.52,29.27-2.27,9.3-3.87,18.77-4.72,28.3-1.76,19.66-.34,39.81,5.2,58.89,5.54,19.06,15.15,36.84,29.31,51.07,14.21,14.28,31.87,23.81,51.57,27.95,19.61,4.12,39.78,2.6,58.82-2.92"/>
    <path class="cls-2" d="M523.87,278.65c.12-9.01-.47-18.03-1.85-26.94-1.37-8.9-3.53-17.68-6.57-26.17-6.07-17.01-15.59-32.66-28.77-45.22-13.22-12.6-29.25-21.24-47.02-25.44-17.7-4.18-35.99-3.69-53.58.32"/>
    <path class="cls-2" d="M355.54,148.35c4.47.35,8.94.48,13.42.44"/>
    <path class="cls-2" d="M355.54,148.35c-10.19-.81-20.42.06-30.37,2.29"/>
    <line class="cls-2" x1="251.17" y1="355.9" x2="251.46" y2="354.32"/>
    <line class="cls-2" x1="247.72" y1="356.21" x2="249.78" y2="353.25"/>
    <path class="cls-2" d="M249.75,356.78c.47-.3.94-.59,1.41-.89"/>
    <path class="cls-2" d="M522.39,276.5c-.26-18.78-3.74-37.69-11.3-55.05-7.57-17.37-19.04-32.72-34.45-44.06-15.44-11.37-33.47-17.69-52.49-19.09-18.93-1.39-37.81,2.14-55.33,9-8.41,3.29-16.52,7.35-24.24,12.03-8.41,5.09-16.36,10.92-23.81,17.32-14.29,12.28-26.76,26.73-37.05,42.49-10.29,15.77-18.49,33-24.14,50.97-2.95,9.39-5.21,19.01-6.7,28.74-1.36,8.91-2.06,17.91-2.04,26.93"/>
    <path class="cls-2" d="M251.19,355.91c1.11,17.04,4.98,34.01,12.23,49.58,7.26,15.59,17.75,29.41,31.47,39.98,13.74,10.59,29.74,17.15,46.86,19.6,17.08,2.44,34.4.68,50.83-4.14,7.83-2.3,15.44-5.29,22.78-8.84,8.06-3.91,15.78-8.5,23.1-13.65,14.01-9.84,26.6-21.73,37.47-34.92,21.65-26.25,37.07-58.4,43.36-91.94"/>
    <line class="cls-2" x1="261.54" y1="343.52" x2="251.19" y2="346.2"/>
    <path class="cls-2" d="M261.8,351.63c1.08-.28,2-1.01,2.63-1.9.63-.89,1.02-1.99.99-3.1"/>
    <path class="cls-2" d="M260.1,350.56c1.08-.28,2-1.01,2.63-1.89.63-.89,1.02-1.99.99-3.1"/>
    <line class="cls-2" x1="320.01" y1="422.73" x2="319.02" y2="422.09"/>
    <path class="cls-2" d="M477.44,286.33c1.03.56,1.45,1.72,1.44,2.8"/>
    <path class="cls-2" d="M319.02,422.09c.17.11.33.21.5.32"/>
    <path class="cls-2" d="M249.34,344.66c.08-26.96,6.62-53.92,17.68-78.32,11.09-24.47,27.04-47.06,46.7-65.44,9.83-9.19,20.65-17.39,32.29-24.18,11.63-6.79,24.12-12.2,37.16-15.69,13.03-3.49,26.55-5.04,40.05-4.11,13.51.93,26.64,4.33,38.8,10.38"/>
    <path class="cls-2" d="M466.77,375.15s.09,0,.13,0"/>
    <line class="cls-2" x1="454.86" y1="158.93" x2="461.62" y2="162.28"/>
    <path class="cls-2" d="M517.04,268.75h0"/>
    <path class="cls-2" d="M494.42,267.22c-.07-.02-.14-.04-.21-.06"/>
    <line class="cls-2" x1="274.84" y1="346.41" x2="275.06" y2="346.55"/>
    <path class="cls-2" d="M420.23,185.22c-.08-.12-.17-.24-.25-.35"/>
    <line class="cls-2" x1="237.49" y1="346.39" x2="237.32" y2="346.43"/>
    <path class="cls-2" d="M461.62,162.28c21.31,10.55,37.5,27.89,47.97,48.92,10.43,20.95,14.72,44.48,14.37,67.59"/>
    <path class="cls-2" d="M293.35,404.89c.14.01.29.03.43.04"/>
    <path class="cls-2" d="M424.12,191.22c-.08-.14-.17-.28-.25-.42"/>
    <path class="cls-2" d="M367.44,435.46c-.32-.1-.63-.18-.96-.25"/>
    <path class="cls-2" d="M361.81,435.18c-.3.07-.6.15-.9.25"/>
    <line class="cls-2" x1="469.71" y1="287.61" x2="469.92" y2="287.73"/>
    <path class="cls-2" d="M450.79,193.87h0"/>
    <path class="cls-2" d="M270.17,378.46c1.26.81,1.85,2.23,1.89,3.66"/>
    <path class="cls-2" d="M480.54,188.2c.75.38,1.31.99,1.67,1.73.36.74.52,1.56.52,2.37"/>
    <line class="cls-2" x1="316.48" y1="427.05" x2="315.75" y2="426.57"/>
    <path class="cls-2" d="M511.87,243.1c.71.37,1.24.96,1.58,1.67.34.71.48,1.5.47,2.27"/>
    <path class="cls-2" d="M358.02,179.9c.75.4,1.33,1.02,1.72,1.77.38.75.56,1.58.58,2.41"/>
    <path class="cls-2" d="M300.11,231.58c1.48.84,2.16,2.46,2.2,4.06"/>
    <path class="cls-2" d="M415.47,292.52c-1.04,3.43-2.21,6.8-3.51,10.14"/>
    <path class="cls-2" d="M414.97,300.12c.91-2.96,1.69-5.94,2.34-8.96"/>
    <path class="cls-2" d="M237.89,380.55c-.36-.6-.71-1.2-1.05-1.81"/>
    <path class="cls-2" d="M385.61,149.99h0"/>
    <path class="cls-2" d="M520.21,312.92c-6.92,34.08-22.95,66.65-45.24,93.23-11.19,13.35-24.12,25.38-38.46,35.32-14.29,9.91-30.11,17.83-46.87,22.69"/>
    <path class="cls-2" d="M267.78,304.93c1.37.83,2,2.35,2.05,3.86"/>
    <path class="cls-2" d="M305.55,431.45c1.2.79,1.74,2.16,1.78,3.52"/>
    <path class="cls-2" d="M362.96,450.49c1.19.77,1.7,2.13,1.72,3.46"/>
    <path class="cls-2" d="M236.84,378.73c-2.21-3.9-4.55-7.69-7.09-11.38"/>
    <line class="cls-2" x1="555.63" y1="335.95" x2="579.32" y2="370.47"/>
    <path class="cls-2" d="M368.96,148.78c.7,0,1.4,0,2.1,0"/>
    <path class="cls-2" d="M493.92,309.05s.07-.09.11-.13"/>
    <path class="cls-2" d="M332.52,378.92s.05,0,.07,0"/>
    <path class="cls-2" d="M276.16,358.89s.04.04.06.07"/>
    <path class="cls-2" d="M371.58,193.08s-.06-.01-.09-.02"/>
    <path class="cls-2" d="M426.01,281.64c1.99,1.47,3.55,3.4,4.63,5.62"/>
    <path class="cls-2" d="M505.86,270.4c-.1-.03-.2-.06-.31-.08"/>
    <path class="cls-2" d="M558.66,335.3s.02-.03.02-.05"/>
    <line class="cls-2" x1="553.15" y1="336.11" x2="538.83" y2="343.75"/>
    <path class="cls-2" d="M553.15,336.11c1.16-.62,2.41-1.16,3.68-1.55,1.22-.37,2.64-.65,3.94-.53"/>
    <path class="cls-2" d="M561.2,340.75c.2-.32.38-.64.54-.98"/>
    <path class="cls-2" d="M558.13,336.28c.2-.32.38-.64.54-.98"/>
    <path class="cls-2" d="M557.87,335.91c.12-.2.24-.41.35-.61"/>
    <path class="cls-2" d="M557.9,335.95c.14-.22.26-.43.38-.66"/>
    <line class="cls-2" x1="562.88" y1="343.21" x2="568.48" y2="340.22"/>
    <path class="cls-2" d="M550.45,349.39c-1.17.34-2.52.6-3.76.5"/>
    <path class="cls-2" d="M417.11,232.14l-.03-.07"/>
    <path class="cls-2" d="M588.74,372.17c-.71-1.03-2.09-1.25-3.17-1.24-1.16.01-2.38.28-3.47.63"/>
    <path class="cls-2" d="M421.73,233.67s0-.01,0-.02"/>
    <path class="cls-2" d="M336.2,382.16s.01,0,.02,0"/>
    <path class="cls-2" d="M492.76,315.78s-.04-.09-.07-.13"/>
    <path class="cls-2" d="M461.33,382.66s-.01-.09-.02-.13"/>
    <path class="cls-2" d="M326.12,371.21c7.57.96,15.25.19,22.56-1.78"/>
    <path class="cls-2" d="M327.15,426.83h0"/>
    <path class="cls-2" d="M418.48,232.5s0,.03.01.05"/>
    <line class="cls-2" x1="249.75" y1="356.78" x2="248.29" y2="355.85"/>
    <path class="cls-2" d="M250.83,345.79c-.49-.38-.99-.75-1.49-1.13"/>
    <path class="cls-2" d="M389.86,463.93c16.75-4.86,32.56-12.78,46.83-22.69,14.3-9.93,27.2-21.94,38.36-35.26,22.25-26.56,38.24-59.09,45.11-93.13"/>
    <path class="cls-2" d="M262.07,342.87c1.17-.3,2.43-.15,3.4.64.97.78,1.41,1.98,1.45,3.17"/>
    <path class="cls-2" d="M472.93,388.65c0-1.42.52-2.85,1.33-3.99.8-1.13,1.98-2.13,3.35-2.51"/>
    <path class="cls-2" d="M272.06,382.12c.06,2.1-.99,4.2-2.56,5.54-.79.68-1.75,1.19-2.79,1.38-1.04.19-2.12.05-3.03-.54"/>
    <path class="cls-2" d="M389.64,464.15c-15.82,4.59-32.42,6.42-48.89,4.55-16.5-1.87-32.17-7.4-46.02-16.66"/>
    <path class="cls-2" d="M392.68,186.76c-.1-.07-.19-.15-.29-.22"/>
    <path class="cls-2" d="M316.49,427.05s0,0,0,0"/>
    <line class="cls-2" x1="450.02" y1="193.48" x2="450.79" y2="193.87"/>
    <path class="cls-2" d="M391.48,186.73c.09.07.18.15.26.22"/>
    <path class="cls-2" d="M568.48,340.22c.92-.49,1.83-1.18,2.53-1.95.35-.38.69-.84.91-1.32.2-.43.38-1.07.06-1.54"/>
    <path class="cls-2" d="M536.36,349.06c-.38-.03-.8-.15-1.04-.5"/>
    <line class="cls-2" x1="546.69" y1="349.89" x2="536.36" y2="349.06"/>
    <line class="cls-2" x1="535.51" y1="344.19" x2="535.52" y2="344.21"/>
    <path class="cls-2" d="M496.13,267.48c-.12-.23-.05-.51.04-.72"/>
    <line class="cls-2" x1="571.07" y1="334.09" x2="571.99" y2="335.42"/>
    <path class="cls-2" d="M582.1,371.56c-3.16,1.01-6.38,3.02-8.81,5.23-1.23,1.12-2.46,2.47-3.34,3.91-.44.72-.83,1.53-1.02,2.36-.1.46-.15.93-.09,1.4.05.39.18.76.4,1.08"/>
    <path class="cls-2" d="M569.23,385.54c.71,1.04,2.1,1.26,3.19,1.25,1.17-.01,2.4-.29,3.5-.64"/>
    <line class="cls-2" x1="569.23" y1="385.54" x2="568.08" y2="383.86"/>
    <path class="cls-2" d="M571.07,334.09c-.23-.33-.63-.45-1-.49"/>
    <line class="cls-2" x1="535.32" y1="348.55" x2="534.41" y2="347.22"/>
    <line class="cls-2" x1="557.04" y1="332.94" x2="557.09" y2="333.01"/>
    <path class="cls-2" d="M559.16,332.68s0,0,0-.01"/>
    <line class="cls-2" x1="587.58" y1="370.49" x2="588.74" y2="372.17"/>
    <path class="cls-2" d="M542.46,340.02s0-.02,0-.02"/>
    <path class="cls-2" d="M558.46,335.27c.06.03.13.05.2.03"/>
    <path class="cls-2" d="M545.66,344.2c.38-.02.76-.08,1.14-.15"/>
    <line class="cls-2" x1="560.76" y1="334.03" x2="570.99" y2="334.93"/>
    <path class="cls-2" d="M561.74,339.77c.46-.96.88-2.39.16-3.44"/>
    <path class="cls-2" d="M571.99,335.42c-.23-.33-.63-.45-1-.48"/>
    <path class="cls-2" d="M535.32,348.55c-.32-.47-.14-1.1.06-1.54.22-.48.56-.93.91-1.32.7-.78,1.62-1.46,2.53-1.95"/>
    <path class="cls-2" d="M545.52,347.59c.46.68,1.26.96,2.01,1.06.76.1,1.59.02,2.33-.12"/>
    <path class="cls-2" d="M468.21,291.44c-.03-.36-.13-.71-.32-1.01"/>
    <path class="cls-2" d="M468.01,292.73c.15-.41.23-.85.2-1.29"/>
    <line class="cls-2" x1="467.29" y1="293.88" x2="466.26" y2="294.94"/>
    <path class="cls-2" d="M427.78,293.61c-.6-1.23-1.52-2.27-2.74-2.95"/>
    <path class="cls-2" d="M404.39,312.86c.28.16.57.31.86.44"/>
    <path class="cls-2" d="M406.16,313.87c.22.13.45.25.68.36"/>
    <line class="cls-2" x1="431.99" y1="299" x2="439.97" y2="296.93"/>
    <line class="cls-2" x1="402.85" y1="290.11" x2="401.79" y2="289.51"/>
    <path class="cls-2" d="M403.49,311.75s.06.09.1.13"/>
    <path class="cls-2" d="M403.09,312c-1.86-1.42-3.34-3.25-4.39-5.34"/>
    <path class="cls-2" d="M399.56,307.66c.84,1.69,2.02,3.18,3.53,4.34"/>
    <path class="cls-2" d="M368.2,150.16s-.05.03-.07.04"/>
    <line class="cls-2" x1="466.26" y1="294.94" x2="465.52" y2="294.74"/>
    <path class="cls-2" d="M368.21,150.16s0,0,0,0"/>
    <path class="cls-2" d="M452.28,157.65c.4.2.8.4,1.2.6"/>
    <line class="cls-2" x1="452.28" y1="157.65" x2="454.68" y2="158.84"/>
    <path class="cls-2" d="M391.33,147.52c20.88-2.29,41.93.71,60.95,10.14"/>
    <line class="cls-2" x1="237.32" y1="346.43" x2="235.1" y2="345.02"/>
    <path class="cls-2" d="M467.29,293.88c.31-.33.56-.72.72-1.15"/>
    <line class="cls-2" x1="439.92" y1="285.27" x2="430.93" y2="287.58"/>
    <line class="cls-2" x1="468.31" y1="292.81" x2="469.86" y2="293.66"/>
    <path class="cls-2" d="M459.75,289.91c.17-.45.38-.87.63-1.28"/>
    <path class="cls-2" d="M465.52,294.69c.68.02,1.32-.35,1.77-.81"/>
    <path class="cls-2" d="M471.17,295.02c.38-.22.63-.67.63-1.1"/>
    <line class="cls-2" x1="471.8" y1="290.1" x2="471.81" y2="287.07"/>
    <path class="cls-2" d="M446.36,287.42c1.01.56,2.49.78,3.6.84,1.19.06,2.53-.03,3.69-.33"/>
    <line class="cls-2" x1="468.14" y1="290.5" x2="468.21" y2="291.44"/>
    <line class="cls-2" x1="468.21" y1="291.44" x2="468.31" y2="292.81"/>
    <line class="cls-2" x1="468.31" y1="292.81" x2="467.29" y2="293.88"/>
    <line class="cls-2" x1="469.86" y1="293.66" x2="469.66" y2="290.92"/>
    <path class="cls-2" d="M403.37,289.11c-.08.13-.14.26-.17.4"/>
    <path class="cls-2" d="M403.6,311.88c.51.53,1.06,1,1.66,1.42"/>
    <path class="cls-2" d="M401.79,289.51c-.24-.13-.35-.39-.36-.65-.01-.26.07-.52.2-.74"/>
    <line class="cls-2" x1="422.95" y1="279.83" x2="424.7" y2="280.8"/>
    <line class="cls-2" x1="471.8" y1="293.92" x2="471.8" y2="293.48"/>
    <path class="cls-2" d="M321.91,139.62c2.6,1.34,5.26,2.49,8.01,3.49,2.75,1,5.53,1.83,8.37,2.53,5.66,1.4,11.46,2.25,17.26,2.71"/>
    <line class="cls-2" x1="442.83" y1="285.47" x2="446.36" y2="287.42"/>
    <line class="cls-2" x1="446.4" y1="299.1" x2="442.88" y2="297.14"/>
    <path class="cls-2" d="M442.83,285.47c-.4-.22-.99-.31-1.44-.33-.48-.02-1.01.01-1.47.13"/>
    <path class="cls-2" d="M445.43,284.8c-1.01-.56-2.48-.78-3.59-.83-1.19-.06-2.52.03-3.68.33"/>
    <path class="cls-2" d="M439.97,296.93c.46-.12,1-.16,1.47-.13.44.02,1.03.11,1.43.34"/>
    <line class="cls-2" x1="205.43" y1="342.6" x2=".5" y2="210.64"/>
    <path class="cls-2" d="M229.76,367.35c-3.29-4.78-6.93-9.38-10.96-13.57-2.02-2.1-4.13-4.1-6.36-5.98-2.23-1.88-4.55-3.62-7.01-5.2"/>
    <path class="cls-2" d="M229.76,367.35c1.22,1.77,2.49,3.49,3.83,5.17"/>
    <path class="cls-2" d="M286.1,446.28c-17.6-11.76-30.69-28.44-39.15-47.6"/>
    <line class="cls-2" x1="288.32" y1="447.77" x2="286.1" y2="446.28"/>
    <line class="cls-2" x1="52.56" y1=".5" x2="321.91" y2="139.62"/>
  </g>
  <g id="Make2D::可见线::正切线">
    <path class="cls-2" d="M265.46,133.06c-10.94,2.39-21.38,6.62-31.05,12.21-9.67,5.59-18.56,12.53-26.45,20.41-15.78,15.74-27.82,35.42-34.78,56.57-3.48,10.59-5.72,21.62-6.48,32.75-.76,11.13-.04,22.41,2.44,33.32,2.47,10.9,6.68,21.37,12.81,30.76,6.14,9.4,14.01,17.43,23.48,23.52"/>
    <path class="cls-2" d="M321.91,139.62c-8.64-4.46-17.97-7.19-27.62-8.24-9.65-1.05-19.37-.39-28.83,1.68"/>
    <line class="cls-2" x1="403.6" y1="311.88" x2="401.86" y2="310.88"/>
    <line class="cls-2" x1="401.63" y1="288.13" x2="403.37" y2="289.11"/>
    <line class="cls-2" x1="438.16" y1="284.3" x2="439.92" y2="285.27"/>
    <line class="cls-2" x1="442.83" y1="285.47" x2="445.43" y2="284.8"/>
    <line class="cls-2" x1="451.88" y1="286.96" x2="453.65" y2="287.93"/>
    <line class="cls-2" x1="439.97" y1="296.93" x2="439.92" y2="285.27"/>
    <path class="cls-2" d="M471.6,294.1s-.06.01-.07.01c-.02,0-.05,0-.07-.01-.05,0-.1-.02-.14-.04"/>
    <path class="cls-2" d="M462.86,291.62c.27.15.74.33,1.03.41"/>
    <line class="cls-2" x1="442.88" y1="297.14" x2="442.83" y2="285.47"/>
    <line class="cls-2" x1="446.36" y1="287.42" x2="446.4" y2="299.1"/>
    <line class="cls-2" x1="453.68" y1="299.61" x2="453.65" y2="287.93"/>
    <line class="cls-2" x1="448.97" y1="286.75" x2="446.36" y2="287.42"/>
    <line class="cls-2" x1="465.81" y1="291.94" x2="468.01" y2="292.73"/>
    <path class="cls-2" d="M462.86,291.62c.41-1.09,1.09-2.1,1.97-2.88"/>
    <line class="cls-2" x1="459.75" y1="289.91" x2="462.86" y2="291.62"/>
    <path class="cls-2" d="M354.33,152.91c-.12,0-.24.01-.36.02"/>
    <path class="cls-2" d="M354.16,152.9c-.07,0-.13.01-.2.03"/>
    <line class="cls-2" x1="537.92" y1="342.41" x2="538.83" y2="343.75"/>
    <path class="cls-2" d="M498.39,279.34c-.04-.07-.07-.15-.06-.23"/>
    <line class="cls-2" x1="558.66" y1="335.3" x2="561.74" y2="339.77"/>
    <line class="cls-2" x1="559.85" y1="332.7" x2="560.76" y2="334.03"/>
    <line class="cls-2" x1="552.24" y1="334.78" x2="553.15" y2="336.11"/>
    <line class="cls-2" x1="570.08" y1="333.61" x2="570.99" y2="334.93"/>
    <path class="cls-2" d="M448.82,199.13c2.45,1.26,4.83,2.64,7.13,4.16"/>
    <path class="cls-2" d="M391.62,431.61c.1-.03.12-.18.11-.26"/>
    <path class="cls-2" d="M391.57,436.53c16.08-4.58,31.08-12.66,44.24-22.8,13.21-10.18,24.77-22.57,34.28-36.23,9.52-13.68,17.1-28.81,22.29-44.66.66-2.01,1.28-4.02,1.86-6.05.57-1.99,1.1-3.99,1.59-6,.99-4.04,1.82-8.1,2.49-12.21,1.34-8.24,2.01-16.6,1.92-24.94"/>
    <path class="cls-2" d="M388.84,187.32c0,.06,0,.12-.02.17-.02.05-.05.11-.11.13"/>
    <path class="cls-2" d="M353.74,370.45c-8.81,2.37-18.04,3.06-27.1,1.49"/>
    <path class="cls-2" d="M390.33,435.37c16.18-4.6,31.26-12.76,44.47-23,13.26-10.28,24.84-22.79,34.32-36.59,9.5-13.81,17.02-29.09,22.1-45.08,5.06-15.94,7.76-32.81,7.34-49.58"/>
    <path class="cls-2" d="M461.25,166.9c-.26-.13-.52-.26-.78-.39"/>
    <line class="cls-2" x1="580.76" y1="369.93" x2="557.12" y2="335.5"/>
    <path class="cls-2" d="M448.29,198.86c-.18-.09-.35-.18-.53-.27"/>
    <line class="cls-2" x1="577.8" y1="371.18" x2="554.08" y2="336.6"/>
    <line class="cls-2" x1="574.92" y1="372.9" x2="551.19" y2="338.26"/>
    <path class="cls-2" d="M336.2,382.16c1.61,1.29,3.29,2.48,5.05,3.58"/>
    <line class="cls-2" x1="574.4" y1="373.26" x2="550.68" y2="338.62"/>
    <line class="cls-2" x1="570.71" y1="376.51" x2="547.09" y2="341.97"/>
    <line class="cls-2" x1="471.81" y1="290.11" x2="478.87" y2="293.98"/>
    <path class="cls-2" d="M345.39,151.71s-.06-.13-.12-.13"/>
    <line class="cls-2" x1="298.51" y1="449.44" x2="298.51" y2="449.44"/>
    <line class="cls-2" x1="319.52" y1="422.41" x2="319.52" y2="422.41"/>
    <path class="cls-2" d="M500.82,284.5c.07,16.67-2.86,33.37-8.09,49.14-5.24,15.8-12.86,30.9-22.4,44.54-9.53,13.63-21.11,25.99-34.33,36.14-13.16,10.11-28.14,18.16-44.2,22.73"/>
    <path class="cls-2" d="M498.47,278.46c-.11-2.53-.3-5.04-.56-7.56"/>
    <path class="cls-2" d="M499.91,275.56c-.02-.33-.05-.65-.07-.98"/>
    <path class="cls-2" d="M499.16,282.08c.3,16.76-2.48,33.59-7.6,49.49-5.14,15.93-12.7,31.16-22.22,44.93-9.51,13.76-21.11,26.24-34.38,36.48-13.2,10.2-28.26,18.32-44.4,22.92"/>
    <path class="cls-2" d="M498.63,272.27c.15,1.61.27,3.23.36,4.84"/>
    <path class="cls-2" d="M469.69,287.61c.08.04.16.07.23.12"/>
    <line class="cls-2" x1="379.18" y1="151.28" x2="385.84" y2="154.67"/>
    <path class="cls-2" d="M248.29,355.85c1.3,18.11,5.71,36.12,13.97,52.43,8.27,16.33,20.16,30.45,35.52,40.67"/>
    <path class="cls-2" d="M247.28,343.28c.14-28.8,7.63-57.59,20.15-83.31,12.55-25.77,30.57-49.33,52.69-67.71,11.07-9.2,23.22-17.15,36.25-23.33,6.78-3.21,13.78-5.94,20.97-8.1,3.35-1.01,6.73-1.88,10.15-2.63,3.32-.72,6.66-1.32,10.03-1.78,14.31-1.95,28.85-1.41,42.91,2.17,14.07,3.58,27.05,10.05,38.33,19.21"/>
    <path class="cls-2" d="M316.63,459.14c-20.8-8-37.63-22.43-49.46-41.12-11.77-18.59-17.85-40.15-19.45-61.81"/>
    <path class="cls-2" d="M390.56,435.89c-12.16,3.46-24.88,4.89-37.53,3.62-12.67-1.27-24.79-5.21-35.66-11.91"/>
    <path class="cls-2" d="M304.96,417.92c3.51,3.33,7.24,6.3,11.29,8.97"/>
    <path class="cls-2" d="M391.8,437.05c-15.38,4.38-31.64,5.52-47.43,2.11-15.86-3.42-30.04-11.17-41.44-22.71-11.36-11.51-19.07-25.86-23.5-41.24-4.44-15.39-5.56-31.65-4.13-47.51.69-7.69,1.99-15.32,3.81-22.82,1.96-8.04,4.54-15.94,7.67-23.6,6.04-14.78,14.17-28.78,24.03-41.34,9.84-12.55,21.51-23.8,34.65-32.9,6.93-4.8,14.27-9,21.97-12.45,6.89-3.09,14.05-5.56,21.41-7.29"/>
    <path class="cls-2" d="M388.84,187.32c12.44-2.92,25.35-3.67,38.04-1.6,12.71,2.08,24.64,6.9,35.11,14.43,10.47,7.53,18.87,17.32,25.11,28.53,6.25,11.21,10.19,23.55,12.17,36.16"/>
    <line class="cls-2" x1="513.92" y1="247.04" x2="507.48" y2="243.69"/>
    <line class="cls-2" x1="513.42" y1="317.58" x2="507.32" y2="314.23"/>
    <line class="cls-2" x1="428.34" y1="435.71" x2="422.72" y2="432.21"/>
    <line class="cls-2" x1="482.27" y1="386.04" x2="476.46" y2="382.63"/>
    <path class="cls-2" d="M294.45,175.53c-22.94,16.66-41.53,39.45-54.12,64.68-6.33,12.69-11.22,26.15-14.4,39.98-1.59,6.94-2.75,13.91-3.45,20.99-.35,3.61-.59,7.22-.69,10.84-.05,1.75-.07,3.5-.06,5.25.01,1.71.05,3.42.12,5.13"/>
    <path class="cls-2" d="M345.27,151.59c7.78-1.75,15.71-2.73,23.69-2.81"/>
    <path class="cls-2" d="M497.24,265.54c-2.73-18.56-9.73-36.63-21.98-51.24-12.34-14.73-28.81-24.46-47.69-28.11"/>
    <path class="cls-2" d="M298.29,410.8c11.18,12.91,25.65,21.87,42.24,26.02,16.5,4.13,33.65,3.14,49.81-1.45"/>
    <path class="cls-2" d="M297.78,448.96c.24.16.49.32.73.48"/>
    <path class="cls-2" d="M340.01,431.96c-12.85-3.61-24.36-10.28-33.88-19.62-9.51-9.32-16.48-20.73-21.07-33.12-2.3-6.22-3.99-12.65-5.13-19.17-.57-3.25-.99-6.52-1.29-9.8-.3-3.26-.46-6.52-.51-9.8-.09-6.35.28-12.63,1.06-18.93.85-6.83,2.17-13.53,3.94-20.18,6.75-25.4,19.98-49.39,37.76-68.72,8.92-9.69,19.07-18.32,30.25-25.33,5.86-3.68,12-6.9,18.38-9.58,5.78-2.43,11.75-4.41,17.86-5.85"/>
    <path class="cls-2" d="M387.38,191.85c13.85-3.26,28.29-3.71,42.26-.41,14.01,3.31,26.61,10.19,36.95,20.23"/>
    <path class="cls-2" d="M387.63,192.38c-5.72,1.35-11.24,3.14-16.68,5.37-5.88,2.4-11.48,5.23-16.93,8.48-10.45,6.24-20.05,13.91-28.6,22.54-17.08,17.23-30.3,38.6-38.25,61.5-1,2.87-1.91,5.76-2.74,8.69-.83,2.91-1.57,5.84-2.23,8.8-1.33,5.98-2.29,11.98-2.86,18.08-1.14,12.09-.73,24.39,1.58,36.34,2.31,11.94,6.52,23.51,12.94,33.92,6.42,10.42,14.85,19.32,25.17,25.99"/>
    <path class="cls-2" d="M340.01,431.96c-7.08-2.13-13.79-5.22-20-9.23"/>
    <line class="cls-2" x1="386.09" y1="155.21" x2="385.84" y2="154.67"/>
    <line class="cls-2" x1="389.86" y1="463.93" x2="389.64" y2="464.15"/>
    <line class="cls-2" x1="261.54" y1="343.52" x2="262.07" y2="342.87"/>
    <line class="cls-2" x1="265.42" y1="346.57" x2="266.92" y2="346.68"/>
    <line class="cls-2" x1="265.42" y1="346.63" x2="266.92" y2="346.74"/>
    <line class="cls-2" x1="261.8" y1="351.63" x2="262.39" y2="352.99"/>
    <path class="cls-2" d="M391.8,437.05c0-.16-.08-.43-.23-.52"/>
    <path class="cls-2" d="M388.67,192.93c.17.09.24.37.24.53"/>
    <path class="cls-2" d="M387.38,191.85c0,.16.08.45.24.53"/>
    <path class="cls-2" d="M390.56,435.89c-.15-.1-.23-.36-.23-.52"/>
    <path class="cls-2" d="M353.74,370.45c-1.48-.9-3.27-1.51-5.06-1.02"/>
    <path class="cls-2" d="M391.74,431.35c6.77-1.92,13.35-4.49,19.66-7.6,6.98-3.44,13.64-7.52,19.92-12.11,11.95-8.75,22.55-19.38,31.5-31.15,8.96-11.78,16.35-24.83,21.84-38.57,5.49-13.74,9.14-28.28,10.48-43.05.66-7.35.75-14.76.19-22.12-.57-7.41-1.8-14.78-3.78-21.95-3.94-14.29-10.82-27.73-21.01-38.7-10.23-11.01-23.06-18.74-37.61-22.57-14.49-3.81-29.57-3.48-44.01-.08"/>
    <path class="cls-2" d="M388.91,193.46c-7.01,1.65-13.82,4.02-20.38,6.96-7.32,3.29-14.31,7.3-20.91,11.87-12.51,8.67-23.6,19.39-32.97,31.34-9.37,11.96-17.11,25.29-22.86,39.35-2.98,7.29-5.43,14.8-7.3,22.45-1.74,7.13-2.97,14.39-3.63,21.71-1.36,15.11-.3,30.59,3.92,45.26,4.21,14.63,11.54,28.29,22.33,39.24,10.85,11.01,24.35,18.41,39.45,21.68,15.03,3.25,30.51,2.19,45.15-1.96"/>
    <path class="cls-2" d="M466.58,301.08c-.65,10.01-2.81,19.9-6.16,29.33-3.72,10.45-8.95,20.41-15.42,29.43-6.51,9.07-14.35,17.28-23.27,24.04-4.15,3.14-8.46,5.93-13.05,8.38-4.22,2.25-8.55,4.15-13.09,5.69-2.49.84-5,1.56-7.56,2.14-2.51.58-5.04,1.02-7.6,1.33-5.19.63-10.44.67-15.65.04-10.76-1.3-20.78-5.4-29.23-12.25-8.23-6.67-14.3-15.4-18.26-25.12-2.02-4.96-3.48-10.14-4.43-15.4-.95-5.23-1.39-10.56-1.39-15.87,0-10,1.56-19.96,4.37-29.53,3.14-10.7,7.86-20.97,13.87-30.35,6-9.37,13.35-17.97,21.8-25.23,7.56-6.5,16.05-11.97,25.26-15.87,4.9-2.08,9.98-3.7,15.2-4.77,5.14-1.05,10.39-1.56,15.65-1.42,10.65.28,20.94,3.2,29.97,8.98,9.01,5.76,16,13.86,20.85,23.3,4.86,9.47,7.43,19.96,8.14,30.5"/>
    <line class="cls-2" x1="475.42" y1="298.77" x2="470.48" y2="296.05"/>
    <path class="cls-2" d="M387.83,391.36c9.79-2.7,18.98-7.43,27.13-13.4,8.17-5.99,15.41-13.3,21.48-21.39,6.08-8.1,11.06-17.08,14.7-26.54,3.64-9.44,5.98-19.45,6.68-29.56"/>
    <path class="cls-2" d="M457.8,287.81c-.77-10.36-3.48-20.66-8.6-29.8-5.14-9.17-12.5-16.77-21.84-21.77"/>
    <line class="cls-2" x1="478.88" y1="289.13" x2="474.05" y2="286.49"/>
    <line class="cls-2" x1="353.74" y1="370.45" x2="387.83" y2="391.36"/>
    <line class="cls-2" x1="387.63" y1="192.38" x2="388.67" y2="192.93"/>
    <line class="cls-2" x1="364.68" y1="453.95" x2="359.1" y2="450.34"/>
    <line class="cls-2" x1="307.33" y1="434.96" x2="301.62" y2="431.21"/>
    <line class="cls-2" x1="269.83" y1="308.79" x2="263.41" y2="304.89"/>
    <line class="cls-2" x1="302.31" y1="235.64" x2="295.52" y2="231.79"/>
    <line class="cls-2" x1="360.31" y1="184.08" x2="353.31" y2="180.38"/>
    <line class="cls-2" x1="482.72" y1="192.3" x2="475.96" y2="188.9"/>
    <line class="cls-2" x1="426.71" y1="168.63" x2="419.73" y2="165.1"/>
    <line class="cls-2" x1="272.06" y1="382.12" x2="266.05" y2="378.26"/>
    <path class="cls-2" d="M498.69,264.86c-2.29-14.58-7.21-28.79-15.28-41.28-8.09-12.52-18.99-22.75-32.33-29.57"/>
    <path class="cls-2" d="M388.67,192.93c10.02-2.36,20.37-3.26,30.66-2.3,10.3.96,20.27,3.76,29.49,8.5"/>
    <path class="cls-2" d="M460.46,166.51c-12.16-6.05-25.28-9.45-38.8-10.38-13.5-.93-27.01.61-40.03,4.1-13.03,3.48-25.51,8.88-37.13,15.66-11.64,6.79-22.46,14.99-32.29,24.18-19.64,18.37-35.58,40.94-46.67,65.39-11.06,24.39-17.59,51.34-17.66,78.28"/>
    <path class="cls-2" d="M316.75,427.22c10.99,7.14,23.35,11.39,36.33,12.84,12.96,1.44,26.03.02,38.5-3.53"/>
    <path class="cls-2" d="M320.01,422.73c-10.33-6.68-18.76-15.59-25.18-26.02-6.41-10.41-10.62-21.99-12.92-33.94-2.31-11.96-2.71-24.27-1.57-36.36.58-6.1,1.54-12.1,2.87-18.08.66-2.96,1.4-5.88,2.23-8.8.83-2.92,1.75-5.82,2.74-8.69,7.96-22.9,21.19-44.29,38.27-61.53,8.56-8.63,18.16-16.3,28.61-22.54,5.45-3.25,11.05-6.08,16.93-8.49,5.44-2.22,10.96-4.02,16.68-5.37"/>
    <path class="cls-2" d="M427.36,236.24c-2.86-1.53-5.79-2.76-8.88-3.74"/>
    <path class="cls-2" d="M341.24,385.74c6.9,4.3,14.6,6.86,22.66,7.74,8.05.87,16.16.03,23.93-2.11"/>
    <path class="cls-2" d="M236.84,378.73c-5.9-10.41-9.98-21.71-12.46-33.38-2.48-11.67-3.34-23.65-2.83-35.54.51-11.91,2.39-23.78,5.44-35.3,1.54-5.81,3.37-11.51,5.48-17.13,2.09-5.55,4.43-10.97,7.05-16.29,10.47-21.33,25.17-40.87,43.1-56.54,8.97-7.84,18.79-14.75,29.3-20.38,10.5-5.62,21.7-9.96,33.35-12.59"/>
    <path class="cls-2" d="M450.8,193.88c13.27,6.97,24.07,17.32,32.04,29.91,7.95,12.57,12.76,26.82,14.94,41.42"/>
    <path class="cls-2" d="M451.08,194.02c-7.54-3.86-15.59-6.48-23.93-7.9"/>
    <path class="cls-2" d="M447.76,198.58c-9.22-4.74-19.19-7.53-29.48-8.5-10.29-.96-20.63-.07-30.65,2.29"/>
    <path class="cls-2" d="M455.95,203.29c3.9,2.56,7.5,5.42,10.9,8.63"/>
    <path class="cls-2" d="M408.09,230.47c5.65,6.8,9.59,14.78,11.98,23.23,2.39,8.46,3.22,17.33,2.78,26.08"/>
    <path class="cls-2" d="M414.02,315.65c-5.71,12.74-13.97,24.5-24.19,34.06-10.14,9.5-22.51,17.08-36.09,20.74"/>
    <line class="cls-2" x1="541.75" y1="340.37" x2="498.91" y2="277.64"/>
    <line class="cls-2" x1="390.56" y1="435.89" x2="391.57" y2="436.53"/>
    <path class="cls-2" d="M549.45,336.27c1.44-1.02,3.05-1.92,4.69-2.58,1.54-.62,3.51-1.17,5.22-1.01"/>
    <line class="cls-2" x1="496.17" y1="266.77" x2="500.54" y2="274.72"/>
    <path class="cls-2" d="M498.91,277.64c-.25.55-.43,1.1-.52,1.7"/>
    <path class="cls-2" d="M498.39,279.34c-.11.75-.04,1.54.41,2.2"/>
    <path class="cls-2" d="M517.21,268.97c-.56-.81-1.5-1.16-2.41-1.29-.92-.13-1.9-.04-2.8.14-1.8.36-3.64,1.14-5.22,2.03-1.61.91-3.17,2.05-4.52,3.32-1.3,1.23-2.62,2.8-3.36,4.46"/>
    <path class="cls-2" d="M463.89,292.02c.4-1.07,1.11-2.06,2.03-2.76.9-.68,2.07-1.14,3.24-.9,1.21.25,2.02,1.16,2.36,2.3.33,1.11.19,2.35-.22,3.4"/>
    <path class="cls-2" d="M471.31,294.06c-.41,1.07-1.11,2.06-2.03,2.76-.9.68-2.07,1.14-3.24.9-1.21-.25-2.02-1.16-2.36-2.3-.33-1.11-.19-2.35.21-3.4"/>
    <path class="cls-2" d="M464.37,297.86c-1.06-.59-1.67-1.66-1.88-2.81-.21-1.15-.04-2.36.37-3.43"/>
    <line class="cls-2" x1="265.42" y1="346.57" x2="263.72" y2="345.51"/>
    <path class="cls-2" d="M353.97,152.93c-.24,0-.48.01-.72-.02-.07-.01-.14-.02-.21-.05-.04-.01-.08-.04-.1-.08-.04-.09.09-.19.15-.22.18-.13.4-.22.6-.3.27-.11.55-.2.83-.29.36-.11.73-.21,1.1-.31,1.31-.34,2.63-.59,3.96-.81,1.33-.22,2.67-.41,4.01-.57,1.16-.14,2.86-.31,4.03-.36"/>
    <line class="cls-2" x1="263.72" y1="345.57" x2="265.42" y2="346.63"/>
    <path class="cls-2" d="M367.62,149.91c.24-.01.48-.02.72,0,.07,0,.13,0,.2.02.02,0,.07.01.08.04.01.02-.02.05-.04.06-.05.03-.1.06-.15.08-.22.09-.44.15-.66.21-.63.18-1.26.33-1.9.47-1.27.3-2.55.58-3.82.84-2.03.42-5.64,1.14-7.72,1.28"/>
    <path class="cls-2" d="M366.9,150.54c.12-.31.38-.57.72-.63"/>
    <line class="cls-2" x1="261.8" y1="351.63" x2="260.1" y2="350.56"/>
    <path class="cls-2" d="M399.56,307.66c-.36-.27-.66-.61-.87-1.02"/>
    <line class="cls-2" x1="421.11" y1="289.87" x2="427.78" y2="293.61"/>
    <path class="cls-2" d="M427.78,293.61c.95-.76,1.86-1.71,2.46-2.78.58-1.03.98-2.38.4-3.57"/>
    <path class="cls-2" d="M412.03,306.16c-1.46,1.16-3.24,2.06-5.03,2.57-.9.26-1.86.43-2.8.45-.92.03-1.92-.08-2.78-.46"/>
  </g>
  <g id="_图层_6" data-name="图层 6">
    <path class="cls-3" d="M421.11,290.32l-2.95.99-2.96,2.13-2.3,2.69-1.3,3.41v4.24s.81,2.52.9,2.65,98.07,59.77,98.07,59.77l9.65-18.3-95.51-55.51-3.01-1.65-.58-.41Z"/>
  </g>
  <g id="_图层_5" data-name="图层 5">
    <line class="cls-1" x1="421.11" y1="289.87" x2="519.42" y2="347.22"/>
    <line class="cls-1" x1="411.79" y1="306.57" x2="510.56" y2="366.19"/>
    <line class="cls-1" x1="353.08" y1="250.02" x2="405.6" y2="281.65"/>
    <line class="cls-1" x1="340.98" y1="262.03" x2="396.88" y2="296.79"/>
  </g>
</svg>