<?xml version="1.0" encoding="UTF-8"?>
<svg xmlns="http://www.w3.org/2000/svg" viewBox="0 0 595.28 560.24">
  <defs>
    <style>
      .cls-1, .cls-2, .cls-3 {
        fill: none;
      }

      .cls-1, .cls-3 {
        stroke: red;
        stroke-miterlimit: 10;
        stroke-width: 4px;
      }

      .cls-4 {
        fill: red;
      }

      .cls-4, .cls-5, .cls-6 {
        stroke-width: 0px;
      }

      .cls-2 {
        stroke: #000;
        stroke-linecap: round;
        stroke-linejoin: round;
      }

      .cls-5 {
        fill: #bfbfbf;
      }

      .cls-6 {
        fill: #fff;
      }

      .cls-3 {
        stroke-dasharray: 0 0 7.17 7.17;
      }
    </style>
  </defs>
  <g id="_图层_3" data-name="图层 3">
    <polygon class="cls-5" points="270.34 278.69 272.17 271.59 274.49 270.7 276.46 268.83 278.33 263.49 278.2 259.43 275.09 255.68 271.97 254.2 267.92 254.2 263.56 256.38 262.38 258.1 260.67 264.64 261.56 267.24 263.2 269.21 263.48 269.85 261.96 275.81 262.17 277.12 263.31 278.99 264.49 279.42 264.94 279.96 263.37 280.69 258.36 284.65 253.87 289.21 250.36 294.62 248.04 300.38 246.33 307.69 245.87 312.32 246.01 316.4 247.22 322.88 248.55 326.8 252.4 334.23 256.02 339.39 259.62 343.05 268.4 350.12 276.36 354.6 285.96 358.3 291.39 359.69 298.14 360.78 306.17 361.17 311.66 360.85 319.58 359.69 327.23 356.95 332.73 354.21 337.98 350.58 341.35 347.49 343.83 344.64 346.58 340.56 349.07 335.5 350.55 330.58 351.42 327.15 352.03 321.48 351.67 315.88 349.69 308.18 347.47 303.06 344.16 297.87 340.31 292.84 335.4 288.39 332.21 286.04 313.49 331.51 312.9 332.66 310.94 334.03 305.62 336.25 306.22 333.14 308.46 332.3 310.54 330.74 313.3 322.81 312.65 319.55 308.92 315.92 304.73 314.73 300.98 315.27 298.11 316.82 297.48 317.63 296.68 319.48 295.32 324.81 295.26 326.31 296.1 328.62 297.27 329.86 297.59 330.63 296.07 335.84 293.52 334.95 288.81 332.33 284.91 329.03 282.08 324.91 280.33 320.42 279.56 316.5 280.15 312.74 282.24 305.73 287.17 291.7 291.77 278.59 287.13 277.99 272.74 276.21 271.43 276.6 270.54 278.85 270.34 278.69"/>
    <polygon class="cls-5" points="340.37 265.96 335.69 277.36 336.4 278.85 337.61 280.61 335.89 286.29 335.89 287.81 336.6 289.13 338.88 290.68 340.99 291 342.72 290.59 343.93 289.94 346.09 283.07 348.98 281.91 350.74 280.12 352.46 275.03 352.91 272.18 351.18 268.52 348.24 266.47 345.58 265.5 340.37 265.96"/>
  </g>
  <g id="_图层_4" data-name="图层 4">
    <polygon class="cls-6" points="258.9 292.42 261.32 291.42 264.59 291.92 266.65 293.67 267.03 294.32 265.72 295.28 261.96 295.26 259.99 294.21 258.9 292.55 258.9 292.42"/>
    <path class="cls-6" d="M292.52,349.9l1.33-.72,2.09-.29,2.37.51,1.43,1,.96,1.32.47.8-1.11.68s-1.77.36-1.83.35-1.93-.15-1.93-.15l-1.67-.71-1.77-1.47-.34-1.32Z"/>
    <polygon class="cls-6" points="333.49 303.24 334.69 302.7 336.11 302.57 337.95 302.66 340.31 303.92 341.16 305.02 341.35 306.03 339.16 306.92 336.24 306.42 334.58 305.47 334.03 304.39 333.49 303.24"/>
  </g>
  <g id="Make2D::可见线::正切线">
    <path class="cls-2" d="M308.71,227.19c.23-.86.55-1.67.97-2.46"/>
    <path class="cls-2" d="M312.37,325.35c-1.06,1.56-2.83,2.44-4.61,2.76-1.81.33-3.72.11-5.43-.52-1.7-.63-3.31-1.71-4.41-3.19-1.1-1.47-1.68-3.34-1.16-5.2"/>
    <path class="cls-2" d="M349.86,238.79c-.19.65-.44,1.27-.75,1.88"/>
    <path class="cls-2" d="M311.56,324.12c-1,1.46-2.69,2.22-4.36,2.44-1.69.22-3.48-.08-5.01-.8-1.52-.71-2.94-1.88-3.71-3.43-.79-1.58-.81-3.38.24-4.89"/>
    <path class="cls-2" d="M349.12,240.67c-2.27,7.61-5.1,16.34-8.12,23.7"/>
    <path class="cls-2" d="M296.15,335.72c-4.9-1.31-9.37-4.19-12.44-8.28-1.78-2.37-3.05-5.11-3.61-8.04-.55-2.93-.37-5.94.63-8.77"/>
    <path class="cls-2" d="M298.71,317.45c1-1.45,2.7-2.2,4.36-2.42,1.68-.22,3.47.09,5,.8,1.51.71,2.93,1.87,3.7,3.41.79,1.58.82,3.37-.21,4.87"/>
    <line class="cls-2" x1="302.31" y1="322.75" x2="301.41" y2="321.82"/>
    <path class="cls-2" d="M236.12,72.29c.23.24.45.28.72.44.36.2.52.48.65.84.09.25.15.51.2.77.07.37.11.75.15,1.13.11,1.2.12,2.67.11,3.87-.02,2.58-.14,5.16-.28,7.74"/>
    <path class="cls-2" d="M45.69,206.47c1.18-2.45,2.48-4.82,3.92-7.12"/>
    <line class="cls-2" x1="336.72" y1="102.09" x2="324.38" y2="157.96"/>
    <path class="cls-2" d="M219.51,176.12c.62,1.11.92,2.37.8,3.64"/>
    <path class="cls-2" d="M565.68,233.04c-3.43-7.67-7.31-15.06-11.66-22.25"/>
    <path class="cls-2" d="M114.59,135.96c2.4-3.79,4.58-7.69,6.6-11.7,2.02-4,3.86-8.08,5.54-12.23"/>
    <line class="cls-2" x1="328.73" y1="83.44" x2="327.57" y2="88.85"/>
    <path class="cls-2" d="M237.67,87.08c-38.09,6.64-75.4,19.77-108.71,39.7-33.16,19.84-62.56,46.59-83.26,79.7"/>
    <path class="cls-2" d="M462.15,123.84c-.69-2.64-1.59-5.52-2.72-8.02-.59-1.29-1.25-2.53-2.09-3.68-.84-1.15-1.82-2.15-3.06-2.89"/>
    <path class="cls-2" d="M554.03,210.78c-11.03-18.29-24.76-34.8-40.34-49.34-15.59-14.55-33.01-27.1-51.53-37.6"/>
    <path class="cls-2" d="M312.9,332.66c-.77.62-1.58,1.17-2.43,1.64-1.61.9-3.31,1.52-5.04,1.87"/>
    <path class="cls-2" d="M339.99,266.87c1.33-.98,3.09-1.29,4.68-1.18"/>
    <path class="cls-2" d="M373.49,376.55c.41-1.53,1.62-2.67,2.96-3.35,1.36-.69,2.96-.95,4.47-.8,1.49.15,3.04.73,4.14,1.81,1.13,1.1,1.68,2.62,1.25,4.2"/>
    <path class="cls-2" d="M386.32,378.41c-.42,1.52-1.62,2.66-2.96,3.33-1.36.68-2.96.95-4.46.79-1.49-.15-3.03-.73-4.13-1.8-1.13-1.1-1.69-2.61-1.27-4.18"/>
    <path class="cls-2" d="M174.95,347.33c.22-1.96,1.59-3.45,3.25-4.3,1.66-.86,3.63-1.1,5.46-.84"/>
    <path class="cls-2" d="M183.66,342.19c1.7.25,3.39.95,4.67,2.13,1.28,1.17,2.14,2.81,1.95,4.62"/>
    <path class="cls-2" d="M183.66,342.19c-.05.49-.13.98-.21,1.46"/>
    <path class="cls-2" d="M181.65,353.97c-1.52-.22-3.05-.87-4.18-1.96-1.13-1.1-1.82-2.61-1.5-4.24.31-1.61,1.51-2.79,2.9-3.47,1.4-.68,3.05-.87,4.58-.65"/>
    <line class="cls-2" x1="321.08" y1="159.11" x2="333.43" y2="102.84"/>
    <path class="cls-2" d="M416.21,213.19c-.25-2.52,1.15-4.75,3.12-6.11,1.98-1.36,4.51-1.89,6.87-1.52"/>
    <line class="cls-2" x1="233.7" y1="74.89" x2="232.6" y2="87.76"/>
    <line class="cls-2" x1="425.73" y1="201.36" x2="426.2" y2="205.57"/>
    <line class="cls-2" x1="140.15" y1="152.14" x2="140.2" y2="151.57"/>
    <line class="cls-2" x1="136.6" y1="177.34" x2="136.26" y2="179.59"/>
    <line class="cls-2" x1="95.65" y1="468.12" x2="95.34" y2="470.15"/>
    <path class="cls-2" d="M426.2,205.57c1.51.24,2.98.85,4.15,1.86,1.17,1.01,1.98,2.38,2.16,3.95"/>
    <line class="cls-2" x1="438.96" y1="495.78" x2="439.38" y2="495.74"/>
    <line class="cls-2" x1="433.16" y1="514.1" x2="432.93" y2="516.09"/>
    <line class="cls-2" x1="528.35" y1="213.56" x2="528.96" y2="213.1"/>
    <path class="cls-2" d="M426.2,205.57c.05.41-.08,1.14-.18,1.53"/>
    <line class="cls-2" x1="37.7" y1="302.19" x2="33.75" y2="318.59"/>
    <path class="cls-2" d="M422.85,218.79c-1.67-.26-3.3-1.06-4.38-2.43-1.09-1.39-1.41-3.15-.84-4.83.56-1.65,1.88-2.92,3.39-3.67,1.52-.76,3.31-1.02,4.98-.76"/>
    <path class="cls-2" d="M219.07,180.69c-.27,1.54-1.21,2.83-2.47,3.69-1.27.87-2.78,1.29-4.3,1.3-1.52.01-3.04-.39-4.35-1.18-1.29-.78-2.37-1.97-2.86-3.43"/>
    <line class="cls-2" x1="33.75" y1="318.59" x2="33.06" y2="322.88"/>
    <line class="cls-2" x1="35.57" y1="298.27" x2="35.76" y2="298.92"/>
    <line class="cls-2" x1="43.04" y1="319.94" x2="42.35" y2="324.23"/>
    <line class="cls-2" x1="44.97" y1="299.65" x2="45.13" y2="300.3"/>
    <line class="cls-2" x1="552.99" y1="375.03" x2="554.19" y2="374.61"/>
    <path class="cls-2" d="M218.09,176.56c.85,1.2,1.24,2.67.98,4.13"/>
    <line class="cls-2" x1="305.74" y1="164.5" x2="320.35" y2="96.05"/>
    <line class="cls-2" x1="390.9" y1="107.62" x2="374.34" y2="175.42"/>
    <path class="cls-2" d="M203.29,500.49c0-.08.02-.17.02-.25"/>
    <path class="cls-2" d="M326.59,545.13c-.27-4.77-.54-9.55-.8-14.32-.27-4.77-.54-9.55-.8-14.32"/>
    <path class="cls-2" d="M233.7,74.89c.2-1.28,1.15-2.32,2.42-2.6"/>
    <path class="cls-2" d="M35,337.4c.17.77.63,1,1.36.75.54-.19,1.14-.58,1.59-.91.93-.68,1.96-1.6,2.81-2.37,1.7-1.57,3.62-3.51,5.21-5.19"/>
    <path class="cls-2" d="M34.73,338.06c-.67-3-1.27-6.01-1.78-9.04"/>
    <path class="cls-2" d="M27.36,366.59c2.45-9.51,4.91-19.02,7.37-28.53"/>
    <path class="cls-2" d="M59.06,375.51c2.01-12.79,4.01-25.59,6.02-38.38"/>
    <path class="cls-2" d="M34.73,338.06c.06-.23.16-.45.28-.66"/>
    <line class="cls-2" x1="214.86" y1="177.61" x2="215.14" y2="177.74"/>
    <path class="cls-2" d="M81.61,268.24c.29-1.88.58-3.77.87-5.65"/>
    <path class="cls-2" d="M531.5,409.16c1.94-2.68,3.81-5.41,5.62-8.19"/>
    <path class="cls-2" d="M531.72,409.87c1.76,9.78,3.53,19.55,5.29,29.33"/>
    <path class="cls-2" d="M551.7,416.53c-1.06-4.14-2.12-8.27-3.18-12.41"/>
    <path class="cls-2" d="M531.72,409.87c-1.1,1.5-2.69,1.6-4.31,1.17-1.47-.39-3.05-1.24-4.32-2.04-2.6-1.63-5.28-3.86-7.49-5.95"/>
    <path class="cls-2" d="M531.5,409.16c.1.23.17.46.22.71"/>
    <path class="cls-2" d="M565.38,329.27c.43-2.64.81-5.28,1.12-7.93"/>
    <path class="cls-2" d="M565.65,329.92c2.32,9.49,4.63,18.98,6.95,28.47"/>
    <path class="cls-2" d="M575.23,331.91c-.51-1.8-1.02-3.6-1.53-5.41"/>
    <path class="cls-2" d="M565.65,329.92c-.06.37-.16.73-.33,1.07-.12.24-.26.45-.46.64-.28.28-.64.46-1.02.55-.96.24-2.15-.01-3.04-.27-1.84-.53-3.97-1.56-5.64-2.46-3.51-1.89-7.15-4.33-10.25-6.82"/>
    <path class="cls-2" d="M565.65,329.92c-.06-.23-.15-.44-.27-.65"/>
    <path class="cls-2" d="M348.18,304.62l.11-2.75"/>
    <path class="cls-2" d="M372.45,375.75c.44-1.63,1.67-2.9,3.08-3.7,1.43-.81,3.12-1.19,4.75-1.15,1.62.03,3.3.48,4.67,1.41,1.36.92,2.4,2.34,2.51,4.06"/>
    <line class="cls-2" x1="381.7" y1="374.99" x2="382.74" y2="375.52"/>
    <line class="cls-2" x1="184.14" y1="337.72" x2="183.66" y2="342.19"/>
    <path class="cls-2" d="M183.44,343.65c1.52.22,3.05.87,4.17,1.96,1.13,1.1,1.81,2.61,1.5,4.23-.31,1.61-1.5,2.79-2.89,3.47-1.4.68-3.05.88-4.57.65"/>
    <line class="cls-2" x1="182.86" y1="345.75" x2="182.32" y2="349.31"/>
    <path class="cls-2" d="M426.01,207.1c1.67.26,3.3,1.06,4.37,2.43,1.09,1.4,1.41,3.15.84,4.83-.56,1.65-1.88,2.91-3.39,3.67-1.52.76-3.3,1.02-4.98.76"/>
    <line class="cls-2" x1="424.06" y1="209.79" x2="423.37" y2="213.93"/>
    <line class="cls-2" x1="262.76" y1="291.42" x2="263.65" y2="287.77"/>
    <line class="cls-2" x1="337.09" y1="302.57" x2="338.2" y2="298.97"/>
    <line class="cls-2" x1="339.45" y1="292.21" x2="355.49" y2="294.63"/>
    <line class="cls-2" x1="256.05" y1="286.7" x2="245.1" y2="285.05"/>
    <path class="cls-2" d="M344.88,345.58c-2.82,6.82-7.71,12.44-13.67,16.63-2.88,2.03-6.01,3.71-9.27,5.05-1.71.71-3.45,1.32-5.23,1.84-1.82.54-3.67.98-5.54,1.32-3.54.66-7.07.97-10.67.98-3.72,0-7.37-.32-11.03-.98-3.63-.65-7.13-1.61-10.59-2.86-3.42-1.24-6.67-2.73-9.84-4.52-6.28-3.54-12.12-8.23-16.78-13.77-2.4-2.86-4.53-5.99-6.25-9.31-1.63-3.14-2.89-6.44-3.7-9.89-.85-3.62-1.18-7.35-.9-11.06.04-.54.46-4.8.51-5.34.17-1.77.34-3.53.51-5.3.35-3.64.7-7.28,1.05-10.92.35-3.6.69-7.2,1.04-10.8"/>
    <path class="cls-2" d="M454.28,109.25c-.13-.08-.27-.16-.41-.23"/>
    <path class="cls-2" d="M49.62,199.35c2.69-4.28,5.78-8.15,9.31-11.77"/>
    <path class="cls-2" d="M245.18,286.39c-.35,3.62-.7,7.24-1.04,10.86-.35,3.66-.7,7.32-1.06,10.99-.17,1.79-.34,3.58-.52,5.36l-.26,2.69c-.09.9-.19,1.8-.25,2.7-.25,3.72.12,7.46,1.01,11.07.86,3.49,2.15,6.73,3.84,9.9,1.78,3.31,3.96,6.44,6.42,9.28,2.37,2.74,4.95,5.18,7.77,7.43,2.94,2.34,6.03,4.38,9.34,6.16,3.22,1.74,6.54,3.19,10.01,4.36,3.5,1.19,7.04,2.07,10.7,2.63,3.71.57,7.4.8,11.15.69,1.82-.06,3.62-.19,5.43-.42,1.77-.22,3.51-.52,5.25-.9,7.1-1.57,14.01-4.57,19.79-9.1,2.94-2.3,5.57-4.99,7.75-8.03,2.1-2.93,3.75-6.13,4.86-9.56"/>
    <line class="cls-2" x1="290.78" y1="366.1" x2="292.37" y2="360.51"/>
    <path class="cls-2" d="M240.74,351.99c-1.78-2.21-3.33-4.52-4.67-7.02-1.34-2.5-2.4-5.07-3.2-7.8-.8-2.73-1.29-5.46-1.48-8.3-.19-2.84-.08-5.61.34-8.42"/>
    <path class="cls-2" d="M344.88,345.57s0,0,0,0"/>
    <path class="cls-2" d="M348.85,301.56c-.05.21-.09.42-.1.63"/>
    <path class="cls-2" d="M244.46,285.42c.08-.24.43-.35.64-.36"/>
    <path class="cls-2" d="M244.53,286.66c.03-.13.16-.21.27-.24.13-.04.25-.05.38-.03"/>
    <path class="cls-2" d="M348.74,302.3s0-.04.01-.06"/>
    <path class="cls-2" d="M348.98,301.11c.03-.12-.05-.25-.13-.33-.09-.09-.19-.15-.31-.19"/>
    <path class="cls-2" d="M348.55,300.6c.56-1.31,1.97-2.64,3.02-3.48,1.19-.95,2.55-1.81,3.92-2.49"/>
    <path class="cls-2" d="M355.49,294.63c-1.3.79-2.59,1.76-3.71,2.81-.99.93-2.28,2.35-2.8,3.68"/>
    <path class="cls-2" d="M348.98,301.11c-.06.15-.1.29-.14.45"/>
    <path class="cls-2" d="M145.24,117.55c2.87-3.83,6.04-7.52,9.49-10.84,1.74-1.67,3.54-3.25,5.45-4.72,1.91-1.47,3.89-2.82,5.99-4.01,4.11-2.34,8.79-4.13,13.6-4.45,4.89-.32,9.61.95,13.4,4.24"/>
    <path class="cls-2" d="M515.9,216.33c.42,1.73.83,3.46,1.22,5.19"/>
    <line class="cls-2" x1="519.09" y1="221.78" x2="517.8" y2="215.21"/>
    <path class="cls-2" d="M235.19,87.28c.11-2.16.19-4.32.18-6.48,0-1-.04-2.24-.16-3.24-.04-.32-.09-.63-.16-.94-.05-.22-.11-.43-.21-.63-.13-.28-.3-.49-.57-.66-.23-.14-.41-.22-.59-.44"/>
    <path class="cls-2" d="M528.17,219.91c-1.34-2.13-2.6-4.3-3.81-6.51"/>
    <path class="cls-2" d="M244.53,286.66c.04-.42.02-.83-.07-1.24"/>
    <path class="cls-2" d="M189.17,501.08c-.61,4.22-1.23,8.43-1.84,12.65-.62,4.22-1.23,8.44-1.84,12.65"/>
    <path class="cls-2" d="M575.16,258.96c-2.47-8.63-5.51-16.98-9.15-25.18"/>
    <path class="cls-2" d="M244.46,285.42c-.3-1.4-1.1-3.07-1.78-4.3-.76-1.37-1.61-2.65-2.58-3.88"/>
    <path class="cls-2" d="M237.11,324.44c.05-1.27-1.03-2.29-1.96-2.86-1.02-.63-2.25-1-3.42-1.14"/>
    <path class="cls-2" d="M33.32,328.94c.49,2.83,1.05,5.65,1.68,8.46"/>
    <path class="cls-2" d="M25.21,333.62c-.68,2.23-1.36,4.46-2.04,6.69"/>
    <path class="cls-2" d="M55.16,331.08c-3.06,2.42-6.6,4.79-10.06,6.61-1.64.87-3.73,1.85-5.54,2.33-.9.24-2.02.44-2.97.19-.4-.1-.72-.27-1.02-.55-.47-.44-.7-1.01-.84-1.61"/>
    <path class="cls-2" d="M39.91,249.75c1.16-.88,4.73-3.77,5.85-4.69"/>
    <path class="cls-2" d="M59.36,244.92c-.81.71-1.62,1.42-2.43,2.14"/>
    <path class="cls-2" d="M521.19,400.38c1.36,1.88,2.99,3.98,4.54,5.71.76.84,1.71,1.84,2.6,2.55.44.35,1,.75,1.55.94.64.22,1.2.16,1.62-.43"/>
    <path class="cls-2" d="M237.11,324.44c-.34,2.18-.46,4.34-.38,6.55"/>
    <path class="cls-2" d="M503.67,420.88c.6,6.03,1.2,12.07,1.8,18.1"/>
    <path class="cls-2" d="M537.75,401.07c-1.93,2.99-3.94,5.92-6.02,8.8"/>
    <path class="cls-2" d="M237.39,322.88c-.1.52-.2,1.04-.28,1.56"/>
    <path class="cls-2" d="M554.47,321.31c1.6,1.71,3.52,3.67,5.22,5.28.83.79,1.88,1.75,2.79,2.45.45.34,1.04.77,1.57.98.76.3,1.2.06,1.33-.74"/>
    <path class="cls-2" d="M566.83,321.44c-.33,2.84-.72,5.66-1.18,8.48"/>
    <line class="cls-2" x1="326.25" y1="89.19" x2="327.38" y2="83.95"/>
    <path class="cls-2" d="M244.53,286.66c-1.19,6.04-2.38,12.07-3.57,18.11-1.19,6.04-2.38,12.07-3.57,18.11"/>
    <path class="cls-2" d="M515.89,221.23c-.31-1.4-.62-2.8-.95-4.2"/>
    <path class="cls-2" d="M128.25,154.75c-.03.09-.06.18-.09.27"/>
    <path class="cls-2" d="M189.38,99c-3.37-2.77-7.46-3.87-11.74-3.6-4.2.27-8.27,1.84-11.85,3.88-3.62,2.07-6.98,4.76-9.96,7.64-1.51,1.46-2.95,2.98-4.33,4.56-1.38,1.58-2.69,3.21-3.95,4.89"/>
    <path class="cls-2" d="M148.02,155.5c-3.54,2.07-7.11,4.09-10.69,6.09"/>
    <path class="cls-2" d="M355.49,294.63c-1.49,5.97-2.97,11.94-4.46,17.9"/>
    <line class="cls-2" x1="240.09" y1="277.24" x2="263.31" y2="280.74"/>
    <path class="cls-2" d="M231.73,320.45c.13-.91.31-1.81.49-2.71.17-.9.35-1.8.52-2.7.35-1.8.7-3.6,1.05-5.4.7-3.6,1.4-7.2,2.1-10.8.7-3.6,1.4-7.2,2.1-10.8.7-3.6,1.4-7.2,2.1-10.8"/>
    <line class="cls-2" x1="348.55" y1="300.6" x2="345.71" y2="300.17"/>
    <path class="cls-2" d="M245.1,285.05c.1.44.13.88.09,1.33"/>
    <path class="cls-2" d="M348.29,301.87c.02-.44.1-.86.26-1.27"/>
    <path class="cls-2" d="M181.57,354.36s0,0,0-.01c0-.01,0-.02,0-.04,0-.02,0-.03.01-.05,0-.03.01-.07.02-.1.01-.07.02-.13.04-.2"/>
    <line class="cls-2" x1="214.77" y1="91.66" x2="218.71" y2="53.74"/>
    <line class="cls-2" x1="126.73" y1="112.04" x2="123.2" y2="130.17"/>
    <line class="cls-2" x1="451.34" y1="92.31" x2="453.87" y2="109.02"/>
    <path class="cls-2" d="M559.04,226.11c-1.22-5.21-2.83-10.42-5.02-15.33"/>
    <path class="cls-2" d="M218.71,53.74c1.06,1.65,2.49,3.7,3.66,5.26,1.28,1.71,2.62,3.37,4.05,4.97,1.43,1.6,2.92,3.11,4.55,4.51.81.7,1.64,1.37,2.51,1.99.56.4,1.13.78,1.7,1.15.19.13.39.25.58.38.13.09.25.17.36.28"/>
    <path class="cls-2" d="M352.7,274.27c-.46,1.47-1.59,2.54-2.93,3.17-1.34.63-2.88.84-4.34.73"/>
    <path class="cls-2" d="M344.54,265.29s.06.06.07.08c.01.03.02.07.03.11.02.07.02.15.03.22"/>
    <path class="cls-2" d="M345.44,278.17c-1.64-.12-3.27-.63-4.68-1.48-1.39-.83-2.65-2.04-3.34-3.55"/>
    <path class="cls-2" d="M344.67,265.7c1.6.12,3.22.68,4.54,1.61,1.29.9,2.44,2.26,2.75,3.88.32,1.71-.36,3.25-1.74,4.26-1.33.96-3.06,1.27-4.64,1.15"/>
    <path class="cls-2" d="M345.58,276.6c-1.61-.12-3.24-.68-4.57-1.62-1.3-.91-2.44-2.28-2.74-3.92"/>
    <line class="cls-2" x1="344.02" y1="273.75" x2="344.15" y2="270.7"/>
    <path class="cls-2" d="M387.27,378.04c-.05.19-.24.3-.4.35-.19.05-.36.06-.55.03"/>
    <line class="cls-2" x1="372.22" y1="371.22" x2="372.45" y2="375.75"/>
    <path class="cls-2" d="M372.29,377.2c-.02-.5.03-.97.15-1.45"/>
    <path class="cls-2" d="M372.45,375.75c.01.24.22.44.39.55.2.13.41.21.65.24"/>
    <line class="cls-2" x1="304.44" y1="339.29" x2="306.26" y2="333"/>
    <line class="cls-2" x1="310.94" y1="330.22" x2="312.37" y2="325.35"/>
    <path class="cls-2" d="M297.57,317.5c.13-.18.36-.23.55-.22.22.01.4.08.59.17"/>
    <path class="cls-2" d="M296.76,319.21c.16-.58.4-1.09.75-1.58"/>
    <path class="cls-2" d="M348.75,302.24c0-.11-.08-.2-.16-.26-.09-.06-.19-.09-.3-.11"/>
    <path class="cls-2" d="M313.07,323.87c-.16.54-.39,1.02-.7,1.48"/>
    <path class="cls-2" d="M312.37,325.35c.08-.26-.07-.54-.21-.73-.17-.22-.36-.37-.6-.5"/>
    <path class="cls-2" d="M297.5,317.63s.03-.09.06-.13"/>
    <line class="cls-2" x1="313.84" y1="154.96" x2="313.23" y2="157.78"/>
    <line class="cls-2" x1="310.01" y1="155.53" x2="310.34" y2="154.01"/>
    <path class="cls-2" d="M422.61,219.28s.08-.07.1-.09c.02-.04.04-.09.06-.13.03-.09.06-.18.09-.27"/>
    <path class="cls-2" d="M278.33,262.45c-.38,1.51-1.45,2.66-2.77,3.38-1.32.72-2.85,1.02-4.33,1-2.89-.04-6.06-1.34-7.85-3.75"/>
    <line class="cls-2" x1="179.1" y1="149.39" x2="180.36" y2="139.94"/>
    <path class="cls-2" d="M277.18,257.47c-.16-.21-.54-.11-.72-.04"/>
    <line class="cls-2" x1="98.51" y1="450.84" x2="95.65" y2="468.12"/>
    <line class="cls-2" x1="447.86" y1="501.06" x2="448.43" y2="506.68"/>
    <path class="cls-2" d="M263.37,263.08c-.97-1.3-1.49-2.93-1.1-4.58"/>
    <line class="cls-2" x1="517.69" y1="221.62" x2="520.78" y2="237.45"/>
    <path class="cls-2" d="M264.49,262c-.99-1.34-1.42-3.04-.72-4.66.69-1.57,2.23-2.51,3.79-2.9,1.6-.4,3.33-.28,4.88.23,1.53.5,3.03,1.44,4.01,2.75"/>
    <line class="cls-2" x1="543.35" y1="376.77" x2="546.53" y2="393.35"/>
    <path class="cls-2" d="M451.34,92.31c-.91,2.36-1.83,4.71-2.7,7.09-.43,1.19-.85,2.38-1.2,3.59-.32,1.11-.67,2.54-.62,3.72"/>
    <path class="cls-2" d="M233.7,74.89c-.13-.39-.43-.77-.68-1.08-.42-.51-.86-.99-1.3-1.47-.73-.8-1.45-1.61-2.15-2.44-1.4-1.65-2.73-3.36-3.99-5.13-2.53-3.54-4.77-7.23-6.86-11.04"/>
    <path class="cls-2" d="M126.73,112.04c-1.55,3.99-3.24,7.92-5.09,11.78-1.85,3.87-3.85,7.64-6.04,11.32"/>
    <path class="cls-2" d="M276.46,257.42c1,1.34,1.44,3.05.74,4.67-.68,1.58-2.24,2.52-3.8,2.91-1.6.4-3.34.28-4.89-.23-1.54-.5-3.03-1.44-4.02-2.77"/>
    <line class="cls-2" x1="520.78" y1="237.45" x2="520.54" y2="239.66"/>
    <line class="cls-2" x1="270.4" y1="262.92" x2="273.02" y2="260.98"/>
    <line class="cls-2" x1="46.85" y1="303.53" x2="43.04" y2="319.94"/>
    <line class="cls-2" x1="546.53" y1="393.35" x2="546.09" y2="397.52"/>
    <path class="cls-2" d="M112.71,248.23c-2.68,21.25.08,42.49,7.77,62.42,7.68,19.91,19.91,37.62,35.04,52.5,15.14,14.89,33.03,26.82,52.23,35.71,19.23,8.91,39.85,14.82,60.81,17.79"/>
    <path class="cls-2" d="M268.55,416.64c25.85,3.65,52.42,2.86,77.99-2.44,25.54-5.29,50.35-15.13,72.15-29.65,21.71-14.46,40.42-33.58,52.97-56.75,3.18-5.87,5.91-11.89,8.21-18.16,2.22-6.06,3.98-12.19,5.28-18.51,2.66-12.86,3.32-25.96,1.94-39.01"/>
    <path class="cls-2" d="M220.24,180.3c-.04.23-.32.34-.5.38-.23.05-.44.05-.67,0"/>
    <line class="cls-2" x1="259.46" y1="396.57" x2="259.39" y2="398.29"/>
    <line class="cls-2" x1="296.55" y1="348.95" x2="297.57" y2="345.38"/>
    <line class="cls-2" x1="285" y1="401.94" x2="285.04" y2="400.22"/>
    <line class="cls-2" x1="334.72" y1="76.09" x2="334.05" y2="79.16"/>
    <path class="cls-2" d="M57.46,331.77c-1.84,7.58-3.68,15.17-5.52,22.75-.92,3.79-1.84,7.58-2.76,11.38s-1.84,7.59-2.76,11.38"/>
    <path class="cls-2" d="M56.93,247.06c-2.25,7.88-4.49,15.77-6.74,23.65-1.12,3.94-2.25,7.89-3.37,11.83l-3.37,11.83"/>
    <path class="cls-2" d="M57.37,296.42c1.47-8.06,2.94-16.13,4.41-24.19.73-4.03,1.47-8.06,2.2-12.1s1.47-8.06,2.2-12.1"/>
    <path class="cls-2" d="M79.54,256.05c-1.8,10.63-3.6,21.27-5.4,31.9"/>
    <path class="cls-2" d="M56.93,247.06c-2.95,1.63-5.97,3.04-9.12,4.25-1.57.6-3.15,1.15-4.77,1.6-.81.23-1.62.43-2.45.56-.45.07-.9.12-1.35.13-.37,0-.78-.03-1.14-.18"/>
    <path class="cls-2" d="M53.21,243.74c.85,1.42,2.18,2.65,3.72,3.32"/>
    <path class="cls-2" d="M515.83,443.9c-.47-2.82-.93-5.64-1.4-8.45s-.93-5.64-1.4-8.46c-.93-5.63-1.87-11.27-2.8-16.9"/>
    <path class="cls-2" d="M534.72,327.56c1.88,13.37,3.76,26.75,5.64,40.12"/>
    <path class="cls-2" d="M553.35,369.6c-.88-3.88-1.77-7.75-2.65-11.63-.88-3.88-1.77-7.75-2.65-11.63-1.77-7.75-3.53-15.51-5.3-23.26"/>
    <path class="cls-2" d="M266.01,435.45c-20.79-2.91-41.27-8.49-60.58-16.77-19.29-8.27-37.49-19.29-53.44-33.02-4.03-3.47-7.89-7.09-11.61-10.89-3.63-3.72-7.08-7.58-10.37-11.61-6.64-8.15-12.52-16.91-17.45-26.2-9.91-18.66-15.79-39.06-16.76-60.24"/>
    <path class="cls-2" d="M446.48,106.52c-.63-.41-.91-.9-.87-1.66.03-.64.28-1.33.5-1.9.43-1.09,1.15-2.54,1.67-3.58.83-1.65,2.75-5.4,3.56-7.06"/>
    <path class="cls-2" d="M503.36,280.89c-1.76,26.67-11.28,51.73-26.48,73.47-15.19,21.71-35.49,39.36-58.2,52.61-22.78,13.29-48.06,22.23-73.93,26.92-25.91,4.71-52.65,5.22-78.73,1.56"/>
  </g>
  <g id="Make2D::可见线::曲线">
    <path class="cls-2" d="M510.15,228.3c.47,2.51,1.88,4.66,3.83,6.24,1.95,1.58,4.35,2.53,6.8,2.91"/>
    <path class="cls-2" d="M22.5,305.82c-.4,1.57-.28,3.18.25,4.7.53,1.51,1.44,2.86,2.56,3.98,2.25,2.25,5.34,3.64,8.44,4.1"/>
    <path class="cls-2" d="M30.43,299.06c2.07,1.68,4.65,2.74,7.27,3.12"/>
    <path class="cls-2" d="M56.37,312.8c.72-3.22-.7-6.31-2.92-8.49-2.23-2.2-5.26-3.56-8.31-4.01"/>
    <path class="cls-2" d="M151.34,159.1c-3.39,2.7-7.93,3.56-12.09,2.91"/>
    <path class="cls-2" d="M185.33,145.43c.18-1.37-.35-2.68-1.27-3.66-.92-.98-2.18-1.6-3.49-1.81"/>
    <path class="cls-2" d="M499.26,431.02c-.22-2.26.51-4.44,1.78-6.26"/>
    <path class="cls-2" d="M529.22,358.14c-.12-.91-.11-1.8.04-2.71"/>
    <path class="cls-2" d="M177.3,515.7c.22-1.44.85-2.77,1.76-3.89"/>
    <path class="cls-2" d="M321.95,85.92c.11-.52.56-.89.97-1.12.45-.26.93-.42,1.43-.54.97-.24,2.05-.32,3.04-.3"/>
    <path class="cls-2" d="M174.34,143.87c-.19,1.38.33,2.7,1.25,3.69s2.19,1.61,3.51,1.82"/>
    <path class="cls-2" d="M423.34,505.94c.2,2.39,1.62,4.35,3.46,5.71,1.85,1.36,4.12,2.15,6.36,2.45"/>
    <path class="cls-2" d="M537.83,386.3c.38,2.02,1.59,3.68,3.19,4.88,1.6,1.19,3.55,1.88,5.5,2.17"/>
    <path class="cls-2" d="M85.54,308.43c-4.85,24.58-2.84,49.49,5.55,73.05,4.15,11.67,9.77,22.73,16.59,33.06,3.41,5.17,7.09,10.1,11.04,14.86,3.96,4.76,8.14,9.29,12.57,13.62,17.69,17.33,38.73,31.08,61.19,41.24,22.51,10.19,46.64,16.89,71.09,20.19"/>
    <path class="cls-2" d="M271.67,276.51c-.27.1-.53.21-.8.32"/>
    <path class="cls-2" d="M262.76,291.42c-1.39-.21-3.01.04-4.14,1"/>
    <path class="cls-2" d="M337.09,302.57c-1.26-.19-2.7,0-3.78.8"/>
    <path class="cls-2" d="M296.55,348.95c-1.41-.21-3.02.06-4.15,1.05"/>
    <line class="cls-2" x1="275.09" y1="276.18" x2="291.74" y2="278.69"/>
    <path class="cls-2" d="M275.09,276.18c-1.13-.17-2.34-.09-3.43.33"/>
    <path class="cls-2" d="M297.57,345.38c-1.04-.15-2.16-.05-3.13.39-.97.44-1.78,1.22-2.08,2.29"/>
    <path class="cls-2" d="M261.85,401.43c1.86,2.05,4.44,3.38,7.07,4.04"/>
    <line class="cls-2" x1="246.73" y1="305.73" x2="247.59" y2="302.09"/>
    <line class="cls-2" x1="350.45" y1="330.89" x2="349.29" y2="334.44"/>
    <path class="cls-2" d="M302.23,350.89c.4-1.38-.17-2.75-1.1-3.72-.94-.98-2.24-1.6-3.56-1.79"/>
    <path class="cls-2" d="M301.16,352.51c-.3-.99-.99-1.82-1.8-2.42-.82-.6-1.81-.99-2.82-1.14"/>
    <path class="cls-2" d="M267.12,294.51c-.35-.87-1.02-1.59-1.78-2.1-.77-.52-1.67-.86-2.58-.99"/>
    <line class="cls-2" x1="211.62" y1="180.68" x2="209.47" y2="180.34"/>
    <line class="cls-2" x1="209.47" y1="180.34" x2="209.13" y2="179.58"/>
    <line class="cls-2" x1="215.13" y1="179.61" x2="213.77" y2="181.01"/>
    <line class="cls-2" x1="213.77" y1="181.01" x2="211.62" y2="180.68"/>
    <path class="cls-2" d="M211.62,180.68c1.23.19,2.6-.14,3.5-1.07"/>
    <path class="cls-2" d="M215.13,179.61c.21-.22.39-.46.53-.74"/>
    <line class="cls-2" x1="209.47" y1="180.34" x2="209.27" y2="182.4"/>
    <line class="cls-2" x1="215.71" y1="179" x2="215.13" y2="179.61"/>
    <path class="cls-2" d="M259.39,398.29c-.22-1.5-1.23-2.71-2.44-3.49"/>
    <line class="cls-2" x1="271.62" y1="259.83" x2="273.5" y2="260.8"/>
    <line class="cls-2" x1="273.5" y1="260.8" x2="273.56" y2="261.93"/>
    <path class="cls-2" d="M273.02,260.98c-.37-.49-.86-.88-1.4-1.16"/>
    <path class="cls-2" d="M271.62,259.83c-1.1-.57-2.51-.73-3.7-.28"/>
    <path class="cls-2" d="M267.92,259.55c-.43.16-.78.38-1.1.71"/>
    <line class="cls-2" x1="274.12" y1="258.32" x2="270.34" y2="256.38"/>
    <line class="cls-2" x1="269.73" y1="258.86" x2="270.34" y2="256.38"/>
    <line class="cls-2" x1="270.34" y1="256.38" x2="266.7" y2="257.76"/>
    <path class="cls-2" d="M259.39,398.29c.4,2.71,2.09,4.95,4.21,6.5,2.14,1.57,4.76,2.48,7.36,2.79,2.62.31,5.36.03,7.84-.89,2.45-.9,4.77-2.48,6.2-4.75"/>
    <line class="cls-2" x1="33.75" y1="318.59" x2="43.04" y2="319.94"/>
    <path class="cls-2" d="M262.17,268.07c-.96-1.3-1.49-2.93-1.09-4.58"/>
    <path class="cls-2" d="M277.18,257.47c1.06,1.42,1.6,3.2,1.15,4.98"/>
    <line class="cls-2" x1="278.33" y1="262.45" x2="277.07" y2="267.43"/>
    <path class="cls-2" d="M262.27,258.5c.36-1.52,1.36-2.72,2.66-3.52,1.29-.8,2.82-1.16,4.32-1.18,2.93-.04,6.12,1.24,7.93,3.67"/>
    <line class="cls-2" x1="261.08" y1="263.49" x2="262.27" y2="258.5"/>
    <line class="cls-2" x1="262.03" y1="275.44" x2="263.48" y2="269.46"/>
    <path class="cls-2" d="M262.03,275.44c-.22.9.06,1.79.59,2.5"/>
    <path class="cls-2" d="M273.5,261.95c-.1-.36-.26-.67-.48-.97"/>
    <line class="cls-2" x1="266.8" y1="259.98" x2="267.92" y2="259.55"/>
    <line class="cls-2" x1="45.13" y1="300.3" x2="35.76" y2="298.92"/>
    <line class="cls-2" x1="267.92" y1="259.55" x2="269.73" y2="258.86"/>
    <line class="cls-2" x1="269.73" y1="258.86" x2="271.62" y2="259.83"/>
    <line class="cls-2" x1="274.28" y1="261.65" x2="274.12" y2="258.32"/>
    <line class="cls-2" x1="273.5" y1="260.8" x2="274.12" y2="258.32"/>
    <path class="cls-2" d="M520.78,237.45c4.48.7,9.3-.45,12.96-3.15,1.82-1.35,3.37-3.11,4.35-5.19.97-2.08,1.31-4.39.82-6.67"/>
    <path class="cls-2" d="M546.53,393.35c3.56.52,7.43-.28,10.46-2.25,1.51-.98,2.86-2.3,3.75-3.9.89-1.61,1.27-3.44.9-5.27"/>
    <path class="cls-2" d="M123.5,162.47c-.5,3.75.99,7.33,3.52,9.98,2.53,2.66,6,4.33,9.58,4.89"/>
    <path class="cls-2" d="M136.6,177.34c3.52.55,7.27.04,10.44-1.71,3.17-1.76,5.56-4.7,6.14-8.38"/>
    <path class="cls-2" d="M95.65,468.12c2.91.4,6.06.08,8.77-1.15,2.67-1.22,5.06-3.45,5.55-6.56"/>
    <path class="cls-2" d="M537.01,439.2c-2.33,3.13-6.11,5.07-9.79,5.84-3.72.78-7.89.52-11.39-1.15"/>
    <path class="cls-2" d="M427.82,211.43c.02-.06.03-.12.04-.18"/>
    <path class="cls-2" d="M425.29,213.8c1.13-.33,2.2-1.16,2.53-2.37"/>
    <path class="cls-2" d="M423.37,213.93c.64.1,1.3.06,1.92-.13"/>
    <line class="cls-2" x1="421.68" y1="213.23" x2="420.76" y2="212.55"/>
    <line class="cls-2" x1="427.82" y1="211.43" x2="427.34" y2="213.2"/>
    <line class="cls-2" x1="427.34" y1="213.2" x2="425.29" y2="213.8"/>
    <line class="cls-2" x1="425.29" y1="213.8" x2="423.24" y2="214.4"/>
    <line class="cls-2" x1="423.24" y1="214.4" x2="421.68" y2="213.23"/>
    <path class="cls-2" d="M421.68,213.23c.5.37,1.09.6,1.7.69"/>
    <line class="cls-2" x1="423.47" y1="216.5" x2="427.57" y2="215.3"/>
    <path class="cls-2" d="M425.73,201.36c1.5.24,2.97.85,4.14,1.86,1.17,1.01,1.97,2.38,2.15,3.94"/>
    <path class="cls-2" d="M432.51,211.38c.29,2.53-1.01,4.83-2.99,6.27-1.97,1.44-4.53,2-6.91,1.63"/>
    <line class="cls-2" x1="432.02" y1="207.16" x2="432.51" y2="211.38"/>
    <line class="cls-2" x1="427.87" y1="211.25" x2="427.82" y2="211.43"/>
    <path class="cls-2" d="M420.83,212.28c.22.39.49.69.85.95"/>
    <line class="cls-2" x1="427.57" y1="215.3" x2="427.34" y2="213.2"/>
    <line class="cls-2" x1="427.57" y1="215.3" x2="428.54" y2="211.75"/>
    <line class="cls-2" x1="420.32" y1="214.16" x2="423.47" y2="216.5"/>
    <line class="cls-2" x1="423.24" y1="214.4" x2="423.47" y2="216.5"/>
    <path class="cls-2" d="M520.54,239.66c-3.8-.59-7.55-2.44-9.88-5.68-2.39-3.32-2.75-7.39-1.19-11.12,1.52-3.65,4.62-6.44,8.09-8.09,3.51-1.67,7.56-2.29,11.4-1.68"/>
    <line class="cls-2" x1="336.83" y1="96.23" x2="336.79" y2="101.77"/>
    <path class="cls-2" d="M336.83,96.23c0-.36-.24-.69-.47-.92"/>
    <path class="cls-2" d="M313.23,157.78c-.67-.11-1.37-.34-1.97-.68-.49-.28-1.27-.86-1.24-1.57"/>
    <path class="cls-2" d="M528.96,213.1c3.8.6,7.54,2.45,9.86,5.69,2.38,3.31,2.73,7.37,1.18,11.1-1.52,3.65-4.61,6.43-8.08,8.09-3.5,1.67-7.54,2.29-11.38,1.69"/>
    <line class="cls-2" x1="313.84" y1="154.96" x2="315.97" y2="155.32"/>
    <path class="cls-2" d="M439.38,495.74c3.1.43,6.36,1.7,8.57,4.07,2.33,2.49,3.04,5.78,1.6,8.95-1.36,2.99-4.23,5.06-7.12,6.2-2.98,1.18-6.34,1.56-9.51,1.13"/>
    <path class="cls-2" d="M333.68,88.94c-.54,2.48,1.13,4.84,2.68,6.38"/>
    <path class="cls-2" d="M336.77,101.93c.01-.05.02-.11.02-.16"/>
    <path class="cls-2" d="M306.17,320.7c-1.13-.58-2.57-.75-3.78-.26"/>
    <line class="cls-2" x1="306.17" y1="320.7" x2="308.11" y2="321.71"/>
    <line class="cls-2" x1="308.11" y1="321.71" x2="308.2" y2="323.16"/>
    <line class="cls-2" x1="308.81" y1="319.28" x2="304.91" y2="317.26"/>
    <line class="cls-2" x1="304.22" y1="319.69" x2="304.91" y2="317.26"/>
    <path class="cls-2" d="M98.35,448.82c3.25.45,6.54,1.73,9.07,3.89,1.26,1.08,2.35,2.39,3.07,3.9.72,1.52,1.03,3.18.79,4.87-.24,1.68-1.01,3.19-2.12,4.45-1.11,1.26-2.51,2.22-4.02,2.91-3.03,1.39-6.54,1.74-9.79,1.3"/>
    <path class="cls-2" d="M136.26,179.59c-3.98-.62-7.83-2.48-10.64-5.42-2.81-2.94-4.48-6.91-3.94-11.07.54-4.18,3.19-7.55,6.75-9.57,3.55-2.01,7.8-2.59,11.77-1.96"/>
    <path class="cls-2" d="M304.44,339.29c.17-.25.3-.52.39-.81"/>
    <path class="cls-2" d="M140.2,151.57c3.97.63,7.81,2.49,10.62,5.43,2.8,2.94,4.46,6.9,3.92,11.05-.54,4.17-3.18,7.54-6.74,9.56-3.54,2.01-7.78,2.6-11.74,1.98"/>
    <path class="cls-2" d="M311.64,328.75c-.16.54-.39,1.01-.7,1.47"/>
    <path class="cls-2" d="M546.09,397.52c-3.38-.49-6.89-2.01-9.08-4.84-2.29-2.96-2.54-6.61-.9-9.92,1.58-3.19,4.59-5.49,7.75-6.82,3.21-1.35,6.87-1.84,10.33-1.33"/>
    <path class="cls-2" d="M554.19,374.61c3.38.5,6.87,2.02,9.06,4.85,2.28,2.96,2.53,6.61.89,9.91-1.58,3.18-4.58,5.49-7.73,6.81-3.21,1.35-6.86,1.84-10.31,1.34"/>
    <line class="cls-2" x1="295.39" y1="324.1" x2="296.76" y2="319.21"/>
    <line class="cls-2" x1="296.14" y1="335.61" x2="297.59" y2="330.45"/>
    <line class="cls-2" x1="296.04" y1="335.96" x2="296.14" y2="335.61"/>
    <path class="cls-2" d="M308.18,323.16c-.21-1.11-1.08-1.98-2.02-2.47"/>
    <line class="cls-2" x1="302.38" y1="320.44" x2="304.22" y2="319.69"/>
    <line class="cls-2" x1="304.22" y1="319.69" x2="306.17" y2="320.7"/>
    <line class="cls-2" x1="308.81" y1="319.28" x2="308.11" y2="321.71"/>
    <line class="cls-2" x1="309.04" y1="322.81" x2="308.81" y2="319.28"/>
    <path class="cls-2" d="M33.06,322.88c-3.62-.53-7.2-2.06-9.95-4.53-2.71-2.44-4.69-5.91-4.42-9.75.28-3.9,2.8-6.94,6.1-8.68,3.28-1.73,7.19-2.17,10.78-1.64"/>
    <line class="cls-2" x1="306.42" y1="332.97" x2="304.82" y2="338.47"/>
    <line class="cls-2" x1="42.35" y1="324.23" x2="33.06" y2="322.88"/>
    <path class="cls-2" d="M44.97,299.65c3.61.53,7.18,2.07,9.91,4.54,2.7,2.44,4.65,5.92,4.35,9.75-.31,3.89-2.84,6.9-6.12,8.64-3.27,1.73-7.17,2.17-10.76,1.65"/>
    <path class="cls-2" d="M180.65,348.69c.5.32,1.08.53,1.67.61"/>
    <line class="cls-2" x1="180.65" y1="348.69" x2="179.18" y2="347.74"/>
    <path class="cls-2" d="M182.32,349.31c.59.09,1.21.05,1.79-.11"/>
    <line class="cls-2" x1="185.97" y1="348.66" x2="184.11" y2="349.2"/>
    <path class="cls-2" d="M184.11,349.2c.82-.23,1.61-.75,1.98-1.57"/>
    <line class="cls-2" x1="182.24" y1="349.73" x2="182" y2="351.96"/>
    <line class="cls-2" x1="182" y1="351.96" x2="185.74" y2="350.89"/>
    <line class="cls-2" x1="174.95" y1="347.33" x2="175.47" y2="342.84"/>
    <line class="cls-2" x1="190.74" y1="344.45" x2="190.28" y2="348.94"/>
    <path class="cls-2" d="M179.33,346.85c.14.79.68,1.42,1.32,1.84"/>
    <line class="cls-2" x1="186.15" y1="347.67" x2="185.97" y2="348.66"/>
    <line class="cls-2" x1="184.11" y1="349.2" x2="182.24" y2="349.73"/>
    <line class="cls-2" x1="182.24" y1="349.73" x2="180.65" y2="348.69"/>
    <line class="cls-2" x1="178.81" y1="349.89" x2="182" y2="351.96"/>
    <line class="cls-2" x1="185.97" y1="348.66" x2="185.74" y2="350.89"/>
    <line class="cls-2" x1="185.74" y1="350.89" x2="186.29" y2="347.76"/>
    <path class="cls-2" d="M382.34,376.97c.28-.25.49-.52.66-.85"/>
    <path class="cls-2" d="M379.07,377.87c1.12.16,2.4-.12,3.27-.89"/>
    <line class="cls-2" x1="379.07" y1="377.87" x2="377.12" y2="377.59"/>
    <line class="cls-2" x1="377.12" y1="377.59" x2="376.61" y2="376.38"/>
    <line class="cls-2" x1="35.57" y1="298.27" x2="44.97" y2="299.65"/>
    <path class="cls-2" d="M46.43,377.27c-3.89.54-8.05-.17-11.54-1.96-1.76-.9-3.38-2.08-4.72-3.56-1.32-1.46-2.35-3.22-2.81-5.16"/>
    <line class="cls-2" x1="372.29" y1="377.2" x2="372.06" y2="372.67"/>
    <path class="cls-2" d="M372.06,372.67c-.02-.5.03-.96.15-1.44"/>
    <line class="cls-2" x1="387.16" y1="371.85" x2="387.45" y2="376.37"/>
    <path class="cls-2" d="M376.63,376.37c.5.88,1.5,1.36,2.44,1.5"/>
    <line class="cls-2" x1="382.34" y1="376.97" x2="381.01" y2="378.15"/>
    <line class="cls-2" x1="381.01" y1="378.15" x2="379.07" y2="377.87"/>
    <line class="cls-2" x1="377.25" y1="379.84" x2="377.12" y2="377.59"/>
    <line class="cls-2" x1="376.01" y1="376.92" x2="377.25" y2="379.84"/>
    <path class="cls-2" d="M70.07,363.08c.21,1.05.24,2.13.08,3.19"/>
    <path class="cls-2" d="M43.46,294.37c-4-.59-7.98-2.43-10.82-5.39-1.42-1.49-2.54-3.23-3.17-5.21-.63-1.97-.71-4.06-.14-6.06"/>
    <line class="cls-2" x1="383.08" y1="376.32" x2="382.34" y2="376.97"/>
    <path class="cls-2" d="M342.37,270.95c-.31.12-.58.28-.83.49"/>
    <path class="cls-2" d="M344.15,270.7c-.6-.04-1.22.03-1.78.25"/>
    <line class="cls-2" x1="345.99" y1="271.22" x2="347.87" y2="272.18"/>
    <line class="cls-2" x1="347.87" y1="272.18" x2="347.97" y2="273.43"/>
    <path class="cls-2" d="M345.99,271.22c-.57-.29-1.21-.47-1.84-.52"/>
    <line class="cls-2" x1="348.62" y1="269.75" x2="344.85" y2="267.83"/>
    <line class="cls-2" x1="344.11" y1="270.26" x2="344.85" y2="267.83"/>
    <line class="cls-2" x1="57.37" y1="296.42" x2="43.46" y2="294.37"/>
    <path class="cls-2" d="M340.37,291c.79.06,1.62-.06,2.35-.41.73-.35,1.33-.93,1.58-1.73"/>
    <line class="cls-2" x1="335.89" y1="286.29" x2="337.68" y2="280.38"/>
    <path class="cls-2" d="M335.89,286.29c-.38,1.26.26,2.49,1.15,3.3.9.83,2.13,1.32,3.34,1.4"/>
    <path class="cls-2" d="M344.54,265.29c2.26.17,4.56,1.12,6.21,2.72.82.8,1.5,1.77,1.87,2.86.38,1.1.43,2.27.08,3.39"/>
    <line class="cls-2" x1="352.7" y1="274.27" x2="351.18" y2="279.14"/>
    <path class="cls-2" d="M347.94,273.44c-.25-1.01-1.09-1.78-1.96-2.23"/>
    <line class="cls-2" x1="341.52" y1="271.28" x2="342.37" y2="270.95"/>
    <line class="cls-2" x1="346.13" y1="282.96" x2="344.3" y2="288.86"/>
    <path class="cls-2" d="M74.14,287.95c-1.02,3.38-3.67,5.84-6.77,7.22-3.12,1.39-6.66,1.74-10,1.25"/>
    <line class="cls-2" x1="342.37" y1="270.95" x2="344.11" y2="270.26"/>
    <line class="cls-2" x1="344.11" y1="270.26" x2="345.99" y2="271.22"/>
    <line class="cls-2" x1="348.9" y1="273.06" x2="348.62" y2="269.75"/>
    <line class="cls-2" x1="347.87" y1="272.18" x2="348.62" y2="269.75"/>
    <line class="cls-2" x1="344.85" y1="267.83" x2="341.35" y2="269.21"/>
    <path class="cls-2" d="M74.14,287.95c2.05-6.75,4.53-13.29,7.47-19.71"/>
    <path class="cls-2" d="M572.6,358.39c-.36,2.02-1.34,3.87-2.65,5.42-1.33,1.56-2.97,2.8-4.76,3.75-3.57,1.88-7.84,2.62-11.83,2.03"/>
    <path class="cls-2" d="M540.35,367.68c-2.57-.38-5.12-1.33-7.2-2.95-2.08-1.63-3.58-3.9-3.94-6.58"/>
    <line class="cls-2" x1="540.35" y1="367.68" x2="553.35" y2="369.6"/>
    <path class="cls-2" d="M263.56,504.45c30.01,4.06,60.89,3.07,90.57-3.04,29.61-6.09,58.5-17.39,83.83-34.17,25.2-16.69,47-38.97,61.04-66.18,14.12-27.37,19.31-57.81,13.94-88.33"/>
    <path class="cls-2" d="M559.04,226.11c-18.28-30.2-43.72-55.43-72.65-75.16-29.03-19.79-61.69-34.18-95.49-43.33"/>
    <path class="cls-2" d="M341.6,305.92c-.32-.94-1.01-1.71-1.8-2.27-.8-.56-1.75-.93-2.71-1.08"/>
    <path class="cls-2" d="M328.43,77.2c.12-.54.9-.81,1.31-.92.54-.15,1.09-.22,1.65-.27,1.12-.09,2.22-.04,3.34.08"/>
    <path class="cls-2" d="M190.28,348.94c-.2,1.99-1.5,3.56-3.18,4.49-1.67.93-3.68,1.21-5.54.94"/>
    <path class="cls-2" d="M289.01,399.44c30.44,1.8,61.68-3.62,89.46-16.57"/>
    <line class="cls-2" x1="328.43" y1="77.21" x2="328.43" y2="77.2"/>
    <path class="cls-2" d="M524.71,213.38c1.21,2.15,2.49,4.26,3.83,6.34"/>
    <path class="cls-2" d="M140.55,249.48c-3.94,26.3,2,52.24,15.68,74.75"/>
    <path class="cls-2" d="M292.37,360.51c-.76-.11-1.56-.03-2.27.29-.7.32-1.29.89-1.51,1.66"/>
    <path class="cls-2" d="M291.96,366.44c.75.11,1.56.03,2.26-.29.7-.32,1.28-.88,1.51-1.65"/>
    <path class="cls-2" d="M156.49,206.41c-7.96,12.94-13.44,27.2-15.81,42.26"/>
    <path class="cls-2" d="M103.96,450.71c-1.79.35-3.65.38-5.45.13"/>
    <path class="cls-2" d="M320.76,130.07s-.02,0-.04,0"/>
    <path class="cls-2" d="M544.08,376.39c.02.06.04.13.06.19"/>
    <path class="cls-2" d="M529.41,354.41c-.12-.13-.23-.27-.35-.4"/>
    <path class="cls-2" d="M235.68,87.43c.26-.22.53-.33.85-.39"/>
    <path class="cls-2" d="M46,205.98c-.06.08-.11.16-.16.25"/>
    <path class="cls-2" d="M439.37,495.84c-2.47.86-5.2,1.13-7.79.77"/>
    <path class="cls-2" d="M123.59,161.91c-.03.19-.06.37-.09.56"/>
    <path class="cls-2" d="M84.04,456.5c-.27,1.53-.03,3.05.6,4.45.63,1.39,1.61,2.6,2.75,3.59,2.3,1.99,5.3,3.17,8.26,3.57"/>
    <line class="cls-2" x1="84.04" y1="456.5" x2="84.17" y2="455.73"/>
    <path class="cls-2" d="M240.09,277.24c1.09,1.13,2.06,2.34,2.93,3.64.78,1.16,1.72,2.79,2.07,4.17"/>
    <path class="cls-2" d="M328.73,83.5s0-.04,0-.06"/>
    <path class="cls-2" d="M328.77,93.1c.03-.12.04-.24.04-.36"/>
    <path class="cls-2" d="M339.1,534.63c.2,3.19-1.68,5.85-4.1,7.6-2.43,1.75-5.49,2.67-8.42,2.9"/>
    <path class="cls-2" d="M574.88,329.1c.26.93.38,1.84.36,2.81"/>
    <line class="cls-2" x1="142.86" y1="253.62" x2="143.49" y2="249.54"/>
    <line class="cls-2" x1="456.4" y1="252.79" x2="456.94" y2="256.87"/>
    <path class="cls-2" d="M143.49,249.54c2.64-17.07,9.34-33.05,19.11-47.2"/>
    <path class="cls-2" d="M456.4,252.79c.09.68.17,1.36.25,2.04"/>
    <path class="cls-2" d="M295.73,364.5c.29-.99-.12-1.99-.79-2.69-.67-.71-1.62-1.16-2.57-1.3"/>
    <path class="cls-2" d="M552.69,409.77c.6,2.34.16,4.69-.99,6.76"/>
    <path class="cls-2" d="M82.44,265.48c-.15.97-.42,1.88-.83,2.77"/>
    <path class="cls-2" d="M143.19,251.58c.09-.68.19-1.36.3-2.04"/>
    <path class="cls-2" d="M70.16,366.26c-.39,2.64-1.91,4.84-3.98,6.42-2.05,1.57-4.6,2.48-7.12,2.83"/>
    <path class="cls-2" d="M236.55,87.04c.38-.07.74-.04,1.12.04"/>
    <path class="cls-2" d="M348.71,302.1c.04-.18.09-.36.13-.54"/>
    <path class="cls-2" d="M45.84,206.23c-.05.08-.1.16-.15.25"/>
    <path class="cls-2" d="M348.74,302.3c-.04,1.08-.09,2.16-.13,3.24"/>
    <path class="cls-2" d="M140.42,250.3c-2.91,18.49-.96,37.1,5.46,54.64,6.4,17.51,16.92,33.09,30.06,46.15"/>
    <path class="cls-2" d="M459.22,251.97c-2.06-15.08-7.23-29.43-14.9-42.52"/>
    <line class="cls-2" x1="140.42" y1="250.3" x2="140.68" y2="248.67"/>
    <path class="cls-2" d="M263.65,287.77c-1.04-.16-2.16-.06-3.14.37-.98.43-1.8,1.21-2.07,2.3"/>
    <path class="cls-2" d="M338.2,298.97c-.97-.15-2.02-.07-2.94.32-.92.39-1.71,1.09-2.01,2.09"/>
    <line class="cls-2" x1="459.22" y1="251.97" x2="459.44" y2="253.6"/>
    <path class="cls-2" d="M561.64,381.94c-.41-1.98-1.62-3.61-3.22-4.78-1.59-1.17-3.51-1.85-5.43-2.13"/>
    <path class="cls-2" d="M342.78,304.31c.42-1.34-.18-2.68-1.09-3.61-.92-.94-2.2-1.54-3.49-1.73"/>
    <path class="cls-2" d="M268.19,292.84c.33-1.3-.27-2.56-1.16-3.44-.9-.89-2.14-1.44-3.37-1.63"/>
    <path class="cls-2" d="M220.31,179.76c-.02.18-.04.36-.07.54"/>
    <path class="cls-2" d="M153.18,167.25l.02-.11"/>
    <path class="cls-2" d="M16.34,276.51c-2.67,10.07-4.5,20.33-5.45,30.71"/>
    <line class="cls-2" x1="315.97" y1="155.32" x2="316.07" y2="151.63"/>
    <path class="cls-2" d="M16.34,276.51c1.81-6.8,3.84-13.52,6.12-20.17,2.28-6.66,4.8-13.21,7.58-19.67,5.57-12.98,12.05-25.35,19.57-37.31"/>
    <path class="cls-2" d="M423.63,503.29c-.27.88-.38,1.73-.3,2.65"/>
    <path class="cls-2" d="M98.51,450.84c-1.94-.27-3.87-.87-5.6-1.8"/>
    <path class="cls-2" d="M306.25,164.51c-.17,0-.34,0-.5,0"/>
    <path class="cls-2" d="M316.17,151.05c0,.13-.02.25-.05.38"/>
    <line class="cls-2" x1="341.35" y1="269.21" x2="341.62" y2="272.53"/>
    <line class="cls-2" x1="373.87" y1="175.27" x2="376.44" y2="164.74"/>
    <path class="cls-2" d="M396.08,373.33c5.12-3.12,10.03-6.5,14.75-10.19s9.2-7.62,13.43-11.86c8.46-8.47,15.82-18,21.66-28.47,11.81-21.16,16.8-45.04,13.51-69.21"/>
    <path class="cls-2" d="M442.18,327.1c14.09-22.21,20.53-47.98,17.15-74.31"/>
    <path class="cls-2" d="M259.14,395.46c.16.36.26.72.32,1.11"/>
    <path class="cls-2" d="M329.19,136.18s.01,0,.02,0"/>
    <path class="cls-2" d="M177.86,352.96c7.23,6.93,15.18,13.09,23.62,18.46"/>
    <path class="cls-2" d="M288.51,399.43c-1.37.43-2.71,1.26-3.5,2.52"/>
    <path class="cls-2" d="M279.55,404.68c2.17-.93,4.19-2.42,5.49-4.47"/>
    <path class="cls-2" d="M29.33,277.71l1.64-5.46"/>
    <line class="cls-2" x1="208.14" y1="179.94" x2="209.27" y2="182.4"/>
    <path class="cls-2" d="M220.67,175.76c-.01.12-.03.24-.05.36"/>
    <path class="cls-2" d="M209.31,179.52c.62.63,1.45,1.02,2.31,1.16"/>
    <line class="cls-2" x1="327.64" y1="98.32" x2="327.57" y2="101.83"/>
    <path class="cls-2" d="M311.41,153.98c.68.52,1.6.84,2.43.98"/>
    <path class="cls-2" d="M438.31,205.26c9.45,14.33,15.81,30.42,18.09,47.52"/>
    <line class="cls-2" x1="310.07" y1="154" x2="310.01" y2="155.53"/>
    <path class="cls-2" d="M320.35,96.05c1.54.1,3.2.01,4.71-.35.75-.18,1.53-.45,2.21-.84.64-.37,1.33-.96,1.5-1.75"/>
    <path class="cls-2" d="M259.46,396.57c.08.52.2,1.03.37,1.53"/>
    <path class="cls-2" d="M374.34,175.42c-.16-.05-.32-.1-.47-.15"/>
    <path class="cls-2" d="M338.87,533.19c.13.48.21.95.24,1.44"/>
    <line class="cls-2" x1="308.52" y1="153.88" x2="306.25" y2="164.51"/>
    <line class="cls-2" x1="209.27" y1="182.4" x2="213.58" y2="183.08"/>
    <line class="cls-2" x1="213.77" y1="181.01" x2="213.58" y2="183.08"/>
    <line class="cls-2" x1="213.58" y1="183.08" x2="216.29" y2="180.26"/>
    <path class="cls-2" d="M373.87,175.27c-.36-3.89-.72-7.78-1.08-11.67"/>
    <path class="cls-2" d="M43.04,319.94c2.7.39,5.6.1,8.11-1.07,2.5-1.17,4.59-3.25,5.22-6.07"/>
    <line class="cls-2" x1="220.67" y1="175.76" x2="220.31" y2="179.76"/>
    <path class="cls-2" d="M220.24,180.3c-.31,1.74-1.31,3.21-2.7,4.25-1.39,1.03-3.09,1.58-4.8,1.66-1.72.08-3.46-.31-4.97-1.14-1.5-.83-2.77-2.09-3.48-3.69"/>
    <path class="cls-2" d="M46.85,303.53c.11.02.22.03.33.05"/>
    <line class="cls-2" x1="37.7" y1="302.19" x2="46.85" y2="303.53"/>
    <path class="cls-2" d="M433.16,514.1c2.99.41,6.18,0,8.96-1.19,2.68-1.15,5.36-3.25,6.32-6.23"/>
    <line class="cls-2" x1="431.57" y1="496.62" x2="431.17" y2="496.66"/>
    <path class="cls-2" d="M422.61,219.28c-1.56-.24-3.07-.89-4.26-1.96-1.19-1.07-1.98-2.51-2.15-4.12"/>
    <path class="cls-2" d="M431.17,496.66c2.8.38,5.74.12,8.42-.78"/>
    <line class="cls-2" x1="416.21" y1="213.19" x2="415.78" y2="208.97"/>
    <path class="cls-2" d="M415.78,208.97c-.25-2.51,1.14-4.73,3.11-6.09,1.97-1.36,4.49-1.89,6.84-1.52"/>
    <line class="cls-2" x1="327.57" y1="101.83" x2="333.43" y2="102.84"/>
    <line class="cls-2" x1="327.57" y1="101.83" x2="315.97" y2="155.32"/>
    <line class="cls-2" x1="313.23" y1="157.78" x2="321.08" y2="159.11"/>
    <path class="cls-2" d="M448.43,506.68c.3-.93.41-1.89.31-2.87"/>
    <path class="cls-2" d="M324.36,158.13c-.14.64-.92.9-1.44,1-.6.11-1.25.08-1.84-.02"/>
    <path class="cls-2" d="M551.7,416.53c-4.4,7.9-9.29,15.42-14.69,22.67"/>
    <path class="cls-2" d="M505.47,438.98c-3.15-1.5-5.86-4.23-6.21-7.96"/>
    <path class="cls-2" d="M184.14,337.72c1.69.25,3.38.95,4.66,2.13,1.28,1.17,2.13,2.81,1.94,4.61"/>
    <line class="cls-2" x1="505.47" y1="438.98" x2="515.83" y2="443.9"/>
    <path class="cls-2" d="M179.1,149.39c1.35.21,2.78,0,3.98-.69,1.2-.7,2.08-1.85,2.26-3.26"/>
    <path class="cls-2" d="M175.47,342.84c.22-1.95,1.58-3.44,3.23-4.29,1.66-.86,3.62-1.1,5.44-.84"/>
    <line class="cls-2" x1="377.25" y1="379.84" x2="381.14" y2="380.4"/>
    <line class="cls-2" x1="381.01" y1="378.15" x2="381.14" y2="380.4"/>
    <line class="cls-2" x1="381.14" y1="380.4" x2="383.8" y2="378.05"/>
    <path class="cls-2" d="M321.46,516.41c-39.77,2.93-80.58-2.3-118.17-15.93"/>
    <line class="cls-2" x1="185.18" y1="504.19" x2="179.05" y2="511.81"/>
    <path class="cls-2" d="M372.22,371.22c.43-1.63,1.66-2.89,3.07-3.69,1.43-.81,3.1-1.19,4.73-1.15,1.62.03,3.29.48,4.65,1.41,1.35.92,2.39,2.34,2.49,4.05"/>
    <path class="cls-2" d="M356.54,47.23c-45.29-10.29-93.68-8.19-137.82,6.51"/>
    <line class="cls-2" x1="347.87" y1="79.83" x2="344.29" y2="79.21"/>
    <path class="cls-2" d="M340.37,265.96c1.3-.58,2.77-.77,4.17-.67"/>
    <path class="cls-2" d="M185.48,526.38c-2.25-.81-4.43-2.12-6.02-3.96-1.6-1.85-2.54-4.2-2.17-6.72"/>
    <path class="cls-2" d="M330.91,143.66c-1.08-.18-2.16-.35-3.24-.52"/>
    <path class="cls-2" d="M389.17,107.06c.57.21,1.15.4,1.74.56"/>
    <path class="cls-2" d="M317.45,321.56s0,0,0,0"/>
    <path class="cls-2" d="M346.99,83.15c-2.51-.03-5.25.22-7.67.98-1.21.38-2.44.92-3.47,1.69-1.03.77-1.88,1.8-2.17,3.12"/>
    <path class="cls-2" d="M185.48,526.38c44.9,16.21,93.63,22.37,141.1,18.75"/>
    <line class="cls-2" x1="338.87" y1="533.19" x2="336.56" y2="524.53"/>
    <path class="cls-2" d="M23.17,340.31c-.1-1.18.03-2.38.37-3.52"/>
    <line class="cls-2" x1="281.09" y1="309" x2="302.27" y2="248.7"/>
    <path class="cls-2" d="M498.57,148.4c-11.76-21.75-28.1-40.62-47.23-56.09"/>
    <path class="cls-2" d="M23.17,340.31c.74,8.89,2.13,17.6,4.19,26.28"/>
    <line class="cls-2" x1="59.06" y1="375.51" x2="46.43" y2="377.27"/>
    <path class="cls-2" d="M67.54,343.3c.4,6.66,1.24,13.22,2.54,19.77"/>
    <path class="cls-2" d="M126.73,112.04c-8.95,9.8-16.85,20.53-23.42,32.07"/>
    <path class="cls-2" d="M320.35,96.05c-31.69-1.99-63.76.18-94.88,6.57-31.08,6.38-61.48,17.04-89.46,32.14-27.92,15.06-53.61,34.64-74.58,58.66-20.96,24-36.86,52.08-45.09,83.1"/>
    <path class="cls-2" d="M328.82,90.31c0-.29-.36-.51-.56-.6-.26-.13-.53-.21-.82-.25"/>
    <path class="cls-2" d="M327.38,83.95c.25,0,.5-.01.74-.07.18-.04.55-.15.6-.39"/>
    <path class="cls-2" d="M328.41,77.39c.17,2.01.26,4.03.32,6.05"/>
    <path class="cls-2" d="M572.6,358.39c1.55-8.79,2.43-17.57,2.64-26.49"/>
    <path class="cls-2" d="M305.74,164.5c-23.71-.67-47.6,1.75-70.66,7.33-23.03,5.57-45.44,14.35-65.89,26.45-20.39,12.07-38.93,27.54-53.66,46.26-14.73,18.73-25.35,40.35-30,63.89"/>
    <path class="cls-2" d="M529.26,355.43c1.05-6.61,1.64-13.22,1.78-19.91"/>
    <line class="cls-2" x1="545.11" y1="322.61" x2="558.51" y2="320.75"/>
    <path class="cls-2" d="M558.51,320.75c3.26-.45,6.74-.1,9.79,1.26,1.51.67,2.94,1.62,4.09,2.82,1.16,1.2,2.04,2.66,2.49,4.27"/>
    <line class="cls-2" x1="73.59" y1="251.52" x2="61.07" y2="245.63"/>
    <path class="cls-2" d="M73.59,251.52c2.65,1.25,5.06,3.13,6.75,5.57,1.68,2.44,2.56,5.38,2.11,8.38"/>
    <path class="cls-2" d="M29.33,277.71c2.58-9.09,5.82-17.85,9.74-26.45"/>
    <path class="cls-2" d="M39.07,251.26c.88-1.92,2.3-3.52,4.02-4.72,1.73-1.21,3.69-1.99,5.74-2.42,4.08-.85,8.49-.26,12.24,1.51"/>
    <line class="cls-2" x1="53.52" y1="330.77" x2="39.82" y2="328.79"/>
    <path class="cls-2" d="M53.52,330.77c3.31.48,6.59,1.81,9.2,3.94,1.29,1.06,2.46,2.35,3.31,3.8.85,1.45,1.4,3.09,1.51,4.79"/>
    <path class="cls-2" d="M185.18,504.19c2.07-2.57,5.35-4.01,8.45-4.54,3.19-.55,6.61-.26,9.66.84"/>
    <path class="cls-2" d="M321.46,516.41c3.03-.22,6.23.27,9,1.57,1.37.65,2.7,1.53,3.77,2.62,1.07,1.1,1.92,2.42,2.32,3.93"/>
    <path class="cls-2" d="M180.58,139.97c-1.34-.21-2.77,0-3.96.68-1.19.69-2.08,1.82-2.28,3.23"/>
    <path class="cls-2" d="M95.34,470.15c-3.25-.44-6.55-1.73-9.09-3.89-1.27-1.08-2.36-2.39-3.08-3.91-.72-1.52-1.03-3.18-.79-4.87.24-1.69,1.01-3.2,2.12-4.46,1.11-1.26,2.52-2.22,4.03-2.91,3.03-1.39,6.55-1.74,9.8-1.29"/>
    <path class="cls-2" d="M432.93,516.09c-3.1-.42-6.37-1.69-8.59-4.07-2.33-2.49-3.06-5.78-1.61-8.96,1.36-2.99,4.24-5.06,7.14-6.21,2.98-1.18,6.35-1.56,9.52-1.12"/>
    <path class="cls-2" d="M511.65,407.46c-3.19,5.99-6.73,11.74-10.61,17.3"/>
    <path class="cls-2" d="M511.65,407.46c1.61-3.02,4.56-5.18,7.62-6.42,3.12-1.26,6.64-1.69,9.97-1.21"/>
    <line class="cls-2" x1="529.24" y1="399.83" x2="542.04" y2="401.69"/>
    <path class="cls-2" d="M542.04,401.69c2.31.34,4.62,1.13,6.56,2.48,1.93,1.35,3.49,3.25,4.09,5.6"/>
    <path class="cls-2" d="M517.69,221.62c-1.88-.3-3.71-.93-5.34-1.92"/>
    <path class="cls-2" d="M153.2,167.14c.56-3.77-.92-7.38-3.44-10.06-2.53-2.69-6.01-4.38-9.61-4.95"/>
    <path class="cls-2" d="M35.76,298.92c-2.66-.39-5.52-.12-8,1.01-2.47,1.13-4.57,3.13-5.26,5.89"/>
    <path class="cls-2" d="M83.24,454.85c.32.3.64.61.97.91"/>
    <path class="cls-2" d="M376.44,164.74c-1.39-.26-2.81-.72-4.08-1.34"/>
    <path class="cls-2" d="M552.99,375.03c-3.54-.52-7.39.26-10.42,2.2-1.51.97-2.86,2.26-3.77,3.84-.91,1.59-1.32,3.4-.98,5.23"/>
    <path class="cls-2" d="M10.9,307.22c-3.37,37.02,4.67,73.24,21.96,105.87,8.57,16.17,19.23,31.13,31.46,44.71,6.14,6.82,12.62,13.25,19.48,19.35,6.83,6.08,13.93,11.77,21.33,17.12,29.66,21.44,63.43,36.98,98.51,46.85,35.16,9.89,71.99,14.2,108.47,13,9.01-.29,17.98-.92,26.94-1.89,9.1-.98,18.13-2.31,27.13-3.99,18.1-3.38,35.96-8.19,53.28-14.45,17.6-6.36,34.68-14.24,50.86-23.67,15.41-8.98,30.01-19.36,43.41-31.16,6.85-6.03,13.33-12.38,19.47-19.13,6.17-6.78,11.89-13.85,17.21-21.32,10.63-14.93,19.36-31.12,25.7-48.35,12.81-34.8,15.11-71.78,6.34-107.87"/>
    <path class="cls-2" d="M552.4,374.95c-2.62,1.36-5.7,1.92-8.63,1.59"/>
    <path class="cls-2" d="M512.94,312.74c-2.98-16.94-9.07-33.05-17.66-47.89-8.59-14.85-19.54-28.2-32.06-39.86-25.12-23.39-56.31-39.84-88.89-49.57"/>
    <path class="cls-2" d="M459.44,253.6c-2.2-16.1-7.94-31.35-16.47-45.11"/>
    <path class="cls-2" d="M332.18,138.87c-1.15-.2-2.31-.39-3.46-.56"/>
    <path class="cls-2" d="M157.85,205.48c-8.83,13.6-14.9,28.74-17.43,44.82"/>
    <path class="cls-2" d="M463.24,124.64c-.07-.27-.24-.48-.48-.62"/>
    <path class="cls-2" d="M462.76,124.01c-.19-.11-.39-.16-.6-.18"/>
    <path class="cls-2" d="M334.72,76.09c4.57.49,9.13,1.08,13.68,1.75"/>
    <path class="cls-2" d="M49.62,199.35c1.39-2.22,2.9-4.34,4.53-6.39,1.63-2.05,3.36-3.99,5.19-5.86"/>
    <path class="cls-2" d="M23.54,336.79c.48-1.58,1.38-3,2.54-4.16,1.16-1.16,2.58-2.07,4.08-2.71,3.02-1.3,6.45-1.6,9.66-1.13"/>
    <line class="cls-2" x1="328.77" y1="93.1" x2="316.13" y2="151.43"/>
    <path class="cls-2" d="M316.13,151.43c-.16.74-.71,1.27-1.31,1.63-.61.36-1.33.59-2.01.73-1.38.28-2.9.27-4.29.09"/>
    <line class="cls-2" x1="328.73" y1="83.5" x2="327.44" y2="89.45"/>
    <path class="cls-2" d="M565.68,233.04c3.55,7.94,6.71,16,9.5,24.24,2.8,8.24,5.2,16.57,7.26,25.02"/>
    <path class="cls-2" d="M582.44,282.3c-4.83-19.87-12.83-38.73-23.4-56.19"/>
    <path class="cls-2" d="M280.64,311.26c.11-1.11.36-2.16.78-3.2"/>
    <path class="cls-2" d="M262.99,295.5c1.04.16,2.15.06,3.13-.37.97-.43,1.8-1.2,2.07-2.28"/>
    <path class="cls-2" d="M337.83,306.7c.97.14,2.01.07,2.93-.32.92-.38,1.7-1.08,2.01-2.07"/>
    <path class="cls-2" d="M246.73,305.73c-1.43,6.04-1.05,12.21.77,18.1,1.82,5.87,4.99,11.22,8.96,15.84,7.97,9.28,19.14,15.74,30.75,18.99,11.62,3.25,24.52,3.53,36.15-.27,5.8-1.89,11.28-4.82,15.88-8.89,4.61-4.08,8.13-9.15,10.04-15.06"/>
    <path class="cls-2" d="M247.59,302.09c-1.43,6.06-1.05,12.24.79,18.13,1.83,5.88,5.02,11.23,9,15.87,7.99,9.29,19.2,15.76,30.84,19.02,11.64,3.26,24.57,3.55,36.23-.25,5.81-1.89,11.32-4.81,15.93-8.89,4.62-4.09,8.16-9.16,10.08-15.08"/>
    <path class="cls-2" d="M350.45,330.89c2.75-8.48,1.77-17.33-1.82-25.29-3.57-7.93-9.54-14.63-16.42-19.75"/>
    <path class="cls-2" d="M333.24,301.38c-.41,1.34.2,2.68,1.11,3.6.92.94,2.2,1.53,3.48,1.73"/>
    <path class="cls-2" d="M258.45,290.45c-.32,1.3.28,2.56,1.18,3.43.9.88,2.13,1.44,3.37,1.62"/>
    <line class="cls-2" x1="216.29" y1="180.26" x2="215.05" y2="177.54"/>
    <path class="cls-2" d="M328.41,77.39c0-.06,0-.12.01-.18"/>
    <line class="cls-2" x1="270.64" y1="263.05" x2="274.28" y2="261.65"/>
    <line class="cls-2" x1="266.7" y1="257.76" x2="266.85" y2="261.1"/>
    <line class="cls-2" x1="266.85" y1="261.1" x2="270.64" y2="263.05"/>
    <path class="cls-2" d="M262.62,277.94c.96,1.31,2.67,2.01,4.24,2.02.8,0,1.63-.16,2.34-.56.71-.4,1.28-1.02,1.48-1.84"/>
    <line class="cls-2" x1="272.17" y1="271.59" x2="270.68" y2="277.56"/>
    <line class="cls-2" x1="425.39" y1="209.4" x2="421.28" y2="210.61"/>
    <line class="cls-2" x1="421.28" y1="210.61" x2="420.32" y2="214.16"/>
    <path class="cls-2" d="M344.29,79.21c-2.65-.46-5.52-.65-8.21-.36-1.34.14-2.74.41-4.02.88-1.23.45-2.55,1.17-3.38,2.26"/>
    <line class="cls-2" x1="327.83" y1="87.64" x2="327.81" y2="88.69"/>
    <line class="cls-2" x1="326.83" y1="89.33" x2="327.81" y2="88.69"/>
    <path class="cls-2" d="M333.43,102.84c.6.1,1.25.14,1.86.04.5-.08,1.34-.31,1.48-.95"/>
    <path class="cls-2" d="M328.82,90.31c0,.81,0,1.62-.01,2.43"/>
    <line class="cls-2" x1="336.77" y1="101.93" x2="324.36" y2="158.13"/>
    <path class="cls-2" d="M451.34,92.31c-14.89-12.04-31.42-21.99-48.88-29.81"/>
    <path class="cls-2" d="M302.38,320.44c-.39.16-.72.36-1.02.66"/>
    <line class="cls-2" x1="301.35" y1="320.86" x2="302.38" y2="320.44"/>
    <line class="cls-2" x1="304.91" y1="317.26" x2="301.23" y2="318.76"/>
    <line class="cls-2" x1="301.23" y1="318.76" x2="301.44" y2="322.3"/>
    <line class="cls-2" x1="301.44" y1="322.3" x2="305.35" y2="324.33"/>
    <line class="cls-2" x1="305.35" y1="324.33" x2="309.04" y2="322.81"/>
    <path class="cls-2" d="M218.71,53.74c-34.67,11.54-67.09,31.04-91.98,58.3"/>
    <path class="cls-2" d="M302.27,248.7c2.31-6.58,4.65-14.79,6.44-21.52"/>
    <path class="cls-2" d="M310.94,330.22c-1.06,1.56-2.82,2.44-4.59,2.76-1.8.33-3.71.12-5.41-.51-1.7-.63-3.3-1.71-4.39-3.19-1.09-1.47-1.66-3.34-1.15-5.18"/>
    <path class="cls-2" d="M349.86,238.79c-2.4,8.04-5.32,17-8.51,24.78"/>
    <path class="cls-2" d="M297.57,317.5c1.09-1.57,2.84-2.48,4.66-2.82,1.83-.34,3.77-.12,5.49.55,1.72.66,3.31,1.8,4.37,3.34,1.06,1.54,1.54,3.45.99,5.31"/>
    <line class="cls-2" x1="313.07" y1="323.87" x2="311.64" y2="328.75"/>
    <path class="cls-2" d="M296.04,335.96c-.28,1,.02,2.01.61,2.81.59.8,1.45,1.39,2.37,1.74.92.34,1.96.46,2.93.28.96-.18,1.91-.66,2.49-1.5"/>
    <line class="cls-2" x1="179.35" y1="346.75" x2="178.81" y2="349.89"/>
    <line class="cls-2" x1="186.29" y1="347.76" x2="183.09" y2="345.68"/>
    <line class="cls-2" x1="183.09" y1="345.68" x2="179.35" y2="346.75"/>
    <line class="cls-2" x1="383.8" y1="378.05" x2="382.57" y2="375.12"/>
    <line class="cls-2" x1="382.57" y1="375.12" x2="378.67" y2="374.55"/>
    <line class="cls-2" x1="378.67" y1="374.55" x2="376.01" y2="376.92"/>
    <path class="cls-2" d="M387.27,378.04c-.45,1.65-1.66,2.94-3.1,3.77-1.45.83-3.15,1.21-4.81,1.15-1.65-.06-3.33-.56-4.68-1.55-1.35-1-2.31-2.47-2.4-4.2"/>
    <path class="cls-2" d="M387.45,376.37c.04.57-.02,1.11-.17,1.66"/>
    <line class="cls-2" x1="341.62" y1="272.53" x2="345.4" y2="274.46"/>
    <line class="cls-2" x1="345.4" y1="274.46" x2="348.9" y2="273.06"/>
    <path class="cls-2" d="M343.93,283.05c-1.75-.13-3.49-.71-4.96-1.66-1.44-.94-2.73-2.32-3.28-4.02"/>
    <path class="cls-2" d="M351.18,279.14c-.46,1.47-1.58,2.53-2.92,3.17-1.34.64-2.87.84-4.32.73"/>
    <path class="cls-2" d="M387.11,378.55c21.84-11.77,41.19-28.62,54.26-50.09,13.12-21.56,18.95-46.35,15.58-71.59"/>
    <path class="cls-2" d="M282.66,402.04c-1.22,1.66-3.04,2.8-4.94,3.45-1.92.66-4.02.85-6.03.61-2-.24-4.01-.92-5.68-2.09-1.66-1.15-3.02-2.81-3.49-4.85"/>
    <path class="cls-2" d="M282.66,402.04c.71-.97,1.75-1.65,2.85-2.07,1.11-.42,2.32-.59,3.5-.52"/>
    <path class="cls-2" d="M257.65,394.97c1.09.25,2.16.72,3.04,1.43.87.7,1.57,1.65,1.83,2.77"/>
    <path class="cls-2" d="M296.47,353.44c.9.05,1.81.06,2.71.04"/>
    <path class="cls-2" d="M142.86,253.62c-2.71,17.5-.98,35.12,4.84,51.81,5.81,16.66,15.43,31.61,27.54,44.31"/>
    <path class="cls-2" d="M179.15,353.67c10.77,10.42,23.16,19.09,36.43,25.97,13.29,6.88,27.5,11.98,42.08,15.33"/>
    <path class="cls-2" d="M456.94,256.87c-2.67-20-10.9-38.53-23.02-54.47"/>
    <path class="cls-2" d="M167.04,199.57c-12.47,15.7-21.1,34.08-24.18,54.05"/>
    <path class="cls-2" d="M344.88,345.58c-2.58,6.24-5.6,12.09-9.56,17.6-3.92,5.44-8.58,10.29-13.99,14.28-5.37,3.97-11.43,7.06-17.86,8.92-6.42,1.86-13.2,2.5-19.86,1.65-6.66-.85-13.06-3.18-18.8-6.62-2.9-1.74-5.57-3.71-8.09-5.95-2.51-2.23-4.78-4.64-6.87-7.27-2.12-2.67-3.97-5.48-5.6-8.48-1.58-2.91-2.9-5.9-3.99-9.03-2.24-6.45-3.28-12.89-3.53-19.68"/>
    <path class="cls-2" d="M296.76,319.21c.17-.62.44-1.18.81-1.71"/>
    <path class="cls-2" d="M288.6,362.47c-.28.99.13,1.98.8,2.68.67.71,1.62,1.15,2.57,1.29"/>
    <line class="cls-2" x1="308.71" y1="227.19" x2="391.72" y2="-85.16"/>
    <line class="cls-2" x1="446.53" y1="-85.16" x2="349.86" y2="238.79"/>
    <line class="cls-2" x1="341.35" y1="263.57" x2="313.1" y2="332.44"/>
    <path class="cls-2" d="M327.44,89.45c-1.12-.19-2.32-.53-3.36-1.03-.51-.24-1.05-.57-1.47-.96-.4-.37-.8-.93-.67-1.54"/>
    <path class="cls-2" d="M531.03,335.52c.07-3.57,2.08-6.7,4.69-8.87,2.65-2.21,6-3.57,9.39-4.04"/>
    <path class="cls-2" d="M438.96,495.78c-3-.41-6.22-.01-9.01,1.2-2.7,1.17-5.38,3.29-6.31,6.3"/>
    <path class="cls-2" d="M139.25,162c-4.44-.7-8.75-3.18-11.17-7.12"/>
    <path class="cls-2" d="M528.35,213.56c-4.44-.7-9.22.41-12.86,3.06-1.82,1.32-3.38,3.04-4.38,5.09-1,2.05-1.39,4.33-.97,6.59"/>
    <path class="cls-2" d="M460.4,118.18c.92,1.87,1.68,3.97,2.29,5.96"/>
    <path class="cls-2" d="M98.35,448.93c-2.89-.4-6.01-.09-8.72,1.12-2.66,1.19-5.06,3.38-5.6,6.46"/>
    <path class="cls-2" d="M431.57,496.62c-.24-.03-.48-.07-.72-.12"/>
    <path class="cls-2" d="M140.15,152.14c-3.47-.55-7.17-.07-10.31,1.62-3.14,1.69-5.56,4.54-6.24,8.15"/>
    <path class="cls-2" d="M109.97,460.4c.24-1.52-.03-3.03-.67-4.4-.64-1.37-1.62-2.56-2.75-3.54-2.28-1.96-5.26-3.13-8.19-3.53"/>
    <path class="cls-2" d="M448.74,503.81c-.24-2.35-1.67-4.28-3.49-5.61-1.83-1.34-4.08-2.11-6.3-2.42"/>
    <path class="cls-2" d="M454.28,109.25c2.67,1.59,4.44,4.08,5.79,6.74,1.32,2.61,2.33,5.64,3.11,8.44"/>
    <path class="cls-2" d="M462.76,124.01c20.56,11.76,39.75,26.03,56.57,42.78,16.81,16.73,31.17,35.85,41.96,57.05"/>
    <path class="cls-2" d="M45.84,206.23c20.61-32.91,49.79-59.56,82.73-79.38,33.07-19.89,70.12-33.07,107.97-39.81"/>
    <path class="cls-2" d="M533.54,215.37c-1.75,2.44-4.29,4.24-7.05,5.3-2.78,1.06-5.85,1.42-8.8.95"/>
    <path class="cls-2" d="M538.91,222.45c-.53-2.44-1.94-4.52-3.87-6.06-1.93-1.53-4.28-2.45-6.68-2.83"/>
    <path class="cls-2" d="M265.08,279.65c-8.5,4.92-15.16,12.59-17.49,22.43"/>
    <path class="cls-2" d="M297.02,353.54c1.04.15,2.15.05,3.12-.39.97-.44,1.78-1.21,2.09-2.27"/>
    <path class="cls-2" d="M292.35,348.06c-.39,1.37.19,2.74,1.12,3.7.94.97,2.24,1.59,3.56,1.78"/>
    <line class="cls-2" x1="220.61" y1="176.12" x2="220.24" y2="180.27"/>
    <path class="cls-2" d="M277.07,267.43c-.38,1.51-1.44,2.65-2.76,3.38s-2.84,1.02-4.32,1c-2.88-.04-6.04-1.33-7.82-3.74"/>
    <line class="cls-2" x1="428.54" y1="211.75" x2="425.39" y2="209.4"/>
    <path class="cls-2" d="M332.25,138.63c-1.26.1-2.5.29-3.73.6"/>
    <path class="cls-2" d="M181.57,354.36c-1.74-.25-3.46-1-4.75-2.24-1.29-1.24-2.08-2.95-1.87-4.8"/>
    <path class="cls-2" d="M328.47,139.43c1.14.18,2.28.36,3.41.56"/>
    <path class="cls-2" d="M348.85,301.56c-.06.22-.09.45-.1.68"/>
  </g>
  <g id="_装" data-name="装">
    <g>
      <line class="cls-1" x1="264.88" y1="283.33" x2="265.82" y2="279.44"/>
      <line class="cls-3" x1="267.51" y1="272.47" x2="273.42" y2="248.07"/>
      <line class="cls-1" x1="274.26" y1="244.59" x2="275.21" y2="240.7"/>
      <polygon class="cls-4" points="273.18 282.94 262.17 294.48 257.67 279.18 273.18 282.94"/>
    </g>
    <g>
      <line class="cls-1" x1="340.64" y1="293.66" x2="341.87" y2="289.85"/>
      <line class="cls-3" x1="344.07" y1="283.02" x2="351.76" y2="259.13"/>
      <line class="cls-1" x1="352.86" y1="255.71" x2="354.08" y2="251.9"/>
      <polygon class="cls-4" points="348.95 293.88 337.13 304.59 333.77 288.99 348.95 293.88"/>
    </g>
    <g>
      <line class="cls-1" x1="299.37" y1="340.89" x2="300.49" y2="337.05"/>
      <line class="cls-3" x1="302.49" y1="330.17" x2="309.52" y2="306.07"/>
      <line class="cls-1" x1="310.52" y1="302.63" x2="311.64" y2="298.79"/>
      <polygon class="cls-4" points="307.68 340.89 296.16 351.92 292.36 336.42 307.68 340.89"/>
    </g>
    <polygon class="cls-4" points="257.1 351.92 270.67 355.59 279.25 338.57 265.22 333.59 257.1 351.92"/>
    <polygon class="cls-4" points="249.5 345.72 279.49 356.12 261.47 361.96 249.5 345.72"/>
  </g>
</svg>