<?xml version="1.0" encoding="UTF-8"?>
<svg xmlns="http://www.w3.org/2000/svg" viewBox="0 0 583.66 449.94">
  <defs>
    <style>
      .cls-1 {
        fill: red;
        stroke-width: 0px;
      }

      .cls-2 {
        fill: none;
        stroke: #000;
        stroke-linecap: round;
        stroke-linejoin: round;
      }
    </style>
  </defs>
  <g id="Make2D::_::_" data-name="Make2D::???::??">
    <path class="cls-2" d="M405.32,159.37c-.37.15-.75.28-1.14.39-1.16.34-2.42.5-3.65.47-1.17-.03-2.35-.23-3.44-.59-1.1-.36-2.14-.87-3.05-1.49-.99-.68-1.87-1.49-2.59-2.38-.54-.67-1.01-1.39-1.38-2.13"/>
    <path class="cls-2" d="M445.45,182.84c-2.25-11.75-5.44-23.35-9.53-34.61-4.47-12.28-10.01-24.17-16.54-35.48-6.53-11.31-14.05-22.06-22.45-32.06-8.4-10.01-17.67-19.28-27.67-27.67-10-8.39-20.73-15.91-32.05-22.44-11.32-6.53-23.22-12.08-35.5-16.55-4.09-1.49-8.23-2.86-12.4-4.11"/>
    <path class="cls-2" d="M289.3,440.03c4.17-1.25,8.31-2.62,12.41-4.11,12.28-4.47,24.17-10.01,35.48-16.54,11.31-6.53,22.06-14.05,32.06-22.45,10.01-8.4,19.28-17.67,27.67-27.67s15.91-20.73,22.44-32.05c6.53-11.32,12.08-23.22,16.55-35.5,4.1-11.26,7.28-22.83,9.53-34.58"/>
    <path class="cls-2" d="M62.37,235.21c2.66,42.24,21.65,81.79,52.95,110.27,31.3,28.49,72.47,43.67,114.77,42.34,42.3-1.33,82.43-19.07,111.88-49.46,29.45-30.39,45.93-71.06,45.93-113.38"/>
    <path class="cls-2" d="M378.11,97.42c-1.24,1.16-2.64,2.13-4.16,2.9"/>
    <path class="cls-2" d="M407.42,158.28c1.42-.93,2.97-1.65,4.59-2.15"/>
    <path class="cls-2" d="M373.95,100.32c-3.17,1.6-5.47,4.52-6.29,7.98s-.08,7.1,2.03,9.95"/>
    <path class="cls-2" d="M389.76,153.01c1.42,3.25,4.2,5.72,7.61,6.73,3.4,1.02,7.08.48,10.05-1.46"/>
    <path class="cls-2" d="M412.01,156.13c3.12-.96,5.71-3.13,7.2-6.03,1.49-2.9,1.74-6.28.7-9.36"/>
    <path class="cls-2" d="M421.37,191.08c-1.66.38-3.36.53-5.05.43"/>
    <path class="cls-2" d="M403.67,204.91c1.5,13.34,1.5,26.8,0,40.13"/>
    <path class="cls-2" d="M435.79,199.91c-.77-3.07-2.71-5.71-5.4-7.36-2.7-1.65-5.93-2.18-9.01-1.47"/>
    <path class="cls-2" d="M416.32,191.51c-3.55-.19-7,1.18-9.43,3.76s-3.62,6.11-3.22,9.63"/>
    <path class="cls-2" d="M435.91,249.49c.95-8.27,1.41-16.54,1.39-24.8-.02-8.26-.52-16.52-1.52-24.78"/>
    <path class="cls-2" d="M412.01,293.82c-1.62-.5-3.17-1.22-4.59-2.15"/>
    <path class="cls-2" d="M389.76,296.95c-5.37,12.3-12.1,23.96-20.07,34.76"/>
    <path class="cls-2" d="M373.95,349.63c1.52.77,2.92,1.74,4.16,2.9"/>
    <path class="cls-2" d="M420.08,308.68c.87-3.04.51-6.3-1-9.08-1.51-2.78-4.05-4.85-7.07-5.78"/>
    <path class="cls-2" d="M398.91,289.86c-4.06.65-7.51,3.32-9.15,7.09"/>
    <path class="cls-2" d="M407.42,291.67c-2.51-1.64-5.54-2.29-8.5-1.81"/>
    <path class="cls-2" d="M369.69,331.7c-2.11,2.86-2.85,6.5-2.03,9.95s3.12,6.37,6.29,7.98"/>
    <path class="cls-2" d="M395.39,351.68c4.96-6.69,9.5-13.62,13.61-20.78,4.11-7.17,7.81-14.57,11.07-22.22"/>
    <path class="cls-2" d="M97.43,71.85c1.15,1.24,2.12,2.63,2.89,4.14"/>
    <path class="cls-2" d="M153,60.19c3.25-1.42,5.72-4.2,6.73-7.61,1.02-3.4.48-7.08-1.46-10.05"/>
    <path class="cls-2" d="M158.28,42.53c-.93-1.42-1.65-2.96-2.15-4.58"/>
    <path class="cls-2" d="M293.81,37.97c-.5,1.61-1.22,3.15-2.14,4.56"/>
    <path class="cls-2" d="M291.67,42.53c-1.94,2.97-2.47,6.65-1.46,10.05s3.48,6.18,6.73,7.61"/>
    <path class="cls-2" d="M331.7,80.25c2.86,2.11,6.5,2.85,9.95,2.03s6.37-3.12,7.98-6.29"/>
    <path class="cls-2" d="M349.63,75.99c.76-1.49,1.72-2.87,2.85-4.1"/>
    <path class="cls-2" d="M258.43,33.63c-.09-1.69.05-3.39.43-5.04"/>
    <path class="cls-2" d="M191.08,28.58c.38,1.65.53,3.35.43,5.04"/>
    <path class="cls-2" d="M60.18,153.01c5.37-12.3,12.1-23.96,20.07-34.76"/>
    <path class="cls-2" d="M42.53,291.67c-1.42.93-2.96,1.65-4.58,2.15"/>
    <path class="cls-2" d="M60.18,296.95c-1.42-3.25-4.2-5.72-7.61-6.73s-7.08-.48-10.05,1.46"/>
    <path class="cls-2" d="M80.25,331.7c-7.96-10.8-14.7-22.46-20.07-34.76"/>
    <path class="cls-2" d="M75.99,349.63c3.17-1.6,5.47-4.52,6.29-7.98s.08-7.1-2.03-9.95"/>
    <path class="cls-2" d="M71.84,352.52c1.24-1.15,2.64-2.12,4.15-2.89"/>
    <path class="cls-2" d="M100.32,373.96c-.76,1.51-1.74,2.9-2.89,4.14"/>
    <path class="cls-2" d="M153,389.76c-12.3-5.37-23.96-12.1-34.76-20.07"/>
    <path class="cls-2" d="M158.28,407.42c1.94-2.97,2.47-6.65,1.46-10.05-1.02-3.4-3.48-6.18-6.73-7.61"/>
    <path class="cls-2" d="M296.94,389.76c-3.25,1.42-5.72,4.2-6.73,7.61s-.48,7.08,1.46,10.05"/>
    <path class="cls-2" d="M331.7,369.7c-10.8,7.96-22.46,14.69-34.76,20.07"/>
    <path class="cls-2" d="M352.48,378.06c-1.14-1.23-2.1-2.61-2.85-4.1"/>
    <path class="cls-2" d="M204.91,403.67c-3.53-.4-7.05.78-9.63,3.22-2.58,2.44-3.96,5.89-3.76,9.43"/>
    <path class="cls-2" d="M245.04,403.67c-13.34,1.5-26.8,1.5-40.13,0"/>
    <path class="cls-2" d="M13.77,224.98c0-3.2,1.27-6.27,3.53-8.53,2.26-2.26,5.33-3.54,8.53-3.54s6.27,1.27,8.53,3.53c2.26,2.26,3.54,5.33,3.54,8.53"/>
    <path class="cls-2" d="M387.57,214.75c-2.66-42.24-21.65-81.79-52.95-110.27-31.3-28.49-72.47-43.67-114.77-42.34-42.3,1.33-82.43,19.07-111.88,49.46-29.45,30.39-45.93,71.06-45.93,113.38"/>
    <path class="cls-2" d="M442.2,224.98c0-57.61-22.89-112.86-63.62-153.6C337.84,30.63,282.59,7.74,224.97,7.74s-112.86,22.89-153.6,63.62C30.63,112.11,7.74,167.36,7.74,224.98"/>
    <path class="cls-2" d="M425.52,173.44c0-4.53-3.67-8.21-8.21-8.21s-8.21,3.67-8.21,8.21"/>
    <path class="cls-2" d="M276.51,409.11c-4.53,0-8.21,3.67-8.21,8.21s3.67,8.21,8.21,8.21"/>
    <path class="cls-2" d="M263.92,3.91c-12.86-2.26-25.91-3.4-38.95-3.41-3.26,0-6.52.07-9.78.21"/>
    <path class="cls-2" d="M241.27,1.09c1.08.09,2.16.17,3.24.26,1.08.1,2.17.21,3.25.31,1.08.12,2.16.24,3.24.35,1.08.13,2.16.27,3.24.4,1.08.15,2.15.3,3.23.45,1.08.17,2.15.33,3.23.5,1.07.18,2.15.36,3.22.54"/>
    <path class="cls-2" d="M52.94,351.55c-2.34-3.18-4.59-6.42-6.75-9.73-2.15-3.3-4.22-6.65-6.18-10.05-1.97-3.41-3.84-6.87-5.62-10.38-1.78-3.52-3.47-7.09-5.05-10.71"/>
    <path class="cls-2" d="M186.02,446.04c12.86,2.26,25.91,3.4,38.95,3.41,4.35,0,8.69-.13,13.03-.38"/>
    <path class="cls-2" d="M446.04,263.92c2.26-12.86,3.4-25.91,3.41-38.95"/>
    <path class="cls-2" d="M215.18,449.23c-1.08-.06-2.16-.11-3.25-.17-1.09-.07-2.17-.14-3.26-.21-1.08-.09-2.17-.17-3.25-.26-1.08-.1-2.17-.2-3.25-.31-1.08-.12-2.16-.24-3.24-.35-1.08-.13-2.16-.27-3.24-.4-1.08-.15-2.15-.3-3.23-.45-1.08-.17-2.15-.33-3.23-.5-1.07-.18-2.15-.36-3.22-.54"/>
    <path class="cls-2" d="M448.45,246.06c0-.06.01-.12.02-.18-.01.14-.03.28-.04.42-.05.49-.1.98-.15,1.47-.06.53-.11,1.05-.17,1.58-.06.55-.13,1.11-.19,1.66-.13,1.08-.27,2.16-.4,3.24-.15,1.08-.3,2.15-.45,3.23-.17,1.07-.33,2.15-.5,3.22"/>
    <path class="cls-2" d="M583.16,383.07s0-.01,0-.02v-158.08"/>
    <path class="cls-2" d="M29.33,310.68c-.19-.43-.35-.87-.49-1.31-.14-.44-.26-.89-.35-1.35-.09-.46-.16-.92-.21-1.38-.05-.47-.07-.93-.06-1.4,0-.46.03-.93.09-1.39.05-.46.13-.92.23-1.38.1-.46.23-.91.38-1.35.15-.44.32-.87.51-1.3.19-.42.41-.83.65-1.24.24-.4.5-.79.78-1.17.28-.37.58-.73.89-1.07.32-.34.65-.66,1-.97.35-.31.72-.6,1.1-.87.38-.27.78-.52,1.18-.74.41-.23.82-.43,1.25-.61.43-.18.87-.34,1.32-.48"/>
    <path class="cls-2" d="M37.59,292.66c1.53-.47,2.93-1.13,4.28-2"/>
    <path class="cls-2" d="M41.87,290.66c3.27-2.14,7.32-2.72,11.06-1.6,3.74,1.12,6.8,3.83,8.37,7.41"/>
    <path class="cls-2" d="M61.29,296.46c5.33,12.21,12.02,23.79,19.93,34.52"/>
    <path class="cls-2" d="M369.69,118.25c7.96,10.8,14.7,22.46,20.07,34.76"/>
    <path class="cls-2" d="M395.01,97.86c-2.2-2.27-5.2-3.59-8.36-3.67-3.16-.08-6.23,1.08-8.54,3.23"/>
    <path class="cls-2" d="M419.91,140.74c-3.31-7.64-7.04-15.03-11.2-22.18-4.15-7.15-8.72-14.05-13.7-20.7"/>
    <path class="cls-2" d="M81.22,330.99c2.32,3.14,3.13,7.15,2.23,10.95s-3.43,7.01-6.92,8.77"/>
    <path class="cls-2" d="M76.53,350.71c-1.43.72-2.69,1.61-3.87,2.7"/>
    <path class="cls-2" d="M403.67,245.04c-.4,3.53.78,7.05,3.22,9.63s5.89,3.96,9.43,3.76"/>
    <path class="cls-2" d="M373.95,349.63c-.18-.09-.37-.19-.54-.29-.17-.1-.34-.2-.51-.31-.33-.21-.63-.43-.92-.65s-.56-.46-.81-.7c-.25-.24-.5-.49-.72-.73-.18-.2-.35-.4-.51-.61-.16-.2-.31-.41-.46-.62-.29-.41-.54-.84-.77-1.27-.02-.04-.04-.08-.06-.12"/>
    <path class="cls-2" d="M378.11,352.53c2.38,2.22,5.57,3.38,8.82,3.22,3.25-.16,6.31-1.63,8.46-4.08"/>
    <path class="cls-2" d="M157.3,40.85c.06.12.12.24.19.36.11.2.22.41.35.63.13.22.27.45.43.69"/>
    <path class="cls-2" d="M75.99,100.32c-1.51-.76-2.91-1.74-4.15-2.89"/>
    <path class="cls-2" d="M64.75,306.61c1.42,2.8,2.92,5.56,4.49,8.27,1.67,2.9,3.43,5.75,5.26,8.55.92,1.4,1.86,2.8,2.81,4.17.95,1.37,1.94,2.75,2.94,4.1"/>
    <path class="cls-2" d="M37.26,224.98c0-3.03-1.2-5.93-3.34-8.08-2.14-2.14-5.05-3.35-8.08-3.35s-5.93,1.2-8.08,3.35c-2.14,2.14-3.35,5.05-3.35,8.08"/>
    <path class="cls-2" d="M383.63,261.99s0-.02,0-.03"/>
    <path class="cls-2" d="M62.05,224.98c0,3.42.11,6.82.32,10.23"/>
    <path class="cls-2" d="M383.64,187.98c-.15-.66-.32-1.34-.48-2-.16-.66-.33-1.33-.5-1.98-.34-1.31-.7-2.61-1.06-3.9-.74-2.57-1.53-5.09-2.36-7.55-.42-1.23-.85-2.46-1.29-3.66-.44-1.21-.9-2.41-1.36-3.59-.46-1.18-.95-2.36-1.43-3.51-.24-.57-.49-1.16-.74-1.73-.25-.57-.5-1.15-.76-1.71-.33-.73-.67-1.48-1.01-2.2s-.68-1.45-1.02-2.15c-.34-.71-.69-1.42-1.04-2.11-.15-.29-.29-.58-.44-.87"/>
    <path class="cls-2" d="M139.26,420.61c-3.62-1.59-7.18-3.27-10.71-5.05-3.51-1.78-6.97-3.65-10.38-5.62-3.41-1.97-6.76-4.03-10.05-6.18-3.3-2.16-6.54-4.41-9.73-6.75"/>
    <path class="cls-2" d="M583.16,224.98V66.88"/>
    <path class="cls-2" d="M7.09,224.98c0-57.78,22.95-113.2,63.81-154.06C111.77,30.05,167.18,7.1,224.97,7.1s113.2,22.95,154.06,63.81c40.86,40.86,63.82,96.28,63.82,154.07"/>
    <path class="cls-2" d="M449.44,224.97c0-11.95-.95-23.9-2.86-35.71"/>
    <path class="cls-2" d="M.51,227.39c1.33,0,2.4-1.09,2.4-2.41,0-1.33-1.07-2.41-2.4-2.41"/>
    <path class="cls-2" d="M389.1,224.98c0,43.53-17.29,85.28-48.07,116.06-30.78,30.78-72.53,48.07-116.06,48.07s-85.28-17.29-116.06-48.07c-30.78-30.78-48.07-72.53-48.07-116.06"/>
    <path class="cls-2" d="M60.84,224.98c0-43.53,17.29-85.28,48.07-116.06,30.78-30.78,72.53-48.07,116.06-48.07s85.28,17.29,116.06,48.07c30.78,30.78,48.07,72.53,48.07,116.06"/>
    <path class="cls-2" d="M402.47,244.91c1.49-13.25,1.49-26.62,0-39.86"/>
    <path class="cls-2" d="M436.98,199.69c.03.28.06.54.09.78.03.26.06.52.09.78.06.52.12,1.04.17,1.56.11,1.04.21,2.08.31,3.12.19,2.08.35,4.16.48,6.24.26,4.16.39,8.33.4,12.51.01,4.18-.1,8.35-.34,12.52-.12,2.08-.27,4.17-.44,6.25-.09,1.04-.19,2.08-.29,3.12-.05.52-.11,1.04-.16,1.56-.02.21-.04.41-.07.62-.03.29-.07.61-.11.93"/>
    <line class="cls-2" x1="413.23" y1="155.68" x2="413.23" y2="155.68"/>
    <path class="cls-2" d="M370.14,151.01h0"/>
    <path class="cls-2" d="M336.99,344.94s-.03,0-.04.01c-.56.16-1.1.37-1.63.61-.53.24-1.03.52-1.52.84-.04.03-.08.05-.12.08-.04.03-.08.05-.12.08-.04.03-.08.05-.12.08-.04.03-.08.06-.12.08-.04.03-.08.06-.12.09-.04.03-.08.06-.12.09-.04.03-.08.06-.11.09-.04.03-.08.06-.11.09-.04.03-.08.06-.11.09-.04.03-.07.06-.11.09-.04.03-.07.06-.11.09-.02.01-.03.03-.05.04"/>
    <path class="cls-2" d="M361.92,47.12s.05.02.08.04c1.75.78,4.12,1.78,7.06,2.89,3,1.13,6.62,2.38,10.8,3.65,1.38.42,2.82.84,4.33,1.26,3.21.9,6.66,1.79,10.32,2.65,5.68,1.33,11.85,2.56,18.3,3.63,6.85,1.14,14.11,2.11,21.44,2.88,7.73.81,15.74,1.41,23.69,1.83,8.24.43,16.64.68,24.94.8,5.22.08,10.48.11,15.7.12,3.08,0,6.3,0,9.68,0"/>
    <path class="cls-2" d="M448.16,201.01c-.02-.16-.03-.31-.05-.46-.07-.66-.15-1.34-.23-2.01-.09-.75-.19-1.52-.28-2.28-.11-.85-.23-1.7-.35-2.55-.36-2.53-.77-5.1-1.22-7.63-.12-.7-.25-1.41-.38-2.11-1.14-6.09-2.55-12.15-4.2-18.14-1.62-5.88-3.49-11.69-5.58-17.41-4.48-12.22-10.02-24.02-16.52-35.23-.26-.44-.51-.88-.77-1.32-3.17-5.38-6.56-10.63-10.14-15.69-3.57-5.05-7.37-9.99-11.29-14.66-3.41-4.07-7.06-8.11-10.64-11.82-.85-.88-1.7-1.74-2.55-2.59-.85-.85-1.7-1.69-2.54-2.5-1.96-1.9-3.92-3.73-5.75-5.38-1.59-1.43-3.1-2.75-4.5-3.94-2.59-2.21-4.68-3.87-6.24-5.09-1.85-1.44-3.2-2.43-4.07-3.05-.87-.63-1.53-1.07-1.87-1.3-.16-.11-.36-.23-.54-.35-.21-.13-.39-.24-.49-.3-.03-.02-.05-.03-.06-.04"/>
    <path class="cls-2" d="M224.99.5c1.07,0,2.15.02,3.22.02"/>
    <path class="cls-2" d="M228.25.52c1.07.02,2.15.05,3.22.07"/>
    <path class="cls-2" d="M231.51.6c1.07.04,2.15.08,3.22.12"/>
    <path class="cls-2" d="M235.16.73c.94.05,1.89.1,2.83.15"/>
    <path class="cls-2" d="M238.02.88c1.07.07,2.15.14,3.22.21"/>
    <path class="cls-2" d="M224.95,449.44c-1,0-2-.01-2.99-.02"/>
    <path class="cls-2" d="M221.69,449.42c-1.07-.02-2.15-.05-3.22-.07"/>
    <path class="cls-2" d="M218.43,449.35c-1.07-.04-2.15-.08-3.23-.12"/>
    <path class="cls-2" d="M357.91,404.79s.03-.02.05-.03c.1-.06.28-.17.48-.3.18-.11.37-.24.53-.34.34-.22,1-.67,1.87-1.3.87-.62,2.22-1.61,4.08-3.06,1.56-1.22,3.66-2.89,6.25-5.1,1.4-1.19,2.91-2.51,4.49-3.93,1.83-1.65,3.8-3.48,5.76-5.38.84-.82,1.69-1.66,2.54-2.51.85-.85,1.71-1.72,2.56-2.6,3.58-3.7,7.23-7.75,10.63-11.82,3.9-4.65,7.69-9.57,11.24-14.59,3.56-5.03,6.93-10.24,10.08-15.58.29-.49.58-.99.87-1.49,6.5-11.21,12.04-23.03,16.52-35.24,2.1-5.71,3.96-11.51,5.58-17.38,1.64-5.95,3.04-11.99,4.18-18.05.14-.74.27-1.47.4-2.21.08-.48.17-.96.25-1.45.1-.59.2-1.18.29-1.76.08-.48.15-.96.23-1.44.09-.59.18-1.19.27-1.78.05-.36.1-.71.15-1.07.1-.72.2-1.44.3-2.16.02-.13.03-.25.05-.38.09-.76.19-1.51.28-2.27,0,0,0,0,0,0"/>
    <path class="cls-2" d="M446.58,260.7c-.18,1.07-.36,2.15-.54,3.22"/>
    <path class="cls-2" d="M98.4,397.01c-.38-.28-.74-.57-1.08-.89-.34-.31-.67-.64-.98-.99-.31-.35-.6-.71-.87-1.09-.27-.38-.52-.77-.75-1.18-.23-.4-.44-.82-.62-1.25-.19-.43-.35-.86-.49-1.31-.14-.45-.26-.9-.35-1.36-.09-.46-.16-.91-.2-1.38-.04-.46-.06-.93-.06-1.39,0-.47.04-.94.09-1.4.05-.46.13-.92.24-1.38.1-.45.23-.9.38-1.34.15-.44.32-.88.52-1.3.2-.42.41-.83.65-1.24.24-.4.5-.78.77-1.16.28-.37.58-.73.9-1.08"/>
    <path class="cls-2" d="M96.54,377.28c1.09-1.17,1.97-2.44,2.7-3.87"/>
    <path class="cls-2" d="M99.24,373.41c1.76-3.48,4.97-6.02,8.77-6.92,3.8-.9,7.8-.09,10.95,2.23"/>
    <path class="cls-2" d="M118.96,368.73c10.73,7.91,22.31,14.6,34.52,19.93"/>
    <path class="cls-2" d="M435.79,199.93c.02.14-.11.3-.35.47-.25.18-.63.37-1.11.57-.48.2-1.08.41-1.75.61-.67.2-1.42.4-2.19.59-.54.13-1.11.26-1.67.38h-.06"/>
    <path class="cls-2" d="M153.48,388.66c3.58,1.56,6.29,4.62,7.41,8.37,1.12,3.74.53,7.79-1.6,11.06"/>
    <path class="cls-2" d="M159.29,408.08c-.88,1.34-1.53,2.74-2,4.27"/>
    <path class="cls-2" d="M419.95,140.86c.14.43.15.91.03,1.4-.12.5-.37,1.03-.74,1.54s-.85,1.02-1.42,1.48c-.57.46-1.24.89-1.95,1.25-.71.36-1.49.66-2.27.88-.14.04-.27.07-.41.11-.02,0-.05.01-.07.02"/>
    <path class="cls-2" d="M395.25,98.18c.38.52.66,1.13.82,1.77.16.66.2,1.39.11,2.12-.09.73-.31,1.47-.63,2.18s-.78,1.39-1.31,2c-.53.61-1.16,1.15-1.83,1.59-.68.44-1.41.79-2.15,1.02-.21.06-.42.12-.64.17-.02,0-.04,0-.06.01"/>
    <path class="cls-2" d="M157.28,412.35c-.14.45-.3.89-.48,1.32-.18.43-.39.84-.61,1.25-.23.41-.48.8-.74,1.18s-.56.75-.87,1.1c-.31.35-.63.68-.97,1-.34.32-.7.61-1.07.89-.38.28-.77.54-1.17.78-.4.24-.81.45-1.23.65-.42.19-.85.36-1.3.51-.44.15-.9.28-1.35.38-.45.1-.91.18-1.38.23-.46.05-.92.08-1.39.08-.47,0-.94-.02-1.4-.06-.46-.05-.92-.11-1.38-.21-.45-.09-.9-.21-1.35-.35-.45-.14-.88-.31-1.31-.49"/>
    <path class="cls-2" d="M248.57,437.27c-3.92.44-7.86.77-11.8.98-3.93.22-7.86.33-11.8.33-3.93,0-7.87-.11-11.8-.33-3.94-.22-7.88-.55-11.8-.98"/>
    <path class="cls-2" d="M201.37,437.26c-.46-.05-.93-.13-1.38-.23-.45-.1-.9-.22-1.34-.37-.44-.15-.88-.32-1.3-.51-.43-.19-.84-.41-1.25-.65-.4-.24-.79-.49-1.16-.77-.37-.28-.73-.57-1.08-.89-.34-.32-.67-.65-.98-1-.31-.35-.6-.71-.86-1.09-.27-.38-.52-.77-.75-1.18-.23-.41-.44-.83-.62-1.26-.18-.43-.34-.86-.48-1.31-.14-.44-.25-.89-.34-1.35-.09-.46-.16-.92-.2-1.39-.04-.46-.06-.93-.05-1.4,0-.46.04-.93.09-1.39.06-.46.14-.92.24-1.38"/>
    <path class="cls-2" d="M189.9,421.1c.36-1.57.49-3.1.4-4.71"/>
    <path class="cls-2" d="M190.3,416.39c-.21-3.9,1.3-7.7,4.14-10.38,2.84-2.68,6.72-3.98,10.6-3.54"/>
    <path class="cls-2" d="M205.04,402.47c13.25,1.49,26.62,1.49,39.86,0"/>
    <path class="cls-2" d="M244.9,402.47c3.88-.44,7.76.86,10.6,3.54,2.84,2.68,4.35,6.48,4.14,10.38"/>
    <path class="cls-2" d="M259.64,416.39c-.09,1.58.05,3.17.4,4.71"/>
    <path class="cls-2" d="M260.04,421.1c.1.46.19.92.24,1.38.06.46.09.92.09,1.39s-.01.93-.05,1.4c-.04.47-.11.93-.2,1.39-.09.45-.2.9-.34,1.35-.14.44-.3.88-.48,1.31-.18.43-.39.85-.62,1.26-.23.4-.48.8-.75,1.18-.27.38-.56.74-.86,1.09-.31.35-.64.69-.98,1-.34.31-.7.61-1.08.89-.37.28-.76.53-1.16.77-.4.24-.82.45-1.25.65-.42.19-.86.36-1.3.51-.44.15-.89.27-1.34.37-.46.1-.92.18-1.38.23"/>
    <path class="cls-2" d="M351.5,396.93c-3.18,2.34-6.41,4.6-9.71,6.76-3.29,2.16-6.64,4.22-10.04,6.19-3.4,1.97-6.86,3.85-10.37,5.63-3.52,1.79-7.08,3.47-10.7,5.06"/>
    <path class="cls-2" d="M385.19,143.34s0,0,0,0"/>
    <path class="cls-2" d="M407.42,158.28s0,0,0,0"/>
    <path class="cls-2" d="M414.27,128.76s0,0,0,.01"/>
    <path class="cls-2" d="M404.91,251.87c-.33-.64-.6-1.31-.8-1.99-.39-1.31-.57-2.7-.5-4.06.01-.26.03-.52.06-.77"/>
    <path class="cls-2" d="M395.39,351.68h0"/>
    <path class="cls-2" d="M344.34,81.29c-4.07,2.07-8.96,1.67-12.64-1.04"/>
    <path class="cls-2" d="M383.64,187.98s0,0,0,0"/>
    <path class="cls-2" d="M79.81,298.94c-.5-.97-.99-1.98-1.47-2.96-.49-1.01-.99-2.07-1.46-3.09-.48-1.04-.96-2.12-1.41-3.17-.45-1.05-.91-2.13-1.34-3.19-.43-1.06-.86-2.14-1.27-3.21-.41-1.07-.81-2.15-1.2-3.23-.77-2.15-1.51-4.33-2.19-6.52s-1.32-4.38-1.91-6.59-1.13-4.43-1.63-6.67c-.5-2.23-.95-4.49-1.35-6.74-.2-1.13-.39-2.27-.57-3.4-.18-1.13-.35-2.29-.5-3.42-.15-1.13-.3-2.3-.43-3.44s-.25-2.32-.35-3.46c-.14-1.55-.26-3.1-.36-4.65"/>
    <path class="cls-2" d="M383.64,261.96c.31-1.32.6-2.65.88-3.99.14-.66.27-1.36.4-2.02s.26-1.36.38-2.03c.24-1.34.47-2.71.68-4.07s.4-2.72.57-4.09c.17-1.36.33-2.74.47-4.11.14-1.37.26-2.75.37-4.13s.19-2.77.26-4.16c.07-1.39.12-2.8.16-4.18.02-.69.03-1.41.04-2.1,0-.69.01-1.42.01-2.11"/>
    <path class="cls-2" d="M367.34,339.13h0"/>
    <path class="cls-2" d="M415.44,295.51c1.01.71,1.88,1.57,2.6,2.49.46.6.86,1.23,1.19,1.88"/>
    <path class="cls-2" d="M392.94,96.15c.08.05.16.1.23.16"/>
    <path class="cls-2" d="M332.42,347.45h0"/>
    <path class="cls-2" d="M332.42,102.5s.07.06.11.09c.04.03.07.06.11.09.04.03.07.06.11.09.04.03.08.06.11.09.04.03.08.06.11.09l.11.09s.08.06.12.09c.04.03.08.06.12.09.04.03.08.06.12.08.04.03.08.05.12.08.04.03.08.05.12.08.04.03.08.05.12.08.49.32.99.6,1.52.84s1.07.45,1.63.61c.01,0,.03,0,.04.01"/>
    <path class="cls-2" d="M446.59,189.27c-.17-1.07-.35-2.15-.54-3.22-.19-1.07-.39-2.14-.59-3.21"/>
    <path class="cls-2" d="M289.31,9.92c-8.34-2.5-16.82-4.5-25.39-6.01"/>
    <path class="cls-2" d="M215.2.71c-9.77.43-19.51,1.49-29.15,3.19-11.78,2.08-23.42,5.1-34.74,9.03"/>
    <path class="cls-2" d="M151.31,12.93c-1.03.36-2.06.72-3.08,1.09-12.28,4.47-24.17,10.01-35.48,16.54-11.31,6.53-22.06,14.05-32.06,22.45-10.01,8.4-19.28,17.67-27.67,27.67-8.39,10-15.91,20.73-22.44,32.05-6.53,11.32-12.08,23.22-16.55,35.5-1.12,3.07-2.17,6.16-3.15,9.28"/>
    <path class="cls-2" d="M10.88,157.51c-2.94,9.34-5.27,18.87-6.97,28.51-2.12,12.06-3.26,24.3-3.39,36.54"/>
    <line class="cls-2" x1="508.26" y1="66.88" x2="583.16" y2="66.88"/>
    <path class="cls-2" d="M9.92,289.3c1.25,4.17,2.62,8.31,4.11,12.41,4.47,12.28,10.01,24.17,16.54,35.48,6.53,11.31,14.05,22.06,22.45,32.06,8.4,10.01,17.67,19.28,27.67,27.67,10,8.39,20.73,15.91,32.05,22.44,11.32,6.53,23.22,12.08,35.5,16.55,1.02.37,2.05.74,3.08,1.09"/>
    <path class="cls-2" d="M151.31,437.01c11.31,3.93,22.93,6.95,34.71,9.03"/>
    <path class="cls-2" d="M238,449.07c8.68-.5,17.32-1.51,25.89-3.02,8.57-1.51,17.06-3.52,25.41-6.02"/>
    <path class="cls-2" d="M445.45,267.13c.2-1.07.4-2.14.59-3.21"/>
    <path class="cls-2" d="M508.26,383.07c-8.43,0-16.95,0-25.38.13-8.3.12-16.7.37-24.94.8-7.95.42-15.96,1.02-23.69,1.83-7.33.77-14.59,1.74-21.45,2.88-6.45,1.07-12.64,2.31-18.32,3.64-3.67.86-7.13,1.75-10.35,2.65-1.5.42-2.93.84-4.31,1.26-4.18,1.27-7.8,2.52-10.79,3.64-2.93,1.1-5.29,2.1-7.03,2.88-.04.02-.07.03-.11.05"/>
    <line class="cls-2" x1="583.16" y1="383.07" x2="508.26" y2="383.07"/>
    <path class="cls-2" d="M37.91,224.98c0,3.2-1.27,6.27-3.53,8.53-2.26,2.26-5.33,3.54-8.53,3.54s-6.27-1.27-8.53-3.53c-2.26-2.26-3.54-5.33-3.54-8.53"/>
    <path class="cls-2" d="M7.74,224.98c0,57.61,22.89,112.86,63.62,153.6,40.74,40.74,95.99,63.63,153.61,63.63s112.86-22.89,153.6-63.62c40.74-40.74,63.63-95.99,63.63-153.61"/>
    <path class="cls-2" d="M310.68,420.58c-.43.19-.86.35-1.31.5-.44.14-.89.26-1.35.35-.46.09-.92.16-1.38.21-.47.05-.93.07-1.4.06-.46,0-.93-.03-1.39-.08-.46-.05-.92-.13-1.38-.23-.46-.1-.91-.23-1.35-.38-.44-.15-.87-.32-1.3-.51-.42-.19-.83-.41-1.24-.65-.4-.24-.79-.5-1.17-.78-.37-.28-.73-.57-1.07-.89-.34-.31-.67-.65-.97-1-.31-.35-.6-.72-.87-1.1-.27-.38-.52-.77-.75-1.18-.23-.4-.43-.82-.61-1.25-.18-.43-.35-.87-.48-1.32"/>
    <path class="cls-2" d="M387.89,224.98c0-3.42-.11-6.82-.32-10.23"/>
    <path class="cls-2" d="M292.65,412.34c-.47-1.53-1.12-2.92-2-4.26"/>
    <path class="cls-2" d="M290.66,408.08c-2.14-3.27-2.72-7.32-1.6-11.06,1.12-3.74,3.83-6.8,7.41-8.37"/>
    <path class="cls-2" d="M296.46,388.66c12.21-5.33,23.79-12.02,34.52-19.93"/>
    <path class="cls-2" d="M330.98,368.73c3.14-2.32,7.15-3.13,10.95-2.23,3.8.9,7.01,3.43,8.77,6.92"/>
    <path class="cls-2" d="M350.7,373.41c.72,1.41,1.59,2.67,2.66,3.83"/>
    <path class="cls-2" d="M353.36,377.24c.32.34.61.7.89,1.08.28.37.53.76.77,1.16.24.4.45.81.65,1.24.19.42.37.86.52,1.3.15.44.27.88.37,1.34.1.45.18.91.23,1.37.05.46.08.93.09,1.4,0,.46-.01.93-.06,1.39-.04.46-.11.92-.2,1.37-.09.46-.21.91-.35,1.36-.14.44-.3.88-.49,1.3-.18.42-.39.84-.62,1.24-.23.41-.48.8-.75,1.18-.27.38-.56.74-.87,1.09-.31.35-.63.68-.97.99-.34.31-.7.61-1.08.89"/>
    <path class="cls-2" d="M412.36,292.67c3.34,1.02,6.14,3.32,7.79,6.39s2.04,6.67,1.06,10.02"/>
    <path class="cls-2" d="M421.21,309.08c-.11.26-.21.5-.31.72-.1.24-.21.48-.31.72-.21.48-.42.96-.63,1.43-.42.95-.85,1.9-1.29,2.85-.88,1.89-1.78,3.77-2.71,5.64-1.86,3.73-3.83,7.41-5.91,11.04-2.08,3.63-4.26,7.18-6.55,10.68-1.14,1.75-2.31,3.48-3.51,5.19-.6.86-1.2,1.71-1.81,2.56-.3.42-.61.85-.92,1.27-.12.17-.25.34-.37.51-.18.24-.36.49-.56.76"/>
    <path class="cls-2" d="M396.33,352.44c-2.36,2.71-5.73,4.34-9.31,4.52-3.59.18-7.1-1.09-9.73-3.54"/>
    <path class="cls-2" d="M377.29,353.42c-1.16-1.08-2.47-1.99-3.88-2.71"/>
    <path class="cls-2" d="M373.41,350.71c-3.48-1.76-6.02-4.97-6.92-8.77-.9-3.8-.09-7.8,2.23-10.95"/>
    <path class="cls-2" d="M368.72,330.99c7.91-10.73,14.6-22.31,19.93-34.52"/>
    <path class="cls-2" d="M388.65,296.46c1.56-3.58,4.62-6.29,8.37-7.41,3.74-1.12,7.79-.53,11.06,1.6"/>
    <path class="cls-2" d="M408.08,290.66c1.33.87,2.77,1.54,4.29,2.01"/>
    <path class="cls-2" d="M437.1,249.68c-.7,3.53-2.79,6.62-5.81,8.57-3.02,1.95-6.69,2.6-10.2,1.8"/>
    <path class="cls-2" d="M421.1,260.05c-1.54-.36-3.13-.49-4.71-.4"/>
    <path class="cls-2" d="M416.39,259.64c-3.9.21-7.7-1.3-10.38-4.14s-3.98-6.72-3.54-10.6"/>
    <path class="cls-2" d="M402.47,205.04c-.44-3.88.86-7.76,3.54-10.6s6.48-4.35,10.38-4.14"/>
    <path class="cls-2" d="M416.39,190.31c1.58.09,3.17-.05,4.71-.4"/>
    <path class="cls-2" d="M421.1,189.9c3.4-.78,6.97-.19,9.95,1.64,2.97,1.83,5.1,4.76,5.93,8.15"/>
    <path class="cls-2" d="M395.93,97.08c.17.23.33.44.47.63.16.21.31.42.47.63.31.42.62.84.93,1.26.61.84,1.22,1.69,1.82,2.55,1.2,1.7,2.38,3.43,3.53,5.17,2.3,3.48,4.5,7.02,6.6,10.64,2.1,3.61,4.09,7.29,5.97,11.01.94,1.86,1.85,3.74,2.74,5.63.44.94.88,1.89,1.31,2.85.21.48.43.95.64,1.43.08.19.17.38.25.57.12.27.24.56.38.86"/>
    <path class="cls-2" d="M421.04,140.3c1.16,3.4.89,7.13-.74,10.33s-4.5,5.6-7.93,6.65"/>
    <path class="cls-2" d="M412.36,157.28c-1.52.46-2.96,1.14-4.29,2.01"/>
    <path class="cls-2" d="M408.08,159.29c-3.27,2.14-7.32,2.72-11.06,1.6-3.74-1.12-6.8-3.83-8.37-7.41"/>
    <path class="cls-2" d="M388.65,153.49c-5.33-12.21-12.02-23.79-19.93-34.52"/>
    <path class="cls-2" d="M368.72,118.97c-2.32-3.14-3.13-7.15-2.23-10.95.9-3.8,3.43-7.01,6.92-8.77"/>
    <path class="cls-2" d="M373.41,99.24c1.41-.72,2.72-1.63,3.88-2.71"/>
    <path class="cls-2" d="M377.29,96.54c2.55-2.38,5.94-3.66,9.43-3.55,3.49.1,6.8,1.57,9.21,4.1"/>
    <path class="cls-2" d="M353.37,72.72c-1.07,1.16-1.94,2.41-2.66,3.83"/>
    <path class="cls-2" d="M350.72,76.54c-1.77,3.49-4.98,6.02-8.78,6.93s-7.81.09-10.96-2.23"/>
    <path class="cls-2" d="M421.04,140.3c-.2.08-.39.15-.57.22-.19.07-.37.14-.55.21"/>
    <path class="cls-2" d="M330.97,81.24c-10.73-7.91-22.31-14.6-34.52-19.93"/>
    <path class="cls-2" d="M395.93,97.08c-.16.14-.32.27-.47.4s-.3.26-.45.38"/>
    <path class="cls-2" d="M296.45,61.31c-3.58-1.57-6.3-4.63-7.41-8.37-1.12-3.75-.53-7.8,1.61-11.07"/>
    <path class="cls-2" d="M290.64,41.86c.87-1.34,1.53-2.73,2-4.25"/>
    <path class="cls-2" d="M292.64,37.61c.14-.45.3-.89.48-1.32.18-.43.39-.84.62-1.25.23-.41.48-.8.75-1.18s.56-.75.87-1.1c.31-.35.63-.68.97-1,.34-.32.7-.61,1.08-.89.38-.28.77-.54,1.17-.78.4-.24.81-.45,1.24-.65.42-.19.86-.36,1.3-.51.44-.15.9-.27,1.36-.38.45-.1.91-.18,1.38-.23.46-.05.93-.08,1.39-.08.47,0,.94.02,1.4.06.46.05.93.12,1.38.21.45.09.9.21,1.35.35.45.14.88.31,1.31.5"/>
    <path class="cls-2" d="M310.69,29.36c3.61,1.59,7.18,3.27,10.7,5.06,3.51,1.78,6.96,3.66,10.37,5.63,3.4,1.97,6.75,4.04,10.04,6.19,3.3,2.16,6.54,4.42,9.71,6.76"/>
    <path class="cls-2" d="M437.1,249.68c-.21-.03-.41-.06-.61-.1-.2-.03-.39-.06-.58-.09"/>
    <path class="cls-2" d="M351.51,53.01c.38.28.74.57,1.08.89.34.31.67.64.97.99.31.35.6.71.87,1.09.27.38.52.77.75,1.18.23.4.43.82.62,1.24.18.43.35.86.49,1.31.14.45.26.9.35,1.36.09.45.16.91.2,1.38.04.46.06.93.06,1.39,0,.47-.03.93-.09,1.4-.05.46-.13.92-.23,1.37-.1.45-.23.9-.37,1.34-.15.44-.32.88-.52,1.3-.19.42-.41.83-.65,1.24-.24.4-.49.78-.77,1.16-.28.37-.58.73-.89,1.08"/>
    <path class="cls-2" d="M436.98,199.69c-.21.04-.41.07-.61.11s-.39.07-.58.11"/>
    <path class="cls-2" d="M260.05,28.85c-.35,1.54-.49,3.13-.4,4.71"/>
    <path class="cls-2" d="M259.64,33.56c.21,3.9-1.3,7.7-4.14,10.38-2.84,2.68-6.72,3.98-10.6,3.54"/>
    <path class="cls-2" d="M244.9,47.48c-13.25-1.49-26.62-1.49-39.86,0"/>
    <path class="cls-2" d="M205.04,47.48c-3.88.44-7.76-.86-10.6-3.54-2.84-2.68-4.35-6.48-4.14-10.38"/>
    <path class="cls-2" d="M190.3,33.56c.09-1.6-.04-3.14-.4-4.71"/>
    <path class="cls-2" d="M189.9,28.85c-.1-.46-.19-.92-.24-1.38-.06-.46-.09-.92-.09-1.39,0-.47.01-.93.05-1.4.04-.47.11-.93.2-1.39.09-.46.2-.91.34-1.35.14-.44.3-.88.48-1.31.18-.43.39-.85.62-1.26.23-.41.48-.8.75-1.18.27-.38.56-.74.87-1.09.31-.35.64-.69.98-1,.34-.31.7-.61,1.08-.89.37-.28.76-.53,1.16-.77.4-.24.82-.45,1.25-.65.42-.19.86-.36,1.3-.51.44-.15.89-.27,1.34-.37.46-.1.92-.18,1.38-.23"/>
    <path class="cls-2" d="M201.37,12.68c3.93-.44,7.86-.76,11.8-.98,3.93-.22,7.87-.33,11.8-.33,3.94,0,7.87.11,11.8.33,3.94.22,7.88.55,11.8.98"/>
    <path class="cls-2" d="M248.57,12.68c.46.05.93.13,1.38.23.45.1.9.22,1.34.37.44.15.88.32,1.3.51.43.19.84.41,1.25.65.4.24.79.49,1.16.77.37.28.73.57,1.08.89.34.32.67.65.98,1,.31.35.6.71.87,1.09.27.38.52.77.75,1.18.23.41.44.83.62,1.26.18.43.34.86.48,1.31.14.44.25.89.34,1.35.09.46.16.92.2,1.39.04.46.06.93.05,1.4,0,.46-.04.93-.09,1.39-.06.46-.14.92-.24,1.38"/>
    <path class="cls-2" d="M157.29,37.6c.47,1.53,1.13,2.93,2,4.27"/>
    <path class="cls-2" d="M159.29,41.87c2.14,3.27,2.72,7.32,1.61,11.06-1.12,3.74-3.83,6.81-7.41,8.37"/>
    <path class="cls-2" d="M153.49,61.3c-12.21,5.33-23.79,12.02-34.52,19.93"/>
    <path class="cls-2" d="M118.97,81.23c-3.15,2.32-7.15,3.14-10.96,2.23s-7.01-3.44-8.78-6.92"/>
    <path class="cls-2" d="M99.23,76.54c-.72-1.43-1.6-2.69-2.69-3.87"/>
    <path class="cls-2" d="M96.54,72.68c-.32-.34-.62-.7-.9-1.08-.28-.37-.54-.76-.78-1.16-.24-.4-.46-.81-.65-1.24-.2-.42-.37-.86-.52-1.3-.15-.44-.28-.89-.38-1.34-.1-.45-.18-.91-.24-1.38-.05-.46-.08-.93-.09-1.4,0-.46.01-.93.06-1.39.04-.46.11-.92.2-1.38.09-.46.21-.91.35-1.36.14-.44.3-.88.49-1.31.18-.43.39-.84.62-1.25.23-.41.48-.8.76-1.18.27-.38.56-.74.87-1.09.31-.35.63-.68.98-.99.34-.32.71-.61,1.08-.89"/>
    <path class="cls-2" d="M98.4,52.93c3.18-2.34,6.42-4.59,9.73-6.75,3.29-2.15,6.65-4.21,10.05-6.18,3.4-1.97,6.86-3.84,10.38-5.62,3.52-1.78,7.09-3.47,10.71-5.05"/>
    <path class="cls-2" d="M139.26,29.34c.43-.19.87-.35,1.31-.49.44-.14.89-.26,1.35-.35.46-.09.92-.16,1.38-.21.47-.05.93-.07,1.4-.06.46,0,.93.03,1.39.09.46.05.92.13,1.38.23.46.1.91.23,1.35.38.44.15.87.32,1.3.51.42.19.83.41,1.24.65.4.24.79.5,1.17.78.37.28.73.58,1.07.89.34.31.67.65.97,1,.31.35.6.72.87,1.1.27.38.52.78.74,1.18.23.41.43.82.61,1.25.18.43.34.87.48,1.32"/>
    <path class="cls-2" d="M81.23,118.97c-7.91,10.73-14.6,22.31-19.93,34.52"/>
    <path class="cls-2" d="M61.3,153.49c-1.56,3.58-4.63,6.29-8.37,7.41-3.74,1.12-7.79.53-11.06-1.61"/>
    <path class="cls-2" d="M41.86,159.3c-1.34-.88-2.74-1.53-4.27-2"/>
    <path class="cls-2" d="M37.59,157.29c-.45-.14-.89-.3-1.32-.48-.43-.18-.84-.39-1.25-.61-.41-.23-.8-.48-1.18-.74-.38-.27-.75-.56-1.1-.87-.35-.31-.68-.63-1-.97-.32-.34-.61-.7-.89-1.07-.28-.38-.54-.77-.78-1.17-.24-.4-.45-.81-.65-1.24-.19-.42-.36-.85-.51-1.3-.15-.44-.28-.9-.38-1.35-.1-.45-.18-.91-.23-1.38-.05-.46-.08-.93-.09-1.39,0-.47.02-.94.06-1.4.05-.46.11-.93.21-1.38.09-.45.21-.9.35-1.35.14-.45.31-.88.49-1.31"/>
    <path class="cls-2" d="M29.32,139.26c1.59-3.62,3.27-7.18,5.05-10.71,1.78-3.51,3.65-6.97,5.62-10.38,1.97-3.41,4.03-6.76,6.18-10.05,2.16-3.3,4.41-6.55,6.75-9.73"/>
    <path class="cls-2" d="M52.93,98.4c.28-.38.57-.74.89-1.08.31-.34.64-.67.99-.98s.71-.6,1.09-.87c.38-.27.78-.52,1.18-.76.4-.23.82-.44,1.25-.62.43-.19.86-.35,1.31-.49.45-.14.9-.26,1.36-.35.46-.09.91-.16,1.38-.2.46-.04.93-.06,1.39-.06.47,0,.94.04,1.4.09.46.05.92.13,1.38.24.45.1.9.23,1.34.38.44.15.88.32,1.3.52.42.2.84.41,1.24.65.4.24.78.5,1.16.78.37.28.73.58,1.08.9"/>
    <path class="cls-2" d="M72.67,96.54c1.17,1.09,2.44,1.97,3.87,2.7"/>
    <path class="cls-2" d="M76.54,99.24c3.49,1.77,6.02,4.98,6.92,8.78s.09,7.81-2.23,10.95"/>
    <path class="cls-2" d="M39.74,177.54c2.27-3.93.92-8.94-3-11.21-3.93-2.27-8.94-.92-11.21,3"/>
    <path class="cls-2" d="M25.52,169.33c-2.27,3.93-.92,8.94,3,11.21,3.93,2.27,8.94.92,11.21-3"/>
    <path class="cls-2" d="M91.27,361.68c-2.27-3.93-7.29-5.27-11.21-3-3.93,2.27-5.27,7.29-3,11.21"/>
    <path class="cls-2" d="M77.06,369.88c2.27,3.93,7.29,5.27,11.21,3,3.93-2.27,5.27-7.29,3-11.21"/>
    <path class="cls-2" d="M177.54,410.21c-3.93-2.27-8.94-.92-11.21,3-2.27,3.93-.92,8.94,3,11.21"/>
    <path class="cls-2" d="M169.33,424.43c3.93,2.27,8.94.92,11.21-3,2.27-3.93.92-8.94-3-11.21"/>
    <path class="cls-2" d="M276.51,425.53c4.53,0,8.21-3.67,8.21-8.21s-3.67-8.21-8.21-8.21"/>
    <path class="cls-2" d="M361.67,358.67c-3.93,2.27-5.27,7.29-3,11.21,2.27,3.93,7.29,5.27,11.21,3"/>
    <path class="cls-2" d="M369.88,372.89c3.93-2.27,5.27-7.29,3-11.21-2.27-3.93-7.29-5.27-11.21-3"/>
    <path class="cls-2" d="M410.21,272.41c-2.27,3.93-.92,8.94,3,11.21,3.93,2.27,8.94.92,11.21-3"/>
    <path class="cls-2" d="M424.42,280.62c2.27-3.93.92-8.94-3-11.21-3.93-2.27-8.94-.92-11.21,3"/>
    <path class="cls-2" d="M409.11,173.44c0,4.53,3.67,8.21,8.21,8.21s8.21-3.67,8.21-8.21"/>
    <path class="cls-2" d="M421.21,309.08c-.2-.07-.39-.14-.58-.21-.19-.07-.38-.13-.56-.2"/>
    <path class="cls-2" d="M395.39,351.68c.15.12.3.25.46.37.16.13.32.26.48.39"/>
    <path class="cls-2" d="M358.67,88.27c2.27,3.93,7.29,5.27,11.21,3,3.93-2.27,5.27-7.29,3-11.21"/>
    <path class="cls-2" d="M372.88,80.07c-2.27-3.93-7.29-5.27-11.21-3-3.93,2.27-5.27,7.29-3,11.21"/>
    <path class="cls-2" d="M272.41,39.74c3.93,2.27,8.94.92,11.21-3,2.27-3.93.92-8.94-3-11.21"/>
    <path class="cls-2" d="M280.61,25.53c-3.93-2.27-8.94-.92-11.21,3-2.27,3.93-.92,8.94,3,11.21"/>
    <path class="cls-2" d="M173.43,40.84c4.53,0,8.21-3.67,8.21-8.21s-3.67-8.21-8.21-8.21"/>
    <path class="cls-2" d="M173.43,24.43c-4.53,0-8.21,3.67-8.21,8.21s3.67,8.21,8.21,8.21"/>
    <path class="cls-2" d="M88.27,91.28c3.93-2.27,5.27-7.29,3-11.21-2.27-3.93-7.29-5.27-11.21-3"/>
    <path class="cls-2" d="M80.06,77.06c-3.93,2.27-5.27,7.29-3,11.21,2.27,3.93,7.29,5.27,11.21,3"/>
    <path class="cls-2" d="M40.83,276.51c0-4.53-3.67-8.21-8.21-8.21s-8.21,3.67-8.21,8.21"/>
    <path class="cls-2" d="M24.42,276.51c0,4.53,3.67,8.21,8.21,8.21s8.21-3.67,8.21-8.21"/>
    <path class="cls-2" d="M395.53,351.49c.39-.53.68-1.16.84-1.83.16-.67.2-1.39.1-2.12-.09-.72-.32-1.47-.65-2.17-.33-.7-.79-1.38-1.33-1.98-.54-.6-1.18-1.14-1.86-1.57-.68-.43-1.43-.77-2.18-.98-.19-.06-.39-.1-.58-.14-.03,0-.05-.01-.08-.02"/>
    <path class="cls-2" d="M.51,227.39c.13,12.23,1.26,24.45,3.39,36.51,1.51,8.57,3.52,17.06,6.02,25.41"/>
    <path class="cls-2" d="M420.12,308.51c.12-.44.11-.93-.03-1.43-.14-.5-.42-1.02-.81-1.52-.39-.5-.9-.99-1.49-1.43-.59-.44-1.28-.85-2.01-1.18-.8-.37-1.67-.66-2.53-.84-.02,0-.04,0-.06-.01"/>
    <path class="cls-2" d="M442.85,224.98c0,57.78-22.95,113.2-63.81,154.06-40.86,40.86-96.28,63.82-154.07,63.82s-113.2-22.95-154.06-63.81C30.05,338.18,7.09,282.76,7.09,224.98"/>
    <path class="cls-2" d="M.51,227.39c0-.8-.01-1.61-.01-2.41"/>
    <path class="cls-2" d="M.5,224.97c0-.8,0-1.61.01-2.41"/>
    <path class="cls-2" d="M435.91,249.48c.02-.13-.11-.29-.36-.46-.25-.17-.64-.35-1.12-.54-.49-.18-1.09-.37-1.76-.56-.67-.18-1.42-.36-2.2-.52-.54-.11-1.09-.22-1.64-.32-.02,0-.05,0-.07-.01"/>
    <path class="cls-2" d="M387.86,224.98c0-.56,0-1.13,0-1.68,0-.55-.01-1.13-.03-1.69-.01-.71-.03-1.45-.06-2.16s-.05-1.44-.09-2.15c-.03-.71-.07-1.43-.11-2.14-.04-.71-.09-1.43-.14-2.13-.1-1.42-.22-2.84-.36-4.24s-.3-2.81-.47-4.21c-.17-1.4-.37-2.8-.58-4.18-.21-1.39-.44-2.78-.68-4.16-.24-1.38-.51-2.77-.79-4.13-.14-.68-.29-1.38-.44-2.06-.05-.23-.1-.46-.15-.69"/>
    <path class="cls-2" d="M14.42,224.98c0,3.03,1.2,5.93,3.35,8.08,2.14,2.14,5.05,3.35,8.08,3.35s5.93-1.2,8.08-3.34,3.35-5.05,3.35-8.08"/>
    <path class="cls-2" d="M201.5,436.07c4.04.45,8.01.77,11.93.99,3.91.21,7.76.32,11.54.32h.19c.06,0,.13,0,.19,0,.13,0,.25,0,.38,0,.25,0,.51,0,.76,0,.5,0,1.01,0,1.51-.02,1.01-.01,2.01-.04,3-.06,1.99-.06,3.97-.14,5.92-.25,3.91-.22,7.75-.55,11.51-.97"/>
    <path class="cls-2" d="M258.43,416.33c.19-3.55-1.18-7-3.76-9.43s-6.11-3.62-9.63-3.22"/>
    <path class="cls-2" d="M191.51,416.33c.09,1.69-.05,3.39-.43,5.04"/>
    <path class="cls-2" d="M258.87,421.37c-.38-1.65-.53-3.35-.43-5.04"/>
    <path class="cls-2" d="M310.2,419.47c3.68-1.62,7.27-3.32,10.76-5.1,3.46-1.76,6.82-3.59,10.08-5.48.03-.02.07-.04.1-.06.1-.06.22-.13.32-.19.11-.06.22-.13.32-.19.22-.13.43-.25.64-.38.43-.25.86-.51,1.28-.76.85-.51,1.7-1.02,2.54-1.54,1.68-1.04,3.34-2.1,4.98-3.17,3.27-2.15,6.46-4.37,9.55-6.65"/>
    <path class="cls-2" d="M37.94,293.82c-.41.13-.81.27-1.2.44-.39.17-.77.35-1.14.56-.18.1-.37.21-.55.32-.18.11-.36.23-.53.35-.09.06-.17.12-.26.19-.09.06-.17.13-.25.19-.17.13-.33.27-.49.41-.16.14-.31.28-.47.43-.15.15-.3.3-.44.45-.29.31-.56.64-.81.98-.06.09-.13.17-.19.26-.06.09-.12.18-.18.26-.06.09-.12.18-.17.27-.06.09-.11.18-.17.27-.11.18-.21.37-.31.55-.1.19-.19.38-.28.57-.09.19-.17.39-.25.58-.08.2-.15.39-.22.6-.03.1-.07.2-.1.3s-.06.2-.09.31c-.03.1-.06.21-.08.31-.03.1-.05.21-.07.31-.09.42-.16.83-.21,1.25-.02.21-.04.42-.06.63-.01.21-.02.42-.02.63s0,.42.01.64c0,.11.01.21.02.32,0,.11.02.21.03.32.02.21.05.42.08.63s.07.42.11.62c.08.41.19.82.32,1.22.13.4.28.8.45,1.19"/>
    <path class="cls-2" d="M349.63,373.96c-1.6-3.17-4.52-5.47-7.98-6.29s-7.1-.08-9.95,2.03"/>
    <path class="cls-2" d="M291.67,407.42c.92,1.41,1.64,2.95,2.14,4.56"/>
    <path class="cls-2" d="M99.12,396.04c6.48,4.77,13.08,9.06,19.73,12.89.15.09.3.17.44.26,6.8,3.9,13.64,7.33,20.46,10.32"/>
    <path class="cls-2" d="M53.91,350.83c.25.34.52.67.81.98.28.31.59.61.9.89.16.14.32.28.49.41.17.13.33.26.51.38.09.06.17.12.26.18.09.06.18.12.27.18.18.11.36.22.55.33.18.1.37.2.56.3.19.09.38.18.57.27.39.17.78.32,1.19.44.1.03.2.06.31.09s.21.06.31.08c.1.03.21.05.31.08.1.02.21.05.31.07.21.04.42.08.63.11.21.03.42.06.63.08.21.02.42.03.63.04.21,0,.42.01.63,0,.11,0,.21,0,.32,0,.11,0,.21,0,.32-.02.11,0,.21-.02.32-.02.11,0,.21-.02.32-.03.42-.05.84-.12,1.25-.21.21-.05.41-.1.61-.16.2-.06.4-.12.61-.19s.4-.14.6-.22c.1-.04.2-.08.3-.12.1-.04.2-.09.29-.13.19-.09.38-.18.57-.28.19-.1.37-.2.55-.31.36-.22.71-.45,1.05-.7.34-.25.66-.53.98-.82"/>
    <path class="cls-2" d="M156.13,412c.5-1.62,1.22-3.16,2.15-4.58"/>
    <path class="cls-2" d="M71.84,97.43c-.31-.29-.64-.56-.98-.82-.34-.25-.69-.49-1.05-.7-.18-.11-.37-.21-.55-.31s-.38-.19-.57-.28c-.1-.04-.19-.09-.29-.13s-.2-.08-.3-.12c-.2-.08-.4-.15-.6-.22s-.4-.13-.61-.19-.41-.11-.61-.16c-.41-.09-.83-.16-1.25-.21-.11-.01-.21-.02-.32-.03-.11,0-.21-.02-.32-.02s-.21-.01-.32-.02c-.11,0-.21,0-.32,0-.21,0-.42,0-.63,0-.21,0-.42.02-.63.04-.21.02-.42.04-.63.08s-.42.07-.62.11c-.1.02-.21.04-.31.07-.1.02-.21.05-.31.08-.1.03-.21.05-.31.08-.1.03-.2.06-.31.09-.41.13-.8.28-1.19.44-.19.08-.38.17-.57.27-.19.09-.38.19-.56.3-.18.1-.37.21-.55.33-.09.06-.18.12-.27.18s-.18.12-.26.18c-.17.12-.34.25-.51.38-.17.13-.33.27-.49.41-.32.28-.62.58-.9.89-.28.31-.55.64-.81.98"/>
    <path class="cls-2" d="M118.25,369.7c-2.86-2.11-6.5-2.85-9.95-2.03-3.45.82-6.37,3.12-7.98,6.29"/>
    <path class="cls-2" d="M72.66,353.4c-.34.32-.7.62-1.08.9-.37.28-.76.54-1.16.78-.4.24-.81.46-1.24.65s-.86.37-1.3.52c-.44.15-.89.27-1.34.38-.45.1-.91.18-1.38.24-.46.05-.93.08-1.4.09-.46,0-.93-.01-1.39-.06-.46-.04-.92-.11-1.38-.2-.46-.09-.91-.21-1.36-.35-.44-.14-.88-.3-1.31-.49-.43-.18-.84-.39-1.25-.62-.41-.23-.8-.48-1.18-.75-.38-.27-.74-.56-1.09-.87-.35-.31-.68-.63-.99-.98-.31-.34-.61-.71-.89-1.08"/>
    <path class="cls-2" d="M30.44,310.2c1.59,3.62,3.27,7.18,5.04,10.67,1.77,3.5,3.63,6.93,5.57,10.29.12.21.25.43.37.64.12.21.25.43.37.64.25.43.5.85.76,1.28.51.85,1.02,1.69,1.53,2.53,1.03,1.68,2.09,3.34,3.16,4.98,2.15,3.28,4.37,6.48,6.67,9.6"/>
    <path class="cls-2" d="M30.44,139.75c-.17.39-.32.79-.45,1.19-.13.4-.23.81-.32,1.22-.04.21-.08.41-.11.62s-.06.42-.08.63c-.01.11-.02.21-.03.32,0,.11-.01.21-.02.32,0,.21-.01.43-.01.64,0,.21,0,.42.02.63.01.21.03.42.06.63.05.42.12.84.21,1.25.02.1.05.21.07.31.03.1.05.21.08.31.03.1.06.21.09.31s.06.2.1.3c.07.2.14.4.22.6.08.2.16.39.25.58s.18.38.28.57c.1.19.2.37.31.55.05.09.11.18.17.27.06.09.11.18.17.27.06.09.12.18.18.26.06.09.12.17.19.26.25.34.52.67.81.98.14.15.29.31.44.45.15.15.31.29.47.43.16.14.32.28.49.41.08.07.17.13.25.19s.17.13.26.19c.17.12.35.24.53.35.18.11.36.22.55.32.37.21.75.39,1.14.56.39.17.79.31,1.2.44"/>
    <path class="cls-2" d="M53.91,99.12c-2.3,3.12-4.52,6.32-6.67,9.6-2.15,3.28-4.21,6.64-6.2,10.07-.12.21-.24.42-.36.63-.12.21-.24.42-.36.63-.24.42-.48.85-.72,1.27-.48.85-.95,1.7-1.41,2.56-.93,1.72-1.84,3.45-2.72,5.2-1.77,3.5-3.45,7.06-5.04,10.67"/>
    <path class="cls-2" d="M139.75,419.5c.39.17.79.32,1.19.45s.81.23,1.22.32c.21.04.41.08.62.11.21.03.42.06.63.08.11.01.21.02.32.03s.21.01.32.02c.21,0,.42.01.64.01.21,0,.42,0,.63-.02.21-.01.42-.03.63-.06.42-.05.84-.12,1.25-.21.1-.02.21-.05.31-.07.1-.03.21-.05.31-.08.1-.03.21-.06.31-.09s.2-.06.3-.1c.2-.07.4-.14.6-.22.2-.08.39-.16.58-.25.19-.09.38-.18.57-.28s.37-.2.55-.31c.09-.05.18-.11.27-.17.09-.06.18-.11.27-.17.09-.06.18-.12.26-.18.09-.06.17-.12.26-.19.34-.25.67-.52.98-.81.15-.14.31-.29.45-.44.15-.15.29-.31.43-.47.14-.16.28-.32.41-.49.07-.08.13-.17.19-.25.06-.09.13-.17.19-.26.12-.17.24-.35.35-.53s.22-.36.32-.55c.21-.37.39-.75.56-1.14s.31-.79.44-1.2"/>
    <path class="cls-2" d="M80.25,118.25c2.11-2.86,2.85-6.5,2.03-9.95s-3.12-6.37-6.29-7.98"/>
    <path class="cls-2" d="M42.53,158.28c2.97,1.94,6.65,2.47,10.05,1.46s6.18-3.48,7.61-6.73"/>
    <path class="cls-2" d="M37.94,156.13c1.62.5,3.16,1.22,4.58,2.15"/>
    <path class="cls-2" d="M245.04,46.28c3.53.4,7.05-.78,9.63-3.22s3.96-5.89,3.76-9.43"/>
    <path class="cls-2" d="M204.91,46.28c13.34-1.5,26.8-1.5,40.13,0"/>
    <path class="cls-2" d="M97.43,378.1c-.29.31-.56.64-.82.98s-.49.69-.7,1.05c-.11.18-.21.37-.31.55s-.19.38-.28.57c-.04.1-.09.19-.13.29s-.08.2-.12.3c-.08.2-.15.4-.22.6-.07.2-.13.4-.19.61-.06.2-.11.41-.16.61-.09.41-.16.83-.21,1.25-.01.11-.02.21-.03.32,0,.11-.02.21-.02.32s-.01.21-.02.32c0,.11,0,.21,0,.32,0,.21,0,.42,0,.63,0,.21.02.42.04.63.02.21.04.42.08.63.03.21.07.42.11.62.02.1.04.21.07.31s.05.21.08.31c.03.1.05.21.08.31.03.1.06.2.09.31.13.41.28.8.44,1.19.08.19.17.38.27.57.09.19.19.38.3.56.1.18.21.37.33.55.06.09.12.18.18.27.06.09.12.18.18.26.12.17.25.34.38.51s.27.33.41.49c.28.32.58.62.89.9.31.28.64.55.98.81"/>
    <path class="cls-2" d="M156.13,37.95c-.13-.41-.27-.81-.44-1.2s-.35-.77-.56-1.14c-.1-.18-.21-.37-.32-.55-.11-.18-.23-.36-.35-.53-.06-.09-.12-.17-.19-.26-.06-.09-.13-.17-.19-.25-.13-.17-.27-.33-.41-.49s-.28-.31-.43-.47c-.15-.15-.3-.3-.45-.44-.31-.29-.64-.56-.98-.81-.09-.06-.17-.13-.26-.19-.09-.06-.18-.12-.26-.18-.09-.06-.18-.12-.27-.17-.09-.06-.18-.11-.27-.17-.18-.11-.37-.21-.55-.31s-.38-.19-.57-.28c-.19-.09-.39-.17-.58-.25-.2-.08-.39-.15-.6-.22-.1-.03-.2-.07-.3-.1-.1-.03-.2-.06-.31-.09-.1-.03-.21-.06-.31-.08-.1-.03-.21-.05-.31-.07-.42-.09-.83-.16-1.25-.21-.21-.02-.42-.04-.63-.06-.21-.01-.42-.02-.63-.02-.21,0-.42,0-.64.01-.11,0-.21.01-.32.02s-.21.02-.32.03c-.21.02-.42.05-.63.08s-.42.07-.62.11c-.41.09-.82.19-1.22.32-.4.13-.8.28-1.19.45"/>
    <path class="cls-2" d="M191.51,33.63c-.19,3.55,1.18,7,3.76,9.43,2.58,2.44,6.11,3.62,9.63,3.22"/>
    <path class="cls-2" d="M248.44,13.88c-3.76-.42-7.6-.74-11.51-.97-3.91-.22-7.9-.34-11.95-.34-.06,0-.12,0-.18,0-.06,0-.12,0-.18,0-.12,0-.24,0-.35,0-.24,0-.47,0-.71,0-.47,0-.95,0-1.43.01-.95.01-1.91.03-2.87.06-1.92.05-3.86.13-5.82.24-3.91.21-7.89.54-11.93.99"/>
    <path class="cls-2" d="M350.78,53.99c-3.09-2.28-6.27-4.5-9.55-6.65-3.27-2.15-6.64-4.23-10.09-6.23-.03-.02-.07-.04-.1-.06-3.27-1.89-6.63-3.72-10.08-5.48-3.49-1.77-7.08-3.48-10.76-5.1"/>
    <path class="cls-2" d="M99.12,53.91c-.34.25-.67.52-.98.81-.31.28-.61.59-.89.9-.14.16-.28.32-.41.49-.13.17-.26.33-.38.51-.06.09-.12.17-.18.26-.06.09-.12.18-.18.27-.11.18-.22.36-.33.55-.1.18-.2.37-.3.56-.09.19-.18.38-.27.57-.17.39-.32.78-.44,1.19-.03.1-.06.2-.09.31-.03.1-.06.21-.08.31-.03.1-.05.21-.08.31s-.05.21-.07.31c-.04.21-.08.42-.11.62-.03.21-.06.42-.08.63-.02.21-.03.42-.04.63,0,.21-.01.42,0,.63,0,.11,0,.21,0,.32,0,.11,0,.21.02.32s.02.21.02.32c0,.11.02.21.03.32.05.42.12.84.21,1.25.05.21.1.41.16.61.06.2.12.4.19.61s.14.4.22.6c.04.1.08.2.12.3s.09.2.13.29c.09.19.18.38.28.57.1.19.2.37.31.55.22.36.45.71.7,1.05.25.34.53.66.82.98"/>
    <path class="cls-2" d="M296.94,60.19c12.3,5.37,23.96,12.1,34.76,20.07"/>
    <path class="cls-2" d="M248.44,436.07c.43-.05.84-.12,1.26-.21s.82-.2,1.22-.34c.2-.07.4-.14.6-.22.2-.08.39-.16.59-.25.1-.04.19-.09.29-.14s.19-.09.29-.14c.19-.1.37-.2.56-.31s.36-.22.54-.34.35-.24.52-.36c.34-.25.67-.52.98-.81.08-.07.16-.14.23-.22s.15-.15.23-.23c.07-.08.15-.15.22-.23.07-.08.14-.16.21-.24.14-.16.28-.32.41-.49.13-.17.26-.33.38-.51.12-.17.24-.35.35-.53s.22-.36.33-.54c.05-.09.1-.19.15-.28.05-.09.1-.19.15-.28.05-.1.09-.19.14-.29.04-.1.09-.19.13-.29.17-.39.31-.79.44-1.19.06-.2.12-.4.17-.61.05-.2.1-.41.14-.62.04-.21.08-.42.11-.63.02-.11.03-.21.04-.32.01-.11.02-.21.03-.32.02-.21.03-.42.04-.64,0-.21.01-.42,0-.63,0-.42-.03-.84-.09-1.26s-.12-.84-.22-1.25"/>
    <path class="cls-2" d="M139.75,30.45c-6.82,2.99-13.66,6.42-20.46,10.32-.15.09-.3.17-.44.26-6.65,3.83-13.25,8.12-19.73,12.89"/>
    <path class="cls-2" d="M191.08,421.37c-.1.42-.17.84-.22,1.25s-.08.84-.09,1.26c0,.21,0,.42,0,.63,0,.21.02.42.04.64,0,.11.02.21.03.32s.03.21.04.32c.03.21.07.42.11.63.04.21.09.41.14.62.05.2.11.41.17.61.13.4.27.8.44,1.19.04.1.09.19.13.29.04.1.09.19.14.29.05.1.1.19.15.28.05.09.1.19.15.28.1.18.21.37.33.54.11.18.23.35.35.53.12.17.25.34.38.51.13.17.27.33.41.49.07.08.14.16.21.24.07.08.15.16.22.23s.15.15.23.23.15.15.23.22c.31.29.64.56.98.81.17.13.34.25.52.36.18.12.36.23.54.34s.37.21.56.31c.09.05.19.1.29.14.1.05.19.09.29.14.19.09.39.17.59.25.2.08.4.15.6.22.4.13.81.25,1.22.34.41.09.83.16,1.26.21"/>
    <path class="cls-2" d="M118.25,80.25c10.8-7.96,22.46-14.69,34.76-20.07"/>
    <path class="cls-2" d="M258.87,28.58c.1-.42.17-.84.22-1.25s.08-.84.09-1.26c0-.21,0-.42,0-.63,0-.21-.02-.42-.04-.64,0-.11-.02-.21-.03-.32-.01-.11-.03-.21-.04-.32-.03-.21-.07-.42-.11-.63-.04-.21-.09-.41-.14-.62-.05-.2-.11-.41-.17-.61-.13-.4-.27-.8-.44-1.19-.04-.1-.09-.19-.13-.29-.04-.1-.09-.19-.14-.29-.05-.1-.1-.19-.15-.28-.05-.09-.1-.19-.15-.28-.1-.18-.21-.37-.33-.54s-.23-.35-.35-.53c-.12-.17-.25-.34-.38-.51s-.27-.33-.41-.49c-.07-.08-.14-.16-.21-.24-.07-.08-.15-.16-.22-.23-.07-.08-.15-.15-.23-.23-.08-.07-.15-.15-.23-.22-.31-.29-.64-.56-.98-.81-.17-.13-.34-.25-.52-.36-.18-.12-.36-.23-.54-.34s-.37-.21-.56-.31c-.09-.05-.19-.1-.29-.14s-.19-.09-.29-.14c-.19-.09-.39-.17-.59-.25-.2-.08-.4-.15-.6-.22-.4-.13-.81-.25-1.22-.34-.41-.09-.83-.16-1.26-.21"/>
    <path class="cls-2" d="M100.32,75.99c1.6,3.17,4.52,5.47,7.98,6.29,3.45.82,7.1.08,9.95-2.03"/>
    <path class="cls-2" d="M421.37,258.87c3.18.73,6.51.15,9.25-1.62,2.74-1.77,4.65-4.57,5.29-7.76"/>
    <path class="cls-2" d="M416.32,258.44c1.7-.09,3.4.05,5.05.43"/>
    <path class="cls-2" d="M201.5,13.89c-.43.05-.84.12-1.26.21-.41.09-.82.2-1.22.34-.2.07-.4.14-.6.22-.2.08-.39.16-.59.25-.1.04-.19.09-.29.14-.1.05-.19.09-.29.14-.19.1-.37.2-.56.31-.18.11-.36.22-.54.34s-.35.24-.52.36c-.34.25-.67.52-.98.81-.08.07-.16.15-.23.22-.08.07-.15.15-.23.23-.07.08-.15.15-.22.23s-.14.16-.21.24c-.14.16-.28.32-.41.49-.13.17-.26.33-.38.51s-.24.35-.35.53c-.11.18-.22.36-.33.54-.05.09-.1.19-.15.28s-.1.19-.15.28c-.05.1-.09.19-.14.29-.04.1-.09.19-.13.29-.17.39-.31.79-.44,1.19-.06.2-.12.4-.17.61-.05.2-.1.41-.14.62-.04.21-.08.42-.11.63-.02.11-.03.21-.04.32-.01.11-.02.21-.03.32-.02.21-.03.42-.04.64s-.01.42,0,.63c0,.42.03.84.09,1.26s.12.84.22,1.25"/>
    <path class="cls-2" d="M310.2,30.48c-.39-.17-.79-.32-1.19-.45-.4-.13-.81-.24-1.22-.32-.21-.04-.41-.08-.62-.11-.21-.03-.42-.06-.63-.08-.11-.01-.21-.02-.32-.03-.11,0-.21-.01-.32-.02-.21,0-.42-.01-.64-.01-.21,0-.42,0-.63.02s-.42.03-.63.05c-.42.05-.84.12-1.25.21-.1.02-.21.05-.31.07-.1.03-.21.05-.31.08-.1.03-.21.06-.31.09-.1.03-.2.06-.3.1-.2.07-.4.14-.6.22s-.39.16-.58.25c-.19.09-.38.18-.57.28-.19.1-.37.2-.55.31-.09.05-.18.11-.27.17-.09.06-.18.11-.27.17-.09.06-.18.12-.26.18s-.17.12-.26.19c-.34.25-.67.52-.98.81-.16.14-.31.29-.45.44-.15.15-.29.31-.43.47-.14.16-.28.32-.41.49-.07.08-.13.17-.19.25-.06.09-.13.17-.19.26-.12.17-.24.35-.35.53-.11.18-.22.36-.32.55-.21.37-.39.75-.56,1.14-.17.39-.31.79-.44,1.2"/>
    <path class="cls-2" d="M350.78,395.96c.34-.25.67-.52.98-.81.31-.28.61-.58.89-.9.14-.16.27-.32.41-.48s.26-.33.38-.51c.06-.09.12-.17.18-.26.06-.09.12-.18.18-.27.11-.18.22-.36.33-.54s.2-.37.3-.56c.09-.19.18-.38.27-.57.17-.39.32-.78.44-1.18.03-.1.06-.2.09-.31s.06-.21.08-.31c.03-.1.05-.21.08-.31s.05-.21.07-.31c.04-.21.08-.42.11-.62s.06-.42.08-.63c.02-.21.03-.42.04-.63s.01-.42.01-.63c0-.21,0-.42-.02-.64,0-.11-.01-.21-.02-.32,0-.11-.02-.21-.03-.32-.05-.42-.12-.84-.21-1.25-.05-.21-.1-.41-.15-.61-.06-.2-.12-.4-.19-.6-.07-.2-.14-.4-.22-.6-.04-.1-.08-.2-.12-.29-.04-.1-.09-.2-.13-.29-.09-.19-.18-.38-.28-.57-.1-.19-.2-.37-.31-.55-.21-.36-.45-.71-.7-1.05-.25-.34-.52-.66-.81-.98"/>
    <path class="cls-2" d="M352.48,71.89c.29-.31.56-.64.81-.98.25-.34.49-.69.7-1.05.11-.18.21-.36.31-.55.1-.19.19-.38.28-.57.04-.1.09-.19.13-.29.04-.1.08-.2.12-.3.08-.2.15-.4.22-.6.07-.2.13-.4.19-.6.06-.2.11-.41.15-.61.09-.41.16-.83.21-1.25.01-.11.02-.21.03-.32s.02-.21.02-.32c0-.11.01-.21.02-.32s0-.21,0-.32c0-.21,0-.42-.01-.63s-.02-.42-.04-.63-.05-.42-.08-.63c-.03-.21-.07-.42-.11-.62-.04-.21-.09-.41-.14-.62-.03-.1-.05-.21-.08-.31-.03-.1-.06-.2-.09-.31-.13-.4-.27-.8-.44-1.19-.08-.19-.17-.38-.27-.57-.09-.19-.19-.37-.3-.56s-.21-.36-.33-.54c-.06-.09-.11-.18-.17-.27s-.12-.18-.18-.26c-.12-.17-.25-.34-.38-.51s-.27-.33-.41-.48c-.28-.32-.57-.62-.89-.9s-.64-.55-.98-.81"/>
    <path class="cls-2" d="M293.81,411.98c.13.41.27.81.44,1.2.17.39.35.77.56,1.14.1.18.21.37.32.55.11.18.23.36.35.53.06.09.12.17.19.26.06.09.13.17.19.25.13.17.27.33.41.49.14.16.28.31.43.46.15.15.3.3.45.44.31.29.64.56.98.81.09.06.17.13.26.19.09.06.18.12.26.18s.18.12.27.17c.09.06.18.11.27.17.18.11.37.21.55.31.19.1.38.19.57.28.19.09.39.17.58.25s.39.15.6.22c.1.03.2.07.3.1.1.03.2.06.31.09s.21.06.31.08c.1.03.21.05.31.07.42.09.83.16,1.25.21.21.02.42.04.63.05.21.01.42.02.63.02.21,0,.42,0,.64-.01.11,0,.21-.01.32-.02.11,0,.21-.02.32-.03.21-.02.42-.05.63-.08s.42-.07.62-.11c.41-.09.82-.19,1.22-.32s.8-.28,1.19-.45"/>
  </g>
  <g id="Make2D::_::_-2" data-name="Make2D::???::???">
    <path class="cls-2" d="M340.37,387.41c2.56-.6,5.13-1.81,7.12-3.59.99-.88,1.87-1.95,2.47-3.15.59-1.2.89-2.55.66-3.9"/>
    <path class="cls-2" d="M330.98,386.74c1.29,1.46,2.9,2.63,4.71,3.39,1.8.75,3.78,1.07,5.73.82"/>
    <path class="cls-2" d="M350.62,376.77c.66,3.1.02,6.32-1.71,8.96-1.73,2.64-4.42,4.51-7.49,5.22"/>
    <path class="cls-2" d="M291.67,407.42c2.96,4.54,8.6,6.44,13.72,4.78"/>
    <path class="cls-2" d="M340.37,387.41c-2.97.7-6.52.71-9.39-.67"/>
    <path class="cls-2" d="M350.28,67.07c.97,2.95.75,6.15-.66,8.92"/>
    <path class="cls-2" d="M344.21,62.39c2.44.71,4.93,2.21,6.07,4.67"/>
    <path class="cls-2" d="M341.42,59c4.14.96,7.53,4.01,8.86,8.07"/>
    <path class="cls-2" d="M344.21,62.39c-2.65-.77-5.59-.74-8.24-.08-2.62.65-5.29,2.01-7.11,4.11"/>
    <path class="cls-2" d="M328.86,66.43c-1.08,2.3-1.51,4.92-1.05,7.45.46,2.53,1.79,4.83,3.88,6.37"/>
    <path class="cls-2" d="M341.42,59c-2.61-.33-5.23.34-7.45,1.7-2.22,1.36-4.01,3.38-5.11,5.73"/>
    <path class="cls-2" d="M305.38,37.75c-.56-.05-1.09,0-1.63.12-.65.15-1.25.41-1.84.73-1.05.58-2.01,1.38-2.83,2.25-1.65,1.73-2.95,3.91-3.84,6.11-.88,2.19-1.45,4.69-1.39,7.07.03,1.19.22,2.43.69,3.54.47,1.11,1.23,2.1,2.39,2.61"/>
    <path class="cls-2" d="M202.2,22.51c-2.8.31-5.42,1.57-7.39,3.59-1.97,2.02-3.15,4.68-3.31,7.5"/>
    <path class="cls-2" d="M305.38,37.75c-5.1-1.65-10.71.22-13.69,4.73"/>
    <path class="cls-2" d="M396.39,154.01c.17.37.4.73.68,1.05.29.34.64.65,1.04.9.37.24.78.43,1.22.57.44.13.91.21,1.38.22.49.01.99-.05,1.46-.18.46-.13.91-.32,1.3-.56"/>
    <path class="cls-2" d="M375.52,119.74c.45.58.92,1.19,1.37,1.79s.92,1.22,1.37,1.83c.45.61.92,1.25,1.37,1.88.45.63.91,1.28,1.36,1.92.9,1.29,1.81,2.63,2.7,3.99.89,1.36,1.78,2.75,2.66,4.17.88,1.42,1.75,2.88,2.61,4.37.86,1.49,1.71,3.01,2.55,4.56.42.77.84,1.57,1.25,2.36.41.79.83,1.6,1.23,2.41.4.81.81,1.64,1.21,2.46.39.82.8,1.68,1.19,2.52"/>
    <path class="cls-2" d="M377.23,112.95c-.48.23-.87.51-1.19.81-.48.44-.82.93-1.05,1.44-.05.1-.09.21-.13.32s-.07.21-.11.32c-.06.21-.11.43-.13.65s-.04.44-.03.66c0,.11.01.22.02.34.01.11.03.23.05.34.03.16.07.33.12.49s.11.32.18.49c.07.16.15.32.25.48.05.08.1.16.15.24.05.08.11.16.17.24"/>
    <path class="cls-2" d="M383.05,109.1c-.19.17-.39.34-.59.5s-.41.34-.62.5c-.43.33-.88.66-1.36.98-.48.32-.99.64-1.53.95-.27.15-.55.31-.83.46-.28.15-.59.3-.89.45"/>
    <path class="cls-2" d="M389.55,109.03c-.06-.05-.13-.1-.19-.15-.08-.06-.17-.12-.26-.18-.09-.06-.19-.12-.29-.18-.29-.17-.63-.32-1.02-.43-.25-.08-.54-.14-.83-.17-.27-.03-.56-.04-.83-.03-.31.01-.61.06-.89.12-.27.06-.52.14-.75.23-.08.03-.15.06-.22.09-.07.03-.14.07-.21.1-.13.07-.26.14-.38.21s-.23.15-.33.23-.2.16-.3.24"/>
    <path class="cls-2" d="M413.12,147.54c-2.83-6.17-5.87-11.91-8.96-17.14-3.13-5.31-6.32-10.14-9.39-14.42-1.13-1.57-2.24-3.07-3.32-4.5-.34-.45-.7-.91-1.03-1.35-.29-.37-.57-.74-.86-1.1"/>
    <path class="cls-2" d="M409.89,153.16c.5-.14.97-.37,1.37-.64.4-.27.75-.59,1.04-.95.32-.39.56-.83.73-1.27.19-.52.28-1.07.27-1.6,0-.11,0-.23-.02-.34s-.03-.23-.05-.34c-.03-.16-.07-.32-.11-.48"/>
    <path class="cls-2" d="M403.46,156.01c1.94-1.2,4.13-2.18,6.43-2.85"/>
    <path class="cls-2" d="M410.86,244.76c-.01.1-.02.19-.02.29-.03.52.04,1.04.2,1.54.16.49.4.96.72,1.37.31.41.7.77,1.14,1.06.43.29.93.51,1.44.65.51.14,1.06.2,1.59.17"/>
    <path class="cls-2" d="M415.92,200.11c-.59-.03-1.2.05-1.77.22-.52.16-1.01.41-1.45.73-.44.32-.82.71-1.11,1.15-.3.44-.51.93-.64,1.43-.12.5-.16,1.04-.1,1.55"/>
    <path class="cls-2" d="M423,199.54c-2.3.5-4.71.7-7.07.58"/>
    <path class="cls-2" d="M428.66,202.56c-.02-.05-.04-.11-.06-.16-.06-.16-.14-.32-.22-.47-.24-.45-.57-.87-.95-1.22-.38-.35-.83-.64-1.31-.85-.48-.21-1-.35-1.53-.4-.53-.05-1.07-.02-1.59.09"/>
    <path class="cls-2" d="M423,250.42c.52.11,1.06.14,1.59.09.53-.05,1.05-.19,1.53-.4.48-.21.93-.5,1.31-.85.39-.35.71-.77.95-1.22.05-.09.1-.19.14-.28.04-.09.08-.19.12-.29.05-.12.09-.25.12-.38"/>
    <path class="cls-2" d="M415.92,249.84c2.36-.12,4.77.07,7.07.58"/>
    <path class="cls-2" d="M202.2,22.51c.06,1.73,1,10.19,1.19,11.9.22,1.98.45,3.96.69,5.94.12.99.24,1.98.37,2.97.1.75.19,1.5.31,2.25.03.18.06.36.09.54,0,.04.02.09.03.13,0,0,0,.04.02.04"/>
    <path class="cls-2" d="M247.49,22.47c-.08.12-.14.24-.2.37-.08.2-.16.4-.22.6-.2.62-.36,1.26-.5,1.9-.22.98-.4,1.97-.57,2.97-.34,1.99-.6,3.99-.83,6-.22,2.01-.4,4.01-.51,6.03-.05,1.01-.09,2.01-.08,3.02,0,.43.01.85.04,1.28.02.31.04.61.09.92.03.19.06.37.14.54.03.07.08.17.18.18"/>
    <path class="cls-2" d="M375.52,330.21c-.39.5-.64,1.03-.78,1.55-.21.77-.21,1.54-.01,2.27.05.17.1.34.17.51s.15.33.24.5c.09.16.19.32.31.48.06.08.12.16.18.23.06.08.13.15.2.23.09.09.19.19.29.28.1.09.21.18.33.26.12.09.24.17.37.25.07.04.13.08.2.12.07.04.14.08.22.11"/>
    <path class="cls-2" d="M396.39,295.94c-.39.84-.79,1.7-1.19,2.52-.39.82-.8,1.66-1.21,2.46-.4.81-.82,1.62-1.23,2.41-.41.79-.83,1.58-1.25,2.36-.84,1.55-1.69,3.08-2.55,4.56-.86,1.49-1.73,2.94-2.61,4.37-.88,1.42-1.77,2.82-2.66,4.18-.89,1.36-1.8,2.69-2.7,3.99-.45.65-.91,1.29-1.36,1.93-.45.63-.91,1.27-1.37,1.88-.45.61-.92,1.24-1.37,1.83-.45.6-.92,1.21-1.37,1.79"/>
    <path class="cls-2" d="M403.46,293.94c-.12-.07-.24-.14-.37-.21-.39-.2-.83-.35-1.28-.44-.47-.09-.96-.12-1.44-.08-.55.05-1.09.19-1.58.4-.14.06-.28.13-.41.2-.13.07-.26.15-.38.23-.12.08-.24.17-.35.26-.11.09-.22.19-.32.29-.4.4-.71.85-.93,1.33"/>
    <path class="cls-2" d="M409.89,296.79c-2.3-.67-4.48-1.65-6.43-2.85"/>
    <path class="cls-2" d="M413.2,302.09c.02-.09.04-.19.05-.28.03-.19.04-.38.05-.56.01-.54-.08-1.08-.27-1.6-.16-.44-.41-.88-.73-1.27-.28-.35-.63-.67-1.04-.95-.41-.27-.87-.49-1.37-.64"/>
    <path class="cls-2" d="M389.8,340.69c1.06-1.36,2.15-2.8,3.26-4.31,3.01-4.08,6.17-8.72,9.3-13.84,3.13-5.12,6.24-10.76,9.16-16.85.57-1.18,1.13-2.39,1.68-3.6"/>
    <path class="cls-2" d="M383.05,340.85c.09.08.19.16.3.24.1.08.21.15.33.23.12.07.24.14.38.21.07.03.14.07.21.1.07.03.15.06.22.09.23.09.48.17.75.23.27.06.58.1.89.12.28.01.56,0,.83-.03.3-.04.58-.1.83-.17.39-.12.73-.27,1.02-.43.12-.07.23-.14.34-.21.11-.07.21-.15.3-.22.12-.1.24-.2.35-.31"/>
    <path class="cls-2" d="M377.23,337c.3.14.6.3.89.45.28.15.57.31.83.46.54.31,1.05.63,1.53.95s.93.65,1.36.98c.21.17.42.33.62.5s.4.34.59.5"/>
    <path class="cls-2" d="M247.49,22.47c2.85.25,5.53,1.5,7.55,3.53,2.02,2.04,3.23,4.73,3.39,7.6"/>
    <path class="cls-2" d="M191.51,416.33c.16,2.83,1.33,5.49,3.3,7.52,1.97,2.03,4.59,3.29,7.39,3.6"/>
    <path class="cls-2" d="M104.15,60.91c1.52-1.12,3.08-2.24,4.64-3.31,1.55-1.08,3.13-2.14,4.72-3.18,3.17-2.07,6.4-4.05,9.68-5.94,3.28-1.89,6.62-3.69,10-5.4,1.69-.85,3.4-1.69,5.12-2.49,1.71-.8,3.46-1.6,5.2-2.35"/>
    <path class="cls-2" d="M99.12,53.91s.11.12.27.29c.08.09.18.19.3.33.12.14.27.3.45.5.2.22.43.49.69.82.27.33.57.72.91,1.18s.72,1,1.12,1.64c.2.32.41.66.63,1.03s.44.77.66,1.2"/>
    <path class="cls-2" d="M258.43,416.33c-.16,2.87-1.37,5.57-3.39,7.61-2.02,2.04-4.7,3.29-7.56,3.54"/>
    <path class="cls-2" d="M143.5,38.23c-.28-.41-.53-.81-.76-1.18-.23-.37-.44-.73-.63-1.07-.38-.67-.68-1.28-.93-1.81s-.45-.99-.61-1.39c-.16-.39-.29-.73-.39-1-.09-.24-.16-.44-.21-.6-.05-.16-.09-.29-.12-.39-.06-.2-.08-.29-.09-.33"/>
    <path class="cls-2" d="M104.15,60.91c-2.32,1.65-4,4.06-4.71,6.81-.72,2.76-.42,5.68.86,8.23"/>
    <path class="cls-2" d="M305.38,37.75c.46.2.94.41,1.39.61.45.2.91.4,1.35.6.44.2.88.4,1.31.6.43.2.85.39,1.27.59.83.39,1.64.78,2.42,1.16.78.38,1.54.76,2.28,1.13s1.46.74,2.15,1.11c.7.36,1.38.72,2.03,1.08s1.3.71,1.92,1.05c.62.34,1.23.69,1.82,1.03.48.27.95.55,1.41.82.46.27.91.54,1.35.8.88.53,1.72,1.05,2.53,1.56,1.63,1.03,3.14,2.03,4.59,3.02,1.45,1,2.84,1.99,4.2,3,1.36,1.01,2.69,2.04,4.02,3.09"/>
    <path class="cls-2" d="M310.2,30.48s0,.06-.01.1-.02.08-.03.12c-.03.09-.07.21-.13.35-.06.15-.15.33-.27.56s-.27.51-.46.84c-.16.28-.35.59-.58.95-.23.35-.49.75-.8,1.19-.31.44-.67.92-1.08,1.44s-.89,1.1-1.44,1.73"/>
    <path class="cls-2" d="M104.15,60.91c.87.61,3.34,3.71,3.97,4.5,1.25,1.57,2.46,3.17,3.65,4.78,1.19,1.61,2.35,3.25,3.48,4.9.56.83,1.12,1.66,1.65,2.51.23.37.46.74.68,1.11.16.27.31.54.45.82.08.16.16.33.21.51.01.05.02.09.02.14,0,.03,0,.05-.03.07"/>
    <path class="cls-2" d="M341.42,59c.16-.24.33-.47.49-.69s.32-.43.48-.62c.32-.39.63-.75.93-1.07.6-.64,1.16-1.14,1.66-1.53s.96-.66,1.36-.86c.2-.1.39-.18.57-.24s.34-.11.5-.14c.31-.06.58-.07.82-.06s.45.06.64.1c.19.05.36.1.51.15.15.05.28.09.4.13.28.09.48.14.63.11.08-.01.14-.04.2-.09.03-.03.06-.06.1-.09.02-.02.03-.04.05-.06.02-.02.03-.04.05-.06"/>
    <path class="cls-2" d="M202.2,22.51c1.88-.21,3.79-.4,5.68-.56,1.88-.16,3.79-.29,5.67-.4,1.89-.11,3.78-.19,5.67-.24,1.89-.05,3.78-.08,5.67-.08,1.89,0,3.77.02,5.66.07,1.88.05,3.77.13,5.65.23,1.88.1,3.77.23,5.65.39.94.08,1.89.16,2.82.25.93.09,1.89.19,2.82.29"/>
    <path class="cls-2" d="M201.5,13.89s.01.08.05.26c.02.09.05.21.08.38.03.16.08.36.12.62.03.15.06.31.09.49.03.18.06.38.1.59.07.43.13.94.19,1.54s.11,1.29.13,2.08c.01.39.01.81,0,1.26,0,.45-.03.92-.06,1.42"/>
    <path class="cls-2" d="M143.5,38.23c.57.86,2.22,4.44,2.65,5.37.83,1.82,1.65,3.64,2.45,5.47.8,1.83,1.58,3.67,2.35,5.51.38.92.76,1.85,1.12,2.78.27.7.55,1.4.78,2.11.06.17.11.35.15.53,0,.04.02.09.02.13,0,.01,0,.04-.01.05"/>
    <path class="cls-2" d="M247.49,22.47c-.01-.47-.01-.93,0-1.35,0-.42.03-.83.05-1.21.04-.76.11-1.44.19-2.03.07-.59.15-1.1.23-1.54.04-.22.07-.42.11-.6s.07-.35.1-.5c.05-.27.1-.49.14-.66.04-.17.07-.31.09-.41.04-.2.05-.27.05-.29"/>
    <path class="cls-2" d="M143.5,38.23c2.57-1.12,5.46-1.33,8.16-.56,2.7.77,5.04,2.47,6.59,4.82"/>
    <path class="cls-2" d="M145.38,407.99c-.34.71-1.44,3.06-1.89,3.72"/>
    <path class="cls-2" d="M152.93,410.07c.88.28,2.14.52,3.04-.06"/>
    <path class="cls-2" d="M155.97,410.01c-3.5,2.91-8.33,3.52-12.47,1.71"/>
    <path class="cls-2" d="M152.93,410.07c-2.61.08-5.33-.84-7.55-2.08"/>
    <path class="cls-2" d="M158.28,407.42c-.65.99-1.4,1.83-2.31,2.59"/>
    <path class="cls-2" d="M38.33,143.23c.76-1.74,1.56-3.49,2.37-5.2s1.65-3.43,2.5-5.12c1.71-3.38,3.52-6.72,5.42-10s3.89-6.51,5.97-9.68c1.04-1.58,2.11-3.16,3.19-4.72,1.08-1.55,2.2-3.11,3.33-4.64"/>
    <path class="cls-2" d="M30.44,139.75s.14.02.37.08c.12.03.27.07.47.13.2.06.44.13.74.23.28.09.62.21,1.01.36.39.15.85.33,1.36.56s1.11.5,1.76.85c.33.17.68.36,1.04.57.36.21.75.44,1.15.7"/>
    <path class="cls-2" d="M38.33,143.23c-1.21,2.6-1.47,5.55-.71,8.31.76,2.77,2.49,5.17,4.9,6.74"/>
    <path class="cls-2" d="M61.11,103.88c-.43-.21-.84-.41-1.21-.61-.37-.2-.72-.39-1.04-.58-.64-.37-1.19-.72-1.66-1.04-.47-.31-.87-.6-1.2-.85-.34-.25-.62-.47-.85-.65-.23-.18-.41-.33-.56-.46-.15-.13-.27-.23-.36-.3-.19-.16-.28-.24-.31-.27"/>
    <path class="cls-2" d="M38.33,306.72c-.4.25-.78.49-1.15.7s-.71.4-1.04.57c-.65.34-1.24.62-1.76.85s-.97.41-1.36.56c-.39.15-.73.27-1.01.36-.3.1-.54.17-.74.23s-.35.1-.47.13c-.23.06-.33.08-.37.08"/>
    <path class="cls-2" d="M38.33,143.23c.14-.01.28,0,.42.02.21.03.42.06.63.11.64.14,1.27.32,1.89.52.96.3,1.91.64,2.86.99,1.89.71,3.76,1.47,5.61,2.28,1.85.81,3.68,1.66,5.47,2.58.9.46,1.79.93,2.66,1.44.37.21.73.44,1.09.67.26.17.51.34.75.54.15.12.29.24.4.39.04.06.11.16.07.24"/>
    <path class="cls-2" d="M53.91,350.83s.13-.11.31-.27c.09-.08.21-.18.36-.3.15-.13.34-.28.56-.46.23-.18.51-.4.85-.65s.73-.53,1.2-.85c.47-.31,1.02-.67,1.66-1.04.32-.19.67-.38,1.04-.58.37-.2.78-.4,1.21-.61"/>
    <path class="cls-2" d="M61.11,346.07c-1.13-1.52-2.25-3.08-3.33-4.64-1.08-1.55-2.15-3.13-3.19-4.72-2.08-3.17-4.07-6.4-5.97-9.68s-3.71-6.62-5.42-10c-.86-1.69-1.69-3.41-2.5-5.12-.81-1.71-1.6-3.46-2.37-5.2"/>
    <path class="cls-2" d="M61.11,103.88c1.68-2.22,4.06-3.81,6.77-4.47,2.71-.66,5.56-.36,8.05.89"/>
    <path class="cls-2" d="M61.11,346.07c1.68,2.22,4.07,3.81,6.78,4.48,2.71.66,5.57.35,8.06-.9"/>
    <path class="cls-2" d="M104.15,389.04c-.22.43-.44.83-.66,1.2-.22.37-.42.71-.63,1.03-.41.64-.78,1.18-1.12,1.64-.34.47-.65.85-.91,1.18s-.5.6-.69.82c-.18.2-.33.37-.45.5-.12.14-.22.24-.3.33-.16.17-.24.26-.27.29"/>
    <path class="cls-2" d="M61.11,346.07c.14-.02.27-.07.4-.11.2-.07.39-.16.59-.25.59-.28,1.16-.6,1.73-.93.87-.51,1.72-1.05,2.56-1.61,1.68-1.11,3.33-2.27,4.95-3.47,1.62-1.2,3.21-2.43,4.76-3.71.78-.64,1.54-1.3,2.28-1.98.31-.29.61-.58.91-.88.21-.22.42-.44.62-.68.12-.15.23-.3.32-.47.03-.07.09-.18.04-.26"/>
    <path class="cls-2" d="M139.75,419.5s.03-.13.09-.33c.03-.1.07-.23.12-.39.05-.16.12-.36.21-.6.1-.27.23-.61.39-1,.16-.39.36-.86.61-1.39s.56-1.14.93-1.81c.19-.34.4-.7.63-1.07.23-.37.48-.77.76-1.18"/>
    <path class="cls-2" d="M143.5,411.72c-1.74-.76-3.48-1.55-5.2-2.35-1.71-.8-3.43-1.64-5.12-2.49-3.38-1.7-6.72-3.51-10-5.4-3.28-1.89-6.51-3.87-9.68-5.94-1.58-1.03-3.16-2.1-4.72-3.18-1.55-1.08-3.11-2.19-4.64-3.31"/>
    <path class="cls-2" d="M38.33,306.72c.14.01.28,0,.42-.02.21-.03.42-.06.63-.11.64-.14,1.27-.32,1.89-.52.96-.3,1.91-.64,2.86-.99,1.89-.71,3.76-1.47,5.61-2.28,1.85-.81,3.67-1.66,5.47-2.57.9-.46,1.79-.93,2.66-1.44.37-.21.73-.43,1.08-.67.26-.17.51-.34.75-.54.15-.12.29-.24.4-.39.04-.06.11-.16.08-.25"/>
    <path class="cls-2" d="M38.33,306.72c-1.2-2.59-1.47-5.52-.72-8.28.75-2.76,2.46-5.15,4.85-6.73"/>
    <path class="cls-2" d="M305.38,412.2c.55.63,1.03,1.2,1.44,1.73.41.52.77,1.01,1.08,1.44.31.44.57.83.8,1.19s.42.67.58.95c.19.33.34.61.46.84.12.23.2.41.27.56.06.15.11.26.13.35.01.05.02.09.03.12s.01.07.01.1"/>
    <path class="cls-2" d="M375.52,119.74c-1.02.27-2.12.36-3.16.14-1.05-.22-2.01-.75-2.66-1.63"/>
    <path class="cls-2" d="M350.78,395.96s-.03-.04-.05-.06c-.02-.02-.03-.04-.05-.06-.03-.04-.06-.07-.1-.09-.06-.05-.13-.08-.2-.09-.15-.03-.35.02-.63.11-.12.04-.25.08-.4.13-.15.05-.32.1-.51.15-.19.05-.4.09-.64.1-.24.01-.51,0-.82-.06-.15-.03-.32-.08-.5-.14s-.37-.14-.57-.24c-.4-.19-.85-.47-1.36-.86-.5-.39-1.06-.89-1.66-1.53-.3-.32-.61-.68-.93-1.07-.16-.2-.32-.41-.48-.62-.16-.22-.33-.45-.49-.69"/>
    <path class="cls-2" d="M341.42,390.95c-1.32,1.06-2.66,2.08-4.02,3.09-1.36,1.01-2.75,2-4.2,3-1.45,1-2.97,2-4.59,3.02-.81.51-1.66,1.03-2.53,1.56-.44.26-.89.53-1.35.8-.46.27-.93.55-1.41.82-.58.33-1.2.68-1.82,1.03-.62.34-1.26.7-1.92,1.05s-1.33.71-2.03,1.08c-.7.36-1.41.73-2.15,1.11-.74.37-1.5.75-2.28,1.13-.78.38-1.6.77-2.42,1.16-.41.19-.84.39-1.27.59-.43.2-.87.4-1.31.6-.44.2-.9.4-1.35.6-.45.2-.93.41-1.39.61"/>
    <path class="cls-2" d="M396.39,154.01c-1.12.35-2.38.58-3.56.52-.59-.03-1.21-.12-1.76-.35-.55-.23-1.06-.6-1.31-1.18"/>
    <path class="cls-2" d="M403.46,156.01c.54.6,1.11,1.16,1.76,1.64.33.24.66.45,1.04.61.33.13.81.25,1.16.02"/>
    <path class="cls-2" d="M409.89,153.16c.25.58.52,1.15.84,1.69.16.27.33.54.53.79.1.12.2.24.33.34.11.09.27.2.43.15"/>
    <path class="cls-2" d="M202.2,427.44c.03.5.05.97.06,1.42s0,.86,0,1.26c-.02.79-.07,1.48-.13,2.08s-.13,1.11-.19,1.54c-.03.22-.06.41-.1.59-.03.18-.06.34-.09.49-.05.25-.09.45-.12.62-.03.16-.06.28-.08.38-.04.18-.05.24-.05.26"/>
    <path class="cls-2" d="M410.86,205.19c-1.22.13-2.44.23-3.66.25-.61.01-1.22,0-1.84-.03-.31-.02-.61-.05-.91-.11-.19-.04-.41-.08-.58-.17-.08-.04-.19-.11-.2-.21"/>
    <path class="cls-2" d="M248.44,436.07s-.01-.09-.05-.29c-.02-.1-.05-.23-.09-.41-.04-.17-.09-.39-.14-.66-.03-.15-.06-.32-.1-.5s-.07-.38-.11-.6c-.07-.43-.15-.95-.23-1.54-.07-.59-.14-1.27-.19-2.03-.02-.38-.04-.79-.05-1.21,0-.42,0-.88,0-1.35"/>
    <path class="cls-2" d="M247.49,427.48c-.93.1-1.88.2-2.82.29-.93.09-1.88.18-2.82.25-1.87.15-3.77.28-5.65.39-1.88.1-3.77.18-5.65.23s-3.77.08-5.66.07c-1.89,0-3.78-.03-5.67-.08-1.89-.05-3.78-.13-5.67-.24s-3.79-.24-5.67-.4c-1.88-.16-3.8-.35-5.68-.56"/>
    <line class="cls-2" x1="32.63" y1="173.44" x2="39.74" y2="177.54"/>
    <line class="cls-2" x1="32.63" y1="173.44" x2="25.52" y2="169.33"/>
    <line class="cls-2" x1="84.17" y1="365.78" x2="91.27" y2="361.68"/>
    <line class="cls-2" x1="84.17" y1="365.78" x2="77.06" y2="369.88"/>
    <line class="cls-2" x1="173.43" y1="417.32" x2="177.54" y2="410.21"/>
    <line class="cls-2" x1="173.43" y1="417.32" x2="169.33" y2="424.43"/>
    <line class="cls-2" x1="276.51" y1="417.32" x2="276.51" y2="409.11"/>
    <line class="cls-2" x1="276.51" y1="417.32" x2="276.51" y2="425.53"/>
    <line class="cls-2" x1="365.78" y1="365.78" x2="361.67" y2="358.67"/>
    <line class="cls-2" x1="365.78" y1="365.78" x2="369.88" y2="372.89"/>
    <line class="cls-2" x1="417.31" y1="276.51" x2="410.21" y2="272.41"/>
    <line class="cls-2" x1="417.31" y1="276.51" x2="424.42" y2="280.62"/>
    <line class="cls-2" x1="417.31" y1="173.44" x2="409.11" y2="173.44"/>
    <line class="cls-2" x1="417.31" y1="173.44" x2="425.52" y2="173.44"/>
    <line class="cls-2" x1="365.78" y1="84.17" x2="358.67" y2="88.27"/>
    <line class="cls-2" x1="365.78" y1="84.17" x2="372.88" y2="80.07"/>
    <line class="cls-2" x1="276.51" y1="32.63" x2="272.41" y2="39.74"/>
    <line class="cls-2" x1="276.51" y1="32.63" x2="280.61" y2="25.53"/>
    <line class="cls-2" x1="173.43" y1="32.63" x2="173.43" y2="40.84"/>
    <line class="cls-2" x1="173.43" y1="32.63" x2="173.43" y2="24.43"/>
    <line class="cls-2" x1="84.17" y1="84.17" x2="88.27" y2="91.28"/>
    <line class="cls-2" x1="84.17" y1="84.17" x2="80.06" y2="77.06"/>
    <line class="cls-2" x1="32.63" y1="276.51" x2="40.83" y2="276.51"/>
    <line class="cls-2" x1="32.63" y1="276.51" x2="24.42" y2="276.51"/>
    <path class="cls-2" d="M410.86,244.76c-1.22-.13-2.44-.23-3.66-.25-.61-.01-1.22,0-1.84.03-.31.02-.61.05-.91.11-.19.04-.41.08-.58.17-.08.04-.19.11-.2.21"/>
    <path class="cls-2" d="M415.92,249.84c.08,1.43.16,2.87.23,4.3.04.72.07,1.43.1,2.15.02.36.03.72.04,1.08.01.27.02.54.02.81,0,.07,0,.13,0,.2,0,.02,0,.03,0,.05,0,0,0,.02,0,.02"/>
    <path class="cls-2" d="M375.29,224.97c4.19,0,8.38,0,12.57,0"/>
    <path class="cls-2" d="M62.05,224.97s0,0,0,0c0,0,.01,0,.02,0h.07c.09,0,.19,0,.28,0h.37c.25,0,.49,0,.74,0,.49,0,.99,0,1.48,0"/>
    <path class="cls-2" d="M65.01,224.97c0,.29,0,.62,0,.93,0,.31,0,.62,0,.93,0,.62.02,1.23.03,1.85.03,1.23.07,2.46.13,3.7.11,2.46.28,4.92.51,7.37.1,1.13.22,2.3.35,3.43s.27,2.29.42,3.41c.15,1.12.32,2.27.49,3.39.18,1.12.37,2.25.56,3.37.4,2.23.85,4.47,1.34,6.68s1.03,4.41,1.61,6.6c.58,2.18,1.21,4.36,1.89,6.51.67,2.16,1.4,4.31,2.16,6.43.38,1.06.78,2.13,1.18,3.19.4,1.05.83,2.12,1.25,3.17.43,1.04.88,2.11,1.32,3.15.45,1.03.92,2.1,1.39,3.13.46,1.01.95,2.05,1.43,3.04.48,1,.99,2.02,1.49,3s1.03,1.99,1.55,2.96c.52.98,1.06,1.96,1.61,2.92,1.09,1.93,2.22,3.84,3.38,5.72,1.16,1.88,2.37,3.74,3.61,5.56,1.24,1.83,2.52,3.63,3.83,5.41,1.31,1.77,2.67,3.53,4.06,5.25.69.86,1.4,1.72,2.11,2.57s1.44,1.7,2.17,2.53c.73.83,1.48,1.67,2.23,2.49s1.52,1.65,2.28,2.45c.72.76,1.48,1.54,2.22,2.28.74.74,1.51,1.5,2.26,2.23.75.73,1.53,1.47,2.3,2.18.77.71,1.55,1.43,2.34,2.13,1.56,1.4,3.16,2.77,4.78,4.11,1.62,1.34,3.26,2.64,4.93,3.91,1.67,1.27,3.36,2.51,5.08,3.71,1.72,1.2,3.47,2.38,5.23,3.52.88.57,1.78,1.13,2.67,1.68s1.8,1.1,2.71,1.63c.9.53,1.83,1.07,2.74,1.58.91.51,1.86,1.04,2.78,1.53.85.46,1.73.92,2.59,1.36s1.74.89,2.61,1.31c.87.43,1.75.85,2.63,1.26.87.41,1.76.82,2.64,1.21,1.76.79,3.55,1.55,5.34,2.27,1.79.72,3.59,1.41,5.4,2.07,1.81.66,3.63,1.28,5.46,1.87,1.83.59,3.68,1.15,5.53,1.67.92.26,1.86.52,2.79.76.93.24,1.87.48,2.8.71.93.23,1.88.45,2.82.66.93.21,1.9.42,2.83.61.95.2,1.94.39,2.9.57.96.18,1.94.35,2.9.51.96.16,1.93.31,2.89.46.96.14,1.93.28,2.89.4,1.92.25,3.85.46,5.76.64s3.83.32,5.74.42c1.91.1,3.82.17,5.72.21,1.9.03,3.81.03,5.69,0,.94-.02,1.9-.04,2.84-.08s1.9-.08,2.83-.13,1.89-.11,2.82-.18c.93-.07,1.89-.15,2.81-.24.92-.09,1.87-.18,2.79-.28.91-.1,1.85-.22,2.76-.33.91-.12,1.83-.25,2.73-.38s1.81-.28,2.7-.43c1.79-.3,3.56-.63,5.32-.99,1.75-.36,3.49-.75,5.2-1.16,1.72-.42,3.41-.86,5.09-1.33,1.68-.47,3.35-.97,4.98-1.5.82-.26,1.64-.53,2.45-.81.81-.27,1.63-.56,2.43-.85.8-.29,1.61-.59,2.4-.89s1.6-.62,2.38-.93c1.08-.43,2.19-.9,3.25-1.35,1.06-.46,2.14-.94,3.18-1.41,1.04-.48,2.09-.98,3.11-1.47,1.02-.5,2.04-1.01,3.04-1.53,1-.52,2-1.05,2.98-1.59.98-.54,1.96-1.09,2.92-1.65,1.93-1.12,3.82-2.28,5.67-3.48s3.68-2.44,5.47-3.72,3.55-2.6,5.28-3.96c.86-.68,1.73-1.37,2.57-2.07.85-.7,1.7-1.42,2.53-2.13.83-.72,1.67-1.46,2.49-2.2.82-.74,1.65-1.51,2.45-2.26.77-.73,1.55-1.48,2.31-2.23.75-.74,1.52-1.52,2.26-2.28.74-.76,1.49-1.55,2.22-2.33.73-.78,1.46-1.58,2.17-2.39,1.43-1.6,2.84-3.26,4.22-4.94s2.73-3.41,4.05-5.17c1.32-1.76,2.61-3.57,3.88-5.41s2.51-3.74,3.71-5.67c.6-.96,1.2-1.95,1.79-2.93.59-.98,1.18-2,1.75-3,.57-1.01,1.15-2.05,1.7-3.08.55-1.03,1.12-2.1,1.66-3.15.35-.69.71-1.4,1.06-2.1.35-.7.69-1.42,1.03-2.13.67-1.42,1.34-2.87,1.98-4.32s1.27-2.93,1.88-4.42c.61-1.49,1.2-3,1.77-4.52.57-1.52,1.12-3.06,1.66-4.62.53-1.56,1.05-3.14,1.54-4.73.25-.79.49-1.6.73-2.4.24-.8.47-1.62.7-2.43.23-.81.45-1.64.67-2.46.21-.82.43-1.66.63-2.49.2-.83.41-1.7.61-2.53.19-.84.39-1.7.57-2.55.18-.84.36-1.71.53-2.56.17-.85.34-1.72.49-2.57.31-1.71.61-3.45.87-5.18.27-1.73.51-3.48.72-5.23.21-1.75.4-3.51.56-5.28.16-1.77.3-3.55.41-5.33.05-.89.1-1.79.14-2.68.04-.89.08-1.8.1-2.69.03-.89.05-1.82.06-2.71.01-.89.02-1.83.02-2.72"/>
    <path class="cls-2" d="M375.29,224.97h-43.7c-14.69,0-29.35,0-43.95,0-14.6,0-29.15,0-43.6,0-14.45,0-28.82,0-42.97,0-14.16,0-28.1,0-41.69,0-13.58,0-26.79,0-39.37,0-12.58,0-24.52,0-35.51,0-6.9,0-13.41,0-19.48,0"/>
    <path class="cls-2" d="M375.29,224.97c0-.82,0-1.66-.02-2.48-.01-.82-.03-1.65-.05-2.47s-.05-1.65-.09-2.46c-.03-.81-.07-1.64-.12-2.45-.09-1.62-.2-3.25-.34-4.87-.14-1.62-.29-3.23-.47-4.83-.18-1.6-.38-3.2-.6-4.79s-.47-3.18-.73-4.76c-.13-.79-.27-1.58-.41-2.36-.14-.78-.29-1.58-.44-2.36s-.31-1.57-.48-2.35c-.16-.77-.34-1.57-.51-2.34-.19-.86-.4-1.75-.61-2.61-.21-.86-.42-1.73-.64-2.58-.22-.85-.45-1.71-.68-2.55-.23-.84-.47-1.69-.71-2.52-.48-1.66-.99-3.32-1.52-4.95-.53-1.63-1.07-3.24-1.64-4.84-.57-1.59-1.16-3.17-1.77-4.73s-1.24-3.11-1.89-4.63c-.65-1.52-1.32-3.04-2-4.53-.34-.74-.69-1.49-1.04-2.23-.35-.73-.71-1.48-1.07-2.2-.28-.57-.58-1.17-.87-1.73-.29-.56-.59-1.15-.89-1.71-.59-1.12-1.2-2.26-1.81-3.35s-1.24-2.2-1.86-3.26-1.27-2.14-1.91-3.18-1.3-2.08-1.96-3.1c-.66-1.02-1.33-2.03-2.01-3.02-1.36-1.99-2.75-3.93-4.17-5.83-1.42-1.89-2.88-3.75-4.37-5.55-.74-.9-1.5-1.8-2.26-2.67-.76-.88-1.53-1.75-2.31-2.61-.77-.86-1.57-1.71-2.36-2.55-.79-.83-1.6-1.67-2.41-2.48-.81-.81-1.64-1.63-2.46-2.42-.82-.79-1.68-1.6-2.52-2.36-.8-.73-1.63-1.48-2.44-2.19-.81-.71-1.65-1.43-2.48-2.13-.83-.69-1.68-1.39-2.52-2.06-.84-.67-1.7-1.35-2.56-2-1.71-1.31-3.47-2.59-5.25-3.83-1.78-1.24-3.59-2.44-5.44-3.6-1.84-1.16-3.72-2.28-5.64-3.37-1.91-1.08-3.87-2.13-5.86-3.14-.99-.5-2.01-1-3.02-1.48-1.01-.48-2.05-.96-3.09-1.42s-2.1-.92-3.15-1.36c-1.05-.44-2.15-.88-3.22-1.3-.78-.3-1.59-.61-2.37-.9-.79-.29-1.6-.58-2.4-.86s-1.61-.56-2.42-.82c-.81-.27-1.63-.53-2.45-.78-1.63-.51-3.3-.99-4.97-1.45-1.67-.45-3.37-.88-5.08-1.28-1.71-.4-3.44-.77-5.18-1.11-1.74-.34-3.52-.66-5.29-.94-.89-.14-1.79-.28-2.69-.4s-1.81-.25-2.72-.36c-.9-.11-1.83-.22-2.74-.31s-1.86-.18-2.77-.26c-1-.08-2.04-.16-3.05-.23-1-.07-2.04-.12-3.05-.17-1.01-.05-2.05-.08-3.06-.11s-2.05-.04-3.07-.05-2.05,0-3.07.01c-1.02.01-2.05.04-3.08.08-2.05.07-4.11.18-6.17.33s-4.13.35-6.19.58c-1.03.12-2.07.25-3.1.38-1.03.14-2.07.29-3.1.45-1.03.16-2.08.33-3.11.51-1.03.18-2.08.38-3.11.58s-2.09.42-3.11.64-2.09.46-3.12.71c-1.07.25-2.17.53-3.24.81s-2.15.57-3.21.87c-1.06.3-2.14.62-3.19.94-1.05.32-2.12.66-3.16,1-1.05.34-2.1.7-3.14,1.07-1.04.37-2.08.74-3.11,1.13-2.07.77-4.12,1.59-6.15,2.45s-4.05,1.76-6.05,2.71c-1,.47-2,.96-2.99,1.45s-1.98,1-2.96,1.52c-.98.51-1.97,1.05-2.94,1.58-.97.53-1.95,1.09-2.91,1.65-.96.55-1.94,1.14-2.89,1.71-.95.57-1.93,1.18-2.86,1.78-.94.6-1.91,1.23-2.84,1.85-.93.62-1.88,1.27-2.79,1.9s-1.84,1.3-2.75,1.96-1.81,1.33-2.7,2.01c-1.78,1.35-3.54,2.75-5.26,4.18-1.72,1.43-3.41,2.89-5.07,4.39-1.66,1.5-3.29,3.03-4.88,4.6-1.6,1.57-3.17,3.18-4.7,4.81-.76.82-1.53,1.65-2.28,2.49-.75.83-1.5,1.69-2.23,2.54-.73.85-1.47,1.73-2.18,2.59-.71.86-1.44,1.77-2.14,2.65-.68.87-1.39,1.78-2.05,2.66s-1.34,1.8-1.99,2.7c-.65.9-1.3,1.82-1.93,2.73-.63.91-1.26,1.84-1.87,2.76-1.22,1.85-2.41,3.73-3.56,5.63-1.14,1.9-2.25,3.82-3.32,5.77-1.07,1.95-2.09,3.92-3.08,5.91-.99,1.99-1.94,4.01-2.84,6.05-.45,1.02-.9,2.05-1.33,3.08s-.86,2.08-1.27,3.11c-.41,1.03-.82,2.1-1.21,3.15-.39,1.04-.78,2.13-1.14,3.18-.37,1.05-.73,2.15-1.08,3.21s-.69,2.16-1.01,3.22-.64,2.16-.94,3.24c-.3,1.08-.59,2.17-.87,3.25-.55,2.16-1.07,4.36-1.53,6.54-.46,2.19-.88,4.39-1.26,6.6-.37,2.21-.7,4.43-.98,6.65-.28,2.22-.52,4.47-.71,6.7-.09,1.12-.18,2.25-.25,3.37-.07,1.12-.13,2.26-.18,3.39s-.08,2.28-.11,3.4-.04,2.29-.04,3.41"/>
    <path class="cls-2" d="M423,250.42c-.33,1.4-.65,2.8-.95,4.21-.15.7-.29,1.41-.42,2.12-.07.35-.13.71-.18,1.06-.04.26-.08.52-.1.79,0,.07,0,.13,0,.2,0,.02,0,.07.03.07"/>
    <path class="cls-2" d="M396.39,295.94c-1.12-.35-2.37-.57-3.55-.52-.59.02-1.21.12-1.76.35-.55.22-1.06.59-1.32,1.16"/>
    <path class="cls-2" d="M508.26,224.98v158.1"/>
    <line class="cls-2" x1="508.26" y1="224.98" x2="583.16" y2="224.98"/>
    <path class="cls-2" d="M375.52,330.21c-1.01-.27-2.1-.35-3.14-.14-1.04.21-2,.73-2.66,1.6"/>
    <path class="cls-2" d="M377.23,337c-1.09.59-2.03,1.53-2.75,2.5-.74.99-1.34,2.13-1.73,3.31-.39,1.15-.63,2.45-.52,3.68.1,1.18.55,2.54,1.74,3.14"/>
    <path class="cls-2" d="M383.05,340.85c-2.45.59-4.57,2.45-5.65,4.66-.55,1.12-.87,2.39-.79,3.65.08,1.27.56,2.48,1.51,3.36"/>
    <line class="cls-2" x1="14.42" y1="224.98" x2="13.77" y2="224.98"/>
    <line class="cls-2" x1="37.26" y1="224.98" x2="37.91" y2="224.98"/>
    <line class="cls-2" x1="7.74" y1="224.98" x2="7.09" y2="224.98"/>
    <line class="cls-2" x1="388.65" y1="296.46" x2="389.76" y2="296.95"/>
    <line class="cls-2" x1="369.69" y1="331.7" x2="368.72" y2="330.99"/>
    <line class="cls-2" x1="373.95" y1="349.63" x2="373.41" y2="350.71"/>
    <line class="cls-2" x1="408.08" y1="290.66" x2="407.42" y2="291.67"/>
    <line class="cls-2" x1="378.11" y1="352.53" x2="377.29" y2="353.42"/>
    <line class="cls-2" x1="412.36" y1="292.67" x2="412.01" y2="293.82"/>
    <line class="cls-2" x1="81.22" y1="330.99" x2="80.25" y2="331.7"/>
    <line class="cls-2" x1="60.18" y1="296.95" x2="61.29" y2="296.46"/>
    <line class="cls-2" x1="42.53" y1="291.67" x2="41.87" y2="290.66"/>
    <line class="cls-2" x1="76.53" y1="350.71" x2="75.99" y2="349.63"/>
    <line class="cls-2" x1="37.94" y1="293.82" x2="37.59" y2="292.66"/>
    <line class="cls-2" x1="72.66" y1="353.4" x2="71.84" y2="352.52"/>
    <line class="cls-2" x1="30.44" y1="310.2" x2="29.33" y2="310.68"/>
    <line class="cls-2" x1="52.94" y1="351.55" x2="53.91" y2="350.83"/>
    <line class="cls-2" x1="159.29" y1="408.08" x2="158.28" y2="407.42"/>
    <line class="cls-2" x1="153" y1="389.76" x2="153.48" y2="388.66"/>
    <line class="cls-2" x1="157.28" y1="412.35" x2="156.13" y2="412"/>
    <line class="cls-2" x1="118.25" y1="369.7" x2="118.96" y2="368.73"/>
    <line class="cls-2" x1="139.26" y1="420.61" x2="139.75" y2="419.5"/>
    <line class="cls-2" x1="100.32" y1="373.96" x2="99.24" y2="373.41"/>
    <line class="cls-2" x1="98.4" y1="397.01" x2="99.12" y2="396.04"/>
    <line class="cls-2" x1="97.43" y1="378.1" x2="96.54" y2="377.28"/>
    <line class="cls-2" x1="259.64" y1="416.39" x2="258.43" y2="416.33"/>
    <line class="cls-2" x1="260.04" y1="421.1" x2="258.87" y2="421.37"/>
    <line class="cls-2" x1="204.91" y1="403.67" x2="205.04" y2="402.47"/>
    <line class="cls-2" x1="248.57" y1="437.27" x2="248.44" y2="436.07"/>
    <line class="cls-2" x1="191.51" y1="416.33" x2="190.3" y2="416.39"/>
    <line class="cls-2" x1="201.37" y1="437.26" x2="201.5" y2="436.07"/>
    <line class="cls-2" x1="191.08" y1="421.37" x2="189.9" y2="421.1"/>
    <line class="cls-2" x1="350.7" y1="373.41" x2="349.63" y2="373.96"/>
    <line class="cls-2" x1="331.7" y1="369.7" x2="330.98" y2="368.73"/>
    <line class="cls-2" x1="353.36" y1="377.24" x2="352.48" y2="378.06"/>
    <line class="cls-2" x1="296.94" y1="389.76" x2="296.46" y2="388.66"/>
    <line class="cls-2" x1="351.5" y1="396.93" x2="350.78" y2="395.96"/>
    <line class="cls-2" x1="291.67" y1="407.42" x2="290.66" y2="408.08"/>
    <line class="cls-2" x1="310.68" y1="420.58" x2="310.2" y2="419.47"/>
    <line class="cls-2" x1="293.81" y1="411.98" x2="292.65" y2="412.34"/>
    <line class="cls-2" x1="403.67" y1="204.91" x2="402.47" y2="205.04"/>
    <line class="cls-2" x1="416.39" y1="190.31" x2="416.32" y2="191.51"/>
    <line class="cls-2" x1="403.67" y1="245.04" x2="402.47" y2="244.91"/>
    <line class="cls-2" x1="421.1" y1="189.9" x2="421.37" y2="191.08"/>
    <line class="cls-2" x1="416.32" y1="258.44" x2="416.39" y2="259.64"/>
    <line class="cls-2" x1="421.37" y1="258.87" x2="421.1" y2="260.05"/>
    <line class="cls-2" x1="369.69" y1="118.25" x2="368.72" y2="118.97"/>
    <line class="cls-2" x1="373.41" y1="99.24" x2="373.95" y2="100.32"/>
    <line class="cls-2" x1="389.76" y1="153.01" x2="388.65" y2="153.49"/>
    <line class="cls-2" x1="377.29" y1="96.54" x2="378.11" y2="97.42"/>
    <line class="cls-2" x1="412.01" y1="156.13" x2="412.36" y2="157.28"/>
    <line class="cls-2" x1="293.81" y1="37.97" x2="292.64" y2="37.61"/>
    <line class="cls-2" x1="310.69" y1="29.36" x2="310.2" y2="30.48"/>
    <line class="cls-2" x1="351.51" y1="53.01" x2="350.78" y2="53.99"/>
    <line class="cls-2" x1="291.67" y1="42.53" x2="290.64" y2="41.86"/>
    <line class="cls-2" x1="353.37" y1="72.72" x2="352.48" y2="71.89"/>
    <line class="cls-2" x1="296.94" y1="60.19" x2="296.45" y2="61.31"/>
    <line class="cls-2" x1="331.7" y1="80.25" x2="330.97" y2="81.24"/>
    <line class="cls-2" x1="191.08" y1="28.58" x2="189.9" y2="28.85"/>
    <line class="cls-2" x1="201.37" y1="12.68" x2="201.5" y2="13.89"/>
    <line class="cls-2" x1="248.57" y1="12.68" x2="248.44" y2="13.88"/>
    <line class="cls-2" x1="191.51" y1="33.63" x2="190.3" y2="33.56"/>
    <line class="cls-2" x1="260.05" y1="28.85" x2="258.87" y2="28.58"/>
    <line class="cls-2" x1="204.91" y1="46.28" x2="205.04" y2="47.48"/>
    <line class="cls-2" x1="259.64" y1="33.56" x2="258.43" y2="33.63"/>
    <line class="cls-2" x1="245.04" y1="46.28" x2="244.9" y2="47.48"/>
    <line class="cls-2" x1="97.43" y1="71.85" x2="96.54" y2="72.68"/>
    <line class="cls-2" x1="98.4" y1="52.93" x2="99.12" y2="53.91"/>
    <line class="cls-2" x1="139.26" y1="29.34" x2="139.75" y2="30.45"/>
    <line class="cls-2" x1="100.32" y1="75.99" x2="99.23" y2="76.54"/>
    <line class="cls-2" x1="157.29" y1="37.6" x2="156.13" y2="37.95"/>
    <line class="cls-2" x1="118.25" y1="80.25" x2="118.97" y2="81.23"/>
    <line class="cls-2" x1="159.29" y1="41.87" x2="158.28" y2="42.53"/>
    <line class="cls-2" x1="153" y1="60.19" x2="153.49" y2="61.3"/>
    <line class="cls-2" x1="53.91" y1="99.12" x2="52.93" y2="98.4"/>
    <line class="cls-2" x1="72.67" y1="96.54" x2="71.84" y2="97.43"/>
    <line class="cls-2" x1="76.54" y1="99.24" x2="75.99" y2="100.32"/>
    <line class="cls-2" x1="30.44" y1="139.75" x2="29.32" y2="139.26"/>
    <line class="cls-2" x1="81.23" y1="118.97" x2="80.25" y2="118.25"/>
    <line class="cls-2" x1="37.94" y1="156.13" x2="37.59" y2="157.29"/>
    <line class="cls-2" x1="42.53" y1="158.28" x2="41.86" y2="159.3"/>
    <line class="cls-2" x1="387.89" y1="224.98" x2="389.1" y2="224.98"/>
    <path class="cls-2" d="M296.88,389.79c-1.15.53-1.89,1.52-2.35,2.63-.46,1.11-.65,2.35-.67,3.53-.05,2.38.53,4.88,1.41,7.06.89,2.19,2.19,4.37,3.84,6.09.82.86,1.77,1.66,2.83,2.24,1.04.57,2.23.97,3.46.85"/>
    <path class="cls-2" d="M331.62,369.76c-2.62,1.98-3.96,5.08-3.99,8.29-.02,3.2,1.25,6.33,3.35,8.7"/>
    <path class="cls-2" d="M349.66,374.02c.44.88.76,1.79.96,2.75"/>
    <path class="cls-2" d="M204.9,403.67s-.02.04-.02.05c-.01.04-.02.09-.03.13-.04.18-.06.36-.09.55-.11.74-.21,1.48-.31,2.22-.13.99-.25,1.98-.37,2.97-.24,1.98-.47,3.96-.69,5.94-.19,1.71-1.13,10.17-1.19,11.9"/>
    <path class="cls-2" d="M245.03,403.67c-.09.02-.14.13-.17.2-.08.18-.11.36-.14.55-.05.3-.07.61-.09.91-.03.42-.03.84-.04,1.27,0,1.01.03,2.01.08,3.02.11,2.02.28,4.02.51,6.03.22,2.01.49,4,.83,5.99.17.99.35,1.99.57,2.97.14.64.3,1.27.5,1.9.07.2.14.4.22.6.06.13.12.26.2.37"/>
    <path class="cls-2" d="M100.29,374c-1.28,2.55-1.57,5.47-.85,8.23.72,2.76,2.4,5.16,4.71,6.81"/>
    <path class="cls-2" d="M118.25,369.7s.02.05.02.08c0,.05-.01.1-.03.14-.05.18-.13.34-.22.51-.14.28-.29.55-.45.81-.22.37-.44.74-.67,1.1-.53.85-1.09,1.68-1.65,2.51-1.13,1.66-2.3,3.29-3.48,4.9-1.19,1.61-2.4,3.21-3.64,4.78-.63.79-3.1,3.89-3.97,4.5"/>
    <path class="cls-2" d="M153,389.77s.01.04.01.05c0,.04,0,.08-.02.12-.03.15-.08.3-.13.45-.19.58-.41,1.15-.62,1.72-.3.77-.6,1.53-.91,2.3-.62,1.53-1.26,3.05-1.91,4.56-1.21,2.83-2.73,6.24-4.04,9.03"/>
    <path class="cls-2" d="M373.91,100.34c-1.17.62-1.6,1.98-1.69,3.15-.1,1.23.14,2.52.53,3.67.4,1.17.99,2.3,1.73,3.29.72.97,1.66,1.9,2.74,2.49"/>
    <path class="cls-2" d="M378.08,97.45c-.94.89-1.4,2.11-1.47,3.37-.07,1.26.25,2.52.8,3.64,1.09,2.21,3.2,4.05,5.64,4.64"/>
    <path class="cls-2" d="M416.32,191.51s0,.02,0,.02c0,.02,0,.04,0,.06,0,.07,0,.14,0,.21,0,.26-.01.53-.02.79-.01.36-.03.72-.04,1.07-.03.72-.07,1.43-.1,2.15-.07,1.43-.15,2.87-.23,4.3"/>
    <path class="cls-2" d="M421.37,191.08s-.02.06-.02.08c0,.07,0,.14,0,.21.02.26.06.52.1.78.06.36.12.71.18,1.06.13.71.27,1.41.42,2.12.29,1.41.61,2.81.95,4.21"/>
    <path class="cls-2" d="M407.4,291.66c-.35-.22-.83-.1-1.16.04-.38.15-.71.37-1.03.61-.65.48-1.22,1.04-1.75,1.63"/>
    <path class="cls-2" d="M412,293.82c-.28-.07-.62.34-.75.5-.2.25-.36.51-.52.78-.32.55-.59,1.11-.84,1.69"/>
    <line class="cls-2" x1="245.04" y1="403.67" x2="244.9" y2="402.47"/>
    <line class="cls-2" x1="62.05" y1="224.98" x2="60.84" y2="224.98"/>
    <path class="cls-2" d="M508.26,224.98h-17.67c-1.96,0-3.92,0-5.86,0s-3.89,0-5.8,0c-1.91,0-3.8,0-5.64,0-1.85,0-3.65,0-5.38,0-1.73,0-3.37,0-4.89,0-1.52,0-2.91,0-4.16,0-1.24,0-2.33,0-3.27,0-.94,0-1.73,0-2.39,0-.66,0-1.2,0-1.64,0s-.78,0-1.05,0h-.62c-.15,0-.25,0-.31,0h-.13"/>
    <path class="cls-2" d="M428.76,247.08c.4-3.33.71-6.7.93-10.09.26-4.06.39-8.16.38-12.25-.01-4.13-.16-8.26-.45-12.36-.23-3.29-.55-6.57-.95-9.82"/>
    <path class="cls-2" d="M410.86,205.19c.1.81.19,1.66.27,2.47s.17,1.66.24,2.47.14,1.65.2,2.47c.06.82.12,1.65.16,2.47.1,1.64.17,3.3.22,4.95.05,1.65.07,3.3.07,4.95s-.02,3.3-.07,4.95c-.05,1.65-.12,3.3-.22,4.95-.05.82-.1,1.65-.16,2.47-.06.82-.13,1.66-.2,2.47-.07.82-.15,1.66-.24,2.47-.08.81-.18,1.66-.27,2.47"/>
    <line class="cls-2" x1="442.2" y1="224.98" x2="442.85" y2="224.98"/>
    <line class="cls-2" x1="407.42" y1="158.28" x2="408.08" y2="159.29"/>
    <line class="cls-2" x1="350.72" y1="76.54" x2="349.63" y2="75.99"/>
    <line class="cls-2" x1="61.3" y1="153.49" x2="60.18" y2="153.01"/>
    <path class="cls-2" d="M508.26,66.88v158.1"/>
    <path class="cls-2" d="M61.11,103.88c.14.02.27.07.4.11.2.07.39.16.59.25.59.28,1.16.6,1.73.94.87.51,1.72,1.05,2.56,1.61,1.69,1.11,3.33,2.27,4.95,3.47,1.62,1.2,3.21,2.43,4.77,3.72.78.64,1.54,1.3,2.28,1.98.31.29.62.59.92.89.21.22.42.45.62.69.12.15.23.29.31.47.03.07.08.18.02.25"/>
  </g>
  <g id="_图层_3" data-name="图层 3">
    <path class="cls-1" d="M399.9,284.72h-3.43v-12.93c-1.25,1.17-2.73,2.04-4.43,2.6v-3.11c.9-.29,1.87-.85,2.92-1.67,1.05-.82,1.77-1.77,2.16-2.86h2.78v17.97Z"/>
    <path class="cls-1" d="M359.89,352.58v3.19h-12.02c.13-1.2.52-2.35,1.17-3.42.65-1.08,1.94-2.51,3.86-4.29,1.55-1.44,2.49-2.42,2.84-2.93.47-.71.71-1.41.71-2.1,0-.76-.21-1.35-.62-1.76s-.98-.62-1.7-.62-1.29.22-1.71.65c-.42.43-.67,1.15-.73,2.15l-3.42-.34c.2-1.89.84-3.24,1.92-4.06,1.07-.82,2.42-1.23,4.03-1.23,1.77,0,3.15.48,4.16,1.43,1.01.95,1.51,2.14,1.51,3.55,0,.81-.14,1.57-.43,2.3-.29.73-.75,1.49-1.37,2.29-.42.53-1.16,1.29-2.25,2.28-1.08.99-1.77,1.65-2.06,1.98-.29.33-.52.64-.7.95h6.81Z"/>
    <path class="cls-1" d="M269.24,398.85l3.32-.4c.11.85.39,1.49.85,1.94.46.45,1.03.67,1.68.67.71,0,1.3-.27,1.79-.81.48-.54.73-1.26.73-2.17,0-.86-.23-1.55-.7-2.05-.46-.5-1.03-.76-1.7-.76-.44,0-.96.09-1.57.26l.38-2.8c.93.02,1.64-.18,2.12-.6.49-.43.73-.99.73-1.7,0-.6-.18-1.08-.54-1.44-.36-.36-.83-.54-1.43-.54s-1.09.2-1.5.61c-.42.41-.67,1-.76,1.78l-3.16-.54c.22-1.08.55-1.95,1-2.59.44-.65,1.06-1.16,1.86-1.53.79-.37,1.68-.56,2.67-.56,1.68,0,3.04.54,4.05,1.61.84.88,1.26,1.87,1.26,2.98,0,1.57-.86,2.82-2.58,3.76,1.03.22,1.85.71,2.46,1.48.61.77.92,1.69.92,2.77,0,1.57-.57,2.91-1.72,4.02-1.15,1.11-2.58,1.66-4.28,1.66-1.62,0-2.96-.47-4.03-1.4-1.07-.93-1.68-2.15-1.86-3.66Z"/>
    <path class="cls-1" d="M179.17,404.23v-3.6h-7.32v-3l7.76-11.36h2.88v11.35h2.22v3.02h-2.22v3.6h-3.32ZM179.17,397.62v-6.12l-4.11,6.12h4.11Z"/>
    <path class="cls-1" d="M94.1,352.97l3.42-.35c.1.77.39,1.39.87,1.84.48.45,1.03.68,1.66.68.72,0,1.32-.29,1.82-.87.5-.58.74-1.46.74-2.63,0-1.1-.25-1.92-.74-2.47-.49-.55-1.13-.82-1.92-.82-.98,0-1.87.44-2.65,1.31l-2.78-.4,1.76-9.31h9.07v3.21h-6.47l-.54,3.04c.76-.38,1.55-.57,2.34-.57,1.52,0,2.81.55,3.87,1.66,1.06,1.11,1.59,2.54,1.59,4.31,0,1.47-.43,2.79-1.28,3.94-1.16,1.58-2.78,2.37-4.85,2.37-1.65,0-3-.44-4.04-1.33-1.04-.89-1.66-2.08-1.87-3.58Z"/>
    <path class="cls-1" d="M60.35,267.43l-3.32.37c-.08-.68-.29-1.19-.63-1.51-.34-.33-.79-.49-1.33-.49-.72,0-1.34.33-1.84.98-.5.65-.82,2.01-.95,4.06.85-1.01,1.92-1.51,3.19-1.51,1.43,0,2.66.55,3.68,1.64,1.02,1.09,1.53,2.5,1.53,4.22,0,1.83-.54,3.3-1.61,4.41-1.07,1.11-2.45,1.66-4.14,1.66-1.81,0-3.29-.7-4.46-2.11-1.16-1.4-1.75-3.7-1.75-6.9s.61-5.64,1.82-7.09c1.21-1.45,2.79-2.17,4.72-2.17,1.36,0,2.48.38,3.38,1.14.89.76,1.46,1.87,1.7,3.31ZM52.58,274.91c0,1.12.26,1.98.77,2.58.51.61,1.1.91,1.76.91s1.16-.25,1.59-.74c.42-.5.63-1.31.63-2.44s-.23-2.02-.68-2.56c-.46-.54-1.03-.81-1.71-.81s-1.22.26-1.67.77c-.46.52-.68,1.28-.68,2.29Z"/>
    <path class="cls-1" d="M46.92,173.51v-3.19h11.73v2.49c-.97.95-1.95,2.32-2.95,4.1s-1.76,3.68-2.29,5.68c-.52,2.01-.78,3.8-.77,5.38h-3.31c.06-2.47.57-5,1.53-7.57.96-2.57,2.25-4.87,3.86-6.9h-7.8Z"/>
    <path class="cls-1" d="M96.99,98.83c-.89-.37-1.53-.89-1.93-1.54-.4-.65-.6-1.37-.6-2.15,0-1.33.47-2.44,1.4-3.31.93-.87,2.26-1.31,3.97-1.31s3.02.44,3.96,1.31c.94.87,1.41,1.97,1.41,3.31,0,.83-.22,1.57-.65,2.22-.43.65-1.04,1.14-1.82,1.48.99.4,1.75.98,2.26,1.75.52.77.77,1.65.77,2.65,0,1.65-.53,3-1.58,4.03-1.05,1.03-2.46,1.55-4.21,1.55-1.63,0-2.98-.43-4.06-1.28-1.28-1.01-1.92-2.39-1.92-4.15,0-.97.24-1.86.72-2.67.48-.81,1.24-1.43,2.27-1.87ZM97.38,103.04c0,.94.24,1.68.73,2.21.48.53,1.09.79,1.81.79s1.29-.25,1.76-.76c.46-.51.7-1.24.7-2.2,0-.84-.24-1.51-.71-2.02-.47-.51-1.07-.76-1.79-.76-.84,0-1.46.29-1.87.87-.41.58-.62,1.2-.62,1.88ZM97.7,95.37c0,.68.19,1.22.58,1.6.39.38.9.57,1.54.57s1.17-.19,1.56-.58c.39-.39.59-.92.59-1.6,0-.64-.19-1.16-.58-1.54s-.9-.58-1.53-.58-1.18.2-1.57.59-.59.91-.59,1.55Z"/>
    <path class="cls-1" d="M172.01,59.98l3.32-.37c.08.68.29,1.18.63,1.5.34.33.79.49,1.35.49.71,0,1.31-.33,1.81-.98.5-.65.81-2,.95-4.05-.86,1-1.94,1.5-3.23,1.5-1.41,0-2.62-.54-3.64-1.63-1.02-1.09-1.53-2.5-1.53-4.24s.54-3.28,1.62-4.39c1.08-1.11,2.45-1.67,4.12-1.67,1.81,0,3.3.7,4.47,2.11,1.16,1.4,1.75,3.71,1.75,6.93s-.61,5.63-1.82,7.08c-1.21,1.45-2.79,2.17-4.74,2.17-1.4,0-2.53-.37-3.39-1.12-.86-.74-1.42-1.86-1.66-3.34ZM179.77,52.49c0-1.11-.25-1.97-.76-2.58-.51-.61-1.1-.92-1.76-.92s-1.16.25-1.58.75c-.42.5-.63,1.32-.63,2.46s.23,2,.68,2.54c.46.54,1.03.81,1.71.81s1.21-.26,1.67-.78c.45-.52.68-1.29.68-2.29Z"/>
    <g>
      <path class="cls-1" d="M266.57,64.12h-3.43v-12.93c-1.25,1.17-2.73,2.04-4.43,2.6v-3.11c.9-.29,1.87-.85,2.92-1.67,1.05-.82,1.77-1.77,2.16-2.86h2.78v17.97Z"/>
      <path class="cls-1" d="M277.5,46.15c1.73,0,3.09.62,4.06,1.86,1.16,1.46,1.75,3.89,1.75,7.29s-.59,5.82-1.76,7.3c-.97,1.22-2.32,1.83-4.05,1.83s-3.15-.67-4.21-2.01c-1.07-1.34-1.6-3.72-1.6-7.16s.59-5.79,1.76-7.28c.97-1.22,2.32-1.83,4.05-1.83ZM277.5,49c-.42,0-.79.13-1.11.4-.33.26-.58.74-.76,1.42-.24.89-.35,2.38-.35,4.48s.11,3.54.32,4.33c.21.79.48,1.31.8,1.57.32.26.69.39,1.1.39s.79-.13,1.11-.4c.33-.26.58-.74.76-1.42.24-.88.35-2.37.35-4.47s-.11-3.54-.32-4.33c-.21-.79-.48-1.31-.8-1.57-.32-.26-.69-.4-1.1-.4Z"/>
    </g>
    <g>
      <path class="cls-1" d="M347.86,111.02h-3.43v-12.93c-1.25,1.17-2.73,2.04-4.43,2.6v-3.11c.9-.29,1.87-.85,2.92-1.67,1.05-.82,1.77-1.77,2.16-2.86h2.78v17.97Z"/>
      <path class="cls-1" d="M360.38,111.02h-3.43v-12.93c-1.25,1.17-2.73,2.04-4.43,2.6v-3.11c.9-.29,1.87-.85,2.92-1.67,1.05-.82,1.77-1.77,2.16-2.86h2.78v17.97Z"/>
    </g>
    <g>
      <path class="cls-1" d="M389.57,186.05h-3.43v-12.93c-1.25,1.17-2.73,2.04-4.43,2.6v-3.11c.9-.29,1.87-.85,2.92-1.67,1.05-.82,1.77-1.77,2.16-2.86h2.78v17.97Z"/>
      <path class="cls-1" d="M406.28,182.87v3.19h-12.02c.13-1.2.52-2.35,1.17-3.42.65-1.08,1.94-2.51,3.86-4.29,1.55-1.44,2.49-2.42,2.84-2.93.47-.71.71-1.41.71-2.1,0-.76-.21-1.35-.62-1.76s-.98-.62-1.7-.62-1.29.22-1.71.65c-.42.43-.67,1.15-.73,2.15l-3.42-.34c.2-1.89.84-3.24,1.92-4.06,1.07-.82,2.42-1.23,4.03-1.23,1.77,0,3.15.48,4.16,1.43,1.01.95,1.51,2.14,1.51,3.55,0,.81-.14,1.57-.43,2.3-.29.73-.75,1.49-1.37,2.29-.42.53-1.16,1.29-2.25,2.28-1.08.99-1.77,1.65-2.06,1.98-.29.33-.52.64-.7.95h6.81Z"/>
    </g>
  </g>
</svg>